<svg id="Image" xmlns="http://www.w3.org/2000/svg" viewBox="0 0 24 24">
  <g id="g914">
    <path id="path2" d="M17.86,18.047H16.337l2.575-2.574a.409.409,0,0,0-.579-.579L15.06,18.166a.54.54,0,0,0,0,.679l3.273,3.273a.41.41,0,0,0,.579-.58l-2.575-2.573H17.86A3.112,3.112,0,0,0,21,16V11h-.978v4.982A2.083,2.083,0,0,1,17.86,18.047Z" class="aw-theme-iconOutline" fill="#464646"/>
    <path id="rect823" d="M0,10H1V24H0Z" class="aw-theme-iconOutline" fill="#464646"/>
    <path id="rect823-0" d="M14,23v1H0V23Z" class="aw-theme-iconOutline" fill="#464646"/>
    <path id="rect823-0-6" d="M14,10v1H0V10Z" class="aw-theme-iconOutline" fill="#464646"/>
    <path id="rect823-8" d="M6,18H7v4H6Z" class="aw-theme-iconOutline" fill="#464646"/>
    <path id="rect823-8-1" d="M11,18v1H6V18Z" class="aw-theme-iconOutline" fill="#464646"/>
    <path id="rect823-8-18" d="M14,12v1H4V12Z" class="aw-theme-iconOutline" fill="#464646"/>
    <path id="rect823-8-9" d="M14,21v1H6V21Z" class="aw-theme-iconOutline" fill="#464646"/>
    <path id="rect823-8-1-1" d="M14,13H13V10h1Z" class="aw-theme-iconOutline" fill="#464646"/>
    <path id="rect823-8-1-1-4" d="M14,24H13V21h1Z" class="aw-theme-iconOutline" fill="#464646"/>
    <path id="rect824-9" d="M24,0H14V1H24Z" class="aw-theme-iconOutline" fill="#464646"/>
    <path id="rect824-4-5" d="M24,9H16v1h8Z" class="aw-theme-iconOutline" fill="#464646"/>
    <path id="rect824-4-9-4" d="M24,10V0H23V10Z" class="aw-theme-iconOutline" fill="#464646"/>
    <path id="rect824-4-3-0" d="M21,6H16V7h5Z" class="aw-theme-iconOutline" fill="#464646"/>
    <path id="rect824-4-3-0-6" d="M21,4H14V5h7Z" class="aw-theme-iconOutline" fill="#464646"/>
    <path id="rect824-4-3-0-8" d="M16,6v4h1V6Z" class="aw-theme-iconOutline" fill="#464646"/>
    <path id="rect824-4-3-0-8-7" d="M14,0V5h1V0Z" class="aw-theme-iconOutline" fill="#464646"/>
    <path id="rect824-4-3-0-8-1" d="M20,4V7h1V4Z" class="aw-theme-iconOutline" fill="#464646"/>
    <path id="rect823-8-1-15" d="M11,16v1H4V16Z" class="aw-theme-iconOutline" fill="#464646"/>
    <path id="rect823-8-1-0" d="M10,16h1v3H10Z" class="aw-theme-iconOutline" fill="#464646"/>
    <path id="rect823-8-11" d="M4,12H5v5H4Z" class="aw-theme-iconOutline" fill="#464646"/>
  </g>
</svg>
