<svg id="Layer_1" data-name="Layer 1" xmlns="http://www.w3.org/2000/svg" viewBox="0 0 24 24">
  <g id="g898">
    <path id="path892" d="M3.413,15.94a1.563,1.563,0,0,1-1.091-1.125,1.95,1.95,0,0,1,0-.687l.017-.057H1.9a3.7,3.7,0,0,1-.613-.037,1.658,1.658,0,0,1-1.1-.865C.005,12.8.016,12.962.006,10.4,0,8.909.006,8,.022,7.842.078,7.336.006,7.451,1.66,5.236,2.5,4.118,3.219,3.175,3.318,3.074a1.49,1.49,0,0,1,.593-.391l.169-.065,4.665-.013,4.664-.013L14,1.3,14.58.012h1c.548,0,1,.006,1,.013s-.253.57-.562,1.252-.568,1.259-.575,1.284c-.012.042.012.045.335.038l.348-.007L16.7,1.308,17.286.025l1-.007,1-.007-.06.134c-.033.074-.3.666-.6,1.316s-.545,1.2-.552,1.212.068.071.174.126a1.554,1.554,0,0,1,.665.7,2.127,2.127,0,0,1,.142.373c.035.17.037,4.978,0,5.128-.014.06-.014.106,0,.115s.6.469,1.3,1.025c1.451,1.145,1.428,1.122,1.427,1.441a.549.549,0,0,1-.048.253c-.026.049-.281.418-.567.821l-.52.731-.058-.044c-.031-.025-.159-.124-.283-.219a1,1,0,0,1-.224-.206c0-.017.2-.308.439-.645s.443-.629.45-.649a9.951,9.951,0,0,0-1.072-.893c-.6-.471-1.1-.863-1.118-.87s-.8,1.045-1.224,1.67c-.251.371-.272.391-.421.393-.073,0-.3-.018-.514-.043s-.395-.045-.412-.045a18.4,18.4,0,0,1-.039-2.028c-.007-2.235,0-2.073-.168-2.311a.649.649,0,0,0-.25-.191L15.6,7.22l-1.119-.007c-.616,0-1.131,0-1.146.012a4.784,4.784,0,0,0-.222.455l-.2.435.052.149a1.663,1.663,0,0,1,.067.354,1.234,1.234,0,0,1-.373.981,1.188,1.188,0,0,1-1.416.238,1.276,1.276,0,0,1-.644-.745,1.445,1.445,0,0,1,0-.8,1.234,1.234,0,0,1,.422-.61.562.562,0,0,0,.177-.237,1.155,1.155,0,0,0,.086-.21c0-.027-.9-.032-4.913-.026L1.461,7.22l-.135.06a.6.6,0,0,0-.249.21c-.2.264-.188.046-.188,2.737v2.412l.078.156a.672.672,0,0,0,.354.346c.115.053.118.053,4.458.066l4.344.012-.329.2c-.18.108-.473.3-.65.426l-.322.229H5.235l.02.07a2.246,2.246,0,0,1,.019.362,1.193,1.193,0,0,1-.058.463,1.565,1.565,0,0,1-.927.937A2.033,2.033,0,0,1,3.413,15.94Zm.7-.817a.719.719,0,0,0,.339-.932l-.058-.121-.6.007-.6.007-.059.114a.49.49,0,0,0-.05.3.645.645,0,0,0,.2.488.7.7,0,0,0,.827.132Zm14.163-8.57c0-1.755-.015-2.53-.034-2.549s-.112.117-.322.475c-.162.277-.535.912-.829,1.412l-.534.909.114.134a1.57,1.57,0,0,1,.31.552l.068.191.007,1.613.008,1.613.609-.914.61-.914Zm-6.2,2.734a.638.638,0,0,0,.348-.593.62.62,0,0,0-.633-.657.661.661,0,0,0-.4,1.156.641.641,0,0,0,.325.158A.673.673,0,0,0,12.068,9.287Zm1.8-5.109C14.707,2.331,15.4.809,15.4.8s-.07-.022-.166-.022h-.173l-1.5,3.305c-.825,1.818-1.5,3.317-1.5,3.332a.749.749,0,0,0,.268.122C12.338,7.536,13.03,6.026,13.869,4.178Zm2.765.756c.471-.8.857-1.466.857-1.474s-.554-.016-1.23-.016H15.032l-.643,1.417c-.353.78-.647,1.432-.654,1.449s.171.033.874.035a6.931,6.931,0,0,1,1.154.045C15.771,6.392,16.163,5.737,16.634,4.934Zm-12.8.144c0-1.073,0-1.258-.035-1.226s-.448.589-.953,1.264L1.931,6.342H3.838ZM12.361,4.9c.359-.793.651-1.443.648-1.446s-1.885-.012-4.181-.021L4.652,3.416V6.342h7.056ZM17.7,1.7c.223-.488.406-.9.406-.909a.348.348,0,0,0-.162-.02h-.163l-.409.9c-.226.5-.41.908-.41.916a.447.447,0,0,0,.166.008l.166-.008Z" class="aw-theme-iconOutline" fill="#464646"/>
    <path id="path4607" d="M4.068,14.481a.279.279,0,0,1-.279.279h0a.279.279,0,0,1-.279-.279h0a.279.279,0,0,1,.279-.28h0A.279.279,0,0,1,4.068,14.481Z" class="aw-theme-iconOutline" fill="#464646"/>
    <path id="path2" d="M15.477,22a3.5,3.5,0,1,1,3.5-3.5h0A3.5,3.5,0,0,1,15.477,22Zm0-6a2.5,2.5,0,1,0,2.5,2.5h0A2.5,2.5,0,0,0,15.477,16Z" class="aw-theme-iconOutline" fill="#464646"/>
    <path id="path4" d="M15.477,24a9.643,9.643,0,0,1-8.436-5.269.5.5,0,0,1,0-.481A9.657,9.657,0,0,1,15.477,13a9.658,9.658,0,0,1,8.44,5.259.5.5,0,0,1,0,.482A9.658,9.658,0,0,1,15.477,24ZM8.052,18.491A8.615,8.615,0,0,0,15.477,23,8.632,8.632,0,0,0,22.9,18.5,8.632,8.632,0,0,0,15.477,14,8.631,8.631,0,0,0,8.052,18.491Z" class="aw-theme-iconOutline" fill="#464646"/>
  </g>
</svg>
