<svg id="Layer_1" data-name="Layer 1" xmlns="http://www.w3.org/2000/svg" viewBox="0 0 24 24">
  <g id="g816">
    <path id="path2" d="M22,12.821V0H0V21H12.032A6.494,6.494,0,1,0,22,12.821ZM21,1V7H20V4.7A1.7,1.7,0,0,0,18.3,3H14.7a1.7,1.7,0,0,0-1.2.5A1.7,1.7,0,0,0,12.3,3H8.7a1.7,1.7,0,0,0-1.2.5A1.7,1.7,0,0,0,6.3,3H1.7a1.693,1.693,0,0,0-.7.155V1ZM19,7H14V4.7a.7.7,0,0,1,.7-.7h3.6a.7.7,0,0,1,.7.7h0ZM13,7H8V4.7A.7.7,0,0,1,8.7,4h3.6a.7.7,0,0,1,.7.7ZM1,20V4.7A.7.7,0,0,1,1.7,4H6.3a.7.7,0,0,1,.7.7V8H21v4.032A6.494,6.494,0,0,0,11.5,20Zm16.5,3A5.5,5.5,0,1,1,23,17.5,5.5,5.5,0,0,1,17.5,23Z" class="aw-theme-iconOutline" fill="#464646"/>
    <path id="polygon4" d="M15.392,20.442l2.1-2.2,2.1,2.2.8-.8-2.2-2.1,2.2-2.1-.8-.8-2.1,2.2-2.1-2.2-.8.8,2.2,2.1-2.2,2.1Z" class="aw-theme-iconOutline" fill="#464646"/>
  </g>
</svg>
