<svg id="svg8" xmlns="http://www.w3.org/2000/svg" viewBox="0 0 24 24">
  <g id="g1040">
    <path id="rect906-1" d="M2.5,0A.5.5,0,0,1,3,.5V23.5a.5.5,0,1,1-1,0V.5A.5.5,0,0,1,2.5,0Z" class="aw-theme-iconOutline" fill="#464646"/>
    <path id="rect906-1-4" d="M21.5,0a.5.5,0,0,1,.5.5V23.5a.5.5,0,1,1-1,0V.5A.5.5,0,0,1,21.5,0Z" class="aw-theme-iconOutline" fill="#464646"/>
    <path id="rect906-1-4-0" d="M22,23.419v.162a.418.418,0,0,1-.419.419H2.419A.418.418,0,0,1,2,23.581v-.162A.418.418,0,0,1,2.419,23H21.581A.418.418,0,0,1,22,23.419Z" class="aw-theme-iconOutline" fill="#464646"/>
    <path id="rect906-1-4-0-2" d="M22,.419V.581A.418.418,0,0,1,21.581,1H2.419A.418.418,0,0,1,2,.581V.419A.418.418,0,0,1,2.419,0H21.581A.418.418,0,0,1,22,.419Z" class="aw-theme-iconOutline" fill="#464646"/>
    <path id="path851-3" d="M5.036,4.58v-2.5h13.95v5H5.036Zm12.98,0V3.052H6.007V6.108H18.016Z" class="aw-theme-iconOutline" fill="#464646"/>
    <path id="path853-5" d="M5.036,10.081V8.122H9.027v3.919H5.036Zm3.02,0V9.092H6.007V11.07H8.056Z" class="aw-theme-iconOutline" fill="#464646"/>
    <path id="path855-1" d="M10.034,10.081V8.122h3.991v3.919H10.034Zm3.02,0V9.092H11V11.07h2.05Z" class="aw-theme-iconOutline" fill="#464646"/>
    <path id="path857-8" d="M15.067,10.081V8.122h3.955v3.919H15.067Zm2.985,0V9.092H16.038V11.07h2.014Z" class="aw-theme-iconOutline" fill="#464646"/>
    <path id="path859-7" d="M15.031,15.061V13.083h3.955v3.955H15.031Zm2.985,0V14.053L17,14.062l-1.016.01-.009,1-.01,1h2.05Z" class="aw-theme-iconOutline" fill="#464646"/>
    <path id="path861-1" d="M10.042,15.07l.01-1.969,1.986-.009,1.987-.009v3.955H10.033Zm3.012-.01V14.053l-1.016.009-1.016.01-.009,1-.01,1h2.051Z" class="aw-theme-iconOutline" fill="#464646"/>
    <path id="path863-7" d="M5,15.061V13.083H8.991v3.955H5Zm3.02,0V14.054H5.971v2.013H8.02Z" class="aw-theme-iconOutline" fill="#464646"/>
    <path id="path865-9" d="M5,20.04V18.081H8.991V22H5Zm3.02,0v-.988H5.971v1.977H8.02Z" class="aw-theme-iconOutline" fill="#464646"/>
    <path id="path867-1" d="M10.034,20.04V18.081h3.991V22H10.034Zm3.02,0v-.988H11v1.977h2.05Z" class="aw-theme-iconOutline" fill="#464646"/>
    <path id="path869-2" d="M15.031,20.04V18.081h3.955V22H15.031Zm3.021,0v-.988H16v1.977h2.05Z" class="aw-theme-iconOutline" fill="#464646"/>
  </g>
</svg>
