<svg id="Layer_1" data-name="Layer 1" xmlns="http://www.w3.org/2000/svg" viewBox="0 0 24 24">
  <g id="g1036">
    <path id="path926" d="M5.265,12.115a1.45,1.45,0,0,1-.507-2.468,1.391,1.391,0,0,1,.763-.361,1.461,1.461,0,0,1,1.711,1.548,1.5,1.5,0,0,1-.82,1.211,1,1,0,0,1-.591.118A1.459,1.459,0,0,1,5.265,12.115Zm.811-.967a.535.535,0,1,0-.85-.275A.54.54,0,0,0,6.076,11.148Z" class="aw-theme-iconOutline" fill="#464646"/>
    <path id="path928" d="M0,9.333v1.1a.591.591,0,0,1,.008.592L0,11.03v1.082a.989.989,0,0,0,.17-.056,1.956,1.956,0,0,0,.746-.729A1.111,1.111,0,0,0,1,10.716C1,10.3,1,10.276.9,10.089A1.786,1.786,0,0,0,.172,9.4,1.305,1.305,0,0,0,0,9.333Z" class="aw-theme-iconOutline" fill="#464646"/>
    <path id="path930" d="M17.734,12.122a1.658,1.658,0,0,1-.886-.807,1.051,1.051,0,0,1-.1-.583,1.052,1.052,0,0,1,.115-.62,1.451,1.451,0,0,1,1.442-.836,1.244,1.244,0,0,1,.727.24,1.444,1.444,0,0,1-.148,2.514,1.057,1.057,0,0,1-.626.13A1.665,1.665,0,0,1,17.734,12.122Zm.726-.917a.545.545,0,0,0,.092-.9.61.61,0,0,0-.624-.041.542.542,0,0,0,.532.943Z" class="aw-theme-iconOutline" fill="#464646"/>
    <path id="path934" d="M24,9.324a1.16,1.16,0,0,0-.2.074,1.792,1.792,0,0,0-.736.709,1.128,1.128,0,0,0-.088.625c0,.428,0,.458.1.635a1.716,1.716,0,0,0,.85.744c.017.006.058,0,.076.008V11.043a.544.544,0,0,1-.08-.555.387.387,0,0,1,.08-.1Z" class="aw-theme-iconOutline" fill="#464646"/>
    <path id="path6" d="M4.853.854A.5.5,0,0,0,4.146.146l-3,3a.5.5,0,0,0,0,.707l3,3a.5.5,0,0,0,.707-.707L2.707,4H10V3H2.707Z" class="aw-theme-iconOutline" fill="#464646"/>
    <path id="path8" d="M19.146,6.213a.5.5,0,0,0,.7.72l.013-.013,3-3a.5.5,0,0,0,0-.707l-3-3a.5.5,0,0,0-.72.7l.012.012L21.226,3H14V4h7.36Z" class="aw-theme-iconOutline" fill="#464646"/>
    <path id="path924" d="M2.656,7.589c-1.479,0-1.707,0-2.656,0v.892c1.237,0,1.736-.012,3.387-.013,5.957,0,6.088,0,6.222.068a1.023,1.023,0,0,1,.252.2l.114.129v4.061H0v.951H.645L.652,15.1l.01,1.213H0v.648c.069.048.135.078.2.129a.568.568,0,0,0,.334.158c.114,0,.125.01.125.1,0,.078.057.162.238.349.131.136.342.384.467.549l.227.3.011-.643.01-.642,1.069-.01,1.07-.01v2.483H2.979c-.6,0-.774.01-.764.045s.055.181.107.349.1.351.116.4l.023.1.637.01.638.01.01,1.232L3.754,23.1H2.467l-.045.189c-.025.1-.082.3-.129.44s-.086.257-.086.263S3.984,24,6.154,24l3.946-.012.173-.087a1.4,1.4,0,0,0,.534-.547l.084-.157.009-7.4.01-7.4-.1-.168a1.415,1.415,0,0,0-.557-.537l-.19-.1Zm1.1,6.273v2.446H1.6L1.605,15.1l.01-1.215,1.069-.008Zm6.221,0v2.446H8.912a3.933,3.933,0,0,1-1.08-.045c-.01-.025-.013-.571-.008-1.213l.01-1.17,1.07-.008Zm-5.268.018,1.061.014c.583.007,1.068.019,1.078.029s.022.55.029,1.2l.012,1.184h-2.2L4.7,15.1Zm2.174,3.361v2.483H4.688L4.7,18.491l.01-1.23,1.088-.01Zm3.094,0v2.483H7.816l.008-1.233.01-1.23,1.07-.01ZM6.881,20.622V23.1H4.688L4.7,21.872l.01-1.232L5.8,20.63Zm3.1,0-.013,1.059c-.011,1-.016,1.062-.086,1.156a1.012,1.012,0,0,1-.172.174c-.093.069-.156.075-1,.086l-.9.011.008-1.234.01-1.234,1.072-.01Z" class="aw-theme-iconOutline" fill="#464646"/>
    <path id="path932" d="M21.863,7.58c-3.842-.01-7.127,0-7.449.014a2.094,2.094,0,0,0-.719.1,1.55,1.55,0,0,0-.554.549l-.075.149,0,7.378V23.15l.09.186a1.489,1.489,0,0,0,.5.549,1.215,1.215,0,0,0,.361.082c.139.012,1.937.024,4,.027L21.76,24l-.082-.244c-.045-.134-.1-.336-.129-.449L21.5,23.1H20.221V20.656h1.285l.021-.136a4.28,4.28,0,0,1,.131-.457c.06-.178.107-.328.108-.333s-.346-.009-.772-.009h-.773l.007-1.231.01-1.232,1.053-.01,1.051-.01v1.344l.228-.3c.126-.166.343-.425.483-.574a1.343,1.343,0,0,0,.265-.359c.01-.072.036-.091.135-.1a.6.6,0,0,0,.272-.131c.062-.05.179-.111.275-.176v-.634h-.687V13.9H24v-.97H14V8.842l.135-.129c.279-.268-.274-.247,6.056-.242,1.742,0,2.512.01,3.809.015v-.9ZM14,13.859h2.121v2.446H14V13.859Zm8.342,0v2.446H20.221l.008-1.213.009-1.213,1.053-.01Zm-5.248.037H19.25v2.409H17.094V13.9ZM14,17.24h2.121v2.481H14V17.24Zm3.094,0H19.25v2.481H17.094V17.24ZM14,20.656h2.121V23.1h-.816c-.9,0-1.045-.028-1.184-.2a.566.566,0,0,1-.1-.2c-.011-.059-.021-.542-.021-1.074Zm3.094,0H19.25V23.1H17.094V20.656Z" class="aw-theme-iconOutline" fill="#464646"/>
    <path id="path924-2" d="M0,7.59v.889c.818-.008,2.229-.008,5.1-.006,1.651,0,2.149.008,3.386.013V7.594c-.949,0-1.177,0-2.656,0Zm0,5.34v.947l.648,0,.01,1.17c.005.642,0,1.188-.008,1.213A2.5,2.5,0,0,1,0,16.3v.953l.648.006.01,1.23.008,1.233H0v.91l.648.006.01,1.234.008,1.234L0,23.1v.886L2.328,24C4.5,24,6.276,24,6.275,24s-.039-.125-.086-.264-.1-.335-.128-.439L6.016,23.1H4.729l.007-1.231.01-1.232.639-.01.636-.01.024-.1c.012-.054.063-.236.115-.4s.1-.325.108-.349-.161-.045-.764-.045H4.729V17.242l1.07.01,1.068.01.01.642.012.643.226-.3c.126-.165.336-.413.467-.549.181-.188.238-.271.238-.349,0-.094.011-.1.125-.1a.563.563,0,0,0,.334-.158c.068-.051.134-.081.2-.129v-.648H7.82L7.83,15.1l.008-1.215h.644V12.93H0Zm4.729.933,1.07.01,1.068.008.01,1.215.01,1.213H4.729V13.863Zm-.954.018.01,1.215.01,1.213H1.6l.011-1.184c.007-.651.02-1.192.03-1.2s.494-.022,1.078-.029ZM1.6,17.242l1.086.01,1.087.01.01,1.23.01,1.233H1.6V17.242Zm0,3.381,1.086.008,1.087.01.01,1.232L3.8,23.1H1.6V20.623Z" class="aw-theme-iconOutline" fill="#464646"/>
    <path id="path932-2" d="M17.57,7.58l-2.136.006v.9c1.3-.005,2.066-.014,3.808-.015,2.843,0,3.993,0,4.758.017v-.9C23.061,7.579,20.887,7.571,17.57,7.58Zm-2.136,5.346.691.881,0,.089v2.409h-.687v.634c.1.065.213.126.275.176a.6.6,0,0,0,.271.131c.1.01.233-.1.243-.025a.891.891,0,0,0,.158.484c.139.149.357.408.482.574l.229.3V17.238l1.051.01,1.052.01.01,1.232.008,1.231h-.774c-.425,0-.771,0-.771.009s.048.155.107.333a4.052,4.052,0,0,1,.131.457l.022.136h1.285V23.1H17.93l-.045.207c-.026.113-.084.315-.129.449L17.674,24l3.744-.006c1.331,0,1.847-.01,2.582-.017V23.1h-.687V20.656H24v-.935h-.687V17.24H24v-.935h-.687V13.859l.687.03v-.963H15.434Zm1.658.933,1.051.01,1.052.01.01,1.213.008,1.213H17.092V13.859Zm3.092.037H22.34v2.409H20.184V13.9Zm0,3.344H22.34v2.481H20.184V17.24Zm0,3.416H22.34V23.1H20.184V20.656Z" class="aw-theme-iconOutline" fill="#464646"/>
  </g>
</svg>
