<svg id="svg8" xmlns="http://www.w3.org/2000/svg" viewBox="0 0 24 24">
  <g id="g837">
    <path id="path843" d="M.954,20.941A1.289,1.289,0,0,1,.1,20.212L0,20.01V.99l.094-.2A1.3,1.3,0,0,1,.671.178L.9.055l9.3-.01L19.5.036l.2.074a1.307,1.307,0,0,1,.677.638l.118.24.011,3.74c.007,2.057,0,4.084-.012,4.5L20.468,10h-.783V7.875H16.593V10H15.73V7.875H12.638V11h-.827V7.875H8.719v3.488H9.931l.023.188a4.271,4.271,0,0,1,.023.432v.242H8.719v3.56H9.977v.827H8.719v3.523H9.977V21L5.564,21C1.8,20.994,1.122,20.986.954,20.941Zm2.983-2.567V16.612H.809v1.36c0,1.5.01,1.58.213,1.836a1.052,1.052,0,0,0,.3.235l.186.092H3.937Zm3.919,0V16.612H4.764v3.523H7.856ZM3.919,14.005V12.243l-1.555-.009L.809,12.225v3.561l1.555-.01,1.555-.009Zm3.937,0v-1.78H4.764v3.56H7.856ZM3.937,9.619V7.875H.809v3.488H3.937Zm3.919,0V7.875H4.764v3.488H7.856Zm11.82-5.362.01-2.7-.1-.193A.96.96,0,0,0,19.041.9C18.947.875,16.1.866,10.188.873c-8.3.008-8.72.012-8.844.073a1.092,1.092,0,0,0-.439.437c-.078.145-.078.154-.088,2.823,0,1.473,0,2.7.008,2.724s1.778.044,9.43.037l9.412-.009Z" class="aw-theme-iconOutline" fill="#464646"/>
    <path id="path845" d="M13.9,5.642a1.993,1.993,0,0,1-.884-.479,1.77,1.77,0,0,1-.49-1.472,1.725,1.725,0,0,1,2.948-.944A1.676,1.676,0,0,1,15.78,4.7,1.743,1.743,0,0,1,13.9,5.642Zm.7-.89a1.034,1.034,0,0,0,.435-.408,1.081,1.081,0,0,0,.048-.666A.988.988,0,0,0,14.5,3.1a1.082,1.082,0,0,0-.66.046.9.9,0,0,0-.48.789.838.838,0,0,0,.473.795A.96.96,0,0,0,14.6,4.752Z" class="aw-theme-iconOutline" fill="#464646"/>
    <path id="path847" d="M6.024,5.642a2,2,0,0,1-.885-.479,1.9,1.9,0,0,1-.492-.988A1.749,1.749,0,0,1,5.6,2.392a1.729,1.729,0,1,1,.42,3.25Zm.7-.89a1.034,1.034,0,0,0,.435-.408,1.081,1.081,0,0,0,.048-.666A.988.988,0,0,0,6.624,3.1a1.082,1.082,0,0,0-.66.046.9.9,0,0,0-.48.789.837.837,0,0,0,.473.795A.96.96,0,0,0,6.724,4.752Z" class="aw-theme-iconOutline" fill="#464646"/>
    <path id="path849" d="M16.947,23.98a6.524,6.524,0,0,1-5.3-3.611,6.456,6.456,0,0,1-.016-5.663,6.827,6.827,0,0,1,1.552-2.051,6.48,6.48,0,1,1,3.76,11.325Zm1.017-.97a5.517,5.517,0,0,0,.515-10.916,7.1,7.1,0,0,0-2.089.017,5.517,5.517,0,0,0,.539,10.9,4.318,4.318,0,0,0,1.035,0Z" class="aw-theme-iconOutline" fill="#464646"/>
    <path id="path851" d="M14.489,17.412a1.643,1.643,0,0,1-1.075-1.185,3.135,3.135,0,0,1,0-1.155,1.7,1.7,0,0,1,.941-1.2,1.236,1.236,0,0,1,.751-.166,2.857,2.857,0,0,1,.615.027,1.574,1.574,0,0,1,1.144,1.178,3.644,3.644,0,0,1,0,1.25,1.768,1.768,0,0,1-.95,1.165,1.289,1.289,0,0,1-.757.14,1.725,1.725,0,0,1-.666-.054Zm1.041-.87a1.168,1.168,0,0,0,.369-1.081,1.061,1.061,0,0,0-.2-.687.708.708,0,0,0-1.075.013c-.171.195-.21.35-.21.836a1.078,1.078,0,0,0,.1.636.515.515,0,0,0,.288.3.574.574,0,0,0,.393.078A.847.847,0,0,0,15.53,16.542Z" class="aw-theme-iconOutline" fill="#464646"/>
    <path id="path853" d="M14.5,21.13c.016-.028,1.1-1.7,2.4-3.7l2.373-3.654h1.2l-.106.171c-.059.094-1.139,1.757-2.4,3.7L15.675,21.16l-.6.01c-.509.008-.6,0-.575-.04Z" class="aw-theme-iconOutline" fill="#464646"/>
    <path id="path855" d="M19.07,21.167a1.582,1.582,0,0,1-1.008-1.179,1.749,1.749,0,0,1-.055-.662A1.917,1.917,0,0,1,18.516,18a1.835,1.835,0,0,1,1.349-.526A1.536,1.536,0,0,1,21.5,18.661a3.282,3.282,0,0,1,0,1.295,1.778,1.778,0,0,1-.946,1.16c-.235.112-.262.116-.765.126A1.4,1.4,0,0,1,19.07,21.167Zm.972-.779a.751.751,0,0,0,.409-.378c.067-.127.077-.2.077-.63,0-.525-.026-.623-.227-.839a.593.593,0,0,0-.489-.208c-.525-.007-.806.424-.765,1.173.025.467.166.743.44.866A.977.977,0,0,0,20.042,20.388Z" class="aw-theme-iconOutline" fill="#464646"/>
  </g>
</svg>
