<svg id="Layer_1" data-name="Layer 1" xmlns="http://www.w3.org/2000/svg" viewBox="0 0 24 24">
  <g id="g851">
    <path id="path909" d="M3,0V17.251H4.086V.977H16.4l5.518,5.077L21.9,16.4h1.074L23,5.661,16.856,0ZM3,17.133V24H22.987V20.3H21.9v2.72H4.086V17.133Z" class="aw-theme-iconOutline" fill="#464646"/>
    <path id="rect847" d="M21.9,16.305l1.074.023.013,4.032L21.9,20.345Z" class="aw-theme-iconOutline" fill="#464646"/>
    <path id="path843" d="M9,22.225c-.032-.014-.375-.29-.763-.614-.587-.491-.711-.6-.738-.666a35.594,35.594,0,0,1-.029-3.653l0-3.577.037-.051a.32.32,0,0,1,.1-.082,16.361,16.361,0,0,1,2.282-.027,17.788,17.788,0,0,1,2.276.035c.031.017.395.3.809.625l.813.641c.111.087.111.083.111,1v.827h1.249c.687,0,1.249,0,1.249-.006s-.089-.076-.2-.163l-.2-.158.095-.109c.052-.06.131-.149.176-.2l.08-.088.459.362.552.435c.052.041.09.08.085.088s-.009,1.182-.008,2.609a22.808,22.808,0,0,1-.031,2.657.329.329,0,0,1-.093.1l-.061.04h-4.1c-3.444,0-4.109-.005-4.157-.026Zm7.85-2.76V17.272l-1.68,0a7.277,7.277,0,0,1-1.729-.041.6.6,0,0,1-.087-.087c-.036-.048-.037-.077-.046-.9l-.009-.848H9.632l0,3.132,0,3.133H16.85ZM9.011,18.346c0-1.693-.006-3.087-.013-3.1s-.782-.662-.908-.761a25.4,25.4,0,0,0-.031,3.068v3.092l.463.387c.254.214.469.389.476.389S9.012,20.039,9.011,18.346ZM12.7,14.784l-.41-.323-.4-.317H10.3c-.874,0-1.588.006-1.588.013s.169.153.373.323l.372.309h1.626c.894,0,1.622,0,1.618-.006Z" class="aw-theme-iconOutline" fill="#464646"/>
    <path id="path845" d="M15.043,16.247a.753.753,0,0,1-.135-.054,9.045,9.045,0,0,1-.771-.5l-.079-.067.01-.289a1.149,1.149,0,0,1,.121-.586l.05-.1-.053-.116c-.1-.222-.107-.276-.117-1-.006-.4,0-.758.01-.9a.744.744,0,0,1,.091-.38l.073-.146-.061-.132a1.47,1.47,0,0,1-.082-.223c-.028-.118-.045-1.332-.024-1.62a.767.767,0,0,1,.093-.378,1.785,1.785,0,0,1,.122-.219l.046-.06-.322-.326c-.545-.554-1.2-1.253-1.213-1.295a3.812,3.812,0,0,1-.013-.387l0-.349-2.971.011c-1.634.006-3.266.006-3.628,0l-.657-.013-.137-.067a.828.828,0,0,1-.382-1.04.8.8,0,0,1,.409-.448l.112-.053,3.618,0c2.555,0,3.618-.01,3.619-.023s.007-.182.014-.38c.013-.391.021-.421.124-.489A11.317,11.317,0,0,1,14.8,4.588h1.844l.067.042a3.115,3.115,0,0,1,.31.3l.243.254v.311l1.461.01a7.03,7.03,0,0,1,1.559.047.826.826,0,0,1,.451.45,1.111,1.111,0,0,1,.035.521.78.78,0,0,1-.436.548l-.131.062-1.467.013-1.468.013-.007.613a2.965,2.965,0,0,1-.034.667,7.5,7.5,0,0,1-.938.8c-.245.2-.445.363-.445.368A.738.738,0,0,0,15.9,9.7a1.286,1.286,0,0,1,.093.165c.092.207.092.209.1,1.157l.007.893-.1.151-.1.152.072.151a1.309,1.309,0,0,1,.093.259c.023.128.032,1.663.01,1.794a.613.613,0,0,1-.111.227c-.089.129-.1.144-.071.178a2,2,0,0,1,.205.692c0,.146-.055.2-.53.493-.4.25-.423.26-.521.238Zm.02-1.263c.1-.141.242-.345.323-.454.2-.266.209-.291.22-.494.008-.164.007-.17-.024-.144s-.578.674-.763.908a1,1,0,0,0-.216.4c0,.038.006.04.142.04h.143Zm-.4-.827c.005-.012.161-.205.346-.427A2.917,2.917,0,0,0,15.539,13a.678.678,0,0,0-.013-.316c-.017-.016-.124.1-.552.615a3.986,3.986,0,0,0-.307.4.842.842,0,0,0-.056.377C14.623,14.175,14.643,14.205,14.661,14.157Zm.347-1.724c.577-.676.638-.767.635-.95,0-.211,0-.211-.251.084a9,9,0,0,0-.723.909.4.4,0,0,0-.066.277c0,.153,0,.158.031.121S14.82,12.654,15.008,12.433Zm.056-1.323c.413-.493.443-.535.474-.667a1,1,0,0,0-.007-.374c-.018-.019-.06.025-.278.3-.116.144-.22.27-.231.28s-.116.163-.231.341l-.209.324.012.144a1.032,1.032,0,0,0,.022.16c.006.009.027,0,.048-.029Zm-.183-1.07c.163-.19.3-.352.3-.359a.471.471,0,0,0-.161-.014h-.161l-.117.176a1.707,1.707,0,0,0-.145.254.677.677,0,0,0-.019.289C14.58,10.386,14.717,10.23,14.881,10.04Zm.367-.913h.334l.571-.467.571-.468V5.55H13.829V8.22l.463.464.463.464.079-.01C14.878,9.132,15.064,9.127,15.248,9.127ZM13.07,6.6c.028-.008.046-.033.06-.086a1.045,1.045,0,0,0-.022-.435l-.025-.052L9.39,6.033a32.607,32.607,0,0,0-3.749.043.264.264,0,0,0-.131.213.327.327,0,0,0,.11.273c.03.017.543.024,2.241.031,3.69.016,5.167.018,5.209.007Zm7.111-.066a.292.292,0,0,0-.063-.473,11.5,11.5,0,0,0-1.452-.025h-1.4v.557h2.856Z" class="aw-theme-iconOutline" fill="#464646"/>
  </g>
</svg>
