<svg id="Layer_1" data-name="Layer 1" xmlns="http://www.w3.org/2000/svg" viewBox="0 0 24 24">
  <g id="g822">
    <path id="path946" d="M11.372,22.318c-.106-.061-1.274-1.045-1.316-1.109a24.34,24.34,0,0,1-.044-3.3c0-2.316.007-3.251.028-3.3a.211.211,0,0,1,.09-.09c.077-.035,4.017-.04,4.106-.005s1.531,1.183,1.565,1.25a3.925,3.925,0,0,1,.032.793v.731H16.2a3.6,3.6,0,0,0,.369-.01,2.545,2.545,0,0,0-.234-.157c-.128-.082-.271-.182-.318-.222-.08-.071-.084-.082-.084-.259a1.393,1.393,0,0,1,.1-.576l.054-.117-.055-.124a2.914,2.914,0,0,1-.1-1.065,2.36,2.36,0,0,1,.106-.99l.056-.116-.058-.119a3.1,3.1,0,0,1-.1-1.194l.01-.615.109-.219.108-.219-.57-.59c-.314-.325-.623-.651-.688-.725l-.118-.134V9.205H11.567c-3.665,0-3.372.017-3.6-.215a.671.671,0,0,1-.21-.582.732.732,0,0,1,.42-.652,20.352,20.352,0,0,1,3.362-.051h3.252L14.8,7.35c.007-.331.012-.36.066-.414l.058-.057h3.4l.268.266.267.267v.293h1.316a5.242,5.242,0,0,1,1.42.049A.752.752,0,0,1,22,8.642a.713.713,0,0,1-.426.511c-.106.048-.172.051-1.414.051h-1.3v.451c0,.248-.008.513-.017.587-.016.132-.023.142-.209.3-.107.091-.386.32-.62.51a4.8,4.8,0,0,0-.42.359l.1.193.089.177.008.859.008.858-.082.119c-.076.11-.079.124-.049.2.134.322.131.3.123,1.173l-.008.821-.086.122c-.079.113-.083.128-.054.2.146.351.191.626.119.735a1.785,1.785,0,0,1-.325.242l-.285.181h.86l-.076-.063c-.042-.034-.113-.088-.159-.12a.277.277,0,0,1-.082-.075,2.689,2.689,0,0,1,.327-.376c.009,0,.2.149.435.331l.5.389.076.059-.012,2.4L19,22.226l-.072.062-.071.061H15.139c-2.752,0-3.73-.008-3.767-.03Zm7.074-2.492.006-1.952H16.964a8.032,8.032,0,0,1-1.566-.04c-.139-.071-.149-.136-.149-.938v-.725l-1.634.006-1.633.007-.007,2.8-.006,2.8,3.235-.007,3.235-.006ZM11.383,18.8l0-2.765L11,15.713c-.211-.174-.393-.321-.4-.326s-.021,1.231-.021,2.746v2.754l.4.335c.22.184.4.336.406.337s.006-1.242,0-2.763Zm5.446-2.542c.072-.109.2-.288.285-.4a1.667,1.667,0,0,0,.185-.292c.036-.1.045-.257.015-.256s-.714.838-.786.957c-.091.151-.08.187.055.187C16.7,16.451,16.7,16.45,16.829,16.254ZM14.664,15.6c0-.013-.545-.446-.638-.506a5.8,5.8,0,0,0-1.461-.037l-1.395.007.329.273.328.274h1.419c.78,0,1.418-.005,1.418-.011Zm2.136-.5c.425-.52.464-.58.477-.746.007-.084,0-.141-.013-.141a7.331,7.331,0,0,0-.761.921c-.034.093-.044.326-.015.324A4.251,4.251,0,0,0,16.8,15.1Zm.459-1.735a.415.415,0,0,0,.1-.263c0-.062-.011-.109-.023-.105a11.375,11.375,0,0,0-.818,1c-.069.121-.1.259-.058.3A8.939,8.939,0,0,0,17.259,13.365Zm-.417-.616c.194-.232.367-.451.387-.487a.759.759,0,0,0,.036-.395c-.013-.009-.1.075-.185.186a.8.8,0,0,1-.18.189c-.011-.007-.029.014-.041.045s-.11.192-.218.357a1.13,1.13,0,0,0-.2.373c0,.07.021.154.039.154S16.649,12.981,16.842,12.749ZM16.5,12c.019-.027.124-.153.233-.28l.2-.23H16.8c-.127,0-.128,0-.228.147-.12.177-.2.412-.133.412C16.453,12.052,16.479,12.03,16.5,12Zm1.32-1.457.506-.413V7.781H15.757v2.351l.413.414.413.413h.729ZM15.07,8.672a.631.631,0,0,0,0-.441c-.03-.027-.65-.031-3.348-.023l-3.31.01-.065.06a.252.252,0,0,0-.012.326l.053.067,1.911.006,3.323.013C14.46,8.693,15.048,8.686,15.07,8.672ZM21.476,8.6a.262.262,0,0,0-.047-.358,9.171,9.171,0,0,0-1.3-.032H18.859v.458h2.564Z" class="aw-theme-iconOutline" fill="#464646"/>
    <path id="path909" d="M6,3.1V17.926h.977V3.979h11.58l4.466,3.869L23,17.16h.977L24,7.494,18.971,3.1ZM6,17.82V24H23.988V20.67h-.976v2.448H6.977v-5.3Z" class="aw-theme-iconOutline" fill="#464646"/>
    <path id="rect847" d="M23.01,17.074l.956.021.012,3.629-.957-.014Z" class="aw-theme-iconOutline" fill="#464646"/>
    <path id="path909-31" d="M3.023,1.756V16.582H4V2.635h9.579l.967.806,1.231,0L13.993,1.756Zm0,14.72v6.681H6.511l-.376-.882H4v-5.8Z" class="aw-theme-iconOutline" fill="#464646"/>
    <path id="path909-31-1" d="M0,0V14.826H.977V.879h9.579l.967.907,1.23,0L10.97,0ZM0,14.72V21.4H3.488l-.376-.882H.977v-5.8Z" class="aw-theme-iconOutline" fill="#464646"/>
  </g>
</svg>
