<svg id="Artwork" xmlns="http://www.w3.org/2000/svg" viewBox="0 0 24 24">
  <g id="g838">
    <path id="path828" d="M3.448,0C.867,0,.9,0,.567.222a1.411,1.411,0,0,0-.483.6A12.769,12.769,0,0,0,.018,3.2L.008,5.428H.892V3.311c0-2.042,0-2.121.064-2.222C1.089.874.98.882,3.5.884A23.437,23.437,0,0,1,5.9.929c.106.038.16.129.833,1.346L7.45,3.581l1.266.007L9.982,3.6H18.19V5.428h.882V2.746H8L7.348,1.627C6.664.452,6.55.3,6.258.149S5.879,0,3.448,0Z" class="aw-theme-iconOutline" fill="#464646"/>
    <path id="path869" d="M2,9.826v1.187l4.861,1.369v.343L2,11.358v4.569h9.028c0-.011-.009-.018-.011-.028a4.4,4.4,0,0,1-.044-.55H2.6V12.078L7.46,13.445V12L2.6,10.634v-.085L11,12.88l.011-.56-.27-.072Z" class="aw-theme-iconOutline" fill="#464646"/>
    <path id="path825-1" d="M11.857,7.763v3.313l-5-1.409v1.194L11,12.06v-.585L7.465,10.48v-.092L11.27,11.46h1.184l0-3.168h.919l-.013,3.168c.2.007.4.011.6,0v0l.009-3.694Z" class="aw-theme-iconOutline" fill="#464646"/>
    <path id="path821-1" d="M10.777,3.98a1.8,1.8,0,0,0-1.383.549.791.791,0,0,1-.8.036,1.685,1.685,0,0,0-1.82.057c-.258.186-.323.164-.593.066a2.791,2.791,0,0,0-.447-.131A1.608,1.608,0,0,0,4.546,4.8a1.1,1.1,0,0,0-.487.923A1.174,1.174,0,0,0,4.7,6.71a1.463,1.463,0,0,0,1.168.116c.1-.041.194-.084.279-.124.283-.136.35-.167.667.058a1.626,1.626,0,0,0,2.01-.181.409.409,0,0,1,.288-.128.6.6,0,0,1,.409.135,1.65,1.65,0,0,0,1.239.438,2.067,2.067,0,0,0,1.02-.3.845.845,0,0,1,.616.7l.042.216H13.6V7.384a2.391,2.391,0,0,0-1.148-1.838,1.747,1.747,0,0,0-.165-.725A1.674,1.674,0,0,0,10.941,4c-.056-.007-.112-.011-.168-.013Zm-.1.527a1.216,1.216,0,0,1,.191.009,1.087,1.087,0,0,1,.866.511,1.338,1.338,0,0,1,.116.654l-.01.164.168.079a1.939,1.939,0,0,1,.96,1.193h-.046A1.318,1.318,0,0,0,11.7,6.188h-.1l-.08.052a1.388,1.388,0,0,1-.736.262h-.011a1.022,1.022,0,0,1-.824-.284,1.238,1.238,0,0,0-.874-.292,1.034,1.034,0,0,0-.721.324.958.958,0,0,1-1.161.1,1.107,1.107,0,0,0-1.334-.113c-.071.034-.148.072-.234.106a.791.791,0,0,1-.607-.08.644.644,0,0,1-.36-.551.587.587,0,0,1,.262-.5.933.933,0,0,1,.682-.14,2.217,2.217,0,0,1,.347.1A1.106,1.106,0,0,0,7.15,5.029a1.026,1.026,0,0,1,1.117-.017,1.436,1.436,0,0,0,1.556-.12,1.158,1.158,0,0,1,.851-.385Z" class="aw-theme-iconOutline" fill="#464646"/>
    <path id="rect869" d="M0,5.364H.89V18H0Z" class="aw-theme-iconOutline" fill="#464646"/>
    <path id="rect871" d="M.89,17.059H11V18H.89Z" class="aw-theme-iconOutline" fill="#464646"/>
    <path id="rect873" d="M18.191,5.39h.877V11h-.877Z" class="aw-theme-iconOutline" fill="#464646"/>
    <path id="rect837" d="M23,12h1V24H23Z" class="aw-theme-iconOutline" fill="#464646"/>
    <path id="rect837-8" d="M12,12h1V24H12Z" class="aw-theme-iconOutline" fill="#464646"/>
    <path id="rect837-8-9" d="M24,23v1H12V23Z" class="aw-theme-iconOutline" fill="#464646"/>
    <path id="rect837-8-9-5" d="M24,12v1H12V12Z" class="aw-theme-iconOutline" fill="#464646"/>
  </g>
</svg>
