<svg id="Image" xmlns="http://www.w3.org/2000/svg" viewBox="0 0 24 24">
  <g id="g840">
    <path id="path2" d="M20-.043v7.87L9.742,4.494V7.137l9.444,2.97a4.521,4.521,0,0,1,1.769-.136V9.707L10.941,6.457V5.945L21,9.179V.957h2v9.594a3.469,3.469,0,0,1,1,1L24-.043Zm-20,5V7.482l9.94,3.241v.989L0,8.473V19.957H10.078a1.639,1.639,0,0,1,.026-.328,4.688,4.688,0,0,1,.18-.672H1V9.929l9.941,3.137V9.948L1,6.811v-.5l13.657,4.267c0-.008,0-.114.008-.122a2.4,2.4,0,0,1,.809-.612c.065-.038.15,0,.225,0Z" class="aw-theme-iconOutline" fill="#464646"/>
    <g id="g862">
      <path id="path8" d="M14.792,15.333a.537.537,0,0,1-.383-.157l-2.167-2.167a.542.542,0,0,1,.765-.766l2.168,2.167a.541.541,0,0,1-.383.923Z" class="aw-theme-iconOutline" fill="#464646"/>
      <path id="path10" d="M13.709,16.417H11.542a.542.542,0,0,1,0-1.084h2.167a.542.542,0,1,1,0,1.084Z" class="aw-theme-iconOutline" fill="#464646"/>
      <path id="path12" d="M15.875,14.251a.544.544,0,0,1-.542-.542V11.542a.542.542,0,0,1,1.084,0v2.167A.542.542,0,0,1,15.875,14.251Z" class="aw-theme-iconOutline" fill="#464646"/>
      <path id="path14" d="M22.375,22.916a.537.537,0,0,1-.383-.157l-2.167-2.168a.541.541,0,0,1,.765-.765l2.168,2.167a.54.54,0,0,1,0,.764A.534.534,0,0,1,22.375,22.916Z" class="aw-theme-iconOutline" fill="#464646"/>
      <path id="path16" d="M19.125,24a.542.542,0,0,1-.542-.542h0V21.292a.542.542,0,0,1,1.084,0v2.166a.541.541,0,0,1-.54.542Z" class="aw-theme-iconOutline" fill="#464646"/>
      <path id="path18" d="M23.458,19.667H21.292a.542.542,0,0,1,0-1.084h2.166a.542.542,0,0,1,0,1.084Z" class="aw-theme-iconOutline" fill="#464646"/>
      <path id="path20" d="M21.711,18.046a.518.518,0,0,1-.366-.884l.867-.867a2.476,2.476,0,0,0,0-3.5h0a2.535,2.535,0,0,0-3.5,0l-.818.893a.518.518,0,0,1-.764-.694l.835-.908a3.582,3.582,0,0,1,4.983-.016,3.511,3.511,0,0,1,0,4.961h0l-.867.867A.517.517,0,0,1,21.711,18.046Z" class="aw-theme-iconOutline" fill="#464646"/>
      <path id="path22" d="M14.537,23.977a3.511,3.511,0,0,1-2.481-6l.933-.858a.517.517,0,0,1,.758.7h0a.6.6,0,0,1-.058.054l-.918.842a2.481,2.481,0,0,0,.016,3.49,2.537,2.537,0,0,0,3.5,0l.88-.879a.518.518,0,1,1,.732.733h0l-.879.88A3.488,3.488,0,0,1,14.537,23.977Z" class="aw-theme-iconOutline" fill="#464646"/>
    </g>
    <path id="path830" d="M7.576,17.776a2.2,2.2,0,0,1-1.694-1.211,2.5,2.5,0,0,1-.161-.437.337.337,0,0,0-.028-.085c-.01-.013-.39-.016-1.823-.016H2.06v-.979H5.718l.041-.13a2.451,2.451,0,0,1,.249-.528,2.208,2.208,0,0,1,1.379-.955,2.183,2.183,0,0,1,1.664.325,2.441,2.441,0,0,1,.584.581,2.27,2.27,0,0,1,.344.818,2.076,2.076,0,0,1,.03.518A1.689,1.689,0,0,1,9.9,16.3a2.125,2.125,0,0,1-.556.877,1.919,1.919,0,0,1-.554.394A2.239,2.239,0,0,1,7.576,17.776Zm.463-.993a1.2,1.2,0,0,0,.793-.524,1.163,1.163,0,0,0,.2-.586.763.763,0,0,0-.007-.267,1.22,1.22,0,0,0-.365-.7,1.042,1.042,0,0,0-.32-.222,1.017,1.017,0,0,0-.492-.106,1.064,1.064,0,0,0-.5.105,1.026,1.026,0,0,0-.321.223,1.218,1.218,0,0,0,.3,1.969A1.161,1.161,0,0,0,8.039,16.783Z" class="aw-theme-iconOutline" fill="#464646"/>
  </g>
</svg>
