<svg id="Image" xmlns="http://www.w3.org/2000/svg" viewBox="0 0 24 24">
  <g id="g825">
    <path id="path2" d="M20,0V7.87L9.742,4.538V7.18l9.444,2.97a4.521,4.521,0,0,1,1.769-.136V9.75L10.941,6.5V5.988L21,9.222V1h2v9.594a3.469,3.469,0,0,1,1,1L24,0ZM0,5V7.525l9.94,3.241v.99L0,8.517V20H9.578a1.639,1.639,0,0,1,.026-.328A4.688,4.688,0,0,1,9.784,19H1V9.973l9.941,3.136V9.991L1,6.855v-.5l15.957,5.066c0-.008,0-.114.008-.122a2.4,2.4,0,0,1,.809-.612c.065-.038.15,0,.225,0Z" class="aw-theme-iconOutline" fill="#464646"/>
    <path id="path943" d="M7.6,17.767a2.18,2.18,0,0,1-1.727-1.235,2.533,2.533,0,0,1-.133-.348L5.7,16.018H2.069v-.966H5.721l.045-.143a2.22,2.22,0,0,1,1.726-1.485,2.6,2.6,0,0,1,.932.051A2.2,2.2,0,0,1,9.9,16.284a2.169,2.169,0,0,1-2.3,1.483Zm.648-1.035a1.268,1.268,0,0,0,.709-.706,1.457,1.457,0,0,0,.052-.7,1.232,1.232,0,0,0-.776-.887,1.329,1.329,0,0,0-.763-.013,1.273,1.273,0,0,0-.751.717,1.51,1.51,0,0,0-.05.717,1.231,1.231,0,0,0,.871.906A1.388,1.388,0,0,0,8.25,16.732Z" class="aw-theme-iconOutline" fill="#464646"/>
    <path id="path857" d="M16.447,23.012l2.14-2.05-.684-.654-2.134,2.051a2.658,2.658,0,0,1-3.57,0,2.364,2.364,0,0,1-.091-3.342h0c.029-.031.059-.062.091-.091.421-.4.772-.752,1.1-1.067,1.522-1.5,1.833-1.782,2.7-1.9h.032a2.5,2.5,0,0,1,2.833,2.064l.956-.127v-.029a3.462,3.462,0,0,0-3.953-2.821h0c-1.216.168-1.689.633-3.263,2.177-.311.308-.667.655-1.083,1.054a3.264,3.264,0,0,0-.128,4.615c.041.044.084.087.128.129a3.591,3.591,0,0,0,4.928,0Z" class="aw-theme-iconOutline" fill="#464646"/>
    <path id="path2-5" d="M20.6,19.022l2.382-2.29a3.264,3.264,0,0,0,.129-4.613h0c-.042-.044-.084-.087-.128-.128a3.672,3.672,0,0,0-4.933,0L15.907,14.04l.685.654,2.134-2.052a2.659,2.659,0,0,1,3.569,0,2.365,2.365,0,0,1,.091,3.343c-.029.031-.059.061-.091.09l-2.374,2.29a2.552,2.552,0,0,1-4.282-1.377l-.956.124a3.531,3.531,0,0,0,5.92,1.91Z" class="aw-theme-iconOutline" fill="#464646"/>
  </g>
</svg>
