<svg id="Artwork" xmlns="http://www.w3.org/2000/svg" viewBox="0 0 24 24">
  <g id="g852">
    <path id="path828" d="M3.447,0C.867,0,.9,0,.567.222a1.4,1.4,0,0,0-.483.6A12.769,12.769,0,0,0,.018,3.2L.008,5.428H.892V3.311c0-2.042,0-2.121.064-2.222C1.089.874.98.882,3.5.884A23.417,23.417,0,0,1,5.9.929c.106.038.16.129.832,1.346l.717,1.306,1.265.007L9.978,3.6h8.205V5.428h.881V2.746H8L7.345,1.627C6.661.452,6.547.3,6.255.149S5.877,0,3.447,0Z" class="aw-theme-iconOutline" fill="#464646"/>
    <path id="path869" d="M2,9.826v1.187l4.859,1.369v.343L2,11.358v4.569h9.024c0-.011-.008-.018-.011-.028a4.815,4.815,0,0,1-.044-.55H2.6V12.078l4.854,1.367V12L2.6,10.634v-.085l8.392,2.331L11,12.32l-.27-.072Z" class="aw-theme-iconOutline" fill="#464646"/>
    <path id="path825-1" d="M11.852,7.763v3.313l-5-1.409v1.194L11,12.06v-.585L7.462,10.48v-.092l3.8,1.072h1.184l.005-3.168h.919L13.36,11.46a5.983,5.983,0,0,0,.6,0v0l.009-3.694Z" class="aw-theme-iconOutline" fill="#464646"/>
    <path id="path821-1" d="M10.773,3.98a1.8,1.8,0,0,0-1.383.549.789.789,0,0,1-.8.036,1.685,1.685,0,0,0-1.82.057c-.258.186-.323.164-.592.066a2.791,2.791,0,0,0-.447-.131A1.608,1.608,0,0,0,4.544,4.8a1.107,1.107,0,0,0-.487.923A1.174,1.174,0,0,0,4.7,6.71a1.463,1.463,0,0,0,1.168.116c.1-.041.194-.084.279-.124.282-.136.349-.167.666.058a1.625,1.625,0,0,0,2.009-.181.409.409,0,0,1,.288-.128.6.6,0,0,1,.409.135,1.65,1.65,0,0,0,1.239.438,2.063,2.063,0,0,0,1.019-.3.845.845,0,0,1,.616.7l.042.216H13.6V7.384a2.394,2.394,0,0,0-1.148-1.838,1.762,1.762,0,0,0-.165-.725A1.672,1.672,0,0,0,10.937,4c-.056-.007-.112-.011-.168-.013Zm-.1.527a1.228,1.228,0,0,1,.191.009,1.085,1.085,0,0,1,.865.511,1.338,1.338,0,0,1,.116.654l-.01.164L12,5.924a1.939,1.939,0,0,1,.96,1.193h-.046a1.318,1.318,0,0,0-1.227-.929h-.1l-.08.052a1.385,1.385,0,0,1-.735.262h-.011a1.021,1.021,0,0,1-.824-.284,1.238,1.238,0,0,0-.874-.292,1.031,1.031,0,0,0-.72.324.958.958,0,0,1-1.161.1,1.105,1.105,0,0,0-1.333-.113c-.071.034-.148.072-.234.106a.791.791,0,0,1-.607-.08.644.644,0,0,1-.36-.551.59.59,0,0,1,.262-.5.933.933,0,0,1,.682-.14,2.217,2.217,0,0,1,.347.1,1.1,1.1,0,0,0,1.205-.143,1.026,1.026,0,0,1,1.117-.017,1.434,1.434,0,0,0,1.555-.12,1.158,1.158,0,0,1,.851-.385Z" class="aw-theme-iconOutline" fill="#464646"/>
    <path id="rect869" d="M0,5.364H.89V18H0Z" class="aw-theme-iconOutline" fill="#464646"/>
    <path id="rect871" d="M.89,17.059H11V18H.89Z" class="aw-theme-iconOutline" fill="#464646"/>
    <path id="rect873" d="M18.184,5.39h.876V11h-.876Z" class="aw-theme-iconOutline" fill="#464646"/>
    <path id="rect837" d="M22.991,12h1V24h-1Z" class="aw-theme-iconOutline" fill="#464646"/>
    <path id="rect837-8" d="M12,12h1V24H12Z" class="aw-theme-iconOutline" fill="#464646"/>
    <path id="rect837-8-9" d="M23.99,23v1H12V23Z" class="aw-theme-iconOutline" fill="#464646"/>
    <path id="rect837-8-9-5" d="M23.99,12v1H12V12Z" class="aw-theme-iconOutline" fill="#464646"/>
    <path id="polygon2" d="M17.293,22l-2.6-3,.8-.6,1.8,2,3.7-5.1.8.6Z" class="aw-theme-iconOutline" fill="#464646"/>
  </g>
</svg>
