<svg id="svg8" xmlns="http://www.w3.org/2000/svg" viewBox="0 0 24 24">
  <g id="g823">
    <path id="path1132" d="M9.6.043a1.187,1.187,0,0,0-.942.482,1.71,1.71,0,0,0-.273.508c-.028.083-.059.167-.084.264-.011.042-.032.123-.053.2L4.1,15.072,2,15.09,0,20H10.232c-.084-.244-.156-.494-.216-.748H1.2l1.373-3.41H3.859l-.183.6a.849.849,0,0,0-.545.08v0a.462.462,0,0,0-.2.131.611.611,0,0,0-.161.416v.366a.539.539,0,0,0,.178.39.82.82,0,0,0,.324.166,20.5,20.5,0,0,0,6.67.9,6.381,6.381,0,0,1-.111-1.381c0-.022,0-.019,0-.039A18.771,18.771,0,0,1,4,16.7l.758-2.461a1.334,1.334,0,0,0,.164.1,5.467,5.467,0,0,0,1.209.355,17.961,17.961,0,0,0,3.433.285c.235,0,.469-.023.7-.033a7.664,7.664,0,0,1,1.221-2.23A10.326,10.326,0,0,1,12.719,11.5c.01-.008.021-.014.031-.021a14.276,14.276,0,0,1-3.18.433,12.25,12.25,0,0,1-3.92-.547L6.586,8.33a9.847,9.847,0,0,0,2.994.477,10.511,10.511,0,0,0,2.77-.467l.781,2.877c.122-.084.24-.176.365-.252L12.75,8.217l-.008-.029L10.973,1.674a3.163,3.163,0,0,0-.084-.332c-.025-.094-.053-.187-.082-.276a1.733,1.733,0,0,0-.268-.515A1.2,1.2,0,0,0,9.6.043ZM8.451,2.281a2.684,2.684,0,0,0,1.127.235A3.086,3.086,0,0,0,10.7,2.281l.949,3.494a11.024,11.024,0,0,1-2.072.248,9.1,9.1,0,0,1-2.2-.252Z" class="aw-theme-iconOutline" fill="#464646"/>
    <path id="rect871-5" d="M3.887,16.5a.85.85,0,0,0-.755.016l-.016.037.095.125h.573Z" class="aw-theme-iconOutline" fill="#464646"/>
    <path id="path2-2" d="M17.474,24a6.487,6.487,0,1,1,.026,0Zm0-12a5.5,5.5,0,1,0,5.5,5.5A5.5,5.5,0,0,0,17.474,12Z" class="aw-theme-iconOutline" fill="#464646"/>
    <path id="polygon4" d="M16.974,21h1V18h3V17h-3V14h-1v3h-3v1h3Z" class="aw-theme-iconOutline" fill="#464646"/>
  </g>
</svg>
