<svg id="svg8" xmlns="http://www.w3.org/2000/svg" viewBox="0 0 24 24">
  <g id="g831">
    <path id="path1132" d="M11.211,2.546c0-.014.06-.367.16-.868a1.777,1.777,0,0,1,.51-1.063A.963.963,0,0,1,13.052.6a1.077,1.077,0,0,1,.532.688,8.43,8.43,0,0,1,.206,1.254c-.013.02-2.614-.037-2.634-.037s.022.046.022.04Z" class="aw-theme-iconOutline" fill="#464646"/>
    <path id="rect828" d="M6.063,18.072,3.4,18.094,1,24H22.963l-1-5.732a.242.242,0,0,0-.072-.149.588.588,0,0,0-.256-.039h-3.3l.31.92h2.51l.692,4.1H2.439L4.092,19H5.777Z" class="aw-theme-iconOutline" fill="#464646"/>
    <path id="path1122" d="M11.024,1.408l-5.812,19,.228.08a20.838,20.838,0,0,0,13.539-.019l.221-.08L14.054,1.442l-.3.008.008.5H13.67l4.91,18.079a20.34,20.34,0,0,1-12.732.016L11.388,1.93l-.155-.008.023-.5Z" class="aw-theme-iconOutline" fill="#464646"/>
    <path id="path855" d="M12.55,0a1.428,1.428,0,0,0-1.134.58,2.062,2.062,0,0,0-.328.611c-.033.1-.07.2-.1.316-.02.078-.07.238-.1.359l.483.142c.028-.095.083-.259.113-.378.02-.083.051-.171.087-.275a1.552,1.552,0,0,1,.244-.462A.913.913,0,0,1,12.544.5a.937.937,0,0,1,.727.413,1.572,1.572,0,0,1,.24.47c.032.1.064.207.092.31.038.143.083.287.1.353l.492-.084a3.654,3.654,0,0,0-.1-.4c-.03-.113-.065-.226-.1-.332a2.076,2.076,0,0,0-.32-.62A1.441,1.441,0,0,0,12.55,0Z" class="aw-theme-iconOutline" fill="#464646"/>
    <path id="path1130" d="M13.936,2.1a3.425,3.425,0,0,1-1.414.359A2.649,2.649,0,0,1,11.137,2.1l-.251.45a3.214,3.214,0,0,0,1.633.424,3.723,3.723,0,0,0,1.663-.424Z" class="aw-theme-iconOutline" fill="#464646"/>
    <path id="rect871" d="M18.9,19.8a1.014,1.014,0,0,1,.9.017l.019.045-.114.15H19.02Z" class="aw-theme-iconOutline" fill="#464646"/>
    <path id="rect871-5" d="M5.664,19.8a1.017,1.017,0,0,0-.9.019l-.019.045.114.15H5.54Z" class="aw-theme-iconOutline" fill="#464646"/>
    <path id="path881" d="M5.1,19.811a.551.551,0,0,0-.571.168.73.73,0,0,0-.194.5v.439a.639.639,0,0,0,.213.47.988.988,0,0,0,.392.2,24.636,24.636,0,0,0,14.681,0,1.106,1.106,0,0,0,.381-.2.642.642,0,0,0,.217-.47v-.439a.739.739,0,0,0-.194-.5.551.551,0,0,0-.571-.168A22.543,22.543,0,0,1,5.1,19.811Z" class="aw-theme-iconOutline" fill="#464646"/>
    <path id="path877" d="M7.462,13.477l-.95,3.411v.052c.019.178-.195-.159-.06-.043a1.7,1.7,0,0,0,.472.3,6.594,6.594,0,0,0,1.454.427,21.749,21.749,0,0,0,4.13.344,19.269,19.269,0,0,0,3.928-.39,5.44,5.44,0,0,0,1.309-.434c.154-.075.094-.176.213-.3s.187.219.194.05v-.036L17.217,13.5l-.154.068a17.259,17.259,0,0,1-4.553.706,14.756,14.756,0,0,1-4.887-.706Z" class="aw-theme-iconOutline" fill="#464646"/>
    <path id="path872" d="M9.406,6.769,8.47,9.833l.243.073a11.833,11.833,0,0,0,3.809.633A12.662,12.662,0,0,0,16.1,9.906l.232-.077L15.488,6.8l-.236.051a13.428,13.428,0,0,1-2.73.342,11,11,0,0,1-2.877-.355Z" class="aw-theme-iconOutline" fill="#464646"/>
  </g>
</svg>
