<svg id="Layer_1" data-name="Layer 1" xmlns="http://www.w3.org/2000/svg" viewBox="0 0 24 24">
  <g id="g851">
    <path id="path2" d="M.709.006A.709.709,0,0,0,0,.714H0v9.918a.709.709,0,0,0,.709.707H5.662v0l.006,0H5.662v4.951A.709.709,0,0,0,6.37,17h4.409c.034-.238.079-.475.135-.709H7.082a.709.709,0,0,1-.709-.707V11.34H6.361l4.977-4.977v.01h4.246a.709.709,0,0,1,.707.709v3.727q.351-.093.709-.151V6.373a.709.709,0,0,0-.706-.711H11.34l0,0V.715A.709.709,0,0,0,10.63.006H.709Zm.658.709a.4.4,0,0,1,.049,0h8.5a.709.709,0,0,1,.709.707v4.24h.012L5.662,10.639v-.006H1.416a.709.709,0,0,1-.707-.709v-8.5A.708.708,0,0,1,1.367.715Zm2.44,1.16L1.666,7.969H3.053l.439-1.446H5.705l.44,1.442,1.388,0L5.385,1.875Zm.793.938c.022.1.058.236.109.408s.281.912.687,2.22H3.816Q4.464,3.345,4.6,2.813Zm7.31,6.169v.733H9.434v.678h.98a4.642,4.642,0,0,0,1.3,3.033,3.919,3.919,0,0,1-2.193.709l.011.711a4.655,4.655,0,0,0,2.229-.617,7.5,7.5,0,0,1,1.935-2.161,4.639,4.639,0,0,0,.395-1.675h1V9.715H12.615V8.982Zm-.789,1.411h2.254a3.92,3.92,0,0,1-1.125,2.58A3.922,3.922,0,0,1,11.121,10.393Z" class="aw-theme-iconOutline" fill="#464646"/>
    <path id="path2-6" d="M23.034,17.916a5.118,5.118,0,1,1-5.118-5.148h2.106l-2.047,2.059.651.655L21.789,12.3l-3.07-3.182-.744.748,2.047,1.966H17.916a6.084,6.084,0,1,0,6.052,6.116v-.032Z" class="aw-theme-iconOutline" fill="#464646"/>
  </g>
</svg>
