<svg id="Image" xmlns="http://www.w3.org/2000/svg" viewBox="0 0 24 24">
  <g id="g829">
    <path id="path853" d="M4.395,2.236a.476.476,0,0,0-.475.476V8.839l-3.449.01A.476.476,0,0,0,0,9.323v5.543a.476.476,0,0,0,.477.477H1.9a2.038,2.038,0,0,0,4.069,0h2.5a2.037,2.037,0,0,0,1.556,1.871V16.169a1.087,1.087,0,1,1,1.559-1.144.721.721,0,0,0,.119-.061c0-.024-.169-.4-.375-.828l-.375-.785c-.126-.273-.1-.257-.216-.276-.069-.006-.138-.01-.206-.011s-.137,0-.205.008-.135.013-.2.024-.133.025-.2.042-.13.036-.193.058-.126.047-.187.075a1.888,1.888,0,0,0-.18.09c-.059.032-.116.068-.172.1s-.11.078-.163.12-.1.087-.153.134-.1.1-.141.148-.088.106-.129.162-.079.113-.116.174-.069.122-.1.186H6.07a2.353,2.353,0,0,0-4.236,0H.951v-4.6H4.332l.033.012,1.108.3L7,10.966l1.592.9H8.6l.039.02a.485.485,0,0,0,.232.062H12.16c.013,0,.023-.009.035-.009h.184l.916-.916a.473.473,0,0,0-.178-.034h-.609L9.824,2.566a.475.475,0,0,0-.453-.33Zm.476.953H9.02L11.5,10.978l-2.549-.012L7.3,10.032,5.9,9.247A.4.4,0,0,0,5.791,9.2H5.779l-.49-.134-.418-.116ZM3.9,14.109h0a1.094,1.094,0,0,1,1.127,1.062V15.2A1.087,1.087,0,1,1,3.9,14.109Z" class="aw-theme-iconOutline" fill="#464646"/>
    <path id="path843" d="M11.76.091a.477.477,0,0,0-.483.588l.01.033,2.9,10.475.086.041a4.246,4.246,0,0,0,.844.345c.006-.006.07-.188.1-.252L12.205.458A.476.476,0,0,0,11.76.091Z" class="aw-theme-iconOutline" fill="#464646"/>
    <path id="path841" d="M5.877,3.937a.476.476,0,0,0-.476.476v3.81a.476.476,0,0,0,.476.476H9.8a.476.476,0,0,0,.476-.476h0a.47.47,0,0,0-.024-.149L9,4.265a.475.475,0,0,0-.451-.328Zm.476.952H8.2l.944,2.857H6.353Z" class="aw-theme-iconOutline" fill="#464646"/>
    <path id="rect864" d="M20.672,6.956,15.074,8.6l.51,1.732.133-.373.748-.006-.207-.7,3.73-1.1.793,2.7c.643-.033.161.006.76-.018l.244-.006Z" class="aw-theme-iconOutline" fill="#464646"/>
    <path id="rect864-4" d="M13.487,3.352,14.82,7.887l5.6-1.643L19.085,1.709ZM14.671,4,18.4,2.908l.793,2.7-3.73,1.095Z" class="aw-theme-iconOutline" fill="#464646"/>
    <path id="path14" d="M18.581,24H16.417l-.745-2.111-2,.948-1.528-1.529.95-2L11,18.561V16.4l2.1-.744-.95-2,1.527-1.529,2.006.953L16.418,11H18.58l.742,2.079,2-.953,1.529,1.529-.951,2L24,16.4v2.164l-2.1.743.951,2-1.53,1.53-2-.949Zm-1.508-.929h.852l.606-1.717a.718.718,0,0,1,.967-.416l1.635.777.6-.6-.776-1.633a.7.7,0,0,1-.015-.569.709.709,0,0,1,.419-.4l1.709-.605v-.852l-1.709-.6a.7.7,0,0,1-.405-.969l.776-1.631-.6-.6-1.633.776a.722.722,0,0,1-.968-.393l-.606-1.7h-.853l-.605,1.7a.724.724,0,0,1-.972.391l-1.63-.773-.6.6.776,1.634a.707.707,0,0,1-.4.968l-1.709.6v.852l1.708.607a.7.7,0,0,1,.4.968l-.775,1.633.6.6,1.634-.775a.725.725,0,0,1,.966.409Z" class="aw-theme-iconOutline" fill="#464646"/>
    <path id="path16" d="M17.5,19.358A1.857,1.857,0,1,1,19.356,17.5,1.859,1.859,0,0,1,17.5,19.358Zm0-2.786a.929.929,0,1,0,.929.929A.928.928,0,0,0,17.5,16.572Z" class="aw-theme-iconOutline" fill="#464646"/>
  </g>
</svg>
