<svg id="Image" xmlns="http://www.w3.org/2000/svg" viewBox="0 0 24 24">
  <g id="g827">
    <path id="polygon4" d="M19.59,14.612l-2.1,2.2-2.1-2.2-.8.8,2.2,2.1-2.2,2.1.8.8,2.1-2.2,2.1,2.2.8-.8-2.2-2.1,2.2-2.1Z" class="aw-theme-iconOutline" fill="#464646"/>
    <path id="path853" d="M4.416,2.219a.478.478,0,0,0-.478.478h0V8.854L.473,8.861A.479.479,0,0,0,0,9.34v5.568a.479.479,0,0,0,.478.479H1.914a2.046,2.046,0,0,0,4.086,0H8.516a2.046,2.046,0,0,0,1.517,1.867,7.435,7.435,0,0,1,.1-1.01,1.094,1.094,0,0,1,.39-2.1h0a1.112,1.112,0,0,1,.3.034,7.47,7.47,0,0,1,.557-.936A2.364,2.364,0,0,0,8.438,14.43H6.1a2.364,2.364,0,0,0-4.256,0H.955V9.811h3.4l.033.011,1.113.307,1.531.861,1.6.9h.01l.039.019a.491.491,0,0,0,.234.063h3.305c.013,0,.023-.01.035-.01H12.5a7.422,7.422,0,0,1,1.043-.781v0a.476.476,0,0,0-.365-.17h-.614L9.869,2.551a.477.477,0,0,0-.455-.332Zm.477.957H9.061L11.557,11,9,10.988l-1.668-.935-1.4-.789a.426.426,0,0,0-.108-.045H5.807l-.493-.137-.421-.115ZM3.92,14.146h0a1.1,1.1,0,0,1,1.131,1.067v.033a1.093,1.093,0,1,1-1.133-1.1Z" class="aw-theme-iconOutline" fill="#464646"/>
    <path id="path843" d="M11.766.066a.479.479,0,0,0-.436.59l.01.033,2.812,10.149a7.781,7.781,0,0,1,.891-.373L12.26.434A.479.479,0,0,0,11.766.066Z" class="aw-theme-iconOutline" fill="#464646"/>
    <path id="path841" d="M5.9,3.828a.478.478,0,0,0-.478.478V8.133a.478.478,0,0,0,.478.478H9.847a.478.478,0,0,0,.478-.478h0a.47.47,0,0,0-.024-.149L9.037,4.157a.477.477,0,0,0-.453-.329Zm.478.957H8.235l.949,2.87h-2.8Z" class="aw-theme-iconOutline" fill="#464646"/>
    <path id="rect864" d="M20.766,6.961l-5.623,1.65.49,1.67c.131-.035.262-.074.4-.1a3.37,3.37,0,0,1,.547-.082l-.244-.83,3.748-1.1.789,2.686a7.474,7.474,0,0,1,1.1.705l.133-.039Zm-3.926,6.1c-.125.017-.246.044-.367.072l.009.033Z" class="aw-theme-iconOutline" fill="#464646"/>
    <path id="rect864-4" d="M13.548,3.341,14.887,7.9l5.624-1.651L19.172,1.691Zm1.189.653,3.747-1.1.8,2.714-3.748,1.1Z" class="aw-theme-iconOutline" fill="#464646"/>
    <path id="path2-8" d="M17.492,24a6.478,6.478,0,1,1,.028,0Zm0-11.984a5.493,5.493,0,1,0,5.493,5.493h0A5.542,5.542,0,0,0,17.492,12.016Z" class="aw-theme-iconOutline" fill="#464646"/>
  </g>
</svg>
