<svg id="Image" xmlns="http://www.w3.org/2000/svg" viewBox="0 0 24 24">
  <g id="g841">
    <path id="rect827-9-3-2-6-1-4" d="M16.951,23.091h-10v.985h10Z" class="aw-theme-iconOutline" fill="#464646"/>
    <path id="rect827-9-3-2-3-4" d="M9.9,19.608,6.942,23.094l1.1.457L11,20.064Z" class="aw-theme-iconOutline" fill="#464646"/>
    <path id="rect827-9-3-2-3-4-9" d="M13.965,19.579l2.962,3.486-1.094.456L12.87,20.036Z" class="aw-theme-iconOutline" fill="#464646"/>
    <path id="rect827-0" d="M0,0H24V1H0Z" class="aw-theme-iconOutline" fill="#464646"/>
    <path id="rect827-9-32" d="M0,19v2H24V19Zm16.987.531h1v1.033h-1Zm2,0h1v1.033h-1Zm2,0h1v1.033H21Z" class="aw-theme-iconOutline" fill="#464646"/>
    <path id="rect827-9-3-0" d="M0,0V19H1V0Z" class="aw-theme-iconOutline" fill="#464646"/>
    <path id="rect827-9-3-7-5" d="M23,1V19h1V1Z" class="aw-theme-iconOutline" fill="#464646"/>
    <g id="g828">
      <path id="path853" d="M6.041,4.442a.432.432,0,0,0-.432.432v5.558l-3.128.008a.432.432,0,0,0-.427.432V15.9a.432.432,0,0,0,.432.432h1.3a1.848,1.848,0,0,0,3.691,0H9.744a1.848,1.848,0,0,0,3.691,0h.519a.433.433,0,0,0,.432-.432v-3.09a.432.432,0,0,0-.432-.432H13.4L10.966,4.741a.431.431,0,0,0-.411-.3Zm4.2.864,2.254,7.066-2.313-.011-1.507-.846L7.406,10.8a.4.4,0,0,0-.1-.04H7.3l-.445-.124-.381-.1V5.306ZM2.917,11.3H5.983l.031.011,1,.276,1.383.778,1.444.813h.01l.035.018a.446.446,0,0,0,.211.056h2.984c.013,0,.021-.009.032-.009h.4v2.228h0a2.136,2.136,0,0,0-3.845,0H7.561a2.135,2.135,0,0,0-3.844,0h-.8ZM5.6,15.212a.994.994,0,0,1,1.022.964v.03a.987.987,0,1,1-1.024-.994Zm5.966,0a.993.993,0,0,1,1.022.964v.031a.988.988,0,1,1-1.023-1Z" class="aw-theme-iconOutline" fill="#464646"/>
      <path id="path843" d="M21.045,14.478a.432.432,0,0,0-.533-.3h0l-3.93,1.11L13.126,2.828a.432.432,0,0,0-.841.2h0l.009.03,3.568,12.874a.429.429,0,0,0,.534.3l4.351-1.228A.433.433,0,0,0,21.045,14.478Z" class="aw-theme-iconOutline" fill="#464646"/>
      <path id="path841" d="M7.386,5.894a.431.431,0,0,0-.432.432V9.782a.432.432,0,0,0,.432.432h3.56a.432.432,0,0,0,.432-.432.443.443,0,0,0-.021-.135L10.215,6.191a.431.431,0,0,0-.409-.3Zm.432.864H9.491l.857,2.592H7.818Z" class="aw-theme-iconOutline" fill="#464646"/>
      <path id="rect864" d="M15.729,10.214l1.21,4.114,5.076-1.492L20.807,8.723Zm1.074.59,3.385-.994.719,2.452-3.384.993Z" class="aw-theme-iconOutline" fill="#464646"/>
      <path id="rect864-4" d="M14.289,5.454,15.5,9.568l5.078-1.49L19.368,3.964Zm1.074.59,3.383-.993.72,2.452L16.082,8.5Z" class="aw-theme-iconOutline" fill="#464646"/>
    </g>
  </g>
</svg>
