<svg id="Verb_Zone" data-name="Verb Zone" xmlns="http://www.w3.org/2000/svg" viewBox="0 0 24 24">
  <g id="g839">
    <path id="path815" d="M3.793,11.083A12.88,12.88,0,0,1,2.1,10.027a10.4,10.4,0,0,1-.068-2.013l0-1.894.14-.147A32.64,32.64,0,0,1,5.551,4.034,17.692,17.692,0,0,1,7.3,4.968c1.372.789,1.639.96,1.715,1.106s.088.336.076,2.039L9.076,9.981l-.127.12a32.581,32.581,0,0,1-3.388,1.916A11.99,11.99,0,0,1,3.793,11.083ZM5.073,9.5,5.059,8.3l-1.008-.58c-.554-.319-1.017-.58-1.029-.58S3,7.672,3,8.327V9.518L4,10.1c.553.323,1.022.588,1.044.589A9.5,9.5,0,0,0,5.073,9.5Zm2.063.594,1-.58V8.323A9.178,9.178,0,0,0,8.1,7.137c-.021,0-.484.259-1.029.575l-.992.574L6.063,9.495a7.96,7.96,0,0,0,.03,1.192C6.117,10.677,6.586,10.409,7.136,10.09ZM6.852,6.741a8.726,8.726,0,0,0,.774-.469c0-.014-.468-.293-1.038-.619L5.551,5.061l-1.009.585c-.554.321-1.018.594-1.03.605-.028.027.118.133.349.255.1.053.522.294.939.537l.759.441.259-.151C5.96,7.251,6.425,6.984,6.852,6.741Z" class="aw-theme-iconOutline" fill="#464646"/>
    <path id="path817" d="M13.245,6.939A.427.427,0,0,1,13,6.488a.427.427,0,0,1,.133-.359L13.267,6H21.7l.152.127A.377.377,0,0,1,22,6.5a.377.377,0,0,1-.153.373L21.7,7,17.524,7C14.61,7,13.321,6.979,13.245,6.939Z" class="aw-theme-iconOutline" fill="#464646"/>
    <path id="path815-7" d="M4.759,21.066a12.927,12.927,0,0,1-1.688-1.055A10.253,10.253,0,0,1,3,18L3,16.1l.14-.147a32.64,32.64,0,0,1,3.377-1.939,17.692,17.692,0,0,1,1.748.934c1.373.789,1.639.96,1.715,1.106s.088.336.076,2.039l-.014,1.868-.127.12A32.478,32.478,0,0,1,6.527,22,11.99,11.99,0,0,1,4.759,21.066Zm1.28-1.587-.014-1.2L5.017,17.7c-.554-.319-1.017-.58-1.029-.58s-.022.536-.022,1.191V19.5l1,.586c.553.323,1.022.588,1.044.589A9.277,9.277,0,0,0,6.039,19.479Zm2.063.594,1-.58V18.306a9.3,9.3,0,0,0-.038-1.186c-.021,0-.485.259-1.03.575l-.992.574-.013,1.209a7.96,7.96,0,0,0,.03,1.192C7.083,20.66,7.552,20.392,8.1,20.073Zm-.284-3.349c.426-.243.775-.454.774-.468s-.468-.294-1.038-.62l-1.037-.592-1.009.585c-.554.321-1.018.594-1.03.605-.027.027.118.133.349.255.1.053.522.294.939.537l.759.441.259-.151C6.926,17.234,7.391,16.967,7.818,16.724Z" class="aw-theme-iconOutline" fill="#464646"/>
    <path id="path817-3" d="M13.245,17.939a.543.543,0,0,1-.112-.81L13.267,17H21.7l.152.127a.531.531,0,0,1,0,.746L21.7,18l-4.171,0c-2.914,0-4.2-.019-4.279-.059Z" class="aw-theme-iconOutline" fill="#464646"/>
    <path id="rect854" d="M0,0H1V24H0Z" class="aw-theme-iconOutline" fill="#464646"/>
    <path id="rect854-3" d="M23,0h1V24H23Z" class="aw-theme-iconOutline" fill="#464646"/>
    <path id="rect854-1" d="M24,0V1H0V0Z" class="aw-theme-iconOutline" fill="#464646"/>
    <path id="rect854-1-8" d="M24,23v1H0V23Z" class="aw-theme-iconOutline" fill="#464646"/>
    <path id="path817-9" d="M13.19,9.939A.46.46,0,0,1,13,9.488a.493.493,0,0,1,.1-.359l.1-.129h6.555l.118.127A.429.429,0,0,1,20,9.5a.429.429,0,0,1-.119.373L19.763,10l-3.244,0C14.253,10,13.249,9.979,13.19,9.939Z" class="aw-theme-iconOutline" fill="#464646"/>
    <path id="path815-2" d="M8.518,2.3A32.64,32.64,0,0,0,5.141,4.238L5,4.385v.338c.4.21,1.122.606,1.764.98.865.5,1.11.669,1.205.824l.056.034.014,1.2c0,.106,0,.1,0,.193,0,.274.009.166.008.617l0,1.491a2.332,2.332,0,0,0,.488.22,32.488,32.488,0,0,0,3.389-1.916l.127-.119.014-1.867c.012-1.7,0-1.884-.077-2.041s-.342-.317-1.714-1.106A17.937,17.937,0,0,0,8.518,2.3Zm0,1.027,1.037.592c.57.326,1.036.6,1.037.619a8.726,8.726,0,0,1-.774.469c-.426.243-.893.509-1.035.592l-.258.15-.759-.439c-.418-.243-.84-.485-.94-.537-.231-.122-.375-.23-.347-.256.011-.012.474-.284,1.029-.606ZM11.064,5.4A9.31,9.31,0,0,1,11.1,6.588V7.775l-1,.581c-.55.318-1.019.586-1.043.6a8.1,8.1,0,0,1-.03-1.191l.014-1.209.99-.574C10.579,5.661,11.043,5.4,11.064,5.4Z" class="aw-theme-iconOutline" fill="#464646"/>
  </g>
</svg>
