<svg id="Layer_1" data-name="Layer 1" xmlns="http://www.w3.org/2000/svg" viewBox="0 0 24 24">
  <g id="g881">
    <path id="path6" d="M12.121,1.184a.361.361,0,0,0-.183.056L4.025,5.775a.317.317,0,0,0-.234.3v6.994L.268,15.061a.508.508,0,0,0,0,.894l9.727,5.567L10,20.228,1.627,15.506l2.164-1.233v.1a.382.382,0,0,0,.156.3L10,18.209l-.014-1.266L4.912,14V6.893l6.777,3.931v3.141a7.486,7.486,0,0,1,1.043-1.048V10.65l6.516-3.767v4.934a7.48,7.48,0,0,1,.961.3V6.074a.366.366,0,0,0-.063-.3L12.328,1.24A.361.361,0,0,0,12.121,1.184Zm.01,1.15L18.648,6.1,12.131,9.869,5.615,6.1Z" class="aw-theme-iconOutline" fill="#464646"/>
    <path id="path848" d="M11.065,23.68a2.887,2.887,0,0,1-.4-.32c0-.08.96-1.04,6.24-6.32,3.44-3.52,6.32-6.32,6.32-6.32l.72.64s-2.88,2.8-6.32,6.32l-6.24,6.24Z" class="aw-theme-iconOutline" fill="#464646"/>
    <path id="path850" d="M14.985,22l-.96.96h1.92V22Z" class="aw-theme-iconOutline" fill="#464646"/>
    <path id="path852" d="M21.945,22h2v.96h-2Z" class="aw-theme-iconOutline" fill="#464646"/>
    <path id="path854" d="M19.945,24h-2a1.047,1.047,0,0,1-.96-1.04V22a1.047,1.047,0,0,1,.96-1.04h2A1.059,1.059,0,0,1,20.985,22v.96A1.059,1.059,0,0,1,19.945,24Zm-2-2v.96h2V22Z" class="aw-theme-iconOutline" fill="#464646"/>
    <path id="path856" d="M16.265,12.96l-.8,2-2-.8-1.28,1.28.8,2-2,.8V20h.96V18.88l2.32-.88-.88-2.32.4-.32,2.24.88.96-2.24h1.04l.16.4.8-.72-.32-.72Zm5.68,1.68-.64.72.32.32L20.665,18l2.32.88V20h1.04V18.24l-2-.8.8-2Z" class="aw-theme-iconOutline" fill="#464646"/>
  </g>
</svg>
