<svg id="Layer_1" data-name="Layer 1" xmlns="http://www.w3.org/2000/svg" viewBox="0 0 24 24">
  <g id="g824">
    <path id="path2" d="M22.86,7.857a.5.5,0,0,1-.707,0L18.006,3.722V23h-1V3.7L12.859,7.832a.5.5,0,0,1-.718-.7h0l.012-.012L17.14,2.146a.5.5,0,0,1,.706,0l5.013,5a.5.5,0,0,1,0,.707Z" class="aw-theme-iconOutline" fill="#464646"/>
    <path id="path828" d="M3.019,22.416a3.274,3.274,0,0,1,.1-.848c.25-.863.747-1.417,2.342-2.606,1.117-.832,1.57-1.37,1.763-2.095a2.97,2.97,0,0,0,.015-1.3A1.525,1.525,0,0,0,6.123,14.5a3.071,3.071,0,0,0-1.09.006,3.293,3.293,0,0,0-1.417.8l-.243.229V14.414l.261-.2a2.636,2.636,0,0,1,.907-.489,3.819,3.819,0,0,1,2.122-.038,2.325,2.325,0,0,1,1.618,1.634,3.715,3.715,0,0,1,.056,1.222,3.247,3.247,0,0,1-.974,1.937A12.394,12.394,0,0,1,5.58,19.919c-1.122.833-1.492,1.335-1.492,2.022v.16H8.726V23H3Z" class="aw-theme-iconOutline" fill="#464646"/>
    <path id="path826" d="M5.052,7c0-2.215-.007-4.027-.016-4.027a3.022,3.022,0,0,0-.288.2,7.842,7.842,0,0,1-1.506.772c-.174.061-.324.112-.333.112A4.23,4.23,0,0,1,2.9,3.529l.01-.523.3-.1A8.938,8.938,0,0,0,5.391,1.747c.313-.23.35-.248.52-.248H6.1v9.528H5.052Z" class="aw-theme-iconOutline" fill="#464646"/>
  </g>
</svg>
