<svg id="Layer_1" data-name="Layer 1" xmlns="http://www.w3.org/2000/svg" viewBox="0 0 24 24">
  <g id="g818">
    <path id="path4" d="M17.5,24A6.5,6.5,0,1,1,24,17.5,6.5,6.5,0,0,1,17.5,24Zm0-12A5.5,5.5,0,1,0,23,17.5,5.5,5.5,0,0,0,17.5,12Z" class="aw-theme-iconOutline" fill="#464646"/>
    <path id="rect815" d="M20.473,15.087l-3.215,4.385-2.52-2.627-.69.775,3.327,3.329s3.924-5.229,3.892-5.261A7.841,7.841,0,0,0,20.473,15.087Z" class="aw-theme-iconOutline" fill="#464646" fill-rule="evenodd"/>
    <path id="path962-6" d="M11.059-.023,10.641.2C10.092.491,7.884,1.769,6.4,2.652l-1.173.7L5.2,3.973c-.018.341-.035,1.351-.035,2.242V7.834H.422L.25,8.006.076,8.18v9.308l.115.129c.063.071,1.4.861,2.961,1.756L6,21l4.867-.008a7.33,7.33,0,0,1-.433-1.006H6.891V12.1h5.4a7.492,7.492,0,0,1,3.584-1.916c.078-.043.274-.168.283-.168s.115.069.137.08a7.124,7.124,0,0,1,2.057-.047l-1.575-.932-.025-2.9c-.025-2.83-.028-2.907-.127-2.981-.268-.2-4.456-2.666-5.174-3.048Zm0,.994L12.828,2.02c.971.577,1.937,1.155,2.147,1.285.347.214.424.292.318.318-.021,0-.416.236-.877.514s-1.355.808-1.984,1.177-1.192.7-1.25.729c-.093.05-.249-.025-1.2-.566-1.052-.6-2.661-1.549-3.064-1.8l-.195-.123.119-.063c.066-.035.535-.318,1.043-.629S9.319,2,9.938,1.633Zm4.75,3.455c.014,0,.027,1.063.027,2.361V9.146l-1.006.608c-.552.334-1.3.783-1.66,1l-.658.389h-.948V10.033c0-.608-.015-1.529-.033-2.047L11.5,7.045,12.539,6.4C13.827,5.6,15.778,4.426,15.813,4.426ZM6.25,4.49c.014-.014,4.173,2.4,4.277,2.483a16.64,16.64,0,0,1,.049,2.09l0,2.05-.506.014-.507.014-.508-.295c-.28-.163-1.043-.613-1.7-1L6.162,9.135,6.2,6.82C6.219,5.547,6.242,4.5,6.25,4.49ZM3.777,8.8H5.16v.762l.24.173c.132.1.671.432,1.2.746s.97.592.984.616a1.553,1.553,0,0,1-.523.041H6.508L4.5,10.016C3.4,9.4,2.47,8.874,2.443,8.848A7.167,7.167,0,0,1,3.777,8.8Zm-2.736.553.4.22c.219.121,1.316.732,2.44,1.36l2.045,1.142v3.8c0,2.092-.007,3.8-.014,3.8s-1.1-.626-2.428-1.387L1.068,16.91l-.013-3.779Zm6.9,4.828-.118.134-.115.135V18.91l.133.156.131.157h2.242a7.5,7.5,0,0,1-.162-.965H8.67v-3.1h1.713a7.511,7.511,0,0,1,.4-.97Zm2.3,1.5a1.125,1.125,0,0,0-.568.092c-.113.088-.135.144-.135.357a.439.439,0,0,0,.125.379l.125.123h.274A7.48,7.48,0,0,1,10.236,15.678ZM9.9,16.93l-.16.134a.366.366,0,0,0-.16.362.415.415,0,0,0,.125.349l.125.125h.182c-.009-.133-.014-.266-.016-.4,0-.19.011-.379.027-.568Z" class="aw-theme-iconOutline" fill="#464646"/>
  </g>
</svg>
