<svg id="Layer_1" data-name="Layer 1" xmlns="http://www.w3.org/2000/svg" viewBox="0 0 24 24">
  <g id="g830">
    <path id="path824" d="M14.2,23.958A9.137,9.137,0,0,1,9.372,22.01a11.3,11.3,0,0,1-1.434-1.434,9.046,9.046,0,0,1-1.9-4.354,12.681,12.681,0,0,1-.047-2.068,9.134,9.134,0,0,1,1.284-3.821l.2-.318.362.284c.2.157.366.287.371.29a3.164,3.164,0,0,1-.178.32,8.089,8.089,0,0,0-1.055,2.975,10.458,10.458,0,0,0,0,2.188,8.067,8.067,0,0,0,13.147,5.1,9.085,9.085,0,0,0,1.7-1.945,10.968,10.968,0,0,0,.722-1.482,10.293,10.293,0,0,0,.41-1.627,11.706,11.706,0,0,0,.018-2.157,8.147,8.147,0,0,0-1.747-4.077A9.592,9.592,0,0,0,20.06,8.717a8.878,8.878,0,0,0-2.5-1.377,8.767,8.767,0,0,0-1.469-.347,1.284,1.284,0,0,1-.243-.043c-.027-.015.054-.149.263-.436l.3-.413.143.02a10.755,10.755,0,0,1,1.485.406A9.778,9.778,0,0,1,20.5,7.893,13.1,13.1,0,0,1,22.01,9.384a8.921,8.921,0,0,1-.8,12.048,9.056,9.056,0,0,1-5,2.469A16.813,16.813,0,0,1,14.2,23.958Z" class="aw-theme-iconOutline" fill="#464646"/>
    <path id="path826" d="M14.528,18.2V15.478H9.091v-.969h5.437V9.072h.938v5.437H20.9v.969H15.466v5.437h-.938Z" class="aw-theme-iconOutline" fill="#464646"/>
  </g>
  <path id="path2-6" d="M1.008,10.182a47.036,47.036,0,0,1,.816-4.857,10.952,10.952,0,0,1,.654-2.083,3.809,3.809,0,0,1,4.5-2.1A4.237,4.237,0,0,1,9.116,2.786a7.575,7.575,0,0,1,.914,3.159l.314,2.477L7.7,6.45l-.633.836,4.084,3.048,3.09-3.958-.866-.654L11.4,8.273l-.336-2.367A8.818,8.818,0,0,0,9.77,1.962,4.658,4.658,0,0,0,7.349.232,4.848,4.848,0,0,0,3.868.468,4.968,4.968,0,0,0,1.483,3.022,11.767,11.767,0,0,0,.957,4.558c-.145.523-.246.978-.426,1.893A35.2,35.2,0,0,0,0,10.182Z" class="aw-theme-iconOutline" fill="#464646"/>
</svg>
