<svg id="Layer_1" data-name="Layer 1" xmlns="http://www.w3.org/2000/svg" viewBox="0 0 16 16">
  <g id="g852">
    <path id="path988-6" d="M5.152,9.057a4.894,4.894,0,0,0-2.115.588,10.3,10.3,0,0,1-1.532.533,7.685,7.685,0,0,0-.8.272,1.244,1.244,0,0,0-.272.227A1.7,1.7,0,0,0,0,11.861a4.28,4.28,0,0,0,.123.918c.067.342.144.683.17.754a1.413,1.413,0,0,0,.7.78.753.753,0,0,0,.382.062,1.727,1.727,0,0,0,.679-.146,7.209,7.209,0,0,1,2.206-.592h.291l.328.169a10.006,10.006,0,0,0,3.832,1.145h0c.062,0,.435.007.834,0a3.438,3.438,0,0,0,1.466-.2,14,14,0,0,0,2.02-1.026,9.058,9.058,0,0,0,2.049-1.482,2.188,2.188,0,0,0,.71-.881,1.8,1.8,0,0,0-.278-1.831l-.113-.11a1.349,1.349,0,0,0-.658-.21,2.926,2.926,0,0,0-1.191.831l.008-.015-.514.407a5.718,5.718,0,0,1-.934.638l0,0a4.128,4.128,0,0,1-.439.225.317.317,0,0,1-.088-.087,1.007,1.007,0,0,0-.375-.272c-.06-.026-.6-.127-1.2-.227l-1.094-.179-.426-.253-.425-.251L7.916,9.9a6.7,6.7,0,0,0-1.461-.747l-.063-.032c.043-.112-.062-.023,0,0a3.157,3.157,0,0,0-.851-.076Zm.058.822a2.9,2.9,0,0,1,1.014.146,5.793,5.793,0,0,1,1.569.757l.929.546,1.127.187a8.119,8.119,0,0,1,1.2.236.58.58,0,0,1,.053.726.654.654,0,0,1-.385.346,3.747,3.747,0,0,1-1.165-.143c-.579-.1-1.113-.2-1.184-.231s-.5-.269-.939-.532a4.66,4.66,0,0,0-.894-.476.37.37,0,0,0-.348.406c0,.253.01.261.964.823.478.28.943.538,1.036.573a21.676,21.676,0,0,0,2.415.409,1.048,1.048,0,0,0,.367-.058,1.576,1.576,0,0,0,.915-1.321l.015-.185.509-.284a7.3,7.3,0,0,0,1.339-.944c.453-.362.866-.685.918-.718a.459.459,0,0,1,.214-.061c.11,0,.127.009.212.116a.861.861,0,0,1-.078,1.062,11.83,11.83,0,0,1-1.158,1.021,9.95,9.95,0,0,1-1.527.932,6.618,6.618,0,0,1-1.97.881h0a11.473,11.473,0,0,1-1.979,0,9.808,9.808,0,0,1-3.254-1.054,1.52,1.52,0,0,0-1.055-.22,10.393,10.393,0,0,0-2.054.573c-.525.172-.679.2-.8.146a.665.665,0,0,1-.293-.368,12.932,12.932,0,0,1-.232-1.3A.848.848,0,0,1,.98,11.2c.037-.019.393-.135.79-.253a10.608,10.608,0,0,0,1.683-.605A3.678,3.678,0,0,1,5.21,9.879Z" class="aw-theme-iconOutline" fill="#464646"/>
    <path id="rect828-1-9" d="M1,2V8H15V2ZM2,3H14V7H2Z" class="aw-theme-iconOutline" fill="#464646"/>
    <path id="path839-1-2-8-4" d="M6.627,4.5a.5.5,0,1,1-.5.5A.5.5,0,0,1,6.627,4.5Z" class="aw-theme-iconOutline" fill="#464646"/>
    <path id="path837-1-2-26-72" d="M4.789,4.5a.5.5,0,1,1-.5.5A.5.5,0,0,1,4.789,4.5Z" class="aw-theme-iconOutline" fill="#464646"/>
    <path id="path839-2-4-1-9-4" d="M8.466,4.5a.5.5,0,1,1-.5.5h0A.5.5,0,0,1,8.466,4.5Z" class="aw-theme-iconOutline" fill="#464646"/>
    <path id="path837-1-2-2-5-9" d="M2.95,4.5a.5.5,0,1,1-.5.5A.5.5,0,0,1,2.95,4.5Z" class="aw-theme-iconOutline" fill="#464646"/>
    <path id="path837-1-2-26-1-7" d="M12.143,4.5a.5.5,0,1,1-.5.5A.5.5,0,0,1,12.143,4.5Z" class="aw-theme-iconOutline" fill="#464646"/>
    <path id="path837-1-2-2-5-5-5" d="M10.3,4.5a.5.5,0,1,1-.5.5A.5.5,0,0,1,10.3,4.5Z" class="aw-theme-iconOutline" fill="#464646"/>
    <path id="path839-1-2-8-7-9" d="M7.527,3.4a.5.5,0,1,1-.5.5A.5.5,0,0,1,7.527,3.4Z" class="aw-theme-iconOutline" fill="#464646"/>
    <path id="path837-1-2-26-7-2" d="M5.689,3.4a.5.5,0,1,1-.5.5A.5.5,0,0,1,5.689,3.4Z" class="aw-theme-iconOutline" fill="#464646"/>
    <path id="path839-2-4-1-9-3-97" d="M9.366,3.4a.5.5,0,1,1-.5.5A.5.5,0,0,1,9.366,3.4Z" class="aw-theme-iconOutline" fill="#464646"/>
    <path id="path837-1-2-2-5-6-5" d="M3.85,3.4a.5.5,0,1,1-.5.5A.5.5,0,0,1,3.85,3.4Z" class="aw-theme-iconOutline" fill="#464646"/>
    <path id="path837-1-2-26-1-5-7" d="M13.043,3.4a.5.5,0,1,1-.5.5A.5.5,0,0,1,13.043,3.4Z" class="aw-theme-iconOutline" fill="#464646"/>
    <path id="path837-1-2-2-5-5-8-4" d="M11.2,3.4a.5.5,0,1,1-.5.5A.5.5,0,0,1,11.2,3.4Z" class="aw-theme-iconOutline" fill="#464646"/>
    <path id="path839-1-2-8-7-8-2" d="M7.527,5.6a.5.5,0,1,1-.5.5A.5.5,0,0,1,7.527,5.6Z" class="aw-theme-iconOutline" fill="#464646"/>
    <path id="path837-1-2-26-7-3-7" d="M5.689,5.6a.5.5,0,1,1-.5.5A.5.5,0,0,1,5.689,5.6Z" class="aw-theme-iconOutline" fill="#464646"/>
    <path id="path839-2-4-1-9-3-9-9" d="M9.366,5.6a.5.5,0,1,1-.5.5A.5.5,0,0,1,9.366,5.6Z" class="aw-theme-iconOutline" fill="#464646"/>
    <path id="path837-1-2-2-5-6-7-7" d="M3.85,5.6a.5.5,0,1,1-.5.5A.5.5,0,0,1,3.85,5.6Z" class="aw-theme-iconOutline" fill="#464646"/>
    <path id="path837-1-2-26-1-5-4-5" d="M13.043,5.6a.5.5,0,1,1-.5.5A.5.5,0,0,1,13.043,5.6Z" class="aw-theme-iconOutline" fill="#464646"/>
    <path id="path837-1-2-2-5-5-8-6-4" d="M11.2,5.6a.5.5,0,1,1-.5.5A.5.5,0,0,1,11.2,5.6Z" class="aw-theme-iconOutline" fill="#464646"/>
  </g>
</svg>
