<svg id="Layer_1" data-name="Layer 1" xmlns="http://www.w3.org/2000/svg" viewBox="0 0 24 24">
  <g id="g818">
    <path id="path2-6-3" d="M1.008,10.2a47.036,47.036,0,0,1,.816-4.857,10.952,10.952,0,0,1,.654-2.083,3.809,3.809,0,0,1,4.5-2.1A4.237,4.237,0,0,1,9.116,2.8a7.575,7.575,0,0,1,.914,3.159l.314,2.477L7.7,6.466,7.068,7.3l4.084,3.048,3.09-3.958-.866-.654L11.4,8.289l-.336-2.367A8.818,8.818,0,0,0,9.77,1.978,4.658,4.658,0,0,0,7.349.248,4.848,4.848,0,0,0,3.868.484,4.968,4.968,0,0,0,1.483,3.038,11.767,11.767,0,0,0,.957,4.574C.812,5.1.711,5.552.531,6.467A35.2,35.2,0,0,0,0,10.2Z" class="aw-theme-iconOutline" fill="#464646"/>
    <path id="polygon2" d="M11.856,2V3H19.9V7h1V2ZM5,9.689V22H9.2V21H6V9.689Z" class="aw-theme-iconOutline" fill="#464646"/>
    <path id="path4" d="M15.5,6V7H17v6h6V23H10V11.9H9V24H24V12.3L17.7,6ZM18,7.7,22.3,12H18Z" class="aw-theme-iconOutline" fill="#464646"/>
  </g>
</svg>
