<svg id="Artwork" xmlns="http://www.w3.org/2000/svg" viewBox="0 0 16 16">
  <g id="g860">
    <path id="rect828-1-12" d="M12.719,8.33,9.17,12.014.575,3.732,4.124.05Zm-1.206.023-7.366-7.1L1.781,3.709l7.367,7.1Z" class="aw-theme-iconOutline" fill="#464646"/>
    <path id="path839-1-2-8-62" d="M7.786,6.536a.426.426,0,1,0,.011.6h0a.427.427,0,0,0-.011-.6Z" class="aw-theme-iconOutline" fill="#464646"/>
    <path id="path837-1-2-26-78" d="M8.915,7.624a.426.426,0,1,0,.01.6.426.426,0,0,0-.01-.6Z" class="aw-theme-iconOutline" fill="#464646"/>
    <path id="path839-2-4-1-9-2" d="M6.657,5.449a.426.426,0,1,0,.011.6.425.425,0,0,0-.011-.6Z" class="aw-theme-iconOutline" fill="#464646"/>
    <path id="path837-1-2-2-5-0" d="M10.043,8.711a.426.426,0,1,0,.012.6h0a.427.427,0,0,0-.012-.6Z" class="aw-theme-iconOutline" fill="#464646"/>
    <path id="path837-1-2-26-1-1" d="M4.4,3.273a.426.426,0,1,0,.011.6.427.427,0,0,0-.011-.6Z" class="aw-theme-iconOutline" fill="#464646"/>
    <path id="path837-1-2-2-5-5-0" d="M5.528,4.361a.426.426,0,1,0,.011.6h0A.426.426,0,0,0,5.528,4.361Z" class="aw-theme-iconOutline" fill="#464646"/>
    <path id="path839-1-2-8-7-7" d="M7.884,5.329a.426.426,0,1,0,.011.6.427.427,0,0,0-.011-.6Z" class="aw-theme-iconOutline" fill="#464646"/>
    <path id="path837-1-2-26-7-9" d="M9.013,6.416a.426.426,0,1,0,.011.6h0a.426.426,0,0,0-.011-.6Z" class="aw-theme-iconOutline" fill="#464646"/>
    <path id="path839-2-4-1-9-3-4" d="M6.756,4.24a.427.427,0,1,0,.01.6.427.427,0,0,0-.01-.6Z" class="aw-theme-iconOutline" fill="#464646"/>
    <path id="path837-1-2-2-5-6-2" d="M10.141,7.5a.426.426,0,1,0,.012.6.425.425,0,0,0-.012-.6Z" class="aw-theme-iconOutline" fill="#464646"/>
    <path id="path837-1-2-26-1-5-442" d="M4.5,2.066a.426.426,0,1,0,.01.6h0a.425.425,0,0,0-.01-.6Z" class="aw-theme-iconOutline" fill="#464646"/>
    <path id="path837-1-2-2-5-5-8-66" d="M5.628,3.15a.426.426,0,1,0,.011.6.426.426,0,0,0-.011-.6Z" class="aw-theme-iconOutline" fill="#464646"/>
    <path id="path839-1-2-8-7-8-8" d="M6.583,6.679a.426.426,0,1,0,.01.6.426.426,0,0,0-.01-.6Z" class="aw-theme-iconOutline" fill="#464646"/>
    <path id="path837-1-2-26-7-3-3" d="M7.711,7.765a.426.426,0,1,0,.012.6h0a.426.426,0,0,0-.012-.6Z" class="aw-theme-iconOutline" fill="#464646"/>
    <path id="path839-2-4-1-9-3-9-3" d="M5.454,5.592a.426.426,0,1,0,.011.6.427.427,0,0,0-.011-.6Z" class="aw-theme-iconOutline" fill="#464646"/>
    <path id="path837-1-2-2-5-6-7-9" d="M8.84,8.854a.426.426,0,1,0,.011.6h0a.427.427,0,0,0-.011-.6Z" class="aw-theme-iconOutline" fill="#464646"/>
    <path id="path837-1-2-26-1-5-4-0" d="M3.2,3.416a.426.426,0,1,0,.011.6h0a.426.426,0,0,0-.011-.6Z" class="aw-theme-iconOutline" fill="#464646"/>
    <path id="path837-1-2-2-5-5-8-6-56" d="M4.325,4.5a.426.426,0,1,0,.011.6.426.426,0,0,0-.011-.6Z" class="aw-theme-iconOutline" fill="#464646"/>
    <path id="path974" d="M5.205,16V12.885l-2.2-2.43L.4,7.576,0,7.133V6.022l.161.007.161.008,1.449,1.6c.8.881,2.115,2.334,2.929,3.229l1.479,1.627V16Z" class="aw-theme-iconOutline" fill="#464646"/>
    <path id="rect870" d="M0,6H2V7H0Z" class="aw-theme-iconOutline" fill="#464646"/>
    <path id="path974-4" d="M10.8,16V12.885l2.2-2.43L15.6,7.576l.4-.443V6.022l-.161.007-.161.008-1.449,1.6c-.8.881-2.115,2.334-2.929,3.229L9.821,12.493V16Z" class="aw-theme-iconOutline" fill="#464646"/>
    <path id="rect870-1" d="M16,6H14V7h2Z" class="aw-theme-iconOutline" fill="#464646"/>
  </g>
</svg>
