<svg id="Image" xmlns="http://www.w3.org/2000/svg" viewBox="0 0 16 16">
  <g id="g858">
    <path id="path848" d="M10.138,8.8A.956.956,0,0,1,9.984,8a5.277,5.277,0,0,1,1.225-3.06c.206-.233.238-.29.238-.425s-.032-.192-.2-.387a4.905,4.905,0,0,1-.923-1.555A5.812,5.812,0,0,1,9.976.822C9.976.6,9.956.527,9.9.473S9.825.35,9.825.212V.017h5.284l.088.09a.233.233,0,0,1,.03.321.145.145,0,0,1-.021.022c-.054.055-.081.162-.1.442A5.431,5.431,0,0,1,13.9,4.032c-.365.407-.372.5-.073.845a5.574,5.574,0,0,1,1.278,3.2.888.888,0,0,1-.2.77l-.1.1-2.275.011-2.275.01Zm4.329-.589a6.847,6.847,0,0,0-.175-1.037,5.2,5.2,0,0,0-.553-1.288c-.067-.1-.241-.323-.387-.5a1.111,1.111,0,0,1-.367-.89,1.185,1.185,0,0,1,.4-.93A4.655,4.655,0,0,0,14.443.984l.025-.209H10.637V.936a5.608,5.608,0,0,0,.257,1.238,4.247,4.247,0,0,0,.861,1.48,1.161,1.161,0,0,1,.343.956,1.3,1.3,0,0,1-.4.825,4.57,4.57,0,0,0-1.05,2.486l-.033.286.138.015c.312.035,3.715.027,3.715-.008Z" class="aw-theme-iconOutline" fill="#464646"/>
    <path id="rect1341-1-6" d="M9.356,9h6.288A.359.359,0,0,0,16,8.637V8.466a.36.36,0,0,0-.353-.366H9.356A.359.359,0,0,0,9,8.463v.171A.36.36,0,0,0,9.353,9Z" class="aw-theme-iconOutline" fill="#464646"/>
    <path id="rect1341-1-5-2" d="M9.356.9h6.288A.359.359,0,0,0,16,.537V.366A.36.36,0,0,0,15.647,0H9.356A.359.359,0,0,0,9,.363V.534A.36.36,0,0,0,9.353.9Z" class="aw-theme-iconOutline" fill="#464646"/>
    <path id="path1394-4" d="M12.413,5c-.021.216-.319.431-.491.619a3.393,3.393,0,0,0-.856,1.665,4.927,4.927,0,0,0-.088.528v.036h1.557c.857,0,1.557,0,1.557-.009s-.011-.09-.025-.189a3.905,3.905,0,0,0-.5-1.479,2.959,2.959,0,0,0-.392-.519,3.625,3.625,0,0,0-.274-.294,1.077,1.077,0,0,1-.3-.377l-.046-.046h.005c-.175-.049-.175.18-.075,0Z" class="aw-theme-iconOutline" fill="#464646"/>
    <path id="rect828-1-9" d="M1.045,10v6h14V10Zm1,1h12v4h-12Z" class="aw-theme-iconOutline" fill="#464646"/>
    <path id="path839-1-2-8-4" d="M6.672,12.5a.5.5,0,1,1-.5.5A.5.5,0,0,1,6.672,12.5Z" class="aw-theme-iconOutline" fill="#464646"/>
    <path id="path837-1-2-26-72" d="M4.834,12.5a.5.5,0,1,1-.5.5A.5.5,0,0,1,4.834,12.5Z" class="aw-theme-iconOutline" fill="#464646"/>
    <path id="path839-2-4-1-9-4" d="M8.511,12.5a.5.5,0,1,1-.5.5A.5.5,0,0,1,8.511,12.5Z" class="aw-theme-iconOutline" fill="#464646"/>
    <path id="path837-1-2-2-5-9" d="M3,12.5a.5.5,0,1,1-.5.5A.5.5,0,0,1,3,12.5Z" class="aw-theme-iconOutline" fill="#464646"/>
    <path id="path837-1-2-26-1-7" d="M12.188,12.5a.5.5,0,1,1-.5.5A.5.5,0,0,1,12.188,12.5Z" class="aw-theme-iconOutline" fill="#464646"/>
    <path id="path837-1-2-2-5-5-5-3" d="M10.345,12.5a.5.5,0,1,1-.5.5A.5.5,0,0,1,10.345,12.5Z" class="aw-theme-iconOutline" fill="#464646"/>
    <path id="path839-1-2-8-7-9" d="M7.572,11.4a.5.5,0,1,1-.5.5A.5.5,0,0,1,7.572,11.4Z" class="aw-theme-iconOutline" fill="#464646"/>
    <path id="path837-1-2-26-7-2" d="M5.734,11.4a.5.5,0,1,1-.5.5A.5.5,0,0,1,5.734,11.4Z" class="aw-theme-iconOutline" fill="#464646"/>
    <path id="path839-2-4-1-9-3-97" d="M9.411,11.4a.5.5,0,1,1-.5.5A.5.5,0,0,1,9.411,11.4Z" class="aw-theme-iconOutline" fill="#464646"/>
    <path id="path837-1-2-2-5-6-5" d="M3.9,11.4a.5.5,0,1,1-.5.5h0A.5.5,0,0,1,3.9,11.4Z" class="aw-theme-iconOutline" fill="#464646"/>
    <path id="path837-1-2-26-1-5-7" d="M13.088,11.4a.5.5,0,1,1-.5.5A.5.5,0,0,1,13.088,11.4Z" class="aw-theme-iconOutline" fill="#464646"/>
    <path id="path837-1-2-2-5-5-8-4" d="M11.245,11.4a.5.5,0,1,1-.5.5A.5.5,0,0,1,11.245,11.4Z" class="aw-theme-iconOutline" fill="#464646"/>
    <path id="path839-1-2-8-7-8-2" d="M7.572,13.6a.5.5,0,1,1-.5.5A.5.5,0,0,1,7.572,13.6Z" class="aw-theme-iconOutline" fill="#464646"/>
    <path id="path837-1-2-26-7-3-7" d="M5.734,13.6a.5.5,0,1,1-.5.5A.5.5,0,0,1,5.734,13.6Z" class="aw-theme-iconOutline" fill="#464646"/>
    <path id="path839-2-4-1-9-3-9-9" d="M9.411,13.6a.5.5,0,1,1-.5.5A.5.5,0,0,1,9.411,13.6Z" class="aw-theme-iconOutline" fill="#464646"/>
    <path id="path837-1-2-2-5-6-7-7" d="M3.9,13.6a.5.5,0,1,1-.5.5h0A.5.5,0,0,1,3.9,13.6Z" class="aw-theme-iconOutline" fill="#464646"/>
    <path id="path837-1-2-26-1-5-4-5" d="M13.088,13.6a.5.5,0,1,1-.5.5A.5.5,0,0,1,13.088,13.6Z" class="aw-theme-iconOutline" fill="#464646"/>
    <path id="path837-1-2-2-5-5-8-6-4" d="M11.245,13.6a.5.5,0,1,1-.5.5A.5.5,0,0,1,11.245,13.6Z" class="aw-theme-iconOutline" fill="#464646"/>
  </g>
</svg>
