<svg id="Layer_1" data-name="Layer 1" xmlns="http://www.w3.org/2000/svg" viewBox="0 0 24 24">
  <g id="g825">
    <path id="path2" d="M15,5h9V0H15Zm8-1H16V1h7Z" class="aw-theme-iconOutline" fill="#464646"/>
    <path id="path6" d="M15,11h9V6H15Zm8-1H16V7h7Z" class="aw-theme-iconOutline" fill="#464646"/>
    <path id="path10" d="M15,23h9V18H15Zm8-1H16V19h7Z" class="aw-theme-iconOutline" fill="#464646"/>
    <path id="rect828" d="M11.784,12.788h7.525v3.623H11.784Z" class="aw-theme-iconOutline" fill="#464646"/>
    <path id="path834" d="M.051,12.377c.022-.036.689-.724,1.482-1.528L2.975,9.387l.185.2.321.35.137.151-.95.95c-.522.522-.943.955-.935.962a5.176,5.176,0,0,0,.543,0c.283-.017,1.107,0,1.846,0,1.314-.02.971-.007,1.584,0a3,3,0,0,1,2.587,1.322,3.176,3.176,0,0,1,.617,1.754l.018.351-.947-.009v-.253a2.033,2.033,0,0,0-.572-1.406c-.666-.7-.917-.8-3.546-.759-.815,0-2.251-.026-2.28,0,0,0,.419.478.943,1.051L3.479,15.1l-.318.33a4.225,4.225,0,0,1-.338.331c-.011,0-.6-.633-1.31-1.407S.181,12.9.129,12.848A.459.459,0,0,1,.051,12.377Z" class="aw-theme-iconOutline" fill="#464646"/>
    <path id="path10-3" d="M11,17h9V12H11Zm8-1H12V13h7Z" class="aw-theme-iconOutline" fill="#464646"/>
  </g>
</svg>
