<svg id="Layer_1" data-name="Layer 1" xmlns="http://www.w3.org/2000/svg" viewBox="0 0 24 24">
  <g id="g825">
    <path id="path2" d="M9.018,5h-9V0h9Zm-8-1h7V1h-7Z" class="aw-theme-iconOutline" fill="#464646"/>
    <path id="path6" d="M9.018,11h-9V6h9Zm-8-1h7V7h-7Z" class="aw-theme-iconOutline" fill="#464646"/>
    <path id="path10" d="M9.018,23h-9V18h9Zm-8-1h7V19h-7Z" class="aw-theme-iconOutline" fill="#464646"/>
    <path id="rect828" d="M12.234,12.788H4.708v3.623h7.526Z" class="aw-theme-iconOutline" fill="#464646"/>
    <path id="path834" d="M23.967,12.377c-.022-.036-.689-.724-1.482-1.528L21.043,9.387l-.185.2-.321.35-.137.151.95.95c.522.522.943.955.935.962a5.176,5.176,0,0,1-.543,0c-.283-.017-1.107,0-1.846,0-1.314-.02-.971-.007-1.584,0a3,3,0,0,0-2.587,1.322,3.168,3.168,0,0,0-.617,1.754l-.018.351.947-.009v-.253a2.033,2.033,0,0,1,.572-1.406c.666-.7.917-.8,3.545-.759.815,0,2.252-.026,2.281,0,0,0-.419.478-.943,1.051L20.539,15.1l.318.33a4.225,4.225,0,0,0,.338.331c.011,0,.6-.633,1.31-1.407s1.332-1.451,1.384-1.5A.459.459,0,0,0,23.967,12.377Z" class="aw-theme-iconOutline" fill="#464646"/>
    <path id="path10-3" d="M13.018,17h-9V12h9Zm-8-1h7V13h-7Z" class="aw-theme-iconOutline" fill="#464646"/>
  </g>
</svg>
