<svg id="Image" xmlns="http://www.w3.org/2000/svg" viewBox="0 0 16 16">
  <g id="g860">
    <path id="path857" d="M.788,8.788c0-.18.006-.2.076-.261s.074-.081.065-.192a6.255,6.255,0,0,1,.149-1.149A5.067,5.067,0,0,1,2.193,4.909c.307-.349.312-.483.031-.791A5.168,5.168,0,0,1,.991,1.35,4.923,4.923,0,0,1,.941.756.68.68,0,0,1,1.012.331.949.949,0,0,1,1.187.1l.1-.09,2.19.008A21.582,21.582,0,0,1,5.751.061a.54.54,0,0,1,.276.3,1.7,1.7,0,0,1,.023.892,5.305,5.305,0,0,1-1.2,2.815c-.234.27-.235.277-.235.429s0,.154.235.427A4.794,4.794,0,0,1,5.8,6.648a5.78,5.78,0,0,1,.29,1.608c0,.172.007.2.081.27a.246.246,0,0,1,.028.342.192.192,0,0,1-.028.029l-.081.082H.788Zm4.637-.712A4.577,4.577,0,0,0,4.338,5.41,1.308,1.308,0,0,1,3.955,4.7a1.175,1.175,0,0,1,.327-1.044A4.572,4.572,0,0,0,5.425.918L5.442.77H1.607V.893a4.957,4.957,0,0,0,.151.89,4.123,4.123,0,0,0,.911,1.776,1.292,1.292,0,0,1,.359.551,1.339,1.339,0,0,1,0,.773,1.3,1.3,0,0,1-.363.556A4.618,4.618,0,0,0,1.615,8L1.6,8.223h3.84Z" class="aw-theme-iconOutline" fill="#464646"/>
    <path id="rect1341-1" d="M.356,0H6.644A.359.359,0,0,1,7,.363V.54A.36.36,0,0,1,6.644.9H.356A.36.36,0,0,1,0,.54V.367A.36.36,0,0,1,.352,0Z" class="aw-theme-iconOutline" fill="#464646"/>
    <path id="rect1341-1-5" d="M.356,8.1H6.644A.36.36,0,0,1,7,8.464v.17A.36.36,0,0,1,6.647,9H.356A.359.359,0,0,1,0,8.637V8.466A.36.36,0,0,1,.354,8.1Z" class="aw-theme-iconOutline" fill="#464646"/>
    <path id="path1394" d="M3.429,4.073c.2,0-.007-.009-.013-.076-.02-.216-.318-.431-.491-.619A3.4,3.4,0,0,1,2.069,1.71a5.215,5.215,0,0,1-.087-.527V1.147H3.541c.857,0,1.558,0,1.558.01s-.012.09-.026.188a3.9,3.9,0,0,1-.5,1.481,2.915,2.915,0,0,1-.392.518,3.322,3.322,0,0,1-.274.295.845.845,0,0,0-.262.353v.07H3.413Z" class="aw-theme-iconOutline" fill="#464646"/>
    <path id="path1413" d="M3.637,3.632v.8c0,.083-.02.175-.024.264a2.018,2.018,0,0,0,0,.22A1.2,1.2,0,0,0,3.64,5.1a1,1,0,0,1,.042.217c0,.07.006.141.007.212s0,.149,0,.223v.229a1.173,1.173,0,0,1-.088.36.509.509,0,0,0-.021.165.657.657,0,0,0,.038.18c.013.057.028.112.042.169a.9.9,0,0,1,.025.186V8.081l-.209.2h0V7.249a.826.826,0,0,0-.021-.172L3.413,6.91a.926.926,0,0,1-.043-.2.672.672,0,0,1,.015-.19,1.025,1.025,0,0,0,.053-.153.922.922,0,0,0,.038-.188V5.737c0-.07,0-.138-.006-.207a.814.814,0,0,0-.039-.207,1.314,1.314,0,0,1-.03-.2,1.781,1.781,0,0,1,0-.231,1.9,1.9,0,0,1,.025-.27,1.837,1.837,0,0,0,0-.257v-.53l.208-.2Z" class="aw-theme-iconOutline" fill="#464646"/>
    <path id="rect828-1-9" d="M.942,9.966v6h14v-6Zm1,1h12v4h-12Z" class="aw-theme-iconOutline" fill="#464646"/>
    <path id="path839-1-2-8-4" d="M6.569,12.466a.5.5,0,1,1-.5.5A.5.5,0,0,1,6.569,12.466Z" class="aw-theme-iconOutline" fill="#464646"/>
    <path id="path837-1-2-26-72" d="M4.731,12.466a.5.5,0,1,1-.5.5A.5.5,0,0,1,4.731,12.466Z" class="aw-theme-iconOutline" fill="#464646"/>
    <path id="path839-2-4-1-9-4" d="M8.408,12.466a.5.5,0,1,1-.5.5A.5.5,0,0,1,8.408,12.466Z" class="aw-theme-iconOutline" fill="#464646"/>
    <path id="path837-1-2-2-5-9" d="M2.892,12.466a.5.5,0,1,1-.5.5A.5.5,0,0,1,2.892,12.466Z" class="aw-theme-iconOutline" fill="#464646"/>
    <path id="path837-1-2-26-1-7" d="M12.085,12.466a.5.5,0,1,1-.5.5A.5.5,0,0,1,12.085,12.466Z" class="aw-theme-iconOutline" fill="#464646"/>
    <path id="path837-1-2-2-5-5-5-3" d="M10.242,12.466a.5.5,0,1,1-.5.5A.5.5,0,0,1,10.242,12.466Z" class="aw-theme-iconOutline" fill="#464646"/>
    <path id="path839-1-2-8-7-9" d="M7.469,11.366a.5.5,0,1,1-.5.5A.5.5,0,0,1,7.469,11.366Z" class="aw-theme-iconOutline" fill="#464646"/>
    <path id="path837-1-2-26-7-2" d="M5.631,11.366a.5.5,0,1,1-.5.5A.5.5,0,0,1,5.631,11.366Z" class="aw-theme-iconOutline" fill="#464646"/>
    <path id="path839-2-4-1-9-3-97" d="M9.308,11.366a.5.5,0,1,1-.5.5A.5.5,0,0,1,9.308,11.366Z" class="aw-theme-iconOutline" fill="#464646"/>
    <path id="path837-1-2-2-5-6-5" d="M3.792,11.366a.5.5,0,1,1-.5.5h0A.5.5,0,0,1,3.792,11.366Z" class="aw-theme-iconOutline" fill="#464646"/>
    <path id="path837-1-2-26-1-5-7" d="M12.985,11.366a.5.5,0,1,1-.5.5A.5.5,0,0,1,12.985,11.366Z" class="aw-theme-iconOutline" fill="#464646"/>
    <path id="path837-1-2-2-5-5-8-4" d="M11.142,11.366a.5.5,0,1,1-.5.5A.5.5,0,0,1,11.142,11.366Z" class="aw-theme-iconOutline" fill="#464646"/>
    <path id="path839-1-2-8-7-8-2" d="M7.469,13.566a.5.5,0,1,1-.5.5A.5.5,0,0,1,7.469,13.566Z" class="aw-theme-iconOutline" fill="#464646"/>
    <path id="path837-1-2-26-7-3-7" d="M5.631,13.566a.5.5,0,1,1-.5.5A.5.5,0,0,1,5.631,13.566Z" class="aw-theme-iconOutline" fill="#464646"/>
    <path id="path839-2-4-1-9-3-9-9" d="M9.308,13.566a.5.5,0,1,1-.5.5A.5.5,0,0,1,9.308,13.566Z" class="aw-theme-iconOutline" fill="#464646"/>
    <path id="path837-1-2-2-5-6-7-7" d="M3.792,13.566a.5.5,0,1,1-.5.5h0A.5.5,0,0,1,3.792,13.566Z" class="aw-theme-iconOutline" fill="#464646"/>
    <path id="path837-1-2-26-1-5-4-5" d="M12.985,13.566a.5.5,0,1,1-.5.5A.5.5,0,0,1,12.985,13.566Z" class="aw-theme-iconOutline" fill="#464646"/>
    <path id="path837-1-2-2-5-5-8-6-4" d="M11.142,13.566a.5.5,0,1,1-.5.5A.5.5,0,0,1,11.142,13.566Z" class="aw-theme-iconOutline" fill="#464646"/>
  </g>
</svg>
