<svg id="Image" xmlns="http://www.w3.org/2000/svg" viewBox="0 0 16 16">
  <g id="g864">
    <path id="path866" d="M8.918,9.485V6.5H9.89v5.962H8.918Z" class="aw-theme-iconOutline" fill="#464646"/>
    <path id="path868" d="M8.962,14.081v-.508h.972v1.016H8.962Z" class="aw-theme-iconOutline" fill="#464646"/>
    <path id="path839-1-2-8-4" d="M5.627,2.5a.5.5,0,1,1-.5.5A.5.5,0,0,1,5.627,2.5Z" class="aw-theme-iconOutline" fill="#464646"/>
    <path id="path837-1-2-26-72" d="M3.789,2.5a.5.5,0,1,1-.5.5A.5.5,0,0,1,3.789,2.5Z" class="aw-theme-iconOutline" fill="#464646"/>
    <path id="path839-2-4-1-9-4" d="M7.466,2.5a.5.5,0,1,1-.5.5A.5.5,0,0,1,7.466,2.5Z" class="aw-theme-iconOutline" fill="#464646"/>
    <path id="path837-1-2-2-5-9" d="M1.95,2.5a.5.5,0,1,1-.5.5A.5.5,0,0,1,1.95,2.5Z" class="aw-theme-iconOutline" fill="#464646"/>
    <path id="path837-1-2-26-1-7" d="M11.143,2.5a.5.5,0,1,1-.5.5A.5.5,0,0,1,11.143,2.5Z" class="aw-theme-iconOutline" fill="#464646"/>
    <path id="path839-1-2-8-7-9" d="M6.527,1.4a.5.5,0,1,1-.5.5A.5.5,0,0,1,6.527,1.4Z" class="aw-theme-iconOutline" fill="#464646"/>
    <path id="path837-1-2-26-7-2" d="M4.689,1.4a.5.5,0,1,1-.5.5A.5.5,0,0,1,4.689,1.4Z" class="aw-theme-iconOutline" fill="#464646"/>
    <path id="path839-2-4-1-9-3-97" d="M8.366,1.4a.5.5,0,1,1-.5.5A.5.5,0,0,1,8.366,1.4Z" class="aw-theme-iconOutline" fill="#464646"/>
    <path id="path837-1-2-2-5-6-5" d="M2.85,1.4a.5.5,0,1,1-.5.5A.5.5,0,0,1,2.85,1.4Z" class="aw-theme-iconOutline" fill="#464646"/>
    <path id="path837-1-2-26-1-5-7" d="M12.043,1.4a.5.5,0,1,1-.5.5A.5.5,0,0,1,12.043,1.4Z" class="aw-theme-iconOutline" fill="#464646"/>
    <path id="path837-1-2-2-5-5-8-4" d="M10.2,1.4a.5.5,0,1,1-.5.5A.5.5,0,0,1,10.2,1.4Z" class="aw-theme-iconOutline" fill="#464646"/>
    <path id="path839-1-2-8-7-8-2" d="M6.527,3.6a.5.5,0,1,1-.5.5A.5.5,0,0,1,6.527,3.6Z" class="aw-theme-iconOutline" fill="#464646"/>
    <path id="path837-1-2-26-7-3-7" d="M4.689,3.6a.5.5,0,1,1-.5.5A.5.5,0,0,1,4.689,3.6Z" class="aw-theme-iconOutline" fill="#464646"/>
    <path id="path837-1-2-2-5-6-7-7" d="M2.85,3.6a.5.5,0,1,1-.5.5A.5.5,0,0,1,2.85,3.6Z" class="aw-theme-iconOutline" fill="#464646"/>
    <path id="path837-1-2-26-1-5-4-5" d="M12.043,3.6a.5.5,0,1,1-.5.5A.5.5,0,0,1,12.043,3.6Z" class="aw-theme-iconOutline" fill="#464646"/>
    <path id="rect828-1-9" d="M0,0V6H6.332c.191-.323.432-.739.59-1H1V1H13V5H11.861c.146.248.393.676.58,1H14V0Z" class="aw-theme-iconOutline" fill="#464646"/>
    <path id="path862" d="M4,16a1.647,1.647,0,0,1-1.223-1.975c.07-.33,5.165-9.145,5.459-9.448a1.555,1.555,0,0,1,1.5-.447,1.785,1.785,0,0,1,.9.56c.246.313,5.225,8.994,5.306,9.252a1.621,1.621,0,0,1-1.069,2.022c-.256.079-.5.083-5.489.078C6.517,16.041,4.092,16.021,4,16Zm10.736-.936a.726.726,0,0,0,.359-.846c-.07-.21-5.037-8.836-5.178-8.992a.743.743,0,0,0-1.051-.02l-.02.02c-.131.145-5.1,8.772-5.175,8.98a.709.709,0,0,0,.458.892.808.808,0,0,0,.1.024c.089.017,2.459.029,5.266.025C14.24,15.142,14.606,15.137,14.736,15.064Z" class="aw-theme-iconOutline" fill="#464646"/>
    <path id="path839-1-2-8-4-4" d="M7.476,2.481a.5.5,0,1,1-.5.5A.5.5,0,0,1,7.476,2.481Z" class="aw-theme-iconOutline" fill="#464646"/>
    <path id="path839-2-4-1-9-4-1" d="M9.315,2.481a.5.5,0,1,1-.5.5A.5.5,0,0,1,9.315,2.481Z" class="aw-theme-iconOutline" fill="#464646"/>
  </g>
</svg>
