<svg id="Layer_1" data-name="Layer 1" xmlns="http://www.w3.org/2000/svg" viewBox="0 0 16 16">
  <g id="g818">
    <path id="path8" d="M1.547,7a1.5,1.5,0,0,0-1.5,1.5v1a1.5,1.5,0,0,0,1.5,1.5H5V10H1.547a.5.5,0,0,1-.5-.5v-1a.5.5,0,0,1,.5-.5H5V7Z" class="aw-theme-iconOutline" fill="#464646"/>
    <path id="path12" d="M0,.063V2.938L1.882,5.063,3.489,3.25h9.022l1.607,1.813L16,2.938V.063ZM12.235,1.125V2.187H3.765V1.125ZM2.824,2.5,1.882,3.561.941,2.5V1.125H2.824Zm12.235,0-.941,1.062L13.176,2.5V1.125h1.883Z" class="aw-theme-iconOutline" fill="#464646"/>
    <path id="path4" d="M12.6,16l-.91-.91,2.117-2.116H11.2A4.2,4.2,0,0,1,9.587,4.893l.494,1.186a2.917,2.917,0,0,0,1.122,5.61h2.6L11.688,9.573l.91-.91,3.213,3.213a.643.643,0,0,1,0,.909h0Z" class="aw-theme-iconOutline" fill="#464646"/>
  </g>
</svg>
