<svg id="Layer_1" data-name="Layer 1" xmlns="http://www.w3.org/2000/svg" viewBox="0 0 16 16">
  <g id="g816">
    <path id="path12" d="M0,.007V2.883L1.882,5.007,3.489,3.194h9.022l1.607,1.813L16,2.883V.007ZM12.235,1.069V2.131H3.765V1.069ZM2.824,2.443,1.882,3.505.941,2.443V1.069H2.824Zm12.235,0-.941,1.062-.942-1.062V1.069h1.883Z" class="aw-theme-iconOutline" fill="#464646"/>
    <path id="path4" d="M5.034,9.293l.892.928L8,8.062v2.653A4.2,4.2,0,0,0,12.117,15a4.121,4.121,0,0,0,3.8-2.638l-1.163-.5a2.82,2.82,0,0,1-3.737,1.6A2.975,2.975,0,0,1,9.26,10.715V8.062l2.074,2.163.891-.928L9.076,6.02a.615.615,0,0,0-.891,0h0Z" class="aw-theme-iconOutline" fill="#464646"/>
  </g>
</svg>
