<svg id="Image" xmlns="http://www.w3.org/2000/svg" viewBox="0 0 24 24">
  <g id="g908">
    <path id="path818-4-2" d="M21.209,9.984c-.094,0-.259.179-.614.606v1.125c.023-.029.026-.029.049-.059l.463-.572.01.133a3.218,3.218,0,0,1-.3,1.312,2.273,2.273,0,0,1-.219.41V14a2.94,2.94,0,0,0,.846-1.17,4.012,4.012,0,0,0,.377-1.771c0-.434-.036-.592-.145-.739A.892.892,0,0,0,21.209,9.984ZM20.6,19.029v1c.688.774.823.986.85,1.178a.785.785,0,0,1,0,.227,1.344,1.344,0,0,1-.5.539.735.735,0,0,1-.139.031,1.17,1.17,0,0,1-.437-.174c-.006,0-.336-.362-.369-.4h-.926c.234.248.789.847.816.871a1.5,1.5,0,0,0,1.043.377,1.564,1.564,0,0,0,1.151-1.309,1.664,1.664,0,0,0-.217-.9C21.81,20.368,21.347,19.851,20.6,19.029ZM9.279,21.434a1.914,1.914,0,0,0,1.33,1.212,1.738,1.738,0,0,0,.449.038c.386-.018.413.031,1.416-1.25h-.929c-.064.078-.349.445-.356.451a.723.723,0,0,1-.508.008,1.26,1.26,0,0,1-.6-.459Z" class="aw-theme-iconOutline" fill="#464646"/>
    <path id="rect822-4-9-4-1" d="M21,20.983V22H3V20.983Z" class="aw-theme-iconOutline" fill="#464646"/>
    <path id="path818-4" d="M18.462,7.163c-.094,0-.259.178-.614.6V8.893c.024-.028.026-.029.049-.058l.463-.573.01.133a3.226,3.226,0,0,1-.3,1.313,2.307,2.307,0,0,1-.219.41v1.06a2.93,2.93,0,0,0,.846-1.169,4.013,4.013,0,0,0,.377-1.772c0-.434-.036-.592-.145-.738A.892.892,0,0,0,18.462,7.163Zm-.614,9.045v1c.688.774.823.986.85,1.177a.785.785,0,0,1,0,.227,1.332,1.332,0,0,1-.5.539.665.665,0,0,1-.139.031,1.185,1.185,0,0,1-.437-.173c-.006,0-.335-.362-.369-.4h-.926c.234.249.789.847.816.871a1.494,1.494,0,0,0,1.043.377,1.565,1.565,0,0,0,1.151-1.308,1.67,1.67,0,0,0-.217-.9C19.063,17.546,18.6,17.029,17.848,16.208Zm-11.316,2.4a1.918,1.918,0,0,0,1.33,1.213,1.741,1.741,0,0,0,.449.037c.386-.018.413.032,1.416-1.25H8.8c-.064.078-.349.446-.356.451a.723.723,0,0,1-.508.008,1.258,1.258,0,0,1-.605-.459Z" class="aw-theme-iconOutline" fill="#464646"/>
    <path id="path818" d="M4.862,16.994a1.916,1.916,0,0,1-1.421-1.578,1.154,1.154,0,0,1,.059-.751c.054-.123.629-.842,2.081-2.6L7.587,9.636,6.4,8.339l-1.189-1.3-.651.707-.65.705L2.979,7.42,2.051,6.387,3.2,5.156c.633-.677,1.531-1.642,2-2.147l.846-.915.2.143a.894.894,0,0,0,.677.207A1.138,1.138,0,0,0,7.5,2.188l.191-.135.543.588.543.588-.836.893-.835.9L8.226,6.227c.618.664,1.134,1.209,1.146,1.209A1.855,1.855,0,0,0,9.78,6.9c-.008-.029-.034-.193-.058-.364a5.139,5.139,0,0,1,.167-2.4,3.374,3.374,0,0,1,2.99-2.095.643.643,0,0,1,.559.251c.172.171.221.312.162.471-.016.045-.3.414-.623.818s-.612.767-.633.8c-.042.071-.408,1.151-.408,1.2a5.951,5.951,0,0,0,.485.494l.486.466.52-.252.52-.252.594-.734c.7-.857.8-.97.921-.97a.894.894,0,0,1,.465.336c.109.146.139.3.143.737a4.011,4.011,0,0,1-.376,1.771,2.946,2.946,0,0,1-1.065,1.338,3.543,3.543,0,0,1-2.271.576h-.443l-.235.3-.235.3,2.286,2.463c1.75,1.889,2.306,2.509,2.388,2.661a1.647,1.647,0,0,1,.217.9,1.149,1.149,0,0,1-.388.843,1.165,1.165,0,0,1-.761.465,1.5,1.5,0,0,1-1.044-.376c-.076-.067-1.1-1.16-2.277-2.429s-2.148-2.3-2.157-2.285-.865,1.114-1.9,2.454c-2.157,2.786-2,2.615-2.494,2.638A1.778,1.778,0,0,1,4.862,16.994ZM15.2,16.32a1.332,1.332,0,0,0,.5-.539.778.778,0,0,0,0-.226c-.051-.357.1-.19-4.56-5.209-2.418-2.607-4.4-4.732-4.42-4.727-.043.017-.965.982-.965,1.011,0,.047,8.741,9.451,8.87,9.547a1.181,1.181,0,0,0,.438.174A.633.633,0,0,0,15.2,16.32Zm-9.755-.086c.037-.028.837-1.044,1.778-2.258S9,11.684,9.082,11.579l.15-.19-.556-.607a5.655,5.655,0,0,0-.592-.6c-.027.006-3.232,3.875-3.9,4.706a.277.277,0,0,0-.085.278,1.257,1.257,0,0,0,.833,1.071.725.725,0,0,0,.507-.006Zm5.8-7.429c.357-.463.357-.461,1.086-.46a3.033,3.033,0,0,0,1.746-.335,2.318,2.318,0,0,0,.994-1.133,3.221,3.221,0,0,0,.3-1.313l-.01-.131L14.9,6c-.255.317-.494.6-.53.632s-.357.2-.708.369c-.68.331-.822.369-1,.266a16.675,16.675,0,0,1-1.4-1.365c-.09-.19-.047-.4.291-1.393l.179-.525.466-.572c.257-.316.467-.583.467-.595s-.071-.007-.157.008a2.838,2.838,0,0,0-1.623.975,3.491,3.491,0,0,0-.449,2.765c.1.612.092.648-.293,1.1A1.956,1.956,0,0,0,9.884,8a13.786,13.786,0,0,0,1.085,1.143c.01-.006.132-.159.273-.341ZM5.9,5.334l1.964-2.1-.129-.14-.128-.143-.226.09a1.2,1.2,0,0,1-.572.087,1.256,1.256,0,0,1-.515-.072l-.167-.071L4.543,4.693l-1.582,1.7.464.532a5.731,5.731,0,0,0,.488.522C3.926,7.44,4.82,6.49,5.9,5.334Z" class="aw-theme-iconOutline" fill="#464646"/>
    <path id="path948" d="M11,10.164l-.083-.1,0,0Z" class="aw-theme-iconOutline" fill="#464646"/>
    <path id="path815" d="M5.717,14.891a.357.357,0,1,1-.357-.357h0A.357.357,0,0,1,5.717,14.891Z" class="aw-theme-iconOutline" fill="#464646"/>
    <path id="rect822" d="M0,0H1V19H0Z" class="aw-theme-iconOutline" fill="#464646"/>
    <path id="rect822-4" d="M17,0h1V19H17Z" class="aw-theme-iconOutline" fill="#464646"/>
    <path id="rect822-4-9" d="M18,0V1H0V0Z" class="aw-theme-iconOutline" fill="#464646"/>
    <path id="rect822-4-9-4" d="M18,18v1H0V18Z" class="aw-theme-iconOutline" fill="#464646"/>
    <path id="rect822-1" d="M3,18H4v4H3Z" class="aw-theme-iconOutline" fill="#464646"/>
    <path id="rect822-4-3" d="M20,3h1V22H20Z" class="aw-theme-iconOutline" fill="#464646"/>
    <path id="rect822-4-9-2" d="M21,3V4H17V3Z" class="aw-theme-iconOutline" fill="#464646"/>
    <path id="rect822-1-3" d="M6,21H7v3H6Z" class="aw-theme-iconOutline" fill="#464646"/>
    <path id="rect822-4-3-8" d="M23,5h1V24H23Z" class="aw-theme-iconOutline" fill="#464646"/>
    <path id="rect822-4-9-2-7" d="M24,5V6H20V5Z" class="aw-theme-iconOutline" fill="#464646"/>
    <path id="rect822-4-9-4-4" d="M24,23v1H6V23Z" class="aw-theme-iconOutline" fill="#464646"/>
  </g>
</svg>
