<svg id="Layer_2" data-name="Layer 2" xmlns="http://www.w3.org/2000/svg" viewBox="0 0 24 24">
  <g id="g847">
    <path id="path835" d="M.742,23.473a.564.564,0,0,1-.231-.4.651.651,0,0,1,.049-.2c.031-.074,3.03-3.106,8.061-8.152L19.655,3.665C21.317,2,22.72.61,22.774.582A.536.536,0,0,1,23.263.6a.487.487,0,0,1,.175.6c-.05.09-.915.961-13.416,13.5-4.786,4.8-8.746,8.753-8.8,8.782A.536.536,0,0,1,.742,23.473Z" class="aw-theme-iconOutline" fill="#464646"/>
    <path id="rect2" d="M10.018,1,8.434,5.027,4.484,3.42l-2.1,2.143,1.58,4.025L0,11.2V15H1V11.871l4.254-1.73L3.549,5.8l1.18-1.2L8.994,6.336,10.7,2H13.3l1.7,4.336,1.025-.418c.96-.959,1.065-1.056,1.84-1.828l-2.3.937L13.982,1Zm11.05,4-.707.709.09.09-1.705,4.34L23,11.871V15h1V11.2L20.039,9.588l1.58-4.025Zm-5.855,9A1.214,1.214,0,0,0,14,15.213v1.574A1.214,1.214,0,0,0,15.213,18h2.574A1.214,1.214,0,0,0,19,16.787V15.213A1.214,1.214,0,0,0,17.787,14ZM15.2,15h2.588a.215.215,0,0,1,.213.213v1.574a.215.215,0,0,1-.213.213H15.213A.215.215,0,0,1,15,16.787V15.213A.214.214,0,0,1,15.2,15ZM0,16v1H4.98c.3-.3.682-.684,1-1Zm10.105,0-1,1H13V16ZM20,16v1h4V16ZM7.107,19c-.793.794-1.533,1.528-2.107,2.1v.687A1.214,1.214,0,0,0,6.213,23H8.787A1.214,1.214,0,0,0,10,21.787V20.213A1.214,1.214,0,0,0,8.787,19ZM0,20v1H1.031c.213-.22.666-.678.983-1Zm6.2,0H8.787A.215.215,0,0,1,9,20.213v1.574A.215.215,0,0,1,8.787,22H6.213A.215.215,0,0,1,6,21.787V20.213A.214.214,0,0,1,6.2,20ZM11,20v1H24V20Z" class="aw-theme-iconOutline" fill="#464646"/>
  </g>
</svg>
