<svg id="Layer_1" data-name="Layer 1" xmlns="http://www.w3.org/2000/svg" width="16" height="16" viewBox="0 0 16 16">
  <g id="g867">
    <path id="path848" d="M9.31,9.8a1.039,1.039,0,0,1-.175-.892,5.769,5.769,0,0,1,1.4-3.4c.235-.259.27-.322.27-.472s-.035-.214-.225-.43A5.46,5.46,0,0,1,9.524,2.88a6.29,6.29,0,0,1-.4-1.946c0-.246-.023-.328-.088-.388S8.953.41,8.953.257V.04h6.03l.1.1A.254.254,0,0,1,15.118.5a.283.283,0,0,1-.024.025c-.062.061-.093.18-.113.491A5.929,5.929,0,0,1,13.6,4.5c-.416.452-.424.551-.082.939A6.1,6.1,0,0,1,14.978,9a.966.966,0,0,1-.229.856l-.113.106-2.6.012-2.6.012Zm4.941-.654A7.639,7.639,0,0,0,14.051,8a5.7,5.7,0,0,0-.631-1.431c-.076-.11-.275-.359-.442-.554a1.219,1.219,0,0,1-.419-.989,1.3,1.3,0,0,1,.459-1.033,5.108,5.108,0,0,0,1.206-2.874l.028-.232H9.88v.179a6.114,6.114,0,0,0,.293,1.376,4.686,4.686,0,0,0,.983,1.644,1.268,1.268,0,0,1,.39,1.062,1.418,1.418,0,0,1-.459.917,5.011,5.011,0,0,0-1.2,2.762l-.038.318.158.017c.355.038,4.239.03,4.239-.009Z" fill="#464646"/>
    <path id="rect1341-1-6" d="M8.418,10.021h7.176a.4.4,0,0,0,.406-.4v-.19a.4.4,0,0,0-.4-.407H8.418a.406.406,0,0,0-.407.4v.19a.405.405,0,0,0,.4.407Z" fill="#464646"/>
    <path id="rect1341-1-5-2" d="M8.418,1.021h7.176A.4.4,0,0,0,16,.618V.428a.4.4,0,0,0-.4-.407H8.418a.406.406,0,0,0-.407.4v.19a.405.405,0,0,0,.4.407Z" fill="#464646"/>
    <path id="path1394-4" d="M11.906,5.581c-.023.24-.364.479-.56.688a3.739,3.739,0,0,0-.977,1.85,5.515,5.515,0,0,0-.1.586v.041h1.777c.977,0,1.777,0,1.777-.011s-.013-.1-.029-.209a4.263,4.263,0,0,0-.568-1.644,3.327,3.327,0,0,0-.447-.576,4.029,4.029,0,0,0-.313-.327,1.186,1.186,0,0,1-.348-.419l-.052-.051h.006c-.2-.055-.2.2-.086,0Z" fill="#464646"/>
    <path id="path839-1-2-8-4" d="M5.208,11.171a.509.509,0,1,1-.5.509h0A.5.5,0,0,1,5.208,11.171Z" fill="#464646"/>
    <path id="path837-1-2-26-72" d="M3.372,11.171a.509.509,0,1,1-.5.509h0A.5.5,0,0,1,3.372,11.171Z" fill="#464646"/>
    <path id="path839-2-4-1-9-4" d="M7.044,11.171a.509.509,0,1,1-.5.509h0A.5.5,0,0,1,7.044,11.171Z" fill="#464646"/>
    <path id="path837-1-2-2-5-9" d="M1.536,11.171a.509.509,0,1,1-.5.509h0A.5.5,0,0,1,1.536,11.171Z" fill="#464646"/>
    <path id="path837-1-2-2-5-5-5-3" d="M8.875,11.171a.509.509,0,1,1-.5.509h0A.5.5,0,0,1,8.875,11.171Z" fill="#464646"/>
    <path id="path839-1-2-8-7-9" d="M6.106,10.053a.509.509,0,1,1-.5.508h0A.5.5,0,0,1,6.106,10.053Z" fill="#464646"/>
    <path id="path837-1-2-26-7-2" d="M4.271,10.053a.509.509,0,1,1-.5.508h0A.5.5,0,0,1,4.271,10.053Z" fill="#464646"/>
    <path id="path837-1-2-2-5-6-5" d="M2.435,10.053a.509.509,0,1,1-.5.508.5.5,0,0,1,.5-.508Z" fill="#464646"/>
    <path id="path839-1-2-8-7-8-2" d="M6.106,12.29a.509.509,0,1,1-.5.508.5.5,0,0,1,.5-.508Z" fill="#464646"/>
    <path id="path837-1-2-26-7-3-7" d="M4.271,12.29a.509.509,0,1,1-.5.508.5.5,0,0,1,.5-.508Z" fill="#464646"/>
    <path id="path839-2-4-1-9-3-9-9" d="M7.943,12.29a.509.509,0,1,1-.5.508.5.5,0,0,1,.5-.508Z" fill="#464646"/>
    <path id="path837-1-2-2-5-6-7-7" d="M2.435,12.29a.509.509,0,1,1-.5.508.5.5,0,0,1,.5-.508Z" fill="#464646"/>
    <path id="path839-1-2-8-4-6" d="M5.208,13.408a.509.509,0,1,1-.5.509.5.5,0,0,1,.5-.509Z" fill="#464646"/>
    <path id="path837-1-2-26-72-0" d="M3.372,13.408a.509.509,0,1,1-.5.509.5.5,0,0,1,.5-.509Z" fill="#464646"/>
    <path id="path839-2-4-1-9-4-0" d="M7.044,13.408a.509.509,0,1,1-.5.509.5.5,0,0,1,.5-.509Z" fill="#464646"/>
    <path id="path837-1-2-2-5-9-0" d="M1.536,13.408a.509.509,0,1,1-.5.509.5.5,0,0,1,.5-.509Z" fill="#464646"/>
    <path id="path837-1-2-2-5-5-5-3-8" d="M8.875,13.408a.509.509,0,1,1-.5.509.5.5,0,0,1,.5-.509Z" fill="#464646"/>
    <path id="path843" d="M.233,15.953A.431.431,0,0,1,.015,15.7C0,15.652,0,13.776,0,9.8L.007,3.961l.054-.088a.474.474,0,0,1,.117-.128c.034-.023.07-.047.08-.055s1.948-.009,4.308,0c4.076.008,4.294.01,4.349.041A.435.435,0,0,1,9.1,4a.413.413,0,0,1-.2.457L8.818,4.5H4.854C1.08,4.5.891,4.5.918,4.526s.138.237.274.489A20.177,20.177,0,0,0,2.4,7.044l.033.042.484-.074c.266-.04.633-.1.815-.134a18.008,18.008,0,0,1,1.862-.246l.274-.021.076.064a12.449,12.449,0,0,1,.94.963c.256.28.524.571.595.647l.13.138v.8H6.976c-.874,0-1.922-.03-2.211-.062a3.884,3.884,0,0,1-1.438-.44,4.34,4.34,0,0,1-.736-.439,4.572,4.572,0,0,1-1.5-1.818C.965,6.246.853,6.055.843,6.041S.825,7.578.824,10.593v4.58H9.709l0-2.064.005-2.065.052-.068a.439.439,0,0,1,.65,0l.052.068.009,2.33c.005,1.281,0,2.355,0,2.387a.34.34,0,0,1-.183.205C10.224,16,10.034,16,5.274,16H.328Zm6.55-7.564L6.452,8.1c-.168-.147-.414-.371-.548-.5a1.3,1.3,0,0,0-.28-.229c-.088,0-2.412.353-2.429.369a3.516,3.516,0,0,0,.747.393,3.331,3.331,0,0,0,1.091.244A8.509,8.509,0,0,0,6.1,8.41C6.7,8.413,6.805,8.41,6.783,8.389Z" fill="#464646"/>
  </g>
</svg>
