<svg id="Layer_1" data-name="Layer 1" xmlns="http://www.w3.org/2000/svg" viewBox="0 0 16 16">
  <g id="g866">
    <g id="g984">
      <path id="path839-1-2-8-4-7" d="M8.8,7.267a.509.509,0,1,1-.5.508A.5.5,0,0,1,8.8,7.267Z" class="aw-theme-iconOutline" fill="#464646"/>
      <path id="path837-1-2-26-72-9" d="M6.958,7.267a.509.509,0,1,1-.5.508A.5.5,0,0,1,6.958,7.267Z" class="aw-theme-iconOutline" fill="#464646"/>
      <path id="path839-2-4-1-9-4-8" d="M10.635,7.267a.509.509,0,1,1-.5.508A.5.5,0,0,1,10.635,7.267Z" class="aw-theme-iconOutline" fill="#464646"/>
      <path id="path837-1-2-2-5-9-4" d="M5.119,7.267a.509.509,0,1,1-.5.508A.5.5,0,0,1,5.119,7.267Z" class="aw-theme-iconOutline" fill="#464646"/>
      <path id="path837-1-2-2-5-5-5-3" d="M12.468,7.267a.509.509,0,1,1-.5.508A.5.5,0,0,1,12.468,7.267Z" class="aw-theme-iconOutline" fill="#464646"/>
      <path id="path839-1-2-8-7-9-0" d="M9.7,6.148a.509.509,0,1,1-.5.509A.5.5,0,0,1,9.7,6.148Z" class="aw-theme-iconOutline" fill="#464646"/>
      <path id="path837-1-2-26-7-2-4" d="M7.858,6.148a.509.509,0,1,1-.5.509A.5.5,0,0,1,7.858,6.148Z" class="aw-theme-iconOutline" fill="#464646"/>
      <path id="path839-2-4-1-9-3-97-4" d="M11.535,6.148a.509.509,0,1,1-.5.509A.5.5,0,0,1,11.535,6.148Z" class="aw-theme-iconOutline" fill="#464646"/>
      <path id="path837-1-2-2-5-6-5-8" d="M6.019,6.148a.509.509,0,1,1-.5.509h0A.5.5,0,0,1,6.019,6.148Z" class="aw-theme-iconOutline" fill="#464646"/>
    </g>
    <path id="path839-1-2-8-7-8-2-4" d="M9.7,8.385a.509.509,0,1,1-.5.509.5.5,0,0,1,.5-.509Z" class="aw-theme-iconOutline" fill="#464646"/>
    <path id="path837-1-2-26-7-3-7-5" d="M7.858,8.385a.509.509,0,1,1-.5.509.5.5,0,0,1,.5-.509Z" class="aw-theme-iconOutline" fill="#464646"/>
    <path id="path839-2-4-1-9-3-9-9-0" d="M11.535,8.385a.509.509,0,1,1-.5.509.5.5,0,0,1,.5-.509Z" class="aw-theme-iconOutline" fill="#464646"/>
    <path id="path837-1-2-2-5-6-7-7-9" d="M6.019,8.385a.509.509,0,1,1-.5.509.5.5,0,0,1,.5-.509Z" class="aw-theme-iconOutline" fill="#464646"/>
    <path id="path839-1-2-8-4-6" d="M8.8,9.5a.509.509,0,1,1-.5.508h0A.5.5,0,0,1,8.8,9.5Z" class="aw-theme-iconOutline" fill="#464646"/>
    <path id="path839-2-4-1-9-4-0" d="M10.635,9.5a.509.509,0,1,1-.5.508.5.5,0,0,1,.5-.508Z" class="aw-theme-iconOutline" fill="#464646"/>
    <path id="path837-1-2-2-5-5-5-3-8" d="M12.468,9.5a.509.509,0,1,1-.5.508.5.5,0,0,1,.5-.508Z" class="aw-theme-iconOutline" fill="#464646"/>
    <path id="path840" d="M3.818,0,3.734.058A.7.7,0,0,0,3.6.186L3.544.258,3.538,5.375l-.006,5.116-.385.178a10.265,10.265,0,0,1-1.551.574,5,5,0,0,0-.956.332,1.634,1.634,0,0,0-.6.905,3.3,3.3,0,0,0,0,.985c.053.323.2,1.014.25,1.144a1.719,1.719,0,0,0,.388.556.915.915,0,0,0,.572.25,1.959,1.959,0,0,0,.934-.209A6.987,6.987,0,0,1,4.2,14.7l.278-.016.513.256A9.839,9.839,0,0,0,8.251,15.95a12.519,12.519,0,0,0,1.908.024,4.732,4.732,0,0,0,1.538-.539c.369-.178.577-.291,1.324-.72A10.68,10.68,0,0,0,15.175,13.1a2.159,2.159,0,0,0,.5-.778,1.749,1.749,0,0,0-.316-1.687.8.8,0,0,0-.52-.275c-.247-.053-.279-.046-.616.144-.122.068-.228.124-.235.124s-.012-1.153-.012-2.56V5.51l.869-.011.867-.012.085-.072a.366.366,0,0,0,.134-.327c-.023-.11-.081-.193-.563-.795a12.509,12.509,0,0,1-1.091-1.52,4.081,4.081,0,0,1-.3-.956c-.015-.1-.034-.489-.042-.857-.014-.643-.017-.672-.074-.772-.116-.2.36-.188-5.14-.188ZM8.779.809h4.339l.013.157c.008.087.022.315.029.506A3.418,3.418,0,0,0,13.333,2.5,5.9,5.9,0,0,0,14.4,4.316c.151.2.279.367.283.38s-.959.025-2.419,0l-.77-.014-.368-.294c-.4-.324-.758-.635-1.142-1a3.958,3.958,0,0,0-.436-.358c-.171-.112-.2-.121-.307-.111-.065.006-.3.027-.521.049-.474.045-.978.117-1.452.205-.188.035-.557.095-.821.136l-.478.073-.059-.069A15.859,15.859,0,0,1,4.93,1.7c-.121-.22-.28-.505-.354-.632S4.44.83,4.44.822,6.393.809,8.779.809Zm-2.943.808-.084.056a.406.406,0,0,0,.037.7,23.779,23.779,0,0,0,3.463.043c3.35-.006,3.362-.006,3.431-.058a.408.408,0,0,0,.128-.551c-.123-.21.181-.192-3.608-.192Zm-1.483.669.236.4A4.876,4.876,0,0,0,5.88,4.376a4.955,4.955,0,0,0,2.024,1,33.392,33.392,0,0,0,4.5.126h.764V8.424l0,2.922-.244.192a6.216,6.216,0,0,1-.981.651,2.7,2.7,0,0,1-.365.177.626.626,0,0,1-.17-.126c-.24-.224-.264-.232-1.734-.477l-.858-.144-.4-.236c-.221-.131-.487-.3-.591-.38a4.509,4.509,0,0,0-.392-.26A8.111,8.111,0,0,0,6.169,10.2a6.922,6.922,0,0,0-1.535.008,2.109,2.109,0,0,1-.285.031c-.006-.006-.006-1.8,0-3.982Zm6.683.871-.088.056a.411.411,0,0,0,0,.669l.088.056H12.16c1.084,0,1.129,0,1.21-.051a.465.465,0,0,0,.18-.341.464.464,0,0,0-.18-.339c-.081-.049-.126-.05-1.21-.05Zm-1.918.5a1.18,1.18,0,0,1,.334.257c.152.143.4.371.56.508s.283.255.283.26-1.494,0-1.615-.008a3.919,3.919,0,0,1-1.823-.554L6.7,4.029l.074-.019C6.876,3.984,9.048,3.661,9.118,3.661Zm-4.05,7.3a3.161,3.161,0,0,1,.76.054,6.236,6.236,0,0,1,1.665.7c.09.059.386.237.656.4l.49.289.582.1.847.135a6.9,6.9,0,0,1,.892.2.5.5,0,0,1,.143.339.858.858,0,0,1-.347.669l-.12.078L10.32,13.9a4.012,4.012,0,0,1-.554-.066c-.132-.028-.445-.088-.694-.135a3.5,3.5,0,0,1-1.736-.7,3.334,3.334,0,0,0-.915-.448c-.162,0-.291.175-.291.4s.071.271.987.8c.95.554.94.551,1.439.649a10.75,10.75,0,0,0,2.113.287,1.083,1.083,0,0,0,.622-.337,1.631,1.631,0,0,0,.464-.979.826.826,0,0,1,.046-.219c.012-.011.2-.12.413-.24a8.1,8.1,0,0,0,1.21-.817,13.528,13.528,0,0,1,1.15-.888c.212-.1.338-.045.457.2a.616.616,0,0,1,.072.359.731.731,0,0,1-.056.335c-.076.168-.122.221-.458.533a9.4,9.4,0,0,1-2.035,1.482c-.139.073-.363.2-.5.279a7.238,7.238,0,0,1-1.52.694l-.279.091-.845.008A6.4,6.4,0,0,1,7.885,15.1a9.821,9.821,0,0,1-2.664-.9,1.972,1.972,0,0,0-.961-.312,8.515,8.515,0,0,0-2.129.523,2.763,2.763,0,0,1-.878.223c-.2-.04-.342-.239-.419-.6A10.213,10.213,0,0,1,.655,12.9a.817.817,0,0,1,.291-.621c.036-.023.364-.134.727-.244a11.621,11.621,0,0,0,1.586-.564,5.158,5.158,0,0,1,.995-.388A3.947,3.947,0,0,1,5.068,10.962Z" class="aw-theme-iconOutline" fill="#464646"/>
  </g>
</svg>
