<svg id="Image" xmlns="http://www.w3.org/2000/svg" viewBox="0 0 16 16">
  <g id="g834">
    <path id="path1079" d="M.6,9.559C.583,6.4.638,3.476.642,3.476S6.007,6.568,6.025,6.585a1.584,1.584,0,0,0,.47.05h.352L6.818,5.159,6.941,3.6,9.615,5.176,12.1,6.652l.572-.034V3.652L12.705.4,14.22.5h1.024V7.926l.22,7.7-7.423-.017L.635,15.556Z" fill="#e3faff"/>
    <path id="rect822" d="M12,0h1V7H12Z" fill="#005f87"/>
    <path id="rect824" d="M15,0h1V16H15Z" fill="#005f87"/>
    <path id="rect826-6" d="M12.661,0h2.678V1H12.661Z" fill="#005f87"/>
    <path id="rect826-8-9-0" d="M1,3,6.509,6.118,6.019,7,.515,3.882Z" fill="#005f87"/>
    <path id="rect822-6-3" d="M0,3H1V7H0Z" fill="#005f87"/>
    <path id="rect826-8-9-0-2" d="M7,2.986l5.489,3.132L12,7,6.511,3.867Z" fill="#005f87"/>
    <path id="rect822-6-3-7" d="M6,3l1-.014V7H6Z" fill="#005f87"/>
    <path id="rect824-6" d="M0,7H1v9H0Z" fill="#005f87"/>
    <path id="rect824-6-6" d="M15.339,15v1H.492V15Z" fill="#005f87"/>
    <path id="path836" d="M5.642,11.273c-1.3-1.5-.034-.044-.77-.893-.021-.022.454-.433.814-.786.422.444,1.366,1.461,2.21,2.3,1.364-1.885,1.349-1.862,2.96-4.1.43.307.637.458.984.718C11.6,8.864,8.04,14,8.028,14S6.943,12.773,5.642,11.27Z" fill="#005f87"/>
  </g>
</svg>
