<svg id="Layer_1" data-name="Layer 1" xmlns="http://www.w3.org/2000/svg" viewBox="0 0 16 16">
  <g id="g850">
    <path id="path2" d="M5.522,0A.5.5,0,0,0,5.26.068L.251,2.959A.5.5,0,0,0,0,3.391V9.146a.5.5,0,0,0,.251.432l5.013,2.893a.5.5,0,0,0,.5,0L8.052,11.15,8.8,7.355,11.029,4.83V3.391a.5.5,0,0,0-.251-.432L5.761.066A.513.513,0,0,0,5.522,0Z" class="aw-theme-iconOutline" fill="#464646"/>
    <polygon id="polygon4" points="1.003 4.258 1.003 8.858 5.013 11.171 5.013 6.572 1.003 4.258" fill="#c6c6c6"/>
    <path id="path16" d="M8.442,5.172,7.57,7.984l.663,2,.484.46c.011-1.165.746-.628,1.681-1.326l-.372-4.86Z" fill="#a1a1a1"/>
    <polygon id="polygon10" points="6.255 3.578 7.983 4.282 9.525 3.392 7.687 2.333 6.255 3.578" fill="#e3e3e3"/>
    <path id="path12" d="M5.123,4.2a.5.5,0,0,1-.276-.651.509.509,0,0,1,.135-.189L6.77,1.8,5.51,1.078,1.5,3.392,5.514,5.706l1.371-.791Z" fill="#e3e3e3"/>
    <path id="path14" d="M6.572,8.176a.493.493,0,0,1-.01-.324l.6-1.943-1.148.663v4.6l1.385-.8Z" fill="#a1a1a1"/>
    <path id="path849" d="M10.533,8.869a.5.5,0,0,0-.224.059L5.334,11.5a.5.5,0,1,0,.416.911l.043-.022,4.975-2.577a.5.5,0,0,0-.235-.947Z" class="aw-theme-iconOutline" fill="#464646"/>
    <path id="path851" d="M10.518,3.492A.5.5,0,0,0,10.027,4l.012,5.314a.5.5,0,0,0,1,0L11.027,4a.5.5,0,0,0-.495-.506Z" class="aw-theme-iconOutline" fill="#464646"/>
    <path id="path4" d="M11.354,7.405a4,4,0,1,0,4,4A4,4,0,0,0,11.354,7.405Z" fill="#55a0b9"/>
    <path id="path834" d="M11.257,13.026a.424.424,0,0,1-.263-.211,1.268,1.268,0,0,1-.044-.546,2.413,2.413,0,0,1,.03-.432,1.309,1.309,0,0,1,.715-.908.828.828,0,0,0,.393-1.135.9.9,0,0,0-.363-.358.723.723,0,0,0-.407-.082.754.754,0,0,0-.524.216.81.81,0,0,0-.267.579.4.4,0,0,1-.126.311.389.389,0,0,1-.559-.007.383.383,0,0,1-.115-.36A1.6,1.6,0,0,1,10,9.262a2.032,2.032,0,0,1,.391-.406,1.634,1.634,0,0,1,2.515.81,1.441,1.441,0,0,1,.074.563,1.407,1.407,0,0,1-.075.457,1.663,1.663,0,0,1-.828.952.586.586,0,0,0-.233.188c-.073.106-.075.121-.082.526l-.007.372-.034.073a.46.46,0,0,1-.084.123.424.424,0,0,1-.38.106Z" fill="#fff"/>
    <path id="path836" d="M11.219,14.407a.59.59,0,0,1-.325-.23.555.555,0,1,1,.96-.551.38.38,0,0,1,.049.2.579.579,0,0,1-.016.191.559.559,0,0,1-.4.387A.786.786,0,0,1,11.219,14.407Z" fill="#fff"/>
    <path id="path828" d="M10.97,15.994a4.692,4.692,0,0,1-4.209-3.776,5.624,5.624,0,0,1,.017-1.788A4.678,4.678,0,0,1,9.861,6.965a4.081,4.081,0,0,1,1.3-.228,4.624,4.624,0,0,1,4.717,3.651,5.534,5.534,0,0,1,.051,1.644,4.6,4.6,0,0,1-.4,1.3,4.363,4.363,0,0,1-.912,1.293A4.532,4.532,0,0,1,11.482,16C11.275,16,11.045,16,10.97,15.994Zm1.12-1.041a3.7,3.7,0,0,0,2.864-3.013,4.894,4.894,0,0,0-.066-1.491A3.727,3.727,0,0,0,12.23,7.8a2.82,2.82,0,0,0-.9-.075,2.974,2.974,0,0,0-1.644.361A3.672,3.672,0,0,0,10.8,15,5.26,5.26,0,0,0,12.09,14.953Z" class="aw-theme-iconOutline" fill="#464646"/>
  </g>
</svg>
