<svg id="Layer_1" data-name="Layer 1" xmlns="http://www.w3.org/2000/svg" viewBox="0 0 16 16">
  <g id="g957">
    <path id="path2" d="M14.412,8.1l.239-.239A4.591,4.591,0,0,0,11.387,0h0A4.628,4.628,0,0,0,8.121,1.32L6.167,3.274a1.477,1.477,0,0,0-.413,1.2C4.6,4.8,3.881,5.526,2.465,6.973c-.33.338-.692.709-1.116,1.134a4.62,4.62,0,0,0,6.529,6.539L8.1,14.42A4.481,4.481,0,1,0,14.412,8.1ZM10.245,3.444a1.617,1.617,0,0,1,2.282,2.291l-1.248,1.25a4.619,4.619,0,0,0-2.3-2.279ZM8.5,8.167a3.644,3.644,0,0,0-.319.315A1.5,1.5,0,0,1,7.35,7.454c-.011-.048-.04-.086-.055-.132A1.6,1.6,0,0,1,8.5,8.167Zm-3.89,4.8A1.6,1.6,0,0,1,3.473,10.23c.436-.436.809-.817,1.144-1.161l.092-.094a4.575,4.575,0,0,0,2.314,2.278L5.755,12.521a1.614,1.614,0,0,1-1.141.45Z" class="aw-theme-iconOutline" fill="#464646"/>
    <path id="circle4" d="M15,11.5A3.5,3.5,0,1,1,11.5,8,3.5,3.5,0,0,1,15,11.5Z" fill="#00dc5a"/>
    <path id="path10" d="M7.58,4.693,9.537,2.736a2.672,2.672,0,0,1,3.7,0,2.625,2.625,0,0,1,0,3.7l-.691.693a4.385,4.385,0,0,1,1.024.392l.374-.376a3.63,3.63,0,0,0,0-5.124,3.7,3.7,0,0,0-5.112,0L6.875,3.982a.5.5,0,0,0,.705.711Z" fill="#c8c8b9"/>
    <path id="path12" d="M7.6,9.307A2.518,2.518,0,0,1,6.374,7.678a.5.5,0,1,0-.984.178c0,.015.006.029.01.044a3.516,3.516,0,0,0,1.8,2.331A4.451,4.451,0,0,1,7.6,9.307Z" fill="#c8c8b9"/>
    <path id="path14" d="M7.138,12.554l-.675.675a2.672,2.672,0,0,1-3.7,0,2.629,2.629,0,0,1,0-3.706c.433-.434.8-.812,1.136-1.153C5.481,6.753,5.807,6.444,6.7,6.314A2.608,2.608,0,0,1,9.33,7.581a4.427,4.427,0,0,1,.933-.387,3.592,3.592,0,0,0-3.7-1.872c-1.259.183-1.749.685-3.381,2.353-.324.332-.691.708-1.122,1.139A3.619,3.619,0,0,0,7.17,13.938l.362-.361A4.366,4.366,0,0,1,7.138,12.554Z" fill="#c8c8b9"/>
    <path id="path831" d="M13.966,11.593l-1.729,1-1.729,1V9.6l1.729,1Z" fill="#fff"/>
    <path id="path843" d="M16.119,11.5a4.5,4.5,0,1,1-4.5-4.5,4.5,4.5,0,0,1,4.5,4.5Z" class="aw-theme-iconOutline" fill="#464646"/>
    <path id="path845" d="M15.556,11.5a3.938,3.938,0,1,1-3.937-3.937h0A3.937,3.937,0,0,1,15.556,11.5Z" fill="#0a9b00"/>
    <path id="path841" d="M9.931,14.313V11.5L9.925,8.688l2.469,1.406L14.862,11.5,12.4,12.906Z" fill="#fff"/>
  </g>
</svg>
