<svg id="Layer_1" data-name="Layer 1" xmlns="http://www.w3.org/2000/svg" viewBox="0 0 16 16">
  <g id="g836">
    <path id="path12" d="M5.37,4.063c-.347-.14-.519-.308-.237-.554L6.927,1.915,5.53.838,1.365,3.327,5.451,5.841l1.675-.889Z" fill="#e3e3e3"/>
    <path id="path14" d="M6.92,8.115A.477.477,0,0,1,6.874,7.8l.352-2.034-1.3.713v4.95l1.679-.91Z" fill="#a1a1a1"/>
    <path id="path16" d="M8.364,5.029,7.477,7.982,8.251,10l.485.461c.011-1.168.749-.63,1.687-1.33L10.3,4.173Z" fill="#a1a1a1"/>
    <path id="path4-4" d="M11.4,7.214a4.2,4.2,0,1,0,2.969,1.227A4.2,4.2,0,0,0,11.4,7.214Z" fill="#14915a"/>
    <path id="path836-1" d="M8.188,11.95c.391-.369.349-.349.675-.655l1.9,1.825,2.5-4.069c.348.2.521.335.847.5-.877,1.39-2.889,4.654-3.151,5.056C9.671,13.364,8.284,12.053,8.188,11.95Z" fill="#fff"/>
    <path id="polygon4" d="M.9,3.92.779,8.98l4.313,2.464.144-4.926Z" fill="#c6c6c6"/>
    <path id="path824" d="M10.85,15.99c-.028-.007-.166-.03-.306-.053a5.114,5.114,0,0,1-1.307-.44,4.691,4.691,0,0,1-2.453-3.242,1.142,1.142,0,0,0-.08-.3c-.011,0-.25.132-.531.292-.486.276-.518.29-.68.276a16.4,16.4,0,0,1-2.653-1.45C1.475,10.288.3,9.607.235,9.563-.013,9.4,0,9.586,0,6.282,0,3.025-.009,3.169.209,3.007.356,2.9,5.215.1,5.37.032A.335.335,0,0,1,5.609.014c.162.042,5.2,2.946,5.3,3.053a.622.622,0,0,1,.11.211c.022.081.036.742.036,1.786V6.722l.131-.02a5.227,5.227,0,0,1,1.28.136,4.643,4.643,0,0,1,3.292,3A3.863,3.863,0,0,1,16,11.364a3.825,3.825,0,0,1-.076.926,4.506,4.506,0,0,1-1.277,2.343A4.614,4.614,0,0,1,12.3,15.922a9.178,9.178,0,0,1-1.445.068Zm1.408-1.068a3.729,3.729,0,0,0,2.7-2.777,3.246,3.246,0,0,0,.061-.815,2.7,2.7,0,0,0-.093-.885,3.729,3.729,0,0,0-1.327-2,3.649,3.649,0,0,0-4.838.331,3.6,3.6,0,0,0-.971,1.7,4.643,4.643,0,0,0-.066,1.42,3.709,3.709,0,0,0,2.948,3.074A5.086,5.086,0,0,0,12.258,14.922ZM5.034,8.889V6.568L3.208,5.514C2.2,4.934,1.293,4.41,1.184,4.348l-.2-.113V8.882L3,10.045c1.108.64,2.019,1.164,2.023,1.165S5.034,10.166,5.034,8.889Zm1.348,2.1.338-.186.059-.316a6,6,0,0,1,.18-.669l.12-.352-.257-.691a7.4,7.4,0,0,1-.258-.766c0-.04.14-.524.31-1.075s.3-1.008.3-1.015a6.361,6.361,0,0,0-.582.316l-.569.328V8.871c0,1.268.006,2.306.012,2.306S6.2,11.093,6.382,10.992Zm2.1-3.3A4.614,4.614,0,0,1,9.874,6.94l.194-.061v-1.3a8.649,8.649,0,0,0-.036-1.3c-.02,0-.384.2-.81.446l-.774.446-.436,1.41c-.422,1.363-.435,1.414-.4,1.55.1.331.074.328.35.038A5.574,5.574,0,0,1,8.486,7.692ZM6.351,5.251c.3-.173.552-.323.553-.333S6.5,4.734,6,4.532a9.165,9.165,0,0,1-.99-.441.52.52,0,0,1-.175-.344c0-.212.088-.309,1.017-1.118.507-.442.926-.814.93-.827a5.371,5.371,0,0,0-.621-.387l-.629-.364-.105.055C5.149,1.249,1.5,3.372,1.5,3.388s.907.541,2.015,1.18L5.527,5.729l.136-.081C5.738,5.6,6.048,5.424,6.351,5.251ZM9.4,3.5a.689.689,0,0,0,.161-.106c0-.017-1.824-1.071-1.853-1.071S6.255,3.567,6.269,3.581s.4.174.874.367L8,4.3l.617-.357C8.957,3.745,9.307,3.544,9.4,3.5Z" class="aw-theme-iconOutline" fill="#464646"/>
    <path id="polygon10" d="M6.266,3.574,8,4.281l1.548-.893L7.7,2.325Z" fill="#e3e3e3"/>
  </g>
</svg>
