<svg id="Layer_1" data-name="Layer 1" xmlns="http://www.w3.org/2000/svg" viewBox="0 0 16 16">
  <g id="g833">
    <path id="path2" d="M9.5,0A6.487,6.487,0,0,0,3.9,9.777L.487,13.162a1.662,1.662,0,0,0,2.35,2.352l3.405-3.4A6.5,6.5,0,1,0,9.5,0Z" class="aw-theme-iconOutline" fill="#464646"/>
    <path id="path4" d="M4.468,10.619l-3.274,3.25a.663.663,0,0,0,.938.936L5.4,11.542A6.453,6.453,0,0,1,4.468,10.619Z" fill="#879baa"/>
    <path id="path6" d="M9.5,12A5.461,5.461,0,0,1,6.4,11.034a5.689,5.689,0,0,1-.687-.562c-.066-.063-.13-.128-.193-.194a5.138,5.138,0,0,1-.467-.564A5.493,5.493,0,1,1,9.5,12Z" fill="#3c91af"/>
    <path id="path824" d="M9.352,11a.644.644,0,1,1,.687-.956.711.711,0,0,1,.086.376A.648.648,0,0,1,9.632,11a.521.521,0,0,1-.28.008Z" fill="#fff"/>
    <path id="path826" d="M9.33,9.406a.515.515,0,0,1-.352-.377,5.79,5.79,0,0,1-.012-.7,3.6,3.6,0,0,1,.043-.757,2.043,2.043,0,0,1,.531-1,1.988,1.988,0,0,1,.593-.433,1.8,1.8,0,0,0,.578-.43A1.624,1.624,0,0,0,10.6,3.486a1.625,1.625,0,0,0-1.68-.345,1.662,1.662,0,0,0-.554.35,1.476,1.476,0,0,0-.357.487,1.6,1.6,0,0,0-.15.607.687.687,0,0,1-.06.293.509.509,0,0,1-.829.112c-.118-.131-.135-.2-.124-.468a2.429,2.429,0,0,1,.239-.966A2.614,2.614,0,0,1,10.3,2.168a2.7,2.7,0,0,1,1.793,2.007,3.648,3.648,0,0,1-.006,1.038,2.664,2.664,0,0,1-.741,1.361,2.585,2.585,0,0,1-.7.509,1.107,1.107,0,0,0-.595.694,3.59,3.59,0,0,0-.038.694c-.01.565-.013.6-.047.661A.576.576,0,0,1,9.33,9.406Z" fill="#fff"/>
  </g>
</svg>
