<svg id="Artwork" xmlns="http://www.w3.org/2000/svg" xmlns:xlink="http://www.w3.org/1999/xlink" viewBox="0 0 16 16">
  <defs>
    <linearGradient id="linear-gradient" x1="-7.672" y1="763.344" x2="2.888" y2="770.532" gradientTransform="translate(9.615 -774.461) scale(1.016)" gradientUnits="userSpaceOnUse">
      <stop offset="0" stop-color="#cde6eb"/>
      <stop offset="0.221" stop-color="#c6e2e8"/>
      <stop offset="0.542" stop-color="#b3d8e1"/>
      <stop offset="0.921" stop-color="#93c7d5"/>
      <stop offset="1" stop-color="#8cc3d2"/>
    </linearGradient>
    <linearGradient id="linear-gradient-2" x1="161.741" y1="774.198" x2="171.544" y2="785.979" gradientTransform="translate(-127.388 -774.142) scale(0.785 1.005)" gradientUnits="userSpaceOnUse">
      <stop offset="0" stop-color="#afd7e1"/>
      <stop offset="0.159" stop-color="#a4d0dc"/>
      <stop offset="0.706" stop-color="#80bcce"/>
      <stop offset="1" stop-color="#73b4c8"/>
    </linearGradient>
  </defs>
  <g id="g986">
    <path id="rect837-7-6-3" d="M12.644,4.529,6.656,8.016l-.1,7.55L12.813,11.8Z" fill="#3c91af"/>
    <path id="rect837-7-6-8-3" d="M12.562,4.511,6.278.638.564,4.138l5.987,3.92Z" fill="url(#linear-gradient)"/>
    <path id="rect837-7-5" d="M.844,4.622,6.33,8.271l.191,7.719L.542,11.452Z" fill="url(#linear-gradient-2)"/>
    <path id="rect845-6-9-9" d="M.068,4.084l.007-.013A.454.454,0,0,1,.7,3.909l.016.01,5.93,3.759a.486.486,0,0,1,.157.655l-.008.013a.455.455,0,0,1-.622.161L6.154,8.5.224,4.739A.484.484,0,0,1,.068,4.084Z" fill="#147391"/>
    <path id="rect845-6-7-2-2" d="M12.856,4.411,12.849,4.4a.494.494,0,0,0-.672-.16L6.5,7.65a.469.469,0,0,0-.166.643l.009.015.007.012a.5.5,0,0,0,.672.16L12.7,5.069a.47.47,0,0,0,.164-.644Z" fill="#147391"/>
    <path id="rect845-8-5-8" d="M6.527,7.715a.506.506,0,0,1,.5.51v6.741a.5.5,0,0,1-1.008,0h0V8.225a.505.505,0,0,1,.5-.51Z" fill="#147391"/>
    <path id="rect845-9" d="M.456,3.955H.572a.444.444,0,0,1,.445.443v7.386a.444.444,0,0,1-.442.446H.456a.445.445,0,0,1-.446-.444V4.4a.445.445,0,0,1,.441-.449Z" class="aw-theme-iconOutline" fill="#464646"/>
    <path id="rect845-6-7-24" d="M12.973,11.678a.492.492,0,0,0-.664-.154L6.289,15.1a.455.455,0,0,0-.169.622l.012.02a.492.492,0,0,0,.664.154l6.019-3.572a.457.457,0,0,0,.17-.622Z" class="aw-theme-iconOutline" fill="#464646"/>
    <path id="rect845-6-7-2-5-5" d="M6.885.376,6.87.352a.5.5,0,0,0-.687-.17L6.176.187.242,3.809A.5.5,0,0,0,.075,4.5l0,0,.014.023a.507.507,0,0,0,.7.166L6.72,1.066A.5.5,0,0,0,6.886.379Z" class="aw-theme-iconOutline" fill="#464646"/>
    <path id="rect845-6-6-8" d="M6.147.41,6.183.349A.418.418,0,0,1,6.751.185L6.782.2l6.06,3.962a.479.479,0,0,1,.151.633l-.036.062a.419.419,0,0,1-.57.161L12.357,5,6.3,1.044A.479.479,0,0,1,6.147.41Z" class="aw-theme-iconOutline" fill="#464646"/>
    <path id="rect845-8-6" d="M12.5,4.176h.08a.486.486,0,0,1,.487.485v7.122a.487.487,0,0,1-.485.487H12.5a.486.486,0,0,1-.487-.485V4.663a.485.485,0,0,1,.485-.487Z" class="aw-theme-iconOutline" fill="#464646"/>
    <path id="rect845-6-9-9-6" d="M.071,11.574v0a.466.466,0,0,1,.641-.157l.005,0L6.7,15.124a.475.475,0,0,1,.155.651h0a.465.465,0,0,1-.637.159l-.008,0-5.984-3.7A.474.474,0,0,1,.071,11.574Z" class="aw-theme-iconOutline" fill="#464646"/>
    <path id="path4" d="M7.874,7.226a.447.447,0,0,1,.282.422.489.489,0,0,1-.692.449c-.211-.086-.755-.45-1.058-1.889H6.193l0,4.133,5.325,5.3L15.676,11.5l-5.325-5.3H7.305C7.81,7.079,7.95,7.237,7.874,7.226Z" fill="#e3faff" stroke="#464646" stroke-linejoin="round" stroke-width="0.676"/>
    <path id="path859" d="M8.14,3.919a.867.867,0,1,1-1.731,0h0a.9.9,0,0,1,.866-.925h0A.9.9,0,0,1,8.14,3.919Z" fill="#b2d7e1" stroke="#464646" stroke-linecap="round" stroke-width="0.837"/>
    <path id="path857" d="M7.537,7.473a4.311,4.311,0,0,1-.843-1.485,5.357,5.357,0,0,1,.594-2.1h0" fill="none" stroke="#147391" stroke-linecap="round" stroke-width="0.914"/>
    <path id="path841" d="M10.593,7.926l-.545-.563L7.274,10.051l.545.563Z" fill="#005f87"/>
    <path id="path839" d="M11.046,8.393l-.181-.187L8.091,10.894l.182.188Z" fill="#005f87"/>
    <path id="path837" d="M11.682,9.049,11.5,8.862,8.727,11.55l.181.187Z" fill="#005f87"/>
    <path id="path835" d="M12.408,9.8l-.363-.375L9.271,12.112l.363.374Z" fill="#005f87"/>
    <path id="path833" d="M12.953,10.361l-.179-.186L10,12.864l.18.185Z" fill="#005f87"/>
    <path id="path827" d="M11.3,14.2l.183.189L14.253,11.7l-.183-.189Z" fill="#005f87"/>
    <path id="path823" d="M10.853,13.743l2.773-2.688-.184-.19-2.774,2.688Z" fill="#005f87"/>
  </g>
</svg>
