<svg id="Layer_1" data-name="Layer 1" xmlns="http://www.w3.org/2000/svg" viewBox="0 0 16 16">
  <g id="g839">
    <path id="path2" d="M9.5,0A6.487,6.487,0,0,0,3.9,9.777L.487,13.162a1.662,1.662,0,0,0,2.351,2.351h0l3.4-3.4A6.5,6.5,0,1,0,9.5,0Z" class="aw-theme-iconOutline" fill="#464646"/>
    <path id="path4" d="M4.468,10.619l-3.274,3.25a.662.662,0,0,0,.938.935L5.4,11.542A6.505,6.505,0,0,1,4.468,10.619Z" fill="#879baa"/>
    <path id="path6" d="M9.5,12A5.468,5.468,0,0,1,6.4,11.034a5.689,5.689,0,0,1-.687-.562c-.066-.063-.13-.128-.193-.2a5.128,5.128,0,0,1-.467-.563A5.493,5.493,0,1,1,9.5,12Z" fill="#3c91af"/>
    <path id="rect8" d="M9,3h1V8H9Z" fill="#fff"/>
    <path id="path10" d="M9.5,10.249a.759.759,0,0,1-.75-.757.75.75,0,0,1,1.5,0A.758.758,0,0,1,9.5,10.249Z" fill="#fff"/>
    <path id="path828" d="M2.925.5a.5.5,0,0,0-.314.871l12.5,11.567a.5.5,0,1,0,.68-.734L3.29.633A.5.5,0,0,0,2.925.5Z" class="aw-theme-iconOutline" fill="#464646"/>
  </g>
</svg>
