<svg id="Layer_1" data-name="Layer 1" xmlns="http://www.w3.org/2000/svg" xmlns:xlink="http://www.w3.org/1999/xlink" viewBox="0 0 16 16">
  <defs>
    <linearGradient id="linear-gradient" x1="-3.89" y1="777.23" x2="2.844" y2="772.515" gradientTransform="translate(13.849 -773.515)" gradientUnits="userSpaceOnUse">
      <stop offset="0" stop-color="#73b4c8"/>
      <stop offset="0.175" stop-color="#6aaec3"/>
      <stop offset="0.457" stop-color="#529eb5"/>
      <stop offset="0.809" stop-color="#2c839f"/>
      <stop offset="1" stop-color="#147391"/>
    </linearGradient>
  </defs>
  <g id="g836">
    <path id="path2" d="M2.679,4.526l1.549-.755A1.874,1.874,0,0,1,5.66,3.684l1.452.5A.783.783,0,0,0,8.106,3.7h0l.5-1.451a1.876,1.876,0,0,1,.951-1.075L11.106.418l2.465,5.056-1.549.755a1.874,1.874,0,0,1-1.432.087l-1.452-.5a.783.783,0,0,0-.994.484h0l-.5,1.451a1.876,1.876,0,0,1-.951,1.075l-1.549.755Z" fill="url(#linear-gradient)"/>
    <path id="path4" d="M5,10,2.261,4.382l1.83-.892a2.17,2.17,0,0,1,1.671-.1l1.453.5a.47.47,0,0,0,.6-.29l.5-1.452A2.17,2.17,0,0,1,9.42.892L11.25,0l2.739,5.618-1.83.892a2.17,2.17,0,0,1-1.671.1l-1.453-.5a.47.47,0,0,0-.6.29l-.5,1.452A2.173,2.173,0,0,1,6.83,9.108ZM3.1,4.67,5.288,9.164l1.268-.618a1.552,1.552,0,0,0,.793-.895l.5-1.453A1.1,1.1,0,0,1,9.24,5.52l1.451.5a1.552,1.552,0,0,0,1.194-.073l1.268-.618L10.962.836l-1.268.618a1.552,1.552,0,0,0-.793.9L8.4,3.8A1.1,1.1,0,0,1,7.01,4.48l-1.451-.5a1.552,1.552,0,0,0-1.194.073Z" class="aw-theme-iconOutline" fill="#464646"/>
    <path id="path901" d="M10.027,13.211V10.423l.863,0,.863.005.1.322a35.1,35.1,0,0,1,1.109,3.568.673.673,0,0,0,.057.2,1.052,1.052,0,0,0,.082-.264c.036-.147.083-.327.105-.4.035-.118,1.042-3.238,1.091-3.38l.019-.055H16V16H14.839l.01-2.114c.006-1.163.016-2.185.021-2.271s0-.157-.008-.157-.022.021-.027.047a20.679,20.679,0,0,1-.752,2.535l-.631,1.952-.481,0L12.49,16l-.074-.225c-.042-.124-.1-.309-.136-.411l-.531-1.6c-.258-.778-.486-1.468-.506-1.534-.031-.1-.11-.455-.156-.707-.006-.035-.02-.064-.031-.064s-.015.063-.008.191c.006.105.016,1.127.022,2.271L11.08,16H10.027Z" class="aw-theme-iconOutline" fill="#464646"/>
    <path id="path899" d="M6.666,15.989a3.118,3.118,0,0,1-.924-.221L5.593,15.7v-.236c0-.129-.006-.41-.012-.622l-.012-.387.161.122a2.11,2.11,0,0,0,.813.392,2.587,2.587,0,0,0,.759.035c.35-.057.565-.222.607-.467.046-.261-.1-.493-.443-.7-.08-.049-.324-.172-.543-.273s-.46-.221-.536-.268a1.882,1.882,0,0,1-.641-.647A1.68,1.68,0,0,1,5.83,10.97a1.638,1.638,0,0,1,.9-.615,2.664,2.664,0,0,1,.922-.119,3.308,3.308,0,0,1,1.181.175l.086.034v.57c0,.45-.005.566-.023.557l-.1-.062a1.833,1.833,0,0,0-.21-.107,1.7,1.7,0,0,0-1.637.024.449.449,0,0,0-.156.358.482.482,0,0,0,.2.4,2.559,2.559,0,0,0,.735.432c.868.412,1.185.7,1.35,1.215a1.3,1.3,0,0,1,.057.423,1.714,1.714,0,0,1-.088.707,1.585,1.585,0,0,1-1.374,1A5.372,5.372,0,0,1,6.666,15.989Z" class="aw-theme-iconOutline" fill="#464646"/>
    <path id="path897" d="M0,16s.427-1.256.948-2.784L1.9,10.432l.7,0,.7-.005.028.081c.015.044.31.927.654,1.962s.679,2.034.742,2.22c.176.521.425,1.281.425,1.3A5.412,5.412,0,0,1,4.51,16H3.879l-.038-.123c-.021-.068-.092-.306-.158-.53s-.132-.447-.147-.5l-.027-.089-.943,0-.942,0-.182.615L1.26,16H.63C.284,16,0,16,0,16ZM3.228,13.8c0-.007-.125-.459-.289-1.005-.213-.711-.305-1.047-.327-1.19s-.037-.2-.054-.2-.024.021-.024.058a8.093,8.093,0,0,1-.361,1.355c-.159.53-.286.97-.28.979s1.323.02,1.335,0Z" class="aw-theme-iconOutline" fill="#464646"/>
  </g>
</svg>
