<svg id="Layer_1" data-name="Layer 1" xmlns="http://www.w3.org/2000/svg" viewBox="0 0 16 16">
  <g id="g836">
    <path id="path2" d="M5.529,0a.506.506,0,0,0-.263.068L.251,2.959A.5.5,0,0,0,0,3.391V9.146a.5.5,0,0,0,.251.432L5.27,12.471a.5.5,0,0,0,.5,0L8.062,11.15l.751-3.795L11.042,4.83V3.391a.5.5,0,0,0-.251-.432L5.768.066A.513.513,0,0,0,5.529,0Z" class="aw-theme-iconOutline" fill="#464646"/>
    <path id="polygon4" d="M1,8.858l4.015,2.313v-4.6L1,4.258Z" fill="#c6c6c6"/>
    <path id="path16" d="M8.452,5.172,7.58,7.984l.663,2,.485.46c.01-1.165.747-.628,1.683-1.326l-.373-4.86Z" fill="#a1a1a1"/>
    <path id="polygon10" d="M7.992,4.282l1.544-.89L7.7,2.333,6.263,3.578Z" fill="#e3e3e3"/>
    <path id="path12" d="M5.129,4.2a.5.5,0,0,1-.276-.651.509.509,0,0,1,.135-.189L6.778,1.8,5.517,1.078,1.505,3.392,5.521,5.706l1.372-.791Z" fill="#e3e3e3"/>
    <path id="path14" d="M6.58,8.176a.493.493,0,0,1-.01-.324l.6-1.943-1.15.663v4.6l1.387-.8Z" fill="#a1a1a1"/>
    <path id="path849" d="M10.546,8.869a.5.5,0,0,0-.225.059L5.34,11.5a.5.5,0,1,0,.417.911l.043-.022,4.981-2.577a.5.5,0,0,0-.235-.947Z" class="aw-theme-iconOutline" fill="#464646"/>
    <path id="path851" d="M10.53,3.492A.5.5,0,0,0,10.039,4l.012,5.314a.5.5,0,0,0,1,0h0L11.041,4a.5.5,0,0,0-.5-.506Z" class="aw-theme-iconOutline" fill="#464646"/>
    <path id="path4-4-7" d="M11.314,7.372a4.007,4.007,0,1,0,2.832,1.173A4.008,4.008,0,0,0,11.314,7.372Z" fill="#cf3339"/>
    <path id="path6" d="M12.034,11.317l1.644-1.641a.5.5,0,0,0-.7-.7l-1.637,1.648L9.692,8.971a.5.5,0,0,0-.7.705l1.641,1.641L8.987,12.961a.5.5,0,0,0,.665.743l.027-.026.013-.012,1.644-1.643,1.641,1.643a.5.5,0,0,0,.705-.7Z" fill="#fff"/>
    <path id="path824" d="M11.1,16a4.669,4.669,0,1,1,3.488-1.313A4.582,4.582,0,0,1,11.491,16c-.152.006-.33.007-.4,0ZM11.671,15a3.662,3.662,0,1,0-3.925-4.39A4.625,4.625,0,0,0,7.7,11.805a3.676,3.676,0,0,0,3.28,3.2A2.825,2.825,0,0,0,11.671,15Z" class="aw-theme-iconOutline" fill="#464646"/>
  </g>
</svg>
