<svg id="Layer_1" data-name="Layer 1" xmlns="http://www.w3.org/2000/svg" viewBox="0 0 16 16">
  <g id="g834">
    <path id="path2" d="M9.5,0A6.488,6.488,0,0,0,3.9,9.778L.486,13.163a1.662,1.662,0,0,0,2.35,2.352l3.405-3.4A6.5,6.5,0,1,0,9.5,0Z" class="aw-theme-iconOutline" fill="#464646"/>
    <path id="path4" d="M4.467,10.62,1.192,13.87a.663.663,0,0,0,.939.936L5.4,11.543A6.505,6.505,0,0,1,4.467,10.62Z" fill="#879baa"/>
    <path id="path6" d="M9.5,12a5.47,5.47,0,0,1-3.106-.965,5.689,5.689,0,0,1-.687-.562c-.066-.064-.13-.129-.193-.2a5.223,5.223,0,0,1-.467-.563A5.494,5.494,0,1,1,9.5,12Z" fill="#3c91af"/>
    <path id="polygon8" d="M11.747,5.466l.637-1.588-.27-.271-1.593.633-.63-1.583h-.72L8.541,4.24,6.948,3.607l-.27.271.637,1.588L5.727,6.1v.735h-.7V5.628l1.379-.55L5.857,3.709l.916-.915,1.376.548L8.7,1.967h1.655l.551,1.375,1.375-.548.917.915-.549,1.369,1.378.55V6.835h-.692V6.1Z" fill="#fff"/>
    <path id="polygon8-5" d="M11.747,7.467l.637,1.588-.27.271-1.593-.633-.63,1.583h-.72l-.63-1.583-1.593.633-.27-.271.637-1.588L5.727,6.834V6.1h-.7V7.305l1.379.55L5.857,9.224l.916.915,1.376-.548L8.7,10.967h1.655l.551-1.376,1.375.548.917-.915-.549-1.369,1.378-.55V6.1h-.692v.735Z" fill="#fff"/>
    <path id="path826" d="M9.345,7.746A1.26,1.26,0,0,1,8.3,6.841a.9.9,0,0,1-.033-.324A.96.96,0,0,1,8.3,6.2a1.264,1.264,0,0,1,.9-.9A.93.93,0,0,1,9.5,5.273a.928.928,0,0,1,.307.031,1.254,1.254,0,0,1,.9.92,1.721,1.721,0,0,1,0,.59,1.254,1.254,0,0,1-.956.915A1.576,1.576,0,0,1,9.345,7.746Zm.3-.665A.614.614,0,0,0,10,6.821a.6.6,0,0,0,.006-.615.635.635,0,0,0-.3-.25.744.744,0,0,0-.4,0,.6.6,0,0,0-.381.467A.592.592,0,0,0,9.645,7.081Z" fill="#fff"/>
  </g>
</svg>
