<svg id="svg10" xmlns="http://www.w3.org/2000/svg" viewBox="0 0 16 16">
  <path id="path831" d="M.347.115l.594,1.5A20.42,20.42,0,0,1,7.885,3.354c1.29.7,1.649,1.379,1.666,2.087S8.922,6.784,8.339,7.59,6.79,9.426,6.262,10.05a3.493,3.493,0,0,0-.82,3.025c.242.8,1.218,1.179,2.118,1.528,1.8.7,5.34.876,8.012,1.166L15,14.5A33.341,33.341,0,0,1,8.055,13.33c-.773-.3-1.182-.651-1.284-.986s.013-.868.729-1.715c.49-.58,1.248-1.366,1.887-2.25s1.494-1.813,1.469-2.893A4.167,4.167,0,0,0,8.7,2.066C7.218,1.263,3.866.532.347.115Z" fill="#dc0000"/>
</svg>
