<svg id="Artwork" xmlns="http://www.w3.org/2000/svg" xmlns:xlink="http://www.w3.org/1999/xlink" viewBox="0 0 16 16">
  <defs>
    <linearGradient id="linear-gradient" x1="-385.52" y1="-536.907" x2="-375.446" y2="-543.935" gradientTransform="matrix(1.039, 0, 0, -0.963, 23.84, -758.483)" gradientUnits="userSpaceOnUse">
      <stop offset="0" stop-color="#afd7e1"/>
      <stop offset="1" stop-color="#54a4bc"/>
    </linearGradient>
  </defs>
  <g id="g844">
    <path id="path827" d="M.646,7.979V7.517l.345-.025a.9.9,0,0,0,.553-.185c.535-.41.62-.7.622-2.146a4.284,4.284,0,0,1,.391-2.229,4.025,4.025,0,0,1,1.36-1.469,2.281,2.281,0,0,1,.365-.184c.024,0,.044,1.334.044,2.965V7.209h.525V1.161h2.1V7.209h.525V4.214c0-1.647.014-2.994.032-2.994a4.156,4.156,0,0,1,.893.512A3.7,3.7,0,0,1,9.435,2.981a4.39,4.39,0,0,1,.371,2.261c.039,1.341.04,1.353.2,1.631a1.176,1.176,0,0,0,.948.618l.318.026v.925H.646Z" fill="url(#linear-gradient)"/>
    <path id="path2" d="M15.006,5.1a3.392,3.392,0,0,0-2.4-.977h0a3.4,3.4,0,0,0-2.4.977L8.76,6.549a1.1,1.1,0,0,0-.3.888,5.674,5.674,0,0,0-2.422,1.85c-.243.251-.509.525-.822.84a3.434,3.434,0,0,0-.067,4.837,3.388,3.388,0,0,0,4.81.068c.022-.021.043-.043.064-.065l1.424-1.431a1.1,1.1,0,0,0,.3-.893,3.326,3.326,0,0,0,1.442-.869l1.818-1.831A3.443,3.443,0,0,0,15.006,5.1Zm-4.432,5.273a1.071,1.071,0,0,0,.079.168,1.191,1.191,0,0,1-1.022-.9c-.012-.033-.026-.065-.041-.1A1.174,1.174,0,0,1,10.574,10.376ZM7.616,13.727a1.18,1.18,0,0,1-1.192-1.169,1.193,1.193,0,0,1,.352-.86c.321-.322.6-.6.843-.859l.068-.07a3.375,3.375,0,0,0,1.7,1.687l-.934.938A1.184,1.184,0,0,1,7.616,13.727Zm5.826-5.356-.919.925A3.4,3.4,0,0,0,10.83,7.609l.929-.934a1.185,1.185,0,0,1,1.683.03,1.2,1.2,0,0,1,0,1.666Z" class="aw-theme-iconOutline" fill="#464646"/>
    <path id="path837" d="M.083,9.01C.005,8.932,0,8.872,0,7.952V6.977l.12-.135c.119-.134.124-.136.578-.157s.459-.023.592-.156l.135-.136L1.45,5.179a7.668,7.668,0,0,1,.112-1.6,4.242,4.242,0,0,1,2.392-3L4.171.487V0H7.639V.225c0,.224,0,.226.155.276A4.13,4.13,0,0,1,9.7,1.987a5.258,5.258,0,0,1,.651,1.439,5.729,5.729,0,0,1,.134,1.66c.026,1.352.03,1.374.264,1.518a.887.887,0,0,0,.5.081.883.883,0,0,1,.5.081c.2.124.227.274.212,1.275-.012.794-.021.886-.092.965l-.079.087H5.981C.22,9.093.164,9.092.083,9.01ZM11.149,7.916V7.61l-.24-.022A1.4,1.4,0,0,1,9.8,6.747L9.684,6.5,9.658,5.211A5.9,5.9,0,0,0,9.543,3.62a3.338,3.338,0,0,0-.96-1.606,2.86,2.86,0,0,0-.891-.6A22.018,22.018,0,0,0,7.639,4.36V7.308H6.814V1.246H5V7.308H4.171V4.381c0-1.61-.016-2.928-.035-2.928a3.466,3.466,0,0,0-.78.553,3.553,3.553,0,0,0-.965,1.7,6.985,6.985,0,0,0-.114,1.591C2.25,6.529,2.249,6.542,2.14,6.776a1.376,1.376,0,0,1-1.09.811L.826,7.61v.611H11.149Z" class="aw-theme-iconOutline" fill="#464646"/>
    <path id="path4" d="M10.8,12.039A2.693,2.693,0,0,1,8.2,9.974a.368.368,0,1,1,.718-.166A1.948,1.948,0,0,0,10.805,11.3a1.852,1.852,0,0,0,1.341-.571l1.818-1.831A1.933,1.933,0,0,0,11.24,6.15L9.8,7.6a.366.366,0,0,1-.521,0,.373.373,0,0,1,0-.524L10.72,5.626a2.672,2.672,0,0,1,3.764,3.793l-1.817,1.832A2.579,2.579,0,0,1,10.8,12.039Z" fill="#fff"/>
    <path id="path6" d="M7.616,15.229A2.688,2.688,0,0,1,5.734,10.65c.317-.319.589-.6.826-.843C7.762,8.572,8.122,8.2,9.049,8.065a2.646,2.646,0,0,1,2.945,1.9.368.368,0,1,1-.7.217l0-.012A1.917,1.917,0,0,0,9.152,8.8c-.662.1-.9.324-2.061,1.521-.245.252-.515.533-.836.853a1.933,1.933,0,0,0,2.723,2.744L10.4,12.486a.367.367,0,0,1,.517.059.371.371,0,0,1,0,.464L9.5,14.443A2.63,2.63,0,0,1,7.616,15.229Z" fill="#fff"/>
  </g>
</svg>
