<svg id="Layer_1" data-name="Layer 1" xmlns="http://www.w3.org/2000/svg" xmlns:xlink="http://www.w3.org/1999/xlink" viewBox="0 0 16 16">
  <defs>
    <linearGradient id="linear-gradient" x1="195.865" y1="120.692" x2="185.643" y2="138.397" gradientTransform="matrix(1, 0, 0, -1, -172.21, 154.483)" gradientUnits="userSpaceOnUse">
      <stop offset="0" stop-color="#147391"/>
      <stop offset="0.191" stop-color="#2c839f"/>
      <stop offset="0.543" stop-color="#529eb5"/>
      <stop offset="0.825" stop-color="#6aaec3"/>
      <stop offset="1" stop-color="#73b4c8"/>
    </linearGradient>
    <linearGradient id="linear-gradient-2" x1="203.617" y1="131.828" x2="195.561" y2="139.884" gradientTransform="matrix(1, 0, 0, -1, -172.21, 154.483)" gradientUnits="userSpaceOnUse">
      <stop offset="0" stop-color="#8cc3d2"/>
      <stop offset="1" stop-color="#cde6eb"/>
    </linearGradient>
    <linearGradient id="linear-gradient-3" x1="186.46" y1="130.734" x2="194.46" y2="122.734" gradientTransform="matrix(1, 0, 0, -1, -172.21, 154.483)" gradientUnits="userSpaceOnUse">
      <stop offset="0" stop-color="#bebebe"/>
      <stop offset="0.08" stop-color="#c6c6c6"/>
      <stop offset="0.458" stop-color="#e5e5e5"/>
      <stop offset="0.779" stop-color="#f8f8f8"/>
      <stop offset="1" stop-color="#fff"/>
    </linearGradient>
  </defs>
  <g id="g992">
    <path id="path2" d="M5.538,0a.506.506,0,0,0-.263.068L.251,2.959A.5.5,0,0,0,0,3.391V9.146a.5.5,0,0,0,.251.432l5.028,2.893a.506.506,0,0,0,.5,0L8.076,11.15l.752-3.795L11.061,4.83V3.391a.5.5,0,0,0-.251-.432L5.778.066A.514.514,0,0,0,5.538,0Z" fill="#464646"/>
    <polygon id="polygon4" points="1.006 8.858 5.028 11.171 5.028 6.572 1.006 4.258 1.006 8.858" fill="#c6c6c6"/>
    <path id="path8" d="M7.2,10.572l-2.411,2.4a.2.2,0,0,0-.016.29.207.207,0,0,0,.291.017l.017-.017,2.412-2.4A3.682,3.682,0,0,1,7.2,10.572Z" fill="#fff"/>
    <path id="path16" d="M8.467,5.172,7.593,7.984l.665,2,.485.46c.01-1.165.748-.628,1.686-1.326l-.374-4.86Z" fill="#a1a1a1"/>
    <polygon id="polygon10" points="8.006 4.282 9.553 3.392 7.71 2.333 6.274 3.578 8.006 4.282" fill="#e3e3e3"/>
    <path id="path12" d="M5.138,4.2A.5.5,0,0,1,5,3.357L6.79,1.8,5.526,1.078,1.507,3.392,5.531,5.706l1.374-.791Z" fill="#e3e3e3"/>
    <path id="path14" d="M6.591,8.176a.493.493,0,0,1-.01-.324l.6-1.943-1.152.663v4.6l1.39-.8Z" fill="#a1a1a1"/>
    <path id="path849" d="M5.58,11.949l4.989-2.577" fill="none"/>
    <path id="path851" d="M10.549,3.492A.5.5,0,0,0,10.057,4l.012,5.314a.5.5,0,0,0,1,0h0L11.06,4a.5.5,0,0,0-.5-.506Z" fill="#464646"/>
    <polygon id="rect50" points="5.043 12.311 12.322 5.053 14.562 7.286 7.283 14.544 5.043 12.311" fill="url(#linear-gradient)"/>
    <path id="path52" d="M12.322,5.053l.845-.857a.905.905,0,0,1,1.274,0l.976.974a.9.9,0,0,1,0,1.271l0,0-.854.859" fill="url(#linear-gradient-2)"/>
    <polygon id="polygon56" points="3.923 15.661 5.043 12.311 7.283 14.544 3.923 15.661" fill="url(#linear-gradient-3)"/>
    <polygon id="polygon58" points="4.572 13.719 5.871 15.013 3.923 15.661 4.572 13.719" fill="#6e6e6e"/>
    <path id="path970" d="M5.935,13.788,4.823,12.679l.229-.227.229-.227,1.112,1.108L7.5,14.442l-.228.227-.229.228Z" fill="#147391"/>
    <path id="path974" d="M13.214,6.529,12.1,5.415l.229-.228.228-.227,1.118,1.114,1.117,1.115-.228.227-.228.228Z" fill="#147391"/>
    <path id="path962" d="M3.8,15.967a.457.457,0,0,1-.128-.092c-.124-.134-.13-.11.5-1.993l.582-1.74L8.867,8.031C11.7,5.2,13.024,3.891,13.126,3.824a1.24,1.24,0,0,1,1.355,0,9.262,9.262,0,0,1,.729.687c.506.511.6.619.665.753A1.136,1.136,0,0,1,16,5.9a1.09,1.09,0,0,1-.184.585c-.04.062-1.937,1.97-4.215,4.239L7.456,14.845l-1.744.578c-.959.318-1.765.578-1.791.577a.4.4,0,0,1-.119-.033Zm2.025-1.278,1.281-.426L11.183,10.2c2.345-2.338,4.092-4.1,4.116-4.146a.669.669,0,0,0-.01-.492,7.991,7.991,0,0,0-.625-.663c-.5-.5-.586-.57-.681-.595a.709.709,0,0,0-.432.031c-.05.024-1.742,1.694-4.151,4.1L5.334,12.489,4.9,13.8c-.24.718-.436,1.315-.436,1.326s.019.013.042.006l1.322-.439Z" fill="#464646"/>
  </g>
</svg>
