<svg version="1.1" id="Layer_1" xmlns="http://www.w3.org/2000/svg" xmlns:xlink="http://www.w3.org/1999/xlink" x="0px" y="0px"
	 viewBox="0 0 24 24" enable-background="new 0 0 24 24" xml:space="preserve">
<path class="aw-theme-iconOutline" fill="#464646"  d="M23,12c0,6.1-4.9,11-11,11S1,18.1,1,12S5.9,1,12,1c3.3,0,6.4,1.5,8.5,4H17v1h5V1h-1v3.1
	C18.7,1.5,15.5,0,12,0C5.4,0,0,5.4,0,12s5.4,12,12,12s12-5.4,12-12H23z"/>
<polygon class="aw-theme-iconOutline" fill="#464646"  points="12,12.543 12,4.542 11,4.542 11,12.75 11.146,13.104 16.438,18.396 17.146,17.688 "/>
</svg>
