<svg id="Layer_1" data-name="Layer 1" xmlns="http://www.w3.org/2000/svg" xmlns:xlink="http://www.w3.org/1999/xlink" viewBox="0 0 48 48">
  <defs>
    <linearGradient id="linear-gradient" x1="78.945" y1="845.11" x2="117.945" y2="884.11" gradientTransform="translate(-53.542 -662.408) scale(0.792 0.794)" gradientUnits="userSpaceOnUse">
      <stop offset="0" stop-color="#fff"/>
      <stop offset="1" stop-color="#dcdcdc"/>
    </linearGradient>
  </defs>
  <g id="g961">
    <path id="rect9" d="M5.5,9.127l37,.2V38.7l-37-.2Z" fill="url(#linear-gradient)"/>
    <path id="polyline28" d="M38,1h9V47H38" fill="none" stroke="#969696" stroke-miterlimit="10" stroke-width="2"/>
    <path id="polyline30" d="M10,47H1V1h9" fill="none" stroke="#969696" stroke-miterlimit="10" stroke-width="2"/>
    <path id="path11" d="M42.208,9.613V38.206H5.792V9.613M43,8.819H5V39H43Z" fill="#6f6e6e"/>
    <path id="line15" d="M8.719,15.521H24.553" fill="none" stroke="#177491" stroke-miterlimit="10" stroke-width="0.793"/>
    <path id="line17" d="M8.958,18.743H20.042" fill="none" stroke="#177491" stroke-miterlimit="10" stroke-width="0.8"/>
    <path id="rect956" d="M8.958,28.675v5.56H14.5v-5.56Zm.792.794h3.958V33.44H9.75Z" fill="#0e7191"/>
    <path id="path974" d="M10.542,30.263l2.375,2.383" fill="none" stroke="#0e7191" stroke-width="0.793"/>
    <path id="path974-6" d="M12.917,30.184l-2.375,2.383" fill="none" stroke="#177491" stroke-width="0.793"/>
    <path id="rect956-7" d="M24.792,28.675v5.56h5.541v-5.56Zm.791.794h3.959V33.44H25.583Z" fill="#177491"/>
    <path id="rect1006" d="M16.875,28.675h5.542v5.56H16.875Z" fill="#177491"/>
    <path id="rect1026" d="M25.235,29.185h2.333v2.27H25.235Z" fill="#0e7191"/>
    <path id="rect1026-5" d="M27.563,31.45h2.173v2.09H27.563Z" fill="#0e7191"/>
    <path id="rect956-7-4" d="M32.708,28.675v5.56H38.25v-5.56Zm.792.794h3.958V33.44H33.5Z" fill="#177491"/>
    <path id="rect1026-1" d="M33.5,29.469h.792v.794H33.5Z" fill="#177491"/>
    <path id="rect1026-1-3" d="M35.083,29.469h.792v.794h-.792Z" fill="#177491"/>
    <path id="rect1026-1-2" d="M36.667,29.469h.791v.794h-.791Z" fill="#177491"/>
    <path id="rect1026-1-1" d="M34.292,30.263h.791v.795h-.791Z" fill="#177491"/>
    <path id="rect1026-1-3-6" d="M35.875,30.263h.792v.795h-.792Z" fill="#177491"/>
    <path id="rect1026-1-8" d="M33.5,31.058h.792v.794H33.5Z" fill="#177491"/>
    <path id="rect1026-1-3-7" d="M35.083,31.058h.792v.794h-.792Z" fill="#177491"/>
    <path id="rect1026-1-2-5" d="M36.667,31.058h.791v.794h-.791Z" fill="#177491"/>
    <path id="rect1026-1-1-8" d="M34.292,31.852h.791v.794h-.791Z" fill="#177491"/>
    <path id="rect1026-1-3-6-3" d="M35.875,31.852h.792v.794h-.792Z" fill="#177491"/>
    <path id="rect1026-1-36" d="M33.5,32.646h.792v.794H33.5Z" fill="#177491"/>
    <path id="rect1026-1-3-61" d="M35.083,32.646h.792v.794h-.792Z" fill="#177491"/>
    <path id="rect1026-1-2-3" d="M36.667,32.646h.791v.794h-.791Z" fill="#177491"/>
    <path id="path45" d="M32.706,21.474a.991.991,0,0,1-.989-.992h0V19.337A2.922,2.922,0,0,1,33.4,16.691a1.655,1.655,0,0,0-.383-3.128,1.854,1.854,0,0,0-.307-.027,1.623,1.623,0,0,0-1.058.386,1.655,1.655,0,0,0-.59,1.268.989.989,0,1,1-1.978,0,3.632,3.632,0,0,1,3.626-3.638h0a3.64,3.64,0,0,1,1.516,6.941.928.928,0,0,0-.532.844v1.145a.991.991,0,0,1-.989.992Z" fill="#3b90b2"/>
    <path id="path47" d="M32.71,11.882a3.4,3.4,0,0,1,.587.052,3.31,3.31,0,0,1,.792,6.258,1.263,1.263,0,0,0-.724,1.145v1.145a.659.659,0,1,1-1.318,0V19.337a2.589,2.589,0,0,1,1.488-2.345,1.986,1.986,0,0,0-.465-3.754,2.219,2.219,0,0,0-.364-.033,1.982,1.982,0,0,0-1.978,1.985.66.66,0,1,1-1.319,0,3.3,3.3,0,0,1,3.3-3.308h0m0-.661h0a3.962,3.962,0,0,0-3.96,3.965v0a1.319,1.319,0,1,0,2.637,0,1.325,1.325,0,0,1,.472-1.014,1.3,1.3,0,0,1,.847-.309,1.422,1.422,0,0,1,.252.022,1.323,1.323,0,0,1,.3,2.5,3.255,3.255,0,0,0-1.871,2.947v1.145a1.319,1.319,0,1,0,2.638,0V19.337a.594.594,0,0,1,.34-.543,3.972,3.972,0,0,0-.954-7.512,4.1,4.1,0,0,0-.7-.061Z" fill="#147391"/>
    <path id="path49" d="M32.706,24.984a1.334,1.334,0,0,1-.957-2.251,1.306,1.306,0,0,1,.961-.395,1.322,1.322,0,0,1,.932.375,1.337,1.337,0,0,1-.013,1.887A1.321,1.321,0,0,1,32.706,24.984Z" fill="#3b90b2"/>
    <path id="path51" d="M32.709,22.669a.982.982,0,0,1,.7.277,1.006,1.006,0,0,1,0,1.408.994.994,0,1,1-.7-1.685m0-.661a1.623,1.623,0,0,0-1.651,1.6.451.451,0,0,0,0,.052,1.66,1.66,0,1,0,1.678-1.647Z" fill="#147391"/>
  </g>
</svg>
