<svg id="Layer_1" data-name="Layer 1" xmlns="http://www.w3.org/2000/svg" xmlns:xlink="http://www.w3.org/1999/xlink" viewBox="0 0 48 48">
  <defs>
    <linearGradient id="linear-gradient" x1="21.602" y1="39.472" x2="48.344" y2="12.514" gradientTransform="matrix(1, 0, 0, -1, 0, 50)" gradientUnits="userSpaceOnUse">
      <stop offset="0" stop-color="#73b4c8"/>
      <stop offset="1" stop-color="#177492"/>
    </linearGradient>
    <linearGradient id="linear-gradient-2" x1="-109.275" y1="102.553" x2="-85.92" y2="88.157" gradientTransform="matrix(1.467, 0, 0, -1.339, 173.299, 165.21)" gradientUnits="userSpaceOnUse">
      <stop offset="0" stop-color="#f2f2f2"/>
      <stop offset="0.5" stop-color="#ccc"/>
      <stop offset="0.63" stop-color="#c7c7c7"/>
      <stop offset="0.779" stop-color="#b9b9b9"/>
      <stop offset="0.938" stop-color="#a2a2a2"/>
      <stop offset="0.99" stop-color="#999"/>
    </linearGradient>
  </defs>
  <g id="g873">
    <g id="g24">
      <path id="path20" d="M9.867,25.166A4.369,4.369,0,0,1,9,25.079a4.23,4.23,0,0,1-1.532-.647,4.342,4.342,0,0,1-.635-.522,4.294,4.294,0,0,1,0-6.073h0a4.439,4.439,0,0,1,.635-.525A4.244,4.244,0,0,1,9,16.664a4.492,4.492,0,0,1,.865-.087,4.28,4.28,0,0,1,3.788,2.316l.3.568H13.94l.1.441a4.181,4.181,0,0,1,.122.964,4.293,4.293,0,0,1-4.288,4.3ZM43,23.939a4.371,4.371,0,0,1-.869-.087,4.241,4.241,0,0,1-1.531-.646,4.368,4.368,0,0,1-.636-.523,4.2,4.2,0,0,1-1.125-4.049l.141-.574.019.006.234-.436a4.3,4.3,0,0,1,.729-1.02,4.512,4.512,0,0,1,.637-.525,4.235,4.235,0,0,1,1.535-.646A4.343,4.343,0,0,1,43,15.35a4.295,4.295,0,0,1,0,8.589Zm-18.4-2.454A7.948,7.948,0,0,1,17.9,17.836l-.318-.491h0l-.233-.5a7.732,7.732,0,0,1-.614-4.643l.089-.536H16.81l.182-.571A7.975,7.975,0,0,1,31.246,9.127l.346.525-.011.008.221.467a7.919,7.919,0,0,1,.765,3.383,8.039,8.039,0,0,1-.268,2.018l-.151.579,1.371.393-1.366-.391-.211.5A7.964,7.964,0,0,1,24.591,21.485ZM4.959,11.669a4.369,4.369,0,0,1-.868-.087,4.227,4.227,0,0,1-1.532-.649,4.414,4.414,0,0,1-.635-.523,4.294,4.294,0,0,1,0-6.073h0a4.31,4.31,0,0,1,.635-.525,4.244,4.244,0,0,1,1.535-.647,4.412,4.412,0,0,1,.865-.085,4.3,4.3,0,0,1,4.3,4.3h0A4.27,4.27,0,0,1,9.021,8.7l-.2.6h0l-.245.386A4.28,4.28,0,0,1,4.959,11.669ZM38.088,9.215a4.371,4.371,0,0,1-.869-.087,4.241,4.241,0,0,1-1.531-.646,4.368,4.368,0,0,1-.636-.523l-.368-.368-.474.223.435-.3L34.294,6.9a2.658,2.658,0,0,1-.167-.311,4.293,4.293,0,0,1,.921-4.708,4.388,4.388,0,0,1,.636-.526A4.252,4.252,0,0,1,42.25,4.106a4.29,4.29,0,0,1-4.162,5.109Z" fill="url(#linear-gradient)"/>
      <path id="path22" d="M38.088,1.24a3.681,3.681,0,0,1,0,7.362,3.719,3.719,0,0,1-.744-.075,3.651,3.651,0,0,1-1.314-.553,3.792,3.792,0,0,1-.5-.409l-.03-.039-.052-.054-.286-.3L34.9,6.726l-.08-.139a2.044,2.044,0,0,1-.129-.234A3.681,3.681,0,0,1,36.654,1.53a3.63,3.63,0,0,1,.69-.215,3.719,3.719,0,0,1,.744-.075M4.959,3.694A3.681,3.681,0,0,1,8.64,7.375a3.627,3.627,0,0,1-.2,1.139L8.275,9l-.225.348a3.666,3.666,0,0,1-3.091,1.7,3.681,3.681,0,1,1,0-7.362M24.591,6.148a7.351,7.351,0,0,1,6.146,3.313l.269.407.245.517a7.277,7.277,0,0,1,.7,3.125,7.4,7.4,0,0,1-.245,1.862l-.151.578-.178.42A7.362,7.362,0,0,1,18.415,17.5l-.278-.428-.227-.491a7.128,7.128,0,0,1-.568-4.285l.1-.571.144-.453a7.338,7.338,0,0,1,7.01-5.126M43,15.964a3.681,3.681,0,0,1,0,7.362,3.793,3.793,0,0,1-.744-.075,3.682,3.682,0,0,1-2.937-3.606,3.594,3.594,0,0,1,.123-.869l.1-.42.235-.438a3.578,3.578,0,0,1,2.482-1.879A3.669,3.669,0,0,1,43,15.964M9.867,17.191a3.662,3.662,0,0,1,3.243,1.986l.24.456.094.412a3.644,3.644,0,0,1-3.577,4.508,3.791,3.791,0,0,1-.743-.075,3.681,3.681,0,0,1,.743-7.287M38.088.013a4.982,4.982,0,0,0-.989.1,4.908,4.908,0,0,0-3.534,6.719,4.758,4.758,0,0,0,.273.5L31.76,8.786h0A8.588,8.588,0,0,0,16.41,10.9L9.6,8.9h0a4.824,4.824,0,0,0,.265-1.52,4.933,4.933,0,1,0-.785,2.645l7.043,2.073A8.736,8.736,0,0,0,16,13.51a8.56,8.56,0,0,0,.79,3.583l-2.6,1.514h0a4.887,4.887,0,0,0-4.33-2.643,4.982,4.982,0,0,0-.989.1,4.913,4.913,0,1,0,5.9,4.809,4.843,4.843,0,0,0-.135-1.105l2.743-1.595h0a8.589,8.589,0,0,0,15.125-1.325h0l5.732,1.638a4.9,4.9,0,0,0,3.581,5.926c.061.015.124.03.186.042a4.908,4.908,0,1,0,0-9.617,4.754,4.754,0,0,0-3.313,2.5l-5.8-1.656a8.439,8.439,0,0,0-.533-5.819l2.2-1.541c.021.022.036.048.058.069A4.906,4.906,0,1,0,38.088.013Z" fill="#177491"/>
    </g>
    <path id="rect13-9-3" d="M12.562,27.5H47.5v20H12.562Z" stroke="#464646" stroke-miterlimit="10" stroke-width="1" fill="url(#linear-gradient-2)"/>
    <path id="path15-5" d="M15.033,29.777l11.648,7.556a6,6,0,0,0,6.451-.065l10.983-7.491" fill="none" stroke="#6e6e6e" stroke-miterlimit="10" stroke-width="1"/>
    <path id="line17-6" d="M26.737,37.4l-11.7,6.884" fill="none" stroke="#6e6e6e" stroke-miterlimit="10" stroke-width="1"/>
    <path id="line19-5" d="M44.115,44.286,33.009,37.419" fill="none" stroke="#6e6e6e" stroke-miterlimit="10" stroke-width="1"/>
  </g>
</svg>
