<svg id="Layer_1" data-name="Layer 1" xmlns="http://www.w3.org/2000/svg" xmlns:xlink="http://www.w3.org/1999/xlink" viewBox="0 0 48 48">
  <defs>
    <linearGradient id="linear-gradient" x1="60.411" y1="-25.805" x2="84.875" y2="-50.27" gradientTransform="matrix(0.875, 0, 0, -0.875, -35.125, -2.627)" gradientUnits="userSpaceOnUse">
      <stop offset="0" stop-color="#73b4c8"/>
      <stop offset="0.175" stop-color="#6aaec3"/>
      <stop offset="0.457" stop-color="#529eb5"/>
      <stop offset="0.809" stop-color="#2c839f"/>
      <stop offset="1" stop-color="#147391"/>
    </linearGradient>
    <linearGradient id="linear-gradient-2" x1="50.206" y1="-9.169" x2="61.079" y2="-20.042" gradientTransform="matrix(0.875, 0, 0, -0.875, -35.125, -2.627)" gradientUnits="userSpaceOnUse">
      <stop offset="0" stop-color="#fff"/>
      <stop offset="1" stop-color="#bebebe"/>
    </linearGradient>
    <linearGradient id="linear-gradient-3" x1="67.205" y1="-6.168" x2="78.08" y2="-17.041" xlink:href="#linear-gradient-2"/>
    <linearGradient id="linear-gradient-4" x1="43.411" y1="-28.805" x2="67.875" y2="-53.27" xlink:href="#linear-gradient"/>
    <linearGradient id="linear-gradient-5" x1="31.695" y1="872.589" x2="56.227" y2="893.256" gradientTransform="translate(-30.661 -1129.804) scale(1.438 1.324)" gradientUnits="userSpaceOnUse">
      <stop offset="0" stop-color="#f3f3f3"/>
      <stop offset="0.5" stop-color="#cdcccc"/>
      <stop offset="0.63" stop-color="#c8c7c7"/>
      <stop offset="0.779" stop-color="#bababa"/>
      <stop offset="0.938" stop-color="#a2a2a1"/>
      <stop offset="0.99" stop-color="#989898"/>
    </linearGradient>
  </defs>
  <g id="g895">
    <path id="path20" d="M41.563,38.938V25.609a8.714,8.714,0,0,0-5.257-7.671,13.62,13.62,0,0,1-7.869,2.625,13.62,13.62,0,0,1-7.868-2.625,8.712,8.712,0,0,0-5.257,7.671V38.938Z" stroke="#464646" stroke-miterlimit="10" stroke-width="0.875" fill="url(#linear-gradient)"/>
    <path id="line22" d="M35.438,38.5V28" fill="none" stroke="#147391" stroke-miterlimit="10" stroke-width="0.875"/>
    <path id="path24" d="M19.688,9.571c0,3.594-2.743,8.367-6.125,8.367S7.437,13.165,7.437,9.572a6.327,6.327,0,0,1,6.126-6.508A6.326,6.326,0,0,1,19.688,9.571Z" stroke="#464646" stroke-miterlimit="10" stroke-width="0.875" fill="url(#linear-gradient-2)"/>
    <path id="path26" d="M34.563,6.946c0,3.594-2.743,8.368-6.125,8.368s-6.125-4.774-6.125-8.367A6.324,6.324,0,0,1,28.438.438,6.326,6.326,0,0,1,34.563,6.946Z" stroke="#464646" stroke-miterlimit="10" stroke-width="0.875" fill="url(#linear-gradient-3)"/>
    <path id="path28" d="M26.688,41.563V28.234a8.714,8.714,0,0,0-5.257-7.671,13.62,13.62,0,0,1-7.868,2.625,13.62,13.62,0,0,1-7.869-2.625A8.712,8.712,0,0,0,.437,28.234V41.563Z" stroke="#464646" stroke-miterlimit="10" stroke-width="0.875" fill="url(#linear-gradient-4)"/>
    <path id="line30" d="M6.562,41.125v-10.5" fill="none" stroke="#147391" stroke-linejoin="round" stroke-width="0.875"/>
    <path id="line32" d="M20.563,41.125v-10.5" fill="none" stroke="#147391" stroke-linejoin="round" stroke-width="0.875"/>
    <path id="rect13-9-3" d="M13.38,27.837H47.62V47.62H13.38Z" stroke="#474747" stroke-miterlimit="10" stroke-width="0.761" fill="url(#linear-gradient-5)"/>
    <path id="path15-5" d="M15.8,30.088l11.416,7.475A5.833,5.833,0,0,0,33.54,37.5l10.765-7.41" fill="none" stroke="#6f6f6f" stroke-miterlimit="10" stroke-width="0.761"/>
    <path id="line17-6" d="M27.273,37.632,15.8,44.441" fill="none" stroke="#6f6f6f" stroke-miterlimit="10" stroke-width="0.761"/>
    <path id="line19-5" d="M44.306,44.441,33.42,37.648" fill="none" stroke="#6f6f6f" stroke-miterlimit="10" stroke-width="0.761"/>
  </g>
</svg>
