<svg id="svg53" xmlns="http://www.w3.org/2000/svg" xmlns:xlink="http://www.w3.org/1999/xlink" viewBox="0 0 48 48">
  <defs>
    <linearGradient id="linear-gradient" x1="0.162" y1="35.265" x2="23.288" y2="17.977" gradientTransform="matrix(1, 0, 0, -1, 13.017, 48.983)" gradientUnits="userSpaceOnUse">
      <stop offset="0" stop-color="#fff"/>
      <stop offset="0.221" stop-color="#f8f8f8"/>
      <stop offset="0.541" stop-color="#e5e5e5"/>
      <stop offset="0.92" stop-color="#c6c6c6"/>
      <stop offset="1" stop-color="#bebebe"/>
    </linearGradient>
    <linearGradient id="linear-gradient-2" x1="15.574" y1="22.423" x2="30.423" y2="7.574" gradientTransform="matrix(1, 0, 0, -1, 13.017, 48.983)" gradientUnits="userSpaceOnUse">
      <stop offset="0" stop-color="#a5cfdc"/>
      <stop offset="0.128" stop-color="#9cc9d7"/>
      <stop offset="0.335" stop-color="#84bacb"/>
      <stop offset="0.596" stop-color="#5ea2b7"/>
      <stop offset="0.896" stop-color="#28809b"/>
      <stop offset="1" stop-color="#147391"/>
    </linearGradient>
    <linearGradient id="linear-gradient-3" x1="16.195" y1="23.029" x2="29.935" y2="9.289" xlink:href="#linear-gradient"/>
  </defs>
  <g id="g852">
    <path id="path43-2" d="M14.523,40.927l2.618-2.618-2.255-.129a6.238,6.238,0,0,1-6.1-6.1L8.618,20.872H11.43L11.6,32.08a3.379,3.379,0,0,0,3.285,3.283l2.259.135L14.523,32.88l1.988-1.988L22.523,36.9l-6.012,6.012Z" fill="#3c91af"/>
    <path id="path45-8" d="M11,21.121l.1,11.029A3.794,3.794,0,0,0,14.847,35.9l3.425.067L15.186,32.88l1.325-1.326,5.35,5.349-5.35,5.35-1.325-1.326,3.087-3.086-3.425-.068A5.67,5.67,0,0,1,9.224,32.15l-.1-11.029H11m.937-.938H8.186v.938l.1,11.029a6.736,6.736,0,0,0,6.561,6.561l1.163.069-1.487,1.487-.662.662.662.663,1.326,1.325.662.663.663-.663,5.349-5.349.663-.665-.663-.662-5.349-5.349-.663-.663-.662.663-1.326,1.325-.662.663.662.662,1.487,1.487-1.162-.068a2.876,2.876,0,0,1-2.812-2.811l-.1-11.029Z" fill="#147391"/>
    <path id="polygon38" d="M1.733,27.737H31.605V4.916H27.617V15.175L14.488,10.937v1.936L27.617,17.08v2.7l-25.9-8.364v1.915l12.771,4.116V20.14L1.733,16.022Z" fill="url(#linear-gradient)"/>
    <path id="path40" d="M32.1,28.237H1.233v-12.9l12.755,4.115V17.808L1.217,13.692V10.726l25.9,8.37V17.445L13.988,13.238V10.25l13.129,4.238V4.416h4.991Zm-29.872-1H31.105V5.416H28.117V15.862L14.988,11.624v.884l13.129,4.208v3.756L2.217,12.1v.862l12.771,4.116v3.744L2.233,16.709Z" fill="#474647"/>
    <path id="path86" d="M36.017,23.483a10.5,10.5,0,1,0,10.5,10.5h0A10.513,10.513,0,0,0,36.017,23.483Z" fill="url(#linear-gradient-2)"/>
    <path id="path88" d="M31.972,36.162l1.452,1.371s.524.161,1.411.524a.816.816,0,0,1,.428,1.072.8.8,0,0,1-.1.178l-.524,1.331-1.613.4-.565.968h-.807l-.2-1.815-1.169-.524-.887-1.9.8-1.4Zm9.5-11.134-.91,1.174.565,1.613-1.048.161-.2,1.048-.968.242V30.6h1.532l.766-.968h1.048L42.5,31h1.008l.925.683-.927,1.048H41.811l-.968-.968H38.907A3.145,3.145,0,0,0,37.778,33.5c0,.806.484,1.935,3.387,1.774v3.387l.242.686a.982.982,0,0,0,1.129.282,14.562,14.562,0,0,0,1.29-.806l1.008-2.9,1.621-.822a10.45,10.45,0,0,0-4.984-10.07Zm-15.817,7.34h.027l1.21.887.325,1.128.847.6.444.081v-2.33H30l1.169-2.258,2.782-.847-.6-1.452-2.634-.927.847-.645,1.411-.444,1.9.443s.608.239.568-.568a1.6,1.6,0,0,0-.212-.965l1.089-1.532-.015-.042c-.088,0-.188-.014-.288-.014a10.507,10.507,0,0,0-10.363,8.885Z" stroke="#147391" stroke-linejoin="round" fill="url(#linear-gradient-3)"/>
    <path id="path90" d="M36.017,23.483a10.5,10.5,0,1,0,10.5,10.5h0A10.513,10.513,0,0,0,36.017,23.483Z" fill="none" stroke="#464646" stroke-miterlimit="10"/>
  </g>
</svg>
