<?xml version="1.0" encoding="UTF-8" standalone="no"?>
<svg
   xmlns:dc="http://purl.org/dc/elements/1.1/"
   xmlns:cc="http://creativecommons.org/ns#"
   xmlns:rdf="http://www.w3.org/1999/02/22-rdf-syntax-ns#"
   xmlns:svg="http://www.w3.org/2000/svg"
   xmlns="http://www.w3.org/2000/svg"
   xmlns:sodipodi="http://sodipodi.sourceforge.net/DTD/sodipodi-0.dtd"
   xmlns:inkscape="http://www.inkscape.org/namespaces/inkscape"
   id="Livello_3"
   data-name="Livello 3"
   viewBox="0 0 48 48"
   version="1.1"
   sodipodi:docname="typeMailTag48.svg"
   inkscape:version="0.92.4 (5da689c313, 2019-01-14)">
  <metadata
     id="metadata44">
    <rdf:RDF>
      <cc:Work
         rdf:about="">
        <dc:format>image/svg+xml</dc:format>
        <dc:type
           rdf:resource="http://purl.org/dc/dcmitype/StillImage" />
        <dc:title></dc:title>
      </cc:Work>
    </rdf:RDF>
  </metadata>
  <sodipodi:namedview
     pagecolor="#ffffff"
     bordercolor="#666666"
     borderopacity="1"
     objecttolerance="10"
     gridtolerance="10"
     guidetolerance="10"
     inkscape:pageopacity="0"
     inkscape:pageshadow="2"
     inkscape:window-width="763"
     inkscape:window-height="480"
     id="namedview42"
     showgrid="false"
     inkscape:zoom="4.9166667"
     inkscape:cx="-3.8644068"
     inkscape:cy="24"
     inkscape:window-x="0"
     inkscape:window-y="0"
     inkscape:window-maximized="0"
     inkscape:current-layer="Livello_3" />
  <defs
     id="defs26">
    <linearGradient
       id="linear-gradient"
       x1="-15.045"
       y1="805.589"
       x2="9.487"
       y2="826.256"
       gradientTransform="translate(31.431 -1403.87) scale(1.89 1.74)"
       gradientUnits="userSpaceOnUse">
      <stop
         offset="0"
         stop-color="#f3f3f3"
         id="stop2" />
      <stop
         offset="0.5"
         stop-color="#cdcccc"
         id="stop4" />
      <stop
         offset="0.63"
         stop-color="#c8c7c7"
         id="stop6" />
      <stop
         offset="0.779"
         stop-color="#bababa"
         id="stop8" />
      <stop
         offset="0.938"
         stop-color="#a2a2a1"
         id="stop10" />
      <stop
         offset="0.99"
         stop-color="#989898"
         id="stop12" />
    </linearGradient>
    <linearGradient
       id="linear-gradient-2"
       x1="44.392"
       y1="772.122"
       x2="59.916"
       y2="760.381"
       gradientTransform="translate(0 -744)"
       gradientUnits="userSpaceOnUse">
      <stop
         offset="0"
         stop-color="#73b4c8"
         id="stop15" />
      <stop
         offset="0.175"
         stop-color="#6aaec3"
         id="stop17" />
      <stop
         offset="0.457"
         stop-color="#529eb5"
         id="stop19" />
      <stop
         offset="0.809"
         stop-color="#2c839f"
         id="stop21" />
      <stop
         offset="1"
         stop-color="#147391"
         id="stop23" />
    </linearGradient>
  </defs>
  <g
     id="g865">
    <path
       id="rect13-9-3"
       d="M1,1H46V27H1Z"
       stroke="#474747"
       stroke-miterlimit="10"
       fill="url(#linear-gradient)" />
    <path
       id="path15-5"
       d="M4.183,3.959l15,9.824A7.667,7.667,0,0,0,27.5,13.7L41.644,3.959"
       fill="none"
       stroke="#6f6f6f"
       stroke-miterlimit="10" />
    <path
       id="line17-6"
       d="M19.259,13.873,4.183,22.822"
       fill="none"
       stroke="#6f6f6f"
       stroke-miterlimit="10" />
    <path
       id="line19-5"
       d="M41.645,22.822,27.338,13.9"
       fill="none"
       stroke="#6f6f6f"
       stroke-miterlimit="10" />
    <path
       id="path933"
       d="M41.571,43.551c1.676-1.729,3.636-3.564,4.185-4.13l1.206-1.2-5.745-6.237L35.264,26.2l-3.67-.2-3.37.171-.99.647-.7.879.158,3.554-.03,3.739,5.667,5.9c3.062,3.187,5.693,5.7,5.779,5.791l.376.2ZM29.906,31.242a1.477,1.477,0,0,1-.522-2.62,1.381,1.381,0,0,1,2.37,1.045,1.406,1.406,0,0,1-.654,1.3C30.59,31.426,30.535,31.426,29.906,31.242Z"
       stroke="#464646"
       stroke-linecap="round"
       stroke-width="0.079"
       fill="url(#linear-gradient-2)" />
    <path
       id="path8"
       d="M38.491,48l9.481-9.755L35.484,25.4h-7.6L26,27.334v7.82Zm8.144-9.755-8.144,8.376L26.951,34.747V27.734l1.318-1.36h6.82Z"
       fill="#464646" />
    <path
       id="rect2"
       d="M42.988,38.632l-6.629-6.821-.672.689,6.629,6.82Z"
       fill="#464646" />
    <path
       id="rect4"
       d="M41.1,40.583l-5.695-5.852-.672.689,5.7,5.853Z"
       fill="#464646" />
    <path
       id="rect6"
       d="M39.2,42.526l-6.628-6.82L31.9,36.4l6.627,6.82Z"
       fill="#464646" />
    <path
       id="path1050"
       d="M29.128,20.847a1.745,1.745,0,1,0,1.745,1.745A1.745,1.745,0,0,0,29.128,20.847Zm0,.962a.769.769,0,0,1,.769.77h0a.768.768,0,0,1-.767.769h0a.768.768,0,0,1-.769-.768h0a.769.769,0,0,1,.768-.77h0Z"
       fill="#464646" />
    <path
       id="path1050-2"
       d="M30.321,28.063a1.745,1.745,0,1,0,1.745,1.745v0A1.744,1.744,0,0,0,30.321,28.063Zm0,.963a.768.768,0,0,1,.768.768h0a.768.768,0,0,1-.767.77h0a.77.77,0,0,1-.77-.768h0a.769.769,0,0,1,.769-.768Z"
       fill="#464646" />
    <path
       id="path914"
       d="M29.149,22.672c-1.4,4.331.894,6.91.906,6.924"
       fill="none"
       stroke="#6e6e6e"
       stroke-linecap="round"
       stroke-width="1.067" />
  </g>
</svg>
