<svg id="Layer_1" data-name="Layer 1" xmlns="http://www.w3.org/2000/svg" xmlns:xlink="http://www.w3.org/1999/xlink" viewBox="0 0 48 48">
  <defs>
    <linearGradient id="linear-gradient" x1="-216.854" y1="-418.571" x2="-207.712" y2="-427.163" gradientTransform="matrix(1.422, 0, 0, -1.413, 327.486, -573.707)" gradientUnits="userSpaceOnUse">
      <stop offset="0" stop-color="#74b3c7"/>
      <stop offset="0.177" stop-color="#6badc2"/>
      <stop offset="0.464" stop-color="#539db4"/>
      <stop offset="0.822" stop-color="#2d839d"/>
      <stop offset="1" stop-color="#177490"/>
    </linearGradient>
    <linearGradient id="linear-gradient-2" x1="-154.834" y1="1285.659" x2="-147.286" y2="1292.556" gradientTransform="translate(204.59 -1675.104) scale(1.313 1.305)" gradientUnits="userSpaceOnUse">
      <stop offset="0" stop-color="#fff"/>
      <stop offset="0.232" stop-color="#fafafa"/>
      <stop offset="0.496" stop-color="#ededed"/>
      <stop offset="0.775" stop-color="#d6d6d6"/>
      <stop offset="1" stop-color="#bebebe"/>
    </linearGradient>
    <linearGradient id="linear-gradient-3" x1="-154.876" y1="1298.748" x2="-147.318" y2="1304.937" xlink:href="#linear-gradient-2"/>
    <linearGradient id="linear-gradient-4" x1="-154.94" y1="1311.201" x2="-147.363" y2="1318.001" xlink:href="#linear-gradient-2"/>
    <linearGradient id="linear-gradient-5" x1="253.083" y1="172.969" x2="272.745" y2="168.467" gradientTransform="matrix(0.717, 0.41, 0.41, -0.717, -229.298, 52.584)" gradientUnits="userSpaceOnUse">
      <stop offset="0" stop-color="#f8f8f9"/>
      <stop offset="0.5" stop-color="#d5d4d4"/>
      <stop offset="0.63" stop-color="#d1cfce"/>
      <stop offset="0.779" stop-color="#c4c1c1"/>
      <stop offset="0.938" stop-color="#aba8a7"/>
      <stop offset="0.99" stop-color="#a29f9d"/>
    </linearGradient>
    <linearGradient id="linear-gradient-6" x1="93.125" y1="-62.576" x2="107.229" y2="-75.58" gradientTransform="matrix(0.826, 0, 0, -0.826, -39.557, -14.051)" xlink:href="#linear-gradient-5"/>
    <linearGradient id="linear-gradient-7" x1="256.503" y1="172.263" x2="263.541" y2="170.432" gradientTransform="matrix(0.717, 0.41, 0.41, -0.717, -229.297, 52.584)" gradientUnits="userSpaceOnUse">
      <stop offset="0" stop-color="#fff"/>
      <stop offset="0.221" stop-color="#f8f8f8"/>
      <stop offset="0.541" stop-color="#e5e5e5"/>
      <stop offset="0.92" stop-color="#c6c6c6"/>
      <stop offset="1" stop-color="#bebebe"/>
    </linearGradient>
    <linearGradient id="linear-gradient-8" x1="94.987" y1="-64.193" x2="99.999" y2="-69.175" gradientTransform="matrix(0.826, 0, 0, -0.826, -39.557, -14.051)" xlink:href="#linear-gradient-7"/>
    <linearGradient id="linear-gradient-9" x1="88.827" y1="-44.354" x2="103.485" y2="-57.797" gradientTransform="matrix(0.826, 0, 0, -0.826, -39.557, -14.051)" xlink:href="#linear-gradient-5"/>
    <linearGradient id="linear-gradient-10" x1="91.672" y1="-47.008" x2="96.774" y2="-51.618" gradientTransform="matrix(0.826, 0, 0, -0.826, -39.557, -14.051)" xlink:href="#linear-gradient-7"/>
  </defs>
  <g id="g899">
    <path id="line53-4-3" d="M0,23.5H2.657" fill="none" stroke="#464646" stroke-miterlimit="10" stroke-width="1.135"/>
    <path id="rect49-8-5" d="M20.632,14.236h9.325V32.765H20.632Z" stroke="#147391" stroke-miterlimit="10" stroke-width="1.211" fill="url(#linear-gradient)"/>
    <path id="polyline57-7-9" d="M8.534,6.807h6.729V40.2H8.349" fill="none" stroke="#464646" stroke-miterlimit="13.533" stroke-width="1.091"/>
    <path id="line55-8-6" d="M6.94,23.5H21.088" fill="none" stroke="#147391" stroke-miterlimit="10" stroke-width="1.128"/>
    <path id="line53-4-9" d="M0,6.654H2.657" fill="none" stroke="#464646" stroke-miterlimit="10" stroke-width="1.135"/>
    <path id="rect43-7-7" d="M2.688.545h6.3V13.072h-6.3Z" stroke="#147391" stroke-miterlimit="10" stroke-width="1.091" fill="url(#linear-gradient-2)"/>
    <path id="line53-4-6" d="M0,40.146H2.657" fill="none" stroke="#464646" stroke-miterlimit="10" stroke-width="1.135"/>
    <path id="rect43-7-1" d="M2.688,17.243h6.3V29.77h-6.3Z" stroke="#147391" stroke-miterlimit="10" stroke-width="1.091" fill="url(#linear-gradient-3)"/>
    <path id="rect43-7-11" d="M2.688,33.928h6.3V46.455h-6.3Z" stroke="#147391" stroke-miterlimit="10" stroke-width="1.091" fill="url(#linear-gradient-4)"/>
    <g id="g872">
      <path id="path28" d="M29.481,39.113l2.46.445.875-1.528-1.63-1.9a.281.281,0,0,1,.02-.4.315.315,0,0,1,.029-.022l2.051-1.424-.462-1.7L30.333,32.4a.281.281,0,0,1-.259-.3l0-.025.439-2.451-1.531-.877-1.89,1.62a.286.286,0,0,1-.4-.045l-.011-.014-1.424-2.052-1.7.462-.188,2.492a.284.284,0,0,1-.3.261l-.032,0-2.46-.444L19.7,32.55l1.629,1.9a.28.28,0,0,1-.021.4l-.028.022L19.23,36.289l.461,1.7,2.488.192a.284.284,0,0,1,.255.309c0,.012,0,.023-.005.034L21.98,41l1.527.874,1.9-1.642a.276.276,0,0,1,.39,0,.326.326,0,0,1,.034.04l1.423,2.052,1.7-.461.192-2.489a.283.283,0,0,1,.305-.258l.029,0Z" stroke="#464646" stroke-linecap="round" stroke-linejoin="round" stroke-width="1.053" fill="url(#linear-gradient-5)"/>
      <path id="path30" d="M45.056,42.113l2.356-.833V39.516l-2.356-.833a.279.279,0,0,1-.164-.385l1.071-2.254-1.243-1.25-2.256,1.073a.282.282,0,0,1-.385-.156l-.833-2.345H39.481l-.834,2.345a.286.286,0,0,1-.384.154L36,34.793l-1.245,1.245c1.747,3.617.831,1.621,1.07,2.255a.283.283,0,0,1-.164.385l-2.356.833v1.761l2.356.834a.28.28,0,0,1,.165.384l-1.071,2.256L36,46l2.253-1.07a.284.284,0,0,1,.385.173l.833,2.368h1.76l.834-2.368a.275.275,0,0,1,.384-.177L44.72,46l1.245-1.245L44.894,42.5A.283.283,0,0,1,45.056,42.113Z" stroke="#464646" stroke-linecap="round" stroke-linejoin="round" stroke-width="1.053" fill="url(#linear-gradient-6)"/>
      <path id="circle36" d="M27.213,33.62a1.924,1.924,0,1,1-2.624.714,1.924,1.924,0,0,1,2.624-.714Z" stroke="#464646" stroke-linecap="round" stroke-miterlimit="10.603" stroke-width="1.053" fill="url(#linear-gradient-7)"/>
      <path id="circle38" d="M42.284,40.42A1.923,1.923,0,1,1,40.361,38.5,1.924,1.924,0,0,1,42.284,40.42Z" stroke="#464646" stroke-linecap="round" stroke-miterlimit="10.603" stroke-width="1.053" fill="url(#linear-gradient-8)"/>
      <path id="path32" d="M41.851,27.365l2.356-.834V24.767l-2.356-.834a.279.279,0,0,1-.177-.353.285.285,0,0,1,.012-.031L42.758,21.3l-1.243-1.25-2.256,1.073a.281.281,0,0,1-.375-.132l-.01-.023-.838-2.345H36.275l-.833,2.345a.286.286,0,0,1-.372.158l-.013,0L32.8,20.044,31.553,21.29l1.071,2.254a.283.283,0,0,1-.14.375l-.024.01-2.356.838v1.761l2.356.833a.281.281,0,0,1,.177.355c0,.01-.008.02-.013.03L31.553,30,32.8,31.25l2.254-1.07a.283.283,0,0,1,.373.144l.011.029.834,2.368h1.76l.833-2.368a.277.277,0,0,1,.338-.2.38.38,0,0,1,.047.018l2.269,1.074L42.76,30,41.689,27.75a.282.282,0,0,1,.137-.375l.025-.01Z" stroke="#464646" stroke-linecap="round" stroke-linejoin="round" stroke-width="1.053" fill="url(#linear-gradient-9)"/>
      <path id="circle34" d="M39.079,25.671a1.924,1.924,0,1,1-1.923-1.924A1.923,1.923,0,0,1,39.079,25.671Z" stroke="#464646" stroke-linecap="round" stroke-miterlimit="10.603" stroke-width="1.053" fill="url(#linear-gradient-10)"/>
    </g>
  </g>
</svg>
