<svg id="svg68" xmlns="http://www.w3.org/2000/svg" xmlns:xlink="http://www.w3.org/1999/xlink" viewBox="0 0 48 48">
  <defs>
    <linearGradient id="linear-gradient" x1="30.543" y1="782.73" x2="69.543" y2="821.73" gradientTransform="translate(-23.417 -715.403) scale(0.917)" gradientUnits="userSpaceOnUse">
      <stop offset="0" stop-color="#fff"/>
      <stop offset="1" stop-color="#dcdcdc"/>
    </linearGradient>
    <linearGradient id="linear-gradient-2" x1="163.549" y1="974.549" x2="180.549" y2="991.549" gradientTransform="translate(-74.208 -592.355) scale(0.645)" gradientUnits="userSpaceOnUse">
      <stop offset="0" stop-color="#f2f2f2"/>
      <stop offset="0.5" stop-color="#ccc"/>
      <stop offset="0.63" stop-color="#c7c7c7"/>
      <stop offset="0.779" stop-color="#b9b9b9"/>
      <stop offset="0.938" stop-color="#a2a2a2"/>
      <stop offset="0.99" stop-color="#999"/>
    </linearGradient>
    <linearGradient id="linear-gradient-3" x1="160.031" y1="951.53" x2="184.067" y2="975.567" gradientTransform="translate(-74.208 -592.355) scale(0.645)" gradientUnits="userSpaceOnUse">
      <stop offset="0" stop-color="#73b4c8"/>
      <stop offset="0.175" stop-color="#6aaec3"/>
      <stop offset="0.457" stop-color="#529eb5"/>
      <stop offset="0.809" stop-color="#2c839f"/>
      <stop offset="1" stop-color="#147391"/>
    </linearGradient>
    <linearGradient id="linear-gradient-4" x1="165.124" y1="956.626" x2="178.971" y2="970.472" gradientTransform="translate(-74.208 -592.355) scale(0.645)" gradientUnits="userSpaceOnUse">
      <stop offset="0" stop-color="#cde6eb"/>
      <stop offset="0.221" stop-color="#c6e2e8"/>
      <stop offset="0.542" stop-color="#b3d8e1"/>
      <stop offset="0.921" stop-color="#93c7d5"/>
      <stop offset="1" stop-color="#8cc3d2"/>
    </linearGradient>
  </defs>
  <g id="g912">
    <path id="rect9" d="M.579,2.454l42.842.231v33.9L.579,36.352Z" fill="url(#linear-gradient)"/>
    <path id="path11" d="M43,3.1V36H1V3H43m1-1H0V37H44Z" fill="#6f6e6e"/>
    <path id="line15" d="M4.492,9.948H23.008" fill="none" stroke="#177491"/>
    <path id="line17" d="M4.492,13.341H17.114" fill="none" stroke="#177491"/>
    <path id="path21" d="M30.686,12.42,28.417,9.43l-2.292,2.109,4.536,6.19L38.592,6.87,36.327,4.813" fill="#0e7191"/>
    <path id="polygon23" d="M27.338,11.482l.832-.685,2.567,3.464L36.42,6.54l.825.7L30.737,16.1Z" fill="#3b90b2"/>
    <path id="rect956" d="M4.583,25.014V31.43H11V25.014Zm.917.916h4.583v4.584H5.5Z" fill="#0e7191"/>
    <path id="path974" d="M6.417,26.847l2.75,2.75" fill="none" stroke="#0e7191"/>
    <path id="path974-6" d="M9.167,26.755l-2.75,2.75" fill="none" stroke="#177491"/>
    <path id="rect956-7" d="M22.917,25.014V31.43h6.416V25.014Zm.916.916h4.584v4.584H23.833Z" fill="#177491"/>
    <path id="rect1006" d="M13.75,25.014h6.417V31.43H13.75Z" fill="#177491"/>
    <path id="rect1026" d="M23.43,25.6h2.7v2.619h-2.7Z" fill="#0e7191"/>
    <path id="rect1026-5" d="M26.125,28.216h2.516v2.413H26.125Z" fill="#0e7191"/>
    <path id="rect956-7-4" d="M32.083,25.014V31.43H38.5V25.014ZM33,25.93h4.583v4.584H33Z" fill="#177491"/>
    <path id="rect1026-1" d="M33,25.93h.917v.917H33Z" fill="#177491"/>
    <path id="rect1026-1-3" d="M34.833,25.93h.917v.917h-.917Z" fill="#177491"/>
    <path id="rect1026-1-2" d="M36.667,25.93h.916v.917h-.916Z" fill="#177491"/>
    <path id="rect1026-1-1" d="M33.917,26.847h.916v.917h-.916Z" fill="#177491"/>
    <path id="rect1026-1-3-6" d="M35.75,26.847h.917v.917H35.75Z" fill="#177491"/>
    <path id="rect1026-1-8" d="M33,27.764h.917v.916H33Z" fill="#177491"/>
    <path id="rect1026-1-3-7" d="M34.833,27.764h.917v.916h-.917Z" fill="#177491"/>
    <path id="rect1026-1-2-5" d="M36.667,27.764h.916v.916h-.916Z" fill="#177491"/>
    <path id="rect1026-1-1-8" d="M33.917,28.68h.916V29.6h-.916Z" fill="#177491"/>
    <path id="rect1026-1-3-6-3" d="M35.75,28.68h.917V29.6H35.75Z" fill="#177491"/>
    <path id="rect1026-1-36" d="M33,29.6h.917v.917H33Z" fill="#177491"/>
    <path id="rect1026-1-3-61" d="M34.833,29.6h.917v.917h-.917Z" fill="#177491"/>
    <path id="rect1026-1-2-3" d="M36.667,29.6h.916v.917h-.916Z" fill="#177491"/>
    <path id="polyline38" d="M41.953,36.065V47.677L36.791,44.29,31.63,47.677V36.065" stroke="#464646" stroke-linecap="round" stroke-linejoin="round" stroke-width="0.645" fill="url(#linear-gradient-2)"/>
    <path id="path40" d="M45.918,29.916a.41.41,0,0,0-.054.54l1.472,2.033-2.351.873a.408.408,0,0,0-.258.478l.58,2.441L42.8,36.186a.405.405,0,0,0-.42.344l-.4,2.478L39.7,37.962a.409.409,0,0,0-.516.157l-1.314,2.139-1.707-1.84a.408.408,0,0,0-.54-.053l-2.031,1.47-.874-2.351a.4.4,0,0,0-.478-.258l-2.441.58.094-2.508a.41.41,0,0,0-.345-.419l-2.478-.4L28.119,32.2a.408.408,0,0,0-.157-.516L25.824,30.37l1.84-1.705a.408.408,0,0,0,.053-.54l-1.472-2.033,2.353-.873a.409.409,0,0,0,.258-.478L28.275,22.3l2.51.1a.408.408,0,0,0,.419-.344l.4-2.479,2.281,1.048a.408.408,0,0,0,.516-.158l1.314-2.138,1.707,1.84a.409.409,0,0,0,.539.053l2.033-1.471.873,2.352a.407.407,0,0,0,.478.258l2.442-.581-.095,2.5a.411.411,0,0,0,.344.42l2.479.4-1.048,2.281a.409.409,0,0,0,.157.516l2.139,1.318Z" stroke="#464646" stroke-linecap="round" stroke-linejoin="round" stroke-width="0.645" fill="url(#linear-gradient-3)"/>
    <path id="path42" d="M39.206,35.126a6.316,6.316,0,1,1,3.42-8.252v0a6.317,6.317,0,0,1-3.42,8.248Z" stroke="#147391" stroke-linecap="round" stroke-linejoin="round" stroke-width="0.645" fill="url(#linear-gradient-4)"/>
    <path id="polygon44" d="M33.664,29.575l2.183,1.137,3.5-4.841,1.137.86-3.981,6.825-3.7-2.844Z" fill="#fff" stroke="#147391" stroke-linecap="round" stroke-linejoin="round" stroke-width="0.641"/>
  </g>
</svg>
