<svg id="Layer_1" data-name="Layer 1" xmlns="http://www.w3.org/2000/svg" xmlns:xlink="http://www.w3.org/1999/xlink" viewBox="0 0 48 48">
  <defs>
    <linearGradient id="linear-gradient" x1="31.007" y1="-7.68" x2="68.007" y2="-7.68" gradientTransform="matrix(0.917, 0, 0, -0.917, -27.968, 14.959)" gradientUnits="userSpaceOnUse">
      <stop offset="0" stop-color="#fff"/>
      <stop offset="0.228" stop-color="#fafafa"/>
      <stop offset="0.488" stop-color="#ededed"/>
      <stop offset="0.762" stop-color="#d7d6d6"/>
      <stop offset="1" stop-color="#bdbcbc"/>
    </linearGradient>
    <linearGradient id="linear-gradient-2" x1="31.007" y1="-18.177" x2="68.007" y2="-18.177" gradientTransform="matrix(0.917, 0, 0, -0.917, -27.968, 14.959)" gradientUnits="userSpaceOnUse">
      <stop offset="0" stop-color="#73b4c8"/>
      <stop offset="0.175" stop-color="#6aaec3"/>
      <stop offset="0.457" stop-color="#529eb5"/>
      <stop offset="0.809" stop-color="#2c839f"/>
      <stop offset="1" stop-color="#147391"/>
    </linearGradient>
    <linearGradient id="linear-gradient-3" x1="38.83" y1="-8.677" x2="60.184" y2="-8.677" gradientTransform="matrix(0.917, 0, 0, -0.917, -27.968, 14.959)" gradientUnits="userSpaceOnUse">
      <stop offset="0" stop-color="#cde6eb"/>
      <stop offset="0.221" stop-color="#c6e2e8"/>
      <stop offset="0.542" stop-color="#b3d8e1"/>
      <stop offset="0.921" stop-color="#93c7d5"/>
      <stop offset="1" stop-color="#8cc3d2"/>
    </linearGradient>
    <linearGradient id="linear-gradient-4" x1="366.385" y1="1389.616" x2="389.2" y2="1411.114" gradientTransform="translate(-149.099 -461.923) scale(0.479 0.357)" xlink:href="#linear-gradient"/>
    <linearGradient id="linear-gradient-5" x1="157.543" y1="-314.545" x2="169.814" y2="-328.469" gradientTransform="matrix(0.678, 0, 0, -0.515, -67.556, -126.804)" xlink:href="#linear-gradient-2"/>
  </defs>
  <g id="g879">
    <path id="path860" d="M33.745,27.99c-1.219-1.136-2.214-2.073-2.211-2.08s4.422-4.06,4.437-4.06,1.842,1.728,1.842,1.743-.253.241-.563.523-.562.518-.562.523,4.724,0,4.99,0l.123,0-.561-.515c-.309-.284-.562-.523-.562-.531s.367-.363.814-.788.859-.816.916-.871l.1-.1,2.218,2.034c1.22,1.119,2.22,2.04,2.222,2.046s-.946.9-2.109,1.984-2.16,2.017-2.216,2.072l-.1.1-.9-.837c-.494-.461-.915-.853-.935-.873l-.036-.036.592-.553.591-.552-1.292,0c-.711,0-1.88,0-2.6,0l-1.306,0,.594.553.594.553-.043.042-.865.8-.89.828-.071.066Z" fill="#147391"/>
    <path id="path888" d="M42.069,28.736l-.463-.434.936-.873.936-.873-.457-.015c-.286-.008-1.677-.007-3.7,0-1.783.01-3.467.018-3.742.018s-.509,0-.52.013a11.717,11.717,0,0,0,.89.861c.5.466.913.853.915.86s-.895.859-.914.859-3.465-3.216-3.465-3.234,3.423-3.216,3.456-3.23.931.835.923.854-.421.4-.931.875-.924.866-.921.869.972,0,2.153-.01c2.554-.018,5.956-.022,6.158-.006.106.009.14.007.132-.007s-.422-.4-.924-.87-.913-.858-.913-.864.766-.733.868-.819l.052-.044,1.736,1.621c.954.891,1.733,1.625,1.731,1.631s-.757.712-1.676,1.57l-1.735,1.618-.062.059Z" fill="#fff" stroke="#147391" stroke-width="0.05"/>
    <path id="path35" d="M11.46,6.636v8.027L.622,37.274.6,37.328a1.933,1.933,0,0,0-.142.713c0,3.038,7.594,5.5,16.961,5.5s16.96-2.463,16.96-5.5a1.943,1.943,0,0,0-.183-.825l-.028-.054-10.79-22.5V6.638h0c.581-.336.917-.726.917-1.142V2.75c0-1.266-3.079-2.292-6.876-2.292S10.543,1.484,10.543,2.75h0V5.5c0,.413.327.8.9,1.135Z" fill="url(#linear-gradient)"/>
    <path id="path37" d="M7.755,22.4c.749-1.529,4.79-2.7,9.664-2.7s8.905,1.165,9.661,2.69l7.091,14.782a1.95,1.95,0,0,1,.208.864c0,3.038-7.593,5.5-16.96,5.5S.458,41.079.458,38.041a1.931,1.931,0,0,1,.151-.734Z" fill="url(#linear-gradient-2)"/>
    <path id="path39" d="M24.3,5.5c0-1.266-3.079-2.292-6.876-2.292S10.543,4.235,10.543,5.5" fill="none" stroke="#bbb9b8" stroke-miterlimit="10" stroke-width="0.917"/>
    <path id="path41" d="M11.443,6.628a13.026,13.026,0,0,0,5.976,1.159,13.06,13.06,0,0,0,5.959-1.15" fill="none" stroke="#464646" stroke-miterlimit="10" stroke-width="0.917"/>
    <path id="path43" d="M.458,38.041c0-3.038,7.594-5.5,16.961-5.5s16.96,2.463,16.96,5.5" fill="none" stroke="#147391" stroke-miterlimit="10" stroke-width="0.917"/>
    <path id="ellipse45" d="M27.207,22.914c0,1.772-4.382,3.209-9.788,3.209S7.63,24.686,7.63,22.914,12.013,19.7,17.419,19.7,27.207,21.142,27.207,22.914Z" stroke="#147391" stroke-miterlimit="10" stroke-width="0.917" fill="url(#linear-gradient-3)"/>
    <path id="path47" d="M11.46,6.636v8.027L.622,37.274.6,37.328a1.933,1.933,0,0,0-.142.713c0,3.038,7.594,5.5,16.961,5.5s16.96-2.463,16.96-5.5a1.943,1.943,0,0,0-.183-.825l-.028-.054-10.79-22.5V6.638h0c.581-.336.917-.726.917-1.142V2.75c0-1.266-3.079-2.292-6.876-2.292S10.543,1.484,10.543,2.75h0V5.5c0,.413.327.8.9,1.135Z" fill="none" stroke="#464646" stroke-miterlimit="10" stroke-width="0.917"/>
    <path id="path49" d="M24.3,2.75c0,1.266-3.079,2.292-6.876,2.292S10.543,4.016,10.543,2.75" fill="none" stroke="#464646" stroke-miterlimit="10" stroke-width="0.917"/>
    <path id="rect959" d="M31.028,31.308h5.425a.615.615,0,0,1,.678.521V47.478a.615.615,0,0,1-.678.522H31.028a.616.616,0,0,1-.678-.522V31.829A.615.615,0,0,1,31.028,31.308Z" fill="#464646"/>
    <path id="rect959-9" d="M31.666,32.029h4.149a.578.578,0,0,1,.638.483V46.994a.575.575,0,0,1-.635.484H31.666A.577.577,0,0,1,31.028,47V32.514a.576.576,0,0,1,.636-.485Z" fill="url(#linear-gradient-4)"/>
    <path id="rect959-8" d="M41.878,31.308H47.3a.615.615,0,0,1,.678.521V47.478A.615.615,0,0,1,47.3,48H41.878a.616.616,0,0,1-.678-.522V31.829A.615.615,0,0,1,41.878,31.308Z" fill="#464646"/>
    <path id="rect959-9-0" d="M42.516,32.029h4.149a.578.578,0,0,1,.638.483V46.994a.575.575,0,0,1-.635.484H42.516A.576.576,0,0,1,41.878,47V32.514a.576.576,0,0,1,.635-.485Z" fill="url(#linear-gradient-5)"/>
  </g>
</svg>
