<svg id="svg8" xmlns="http://www.w3.org/2000/svg" xmlns:xlink="http://www.w3.org/1999/xlink" viewBox="0 0 48 48">
  <defs>
    <linearGradient id="linear-gradient" x1="-395.721" y1="-448.365" x2="-394.561" y2="-449.525" gradientTransform="matrix(3.508, 0, 0, -3.508, 1406.883, -1570.311)" gradientUnits="userSpaceOnUse">
      <stop offset="0" stop-color="#73b4c8"/>
      <stop offset="0.175" stop-color="#6aaec3"/>
      <stop offset="0.457" stop-color="#529eb5"/>
      <stop offset="0.809" stop-color="#2c839f"/>
      <stop offset="1" stop-color="#147391"/>
    </linearGradient>
    <linearGradient id="linear-gradient-2" x1="-400.752" y1="-456.964" x2="-390.798" y2="-460.28" gradientTransform="matrix(3.508, 0, 0, -3.508, 1406.883, -1570.311)" gradientUnits="userSpaceOnUse">
      <stop offset="0" stop-color="#fff"/>
      <stop offset="1" stop-color="#bebebe"/>
    </linearGradient>
    <linearGradient id="linear-gradient-3" x1="16.846" y1="37.051" x2="24.175" y2="29.722" gradientTransform="matrix(1, 0, 0, -1, 0.06, 49.977)" xlink:href="#linear-gradient"/>
    <linearGradient id="linear-gradient-4" x1="18.293" y1="30.052" x2="8.896" y2="16.84" gradientTransform="matrix(1, 0, 0, -1, 0.06, 49.977)" gradientUnits="userSpaceOnUse">
      <stop offset="0" stop-color="#afd7e1"/>
      <stop offset="0.159" stop-color="#a4d0dc"/>
      <stop offset="0.706" stop-color="#80bcce"/>
      <stop offset="1" stop-color="#73b4c8"/>
    </linearGradient>
    <linearGradient id="linear-gradient-5" x1="-487.72" y1="1128.817" x2="-482.249" y2="1134.288" gradientTransform="translate(1105.686 -2502.313) scale(2.238)" xlink:href="#linear-gradient"/>
    <linearGradient id="linear-gradient-6" x1="-488.186" y1="1131.946" x2="-481.899" y2="1138.233" gradientTransform="translate(1105.686 -2502.313) scale(2.238)" xlink:href="#linear-gradient"/>
    <linearGradient id="linear-gradient-7" x1="28.549" y1="-719.473" x2="48.426" y2="-740.63" gradientTransform="matrix(1, 0, 0, -1, 0, -694)" xlink:href="#linear-gradient"/>
  </defs>
  <path id="path850" d="M18.467,39.022a37.194,37.194,0,0,1-7.453-1.15A20.842,20.842,0,0,1,8.5,37.1c0-.035,1.153-4.322,1.166-4.337a.561.561,0,0,1,.137.1,7.438,7.438,0,0,0,2.466,1.1,31.966,31.966,0,0,0,5.044.8c.948.079,1.4.1,2.589.115a32.321,32.321,0,0,0,7.814-.76A8.732,8.732,0,0,0,30.64,32.96c.091-.071.174-.119.183-.107s1.012,4.166,1.011,4.215c0,.016-.058.048-.127.071s-.289.1-.488.171a25.75,25.75,0,0,1-2.841.848,37.014,37.014,0,0,1-6.357.866c-.612.032-2.931.03-3.552,0Z" fill="#fff"/>
  <path id="path841" d="M19.294,26.939a26.217,26.217,0,0,1-5.961-.86c-.494-.131-1.426-.409-1.447-.432-.007-.007,2.059-7.236,2.072-7.249a1.583,1.583,0,0,1,.261.074,21.527,21.527,0,0,0,2.448.639,19.341,19.341,0,0,0,4.459.372,22.189,22.189,0,0,0,5.389-.976l.306-.093a36.382,36.382,0,0,1,.95,3.6c.5,1.985.916,3.617.916,3.628a3.291,3.291,0,0,1-.726.223,30.023,30.023,0,0,1-6.639,1.046c-.395.02-1.7.037-2.028.027Z" fill="#fff"/>
  <path id="path843" d="M19.951,14.394a19.623,19.623,0,0,1-3.541-.429c-.26-.056-.529-.117-.6-.135l-.125-.033L16.9,9.574l1.21-4.223.134.061a6.375,6.375,0,0,0,1.251.4A6.323,6.323,0,0,0,23,5.46c.127-.049.233-.089.235-.088s.485,1.894,1.074,4.205,1.074,4.211,1.077,4.223a1.481,1.481,0,0,1-.408.107,23.854,23.854,0,0,1-3.5.461C21.144,14.388,20.223,14.4,19.951,14.394Z" fill="#fff"/>
  <path id="path1132" d="M18.29,5.571c0-.025.107-.659.287-1.558A3.2,3.2,0,0,1,19.5,2.1a1.734,1.734,0,0,1,2.1-.017,1.939,1.939,0,0,1,.957,1.234,14.919,14.919,0,0,1,.371,2.252c-.023.036-4.7-.065-4.74-.065-.011,0,.04.081.04.07Z" fill="url(#linear-gradient)"/>
  <g id="g865">
    <g id="g867">
      <path id="rect828" d="M37.489,34.08a.7.7,0,0,0-.371-.073H31.187l1.752,4.839-25.678.325,1.826-5.176-4.8.038-4.2,9.709,39.151.164-1.651-9.561A.473.473,0,0,0,37.489,34.08Z" fill="#147391" stroke="#147391" stroke-linejoin="round" stroke-width="0.187"/>
    </g>
  </g>
  <path id="rect828-6" d="M36.78,34.624l-5.216-.032.954,5.075L7.935,39.31l1.114-4.686H5.025L1.6,42.905l36.554.135Z" fill="url(#linear-gradient-2)"/>
  <path id="path1122" d="M17.952,3.528,7.492,37.636l.411.144a37.582,37.582,0,0,0,24.366-.036l.4-.143L23.405,3.589l-.541.014.014.9h-.166L31.55,36.964a36.693,36.693,0,0,1-22.914.028L18.607,4.464l-.278-.014.041-.905Z" fill="#147391"/>
  <path id="path855" d="M20.7,1a2.58,2.58,0,0,0-2.042,1.041,3.674,3.674,0,0,0-.589,1.1c-.06.178-.126.362-.177.568-.036.14-.127.427-.186.645l.87.253c.05-.17.149-.464.2-.678.036-.149.093-.307.158-.494a2.722,2.722,0,0,1,.438-.828,1.647,1.647,0,0,1,1.314-.7A1.692,1.692,0,0,1,22,2.647a2.827,2.827,0,0,1,.431.843c.058.178.116.371.166.557.068.256.149.516.17.633l.887-.15a6.78,6.78,0,0,0-.186-.716c-.054-.2-.117-.407-.178-.6A3.756,3.756,0,0,0,22.711,2.1,2.6,2.6,0,0,0,20.7,1Z" fill="#147391"/>
  <path id="path1130" d="M23.192,4.761a6.145,6.145,0,0,1-2.543.644,4.761,4.761,0,0,1-2.494-.637l-.452.808a5.789,5.789,0,0,0,2.939.761,6.678,6.678,0,0,0,2.994-.761Z" fill="#147391"/>
  <path id="rect871" d="M32.119,36.55a1.828,1.828,0,0,1,1.625.032l.035.08-.205.27H32.341Z" fill="#147391"/>
  <path id="rect871-5" d="M8.306,36.539a1.837,1.837,0,0,0-1.629.033l-.034.081.205.27H8.084Z" fill="#147391"/>
  <path id="path860" d="M19.006,18.977a28.053,28.053,0,0,1-4.144-.891l-.338-.1.382-1.287c.21-.707.464-1.586.575-1.948.14-.484.22-.668.289-.668.053,0,.337.055.632.121a24.082,24.082,0,0,0,3.185.441,20.787,20.787,0,0,0,5.3-.436,5.373,5.373,0,0,1,.642-.107c.009.01.249.879.532,1.933A7.5,7.5,0,0,1,26.494,18a22.837,22.837,0,0,1-3.62.865A20.579,20.579,0,0,1,19.006,18.977Z" stroke-linejoin="round" stroke-width="0.008" fill="url(#linear-gradient-3)" stroke="url(#linear-gradient-4)"/>
  <path id="path862" d="M19.021,34.143c-4.017-.165-7.31-.764-8.5-1.547-.159-.1-.289-.228-.289-.278s.392-1.45.871-3.115l.869-3.027.274.088c.616.2,2.109.564,2.918.712a26.772,26.772,0,0,0,5.278.471,26.705,26.705,0,0,0,7.157-.958c.614-.151,1.126-.266,1.137-.253.036.039,1.578,5.915,1.578,6.013,0,.132-.288.371-.675.557a20.227,20.227,0,0,1-6.3,1.246c-.928.067-3.527.122-4.308.093Z" stroke="#4d9ab2" stroke-linejoin="round" stroke-width="0.008" fill="url(#linear-gradient-5)"/>
  <path id="path866" d="M19.32,41.038A46.079,46.079,0,0,1,7.935,39.1c-1.4-.425-1.341-.378-1.341-1.021,0-.8.015-.814.821-.521a38.227,38.227,0,0,0,10.171,2.127,56.555,56.555,0,0,0,6.418-.1,44.157,44.157,0,0,0,8.613-1.912c.69-.239.97-.311,1.021-.26a1.314,1.314,0,0,1,.076.63c0,.674.066.616-1.2,1.056a35.977,35.977,0,0,1-13.2,1.941Z" stroke="#4d9ab2" stroke-linejoin="round" stroke-width="0.008" fill="url(#linear-gradient-6)"/>
  <path id="rect1019" d="M7.293,36.567a1,1,0,0,0-1.028.3,1.317,1.317,0,0,0-.349.9v.788A1.148,1.148,0,0,0,6.3,39.4a1.769,1.769,0,0,0,.706.363c8.7,2.482,17.883,2.869,26.421-.007a1.963,1.963,0,0,0,.686-.356,1.147,1.147,0,0,0,.39-.842V37.77a1.321,1.321,0,0,0-.349-.9,1,1,0,0,0-1.028-.3A40.649,40.649,0,0,1,7.293,36.567Zm-.309.905a41.574,41.574,0,0,0,26.448,0c-.007,0-.038-.018.013.04a.479.479,0,0,1,.1.254v.788c0,.07,0,.065-.062.116a1.227,1.227,0,0,1-.363.178c-8.318,2.8-17.309,2.433-25.86-.007a.958.958,0,0,1-.336-.157c-.056-.051-.061-.058-.061-.13v-.788a.479.479,0,0,1,.1-.254c.051-.057.02-.039.013-.04Z" fill="#147391"/>
  <path id="path857" d="M11.362,25.2,9.293,32.217v.093a1.258,1.258,0,0,0,.431.821,3.127,3.127,0,0,0,.85.535,11.928,11.928,0,0,0,2.617.767,39.325,39.325,0,0,0,7.433.617,34.887,34.887,0,0,0,7.069-.7,9.878,9.878,0,0,0,2.356-.781,2.657,2.657,0,0,0,.742-.541,1.219,1.219,0,0,0,.35-.808v-.066l-1.862-6.919-.459.124a31.194,31.194,0,0,1-8.193,1.267,26.6,26.6,0,0,1-8.794-1.267Zm.657,1.138a28.169,28.169,0,0,0,8.611,1.253,31.413,31.413,0,0,0,7.96-1.221l1.59,5.877c0,.025-.007.054-.083.138a1.955,1.955,0,0,1-.492.349,9.272,9.272,0,0,1-2.117.692,34.126,34.126,0,0,1-6.867.677,38.522,38.522,0,0,1-7.239-.6,11.384,11.384,0,0,1-2.4-.692,2.443,2.443,0,0,1-.6-.371.263.263,0,0,1-.1-.152Z" fill="#147391"/>
  <path id="path874" d="M15.041,13.153l-1.685,5.5.438.131a21.283,21.283,0,0,0,6.855,1.137,22.7,22.7,0,0,0,6.432-1.137l.418-.137L25.985,13.2l-.425.093a24.175,24.175,0,0,1-4.911.613,19.849,19.849,0,0,1-5.18-.637Zm.636,1.061a20.8,20.8,0,0,0,4.981.61,24.261,24.261,0,0,0,4.665-.575l1.041,3.74A21.625,21.625,0,0,1,20.63,19a20.243,20.243,0,0,1-6.106-1.014Z" fill="#147391"/>
  <path id="rect46" d="M29.5,28.5h6v13h-6Z" fill="#3c91af" stroke="#147391"/>
  <path id="rect25" d="M27.5,22.5h20v25h-20Z" stroke="#464646" stroke-miterlimit="10" fill="url(#linear-gradient-7)"/>
  <path id="line29" d="M32,38.5h2" fill="none" stroke="#fff" stroke-miterlimit="10"/>
  <path id="line31" d="M32,44.5h2" fill="none" stroke="#fff" stroke-miterlimit="10"/>
  <path id="line33" d="M32,35.5h2" fill="none" stroke="#fff" stroke-miterlimit="10"/>
  <path id="line35" d="M32,32.5h2" fill="none" stroke="#fff" stroke-miterlimit="10"/>
  <path id="line37" d="M32,29.5h4" fill="none" stroke="#fff" stroke-miterlimit="10"/>
  <path id="line39" d="M32,26.5h2" fill="none" stroke="#fff" stroke-miterlimit="10"/>
  <path id="path53" d="M45.12,45.929H40.672V38.46h1.682v6.1H45.12Z" fill="#fff"/>
  <path id="path58" d="M45.93,31.485H44.242V28.443H41.148v3.042H39.466V24.017h1.682V27h3.094V24.017H45.93Z" fill="#fff"/>
  <path id="path862-8" d="M31.733,35.494,29.87,36.8l-1.863,1.3.008-2.624.007-2.623,1.856,1.32Z" fill="#fff"/>
  <path id="line27" d="M32,41.5h4" fill="none" stroke="#fff" stroke-miterlimit="10"/>
</svg>
