<svg id="Layer_1" data-name="Layer 1" xmlns="http://www.w3.org/2000/svg" xmlns:xlink="http://www.w3.org/1999/xlink" viewBox="0 0 48 48">
  <defs>
    <linearGradient id="linear-gradient" x1="21.612" y1="39.483" x2="48.355" y2="12.524" gradientTransform="matrix(1, 0, 0, -1, 0, 50)" gradientUnits="userSpaceOnUse">
      <stop offset="0" stop-color="#73b4c8"/>
      <stop offset="1" stop-color="#177492"/>
    </linearGradient>
    <linearGradient id="linear-gradient-2" x1="67.049" y1="-767.891" x2="89.774" y2="-795.736" gradientTransform="matrix(0.946, 0, 0, -0.937, -38.845, -697.174)" gradientUnits="userSpaceOnUse">
      <stop offset="0" stop-color="#fff"/>
      <stop offset="0.232" stop-color="#fafafa"/>
      <stop offset="0.496" stop-color="#ededed"/>
      <stop offset="0.775" stop-color="#d6d6d6"/>
      <stop offset="1" stop-color="#bebebe"/>
    </linearGradient>
    <linearGradient id="linear-gradient-3" x1="70.678" y1="812.994" x2="84.839" y2="823.036" gradientTransform="translate(-38.845 -741.826) scale(0.946 0.937)" gradientUnits="userSpaceOnUse">
      <stop offset="0" stop-color="#74b3c7"/>
      <stop offset="0.177" stop-color="#6badc2"/>
      <stop offset="0.464" stop-color="#539db4"/>
      <stop offset="0.822" stop-color="#2d839d"/>
      <stop offset="1" stop-color="#177490"/>
    </linearGradient>
    <linearGradient id="linear-gradient-4" x1="81.068" y1="-766.917" x2="90.711" y2="-775.06" gradientTransform="matrix(0.946, 0, 0, -0.937, -38.845, -697.174)" gradientUnits="userSpaceOnUse">
      <stop offset="0" stop-color="#fff"/>
      <stop offset="0.221" stop-color="#f8f8f8"/>
      <stop offset="0.541" stop-color="#e5e5e5"/>
      <stop offset="0.92" stop-color="#c6c6c6"/>
      <stop offset="1" stop-color="#bebebe"/>
    </linearGradient>
  </defs>
  <g id="g937">
    <g id="g24">
      <path id="path20" d="M9.872,25.16A4.379,4.379,0,0,1,9,25.073a4.23,4.23,0,0,1-1.532-.647,4.368,4.368,0,0,1-.636-.523,4.3,4.3,0,0,1,0-6.075h0a4.318,4.318,0,0,1,.636-.525,4.241,4.241,0,0,1,1.536-.647,4.339,4.339,0,0,1,.865-.087,4.281,4.281,0,0,1,3.79,2.316l.3.568h-.012l.1.442a4.221,4.221,0,0,1,.123.963,4.3,4.3,0,0,1-4.291,4.3Zm33.146-1.227a4.525,4.525,0,0,1-.869-.087,4.258,4.258,0,0,1-1.532-.647,4.368,4.368,0,0,1-.636-.523,4.2,4.2,0,0,1-1.126-4.05L39,18.051l.019.007.234-.436a4.3,4.3,0,0,1,.729-1.02,4.4,4.4,0,0,1,.638-.525,4.244,4.244,0,0,1,1.535-.647,4.436,4.436,0,0,1,.867-.089,4.3,4.3,0,1,1,0,8.592ZM24.6,21.478a7.954,7.954,0,0,1-6.7-3.65l-.318-.491h0l-.233-.506a7.727,7.727,0,0,1-.614-4.644l.088-.536h-.011L17,11.08A7.98,7.98,0,0,1,31.262,9.117l.347.525-.011.007.221.468a7.9,7.9,0,0,1,.764,3.383,8.039,8.039,0,0,1-.267,2.019l-.151.58,1.371.392L32.17,16.1l-.212.5A7.968,7.968,0,0,1,24.6,21.478ZM4.962,11.66a4.448,4.448,0,0,1-.869-.088,4.219,4.219,0,0,1-1.532-.649,4.368,4.368,0,0,1-.636-.523,4.3,4.3,0,0,1,0-6.075h0A4.318,4.318,0,0,1,2.561,3.8,4.244,4.244,0,0,1,4.1,3.153a4.414,4.414,0,0,1,.866-.085,4.3,4.3,0,0,1,4.3,4.3h0a4.266,4.266,0,0,1-.234,1.329l-.2.6h0l-.245.387A4.281,4.281,0,0,1,4.962,11.66ZM38.108,9.205a4.465,4.465,0,0,1-.87-.087,4.23,4.23,0,0,1-1.532-.647,4.422,4.422,0,0,1-.636-.523L34.7,7.58l-.475.223.436-.3-.351-.614a2.459,2.459,0,0,1-.167-.312A4.269,4.269,0,1,1,38.87,9.127,4.254,4.254,0,0,1,38.108,9.205Z" fill="url(#linear-gradient)"/>
      <path id="path22" d="M38.108,1.227a3.682,3.682,0,1,1-.744,7.289,3.663,3.663,0,0,1-1.818-.962l-.031-.039-.052-.054-.286-.3-.255-.449-.08-.139a2.132,2.132,0,0,1-.129-.234,3.683,3.683,0,0,1,1.959-4.825,3.723,3.723,0,0,1,.692-.215,3.871,3.871,0,0,1,.744-.075M4.962,3.682A3.622,3.622,0,0,1,8.441,8.5l-.162.491-.225.347a3.665,3.665,0,0,1-3.092,1.705,3.682,3.682,0,1,1,0-7.364M24.6,6.137A7.354,7.354,0,0,1,30.753,9.45l.269.408.245.517a7.3,7.3,0,0,1,.7,3.125,7.429,7.429,0,0,1-.246,1.864l-.151.578-.178.419a7.366,7.366,0,0,1-12.971,1.133l-.277-.428-.228-.491a7.135,7.135,0,0,1-.568-4.287l.1-.571.144-.453A7.341,7.341,0,0,1,24.6,6.137m18.414,9.818a3.774,3.774,0,1,1-3.56,2.813l.1-.42.236-.438a3.579,3.579,0,0,1,2.483-1.88,3.82,3.82,0,0,1,.739-.075M9.872,17.182a3.668,3.668,0,0,1,3.245,1.987l.239.456.1.412a3.643,3.643,0,0,1-2.672,4.405,3.6,3.6,0,0,1-.907.1,3.726,3.726,0,0,1-.744-.075,3.682,3.682,0,0,1,0-7.214,3.879,3.879,0,0,1,.744-.075M38.108,0a4.984,4.984,0,0,0-.99.1A4.906,4.906,0,0,0,33.583,6.82a4.575,4.575,0,0,0,.272.5L31.777,8.775h0a8.594,8.594,0,0,0-15.359,2.113l-6.811-2h0a4.835,4.835,0,0,0,.265-1.521,4.935,4.935,0,1,0-.785,2.646l7.046,2.073a8.735,8.735,0,0,0-.122,1.417,8.53,8.53,0,0,0,.79,3.584l-2.6,1.515h0a4.861,4.861,0,1,0,.443,1.161l2.744-1.6h0a8.594,8.594,0,0,0,15.132-1.325h0l5.736,1.638a4.9,4.9,0,0,0,3.582,5.928c.062.015.124.029.187.042a4.909,4.909,0,1,0,0-9.62,4.757,4.757,0,0,0-3.315,2.5l-5.8-1.657a8.441,8.441,0,0,0-.533-5.82l2.2-1.542c.021.022.036.048.058.069A4.907,4.907,0,1,0,38.108,0Z" fill="#177491"/>
    </g>
    <path id="polyline35" d="M40.442,20.114H26.325V47.5H47.5V27.106" stroke="#464646" stroke-linecap="round" stroke-miterlimit="10.005" stroke-width="1.001" fill="url(#linear-gradient-2)"/>
    <path id="line37" d="M29.659,29.5H44.365" fill="none" stroke="#6e6e6e" stroke-miterlimit="4.002" stroke-width="1.001"/>
    <path id="line39" d="M29.659,32H44.365" fill="none" stroke="#6e6e6e" stroke-miterlimit="4.002" stroke-width="1.001"/>
    <path id="line41" d="M29.659,34.5H44.365" fill="none" stroke="#6e6e6e" stroke-miterlimit="4.002" stroke-width="1.001"/>
    <path id="line43" d="M29.659,37H44.365" fill="none" stroke="#6e6e6e" stroke-miterlimit="4.002" stroke-width="1.001"/>
    <path id="line45" d="M29.659,39.5H44.365" fill="none" stroke="#6e6e6e" stroke-miterlimit="4.002" stroke-width="1.001"/>
    <path id="line47" d="M29.659,42H44.365" fill="none" stroke="#6e6e6e" stroke-miterlimit="4.002" stroke-width="1.001"/>
    <path id="line49" d="M29.659,44.5H44.365" fill="none" stroke="#6e6e6e" stroke-miterlimit="4.002" stroke-width="1.001"/>
    <path id="polyline51" d="M40.526,26.685H29.967V23.371H40.526" stroke="#147391" stroke-miterlimit="4.002" stroke-width="0.663" fill="url(#linear-gradient-3)"/>
    <path id="polygon53" d="M40.442,20.1V27.1H47.5Z" stroke="#464646" stroke-linejoin="round" stroke-width="1.001" fill="url(#linear-gradient-4)"/>
  </g>
</svg>
