<svg id="Layer_1" data-name="Layer 1" xmlns="http://www.w3.org/2000/svg" xmlns:xlink="http://www.w3.org/1999/xlink" viewBox="0 0 48 48">
  <defs>
    <linearGradient id="linear-gradient" x1="0.5" y1="-692.5" x2="47.5" y2="-739.5" gradientTransform="matrix(1, 0, 0, -1, 0, -692)" gradientUnits="userSpaceOnUse">
      <stop offset="0" stop-color="#fff"/>
      <stop offset="0.232" stop-color="#fafafa"/>
      <stop offset="0.496" stop-color="#ededed"/>
      <stop offset="0.775" stop-color="#d6d6d6"/>
      <stop offset="1" stop-color="#bebebe"/>
    </linearGradient>
    <linearGradient id="linear-gradient-2" x1="34.5" y1="-692.5" x2="47.5" y2="-705.5" gradientTransform="matrix(1, 0, 0, -1, 0, -692)" gradientUnits="userSpaceOnUse">
      <stop offset="0" stop-color="#fff"/>
      <stop offset="0.221" stop-color="#f8f8f8"/>
      <stop offset="0.541" stop-color="#e5e5e5"/>
      <stop offset="0.92" stop-color="#c6c6c6"/>
      <stop offset="1" stop-color="#bebebe"/>
    </linearGradient>
    <linearGradient id="linear-gradient-3" x1="38" y1="-690" x2="50" y2="-702" gradientTransform="matrix(1, 0, 0, -1, 0, -692)" gradientUnits="userSpaceOnUse">
      <stop offset="0" stop-color="#afd7e1"/>
      <stop offset="1" stop-color="#73b4c8"/>
    </linearGradient>
    <linearGradient id="linear-gradient-4" x1="35" y1="-693" x2="47" y2="-705" xlink:href="#linear-gradient-2"/>
    <linearGradient id="linear-gradient-5" x1="22.254" y1="22.47" x2="44.47" y2="2.266" gradientTransform="matrix(1, 0, 0, -1, 0, 50)" gradientUnits="userSpaceOnUse">
      <stop offset="0" stop-color="#73b4c8"/>
      <stop offset="1" stop-color="#177492"/>
    </linearGradient>
  </defs>
  <g id="g878">
    <path id="rect53" d="M.5.5h47v47H.5Z" stroke="#464646" stroke-miterlimit="10" fill="url(#linear-gradient)"/>
    <path id="rect63" d="M34.5.5h13v13h-13Z" fill="url(#linear-gradient-2)"/>
    <path id="polygon65" d="M47,13V1H35Z" fill="url(#linear-gradient-3)"/>
    <path id="line67" d="M35,1,47,13" stroke="#464646" stroke-miterlimit="10" fill="url(#linear-gradient-4)"/>
    <path id="rect69" d="M34.5.5h13v13h-13Z" fill="none" stroke="#464646" stroke-miterlimit="10"/>
    <g id="g24">
      <path id="path20" d="M13.1,39.587a3.643,3.643,0,0,1-.706-.07,3.451,3.451,0,0,1-1.244-.526,3.563,3.563,0,0,1-.517-.425,3.49,3.49,0,0,1,0-4.935h0a3.643,3.643,0,0,1,.517-.427,3.445,3.445,0,0,1,1.247-.525,3.537,3.537,0,0,1,.7-.071,3.478,3.478,0,0,1,3.078,1.881l.241.462h-.01l.083.359a3.388,3.388,0,0,1,.1.783,3.489,3.489,0,0,1-3.485,3.494Zm26.921-1a3.635,3.635,0,0,1-.706-.07,3.448,3.448,0,0,1-1.245-.526,3.5,3.5,0,0,1-.516-.425,3.411,3.411,0,0,1-.914-3.29l.114-.467.015.005.191-.353a3.463,3.463,0,0,1,.592-.829,3.643,3.643,0,0,1,.517-.427,3.5,3.5,0,0,1,1.952-.6,3.49,3.49,0,0,1,0,6.979ZM25.069,36.6a6.461,6.461,0,0,1-5.44-2.965l-.258-.4h0l-.19-.411a6.281,6.281,0,0,1-.5-3.772l.071-.436h-.008l.148-.464a6.481,6.481,0,0,1,11.583-1.6l.281.427-.009.006.18.379a6.426,6.426,0,0,1,.621,2.749,6.544,6.544,0,0,1-.218,1.641l-.122.47,1.113.319-1.109-.318-.172.407A6.473,6.473,0,0,1,25.069,36.6ZM9.116,28.62a3.56,3.56,0,0,1-.706-.071,3.438,3.438,0,0,1-1.244-.527,3.7,3.7,0,0,1-.517-.425,3.489,3.489,0,0,1,0-4.935h0a3.516,3.516,0,0,1,.517-.426,3.447,3.447,0,0,1,1.247-.526,3.6,3.6,0,0,1,.7-.069,3.491,3.491,0,0,1,3.49,3.49h0a3.485,3.485,0,0,1-.19,1.08l-.161.487h0l-.2.315A3.478,3.478,0,0,1,9.116,28.62Zm26.92-1.994a3.626,3.626,0,0,1-.7-.071,3.431,3.431,0,0,1-1.245-.526,3.559,3.559,0,0,1-.516-.424l-.3-.3-.386.181.354-.248-.285-.5a2.053,2.053,0,0,1-.136-.253,3.491,3.491,0,0,1,1.265-4.252,3.445,3.445,0,0,1,1.247-.525,3.489,3.489,0,1,1,.706,6.916Z" fill="url(#linear-gradient-5)"/>
      <path id="path22" d="M36.036,20.145a2.991,2.991,0,1,1-1.672,5.472,3.1,3.1,0,0,1-.408-.332l-.025-.032-.042-.044-.232-.241-.208-.365-.065-.113a1.6,1.6,0,0,1-.1-.19,2.989,2.989,0,0,1,2.756-4.155M9.116,22.139a2.991,2.991,0,0,1,2.991,2.991,2.943,2.943,0,0,1-.165.925l-.132.4-.182.282a2.987,2.987,0,1,1-2.512-4.6m15.953,1.994a5.973,5.973,0,0,1,4.994,2.692l.218.331.2.42a5.916,5.916,0,0,1,.57,2.539,6.044,6.044,0,0,1-.2,1.514l-.123.47-.144.341a5.982,5.982,0,0,1-10.535.92l-.226-.348-.184-.4a5.794,5.794,0,0,1-.462-3.483l.077-.463.118-.368a5.961,5.961,0,0,1,5.7-4.166m14.956,7.976a2.992,2.992,0,0,1,0,5.983,3.056,3.056,0,0,1-.6-.061,2.99,2.99,0,0,1-2.387-2.93,2.9,2.9,0,0,1,.1-.706l.083-.341.191-.356a2.908,2.908,0,0,1,2.017-1.528,3.11,3.11,0,0,1,.6-.061m-26.921,1a2.974,2.974,0,0,1,2.635,1.614l.195.37.077.335A2.961,2.961,0,0,1,13.1,39.089a3.063,3.063,0,0,1-.6-.061,2.991,2.991,0,0,1,0-5.861,3.062,3.062,0,0,1,.6-.06M36.036,19.148a3.988,3.988,0,0,0-3.675,5.54,3.906,3.906,0,0,0,.222.407L30.9,26.277h0A6.98,6.98,0,0,0,18.42,27.993l-5.531-1.628h0A3.93,3.93,0,0,0,13.1,25.13a4.009,4.009,0,1,0-.638,2.15l5.723,1.684a7.155,7.155,0,0,0-.1,1.151,6.941,6.941,0,0,0,.643,2.912l-2.109,1.23h0a3.969,3.969,0,1,0,.388,2.645,3.879,3.879,0,0,0-.028-1.7l2.228-1.3h0A6.98,6.98,0,0,0,31.5,32.827h0l4.658,1.331a3.978,3.978,0,0,0,2.91,4.816c.05.012.1.024.151.034a3.988,3.988,0,1,0,0-7.815,3.863,3.863,0,0,0-2.692,2.033L31.818,31.88a6.857,6.857,0,0,0-.433-4.728L33.174,25.9c.017.018.029.039.047.056a3.985,3.985,0,1,0,2.815-6.808Z" fill="#177491"/>
    </g>
  </g>
</svg>
