<svg id="Layer_1" data-name="Layer 1" xmlns="http://www.w3.org/2000/svg" xmlns:xlink="http://www.w3.org/1999/xlink" viewBox="0 0 48 48">
  <defs>
    <linearGradient id="linear-gradient" x1="25.892" y1="-0.803" x2="42.892" y2="-17.803" gradientTransform="matrix(0.943, 0, 0, -0.943, -15.934, 26.127)" gradientUnits="userSpaceOnUse">
      <stop offset="0" stop-color="#f2f2f2"/>
      <stop offset="0.5" stop-color="#ccc"/>
      <stop offset="0.63" stop-color="#c7c7c7"/>
      <stop offset="0.779" stop-color="#b9b9b9"/>
      <stop offset="0.938" stop-color="#a2a2a2"/>
      <stop offset="0.99" stop-color="#999"/>
    </linearGradient>
    <linearGradient id="linear-gradient-2" x1="22.371" y1="22.219" x2="46.414" y2="-1.824" gradientTransform="matrix(0.943, 0, 0, -0.943, -15.934, 26.127)" gradientUnits="userSpaceOnUse">
      <stop offset="0" stop-color="#73b4c8"/>
      <stop offset="0.175" stop-color="#6aaec3"/>
      <stop offset="0.457" stop-color="#529eb5"/>
      <stop offset="0.809" stop-color="#2c839f"/>
      <stop offset="1" stop-color="#147391"/>
    </linearGradient>
    <linearGradient id="linear-gradient-3" x1="27.466" y1="17.12" x2="41.313" y2="3.273" gradientTransform="matrix(0.943, 0, 0, -0.943, -15.934, 26.127)" gradientUnits="userSpaceOnUse">
      <stop offset="0" stop-color="#cde6eb"/>
      <stop offset="0.221" stop-color="#c6e2e8"/>
      <stop offset="0.542" stop-color="#b3d8e1"/>
      <stop offset="0.921" stop-color="#93c7d5"/>
      <stop offset="1" stop-color="#8cc3d2"/>
    </linearGradient>
    <linearGradient id="linear-gradient-4" x1="202.579" y1="-236.291" x2="228.079" y2="-262.618" gradientTransform="matrix(0.582, 0, 0, -0.582, -97.655, -106.243)" xlink:href="#linear-gradient"/>
    <linearGradient id="linear-gradient-5" x1="198" y1="-213.479" x2="231.936" y2="-246.302" gradientTransform="matrix(0.582, 0, 0, -0.582, -97.655, -106.243)" xlink:href="#linear-gradient-2"/>
    <linearGradient id="linear-gradient-6" x1="212.791" y1="-227.562" x2="226.638" y2="-241.409" gradientTransform="matrix(0.582, 0, 0, -0.582, -97.655, -106.243)" xlink:href="#linear-gradient-3"/>
    <linearGradient id="linear-gradient-7" x1="229.232" y1="-244" x2="246.202" y2="-260.97" gradientTransform="matrix(0.582, 0, 0, -0.582, -97.655, -106.243)" xlink:href="#linear-gradient-2"/>
  </defs>
  <polyline id="polyline38" points="24.054 26.412 24.054 43.391 16.508 38.439 8.961 43.391 8.961 26.412" stroke="#464646" stroke-linecap="round" stroke-linejoin="round" stroke-width="0.943" fill="url(#linear-gradient)"/>
  <path id="path40" d="M29.852,17.423a.6.6,0,0,0-.078.789l2.152,2.973-3.44,1.276a.6.6,0,0,0-.373.7l.852,3.57L25.3,26.591a.588.588,0,0,0-.613.5l-.58,3.623-3.335-1.53a.6.6,0,0,0-.759.229l-1.923,3.128-2.5-2.691a.6.6,0,0,0-.788-.078l-2.971,2.151-1.277-3.44a.592.592,0,0,0-.7-.373l-3.57.851L6.423,25.3a.6.6,0,0,0-.5-.613L2.3,24.1l1.532-3.335a.6.6,0,0,0-.23-.759L.472,18.086l2.69-2.493a.6.6,0,0,0,.079-.79L1.088,11.83l3.44-1.275a.6.6,0,0,0,.373-.7l-.85-3.57,3.668.139a.6.6,0,0,0,.614-.5L8.911,2.3l3.335,1.532a.6.6,0,0,0,.759-.23L14.928.472l2.5,2.69a.6.6,0,0,0,.788.078l2.971-2.151,1.276,3.44a.6.6,0,0,0,.7.374l3.57-.853-.139,3.669a.6.6,0,0,0,.5.613l3.623.58-1.532,3.335a.6.6,0,0,0,.23.759l3.128,1.922Z" stroke="#464646" stroke-linecap="round" stroke-linejoin="round" stroke-width="0.943" fill="url(#linear-gradient-2)"/>
  <path id="path42" d="M20.039,25.04a9.234,9.234,0,1,1,5-12.065l0,.005A9.237,9.237,0,0,1,20.039,25.04Z" stroke="#147391" stroke-linecap="round" stroke-linejoin="round" stroke-width="0.943" fill="url(#linear-gradient-3)"/>
  <polygon id="polygon44" points="10.687 18.587 11.935 16.924 15.127 18.587 20.25 11.508 21.913 12.766 16.092 22.745 10.687 18.587" fill="#fff" stroke="#147391" stroke-linecap="round" stroke-linejoin="round" stroke-width="0.937"/>
  <polyline id="polyline38-9" points="34.766 36.22 34.766 46.688 30.114 43.635 25.462 46.688 25.462 36.22" stroke="#464646" stroke-linecap="round" stroke-linejoin="round" stroke-width="0.88" fill="url(#linear-gradient-4)"/>
  <path id="path40-7" d="M38.341,30.678a.369.369,0,0,0-.049.487L39.619,33l-2.12.786a.369.369,0,0,0-.231.431l.526,2.2-2.262-.086a.364.364,0,0,0-.378.31L34.8,38.874l-2.056-.943a.368.368,0,0,0-.467.141L31.088,40l-1.54-1.658a.367.367,0,0,0-.485-.049l-1.832,1.326-.787-2.12a.365.365,0,0,0-.431-.23l-2.2.524.085-2.261a.369.369,0,0,0-.31-.378L21.353,34.8l.944-2.056a.369.369,0,0,0-.141-.468l-1.927-1.186,1.658-1.537a.367.367,0,0,0,.048-.486l-1.327-1.833,2.121-.787a.366.366,0,0,0,.23-.431l-.524-2.2L24.7,23.9a.369.369,0,0,0,.378-.31l.356-2.234,2.056.944a.368.368,0,0,0,.468-.142l1.185-1.928,1.54,1.659a.368.368,0,0,0,.485.048L33,20.609l.786,2.121a.367.367,0,0,0,.431.23l2.2-.525L36.331,24.7a.368.368,0,0,0,.31.378l2.234.358-.944,2.056a.366.366,0,0,0,.141.467L40,29.141Z" stroke="#464646" stroke-linecap="round" stroke-linejoin="round" stroke-width="0.88" fill="url(#linear-gradient-5)"/>
  <path id="path42-2" d="M32.291,35.374a5.692,5.692,0,1,1,3.081-7.437v0A5.693,5.693,0,0,1,32.291,35.374Z" stroke="#147391" stroke-linecap="round" stroke-linejoin="round" stroke-width="0.582" fill="url(#linear-gradient-6)"/>
  <polygon id="polygon44-7" points="29.858 33.959 26.526 31.396 27.295 30.371 29.263 31.396 32.421 27.032 33.446 27.807 29.858 33.959" fill="#fff" stroke="#147391" stroke-linecap="round" stroke-linejoin="round" stroke-width="0.578"/>
  <circle id="circle46-1" cx="40.582" cy="40.582" r="6.978" stroke="#464646" stroke-linecap="round" stroke-linejoin="round" stroke-width="0.88" fill="url(#linear-gradient-7)"/>
  <path id="path48-8" d="M41.686,44.42a.291.291,0,0,1-.291-.291.265.265,0,0,1,.011-.079l.425-1.51L40.6,41.568a.29.29,0,0,1,.169-.518l1.567-.063.544-1.472a.292.292,0,0,1,.373-.172.289.289,0,0,1,.173.172l.544,1.472,1.567.063a.289.289,0,0,1,.279.3.285.285,0,0,1-.11.216l-1.232.972.426,1.51a.291.291,0,0,1-.442.321l-1.3-.871-1.3.871A.29.29,0,0,1,41.686,44.42Z" fill="#fff"/>
  <path id="path50-1" d="M43.152,39.616l.611,1.654,1.762.07-1.384,1.092.477,1.7-1.466-.979-1.466.979.477-1.7L40.779,41.34l1.762-.07.611-1.654m0-.581a.58.58,0,0,0-.545.38L42.13,40.7l-1.374.055a.581.581,0,0,0-.337,1.037l1.079.852-.372,1.323a.581.581,0,0,0,.882.642l1.144-.763,1.143.763a.582.582,0,0,0,.883-.641l-.372-1.324,1.079-.852a.581.581,0,0,0-.337-1.037L44.174,40.7,43.7,39.415a.581.581,0,0,0-.546-.38Z" fill="#147391"/>
  <path id="path52-2" d="M39.478,44.42a.291.291,0,0,1-.162-.049l-1.3-.871-1.3.871a.291.291,0,0,1-.442-.321l.425-1.51-1.232-.972a.29.29,0,0,1,.169-.518l1.568-.063.544-1.472a.291.291,0,0,1,.373-.172.287.287,0,0,1,.172.172l.544,1.472,1.568.063a.29.29,0,0,1,.168.518l-1.231.972.425,1.51a.29.29,0,0,1-.2.359.3.3,0,0,1-.079.011Z" fill="#fff"/>
  <path id="path54-1" d="M38.011,39.616l.611,1.654,1.762.07L39,42.432l.478,1.7-1.467-.979-1.466.979.478-1.7L35.639,41.34l1.761-.07.611-1.654m0-.581a.58.58,0,0,0-.545.38L36.989,40.7l-1.373.055a.582.582,0,0,0-.338,1.038l1.08.851-.373,1.324a.582.582,0,0,0,.883.641l1.143-.763,1.144.763a.582.582,0,0,0,.883-.641l-.373-1.324,1.08-.852a.581.581,0,0,0-.338-1.037L39.034,40.7l-.477-1.289a.58.58,0,0,0-.545-.38Z" fill="#147391"/>
  <path id="path56-5" d="M42.048,40.152a.291.291,0,0,1-.162-.049l-1.3-.871-1.3.871a.291.291,0,0,1-.442-.321l.425-1.51L38.029,37.3a.291.291,0,0,1,.168-.519l1.568-.062.544-1.472a.291.291,0,0,1,.546,0l.543,1.472,1.568.062a.291.291,0,0,1,.169.519l-1.232.972.425,1.51a.292.292,0,0,1-.2.359A.3.3,0,0,1,42.048,40.152Z" fill="#fff"/>
  <path id="path58-3" d="M40.582,35.348,41.193,37l1.761.07L41.57,38.164l.478,1.7-1.466-.979-1.467.979.478-1.7-1.384-1.092L39.971,37l.611-1.654m0-.582a.583.583,0,0,0-.546.38l-.476,1.29-1.374.055a.581.581,0,0,0-.337,1.037l1.079.852L38.556,39.7a.581.581,0,0,0,.882.641l1.144-.764,1.143.764a.582.582,0,0,0,.883-.641l-.373-1.324,1.08-.852a.581.581,0,0,0-.337-1.037L41.6,36.436l-.477-1.29A.581.581,0,0,0,40.582,34.766Z" fill="#147391"/>
</svg>
