<svg id="Layer_1" data-name="Layer 1" xmlns="http://www.w3.org/2000/svg" xmlns:xlink="http://www.w3.org/1999/xlink" viewBox="0 0 48 48">
  <defs>
    <linearGradient id="linear-gradient" x1="27.48" y1="3.098" x2="36.762" y2="12.38" gradientUnits="userSpaceOnUse">
      <stop offset="0" stop-color="#fff"/>
      <stop offset="0.405" stop-color="#f8f8f8"/>
      <stop offset="0.541" stop-color="#e5e5e5"/>
      <stop offset="0.92" stop-color="#c6c6c6"/>
      <stop offset="1" stop-color="#bebebe"/>
    </linearGradient>
    <linearGradient id="linear-gradient-2" x1="15.63" y1="36.546" x2="27.17" y2="29.892" gradientTransform="matrix(1, 0, 0, -1, -0.6, 50)" gradientUnits="userSpaceOnUse">
      <stop offset="0" stop-color="#73b4c8"/>
      <stop offset="0.175" stop-color="#6aaec3"/>
      <stop offset="0.457" stop-color="#529eb5"/>
      <stop offset="0.809" stop-color="#2c839f"/>
      <stop offset="1" stop-color="#147391"/>
    </linearGradient>
    <linearGradient id="linear-gradient-3" x1="15.089" y1="37.987" x2="23.202" y2="28.124" gradientTransform="matrix(1, 0, 0, -1, -0.531, 50.044)" xlink:href="#linear-gradient-2"/>
  </defs>
  <g id="g914">
    <g id="g1288">
      <path id="rect995" d="M28.808,14.837l3.959.408a1.071,1.071,0,0,1,1.024,1.22l-.249,1.4c-.107.606-.952,1.4-1.413.969a3.134,3.134,0,0,0-3.959-.408c-.608.3-1.133-.614-1.025-1.22l.249-1.4A1.28,1.28,0,0,1,28.808,14.837Z" fill="#a0a0a0" stroke="#464646" stroke-width="1"/>
      <path id="path877-7" d="M31.4,16c2.59-.614,3.945-.2,7.94-.85l.555-.1s1.344.375,1.993.627a3,3,0,0,1,.849.4,10.817,10.817,0,0,1,1.21,1.111c.566.487,2.066,1.324,2.746-.071a8.408,8.408,0,0,0,.667-3.224,13.26,13.26,0,0,0-.58-5.577c-.157-.392-.376-.865-.776-1-.69-.236-1.185.514-2.119.55a3.974,3.974,0,0,1-.8-.069,7.231,7.231,0,0,1-.765-.228s-.373-.112-.563-.158c-.29-.07-.583-.128-.876-.179-.406-.07-.813-.132-1.223-.175-1.362-.143-2.733-.175-4.1-.276-1.309-.1-2.627-.115-3.924-.314a17.824,17.824,0,0,1-4.426-1.01l1.163,3.715-.411,6.775-.519,1.546A31.608,31.608,0,0,1,31.4,16Z" stroke="#464646" stroke-width="1" fill="url(#linear-gradient)"/>
      <path id="path1221" d="M43.668,8.009c.938,3.7.8,6.323-3.579,6.992l.025-.23" fill="none" stroke="#464646" stroke-width="1"/>
    </g>
    <path id="path978" d="M8.8,20.506c-.6.693-.927,2.737-1.087,3.637l15.62,3.585c.333.14,7.052-14.279,5.614-20.383-.4-1.7-4.273-2.873-4.273-2.873L21.1,23.068A24.881,24.881,0,0,0,8.8,20.506Z" stroke="#464646" fill="url(#linear-gradient-2)"/>
    <path id="rect954" d="M16.885,4.641C21.7,2.409,26.368,4.4,27.064,7.2a5.979,5.979,0,0,1,.086,1.87c-.31,5.31-2.054,10.183-4.072,14.968a1.175,1.175,0,0,1-1.529.733C18.3,23.3,11.7,23.386,8.063,24.217c-.568.129-.6.332.068-2.229,1.229-4.692,3.087-11.17,5.977-14.98A9.536,9.536,0,0,1,15.774,5.36C16.264,5,16.885,4.641,16.885,4.641Z" stroke="#6e6e6e" fill="url(#linear-gradient-3)"/>
    <path id="rect951" d="M8.991,23.445c2.435-.474,9.651-.713,13.109.742a1.427,1.427,0,0,1,1.007,1.378l-.016,1.78c-.006.619.578.44.06.454-5.733.16-10.417-.074-13.157-.133-.757-.017-2.8-.036-2.644-1.267l.215-1.693A1.68,1.68,0,0,1,8.991,23.445Z" fill="#a0a0a0" stroke="#464646" stroke-width="1.004"/>
    <path id="path1243" d="M10.458,25.383a.7.7,0,0,1-.726.672h0a.7.7,0,0,1-.672-.726h0a.7.7,0,0,1,.726-.673h0a.7.7,0,0,1,.672.727Z" fill="#3489a4"/>
    <path id="path1243-8" d="M12.644,25.468a.7.7,0,0,1-.726.672h0a.7.7,0,0,1-.673-.726h0a.7.7,0,0,1,.727-.673h0a.7.7,0,0,1,.672.727Z" fill="#3489a4"/>
    <path id="path1243-84" d="M14.83,25.553a.7.7,0,0,1-.726.672h0a.7.7,0,0,1-.673-.727h0a.7.7,0,0,1,.727-.672h0a.7.7,0,0,1,.672.727Z" fill="#3489a4"/>
    <path id="path1243-3" d="M16.985,25.636a.7.7,0,0,1-.727.673h0a.7.7,0,0,1-.672-.727h0a.7.7,0,0,1,.727-.672h0a.7.7,0,0,1,.672.726Z" fill="#3489a4"/>
    <path id="path1243-30" d="M19.264,25.725a.7.7,0,0,1-.726.672h0a.7.7,0,0,1-.673-.726h0A.7.7,0,0,1,18.592,25h0a.7.7,0,0,1,.672.727Z" fill="#3489a4"/>
    <path id="path1243-6" d="M21.419,25.809a.7.7,0,0,1-.727.672h0a.7.7,0,0,1-.672-.727h0a.7.7,0,0,1,.727-.672h0a.7.7,0,0,1,.672.727Z" fill="#3489a4"/>
    <path id="path841-7" d="M11.254,38.964H9.812l-3.3,6.087H7.958Z" fill="#464646"/>
    <path id="path839" d="M12.459,38.964h-.481l-3.3,6.087h.481Z" fill="#464646"/>
    <path id="path837" d="M14.143,38.964h-.48l-3.3,6.087h.48Z" fill="#464646"/>
    <path id="path835" d="M16.069,38.964h-.963l-3.3,6.087h.961Z" fill="#464646"/>
    <path id="path833" d="M17.518,38.964h-.481l-3.3,6.087h.481Z" fill="#464646"/>
    <path id="path827" d="M17.177,45.051h.48l3.3-6.087h-.48Z" fill="#464646"/>
    <path id="path825" d="M18.862,45.051h.484l3.3-6.087h-.48Z" fill="#464646"/>
    <path id="path823" d="M15.993,45.051l3.3-6.087h-.481l-3.3,6.087Z" fill="#464646"/>
    <path id="path821" d="M21.216,45.051l3.3-6.087h-.96l-3.3,6.087Z" fill="#464646"/>
    <path id="rect836" d="M6.685,36.941,2.322,46.875l22.287.022L28.884,37Zm.764.944,19.89.092L23.623,46H3.6Z" fill="#464646"/>
    <path id="path1125" d="M.518,41.413l29.865.093" fill="none" stroke="#3489a4" stroke-opacity="0.781"/>
  </g>
</svg>
