<svg id="Image" xmlns="http://www.w3.org/2000/svg" xmlns:xlink="http://www.w3.org/1999/xlink" viewBox="0 0 48 48">
  <defs>
    <linearGradient id="linear-gradient" x1="0.668" y1="746.209" x2="45.132" y2="784.877" gradientTransform="translate(0 -740)" gradientUnits="userSpaceOnUse">
      <stop offset="0" stop-color="#fff"/>
      <stop offset="0.221" stop-color="#fbfbfc"/>
      <stop offset="0.541" stop-color="#ececec"/>
      <stop offset="0.92" stop-color="#d0cecd"/>
      <stop offset="1" stop-color="#c9c6c5"/>
    </linearGradient>
    <linearGradient id="linear-gradient-2" x1="315.89" y1="1164.984" x2="339.003" y2="1188.097" gradientTransform="translate(-190.057 -731.223) scale(0.645)" gradientUnits="userSpaceOnUse">
      <stop offset="0" stop-color="#73b4c8"/>
      <stop offset="1" stop-color="#177491"/>
    </linearGradient>
    <linearGradient id="linear-gradient-3" x1="323.831" y1="1165.47" x2="331.046" y2="1172.685" gradientTransform="translate(-190.057 -731.223) scale(0.645)" gradientUnits="userSpaceOnUse">
      <stop offset="0" stop-color="#fff"/>
      <stop offset="1" stop-color="#bebdbd"/>
    </linearGradient>
    <linearGradient id="linear-gradient-4" x1="326.178" y1="1177.508" x2="328.707" y2="1180.039" xlink:href="#linear-gradient-3"/>
    <linearGradient id="linear-gradient-5" x1="-339.41" y1="1314.898" x2="-338.594" y2="1315.536" gradientTransform="translate(514.156 -1844.094) scale(1.421)" gradientUnits="userSpaceOnUse">
      <stop offset="0" stop-color="#73b4c8"/>
      <stop offset="0.175" stop-color="#6aaec3"/>
      <stop offset="0.457" stop-color="#529eb5"/>
      <stop offset="0.809" stop-color="#2c839f"/>
      <stop offset="1" stop-color="#147391"/>
    </linearGradient>
    <linearGradient id="linear-gradient-6" x1="-344.499" y1="1323.374" x2="-334.545" y2="1326.689" gradientTransform="translate(514.156 -1844.094) scale(1.421)" gradientUnits="userSpaceOnUse">
      <stop offset="0" stop-color="#fff"/>
      <stop offset="1" stop-color="#bebebe"/>
    </linearGradient>
    <linearGradient id="linear-gradient-7" x1="1058.117" y1="-2074.906" x2="1065.244" y2="-2082.032" gradientTransform="matrix(0.376, 0, 0, -0.376, -366.787, -751.732)" xlink:href="#linear-gradient-5"/>
    <linearGradient id="linear-gradient-8" x1="1055.184" y1="-2086.755" x2="1067.31" y2="-2098.882" gradientTransform="matrix(0.376, 0, 0, -0.376, -366.787, -751.732)" xlink:href="#linear-gradient-5"/>
    <linearGradient id="linear-gradient-9" x1="1054.805" y1="-2095.05" x2="1067.735" y2="-2107.979" gradientTransform="matrix(0.376, 0, 0, -0.376, -366.787, -751.732)" xlink:href="#linear-gradient-5"/>
  </defs>
  <path id="path30" d="M1.5,43h45V10h-27L16.094,4.891A2,2,0,0,0,14.43,4H3.5a2,2,0,0,0-2,2Z" stroke="#4e4a48" stroke-miterlimit="10" fill="url(#linear-gradient)"/>
  <path id="path21" d="M20.069,13.958,10.493,30.547a1.29,1.29,0,0,0,1.117,1.936H30.764a1.291,1.291,0,0,0,1.118-1.936L22.305,13.958a1.292,1.292,0,0,0-1.763-.473A1.308,1.308,0,0,0,20.069,13.958Z" stroke="#177491" stroke-linecap="round" stroke-linejoin="round" stroke-width="0.645" fill="url(#linear-gradient-2)"/>
  <g id="g35">
    <g id="g27">
      <path id="path23" d="M20.03,26.375V19.533a.387.387,0,0,1,.387-.387h1.531a.387.387,0,0,1,.387.387h0v6.842Z" fill="url(#linear-gradient-3)"/>
      <path id="path25" d="M21.953,19.466a.064.064,0,0,1,.064.064h0v6.522H20.353v-6.52a.065.065,0,0,1,.064-.065h1.536m0-.645H20.422a.71.71,0,0,0-.71.71h0V26.7h2.954V19.533a.71.71,0,0,0-.71-.71h0Z" fill="#6f6e6e"/>
    </g>
    <g id="g33">
      <path id="circle29" d="M22.341,29.129a1.154,1.154,0,1,1-1.154-1.154h0A1.156,1.156,0,0,1,22.341,29.129Z" fill="url(#linear-gradient-4)"/>
      <path id="path31" d="M21.187,28.3a.832.832,0,1,1-.834.83h0a.831.831,0,0,1,.833-.829h0m0-.645a1.477,1.477,0,1,0,1.48,1.476,1.477,1.477,0,0,0-1.48-1.476Z" fill="#6f6e6e"/>
    </g>
  </g>
  <path id="path935" d="M31.623,38.811a16.9,16.9,0,0,1-3.219-.477,4.668,4.668,0,0,1-.665-.19c0-.016.451-1.485.458-1.493s.034.011.066.035a8.484,8.484,0,0,0,3.612.684,19.368,19.368,0,0,0,1.987-.043,7.1,7.1,0,0,0,2.648-.608c.058-.037.082-.043.089-.024.026.073.393,1.446.388,1.45s-.754.227-.939.273A16.5,16.5,0,0,1,31.623,38.811Z" fill="#fff" stroke="#fff" stroke-miterlimit="2.361" stroke-width="0.08"/>
  <path id="path937" d="M31.517,33.93c-.329-.026-.831-.094-1.18-.158-.295-.055-1.089-.249-1.141-.279a7.841,7.841,0,0,1,.371-1.32c.22-.717.4-1.307.408-1.312a2.741,2.741,0,0,1,.322.077,8.656,8.656,0,0,0,1.844.3,8.768,8.768,0,0,0,2.825-.372c.041-.012.064.062.4,1.3.2.72.348,1.317.338,1.325a6.792,6.792,0,0,1-.9.221c-.419.084-.818.144-1.284.194A19.119,19.119,0,0,1,31.517,33.93Z" fill="#fff" stroke="#fff" stroke-miterlimit="2.361" stroke-width="0.139"/>
  <path id="path939" d="M31.9,28.774a8.511,8.511,0,0,1-1.219-.2s.876-2.9.913-3c.006-.017.066,0,.191.038a2.147,2.147,0,0,0,.786.127,2.5,2.5,0,0,0,.854-.14,1.231,1.231,0,0,1,.145-.048s.187.681.412,1.508c.235.862.4,1.51.391,1.521a7.83,7.83,0,0,1-.963.16A11.888,11.888,0,0,1,31.9,28.774Z" fill="#fff" stroke="#fff" stroke-miterlimit="2.361" stroke-width="0.139"/>
  <path id="path1132" d="M31.634,25.43c0-.01.043-.266.116-.631a1.293,1.293,0,0,1,.371-.773.7.7,0,0,1,.854-.009.78.78,0,0,1,.388.5,6.121,6.121,0,0,1,.15.913c-.009.014-1.908-.026-1.92-.026s.016.033.016.028Z" fill="url(#linear-gradient-5)"/>
  <g id="g865">
    <g id="g867">
      <path id="rect828" d="M39.412,36.98a.282.282,0,0,0-.151-.029h-2.4l.71,1.959-10.406.132.74-2.1-1.943.016-1.7,3.935,15.861.066-.671-3.873A.187.187,0,0,0,39.412,36.98Z" fill="#147391" stroke="#147391" stroke-linejoin="round" stroke-width="0.076"/>
    </g>
  </g>
  <path id="rect828-6" d="M39.124,37.2l-2.114-.013.386,2.057L27.437,39.1l.451-1.9H26.26l-1.389,3.353,14.809.054Z" fill="url(#linear-gradient-6)"/>
  <path id="path1122" d="M31.5,24.6,27.259,38.42l.167.058a15.218,15.218,0,0,0,9.87-.014l.161-.058L33.705,24.627l-.219.006.006.366h-.067l3.58,13.149a14.864,14.864,0,0,1-9.283.012l4.04-13.178h-.113l.017-.367Z" fill="#147391"/>
  <path id="path855" d="M32.609,23.578a1.049,1.049,0,0,0-.825.422,1.507,1.507,0,0,0-.239.445c-.024.072-.051.146-.071.23-.015.057-.052.173-.076.261l.353.1c.02-.069.061-.188.082-.274.015-.061.038-.125.064-.2a1.125,1.125,0,0,1,.178-.335.665.665,0,0,1,.532-.283.69.69,0,0,1,.531.3,1.128,1.128,0,0,1,.174.342c.024.072.047.15.067.225.028.1.061.209.069.258l.361-.061a2.869,2.869,0,0,0-.075-.29c-.022-.082-.048-.165-.072-.242a1.514,1.514,0,0,0-.234-.451A1.054,1.054,0,0,0,32.609,23.578Z" fill="#147391"/>
  <path id="path1130" d="M33.62,25.1a2.5,2.5,0,0,1-1.032.261,1.924,1.924,0,0,1-1.01-.258l-.183.328a2.342,2.342,0,0,0,1.19.309,2.686,2.686,0,0,0,1.213-.309Z" fill="#147391"/>
  <path id="rect871" d="M37.236,37.981a.743.743,0,0,1,.658.012l.014.033-.083.109h-.5Z" fill="#147391"/>
  <path id="rect871-5" d="M27.589,37.976a.744.744,0,0,0-.66.014l-.014.032.083.11h.5Z" fill="#147391"/>
  <path id="path860" d="M31.9,30.869a11.206,11.206,0,0,1-1.679-.361l-.136-.041.155-.521c.085-.287.188-.643.233-.79.057-.2.089-.27.117-.27q.131.018.258.048a9.653,9.653,0,0,0,1.289.179,8.4,8.4,0,0,0,2.145-.177,2.239,2.239,0,0,1,.258-.043s.1.356.216.784a3.054,3.054,0,0,1,.177.794,9.117,9.117,0,0,1-1.466.35A8.208,8.208,0,0,1,31.9,30.869Z" stroke="#4d9ab2" stroke-linejoin="round" stroke-width="0.004" fill="url(#linear-gradient-7)"/>
  <path id="path862" d="M31.93,37.005a8.668,8.668,0,0,1-3.446-.626c-.064-.043-.117-.093-.117-.113s.159-.587.353-1.262l.352-1.226.111.036c.249.081.854.228,1.182.289a11.446,11.446,0,0,0,5.038-.2,4.01,4.01,0,0,1,.461-.1c0,.008.639,2.4.639,2.436s-.117.15-.273.226a8.205,8.205,0,0,1-2.555.5c-.376.027-1.429.049-1.745.037Z" stroke="#4d9ab2" stroke-linejoin="round" stroke-width="0.004" fill="url(#linear-gradient-8)"/>
  <path id="path866" d="M32.051,39.8a18.66,18.66,0,0,1-4.612-.787c-.568-.172-.544-.155-.544-.413,0-.325.006-.329.333-.21a15.45,15.45,0,0,0,4.12.861,22.781,22.781,0,0,0,2.6-.04,21.421,21.421,0,0,0,3.49-.774c.279-.1.393-.125.412-.1a.519.519,0,0,1,.031.256c0,.272.027.249-.484.427a14.59,14.59,0,0,1-5.347.787Z" stroke="#4d9ab2" stroke-linejoin="round" stroke-width="0.004" fill="url(#linear-gradient-9)"/>
  <path id="rect1019" d="M27.179,37.987a.407.407,0,0,0-.417.123.53.53,0,0,0-.141.363v.319a.464.464,0,0,0,.154.342.72.72,0,0,0,.287.147,17.994,17.994,0,0,0,10.7,0,.838.838,0,0,0,.278-.144A.468.468,0,0,0,38.2,38.8v-.32a.534.534,0,0,0-.142-.364.4.4,0,0,0-.416-.122A16.461,16.461,0,0,1,27.179,37.987Zm-.126.367a16.848,16.848,0,0,0,10.715,0s-.016-.007.006.016a.215.215,0,0,1,.041.1v.319c0,.028,0,.026-.025.047a.5.5,0,0,1-.147.072,17.625,17.625,0,0,1-10.477,0,.386.386,0,0,1-.136-.064c-.023-.02-.025-.023-.025-.052v-.324a.2.2,0,0,1,.042-.1c.021-.023.008-.016.006-.016Z" fill="#147391"/>
  <path id="path857" d="M28.827,33.381l-.838,2.844v.038a.5.5,0,0,0,.175.333,1.255,1.255,0,0,0,.344.216,4.775,4.775,0,0,0,1.06.31,15.911,15.911,0,0,0,3.011.249,14.127,14.127,0,0,0,2.864-.282,4.026,4.026,0,0,0,.955-.316,1.1,1.1,0,0,0,.3-.22.5.5,0,0,0,.142-.327V36.2l-.754-2.8-.186.052a12.609,12.609,0,0,1-3.319.515,10.79,10.79,0,0,1-3.563-.515Zm.266.461a11.4,11.4,0,0,0,3.489.507,12.712,12.712,0,0,0,3.225-.495l.643,2.381c0,.01,0,.022-.033.056a.778.778,0,0,1-.2.141,3.742,3.742,0,0,1-.857.281,13.828,13.828,0,0,1-2.782.274,15.508,15.508,0,0,1-2.933-.244,4.553,4.553,0,0,1-.971-.28.99.99,0,0,1-.244-.15.107.107,0,0,1-.042-.062Z" fill="#147391"/>
  <path id="path874" d="M30.317,28.5l-.682,2.228.177.052a8.626,8.626,0,0,0,2.777.46,9.208,9.208,0,0,0,2.606-.46l.17-.056-.614-2.206-.172.037a9.736,9.736,0,0,1-1.99.248,8.044,8.044,0,0,1-2.1-.257Zm.258.43a8.471,8.471,0,0,0,2.018.247,9.779,9.779,0,0,0,1.89-.233l.421,1.515a8.761,8.761,0,0,1-2.32.413,8.2,8.2,0,0,1-2.476-.413Z" fill="#147391"/>
</svg>
