<svg id="Image" xmlns="http://www.w3.org/2000/svg" xmlns:xlink="http://www.w3.org/1999/xlink" viewBox="0 0 48 48">
  <defs>
    <linearGradient id="linear-gradient" x1="23.998" y1="-699.625" x2="23.998" y2="-691.954" gradientTransform="matrix(1, 0, 0, -1, 0, -690)" gradientUnits="userSpaceOnUse">
      <stop offset="0" stop-color="#c9c6c5"/>
      <stop offset="0.045" stop-color="#cecccc"/>
      <stop offset="0.268" stop-color="#e7e6e6"/>
      <stop offset="0.497" stop-color="#f6f6f7"/>
      <stop offset="0.736" stop-color="#fefefe"/>
      <stop offset="1" stop-color="#fff"/>
    </linearGradient>
    <linearGradient id="linear-gradient-2" x1="6.031" y1="-698.427" x2="41.969" y2="-734.365" gradientTransform="matrix(1, 0, 0, -1, 0, -690)" gradientUnits="userSpaceOnUse">
      <stop offset="0" stop-color="#fff"/>
      <stop offset="0.221" stop-color="#fbfbfc"/>
      <stop offset="0.541" stop-color="#ececec"/>
      <stop offset="0.92" stop-color="#d0cecd"/>
      <stop offset="1" stop-color="#c9c6c5"/>
    </linearGradient>
    <linearGradient id="linear-gradient-3" x1="8.906" y1="-701.302" x2="39.094" y2="-731.49" gradientTransform="matrix(1, 0, 0, -1, 0, -690)" gradientUnits="userSpaceOnUse">
      <stop offset="0" stop-color="#fff"/>
      <stop offset="0.335" stop-color="#fbfbfc"/>
      <stop offset="0.82" stop-color="#ececec"/>
      <stop offset="1" stop-color="#e4e3e4"/>
    </linearGradient>
    <linearGradient id="linear-gradient-4" x1="-30.171" y1="-597.194" x2="-15.91" y2="-606.563" gradientTransform="matrix(0.818, 0, 0, -0.911, 41.167, -532.821)" gradientUnits="userSpaceOnUse">
      <stop offset="0" stop-color="#afd7e1"/>
      <stop offset="0.159" stop-color="#a4d0dc"/>
      <stop offset="0.706" stop-color="#80bcce"/>
      <stop offset="1" stop-color="#73b4c8"/>
    </linearGradient>
    <linearGradient id="linear-gradient-5" x1="145.094" y1="1089.445" x2="162.157" y2="1080.257" gradientTransform="translate(-137.786 -666.665) scale(0.6 0.668)" gradientUnits="userSpaceOnUse">
      <stop offset="0" stop-color="#cee6eb"/>
      <stop offset="0.221" stop-color="#c6e2e8"/>
      <stop offset="0.542" stop-color="#b3d8e1"/>
      <stop offset="0.921" stop-color="#93c7d4"/>
      <stop offset="1" stop-color="#8dc3d2"/>
    </linearGradient>
    <linearGradient id="linear-gradient-6" x1="-138.534" y1="-554.944" x2="-120.86" y2="-565.708" gradientTransform="matrix(0.885, 0, 0, -0.843, 115.991, -454.736)" xlink:href="#linear-gradient-4"/>
  </defs>
  <g id="g909">
    <path id="path37" d="M32.146,5.792a2.5,2.5,0,0,0-1.917-.959H28.792V4.354A3.4,3.4,0,0,0,25.437,1H22.562a3.4,3.4,0,0,0-3.354,3.354v.479H17.771a2.5,2.5,0,0,0-1.917.959H6.75V47h34.5V5.792Z" fill="#4e4a48"/>
    <path id="path39" d="M16.333,9.625H31.667v-2.4a1.473,1.473,0,0,0-1.438-1.437h-2.4V4.354a2.372,2.372,0,0,0-2.344-2.4H22.562A2.372,2.372,0,0,0,20.167,4.3V5.792h-2.4a1.473,1.473,0,0,0-1.438,1.437Z" fill="url(#linear-gradient)"/>
    <path id="circle41" d="M24.958,4.833A.958.958,0,0,1,24,5.791h0a.958.958,0,0,1-.958-.958h0A.958.958,0,0,1,24,3.875h0a.958.958,0,0,1,.958.958Z" fill="#4e4a48"/>
    <path id="path43" d="M32.529,6.75a.859.859,0,0,1,.1.479v3.354H15.375V7.229a.859.859,0,0,1,.1-.479H7.708V46.042H40.292V6.75Z" fill="url(#linear-gradient-2)"/>
    <path id="polygon45" d="M15.375,10.583V8.667H9.625V44.125h28.75V8.667h-5.75v1.916Z" fill="#c9c6c5"/>
    <path id="polygon47" d="M15.375,10.583V9.625H10.583V43.167H37.417V9.625H32.625v.958Z" fill="url(#linear-gradient-3)"/>
    <g id="g948">
      <path id="path1254-0" d="M22.414,20.969c-2.806-.332-5.238-1.895-6.069-3.895a6.377,6.377,0,0,1-.365-2.088V14.67h15.2l-.051.824a4.153,4.153,0,0,1-.641,2.162,7.345,7.345,0,0,1-1.833,1.908A11.8,11.8,0,0,1,26.064,20.7,11.993,11.993,0,0,1,22.414,20.969Z" stroke-miterlimit="7.035" stroke-width="0.118" fill="url(#linear-gradient-4)" stroke="url(#linear-gradient-5)"/>
      <path id="rect818-1" d="M14.8,36.828h2.227V39H14.8Z" fill="#464646"/>
      <path id="rect888-7" d="M22.592,20.537h2.3v2.171h-2.3Z" fill="#464646"/>
      <path id="path1124-0" d="M22.453,20.739a8.855,8.855,0,0,1-5.332-2.283,3.97,3.97,0,0,1-1.246-3.1v-.82H31.383l-.034.977a3.014,3.014,0,0,1-.334,1.631,5.988,5.988,0,0,1-2.252,2.353,11.334,11.334,0,0,1-3.1,1.112A14.008,14.008,0,0,1,22.453,20.739Z" fill="none" stroke="#464646" stroke-miterlimit="7.035" stroke-width="0.801"/>
      <path id="path1183-5-6" d="M15.316,36.588a3.168,3.168,0,0,1-2.3-1.445,2.756,2.756,0,0,1,.046-2.09c.5-1.634,2.369-7.415,2.5-7.75a3.46,3.46,0,0,1,1.6-1.839c.38-.169.457-.18,2.137-.226.959-.027,3.847-.031,6.417-.009,4.646.041,4.675.042,5.03.194a3.57,3.57,0,0,1,1.637,1.78c.174.392,2.614,8.056,2.753,8.643.252,1.055-.468,2.081-1.836,2.621l-.4.157-8.544.009c-4.7,0-8.767-.014-9.04-.043Z" stroke-miterlimit="7.035" stroke-width="0.328" fill="url(#linear-gradient-6)" stroke="url(#linear-gradient-6)"/>
      <path id="path1004-6" d="M23.76,24.723a8.448,8.448,0,0,0-8.53,8.239h1.025a7.487,7.487,0,0,1,14.966,0h1.07A8.448,8.448,0,0,0,23.76,24.723Z" fill="#464646"/>
      <path id="path840-1" d="M23.033,34.98a1.848,1.848,0,0,1-1.225-1.608,1.391,1.391,0,0,1,.1-.718l.123-.365L20.537,30.82l-1.495-1.458.337-.328.337-.33,1.5,1.463,1.5,1.463.275-.105a2.237,2.237,0,0,1,1.41,0,2.019,2.019,0,0,1,1,.924,1.3,1.3,0,0,1,.163.813,1.313,1.313,0,0,1-.14.771,2.092,2.092,0,0,1-.915.892,1.593,1.593,0,0,1-.735.153,1.4,1.4,0,0,1-.736-.1Z" fill="#464646"/>
      <path id="path886-4" d="M25.69,33.248a1.922,1.922,0,0,1-1.969,1.874h0a1.876,1.876,0,1,1,1.973-1.874Z" fill="#464646"/>
      <path id="rect818-5-4" d="M30.6,36.828H32.83V39H30.6Z" fill="#464646"/>
      <path id="path864" d="M24.939,22.425c-2.147-.008-4.413-.006-5.393.011a9.859,9.859,0,0,0-1.987.1,3.578,3.578,0,0,0-1.817,1.11,7.17,7.17,0,0,0-1.258,2.479c-.052.184-.577,1.8-1.167,3.587s-1.12,3.438-1.179,3.664a4.583,4.583,0,0,0-.127.773,2.332,2.332,0,0,0,.788,1.98,4.147,4.147,0,0,0,2.076,1.2,11.125,11.125,0,0,0,2.292.1c2.994.037,5,.038,10.514,0,3.252-.021,5.088-.045,5.228-.07a4.053,4.053,0,0,0,2.23-1.146,2.373,2.373,0,0,0,.854-1.75c.029-.754.034-.744-1.3-4.775-.541-1.634-1.037-3.162-1.107-3.4a7.928,7.928,0,0,0-.9-2.068,3.551,3.551,0,0,0-1.524-1.4,3.134,3.134,0,0,0-1.543-.345C29.112,22.452,27.085,22.433,24.939,22.425Zm2.766.766a25.169,25.169,0,0,1,2.618.093,2.757,2.757,0,0,1,1.607,1.187,6.945,6.945,0,0,1,.88,1.979c.076.265.574,1.794,1.1,3.4s1.032,3.128,1.112,3.389a2.821,2.821,0,0,1,.11,1.706,3.528,3.528,0,0,1-1.211,1.25,3.58,3.58,0,0,1-1.319.452c-.827.086-16.96.055-17.391-.033A3.452,3.452,0,0,1,13.1,35.3a1.553,1.553,0,0,1-.285-1.252,25.314,25.314,0,0,1,1.218-3.987c.548-1.66,1.081-3.3,1.182-3.63a6.819,6.819,0,0,1,1.106-2.264,2.775,2.775,0,0,1,1.417-.869,25.826,25.826,0,0,1,4.094-.106C24.159,23.175,26.2,23.175,27.705,23.191Z" fill="#464646"/>
    </g>
  </g>
</svg>
