<svg id="svg68" xmlns="http://www.w3.org/2000/svg" xmlns:xlink="http://www.w3.org/1999/xlink" viewBox="0 0 48 48">
  <defs>
    <linearGradient id="linear-gradient" x1="220.984" y1="-237.806" x2="245.449" y2="-262.271" gradientTransform="matrix(0.583, 0, 0, -0.583, -117.084, -125.41)" gradientUnits="userSpaceOnUse">
      <stop offset="0" stop-color="#73b4c8"/>
      <stop offset="0.175" stop-color="#6aaec3"/>
      <stop offset="0.457" stop-color="#529eb5"/>
      <stop offset="0.809" stop-color="#2c839f"/>
      <stop offset="1" stop-color="#147391"/>
    </linearGradient>
    <linearGradient id="linear-gradient-2" x1="210.78" y1="-221.17" x2="221.653" y2="-232.043" gradientTransform="matrix(0.583, 0, 0, -0.583, -117.084, -125.41)" gradientUnits="userSpaceOnUse">
      <stop offset="0" stop-color="#fff"/>
      <stop offset="1" stop-color="#bebebe"/>
    </linearGradient>
    <linearGradient id="linear-gradient-3" x1="227.779" y1="-218.169" x2="238.654" y2="-229.042" xlink:href="#linear-gradient-2"/>
    <linearGradient id="linear-gradient-4" x1="203.984" y1="-240.806" x2="228.449" y2="-265.271" xlink:href="#linear-gradient"/>
    <linearGradient id="linear-gradient-5" x1="30.543" y1="872.295" x2="69.543" y2="911.295" gradientTransform="translate(-19.417 -635.197) scale(0.917 0.751)" gradientUnits="userSpaceOnUse">
      <stop offset="0" stop-color="#fff"/>
      <stop offset="1" stop-color="#dcdcdc"/>
    </linearGradient>
  </defs>
  <g id="g950">
    <g id="g901">
      <path id="path20" d="M27.708,25.966V17.081a5.812,5.812,0,0,0-3.5-5.115,9.072,9.072,0,0,1-5.246,1.75,9.072,9.072,0,0,1-5.246-1.75,5.811,5.811,0,0,0-3.5,5.115v8.885Z" stroke="#464646" stroke-miterlimit="5.833" stroke-width="0.583" fill="url(#linear-gradient)"/>
      <path id="line22" d="M23.625,25.675v-7" fill="none" stroke="#147391" stroke-miterlimit="5.833" stroke-width="0.583"/>
      <path id="path24" d="M13.125,6.389c0,2.4-1.828,5.578-4.083,5.578S4.958,8.785,4.958,6.389A4.218,4.218,0,0,1,9.042,2.051,4.217,4.217,0,0,1,13.125,6.389Z" stroke="#464646" stroke-miterlimit="5.833" stroke-width="0.583" fill="url(#linear-gradient-2)"/>
      <path id="path26" d="M23.042,4.639c0,2.4-1.829,5.578-4.084,5.578s-4.083-3.182-4.083-5.578A4.216,4.216,0,0,1,18.958.3,4.218,4.218,0,0,1,23.042,4.639Z" stroke="#464646" stroke-miterlimit="5.833" stroke-width="0.583" fill="url(#linear-gradient-3)"/>
      <path id="path28" d="M17.792,27.716V18.831a5.812,5.812,0,0,0-3.5-5.115,9.075,9.075,0,0,1-5.246,1.75A9.072,9.072,0,0,1,3.8,13.716a5.811,5.811,0,0,0-3.5,5.115v8.885Z" stroke="#464646" stroke-miterlimit="5.833" stroke-width="0.583" fill="url(#linear-gradient-4)"/>
      <path id="line30" d="M4.375,27.425v-7" fill="none" stroke="#147391" stroke-linejoin="round" stroke-width="0.583"/>
      <path id="line32" d="M13.708,27.425v-7" fill="none" stroke="#147391" stroke-linejoin="round" stroke-width="0.583"/>
    </g>
    <path id="rect9" d="M4.579,19.81,47.421,20V47.755L4.579,47.566Z" fill="url(#linear-gradient-5)"/>
    <path id="path11" d="M47,20.1V47H5V20H47m1-1H4V48H48Z" fill="#6f6e6e"/>
    <g id="g19">
      <path id="line15" d="M8.492,27.107H27.008" fill="none" stroke="#177491" stroke-miterlimit="3.667" stroke-width="1"/>
      <path id="line17" d="M8.492,30.5H21.114" fill="none" stroke="#177491" stroke-miterlimit="3.667" stroke-width="1"/>
    </g>
    <path id="rect956" d="M8.583,39.013V45.43H15V39.013Zm.917.917h4.583v4.583H9.5Z" fill="#0e7191"/>
    <path id="path974" d="M10.417,40.847l2.75,2.75" fill="none" stroke="#0e7191"/>
    <path id="path974-6" d="M13.167,40.755l-2.75,2.75" fill="none" stroke="#177491"/>
    <path id="rect956-7" d="M26.917,39.013V45.43h6.416V39.013Zm.916.917h4.584v4.583H27.833Z" fill="#177491"/>
    <path id="rect1006" d="M17.75,39.013h6.417V45.43H17.75Z" fill="#177491"/>
    <path id="rect1026" d="M27.43,39.6h2.7v2.619h-2.7Z" fill="#0e7191"/>
    <path id="rect1026-5" d="M30.125,42.216h2.516v2.413H30.125Z" fill="#0e7191"/>
    <path id="rect956-7-4" d="M36.083,39.013V45.43H42.5V39.013ZM37,39.93h4.583v4.583H37Z" fill="#177491"/>
    <path id="rect1026-1" d="M37,39.93h.917v.917H37Z" fill="#177491"/>
    <path id="rect1026-1-3" d="M38.833,39.93h.917v.917h-.917Z" fill="#177491"/>
    <path id="rect1026-1-2" d="M40.667,39.93h.916v.917h-.916Z" fill="#177491"/>
    <path id="rect1026-1-1" d="M37.917,40.847h.916v.916h-.916Z" fill="#177491"/>
    <path id="rect1026-1-3-6" d="M39.75,40.847h.917v.916H39.75Z" fill="#177491"/>
    <path id="rect1026-1-8" d="M37,41.763h.917v.917H37Z" fill="#177491"/>
    <path id="rect1026-1-3-7" d="M38.833,41.763h.917v.917h-.917Z" fill="#177491"/>
    <path id="rect1026-1-2-5" d="M40.667,41.763h.916v.917h-.916Z" fill="#177491"/>
    <path id="rect1026-1-1-8" d="M37.917,42.68h.916V43.6h-.916Z" fill="#177491"/>
    <path id="rect1026-1-3-6-3" d="M39.75,42.68h.917V43.6H39.75Z" fill="#177491"/>
    <path id="rect1026-1-36" d="M37,43.6h.917v.916H37Z" fill="#177491"/>
    <path id="rect1026-1-3-61" d="M38.833,43.6h.917v.916h-.917Z" fill="#177491"/>
    <path id="rect1026-1-2-3" d="M40.667,43.6h.916v.916h-.916Z" fill="#177491"/>
    <path id="rect913" d="M29.858,33.615,41.132,22.263l2.338,2.318L32.2,35.934Z" fill="#1f7690"/>
    <path id="rect913-9" d="M41.181,35.9,29.828,24.63l2.32-2.338L43.5,33.566Z" fill="#1f7690"/>
    <path id="rect896" d="M31.272,33.61l9.865-9.934.919.91-9.865,9.933Z" fill="#3b90b2"/>
    <path id="rect896-8" d="M41.177,34.49l-9.934-9.865.909-.92,9.934,9.866Z" fill="#3b90b2"/>
  </g>
</svg>
