<svg id="Layer_1" data-name="Layer 1" xmlns="http://www.w3.org/2000/svg" xmlns:xlink="http://www.w3.org/1999/xlink" viewBox="0 0 48 48">
  <defs>
    <linearGradient id="linear-gradient" x1="18.794" y1="12.965" x2="31.794" y2="-0.035" gradientTransform="matrix(0.955, 0, 0, -0.913, -17.479, 12.298)" gradientUnits="userSpaceOnUse">
      <stop offset="0" stop-color="#fff"/>
      <stop offset="0.232" stop-color="#fafafa"/>
      <stop offset="0.496" stop-color="#ededed"/>
      <stop offset="0.775" stop-color="#d6d6d6"/>
      <stop offset="1" stop-color="#bebebe"/>
    </linearGradient>
    <linearGradient id="linear-gradient-2" x1="18.794" y1="-3.035" x2="31.794" y2="-16.035" xlink:href="#linear-gradient"/>
    <linearGradient id="linear-gradient-3" x1="18.794" y1="-19.035" x2="31.794" y2="-32.035" xlink:href="#linear-gradient"/>
    <linearGradient id="linear-gradient-4" x1="26.159" y1="23.84" x2="43.837" y2="6.162" gradientTransform="matrix(1, 0, 0, -1, 0.002, 50.001)" gradientUnits="userSpaceOnUse">
      <stop offset="0" stop-color="#73b4c8"/>
      <stop offset="0.175" stop-color="#6aaec3"/>
      <stop offset="0.457" stop-color="#529eb5"/>
      <stop offset="0.809" stop-color="#2c839f"/>
      <stop offset="1" stop-color="#147391"/>
    </linearGradient>
  </defs>
  <g id="g865">
    <rect id="rect13" x="0.467" y="0.467" width="12.413" height="11.864" stroke="#464646" stroke-miterlimit="10" stroke-width="0.933" fill="url(#linear-gradient)"/>
    <rect id="rect26" x="0.467" y="15.068" width="12.413" height="11.864" stroke="#464646" stroke-miterlimit="10" stroke-width="0.933" fill="url(#linear-gradient-2)"/>
    <rect id="rect39" x="0.467" y="29.67" width="12.413" height="11.864" stroke="#464646" stroke-miterlimit="10" stroke-width="0.933" fill="url(#linear-gradient-3)"/>
    <line id="line41" x1="18.131" y1="6.399" x2="36.273" y2="6.399" fill="none" stroke="#6e6e6e" stroke-miterlimit="10" stroke-width="1.867"/>
    <line id="line43" x1="18.131" y1="21" x2="36.273" y2="21" fill="none" stroke="#6e6e6e" stroke-miterlimit="10" stroke-width="1.867"/>
    <line id="line45" x1="18.131" y1="35.601" x2="36.273" y2="35.601" fill="none" stroke="#6e6e6e" stroke-miterlimit="10" stroke-width="1.867"/>
    <polyline id="polyline47" points="3.809 7.311 5.718 9.136 9.538 3.661" fill="none" stroke="#147391" stroke-miterlimit="10"/>
    <polyline id="polyline49" points="3.809 21.913 5.718 23.738 9.538 18.262" fill="none" stroke="#147391" stroke-miterlimit="10"/>
    <polyline id="polyline51" points="3.809 36.514 5.718 38.339 9.538 32.864" fill="none" stroke="#147391" stroke-miterlimit="10"/>
    <circle id="circle85" cx="35" cy="35" r="12.5" stroke="#464646" stroke-linecap="round" stroke-linejoin="round" fill="url(#linear-gradient-4)"/>
    <polygon id="polygon87" points="38.502 41.501 36.502 41.501 43.502 34.501 41.502 32.501 34.502 39.501 34.502 37.501 31.502 37.501 31.502 44.501 38.502 44.501 38.502 41.501" fill="#fff" stroke="#147391"/>
    <polygon id="polygon89" points="31.499 28.499 33.499 28.499 26.499 35.5 28.499 37.5 35.499 30.5 35.499 32.5 38.499 32.5 38.499 25.5 31.499 25.5 31.499 28.499" fill="#fff" stroke="#147391"/>
  </g>
</svg>
