<svg id="Livello_2" data-name="Livello 2" xmlns="http://www.w3.org/2000/svg" xmlns:xlink="http://www.w3.org/1999/xlink" viewBox="0 0 48 48">
  <defs>
    <linearGradient id="linear-gradient" x1="0.054" y1="46.709" x2="45.351" y2="5.151" gradientTransform="matrix(1, 0, 0, -1, 0, 52)" gradientUnits="userSpaceOnUse">
      <stop offset="0" stop-color="#fff"/>
      <stop offset="0.221" stop-color="#fbfbfc"/>
      <stop offset="0.541" stop-color="#ececec"/>
      <stop offset="0.92" stop-color="#d0cecd"/>
      <stop offset="1" stop-color="#c9c6c5"/>
    </linearGradient>
    <linearGradient id="linear-gradient-2" x1="101.951" y1="-70.892" x2="117.951" y2="-86.893" gradientTransform="matrix(0.765, 0, 0, -0.765, -59.465, -39.873)" gradientUnits="userSpaceOnUse">
      <stop offset="0" stop-color="#afd7e1"/>
      <stop offset="0.159" stop-color="#a4d0dc"/>
      <stop offset="0.706" stop-color="#80bcce"/>
      <stop offset="1" stop-color="#73b4c8"/>
    </linearGradient>
    <linearGradient id="linear-gradient-3" x1="91.034" y1="-81.809" x2="112.869" y2="-103.644" xlink:href="#linear-gradient-2"/>
    <linearGradient id="linear-gradient-4" x1="103.136" y1="-72.139" x2="118.862" y2="-87.866" gradientTransform="matrix(0.765, 0, 0, -0.765, -59.465, -39.873)" gradientUnits="userSpaceOnUse">
      <stop offset="0" stop-color="#73b4c8"/>
      <stop offset="0.175" stop-color="#6aaec3"/>
      <stop offset="0.457" stop-color="#529eb5"/>
      <stop offset="0.809" stop-color="#2c839f"/>
      <stop offset="1" stop-color="#147391"/>
    </linearGradient>
  </defs>
  <g id="g856">
    <g id="g39">
      <path id="path35" d="M.522,44.478H47.478V10.043H19.3L15.75,4.712a2.087,2.087,0,0,0-1.736-.929H2.609A2.087,2.087,0,0,0,.522,5.87h0Z" fill="url(#linear-gradient)"/>
      <path id="path37" d="M48,45H0V5.87A2.609,2.609,0,0,1,2.609,3.261H14.014a2.6,2.6,0,0,1,2.17,1.162l3.4,5.1H48ZM1.043,43.957H46.957V10.565H19.025L15.316,5a1.566,1.566,0,0,0-1.3-.7H2.609A1.566,1.566,0,0,0,1.043,5.866V43.957Z" fill="#4e4a48"/>
    </g>
    <g id="g40">
      <polygon id="polygon32" points="36.854 20.458 36.854 34.542 24.618 41.618 24.618 27.534 36.854 20.458" fill="#3c91af"/>
      <polygon id="polygon34" points="24.597 13.382 36.854 20.458 24.618 27.534 12.382 20.458 24.597 13.382" fill="url(#linear-gradient-2)"/>
      <polygon id="polygon36" points="24.618 41.618 12.382 34.541 12.382 20.458 24.618 27.534 24.618 41.618" fill="url(#linear-gradient-3)"/>
      <line id="line38" x1="24.618" y1="27.778" x2="24.618" y2="41.452" fill="none" stroke="#147391" stroke-linejoin="round" stroke-width="0.765"/>
    </g>
    <polygon id="polygon42" points="16.752 17.948 29.206 25.139 29.206 29.546 32.265 25.723 32.265 22.845 20.397 15.816 16.752 17.948" stroke="#147391" stroke-miterlimit="7.647" stroke-width="0.765" fill="url(#linear-gradient-4)"/>
    <polyline id="polyline44" points="36.854 20.458 24.618 27.534 12.382 20.458" fill="none" stroke="#147391" stroke-linejoin="round" stroke-width="0.765"/>
    <polygon id="polygon46" points="24.618 41.618 36.854 34.542 36.854 20.458 24.597 13.382 12.382 20.458 12.382 34.541 24.618 41.618" fill="none" stroke="#464646" stroke-linejoin="round" stroke-width="0.765"/>
  </g>
</svg>
