<svg id="Layer_1" data-name="Layer 1" xmlns="http://www.w3.org/2000/svg" xmlns:xlink="http://www.w3.org/1999/xlink" viewBox="0 0 48 48">
  <defs>
    <linearGradient id="linear-gradient" x1="-45.935" y1="-637.601" x2="-12.52" y2="-671.017" gradientTransform="matrix(1.073, 0, 0, -1.073, 53.368, -674.319)" gradientUnits="userSpaceOnUse">
      <stop offset="0" stop-color="#fff"/>
      <stop offset="0.221" stop-color="#f8f8f8"/>
      <stop offset="0.541" stop-color="#e5e5e5"/>
      <stop offset="0.92" stop-color="#c6c6c6"/>
      <stop offset="1" stop-color="#bebebe"/>
    </linearGradient>
    <linearGradient id="linear-gradient-2" x1="-41.934" y1="-622.772" x2="-16.521" y2="-648.185" gradientTransform="matrix(1.073, 0, 0, -1.073, 53.368, -674.319)" gradientUnits="userSpaceOnUse">
      <stop offset="0" stop-color="#73b4c8"/>
      <stop offset="0.175" stop-color="#6aaec3"/>
      <stop offset="0.457" stop-color="#529eb5"/>
      <stop offset="0.809" stop-color="#2c839f"/>
      <stop offset="1" stop-color="#147391"/>
    </linearGradient>
    <linearGradient id="linear-gradient-3" x1="20.395" y1="-729.28" x2="30.247" y2="-736.831" gradientTransform="matrix(0.957, 0, 0, -0.956, -12.036, -676.995)" xlink:href="#linear-gradient-2"/>
    <linearGradient id="linear-gradient-4" x1="23.992" y1="23.628" x2="36.626" y2="10.992" gradientTransform="matrix(1, 0, 0, -1, -0.049, 50)" xlink:href="#linear-gradient-2"/>
  </defs>
  <g id="g963">
    <path id="path13" d="M.537,13.413v27.9a2.144,2.144,0,0,0,2.141,2.146H41.322a2.144,2.144,0,0,0,2.142-2.146v-27.9Z" fill="url(#linear-gradient)"/>
    <path id="path26" d="M43.464,13.413V2.683A2.145,2.145,0,0,0,41.322.537H2.683A2.146,2.146,0,0,0,.537,2.683h0v10.73Z" stroke="#147391" stroke-miterlimit="10" stroke-width="1.073" fill="url(#linear-gradient-2)"/>
    <path id="circle42" d="M15.561,6.439a1.61,1.61,0,1,1-3.22,0h0a1.61,1.61,0,0,1,1.61-1.609h0a1.608,1.608,0,0,1,1.61,1.607Z" fill="#fff" stroke="#147391" stroke-miterlimit="10" stroke-width="1.073"/>
    <path id="circle44" d="M31.661,6.439a1.61,1.61,0,1,1-1.61-1.609h0A1.611,1.611,0,0,1,31.661,6.439Z" fill="#fff" stroke="#147391" stroke-miterlimit="10" stroke-width="1.073"/>
    <path id="rect881-0-4" d="M.957,35.587H43.044v1.075H.957Z" fill="#6e6e6e"/>
    <path id="rect913" d="M25.756,13.947H26.83V43.039H25.756Z" fill="#6e6e6e"/>
    <path id="rect913-6" d="M34.339,13.947h1.074V43.039H34.339Z" fill="#6e6e6e"/>
    <path id="rect852" d="M9.119,21.2h8.253V28.63H9.119Z" fill="url(#linear-gradient-3)"/>
    <path id="line28" d="M9.122,13.95V42.922" fill="none" stroke="#6e6e6e" stroke-width="1.073"/>
    <path id="line30" d="M17.707,13.95V42.922" fill="none" stroke="#6e6e6e" stroke-width="1.073"/>
    <path id="rect881" d="M.957,20.387H43.044v1.076H.957Z" fill="#6e6e6e"/>
    <path id="rect881-0" d="M.957,28.14H43.044v1.076H.957Z" fill="#6e6e6e"/>
    <path id="path46" d="M43.464,41.317V2.683A2.145,2.145,0,0,0,41.322.537H2.683A2.145,2.145,0,0,0,.537,2.679V41.317a2.144,2.144,0,0,0,2.141,2.146H41.322A2.144,2.144,0,0,0,43.464,41.317Z" fill="none" stroke="#464646" stroke-miterlimit="10" stroke-width="1.073"/>
    <path id="path51" d="M20.351,47.5a4.9,4.9,0,0,1-3.5-8.326L30.577,27.212a.2.2,0,0,0,.064-.191c-.292-1.433-1.042-6.306,1.56-8.906A8.873,8.873,0,0,1,38.517,15.5a8.977,8.977,0,0,1,1.236.086.5.5,0,0,1,.285.849L36.476,20a.2.2,0,0,0-.056.1l-.783,3.78a.2.2,0,0,0,.056.182l3.193,3.194a.2.2,0,0,0,.141.059l3.824-.788a.194.194,0,0,0,.1-.052l3.567-3.565a.5.5,0,0,1,.849.285,8.986,8.986,0,0,1-2.531,7.555,7.811,7.811,0,0,1-5.652,1.9,16.314,16.314,0,0,1-3.253-.346h-.02a.205.205,0,0,0-.172.063L23.851,46.02A4.913,4.913,0,0,1,20.351,47.5Zm.771-7.168a1.5,1.5,0,1,0,1.062.439,1.5,1.5,0,0,0-1.062-.439Z" fill="url(#linear-gradient-4)"/>
    <path id="path53" d="M38.517,16a8.449,8.449,0,0,1,1.168.081l-3.562,3.563a.7.7,0,0,0-.191.353l-.781,3.781a.7.7,0,0,0,.191.638l3.194,3.193a.7.7,0,0,0,.494.206.669.669,0,0,0,.141-.015l3.78-.783a.7.7,0,0,0,.353-.191l3.564-3.563A8.429,8.429,0,0,1,44.48,30.4a7.334,7.334,0,0,1-5.3,1.758,15.828,15.828,0,0,1-3.152-.336.73.73,0,0,0-.14-.014.7.7,0,0,0-.53.24L23.475,45.691A4.394,4.394,0,0,1,15.951,42.6a4.348,4.348,0,0,1,1.25-3.076L30.9,27.586a.7.7,0,0,0,.226-.669c-.279-1.37-1-6.026,1.423-8.452A8.374,8.374,0,0,1,38.517,16m-17.4,27.833a2,2,0,0,0,1.414-.585h0A2,2,0,0,0,19.7,40.42h0a2,2,0,0,0,1.415,3.413M38.517,15a9.37,9.37,0,0,0-6.67,2.763c-2.68,2.679-2.05,7.509-1.729,9.187L16.545,38.773q-.026.022-.051.048A5.4,5.4,0,0,0,24.187,46.4c.016-.016.032-.033.047-.05L36,32.832a16.745,16.745,0,0,0,3.182.322,8.282,8.282,0,0,0,6-2.054,9.488,9.488,0,0,0,2.673-7.978,1,1,0,0,0-1.7-.569l-3.5,3.5-3.536.732L36.159,23.82l.733-3.536,3.5-3.5a1,1,0,0,0-.569-1.7A9.505,9.505,0,0,0,38.517,15Zm-17.4,27.833a1,1,0,1,1,.708-.293A1,1,0,0,1,21.117,42.833Z" fill="#464646"/>
  </g>
</svg>
