<svg id="Image" xmlns="http://www.w3.org/2000/svg" xmlns:xlink="http://www.w3.org/1999/xlink" viewBox="0 0 48 48">
  <defs>
    <linearGradient id="linear-gradient" x1="6.741" y1="756.814" x2="29.846" y2="779.919" gradientTransform="translate(0 -742)" gradientUnits="userSpaceOnUse">
      <stop offset="0" stop-color="#73b4c8"/>
      <stop offset="1" stop-color="#177491"/>
    </linearGradient>
    <linearGradient id="linear-gradient-2" x1="14.68" y1="757.301" x2="21.892" y2="764.515" gradientTransform="translate(0 -742)" gradientUnits="userSpaceOnUse">
      <stop offset="0" stop-color="#fff"/>
      <stop offset="1" stop-color="#bebdbd"/>
    </linearGradient>
    <linearGradient id="linear-gradient-3" x1="17.028" y1="769.335" x2="19.558" y2="771.865" xlink:href="#linear-gradient-2"/>
    <linearGradient id="linear-gradient-4" x1="23.578" y1="768.167" x2="35.806" y2="779.888" gradientTransform="translate(-0.103 -741.965)" gradientUnits="userSpaceOnUse">
      <stop offset="0" stop-color="#fff"/>
      <stop offset="1" stop-color="#bebebe"/>
    </linearGradient>
  </defs>
  <g id="g874">
    <path id="path21" d="M16.561,5.09,1.719,30.8a2,2,0,0,0,1.732,3H33.136a2,2,0,0,0,1.732-3L20.025,5.09a2,2,0,0,0-3.464,0Z" stroke="#177491" stroke-linecap="round" stroke-linejoin="round" fill="url(#linear-gradient)"/>
    <path id="path23" d="M16.5,24.335V13.73a.6.6,0,0,1,.6-.6h2.372a.6.6,0,0,1,.6.6h0V24.335Z" fill="url(#linear-gradient-2)"/>
    <path id="path25" d="M19.48,13.627a.1.1,0,0,1,.1.1h0V23.835H17V13.73a.1.1,0,0,1,.1-.1h2.38m0-1H17.107a1.1,1.1,0,0,0-1.1,1.1h0V24.835h4.578V13.73a1.1,1.1,0,0,0-1.1-1.1h0Z" fill="#6f6e6e"/>
    <path id="circle29" d="M20.082,28.6a1.789,1.789,0,1,1-1.789-1.789A1.789,1.789,0,0,1,20.082,28.6Z" fill="url(#linear-gradient-3)"/>
    <path id="path31" d="M18.293,27.314A1.289,1.289,0,1,1,17,28.6a1.289,1.289,0,0,1,1.293-1.286h0m0-1A2.289,2.289,0,1,0,20.582,28.6v0a2.289,2.289,0,0,0-2.289-2.289h0Z" fill="#6f6e6e"/>
    <path id="path51" d="M20.3,47.535a4.9,4.9,0,0,1-3.5-8.326L30.523,27.247a.2.2,0,0,0,.064-.191c-.292-1.433-1.042-6.306,1.56-8.906A8.934,8.934,0,0,1,39.7,15.621a.5.5,0,0,1,.427.564.5.5,0,0,1-.142.285l-3.562,3.565a.2.2,0,0,0-.056.1l-.783,3.78a.2.2,0,0,0,.056.182l3.193,3.194a.2.2,0,0,0,.141.059l3.824-.788a.19.19,0,0,0,.1-.052l3.567-3.565a.5.5,0,0,1,.849.285,8.986,8.986,0,0,1-2.531,7.555,7.808,7.808,0,0,1-5.652,1.9,16.314,16.314,0,0,1-3.253-.346h-.02a.206.206,0,0,0-.172.063L23.8,46.055A4.913,4.913,0,0,1,20.3,47.535Zm.771-7.168a1.5,1.5,0,1,0,1.062.439A1.5,1.5,0,0,0,21.068,40.367Z" fill="url(#linear-gradient-4)"/>
    <path id="path53" d="M38.463,16.035a8.449,8.449,0,0,1,1.168.081l-3.562,3.563a.708.708,0,0,0-.191.353L35.1,23.813a.7.7,0,0,0,.191.638l3.194,3.193a.7.7,0,0,0,.494.206.662.662,0,0,0,.141-.015l3.78-.783a.7.7,0,0,0,.353-.191L46.814,23.3a8.426,8.426,0,0,1-2.388,7.137,7.331,7.331,0,0,1-5.3,1.758,15.828,15.828,0,0,1-3.152-.336.73.73,0,0,0-.14-.014.7.7,0,0,0-.53.24L23.421,45.726a4.4,4.4,0,0,1-6.274-6.167l13.7-11.938a.7.7,0,0,0,.226-.669c-.279-1.37-1-6.026,1.423-8.452a8.378,8.378,0,0,1,5.968-2.465m-17.4,27.833a2,2,0,0,0,1.414-.585h0a2,2,0,0,0-2.831-2.828h0a2,2,0,0,0,1.415,3.413m17.4-28.833a9.37,9.37,0,0,0-6.67,2.763c-2.68,2.679-2.05,7.509-1.729,9.187L16.491,38.808q-.026.023-.051.048a5.4,5.4,0,0,0,7.693,7.579c.016-.016.032-.033.047-.05L35.946,32.867a16.673,16.673,0,0,0,3.182.322,8.277,8.277,0,0,0,6-2.054A9.485,9.485,0,0,0,47.8,23.157a1,1,0,0,0-1.7-.569l-3.5,3.5-3.536.732L36.1,23.855l.733-3.536,3.5-3.5a1,1,0,0,0-.569-1.7A9.5,9.5,0,0,0,38.463,15.035Zm-17.4,27.833a1,1,0,1,1,.708-.293A1,1,0,0,1,21.063,42.868Z" fill="#464646"/>
  </g>
</svg>
