<svg id="Image" xmlns="http://www.w3.org/2000/svg" xmlns:xlink="http://www.w3.org/1999/xlink" viewBox="0 0 48 48">
  <defs>
    <linearGradient id="linear-gradient" x1="23.998" y1="749.625" x2="23.998" y2="741.954" gradientTransform="translate(0 -740)" gradientUnits="userSpaceOnUse">
      <stop offset="0" stop-color="#c9c6c5"/>
      <stop offset="0.045" stop-color="#cecccc"/>
      <stop offset="0.268" stop-color="#e7e6e6"/>
      <stop offset="0.497" stop-color="#f6f6f7"/>
      <stop offset="0.736" stop-color="#fefefe"/>
      <stop offset="1" stop-color="#fff"/>
    </linearGradient>
    <linearGradient id="linear-gradient-2" x1="6.031" y1="748.427" x2="41.969" y2="784.365" gradientTransform="translate(0 -740)" gradientUnits="userSpaceOnUse">
      <stop offset="0" stop-color="#fff"/>
      <stop offset="0.221" stop-color="#fbfbfc"/>
      <stop offset="0.541" stop-color="#ececec"/>
      <stop offset="0.92" stop-color="#d0cecd"/>
      <stop offset="1" stop-color="#c9c6c5"/>
    </linearGradient>
    <linearGradient id="linear-gradient-3" x1="8.906" y1="751.302" x2="39.094" y2="781.49" gradientTransform="translate(0 -740)" gradientUnits="userSpaceOnUse">
      <stop offset="0" stop-color="#fff"/>
      <stop offset="0.335" stop-color="#fbfbfc"/>
      <stop offset="0.82" stop-color="#ececec"/>
      <stop offset="1" stop-color="#e4e3e4"/>
    </linearGradient>
    <linearGradient id="linear-gradient-4" x1="625.61" y1="-1390.405" x2="630.935" y2="-1395.729" gradientTransform="matrix(0.446, 0, 0, -0.484, -264.152, -659.736)" gradientUnits="userSpaceOnUse">
      <stop offset="0" stop-color="#d9ecf1"/>
      <stop offset="0.221" stop-color="#d3e8ee"/>
      <stop offset="0.542" stop-color="#c3dfe8"/>
      <stop offset="0.921" stop-color="#a2ccdb"/>
      <stop offset="1" stop-color="#9bc8d7"/>
    </linearGradient>
    <linearGradient id="linear-gradient-5" x1="621.973" y1="-1394.04" x2="629.246" y2="-1401.313" gradientTransform="matrix(0.446, 0, 0, -0.484, -264.152, -659.736)" gradientUnits="userSpaceOnUse">
      <stop offset="0" stop-color="#bfdee8"/>
      <stop offset="0.159" stop-color="#b3d6e2"/>
      <stop offset="0.706" stop-color="#8ec1d3"/>
      <stop offset="1" stop-color="#7fb8cd"/>
    </linearGradient>
    <linearGradient id="linear-gradient-6" x1="704.6" y1="-675.767" x2="709.926" y2="-681.093" gradientTransform="matrix(0.874, 0, 0, -0.874, -34.278, -4.103)" xlink:href="#linear-gradient-4"/>
    <linearGradient id="linear-gradient-7" x1="702.646" y1="-677.711" x2="709.915" y2="-684.98" gradientTransform="matrix(0.874, 0, 0, -0.874, -34.278, -4.103)" xlink:href="#linear-gradient-5"/>
    <linearGradient id="linear-gradient-8" x1="707.746" y1="-686.742" x2="713.072" y2="-692.068" gradientTransform="matrix(0.874, 0, 0, -0.874, -34.278, -4.103)" xlink:href="#linear-gradient-4"/>
    <linearGradient id="linear-gradient-9" x1="705.808" y1="-688.625" x2="713.077" y2="-695.894" gradientTransform="matrix(0.874, 0, 0, -0.874, -34.278, -4.103)" xlink:href="#linear-gradient-5"/>
    <linearGradient id="linear-gradient-10" x1="107.431" y1="953.906" x2="137.619" y2="984.094" gradientTransform="translate(-65.193 -595.89) scale(0.74 0.647)" xlink:href="#linear-gradient-3"/>
    <linearGradient id="linear-gradient-11" x1="625.61" y1="-1390.405" x2="630.935" y2="-1395.729" gradientTransform="matrix(0.446, 0, 0, -0.484, -260.845, -651.743)" xlink:href="#linear-gradient-4"/>
    <linearGradient id="linear-gradient-12" x1="621.973" y1="-1394.04" x2="629.246" y2="-1401.313" gradientTransform="matrix(0.446, 0, 0, -0.484, -260.845, -651.743)" xlink:href="#linear-gradient-5"/>
    <linearGradient id="linear-gradient-13" x1="704.6" y1="-675.767" x2="709.926" y2="-681.093" gradientTransform="matrix(0.874, 0, 0, -0.874, -30.971, 3.89)" xlink:href="#linear-gradient-4"/>
    <linearGradient id="linear-gradient-14" x1="702.646" y1="-677.711" x2="709.915" y2="-684.98" gradientTransform="matrix(0.874, 0, 0, -0.874, -30.971, 3.89)" xlink:href="#linear-gradient-5"/>
    <linearGradient id="linear-gradient-15" x1="707.746" y1="-686.742" x2="713.072" y2="-692.068" gradientTransform="matrix(0.874, 0, 0, -0.874, -30.971, 3.89)" xlink:href="#linear-gradient-4"/>
    <linearGradient id="linear-gradient-16" x1="705.808" y1="-688.625" x2="713.077" y2="-695.894" gradientTransform="matrix(0.874, 0, 0, -0.874, -30.971, 3.89)" xlink:href="#linear-gradient-5"/>
  </defs>
  <g id="g1366">
    <path id="path37" d="M32.146,5.792a2.5,2.5,0,0,0-1.917-.959H28.792V4.354A3.4,3.4,0,0,0,25.437,1H22.562a3.4,3.4,0,0,0-3.354,3.354v.479H17.771a2.5,2.5,0,0,0-1.917.959H6.75V47h34.5V5.792Z" fill="#4e4a48"/>
    <path id="path39" d="M16.333,9.625H31.667v-2.4a1.473,1.473,0,0,0-1.438-1.437h-2.4V4.354a2.372,2.372,0,0,0-2.344-2.4H22.562A2.372,2.372,0,0,0,20.167,4.3V5.792h-2.4a1.473,1.473,0,0,0-1.438,1.437Z" fill="url(#linear-gradient)"/>
    <path id="circle41" d="M24.958,4.833A.958.958,0,0,1,24,5.791h0a.958.958,0,0,1-.958-.958h0A.958.958,0,0,1,24,3.875h0a.958.958,0,0,1,.958.958Z" fill="#4e4a48"/>
    <path id="path43" d="M32.529,6.75a.859.859,0,0,1,.1.479v3.354H15.375V7.229a.859.859,0,0,1,.1-.479H7.708V46.042H40.292V6.75Z" fill="url(#linear-gradient-2)"/>
    <path id="polygon45" d="M15.375,10.583V8.667H9.625V44.125h28.75V8.667h-5.75v1.916Z" fill="#c9c6c5"/>
    <path id="polygon47" d="M15.375,10.583V9.625H10.583V43.167H37.417V9.625H32.625v.958Z" fill="url(#linear-gradient-3)"/>
    <path id="path39-4-9" d="M30.091,23.148H21.155a.319.319,0,0,1-.221-.359.3.3,0,0,1,.221-.3h8.936c.133.015.231.176.22.359A.3.3,0,0,1,30.091,23.148Z" fill="#464646" stroke="#464646" stroke-width="0.338"/>
    <path id="path41-3" d="M30.091,29.989H21.154c-.133-.011-.234-.169-.226-.351a.3.3,0,0,1,.226-.311h8.937c.133.011.235.168.227.35A.3.3,0,0,1,30.091,29.989Z" fill="#464646" stroke="#464646" stroke-width="0.338"/>
    <path id="path43-7-5" d="M30.091,16.367H21.155a.318.318,0,0,1-.221-.359.3.3,0,0,1,.221-.3h8.936a.318.318,0,0,1,.22.359A.3.3,0,0,1,30.091,16.367Z" fill="#464646" stroke="#4e4a48" stroke-width="0.338"/>
    <path id="polygon45-9-0" d="M16.466,16.156l2.377-1.492v2.97l-2.377,1.492Z" fill="#3b90b2"/>
    <path id="polygon47-0-8" d="M14.089,14.664l2.373-1.491,2.381,1.491-2.377,1.492Z" fill="url(#linear-gradient-4)"/>
    <path id="polygon49-3" d="M16.466,16.156v2.971l-2.377-1.493v-2.97Z" fill="url(#linear-gradient-5)"/>
    <path id="path51-2" d="M16.466,16.4a.206.206,0,0,1-.112-.033l-2.376-1.492.223-.42,2.267,1.423,2.265-1.423.222.419-2.377,1.492A.211.211,0,0,1,16.466,16.4Z" fill="#0e7191"/>
    <path id="rect53-8" d="M16.243,16.156h.443v2.971H16.24Z" fill="#0e7191"/>
    <path id="path55-6" d="M16.466,19.368a.206.206,0,0,1-.112-.033l-2.376-1.491a.246.246,0,0,1-.112-.21v-2.97a.247.247,0,0,1,.112-.21l2.373-1.492a.215.215,0,0,1,.224,0l2.383,1.492a.247.247,0,0,1,.112.21v2.97a.246.246,0,0,1-.112.21l-2.377,1.492A.222.222,0,0,1,16.466,19.368Zm-2.153-1.874,2.153,1.352,2.155-1.352V14.805l-2.159-1.353L14.313,14.8Z" fill="#464646"/>
    <path id="path57-9" d="M16.466,16.4a.207.207,0,0,1-.112-.034l-1.425-.894.223-.419,1.311.823,1.31-.823.224.419-1.429.894A.194.194,0,0,1,16.466,16.4Z" fill="#0e7191"/>
    <path id="rect59-1" d="M16.243,16.154h.443v1.781H16.24Z" fill="#0e7191"/>
    <path id="polygon63-2" d="M16.466,22.936l2.377-1.492v2.97l-2.377,1.492Z" fill="#3b90b2"/>
    <path id="polygon65-5" d="M14.089,21.445l2.373-1.492,2.381,1.492-2.377,1.491Z" fill="url(#linear-gradient-6)"/>
    <path id="polygon67-8" d="M16.466,22.936v2.97l-2.377-1.492v-2.97Z" fill="url(#linear-gradient-7)"/>
    <path id="path69-6" d="M16.466,23.179a.206.206,0,0,1-.112-.033l-2.376-1.492.223-.419,2.266,1.422,2.265-1.422.222.418-2.376,1.493A.21.21,0,0,1,16.466,23.179Z" fill="#0e7191"/>
    <path id="rect71-2" d="M16.243,22.936h.443v2.97H16.24Z" fill="#0e7191"/>
    <path id="path73-9" d="M16.466,26.148a.206.206,0,0,1-.112-.033l-2.376-1.49a.247.247,0,0,1-.112-.21v-2.97a.246.246,0,0,1,.112-.21l2.373-1.492a.211.211,0,0,1,.224,0l2.383,1.492a.246.246,0,0,1,.112.21v2.97a.247.247,0,0,1-.112.21l-2.377,1.492A.212.212,0,0,1,16.466,26.148Zm-2.153-1.874,2.153,1.352,2.155-1.352v-2.69l-2.159-1.351-2.149,1.351Z" fill="#464646"/>
    <path id="path75-0" d="M16.466,23.176a.206.206,0,0,1-.112-.033l-1.425-.895.223-.419,1.311.824,1.31-.824.224.419-1.429.895A.2.2,0,0,1,16.466,23.176Z" fill="#0e7191"/>
    <path id="rect77-5" d="M16.243,22.936h.443v1.781H16.24Z" fill="#0e7191"/>
    <path id="polygon81-2" d="M16.466,29.777l2.377-1.493v2.971l-2.377,1.491Z" fill="#3b90b2"/>
    <path id="polygon83-3" d="M14.089,28.284l2.373-1.492,2.381,1.492-2.377,1.493Z" fill="url(#linear-gradient-8)"/>
    <path id="polygon85-0" d="M16.466,29.777v2.97l-2.377-1.494v-2.97Z" fill="url(#linear-gradient-9)"/>
    <path id="path87-2" d="M16.466,30.019a.207.207,0,0,1-.112-.034l-2.376-1.492.223-.418L16.468,29.5l2.265-1.422.224.419-2.378,1.491A.208.208,0,0,1,16.466,30.019Z" fill="#0e7191"/>
    <path id="rect89-1" d="M16.243,29.777h.443v2.97H16.24Z" fill="#0e7191"/>
    <path id="path91-9" d="M16.466,32.988a.224.224,0,0,1-.112-.033l-2.376-1.492a.245.245,0,0,1-.112-.209v-2.97a.247.247,0,0,1,.111-.21l2.374-1.492a.209.209,0,0,1,.223,0l2.384,1.493a.245.245,0,0,1,.112.209v2.971a.245.245,0,0,1-.112.209L16.58,32.956A.218.218,0,0,1,16.466,32.988Zm-2.153-1.874,2.153,1.353,2.155-1.353V28.425l-2.159-1.353-2.149,1.351Z" fill="#464646"/>
    <path id="path93-9" d="M16.466,30.013a.226.226,0,0,1-.112-.034l-1.425-.895.223-.419,1.311.823,1.31-.823.224.419-1.429.895A.214.214,0,0,1,16.466,30.013Z" fill="#0e7191"/>
    <path id="rect95-5" d="M16.243,29.773h.443v1.782H16.24Z" fill="#0e7191"/>
    <path id="path902-0" d="M11.8,22.936V11.678H32.546V34.2H11.8ZM27.356,33.445h4.568l-.011-10.517L31.9,12.41,22.184,12.4l-9.717-.011V22.909c0,5.787.014,10.537.033,10.557s2.34.023,5.161.007,7.182-.028,9.7-.028Z" fill="#464646"/>
    <path id="polygon47-9" d="M19.138,20.62V20H15.59V41.7H35.458V20H31.91v.62Z" fill="url(#linear-gradient-10)"/>
    <path id="path39-4" d="M33.4,31.141H24.462a.319.319,0,0,1-.221-.359.3.3,0,0,1,.221-.3H33.4c.133.015.231.176.22.359A.3.3,0,0,1,33.4,31.141Z" fill="#464646" stroke="#464646" stroke-width="0.338"/>
    <path id="path41" d="M33.4,37.982H24.461c-.133-.011-.234-.169-.226-.351a.3.3,0,0,1,.226-.311H33.4c.133.011.235.168.227.35A.3.3,0,0,1,33.4,37.982Z" fill="#464646" stroke="#464646" stroke-width="0.338"/>
    <path id="path43-7" d="M33.4,24.36H24.462A.318.318,0,0,1,24.241,24a.3.3,0,0,1,.221-.3H33.4a.318.318,0,0,1,.22.359A.3.3,0,0,1,33.4,24.36Z" fill="#464646" stroke="#4e4a48" stroke-width="0.338"/>
    <path id="polygon45-9" d="M19.773,24.149l2.377-1.492v2.97l-2.377,1.492Z" fill="#3b90b2"/>
    <path id="polygon47-0" d="M17.4,22.657l2.373-1.491,2.381,1.491-2.377,1.492Z" fill="url(#linear-gradient-11)"/>
    <path id="polygon49" d="M19.773,24.149V27.12L17.4,25.627v-2.97Z" fill="url(#linear-gradient-12)"/>
    <path id="path51" d="M19.773,24.392a.206.206,0,0,1-.112-.033l-2.376-1.492.223-.42,2.267,1.423,2.265-1.423.222.419-2.377,1.492A.211.211,0,0,1,19.773,24.392Z" fill="#0e7191"/>
    <path id="rect53" d="M19.55,24.149h.443V27.12h-.446Z" fill="#0e7191"/>
    <path id="path55" d="M19.773,27.361a.206.206,0,0,1-.112-.033l-2.376-1.491a.246.246,0,0,1-.112-.21v-2.97a.247.247,0,0,1,.112-.21l2.373-1.492a.215.215,0,0,1,.224,0l2.383,1.492a.247.247,0,0,1,.112.21v2.97a.246.246,0,0,1-.112.21l-2.377,1.492A.222.222,0,0,1,19.773,27.361ZM17.62,25.487l2.153,1.352,2.155-1.352V22.8l-2.159-1.353L17.62,22.8Z" fill="#464646"/>
    <path id="path57" d="M19.773,24.389a.207.207,0,0,1-.112-.034l-1.425-.894.223-.419,1.311.823,1.31-.823.224.419-1.429.894A.194.194,0,0,1,19.773,24.389Z" fill="#0e7191"/>
    <path id="rect59" d="M19.55,24.147h.443v1.781h-.446Z" fill="#0e7191"/>
    <path id="polygon63" d="M19.773,30.929l2.377-1.492v2.97L19.773,33.9Z" fill="#3b90b2"/>
    <path id="polygon65" d="M17.4,29.438l2.373-1.492,2.381,1.492-2.377,1.491Z" fill="url(#linear-gradient-13)"/>
    <path id="polygon67" d="M19.773,30.929V33.9L17.4,32.407v-2.97Z" fill="url(#linear-gradient-14)"/>
    <path id="path69" d="M19.773,31.172a.206.206,0,0,1-.112-.033l-2.376-1.492.223-.419,2.266,1.422,2.265-1.422.222.418-2.376,1.493A.21.21,0,0,1,19.773,31.172Z" fill="#0e7191"/>
    <path id="rect71" d="M19.55,30.929h.443V33.9h-.446Z" fill="#0e7191"/>
    <path id="path73" d="M19.773,34.141a.206.206,0,0,1-.112-.033l-2.376-1.49a.247.247,0,0,1-.112-.21v-2.97a.246.246,0,0,1,.112-.21l2.373-1.492a.211.211,0,0,1,.224,0l2.383,1.492a.246.246,0,0,1,.112.21v2.97a.247.247,0,0,1-.112.21L19.888,34.11A.212.212,0,0,1,19.773,34.141ZM17.62,32.267l2.153,1.352,2.155-1.352v-2.69l-2.159-1.351L17.62,29.577Z" fill="#464646"/>
    <path id="path75" d="M19.773,31.169a.206.206,0,0,1-.112-.033l-1.425-.895.223-.419,1.311.824,1.31-.824.224.419-1.429.895A.2.2,0,0,1,19.773,31.169Z" fill="#0e7191"/>
    <path id="rect77" d="M19.55,30.929h.443V32.71h-.446Z" fill="#0e7191"/>
    <path id="polygon81" d="M19.773,37.77l2.377-1.493v2.971l-2.377,1.491Z" fill="#3b90b2"/>
    <path id="polygon83" d="M17.4,36.277l2.373-1.492,2.381,1.492L19.773,37.77Z" fill="url(#linear-gradient-15)"/>
    <path id="polygon85" d="M19.773,37.77v2.97L17.4,39.246v-2.97Z" fill="url(#linear-gradient-16)"/>
    <path id="path87" d="M19.773,38.012a.207.207,0,0,1-.112-.034l-2.376-1.492.223-.418,2.267,1.422,2.265-1.422.224.419-2.378,1.491A.208.208,0,0,1,19.773,38.012Z" fill="#0e7191"/>
    <path id="rect89" d="M19.55,37.77h.443v2.97h-.446Z" fill="#0e7191"/>
    <path id="path91" d="M19.773,40.981a.224.224,0,0,1-.112-.033l-2.376-1.492a.245.245,0,0,1-.112-.209v-2.97a.247.247,0,0,1,.111-.21l2.374-1.492a.209.209,0,0,1,.223,0l2.384,1.493a.245.245,0,0,1,.112.209v2.971a.245.245,0,0,1-.112.209l-2.378,1.492A.218.218,0,0,1,19.773,40.981ZM17.62,39.107l2.153,1.353,2.155-1.353V36.418l-2.159-1.353L17.62,36.416Z" fill="#464646"/>
    <path id="path93" d="M19.773,38.006a.226.226,0,0,1-.112-.034l-1.425-.9.223-.419,1.311.823,1.31-.823.224.419-1.429.9A.214.214,0,0,1,19.773,38.006Z" fill="#0e7191"/>
    <path id="rect95" d="M19.55,37.766h.443v1.782h-.446Z" fill="#0e7191"/>
    <path id="path902" d="M15.107,30.929V19.671H35.853V42.193H15.107ZM30.663,41.438h4.568L35.22,30.921,35.208,20.4l-9.717-.011-9.717-.011V30.9c0,5.787.014,10.537.033,10.557s2.34.023,5.161.007,7.182-.028,9.7-.028Z" fill="#464646"/>
  </g>
</svg>
