<svg id="Layer_1" data-name="Layer 1" xmlns="http://www.w3.org/2000/svg" xmlns:xlink="http://www.w3.org/1999/xlink" viewBox="0 0 48 48">
  <defs>
    <linearGradient id="linear-gradient" x1="4.75" y1="751.25" x2="43.25" y2="789.75" gradientTransform="translate(0 -744)" gradientUnits="userSpaceOnUse">
      <stop offset="0" stop-color="#fff"/>
      <stop offset="0.221" stop-color="#f8f8f8"/>
      <stop offset="0.541" stop-color="#e5e5e5"/>
      <stop offset="0.92" stop-color="#c6c6c6"/>
      <stop offset="1" stop-color="#bebebe"/>
    </linearGradient>
    <linearGradient id="linear-gradient-2" x1="7.75" y1="754.25" x2="40.25" y2="786.75" gradientTransform="translate(0 -744)" gradientUnits="userSpaceOnUse">
      <stop offset="0" stop-color="#fff"/>
      <stop offset="0.335" stop-color="#f8f8f8"/>
      <stop offset="0.82" stop-color="#e5e5e5"/>
      <stop offset="1" stop-color="#dcdcdc"/>
    </linearGradient>
    <linearGradient id="linear-gradient-3" x1="24" y1="753.5" x2="24" y2="744.5" gradientTransform="translate(0 -744)" gradientUnits="userSpaceOnUse">
      <stop offset="0" stop-color="#bebebe"/>
      <stop offset="0.045" stop-color="#c4c4c4"/>
      <stop offset="0.268" stop-color="#dedede"/>
      <stop offset="0.497" stop-color="#f0f0f0"/>
      <stop offset="0.736" stop-color="#fbfbfb"/>
      <stop offset="1" stop-color="#fff"/>
    </linearGradient>
    <linearGradient id="linear-gradient-4" x1="42.3" y1="809.914" x2="47.76" y2="816.734" gradientTransform="translate(-9.114 -582.22) scale(0.754 0.749)" gradientUnits="userSpaceOnUse">
      <stop offset="0" stop-color="#74b3c7"/>
      <stop offset="0.177" stop-color="#6badc2"/>
      <stop offset="0.464" stop-color="#539db4"/>
      <stop offset="0.822" stop-color="#2d839d"/>
      <stop offset="1" stop-color="#177490"/>
    </linearGradient>
    <linearGradient id="linear-gradient-5" x1="29.086" y1="809.692" x2="36.201" y2="817.895" xlink:href="#linear-gradient-4"/>
    <linearGradient id="linear-gradient-6" x1="54.822" y1="809.277" x2="61.624" y2="818.41" xlink:href="#linear-gradient-4"/>
    <linearGradient id="linear-gradient-7" x1="114.947" y1="-830.392" x2="121.319" y2="-840.615" gradientTransform="matrix(0.696, 0, 0, -0.691, -58.016, -559.493)" xlink:href="#linear-gradient-4"/>
    <linearGradient id="linear-gradient-8" x1="42.249" y1="820.76" x2="47.492" y2="827.08" xlink:href="#linear-gradient-4"/>
    <linearGradient id="linear-gradient-9" x1="23.72" y1="-373.72" x2="48.314" y2="-398.314" gradientTransform="matrix(1, 0, 0, -1, 0, -374)" gradientUnits="userSpaceOnUse">
      <stop offset="0" stop-color="#73b4c8"/>
      <stop offset="0.175" stop-color="#6caec3"/>
      <stop offset="0.457" stop-color="#549eb4"/>
      <stop offset="0.809" stop-color="#2f84a0"/>
      <stop offset="1" stop-color="#197492"/>
    </linearGradient>
  </defs>
  <g id="g907">
    <path id="rect13" d="M6.5,5.5h35v42H6.5Z" stroke="#464646" stroke-miterlimit="10" fill="url(#linear-gradient)"/>
    <path id="rect24" d="M9.5,8.5h29v36H9.5Z" stroke="#bebebe" stroke-miterlimit="10" fill="url(#linear-gradient-2)"/>
    <path id="path39" d="M30.5,4.5h-2v-1a3,3,0,0,0-3-3h-3a3,3,0,0,0-3,3v1h-2a2,2,0,0,0-2,2v3h17v-3A2,2,0,0,0,30.5,4.5Z" stroke="#464646" stroke-miterlimit="10" fill="url(#linear-gradient-3)"/>
    <path id="circle41" d="M25,4a1,1,0,1,1-1-1A1,1,0,0,1,25,4Z" fill="#464646"/>
    <path id="line53-7" d="M16.073,26.348H22.69" fill="none" stroke="#464646" stroke-miterlimit="10"/>
    <path id="line55-1" d="M25.256,26.348H31.8" fill="none" stroke="#464646" stroke-miterlimit="10"/>
    <path id="polyline59-7" d="M22.671,18.239H19.644V34.461h3.08" fill="none" stroke="#464646" stroke-miterlimit="13.533"/>
    <path id="rect45-0" d="M22.705,23.308h3.061v6.086H22.705Z" stroke="#147391" stroke-miterlimit="10" fill="url(#linear-gradient-4)"/>
    <path id="rect47-9" d="M12.5,22.294h4.081v8.111H12.5Z" stroke="#147391" stroke-miterlimit="10" fill="url(#linear-gradient-5)"/>
    <path id="rect49-4" d="M31.889,22.294H35.97v8.111H31.889Z" stroke="#147391" stroke-miterlimit="10" fill="url(#linear-gradient-6)"/>
    <path id="polyline57-5" d="M25.745,18.239h3.081V34.461H25.8" fill="none" stroke="#464646" stroke-miterlimit="13.533"/>
    <path id="rect43-8" d="M22.705,15.2h3.061V21.28H22.705Z" stroke="#147391" stroke-miterlimit="10" fill="url(#linear-gradient-7)"/>
    <path id="rect51-3" d="M22.705,31.417h3.061V37.5H22.705Z" stroke="#147391" stroke-miterlimit="10" fill="url(#linear-gradient-8)"/>
    <g id="g52">
      <g id="g44">
        <path id="circle40" d="M47.556,12A11.556,11.556,0,1,1,36,.444h0A11.556,11.556,0,0,1,47.556,12Z" fill="url(#linear-gradient-9)"/>
        <path id="path42" d="M36,24A12,12,0,1,1,48,12h0A12.019,12.019,0,0,1,36,24ZM36,.888A11.112,11.112,0,1,0,47.112,12h0A11.112,11.112,0,0,0,36,.888Z" fill="#474647"/>
      </g>
      <g id="g50">
        <path id="polygon46" d="M34.9,6.5l.061,2.772,1.849-.04-6.33,6.611,1.889,1.809L38.7,11.036l.041,1.848,2.773-.06-.142-6.471Z" fill="#fff"/>
        <path id="path48" d="M32.388,18.3l-2.557-2.448,5.878-6.139-1.2.027-.08-3.7,7.4-.161.161,7.4-3.7.08-.027-1.194Zm-1.25-2.476,1.221,1.168L39.143,9.91l.056,2.5,1.849-.04-.121-5.547-5.547.121.04,1.849,2.5-.053Z" fill="#197492"/>
      </g>
    </g>
  </g>
</svg>
