<svg id="Image" xmlns="http://www.w3.org/2000/svg" xmlns:xlink="http://www.w3.org/1999/xlink" viewBox="0 0 48 48">
  <defs>
    <linearGradient id="linear-gradient" x1="6.741" y1="756.814" x2="29.846" y2="779.919" gradientTransform="translate(0 -742)" gradientUnits="userSpaceOnUse">
      <stop offset="0" stop-color="#73b4c8"/>
      <stop offset="1" stop-color="#177491"/>
    </linearGradient>
    <linearGradient id="linear-gradient-2" x1="14.68" y1="757.301" x2="21.892" y2="764.515" gradientTransform="translate(0 -742)" gradientUnits="userSpaceOnUse">
      <stop offset="0" stop-color="#fff"/>
      <stop offset="1" stop-color="#bebdbd"/>
    </linearGradient>
    <linearGradient id="linear-gradient-3" x1="17.028" y1="769.335" x2="19.558" y2="771.865" xlink:href="#linear-gradient-2"/>
    <linearGradient id="linear-gradient-4" x1="-484.252" y1="1123.742" x2="-483.584" y2="1124.264" gradientTransform="translate(1140.762 -2545.249) scale(2.284)" gradientUnits="userSpaceOnUse">
      <stop offset="0" stop-color="#73b4c8"/>
      <stop offset="0.175" stop-color="#6aaec3"/>
      <stop offset="0.457" stop-color="#529eb5"/>
      <stop offset="0.809" stop-color="#2c839f"/>
      <stop offset="1" stop-color="#147391"/>
    </linearGradient>
    <linearGradient id="linear-gradient-5" x1="-489.401" y1="1132.169" x2="-479.447" y2="1135.485" gradientTransform="translate(1140.762 -2545.249) scale(2.284)" gradientUnits="userSpaceOnUse">
      <stop offset="0" stop-color="#fff"/>
      <stop offset="1" stop-color="#bebebe"/>
    </linearGradient>
    <linearGradient id="linear-gradient-6" x1="510.311" y1="-1351.246" x2="517.005" y2="-1357.94" gradientTransform="matrix(0.605, 0, 0, -0.605, -275.218, -789.246)" xlink:href="#linear-gradient-4"/>
    <linearGradient id="linear-gradient-7" x1="507.774" y1="-1363.5" x2="519.057" y2="-1374.784" gradientTransform="matrix(0.605, 0, 0, -0.605, -275.218, -789.246)" xlink:href="#linear-gradient-4"/>
    <linearGradient id="linear-gradient-8" x1="507.383" y1="-1371.767" x2="518.927" y2="-1383.31" gradientTransform="matrix(0.605, 0, 0, -0.605, -275.218, -789.246)" xlink:href="#linear-gradient-4"/>
  </defs>
  <path id="path21" d="M16.561,5.09,1.719,30.8a2,2,0,0,0,1.732,3H33.136a2,2,0,0,0,1.732-3L20.025,5.09a2,2,0,0,0-3.464,0Z" stroke="#177491" stroke-linecap="round" stroke-linejoin="round" fill="url(#linear-gradient)"/>
  <g id="g35">
    <g id="g27">
      <path id="path23" d="M16.5,24.335V13.73a.6.6,0,0,1,.6-.6h2.372a.6.6,0,0,1,.6.6h0V24.335Z" fill="url(#linear-gradient-2)"/>
      <path id="path25" d="M19.48,13.627a.1.1,0,0,1,.1.1h0V23.835H17V13.73a.1.1,0,0,1,.1-.1h2.38m0-1H17.107a1.1,1.1,0,0,0-1.1,1.1h0V24.835h4.578V13.73a1.1,1.1,0,0,0-1.1-1.1h0Z" fill="#6f6e6e"/>
    </g>
    <g id="g33">
      <path id="circle29" d="M20.082,28.6a1.789,1.789,0,1,1-1.789-1.789A1.789,1.789,0,0,1,20.082,28.6Z" fill="url(#linear-gradient-3)"/>
      <path id="path31" d="M18.293,27.314A1.289,1.289,0,1,1,17,28.6a1.289,1.289,0,0,1,1.293-1.286h0m0-1A2.289,2.289,0,1,0,20.582,28.6v0a2.289,2.289,0,0,0-2.289-2.289h0Z" fill="#6f6e6e"/>
    </g>
  </g>
  <path id="path935" d="M34.2,44.487a27.258,27.258,0,0,1-5.176-.767,7.5,7.5,0,0,1-1.068-.311c0-.025.727-2.386.736-2.4s.054.019.1.056c.808.571,3.045.994,5.808,1.1a31.811,31.811,0,0,0,3.194-.07,11.4,11.4,0,0,0,4.253-.978c.094-.059.132-.069.144-.037.04.117.631,2.323.622,2.33-.025.019-1.211.365-1.51.438A26.576,26.576,0,0,1,34.2,44.487Z" fill="#fff" stroke="#fff" stroke-miterlimit="3.659" stroke-width="0.129"/>
  <path id="path937" d="M34.021,36.641c-.528-.043-1.335-.151-1.9-.255-.474-.088-1.751-.4-1.834-.449a12.714,12.714,0,0,1,.6-2.122c.354-1.151.649-2.1.656-2.108a4,4,0,0,1,.519.124,13.065,13.065,0,0,0,7.507-.118c.066-.019.1.1.642,2.084.311,1.158.56,2.116.544,2.131a11.531,11.531,0,0,1-1.444.357c-.674.135-1.315.231-2.064.311A31,31,0,0,1,34.021,36.641Z" fill="#fff" stroke="#fff" stroke-miterlimit="3.659" stroke-width="0.224"/>
  <path id="path939" d="M34.633,28.353a13.953,13.953,0,0,1-1.96-.311c-.007-.008,1.41-4.663,1.468-4.823.01-.028.1-.009.311.061a3.491,3.491,0,0,0,1.264.207,4.036,4.036,0,0,0,1.373-.226,1.92,1.92,0,0,1,.233-.076s.3,1.1.663,2.423c.377,1.387.645,2.429.627,2.445a12.1,12.1,0,0,1-1.548.257A18.783,18.783,0,0,1,34.633,28.353Z" fill="#fff" stroke="#fff" stroke-miterlimit="3.659" stroke-width="0.224"/>
  <path id="path1132" d="M34.211,22.977c0-.017.07-.428.188-1.015a2.073,2.073,0,0,1,.6-1.244,1.128,1.128,0,0,1,1.373-.015,1.261,1.261,0,0,1,.622.8,9.837,9.837,0,0,1,.243,1.468c-.016.022-3.068-.044-3.087-.044s.026.053.026.046Z" fill="url(#linear-gradient-4)"/>
  <g id="g865">
    <g id="g867">
      <path id="rect828" d="M46.714,41.544a.447.447,0,0,0-.241-.048H42.612l1.141,3.151-16.728.208,1.19-3.372-3.123.025-2.731,6.328,25.5.1L46.78,41.716A.3.3,0,0,0,46.714,41.544Z" fill="#147391" stroke="#147391" stroke-linejoin="round" stroke-width="0.121"/>
    </g>
  </g>
  <path id="rect828-6" d="M46.253,41.9l-3.4-.02.622,3.305-16.01-.233.726-3.052h-2.62l-2.234,5.39,23.806.087Z" fill="url(#linear-gradient-5)"/>
  <path id="path1122" d="M33.99,21.646,27.176,43.857l.268.094a24.471,24.471,0,0,0,15.87-.024l.259-.093L37.542,21.687l-.353.009.009.588h-.1l5.751,21.137a23.886,23.886,0,0,1-14.924.021l6.5-21.184-.182-.008.028-.589Z" fill="#147391"/>
  <path id="path855" d="M35.78,20a1.68,1.68,0,0,0-1.326.678,2.414,2.414,0,0,0-.385.715c-.038.116-.082.235-.115.369-.023.092-.083.278-.12.421l.566.165c.033-.111.1-.3.132-.442.024-.1.061-.2.1-.321a1.769,1.769,0,0,1,.286-.539,1.07,1.07,0,0,1,.855-.456,1.106,1.106,0,0,1,.853.484,1.837,1.837,0,0,1,.281.548c.037.116.075.243.1.363.044.165.1.336.111.415l.581-.1a4.388,4.388,0,0,0-.122-.467c-.035-.132-.076-.265-.116-.388a2.454,2.454,0,0,0-.374-.726A1.694,1.694,0,0,0,35.78,20Z" fill="#147391"/>
  <path id="path1130" d="M37.4,22.45a4.007,4.007,0,0,1-1.66.415,3.1,3.1,0,0,1-1.624-.415l-.295.526a3.766,3.766,0,0,0,1.914.5,4.361,4.361,0,0,0,1.95-.5Z" fill="#147391"/>
  <path id="rect871" d="M43.218,43.151a1.2,1.2,0,0,1,1.058.021l.021.053-.132.175h-.808Z" fill="#147391"/>
  <path id="rect871-5" d="M27.71,43.144a1.2,1.2,0,0,0-1.061.023l-.023.052.134.176h.8Z" fill="#147391"/>
  <path id="path860" d="M34.644,31.721a18.372,18.372,0,0,1-2.7-.581l-.22-.067.249-.837c.137-.461.3-1.038.374-1.27.093-.311.145-.434.189-.434a4.155,4.155,0,0,1,.415.078,15.785,15.785,0,0,0,2.075.288,13.578,13.578,0,0,0,3.448-.285,3.665,3.665,0,0,1,.415-.069c.007.006.166.572.348,1.259a4.9,4.9,0,0,1,.284,1.277,14.779,14.779,0,0,1-2.357.563A13.465,13.465,0,0,1,34.644,31.721Z" stroke="#4d9ab2" stroke-linejoin="round" stroke-width="0.006" fill="url(#linear-gradient-6)"/>
  <path id="path862" d="M34.687,41.584c-2.617-.1-4.761-.5-5.538-1.007-.1-.069-.188-.148-.188-.182s.255-.943.567-2.027l.565-1.971.179.058c.4.129,1.373.366,1.9.464a18.4,18.4,0,0,0,8.1-.312c.4-.1.734-.173.74-.166.024.026,1.027,3.853,1.027,3.916,0,.083-.186.243-.437.363a13.178,13.178,0,0,1-4.108.812c-.605.043-2.3.079-2.8.06Z" stroke="#4d9ab2" stroke-linejoin="round" stroke-width="0.006" fill="url(#linear-gradient-7)"/>
  <path id="path866" d="M34.882,46.074a29.963,29.963,0,0,1-7.414-1.264c-.913-.277-.873-.249-.873-.663,0-.524.009-.53.534-.338a24.933,24.933,0,0,0,6.624,1.384,36.648,36.648,0,0,0,4.179-.065,44.172,44.172,0,0,0,5.609-1.244c.45-.156.633-.208.664-.166a.838.838,0,0,1,.05.415c0,.438.042.4-.779.686a23.421,23.421,0,0,1-8.595,1.265Z" stroke="#4d9ab2" stroke-linejoin="round" stroke-width="0.006" fill="url(#linear-gradient-8)"/>
  <path id="rect1019" d="M27.05,43.163a.651.651,0,0,0-.67.2.856.856,0,0,0-.227.585v.513a.748.748,0,0,0,.249.549,1.156,1.156,0,0,0,.459.236,28.93,28.93,0,0,0,17.206,0,1.3,1.3,0,0,0,.447-.231.746.746,0,0,0,.254-.549v-.518a.864.864,0,0,0-.227-.584.651.651,0,0,0-.669-.2A26.472,26.472,0,0,1,27.05,43.163Zm-.2.589a27.084,27.084,0,0,0,17.223,0c-.005,0-.025-.011.01.027a.323.323,0,0,1,.066.166v.512c0,.046,0,.043-.04.076a.775.775,0,0,1-.236.116,28.351,28.351,0,0,1-16.842,0,.623.623,0,0,1-.219-.1c-.037-.032-.04-.037-.04-.083v-.518a.309.309,0,0,1,.067-.165c.034-.037.014-.026.01-.027Z" fill="#147391"/>
  <path id="path857" d="M29.7,35.758,28.351,40.33v.061a.824.824,0,0,0,.281.534,2.065,2.065,0,0,0,.554.349,7.837,7.837,0,0,0,1.7.5,25.659,25.659,0,0,0,4.84.4,22.671,22.671,0,0,0,4.6-.455,6.424,6.424,0,0,0,1.534-.507,1.808,1.808,0,0,0,.484-.353.8.8,0,0,0,.228-.527v-.038l-1.212-4.509-.3.083a20.318,20.318,0,0,1-5.337.83,17.329,17.329,0,0,1-5.727-.83Zm.429.74a18.367,18.367,0,0,0,5.607.817,20.463,20.463,0,0,0,5.186-.8l1.037,3.829c0,.015,0,.035-.052.089a1.251,1.251,0,0,1-.322.227,6.035,6.035,0,0,1-1.379.451,22.219,22.219,0,0,1-4.471.441,24.99,24.99,0,0,1-4.721-.4,7.345,7.345,0,0,1-1.562-.451,1.6,1.6,0,0,1-.392-.241.174.174,0,0,1-.067-.1Z" fill="#147391"/>
  <path id="path874" d="M32.1,27.914,31,31.5l.285.083a13.866,13.866,0,0,0,4.46.74,14.831,14.831,0,0,0,4.191-.74l.273-.089-.986-3.548-.277.06a15.813,15.813,0,0,1-3.2.4,12.967,12.967,0,0,1-3.373-.415Zm.415.692a13.532,13.532,0,0,0,3.244.4,15.687,15.687,0,0,0,3.037-.375l.678,2.436a14.03,14.03,0,0,1-3.734.663,13.155,13.155,0,0,1-3.979-.663Z" fill="#147391"/>
</svg>
