<svg id="Layer_1" data-name="Layer 1" xmlns="http://www.w3.org/2000/svg" xmlns:xlink="http://www.w3.org/1999/xlink" viewBox="0 0 48 48">
  <defs>
    <linearGradient id="linear-gradient" x1="-77.088" y1="90.562" x2="-56.188" y2="89.118" gradientTransform="matrix(1.201, 0, 0, -1.201, 102.321, 123.966)" gradientUnits="userSpaceOnUse">
      <stop offset="0" stop-color="#73b4c8"/>
      <stop offset="0.175" stop-color="#6aaec3"/>
      <stop offset="0.457" stop-color="#529eb5"/>
      <stop offset="0.809" stop-color="#2c839f"/>
      <stop offset="1" stop-color="#147391"/>
    </linearGradient>
    <linearGradient id="linear-gradient-2" x1="-73.843" y1="90.539" x2="-58.169" y2="82.63" xlink:href="#linear-gradient"/>
    <linearGradient id="linear-gradient-3" x1="37.374" y1="11.054" x2="44.393" y2="6.054" gradientTransform="matrix(0.934, 0, 0, -0.934, -18.333, 18.647)" gradientUnits="userSpaceOnUse">
      <stop offset="0" stop-color="#b1b1b1"/>
      <stop offset="1" stop-color="#7d7d7d"/>
    </linearGradient>
    <linearGradient id="linear-gradient-4" x1="28.017" y1="2.04" x2="33.031" y2="-1.675" xlink:href="#linear-gradient-3"/>
    <linearGradient id="linear-gradient-5" x1="-70.324" y1="84.329" x2="-65.557" y2="81.688" gradientTransform="matrix(1.201, 0, 0, -1.201, 102.321, 123.966)" xlink:href="#linear-gradient-3"/>
    <linearGradient id="linear-gradient-6" x1="-271.717" y1="-524.849" x2="-269.649" y2="-524.849" gradientTransform="matrix(0.422, -0.294, -0.294, -0.422, 4.236, -305.876)" xlink:href="#linear-gradient-3"/>
    <linearGradient id="linear-gradient-7" x1="113.085" y1="1698.427" x2="126.329" y2="1708.728" gradientTransform="translate(-46.93 -460.411) scale(0.774 0.284)" gradientUnits="userSpaceOnUse">
      <stop offset="0" stop-color="#b0b0b0"/>
      <stop offset="1" stop-color="#7e7e7e"/>
    </linearGradient>
    <linearGradient id="linear-gradient-8" x1="-33.539" y1="729.695" x2="-17.009" y2="739.324" gradientTransform="translate(55.784 -803.22) scale(1.145 1.149)" gradientUnits="userSpaceOnUse">
      <stop offset="0" stop-color="#fff"/>
      <stop offset="0.248" stop-color="#f8f8f8"/>
      <stop offset="0.606" stop-color="#e5e5e5"/>
      <stop offset="1" stop-color="#c8c8c8"/>
    </linearGradient>
    <linearGradient id="linear-gradient-9" x1="-32.873" y1="725.408" x2="-15.38" y2="734.155" gradientTransform="translate(55.807 -803.22) scale(1.145 1.149)" xlink:href="#linear-gradient-8"/>
    <linearGradient id="linear-gradient-10" x1="113.085" y1="1698.427" x2="126.329" y2="1708.728" gradientTransform="translate(-46.562 -450.961) scale(0.774 0.284)" xlink:href="#linear-gradient-7"/>
    <linearGradient id="linear-gradient-11" x1="-27.194" y1="60.542" x2="-12.192" y2="68.054" gradientTransform="matrix(1.145, 0, 0, -1.149, 55.784, 106.52)" xlink:href="#linear-gradient-8"/>
    <linearGradient id="linear-gradient-12" x1="-29.143" y1="62.559" x2="-14.041" y2="70.018" gradientTransform="matrix(1.145, 0, 0, -1.149, 55.784, 106.52)" xlink:href="#linear-gradient-8"/>
  </defs>
  <g id="g1004">
    <path id="path855-4" d="M33.432,15.844c0,8.57-6.47,15.518-14.45,15.518S4.532,24.414,4.532,15.844,11,.325,18.982.325,33.432,7.273,33.432,15.844Z" stroke="#464646" stroke-linecap="round" stroke-miterlimit="10" stroke-width="0.5" fill="url(#linear-gradient)"/>
    <path id="rect6657-4" d="M8.848,22.34l-.781.11a.025.025,0,0,0-.024.031A.035.035,0,0,0,8,22.46l-.787.1a.025.025,0,0,0-.023.032l0-.013a.02.02,0,0,0-.021-.014l-.137.017a.012.012,0,0,0-.011.016l.09.291-.849.1L6.173,22.7a.044.044,0,0,0-.044-.028L4.485,22.8a.026.026,0,0,0-.023.036l.092.32-.86.064-.1-.353a.025.025,0,0,0-.022-.018l-.139.007a.015.015,0,0,0-.014.019l0,.017a.047.047,0,0,0-.041-.035l-.8.03a.027.027,0,0,0-.023.038.047.047,0,0,0-.043-.036l-.795.016c-.019,0-.03.019-.025.041a18.771,18.771,0,0,0,3.617,7.726A19.921,19.921,0,0,0,11.188,35.8a35.191,35.191,0,0,0,15.1,4.008c1.86.132,3,.154,3,.154s.008-.009.015-.013,1.7.07,4.256.043c1.84-.02,3.76-.094,5.818-.192V38.4l-.029-.24a.037.037,0,0,0-.038-.03l.067,0v-.172l-.412.021-.1-.838.322-.015a.029.029,0,0,0,.029-.034l-.2-1.608a.037.037,0,0,0-.038-.033l-.315.015-.1-.838.808-.04v-.167l-.514.024a.027.027,0,0,0,.028-.031l-.092-.777a.035.035,0,0,0-.036-.029l.614-.03v-.852c-2.495.121-4.765.212-6.933.216-2.725.006-4.52-.115-4.52-.115s-.007.01-.013.014-.4-.022-1.107-.074c-2.338-.2-8.09-.659-12.066-3.072A12.748,12.748,0,0,1,10.949,26.4a11.687,11.687,0,0,1-2.06-4.039.036.036,0,0,0-.041-.021Zm-1.686.7.5,1.339-.832.19-.115-.279a.042.042,0,0,0-.046-.023l-1.618.294a.027.027,0,0,0-.019.04l.119.312-.844.151-.563-1.651.857-.072.1.318a.044.044,0,0,0,.045.03l1.633-.212a.026.026,0,0,0,.024-.034l-.1-.29Zm1.1.1.288.743a.036.036,0,0,0-.041-.018l-.771.177a.026.026,0,0,0-.02.035l-.3-.79a.04.04,0,0,0,.041.023l.779-.138C8.26,23.164,8.271,23.151,8.266,23.136Zm-4.588.625.338,1a.045.045,0,0,0-.044-.03l-.79.107a.03.03,0,0,0-.02.041l-.341-1.041a.045.045,0,0,0,.042.033l.794-.068A.026.026,0,0,0,3.678,23.761ZM8.83,24.5l.351.7a.036.036,0,0,0-.043-.013l-.742.259a.026.026,0,0,0-.017.036l-.369-.749a.036.036,0,0,0,.043.018l.757-.218C8.826,24.531,8.836,24.517,8.83,24.5Zm-1.1.016.624,1.272-.8.281-.14-.265a.04.04,0,0,0-.047-.019l-1.572.468a.027.027,0,0,0-.015.041l.151.3-.821.241-.723-1.6.842-.161.13.308a.045.045,0,0,0,.048.027l1.6-.38A.028.028,0,0,0,7.021,25L6.9,24.72ZM4.348,25.6l.434.965a.046.046,0,0,0-.048-.025l-.77.192a.027.027,0,0,0-.015.041L3.5,25.761a.046.046,0,0,0,.046.03l.782-.151A.028.028,0,0,0,4.348,25.6Zm5.163.184.419.648a.037.037,0,0,0-.044-.009l-.7.345a.026.026,0,0,0-.013.038l-.44-.7a.035.035,0,0,0,.042.013l.726-.3a.025.025,0,0,0,.015-.036Zm-1.082.143.747,1.185-.762.376-.168-.248a.04.04,0,0,0-.049-.013l-1.5.649a.027.027,0,0,0-.011.042l.182.283-.783.338L5.2,27.011l.816-.251.161.3a.044.044,0,0,0,.05.021L7.76,26.52a.028.028,0,0,0,.017-.041l-.148-.261Zm1.89,1.035.482.592a.037.037,0,0,0-.045,0l-.655.431a.026.026,0,0,0-.008.039s-.378-.462-.483-.6l-.03-.038a.037.037,0,0,0,.045.007l.092-.051c.186-.105.591-.339.591-.339A.024.024,0,0,0,10.319,26.962Zm-1.054.275s.087.122.21.282c.248.329.661.805.661.805l-.707.468-.2-.227a.041.041,0,0,0-.05-.006l-1.4.833a.028.028,0,0,0-.007.044l.217.261-.733.436s-.223-.268-.459-.579c-.3-.392-.605-.851-.605-.851l.779-.348.192.278a.042.042,0,0,0,.051.015l1.457-.741a.027.027,0,0,0,.011-.041l-.175-.243ZM5.2,27.378l.534.921a.041.041,0,0,0-.048-.019l-.74.281c-.017.006-.021.024-.01.042l-.554-.972a.045.045,0,0,0,.048.024l.757-.234A.028.028,0,0,0,5.2,27.378Zm6.049.662.552.537a.034.034,0,0,0-.043,0l-.6.505a.027.027,0,0,0,0,.041l-.586-.58a.033.033,0,0,0,.044,0l.629-.469a.025.025,0,0,0,.007-.038Zm-1.009.4.994.988-.644.55-.22-.2a.041.041,0,0,0-.051,0l-1.285,1a.027.027,0,0,0,0,.044l.243.233-.669.524-1.22-1.289.726-.445.223.253a.043.043,0,0,0,.053.008l1.345-.92a.028.028,0,0,0,.007-.043l-.2-.222Zm2.065.58.614.482a.034.034,0,0,0-.044.006l-.537.572a.026.026,0,0,0,0,.039l-.65-.517a.037.037,0,0,0,.046,0l.568-.538a.027.027,0,0,0,0-.04Zm-6.065.054s.234.336.424.587c.118.155.217.277.217.277a.045.045,0,0,0-.051-.013l-.7.372c-.016.008-.017.029,0,.046,0,0-.056-.072-.134-.175-.2-.264-.533-.744-.533-.744a.045.045,0,0,0,.051.02l.72-.325A.029.029,0,0,0,6.239,29.071Zm5.11.457,1.1.881-.577.621-.241-.181a.039.039,0,0,0-.05,0L10.428,32a.029.029,0,0,0,0,.045l.268.2-.6.6L8.749,31.708l.662-.532.25.227a.041.041,0,0,0,.052,0l1.223-1.076a.029.029,0,0,0,0-.044l-.225-.2Zm2.12.362.663.422a.033.033,0,0,0-.042.011l-.47.624a.027.027,0,0,0,.005.041l-.7-.453a.033.033,0,0,0,.043-.008l.506-.6a.026.026,0,0,0,0-.039Zm-.891.609,1.191.77-.5.68-.26-.156a.039.039,0,0,0-.048.01l-1.017,1.27a.028.028,0,0,0,.009.044l.286.176-.526.666-1.457-.989.593-.608.272.2a.039.039,0,0,0,.051,0l1.09-1.211a.029.029,0,0,0,0-.044l-.245-.175Zm-5.1.146.736.78a.045.045,0,0,0-.053-.008l-.64.459c-.015.01-.014.03,0,.046l-.768-.828a.044.044,0,0,0,.052.013l.67-.417A.029.029,0,0,0,7.476,30.645Zm7.251.013.713.375a.033.033,0,0,0-.041.015l-.408.662a.029.029,0,0,0,.01.041l-.749-.4a.034.034,0,0,0,.043-.012l.438-.645a.027.027,0,0,0-.006-.04Zm1.345.671.753.315a.034.034,0,0,0-.041.018l-.347.7a.027.027,0,0,0,.013.039l-.785-.333a.033.033,0,0,0,.041-.015l.376-.68a.027.027,0,0,0-.01-.039Zm-2.166.019,1.269.672-.433.72-.271-.133a.038.038,0,0,0-.048.014l-.876,1.36a.029.029,0,0,0,.014.043l.3.148-.452.711s-.863-.44-1.289-.683c-.144-.083-.239-.14-.239-.14l.518-.672.143.084.146.084a.039.039,0,0,0,.051-.008l.944-1.321a.029.029,0,0,0-.008-.044l-.263-.15Zm3.581.542.786.262a.033.033,0,0,0-.039.021l-.291.721a.029.029,0,0,0,.018.038l-.818-.275a.034.034,0,0,0,.041-.019l.317-.71A.028.028,0,0,0,17.487,31.89Zm-8.607.17.814.689a.044.044,0,0,0-.053,0l-.578.534a.03.03,0,0,0,.006.046L8.22,32.6a.045.045,0,0,0,.053.007l.611-.5A.028.028,0,0,0,8.88,32.06Zm6.438.027,1.331.564-.368.756L16,33.3a.038.038,0,0,0-.046.018l-.744,1.431a.03.03,0,0,0,.018.042l.306.124-.383.747-1.57-.69.443-.714.3.139a.037.037,0,0,0,.049-.013l.81-1.4a.032.032,0,0,0-.013-.045l-.274-.126Zm3.645.268.817.214a.032.032,0,0,0-.038.023l-.238.742a.029.029,0,0,0,.02.038l-.846-.225a.033.033,0,0,0,.039-.021l.265-.733A.029.029,0,0,0,18.963,32.355Zm-2.165.353,1.382.467-.306.783-.292-.092a.037.037,0,0,0-.044.022l-.623,1.488a.032.032,0,0,0,.021.043l.314.1-.319.779-1.605-.57.375-.753.309.117a.036.036,0,0,0,.046-.016l.683-1.461a.031.031,0,0,0-.016-.043l-.286-.106Zm3.7.027.84.17a.033.033,0,0,0-.036.027l-.192.757a.028.028,0,0,0,.023.036l-.868-.179a.033.033,0,0,0,.038-.024l.215-.751A.027.027,0,0,0,20.494,32.735Zm1.574.3.859.136a.033.033,0,0,0-.036.026l-.148.771a.028.028,0,0,0,.025.034l-.884-.141a.032.032,0,0,0,.036-.026l.17-.764A.029.029,0,0,0,22.068,33.039Zm-3.732.184,1.426.379-.25.807-.3-.076a.038.038,0,0,0-.043.025l-.51,1.536a.03.03,0,0,0,.024.039l.319.082-.26.8-1.633-.462.313-.782.315.1a.038.038,0,0,0,.046-.021l.565-1.513a.033.033,0,0,0-.02-.043l-.294-.085Zm5.34.057.876.108a.033.033,0,0,0-.036.027l-.11.775a.03.03,0,0,0,.026.035l-.9-.11a.033.033,0,0,0,.036-.027l.13-.773A.029.029,0,0,0,23.676,33.28Zm-13.253.025.877.6a.04.04,0,0,0-.051,0l-.509.6a.03.03,0,0,0,.012.044l-.919-.632a.043.043,0,0,0,.053,0l.545-.567a.029.029,0,0,0-.008-.044Zm14.888.166.885.083a.033.033,0,0,0-.033.03l-.078.775a.033.033,0,0,0,.029.035l-.905-.086a.032.032,0,0,0,.035-.028l.093-.775A.029.029,0,0,0,25.311,33.471Zm1.652.147.891.056c-.008.005-.019.008-.02.018s-.013.005-.013.012l-.049.777c0,.013.01.021.021.026l-.007.007-.892-.058a.03.03,0,0,0,.033-.028l.064-.777a.03.03,0,0,0-.028-.033Zm-7.04.022,1.462.3-.2.822-.3-.058a.037.037,0,0,0-.041.026l-.409,1.571a.034.034,0,0,0,.028.039l.322.064-.205.82-1.649-.366.253-.8.32.076a.036.036,0,0,0,.044-.023L20,34.558a.032.032,0,0,0-.023-.041l-.3-.069Zm18.045,0a.03.03,0,0,0-.028.033l.085.775a.035.035,0,0,0,.035.03l-.925.039a.031.031,0,0,0,.03-.033l-.078-.777a.032.032,0,0,0-.034-.029Zm-1.7.065a.031.031,0,0,0-.029.033l.069.777a.033.033,0,0,0,.034.03l-.923.028a.029.029,0,0,0,.029-.031l-.057-.777a.035.035,0,0,0-.035-.032Zm-7.617.01.8.032c.007,0,.007-.01.013-.014l.064,0a.031.031,0,0,0-.033.029l-.02.777a.032.032,0,0,0,.03.033l-.91-.034c.008-.006.019-.009.02-.018s.012-.005.013-.012l.034-.779C28.666,33.724,28.656,33.721,28.649,33.715Zm5.922.038a.03.03,0,0,0-.03.031l.05.779a.032.032,0,0,0,.032.03l-.918.016a.029.029,0,0,0,.03-.031L33.7,33.8a.031.031,0,0,0-.033-.029Zm-4.268.005.9.015a.031.031,0,0,0-.031.031l0,.777a.033.033,0,0,0,.031.033L30.3,34.6a.03.03,0,0,0,.031-.03l.008-.779a.032.032,0,0,0-.031-.031Zm2.581.018a.031.031,0,0,0-.031.031l.027.779a.034.034,0,0,0,.033.031l-.916,0a.031.031,0,0,0,.031-.031l-.017-.779a.031.031,0,0,0-.031-.031Zm-11.337.2,1.49.239-.152.833L22.576,35a.037.037,0,0,0-.04.03l-.315,1.593a.032.032,0,0,0,.028.038l.325.049-.158.832-1.659-.28.2-.821.323.059a.036.036,0,0,0,.043-.026l.36-1.584a.031.031,0,0,0-.025-.039l-.3-.054Zm1.658.262,1.51.188-.114.838-.31-.035a.037.037,0,0,0-.04.03l-.233,1.608a.031.031,0,0,0,.03.036l.325.036-.115.838L22.6,37.571l.153-.831.325.044a.036.036,0,0,0,.041-.028l.273-1.6a.034.034,0,0,0-.028-.039l-.309-.041Zm-11.123.135.918.495a.038.038,0,0,0-.049.01l-.437.647a.031.031,0,0,0,.015.044s-.736-.393-.918-.5l-.041-.023a.039.039,0,0,0,.051-.007l.026-.032.447-.593a.032.032,0,0,0-.012-.045Zm12.8.071,1.523.141-.079.84-.312-.027a.034.034,0,0,0-.036.031l-.163,1.612a.031.031,0,0,0,.031.034l.324.027-.079.837L24.442,37.8l.112-.84.323.033a.036.036,0,0,0,.04-.03l.2-1.609a.034.034,0,0,0-.03-.038l-.31-.031Zm1.69.156.092.006c.331.025,1.449.091,1.449.091l-.046.826-.312-.016a.035.035,0,0,0-.036.033l-.1,1.611a.034.034,0,0,0,.033.035l.056,0c.005,0,.005.013.013.013l.253.013-.045.826-.346-.018a.018.018,0,0,0-.017.012s-.807-.048-1.146-.072l-.147-.01.076-.838.131.008.193.015a.034.034,0,0,0,.036-.031l.133-1.61a.033.033,0,0,0-.031-.036l-.207-.015-.105-.008Zm11.821.031.1.838-.316.013a.031.031,0,0,0-.029.036l.179,1.61a.037.037,0,0,0,.039.031l.321-.015.1.838-1.618.069-.082-.839L37.4,37.2a.031.031,0,0,0,.031-.034l-.163-1.612a.037.037,0,0,0-.037-.033l-.314.012-.081-.838Zm-1.726.069.079.839-.316.012a.031.031,0,0,0-.029.036l.143,1.612a.035.035,0,0,0,.037.031l.322-.012.081.84-1.623.051-.062-.841.321-.009a.03.03,0,0,0,.033-.032l-.125-1.614a.034.034,0,0,0-.036-.032l-.313.008-.061-.841Zm-8.319.01,1.094.044c.008,0,.011-.006.013-.013l.359.012-.017.839-.314-.01a.035.035,0,0,0-.034.035l-.043,1.613a.034.034,0,0,0,.035.033l.323.01-.016.841-1.567-.059.041-.827.323.015a.033.033,0,0,0,.036-.031L28.65,35.6a.032.032,0,0,0-.031-.036l-.054,0c-.005,0-.006-.013-.013-.013l-.245-.012Zm6.6.043.057.839-.313.008a.034.034,0,0,0-.033.035l.1,1.613a.036.036,0,0,0,.036.033l.322-.008.059.841-1.626.028-.039-.84.323,0a.031.031,0,0,0,.033-.033l-.082-1.613a.036.036,0,0,0-.036-.034l-.314,0-.038-.839Zm-4.964.005,1.536.024.011.841-.314,0a.035.035,0,0,0-.034.035l.011,1.614a.034.034,0,0,0,.035.033l.324,0,.011.841-1.634-.028.013-.841.323.008a.032.032,0,0,0,.035-.031l.016-1.615a.035.035,0,0,0-.034-.035L29.97,35.6Zm3.247.024.037.84-.316,0a.032.032,0,0,0-.031.035l.059,1.613a.036.036,0,0,0,.036.033l.322,0,.036.839-1.629,0-.015-.84h.324a.03.03,0,0,0,.032-.031l-.034-1.615a.036.036,0,0,0-.035-.034l-.313,0-.014-.841Zm-19.425.478.945.416a.038.038,0,0,0-.048.013l-.371.683a.032.032,0,0,0,.02.043l-.984-.437a.04.04,0,0,0,.051-.01l.4-.667a.029.029,0,0,0-.017-.041Zm1.77.741.964.345a.037.037,0,0,0-.046.017l-.311.714a.031.031,0,0,0,.023.04l-1-.36a.039.039,0,0,0,.048-.015l.34-.7A.03.03,0,0,0,15.575,36Zm1.8.611.979.28a.033.033,0,0,0-.042.019l-.255.738a.031.031,0,0,0,.025.039l-1.012-.29a.039.039,0,0,0,.046-.02l.281-.726a.031.031,0,0,0-.022-.04Zm1.83.493.989.22a.034.034,0,0,0-.041.023l-.2.756a.031.031,0,0,0,.026.038l-1.018-.23a.037.037,0,0,0,.044-.022l.227-.747A.031.031,0,0,0,19.208,37.106Zm1.845.386.995.169a.036.036,0,0,0-.041.025l-.156.769a.033.033,0,0,0,.03.036l-1.022-.174a.037.037,0,0,0,.043-.025l.179-.762A.033.033,0,0,0,21.053,37.492Zm1.853.294.994.123a.037.037,0,0,0-.04.028l-.115.774a.034.034,0,0,0,.032.036l-1.017-.126a.035.035,0,0,0,.039-.027l.135-.772A.032.032,0,0,0,22.906,37.786ZM24.754,38l.989.085a.035.035,0,0,0-.038.028l-.079.777a.031.031,0,0,0,.031.033l-1.008-.085a.036.036,0,0,0,.039-.028l.1-.777A.031.031,0,0,0,24.754,38Zm1.837.144.982.063c-.008.005-.021.006-.021.016s-.015.006-.015.013l-.05.776a.034.034,0,0,0,.033.034l-1-.062a.036.036,0,0,0,.038-.03l.064-.775a.035.035,0,0,0-.031-.035Zm11.883.023a.031.031,0,0,0-.03.033l.087.775a.036.036,0,0,0,.038.03l-.977.043a.032.032,0,0,0,.031-.033l-.081-.777a.034.034,0,0,0-.036-.03Zm-1.8.073a.029.029,0,0,0-.031.031l.07.777a.036.036,0,0,0,.036.031l-.98.031a.032.032,0,0,0,.031-.033l-.061-.777a.036.036,0,0,0-.036-.031Zm-8.225.009.9.035c.008,0,.012,0,.015-.012l.051,0a.033.033,0,0,0-.035.03l-.02.778a.032.032,0,0,0,.033.032l-.995-.038c.008-.005.019-.007.02-.017s.014-.006.014-.013l.035-.777c0-.01-.011-.013-.018-.019Zm6.416.042a.031.031,0,0,0-.031.032l.053.777a.033.033,0,0,0,.034.032l-.984.016a.031.031,0,0,0,.033-.031l-.041-.779a.033.033,0,0,0-.036-.029Zm-4.606.006.977.017a.029.029,0,0,0-.032.029l0,.779a.033.033,0,0,0,.034.031l-.992-.016a.032.032,0,0,0,.034-.03l.007-.779a.032.032,0,0,0-.033-.031Zm2.794.02a.032.032,0,0,0-.033.031l.03.779a.035.035,0,0,0,.036.031l-.989,0a.031.031,0,0,0,.033-.032l-.018-.778a.033.033,0,0,0-.034-.031Z" fill="#464646"/>
    <path id="path855" d="M29.149,15.769c0,8.57-6.469,15.518-14.45,15.518h0C6.719,31.287.25,24.339.25,15.769h0C.25,7.2,6.719.25,14.7.25S29.149,7.2,29.149,15.769Z" stroke="#464646" stroke-linecap="round" stroke-miterlimit="10" stroke-width="0.5" fill="url(#linear-gradient-2)"/>
    <path id="path929" d="M17.217,11.257a4.708,4.708,0,0,0-2.332-.8l-.179-.021V5.449l.31.021a8.961,8.961,0,0,1,3.678,1,9.826,9.826,0,0,1,3.593,3.242,3.475,3.475,0,0,1,.216.338c-.14.115-3.791,2.719-3.812,2.719A9.331,9.331,0,0,0,17.217,11.257Z" stroke="#464646" stroke-linecap="round" stroke-width="0.561" fill="url(#linear-gradient-3)"/>
    <path id="path931" d="M6.572,20.943A10.694,10.694,0,0,1,5.515,12.65a5.6,5.6,0,0,1,.8-1.884c.025.014.951.589,2.058,1.278L10.38,13.3l-.129.32A5.5,5.5,0,0,0,9.9,16.079a5.579,5.579,0,0,0,.676,2.211l.144.246L8.807,19.913c-1.05.758-1.931,1.387-1.959,1.4S6.721,21.2,6.572,20.943Z" stroke="#464646" stroke-linecap="round" stroke-width="0.561" fill="url(#linear-gradient-4)"/>
    <path id="path933" d="M14.769,24.211c-.014-.792-.025-1.889-.025-2.437v-1l.4-.045A4.732,4.732,0,0,0,18.414,18.8c.135-.181.25-.328.256-.328s3.858,2.407,3.893,2.439a7.244,7.244,0,0,1-.844,1.265A9.263,9.263,0,0,1,15.21,25.63l-.416.023Z" stroke="#464646" stroke-linecap="round" stroke-width="0.561" fill="url(#linear-gradient-5)"/>
    <path id="path967" d="M15.235,16.568l-.832-.391-.832-.391.754-.525.755-.525.077.916Z" stroke="#464646" stroke-linecap="round" stroke-miterlimit="4.804" stroke-width="0.372" fill="url(#linear-gradient-6)"/>
    <path id="rect989" d="M24.551,45.853h.328a.742.742,0,0,1,.742.742v.661a.742.742,0,0,1-.739.744h-.331a.743.743,0,0,1-.744-.741V46.6a.743.743,0,0,1,.74-.744Z" fill="#464646"/>
    <path id="rect991" d="M38.281,45.773h.165a.821.821,0,0,1,.823.821v.5a.823.823,0,0,1-.819.826h-.169a.825.825,0,0,1-.824-.824v-.5a.823.823,0,0,1,.821-.826Z" fill="#464646"/>
    <path id="rect1379" d="M29.841,18.55H46.589c.03,0,.056.008.056.019h0V24.6c0,.011-.025.019-.056.019H29.841c-.031,0-.055-.008-.055-.019h0V18.569C29.786,18.558,29.81,18.55,29.841,18.55Z" stroke="#464646" stroke-linecap="round" stroke-miterlimit="10" stroke-width="1.1" fill="url(#linear-gradient-7)"/>
    <path id="rect1404" d="M34.041,25.2H36.18a.063.063,0,0,1,.063.062v.908a.063.063,0,0,1-.063.063H34.041a.063.063,0,0,1-.063-.063h0v-.908a.062.062,0,0,1,.062-.062Z" fill="#464646" stroke="#464646" stroke-linecap="round" stroke-miterlimit="10" stroke-width="0.429"/>
    <path id="rect945-96-3-0" d="M17.266,19.2l1.145-.268a.068.068,0,0,1,.08.044l6.055,17.786a.056.056,0,0,1-.035.072l-.006,0L23.37,37.1a.069.069,0,0,1-.081-.044L17.23,19.271a.056.056,0,0,1,.031-.072Z" fill="#464646"/>
    <path id="rect1404-5-1-8" d="M16.209,19.2h2.14a.062.062,0,0,1,.062.062h0v.908a.062.062,0,0,1-.061.063H16.209a.063.063,0,0,1-.063-.063h0v-.908A.063.063,0,0,1,16.209,19.2Z" fill="#464646" stroke="#464646" stroke-linecap="round" stroke-miterlimit="10" stroke-width="0.429"/>
    <path id="rect925-0-1" d="M23.845,40.525l17.932.052-.461,5.377H21.43Z" stroke="#464646" stroke-linecap="round" stroke-linejoin="round" stroke-width="1.106" fill="url(#linear-gradient-8)"/>
    <path id="rect925-0" d="M29.775,35.037l16.653.064-4.781,6.525H23.132Z" stroke="#464646" stroke-linecap="round" stroke-linejoin="round" stroke-width="1.106" fill="url(#linear-gradient-9)"/>
    <path id="rect1072-8-4-4-0" d="M23.188,35.825l6.655-6.857-.094,6.226L23.1,42.051Z" fill="#32859e" stroke="#464646" stroke-linecap="round" stroke-linejoin="round" stroke-width="1.443"/>
    <path id="rect1379-5" d="M30.209,28H46.957c.031,0,.056.008.056.018h0v6.028c0,.01-.025.019-.056.019H30.209c-.03,0-.055-.009-.055-.019h0V28.019C30.154,28.008,30.179,28,30.209,28Z" stroke="#464646" stroke-linecap="round" stroke-miterlimit="10" stroke-width="1.1" fill="url(#linear-gradient-10)"/>
    <path id="rect1072-8-4-4-0-1" d="M41.951,35.083l5.231-6.958v6.137l-5.3,7.049Z" fill="#32859e" stroke="#464646" stroke-linecap="round" stroke-linejoin="round" stroke-width="1.338"/>
    <path id="rect925-0-1-6" d="M23.837,30.28l17.932.051-.458,5.377H21.423Z" stroke="#464646" stroke-linecap="round" stroke-linejoin="round" stroke-width="1.106" fill="url(#linear-gradient-11)"/>
    <path id="rect925-0-0" d="M29.749,24.791l16.652.065L41.616,31.38H23.106Z" stroke="#464646" stroke-linecap="round" stroke-linejoin="round" stroke-width="1.106" fill="url(#linear-gradient-12)"/>
    <path id="rect1072-8-4-4-0-9" d="M23.18,25.58l6.656-6.858-.087,6.226-6.66,6.858Z" fill="#32859e" stroke="#464646" stroke-linecap="round" stroke-linejoin="round" stroke-width="1.443"/>
    <path id="rect1072-8-4-4-0-1-9" d="M41.856,25.365l5.237-6.734v5.932l-5.308,6.765Z" fill="#32859e" stroke="#464646" stroke-linecap="round" stroke-linejoin="round" stroke-width="1.338"/>
    <path id="rect945-96-3" d="M37.456,19.107l1.135-.269a.069.069,0,0,1,.081.045l6.059,17.781a.056.056,0,0,1-.032.071l-.008,0-1.137.269a.07.07,0,0,1-.08-.045L37.422,19.18a.055.055,0,0,1,.03-.072Z" fill="#464646"/>
    <path id="rect1404-5-1" d="M36.391,19.113H38.53a.062.062,0,0,1,.063.061h0v.909a.062.062,0,0,1-.062.062h-2.14a.063.063,0,0,1-.063-.062v-.909A.064.064,0,0,1,36.391,19.113Z" fill="#464646" stroke="#464646" stroke-linecap="round" stroke-miterlimit="10" stroke-width="0.429"/>
    <path id="path5018" d="M44.907,36.234a.981.981,0,1,1-.957-1.178A1.089,1.089,0,0,1,44.907,36.234Z" fill="#464646"/>
    <path id="rect991-0" d="M46.131,36.063H46.3a.821.821,0,0,1,.823.821v.5a.822.822,0,0,1-.818.826h-.17a.823.823,0,0,1-.823-.824v-.5a.823.823,0,0,1,.821-.826Z" fill="#464646"/>
  </g>
</svg>
