<svg id="Image" xmlns="http://www.w3.org/2000/svg" xmlns:xlink="http://www.w3.org/1999/xlink" viewBox="0 0 48 48">
  <defs>
    <linearGradient id="linear-gradient" x1="2.086" y1="746.586" x2="43.5" y2="788" gradientTransform="translate(0 -742)" gradientUnits="userSpaceOnUse">
      <stop offset="0" stop-color="#fff"/>
      <stop offset="0.221" stop-color="#fbfbfc"/>
      <stop offset="0.541" stop-color="#ececec"/>
      <stop offset="0.92" stop-color="#d0cecd"/>
      <stop offset="1" stop-color="#c9c6c5"/>
    </linearGradient>
    <linearGradient id="linear-gradient-2" x1="93.664" y1="854.761" x2="106.43" y2="867.528" gradientTransform="translate(-62.374 -660.279) scale(0.788)" gradientUnits="userSpaceOnUse">
      <stop offset="0" stop-color="#cee6eb"/>
      <stop offset="0.221" stop-color="#c6e2e8"/>
      <stop offset="0.542" stop-color="#b3d8e1"/>
      <stop offset="0.921" stop-color="#93c7d4"/>
      <stop offset="1" stop-color="#8dc3d2"/>
    </linearGradient>
    <linearGradient id="linear-gradient-3" x1="84.952" y1="863.472" x2="102.375" y2="880.895" gradientTransform="translate(-62.374 -660.279) scale(0.788)" gradientUnits="userSpaceOnUse">
      <stop offset="0" stop-color="#afd7e1"/>
      <stop offset="0.159" stop-color="#a5d1dc"/>
      <stop offset="0.706" stop-color="#82bdcf"/>
      <stop offset="1" stop-color="#73b4c8"/>
    </linearGradient>
    <linearGradient id="linear-gradient-4" x1="39.261" y1="-10.272" x2="42.92" y2="-13.932" gradientTransform="matrix(0.95, 0, 0, -0.95, -15.9, 25.25)" gradientUnits="userSpaceOnUse">
      <stop offset="0" stop-color="#147391"/>
      <stop offset="0.191" stop-color="#2c839f"/>
      <stop offset="0.543" stop-color="#529eb5"/>
      <stop offset="0.825" stop-color="#6aaec3"/>
      <stop offset="1" stop-color="#73b4c8"/>
    </linearGradient>
    <linearGradient id="linear-gradient-5" x1="51.539" y1="-15.026" x2="51.539" y2="11.974" gradientTransform="matrix(0.95, 0, 0, -0.95, -15.9, 25.25)" gradientUnits="userSpaceOnUse">
      <stop offset="0" stop-color="#afd7e1"/>
      <stop offset="1" stop-color="#73b4c8"/>
    </linearGradient>
    <linearGradient id="linear-gradient-6" x1="53.039" y1="6.974" x2="53.039" y2="11.974" xlink:href="#linear-gradient-4"/>
  </defs>
  <g id="g1033">
    <g id="g39">
      <path id="path35" d="M1.5,43h45V10h-27L16.094,4.891A2,2,0,0,0,14.43,4H3.5a2,2,0,0,0-2,2Z" fill="url(#linear-gradient)"/>
      <path id="path37" d="M47,43.5H1V6A2.5,2.5,0,0,1,3.5,3.5H14.43a2.493,2.493,0,0,1,2.08,1.114L19.768,9.5H47Zm-45-1H46v-32H19.232L15.678,5.168A1.5,1.5,0,0,0,14.43,4.5H3.5A1.5,1.5,0,0,0,2,6Z" fill="#4e4a48"/>
    </g>
    <g id="g945">
      <path id="polygon41" d="M16.453,24.028,26.512,18.21V29.789L16.453,35.6Z" fill="#3f91af"/>
      <path id="polygon43" d="M6.394,18.21l10.042-5.817L26.512,18.21,16.453,24.028Z" fill="url(#linear-gradient-2)"/>
      <path id="polygon45" d="M16.453,24.028V35.6L6.394,29.788V18.21Z" fill="url(#linear-gradient-3)"/>
      <path id="path47" d="M16.453,24.421a.391.391,0,0,1-.2-.053L6.2,18.551l.394-.682,9.862,5.7,9.863-5.7.394.681L16.649,24.368A.384.384,0,0,1,16.453,24.421Z" fill="#177491"/>
      <path id="rect49" d="M16.058,24.027h.788V35.6h-.788Z" fill="#177491"/>
      <path id="path51" d="M16.453,36a.392.392,0,0,1-.2-.054L6.2,30.133a.4.4,0,0,1-.2-.342V18.21a.4.4,0,0,1,.2-.341l10.042-5.816a.391.391,0,0,1,.394,0L26.708,17.87a.394.394,0,0,1,.2.342V29.794a.392.392,0,0,1-.2.34L16.649,35.946A.385.385,0,0,1,16.453,36ZM6.788,29.561l9.665,5.59,9.666-5.589V18.438l-9.683-5.589L6.788,18.437Z" fill="#4e4a48"/>
    </g>
    <g id="g116">
      <path id="path73-5" d="M25.225,34.775H21.71a2.971,2.971,0,0,0-1.235,2.375,2.375,2.375,0,0,0,4.75,0Z" stroke="#464646" stroke-linejoin="round" stroke-width="0.95" fill="url(#linear-gradient-4)"/>
      <path id="path93" d="M43.275,37.15A2.352,2.352,0,0,1,40.9,39.525H22.85a2.352,2.352,0,0,0,2.375-2.375l-1.9-20.9A2.352,2.352,0,0,1,25.7,13.875h3.61l12.065,4.75Z" stroke="#464646" stroke-linejoin="round" stroke-width="0.95" fill="url(#linear-gradient-5)"/>
      <path id="path106" d="M40.9,13.875H25.7a2.375,2.375,0,1,1,0,4.75H40.9a2.375,2.375,0,0,0,0-4.75Z" stroke="#464646" stroke-linejoin="round" stroke-width="0.95" fill="url(#linear-gradient-6)"/>
      <path id="line108" d="M39,32.875H27.6" fill="none" stroke="#fff" stroke-linejoin="round" stroke-width="0.95"/>
      <path id="line110" d="M39,30.025H27.6" fill="none" stroke="#fff" stroke-linejoin="round" stroke-width="0.95"/>
      <path id="line112" d="M38.05,27.175H26.65" fill="none" stroke="#fff" stroke-linejoin="round" stroke-width="0.95"/>
      <path id="line114" d="M33.3,24.325H26.65" fill="none" stroke="#fff" stroke-linejoin="round" stroke-width="0.95"/>
    </g>
  </g>
</svg>
