<svg id="svg68" xmlns="http://www.w3.org/2000/svg" xmlns:xlink="http://www.w3.org/1999/xlink" viewBox="0 0 48 48">
  <defs>
    <linearGradient id="linear-gradient" x1="30.543" y1="782.73" x2="69.543" y2="821.73" gradientTransform="translate(-23.417 -715.403) scale(0.917)" gradientUnits="userSpaceOnUse">
      <stop offset="0" stop-color="#fff"/>
      <stop offset="1" stop-color="#dcdcdc"/>
    </linearGradient>
    <linearGradient id="linear-gradient-2" x1="-306.832" y1="-61.217" x2="-304.469" y2="-89.307" gradientTransform="matrix(0.715, -0.697, -0.699, -0.712, 199.83, -232.434)" gradientUnits="userSpaceOnUse">
      <stop offset="0" stop-color="#73b4c8"/>
      <stop offset="0.175" stop-color="#6aaec3"/>
      <stop offset="0.457" stop-color="#529eb5"/>
      <stop offset="0.809" stop-color="#2c839f"/>
      <stop offset="1" stop-color="#147391"/>
    </linearGradient>
  </defs>
  <g id="g926">
    <path id="rect9" d="M.579,2.454l42.842.231v33.9L.579,36.352Z" fill="url(#linear-gradient)"/>
    <path id="path11" d="M43,3.1V36H1V3H43m1-1H0V37H44Z" fill="#6f6e6e"/>
    <g id="g19">
      <path id="line15" d="M4.492,9.948H23.008" fill="none" stroke="#177491" stroke-miterlimit="3.667" stroke-width="1"/>
      <path id="line17" d="M4.492,13.341H17.114" fill="none" stroke="#177491" stroke-miterlimit="3.667" stroke-width="1"/>
    </g>
    <g id="g25">
      <path id="path21" d="M30.686,12.42,28.417,9.43l-2.292,2.109,4.536,6.19L38.592,6.87,36.328,4.813" fill="#0e7191"/>
      <path id="polygon23" d="M27.338,11.482l.832-.685,2.567,3.464L36.42,6.54l.825.7L30.737,16.1Z" fill="#3b90b2"/>
    </g>
    <path id="rect956" d="M4.583,25.014V31.43H11V25.014Zm.917.916h4.583v4.584H5.5Z" fill="#0e7191"/>
    <path id="path974" d="M6.417,26.847l2.75,2.75" fill="none" stroke="#0e7191"/>
    <path id="path974-6" d="M9.167,26.755l-2.75,2.75" fill="none" stroke="#177491"/>
    <path id="rect956-7" d="M22.917,25.014V31.43h6.416V25.014Zm.916.916h4.584v4.584H23.833Z" fill="#177491"/>
    <path id="rect1006" d="M13.75,25.014h6.417V31.43H13.75Z" fill="#177491"/>
    <path id="rect1026" d="M23.43,25.6h2.7v2.619h-2.7Z" fill="#0e7191"/>
    <path id="rect1026-5" d="M26.125,28.216h2.516v2.413H26.125Z" fill="#0e7191"/>
    <path id="rect956-7-4" d="M32.083,25.014V31.43H38.5V25.014ZM33,25.93h4.583v4.584H33Z" fill="#177491"/>
    <path id="rect1026-1" d="M33,25.93h.917v.917H33Z" fill="#177491"/>
    <path id="rect1026-1-3" d="M34.833,25.93h.917v.917h-.917Z" fill="#177491"/>
    <path id="rect1026-1-2" d="M36.667,25.93h.916v.917h-.916Z" fill="#177491"/>
    <path id="rect1026-1-1" d="M33.917,26.847h.916v.917h-.916Z" fill="#177491"/>
    <path id="rect1026-1-3-6" d="M35.75,26.847h.917v.917H35.75Z" fill="#177491"/>
    <path id="rect1026-1-8" d="M33,27.764h.917v.916H33Z" fill="#177491"/>
    <path id="rect1026-1-3-7" d="M34.833,27.764h.917v.916h-.917Z" fill="#177491"/>
    <path id="rect1026-1-2-5" d="M36.667,27.764h.916v.916h-.916Z" fill="#177491"/>
    <path id="rect1026-1-1-8" d="M33.917,28.68h.916V29.6h-.916Z" fill="#177491"/>
    <path id="rect1026-1-3-6-3" d="M35.75,28.68h.917V29.6H35.75Z" fill="#177491"/>
    <path id="rect1026-1-36" d="M33,29.6h.917v.917H33Z" fill="#177491"/>
    <path id="rect1026-1-3-61" d="M34.833,29.6h.917v.917h-.917Z" fill="#177491"/>
    <path id="rect1026-1-2-3" d="M36.667,29.6h.916v.917h-.916Z" fill="#177491"/>
    <ellipse id="circle85" cx="34.969" cy="35.018" rx="12.502" ry="12.454" fill="url(#linear-gradient-2)" stroke-linecap="round" stroke-linejoin="round" stroke-width="1" stroke="#464646"/>
    <path id="polygon87" d="M34.537,38.423l3.386,3.519,3.418-3.486-1.293-1.009L38.8,38.7l.034-7.062-1.754-.009.012,7-1.243-1.306Z" fill="#fff" stroke="#147391" stroke-width="0.708"/>
    <path id="path28-4" d="M32.721,24.271,30.357,27.91l3.778,2.18.6-.92-2.32-1.338c9.62-2.889,16,8.988,8.024,14.9S22.009,39.893,27.326,31.7a8.073,8.073,0,0,1,1.7-1.948l-.871-.824a8.84,8.84,0,0,0-1.779,2.121,9.288,9.288,0,0,0,3.217,13.23,10.554,10.554,0,0,0,13.976-3.314,9.28,9.28,0,0,0-3.216-13.233,10.392,10.392,0,0,0-7.918-.994l1.246-1.92Z" fill="#fff" stroke="#147391" stroke-width="1.147"/>
    <path id="path28" d="M32.756,24.244l-2.368,3.638.516.311,3.268,1.885.6-.922-2.328-1.343c9.645-2.9,16.044,9.007,8.051,14.939S22.018,39.808,27.346,31.6a8.77,8.77,0,0,1,1.58-1.864l-.77-.742a10.983,10.983,0,0,0-1.767,2.053,9.316,9.316,0,0,0,3.224,13.268,10.584,10.584,0,0,0,14.015-3.324A9.3,9.3,0,0,0,40.4,27.719a10.418,10.418,0,0,0-7.941-1L33.713,24.8Z" fill="#fff"/>
    <path id="polygon87-9" d="M28.514,35.125,31.9,31.606l3.419,3.486L34.025,36.1l-1.253-1.253.034,7.062-1.754.009.012-7L29.822,36.22Z" fill="#fff" stroke="#147391" stroke-width="0.708"/>
  </g>
</svg>
