<svg id="svg8" xmlns="http://www.w3.org/2000/svg" xmlns:xlink="http://www.w3.org/1999/xlink" viewBox="0 0 48 48">
  <defs>
    <linearGradient id="linear-gradient" x1="-614.25" y1="952.305" x2="-613.425" y2="952.949" gradientTransform="translate(2343.54 -3597.482) scale(3.78)" gradientUnits="userSpaceOnUse">
      <stop offset="0" stop-color="#73b4c8"/>
      <stop offset="0.175" stop-color="#6aaec3"/>
      <stop offset="0.457" stop-color="#529eb5"/>
      <stop offset="0.809" stop-color="#2c839f"/>
      <stop offset="1" stop-color="#147391"/>
    </linearGradient>
    <linearGradient id="linear-gradient-2" x1="-618.755" y1="960.313" x2="-608.801" y2="963.629" gradientTransform="translate(2343.54 -3597.482) scale(3.78)" gradientUnits="userSpaceOnUse">
      <stop offset="0" stop-color="#fff"/>
      <stop offset="1" stop-color="#bebebe"/>
    </linearGradient>
    <linearGradient id="linear-gradient-3" x1="-640.79" y1="-868.309" x2="-637.481" y2="-871.618" gradientTransform="matrix(2.238, 0, 0, -2.238, 1453.564, -1931.115)" xlink:href="#linear-gradient"/>
    <linearGradient id="linear-gradient-4" x1="-641.999" y1="-873.289" x2="-636.476" y2="-878.814" gradientTransform="matrix(2.238, 0, 0, -2.238, 1453.564, -1931.115)" xlink:href="#linear-gradient"/>
    <linearGradient id="linear-gradient-5" x1="-642.472" y1="-876.447" x2="-636.12" y2="-882.797" gradientTransform="matrix(2.238, 0, 0, -2.238, 1453.564, -1931.115)" xlink:href="#linear-gradient"/>
  </defs>
  <g id="g914">
    <path id="path872" d="M20.746,3.763,10.576,37.322l14.187,2.034,10.169-1.068-8.9-34.83Z" fill="#fff"/>
    <path id="path1132" d="M20.933,4.713c0-.026.108-.665.291-1.573a3.225,3.225,0,0,1,.926-1.928,1.752,1.752,0,0,1,2.128-.023,1.954,1.954,0,0,1,.967,1.246,15.632,15.632,0,0,1,.376,2.274c-.024.038-4.752-.069-4.788-.069-.01,0,.04.079.04.076Z" fill="url(#linear-gradient)"/>
    <g id="g865">
      <g id="g867">
        <path id="rect828" d="M40.321,33.5a.7.7,0,0,0-.378-.072H33.957l1.77,4.886L9.8,38.648l1.844-5.227L6.8,33.459l-4.24,9.8,39.539.166L40.43,33.767A.479.479,0,0,0,40.321,33.5Z" fill="#147391" stroke="#147391" stroke-linejoin="round" stroke-width="0.202"/>
      </g>
    </g>
    <path id="rect828-6" d="M39.6,34.051l-5.267-.034.964,5.124L10.476,38.78,11.6,34.048H7.538L4.076,42.41l36.915.135Z" fill="url(#linear-gradient-2)"/>
    <path id="path1122" d="M20.592,2.65,10.028,37.094l.415.145A37.931,37.931,0,0,0,35.05,37.2l.4-.145L26.1,2.71l-.546.015.014.913H25.4l8.924,32.776a37.06,37.06,0,0,1-23.141.03L21.256,3.6l-.277-.016.042-.913Z" fill="#147391"/>
    <path id="path855" d="M23.366.1A2.6,2.6,0,0,0,21.3,1.149a3.741,3.741,0,0,0-.6,1.107c-.061.182-.128.367-.179.574-.036.141-.128.431-.191.651l.879.253c.049-.173.15-.469.2-.686.037-.149.1-.31.159-.5a2.8,2.8,0,0,1,.443-.837,1.668,1.668,0,0,1,1.328-.7,1.7,1.7,0,0,1,1.321.747,2.825,2.825,0,0,1,.436.851c.058.182.116.374.166.56.069.256.151.521.173.64l.895-.151c-.05-.272-.133-.539-.182-.725-.055-.208-.118-.41-.18-.6A3.815,3.815,0,0,0,25.4,1.2,2.622,2.622,0,0,0,23.366.1Z" fill="#147391"/>
    <path id="path1130" d="M25.884,3.9a6.164,6.164,0,0,1-2.574.65,4.805,4.805,0,0,1-2.518-.65l-.456.817a5.847,5.847,0,0,0,2.968.767,6.808,6.808,0,0,0,3.023-.767Z" fill="#147391"/>
    <path id="rect871-5" d="M10.846,35.987a1.847,1.847,0,0,0-1.64.034l-.036.08.207.27h1.249Z" fill="#147391"/>
    <path id="path860" d="M21.6,18.272a28.1,28.1,0,0,1-4.187-.9l-.34-.1.384-1.3c.212-.715.473-1.6.581-1.972.142-.489.223-.674.292-.674.053,0,.34.058.638.119a23.728,23.728,0,0,0,3.217.446,21.242,21.242,0,0,0,5.347-.441,4.176,4.176,0,0,1,.648-.1c.009.011.251.887.537,1.951a7.582,7.582,0,0,1,.446,1.983,22.939,22.939,0,0,1-3.656.874,20.574,20.574,0,0,1-3.907.117Z" stroke="#4d9ab2" stroke-linejoin="round" stroke-width="0.008" fill="url(#linear-gradient-3)"/>
    <path id="path862" d="M21.671,33.567c-4.057-.167-7.381-.772-8.588-1.562-.16-.1-.291-.232-.291-.278s.4-1.463.879-3.145l.878-3.056.277.085c.622.2,2.13.569,2.946.719a26.92,26.92,0,0,0,5.33.475,26.826,26.826,0,0,0,7.228-.967c.62-.153,1.137-.266,1.148-.253.037.042,1.592,5.975,1.592,6.073,0,.132-.29.373-.68.562a20.429,20.429,0,0,1-6.369,1.258c-.936.072-3.562.121-4.35.09Z" stroke="#4d9ab2" stroke-linejoin="round" stroke-width="0.008" fill="url(#linear-gradient-4)"/>
    <path id="path866" d="M21.973,40.529a46.527,46.527,0,0,1-11.5-1.959c-1.417-.43-1.354-.382-1.354-1.029,0-.811.015-.822.829-.526a38.6,38.6,0,0,0,10.266,2.146,58.147,58.147,0,0,0,6.481-.1,39.347,39.347,0,0,0,8.7-1.931c.7-.238.98-.314,1.035-.26a1.318,1.318,0,0,1,.077.637c0,.68.067.622-1.208,1.065a36.327,36.327,0,0,1-13.328,1.961Z" stroke="#4d9ab2" stroke-linejoin="round" stroke-width="0.008" fill="url(#linear-gradient-5)"/>
    <path id="rect1019" d="M9.827,36.015a1.017,1.017,0,0,0-1.037.3,1.318,1.318,0,0,0-.353.906v.8a1.16,1.16,0,0,0,.387.851,1.793,1.793,0,0,0,.713.368c8.781,2.506,18.059,2.9,26.682-.007a2.041,2.041,0,0,0,.692-.363,1.16,1.16,0,0,0,.394-.85v-.8a1.318,1.318,0,0,0-.353-.906,1.013,1.013,0,0,0-1.037-.3,41.06,41.06,0,0,1-26.088,0Zm-.311.913a41.979,41.979,0,0,0,26.71,0c-.007,0-.039-.019.014.044a.518.518,0,0,1,.1.253v.8c0,.071,0,.068-.062.115a1.229,1.229,0,0,1-.366.182c-8.4,2.829-17.481,2.457-26.115-.007a.945.945,0,0,1-.339-.16c-.058-.054-.062-.062-.062-.13v-.8a.461.461,0,0,1,.1-.253c.053-.061.021-.042.014-.044Z" fill="#147391"/>
    <path id="path857" d="M13.937,24.531l-2.089,7.091v.09a1.266,1.266,0,0,0,.435.829,3.093,3.093,0,0,0,.858.54,11.985,11.985,0,0,0,2.643.775,39.848,39.848,0,0,0,7.506.623,35.3,35.3,0,0,0,7.139-.706,10.187,10.187,0,0,0,2.38-.789,2.781,2.781,0,0,0,.754-.546,1.234,1.234,0,0,0,.352-.817v-.064L32.027,24.57l-.464.122a31.505,31.505,0,0,1-8.273,1.28,26.827,26.827,0,0,1-8.876-1.28ZM14.6,25.68a28.468,28.468,0,0,0,8.7,1.266,31.759,31.759,0,0,0,8.038-1.239l1.6,5.936c0,.026-.006.058-.083.137a2.05,2.05,0,0,1-.5.356,9.509,9.509,0,0,1-2.138.7,34.469,34.469,0,0,1-6.938.685,39.05,39.05,0,0,1-7.312-.609,11.537,11.537,0,0,1-2.422-.7,2.306,2.306,0,0,1-.608-.374c-.091-.081-.1-.12-.1-.152Z" fill="#147391"/>
    <path id="path874" d="M17.652,12.37l-1.7,5.555.443.13A21.542,21.542,0,0,0,23.31,19.2a23.111,23.111,0,0,0,6.5-1.149l.422-.138-1.529-5.5-.428.093a24.163,24.163,0,0,1-4.961.616,20.09,20.09,0,0,1-5.229-.643Zm.643,1.072a21.045,21.045,0,0,0,5.029.616,24.338,24.338,0,0,0,4.711-.582l1.052,3.778a21.922,21.922,0,0,1-5.79,1.024,20.448,20.448,0,0,1-6.171-1.024Z" fill="#147391"/>
    <path id="path1002" d="M47.481,34.976A12.516,12.516,0,0,1,35.024,47.433h0A12.516,12.516,0,0,1,22.567,34.976h0a12.457,12.457,0,0,1,24.914,0Z" fill="#4694af" fill-rule="evenodd"/>
    <path id="path1004" d="M35.024,23.125A11.858,11.858,0,1,1,23.172,34.976,11.834,11.834,0,0,1,35.024,23.125Zm0-1.125c-11.592,0-17.388,14.014-9.17,22.146C33.986,52.364,48,46.568,48,34.976A12.959,12.959,0,0,0,35.024,22Z" fill="#464646"/>
    <path id="path1006" d="M37.187,40.513l1.47-.866,2.509,4.412-1.471.865Z" fill="#fff"/>
    <path id="path1008" d="M39.7,38.609l.779-1.47,4.412,2.595-.865,1.471Z" fill="#fff"/>
    <path id="path1010" d="M25.162,30.218l.865-1.47,4.326,2.508-.866,1.471Z" fill="#fff"/>
    <path id="path1012" d="M25.162,39.734l4.325-2.595.866,1.47-4.326,2.6Z" fill="#fff"/>
    <path id="path1014" d="M34.159,23.99h1.73v5.017h-1.73Z" fill="#fff"/>
    <path id="path1016" d="M34.159,40.859h1.73v5.1h-1.73Z" fill="#fff"/>
    <path id="path1018" d="M28.882,25.806l1.384-.778,2.509,4.325-1.384.865Z" fill="#fff"/>
    <path id="path1020" d="M28.882,44.059l2.509-4.412,1.384.866-2.509,4.411Z" fill="#fff"/>
    <path id="path1022" d="M24.124,34.111h5.017v1.644H24.124Z" fill="#fff"/>
  </g>
</svg>
