<svg id="Image" xmlns="http://www.w3.org/2000/svg" xmlns:xlink="http://www.w3.org/1999/xlink" viewBox="0 0 48 48">
  <defs>
    <linearGradient id="linear-gradient" x1="6.741" y1="35.186" x2="29.846" y2="12.081" gradientTransform="matrix(1, 0, 0, -1, 0, 50)" gradientUnits="userSpaceOnUse">
      <stop offset="0" stop-color="#73b4c8"/>
      <stop offset="1" stop-color="#177491"/>
    </linearGradient>
    <linearGradient id="linear-gradient-2" x1="14.68" y1="34.698" x2="21.892" y2="27.485" gradientTransform="matrix(1, 0, 0, -1, 0, 50)" gradientUnits="userSpaceOnUse">
      <stop offset="0" stop-color="#fff"/>
      <stop offset="1" stop-color="#bebdbd"/>
    </linearGradient>
    <linearGradient id="linear-gradient-3" x1="17.028" y1="22.662" x2="19.558" y2="20.132" xlink:href="#linear-gradient-2"/>
    <linearGradient id="linear-gradient-4" x1="232.998" y1="-253.508" x2="255.291" y2="-275.801" gradientTransform="matrix(0.561, 0, 0, -0.561, -102.496, -113.896)" gradientUnits="userSpaceOnUse">
      <stop offset="0" stop-color="#73b4c8"/>
      <stop offset="1" stop-color="#177492"/>
    </linearGradient>
  </defs>
  <g id="g887">
    <g id="g37">
      <path id="path21" d="M16.561,5.09,1.719,30.8a2,2,0,0,0,1.732,3H33.136a2,2,0,0,0,1.732-3L20.025,5.09a2,2,0,0,0-3.464,0Z" stroke="#177491" stroke-linecap="round" stroke-linejoin="round" fill="url(#linear-gradient)"/>
      <g id="g35">
        <g id="g27">
          <path id="path23" d="M16.5,24.335V13.73a.6.6,0,0,1,.6-.6h2.372a.6.6,0,0,1,.6.6h0V24.335Z" fill="url(#linear-gradient-2)"/>
          <path id="path25" d="M19.48,13.627a.1.1,0,0,1,.1.1h0V23.835H17V13.73a.1.1,0,0,1,.1-.1h2.38m0-1H17.107a1.1,1.1,0,0,0-1.1,1.1h0V24.835h4.578V13.73a1.1,1.1,0,0,0-1.1-1.1h0Z" fill="#6f6e6e"/>
        </g>
        <g id="g33">
          <path id="circle29" d="M20.082,28.6a1.789,1.789,0,1,1-1.789-1.789A1.789,1.789,0,0,1,20.082,28.6Z" fill="url(#linear-gradient-3)"/>
          <path id="path31" d="M18.293,27.314A1.289,1.289,0,1,1,17,28.6a1.289,1.289,0,0,1,1.293-1.286m0-1A2.289,2.289,0,1,0,20.582,28.6a2.289,2.289,0,0,0-2.293-2.289Z" fill="#6f6e6e"/>
        </g>
      </g>
    </g>
    <path id="rect9" d="M21.9,34.5,34.4,22,46.9,34.5,34.4,47Z" fill="url(#linear-gradient-4)"/>
    <path id="path11" d="M34.4,22.2,46.7,34.5,34.4,46.8,22.1,34.5M34.4,21,20.9,34.5,34.4,48,47.9,34.5Z" fill="#177491"/>
    <path id="polygon15" d="M29.276,33.542l-4.59.019v1.881l4.595-.02-1.926,1.926L28.5,38.495l4.018-4.018-4-3.972-1.142,1.151Z" fill="#fff"/>
    <path id="polygon17" d="M41.364,31.656l-1.142-1.151-4,3.972,4.017,4.018,1.147-1.147-1.925-1.926,4.594.02V33.561l-4.589-.02Z" fill="#fff"/>
    <path id="polygon19" d="M35.339,24.757H33.458l.02,4.594-1.926-1.925-1.147,1.147,4.018,4.018,3.972-4-1.151-1.142-1.886,1.9Z" fill="#fff"/>
    <path id="polygon21" d="M31.552,41.458l1.926-1.925-.02,4.594h1.881l.02-4.59,1.885,1.9L38.4,40.293l-3.972-4-4.018,4.017Z" fill="#fff"/>
  </g>
</svg>
