<svg id="svg4" xmlns="http://www.w3.org/2000/svg" viewBox="0 0 48 48">
  <g id="g922">
    <path id="path819" d="M10.305,13.9l2.064.007,2.063.006,2.064.007,2.063.006,2.064.006,2.063.007,2.064.006,2.064.007,2.063.006,2.064.006L33,13.969l2.064.006,2.063.007,2.064.006,2.063.006c1.6.023,1.951.435,1.6,1.68l-.466,1.674-.466,1.674L41.458,20.7l-.466,1.673-.467,1.674-.466,1.674c-.434,1.509-.614,1.7-2.055,1.843l-1.589.17-1.589.169-1.589.17-1.589.169-1.589.169-1.589.17-1.589.169-1.589.17-1.589.169-1.589.17-1.589.169-1.589.17-1.589.169-1.589.17-1.589.169Z" fill="none" stroke="#147391"/>
    <path id="path1245-0-0" d="M3.305,9.882l2.374,2.7" fill="none" stroke="#147391" stroke-width="1.8"/>
    <path id="path1228-5" d="M3.348,9.54,8,10.866" fill="none" stroke="#147391"/>
    <path id="path823" d="M4.743,9.841a1.26,1.26,0,1,1-1.26-1.26A1.26,1.26,0,0,1,4.743,9.841Z" fill="#6e6e6e" stroke="#147391" stroke-linecap="square" stroke-width="0.48"/>
    <path id="path825-6-8-0" d="M12.88,37.251a2.875,2.875,0,0,1-2.875,2.875h0A2.875,2.875,0,0,1,7.13,37.251h0a2.876,2.876,0,0,1,2.875-2.876h0a2.876,2.876,0,0,1,2.875,2.876Z" fill="#464646" stroke="#464646" stroke-linecap="square" stroke-width="0.25"/>
    <path id="rect895-9" d="M8.485,33.293h2.736v3.646H8.485Z" fill="#6e6e6e" stroke="#147391" stroke-linecap="square" stroke-width="0.264"/>
    <path id="path929-7-4-7" d="M11.233,37.283a1.351,1.351,0,0,1-2.7,0h0a1.351,1.351,0,0,1,1.35-1.351h0A1.351,1.351,0,0,1,11.233,37.283Z" fill="#3f91af" stroke="#6e6e6e" stroke-linecap="square" stroke-width="0.299"/>
    <path id="rect895" d="M10.628,35.7h2.741v3.672H10.628Z" fill="#6e6e6e" stroke="#147391" stroke-linecap="square" stroke-width="0.259"/>
    <path id="path825-6-8-4" d="M37.875,37.058A2.875,2.875,0,0,1,35,39.933h0a2.875,2.875,0,0,1-2.875-2.875h0A2.875,2.875,0,0,1,35,34.183h0a2.875,2.875,0,0,1,2.875,2.875Z" fill="#464646" stroke="#464646" stroke-linecap="square" stroke-width="0.25"/>
    <path id="rect895-2" d="M33.736,33.02h2.742v3.57H33.736Z" fill="#6e6e6e" stroke="#147391" stroke-linecap="square" stroke-width="0.258"/>
    <path id="path929-7-4-5" d="M36.452,37.058a1.351,1.351,0,1,1-1.35-1.35A1.35,1.35,0,0,1,36.452,37.058Z" fill="#3f91af" stroke="#6e6e6e" stroke-linecap="square" stroke-width="0.299"/>
    <path id="rect895-6" d="M35.532,35.808h2.756v3.674H35.532Z" fill="#6e6e6e" stroke="#147391" stroke-linecap="square" stroke-width="0.244"/>
    <path id="path825-6" d="M39.816,40a2.875,2.875,0,0,1-2.875,2.875h0A2.875,2.875,0,0,1,34.066,40h0a2.875,2.875,0,0,1,2.875-2.875h0A2.875,2.875,0,0,1,39.816,40Z" fill="#464646" stroke="#464646" stroke-linecap="square" stroke-width="0.25"/>
    <path id="path844" d="M14.305,30.1l-2.78,5.491" fill="none" stroke="#147391"/>
    <path id="path846" d="M16.86,14.227l3.322,15.085h0" fill="none" stroke="#147391"/>
    <path id="path846-3" d="M21.727,11.2,24.9,25.627h0" fill="none" stroke="#147391"/>
    <path id="path846-3-3" d="M29.269,10.891l2.984,14.17h0" fill="none" stroke="#147391"/>
    <path id="path893" d="M11.593,21l30.221-.068" fill="none" stroke="#147391" stroke-width="1.02"/>
    <path id="path929-7" d="M38.292,40a1.351,1.351,0,1,1-1.351-1.35A1.35,1.35,0,0,1,38.292,40Z" fill="#3f91af" stroke="#6e6e6e" stroke-linecap="square" stroke-width="0.299"/>
    <path id="path825-6-8" d="M14.875,40A2.875,2.875,0,0,1,12,42.875h0A2.875,2.875,0,0,1,9.125,40h0A2.875,2.875,0,0,1,12,37.125h0A2.875,2.875,0,0,1,14.875,40Z" fill="#464646" stroke="#464646" stroke-linecap="square" stroke-width="0.25"/>
    <path id="path929-7-4" d="M13.35,40A1.35,1.35,0,1,1,12,38.65,1.349,1.349,0,0,1,13.35,40Z" fill="#3f91af" stroke="#6e6e6e" stroke-linecap="square" stroke-width="0.299"/>
    <path id="path844-1" d="M12.064,27.16,9.285,32.652" fill="none" stroke="#147391"/>
    <path id="path819-1" d="M7.761,10.869l2.063.006,2.064.006,2.064.007,2.063.006,2.064.007,2.063.006,2.064.006,2.063.007,2.064.006,2.064.007,2.063.006,2.064.006,2.063.007,2.064.006,2.063.007c1.6.022,1.951.435,1.6,1.68l-.466,1.673-.466,1.674-.467,1.674-.466,1.674-.466,1.673-.466,1.674c-.434,1.509-.614,1.7-2.055,1.843l-1.589.17-1.589.169-1.589.17-1.589.169-1.589.17-1.589.169-1.589.17-1.589.169-1.589.17-1.589.169-1.589.17-1.589.169-1.589.17-1.589.169-1.589.17Z" fill="none" stroke="#147391"/>
    <path id="path1145" d="M40.3,11.39l2.664,3.273h0" fill="none" stroke="#147391"/>
    <path id="path1145-6" d="M7.655,10.727,10.318,14h0" fill="none" stroke="#147391"/>
    <path id="path1228" d="M5.84,12.674,10.492,14" fill="none" stroke="#147391"/>
    <path id="path1245" d="M9.241,32.727l2.374,2.7" fill="none" stroke="#147391"/>
    <path id="rect1283" d="M9.5,35.078H39.635a.5.5,0,0,1,0,1H9.5a.5.5,0,0,1,0-1Z" fill="#147391"/>
    <path id="rect1283-6" d="M7.5,32.31H37.635a.5.5,0,0,1,0,1H7.5a.5.5,0,0,1,0-1Z" fill="#147391"/>
    <path id="path1245-6" d="M16.328,32.727l2.374,2.7" fill="none" stroke="#147391"/>
    <path id="path1245-3" d="M25.857,32.858l2.374,2.7" fill="none" stroke="#147391"/>
    <path id="path1245-6-2" d="M11.931,27.407l2.374,2.7" fill="none" stroke="#147391"/>
    <path id="path1245-3-0" d="M37.292,23.511l2.374,2.7" fill="none" stroke="#147391"/>
    <path id="path1245-3-4" d="M38.939,17.612l2.374,2.7" fill="none" stroke="#147391"/>
    <path id="path1245-3-4-4" d="M9.626,18.635,12,21.33" fill="none" stroke="#147391"/>
    <path id="path1402" d="M37.571,32.772c1.363.874,2.13,1.824,2.042,2.886h0" fill="none" stroke="#147391" stroke-width="1.017"/>
    <path id="path1245-0" d="M3.626,10.139,6,12.834" fill="none" stroke="#6e6e6e"/>
    <path id="path823-4" d="M7.113,12.661a1.26,1.26,0,0,1-1.26,1.26h0a1.26,1.26,0,0,1-1.26-1.26h0a1.26,1.26,0,0,1,2.52,0Z" fill="#6e6e6e" stroke="#147391" stroke-linecap="square" stroke-width="0.48"/>
    <path id="path1245-3-0-2" d="M17.235,26.305,19.61,29" fill="none" stroke="#147391"/>
    <path id="path846-4" d="M13.948,11.054,17.27,26.139h0" fill="none" stroke="#147391"/>
    <path id="path1245-3-0-2-9" d="M25,25.825l2.374,2.7" fill="none" stroke="#147391"/>
    <path id="path846-3-0" d="M24.776,14l3.175,14.426h0" fill="none" stroke="#147391"/>
    <path id="path846-3-3-18" d="M32.087,13.644l2.983,14.17h0" fill="none" stroke="#147391"/>
    <path id="path1245-3-0-2-9-8" d="M32,24.872l2.374,2.7" fill="none" stroke="#147391"/>
  </g>
</svg>
