<svg id="Image" xmlns="http://www.w3.org/2000/svg" xmlns:xlink="http://www.w3.org/1999/xlink" viewBox="0 0 48 48">
  <defs>
    <linearGradient id="linear-gradient" x1="0.617" y1="746.276" x2="45.035" y2="784.694" gradientTransform="translate(0 -740)" gradientUnits="userSpaceOnUse">
      <stop offset="0" stop-color="#fff"/>
      <stop offset="0.221" stop-color="#fbfbfc"/>
      <stop offset="0.541" stop-color="#ececec"/>
      <stop offset="0.92" stop-color="#d0cecd"/>
      <stop offset="1" stop-color="#c9c6c5"/>
    </linearGradient>
    <linearGradient id="linear-gradient-2" x1="35.569" y1="-58.178" x2="56.47" y2="-59.622" gradientTransform="matrix(0.811, 0, 0, -0.811, -12.258, -23.898)" gradientUnits="userSpaceOnUse">
      <stop offset="0" stop-color="#73b4c8"/>
      <stop offset="0.175" stop-color="#6aaec3"/>
      <stop offset="0.457" stop-color="#529eb5"/>
      <stop offset="0.809" stop-color="#2c839f"/>
      <stop offset="1" stop-color="#147391"/>
    </linearGradient>
    <linearGradient id="linear-gradient-3" x1="38.814" y1="-58.201" x2="54.489" y2="-66.11" xlink:href="#linear-gradient-2"/>
    <linearGradient id="linear-gradient-4" x1="182.169" y1="-180.117" x2="189.188" y2="-185.117" gradientTransform="matrix(0.631, 0, 0, -0.631, -93.699, -94.989)" gradientUnits="userSpaceOnUse">
      <stop offset="0" stop-color="#b1b1b1"/>
      <stop offset="1" stop-color="#7d7d7d"/>
    </linearGradient>
    <linearGradient id="linear-gradient-5" x1="172.812" y1="-189.13" x2="177.826" y2="-192.846" xlink:href="#linear-gradient-4"/>
    <linearGradient id="linear-gradient-6" x1="42.334" y1="-64.411" x2="47.1" y2="-67.052" gradientTransform="matrix(0.811, 0, 0, -0.811, -12.258, -23.898)" xlink:href="#linear-gradient-4"/>
    <linearGradient id="linear-gradient-7" x1="-284.976" y1="-174.802" x2="-282.908" y2="-174.802" gradientTransform="matrix(0.665, -0.463, -0.463, -0.665, 127.945, -224.054)" xlink:href="#linear-gradient-4"/>
  </defs>
  <g id="g934">
    <path id="path35" d="M1.5,43h45V10h-27L16.094,4.891A2,2,0,0,0,14.43,4H3.5a2,2,0,0,0-2,2Z" fill="url(#linear-gradient)"/>
    <path id="path37" d="M47,43.5H1V6A2.5,2.5,0,0,1,3.5,3.5H14.43a2.493,2.493,0,0,1,2.08,1.114L19.768,9.5H47Zm-45-1H46v-32H19.232L15.678,5.168A1.5,1.5,0,0,0,14.43,4.5H3.5A1.5,1.5,0,0,0,2,6Z" fill="#4e4a48"/>
    <path id="path855-4" d="M32.566,23.694c0,5.786-4.366,10.476-9.753,10.476s-9.754-4.69-9.754-10.476,4.367-10.475,9.754-10.475S32.566,17.909,32.566,23.694Z" stroke="#464646" stroke-linecap="round" stroke-miterlimit="10" stroke-width="0.337" fill="url(#linear-gradient-2)"/>
    <path id="rect6657-4" d="M15.972,28.079l-.527.075a.016.016,0,0,0-.016.021.025.025,0,0,0-.027-.015l-.531.066a.015.015,0,0,0-.015.021l0-.009a.012.012,0,0,0-.014-.009l-.092.011c-.006,0-.01.006-.008.011l.061.2-.573.071-.06-.2a.03.03,0,0,0-.03-.019l-1.11.089a.017.017,0,0,0-.015.024l.062.216-.58.044-.066-.239a.016.016,0,0,0-.014-.012l-.094,0a.009.009,0,0,0-.009.013l0,.011a.03.03,0,0,0-.028-.023l-.537.02a.019.019,0,0,0-.016.025.03.03,0,0,0-.029-.024l-.536.011c-.013,0-.021.012-.017.028a12.657,12.657,0,0,0,2.442,5.214,13.436,13.436,0,0,0,3.959,3.461,23.764,23.764,0,0,0,10.19,2.706c1.256.089,2.024.1,2.024.1s.006-.007.01-.009,1.146.047,2.873.029c1.242-.013,2.538-.063,3.927-.13v-.947l-.02-.162a.025.025,0,0,0-.025-.02l.045,0v-.116l-.278.014-.068-.566.218-.01a.02.02,0,0,0,.02-.023l-.132-1.085a.027.027,0,0,0-.026-.023l-.213.01-.066-.565.545-.027v-.113l-.347.017a.019.019,0,0,0,.019-.021l-.062-.525a.025.025,0,0,0-.024-.02l.414-.019v-.576c-1.684.082-3.216.143-4.68.146-1.839,0-3.05-.077-3.05-.077s0,.006-.009.009-.273-.015-.748-.05c-1.578-.137-5.461-.445-8.144-2.074A8.621,8.621,0,0,1,17.39,30.82,7.9,7.9,0,0,1,16,28.094a.025.025,0,0,0-.028-.015Zm-1.138.47.341.9-.561.129-.078-.189a.027.027,0,0,0-.031-.015l-1.092.2a.018.018,0,0,0-.013.027l.081.21-.57.1L12.53,28.8l.579-.049.068.215a.028.028,0,0,0,.03.02l1.1-.143a.018.018,0,0,0,.017-.023l-.065-.2Zm.746.068.194.5a.025.025,0,0,0-.028-.012l-.52.12a.016.016,0,0,0-.013.023l-.2-.533a.025.025,0,0,0,.028.015l.525-.093C15.576,28.636,15.583,28.627,15.58,28.617Zm-3.1.421.228.672a.032.032,0,0,0-.03-.02l-.533.072a.021.021,0,0,0-.014.028l-.23-.7a.029.029,0,0,0,.029.022l.535-.045A.019.019,0,0,0,12.483,29.038Zm3.477.5.237.472A.024.024,0,0,0,16.168,30l-.5.175a.018.018,0,0,0-.011.025l-.249-.506a.024.024,0,0,0,.028.012l.512-.147c.011,0,.017-.013.013-.022Zm-.743.011.421.858L15.1,30.6,15,30.42a.028.028,0,0,0-.032-.013l-1.061.316c-.013,0-.016.015-.01.027l.1.2-.555.163-.488-1.079.569-.108.088.208a.029.029,0,0,0,.032.018l1.078-.256a.02.02,0,0,0,.014-.027l-.082-.186Zm-2.282.729.293.651a.03.03,0,0,0-.032-.016l-.52.129c-.012,0-.016.015-.01.028l-.3-.683a.031.031,0,0,0,.031.02l.528-.1a.019.019,0,0,0,.012-.027Zm3.485.124.283.437a.025.025,0,0,0-.03-.005l-.476.233a.017.017,0,0,0-.009.025l-.3-.47a.025.025,0,0,0,.029.009l.49-.2a.018.018,0,0,0,.01-.025Zm-.731.1.5.8-.515.254-.113-.167a.028.028,0,0,0-.033-.009l-1.012.438a.019.019,0,0,0-.008.029l.123.191-.529.228-.6-1.031.551-.17.109.2a.029.029,0,0,0,.033.014l1.038-.376a.019.019,0,0,0,.011-.028l-.1-.176Zm1.277.7.325.4a.024.024,0,0,0-.03,0l-.443.291a.018.018,0,0,0-.005.027s-.256-.313-.326-.406l-.02-.026a.024.024,0,0,0,.03,0l.062-.035c.125-.07.4-.228.4-.228a.018.018,0,0,0,.008-.025Zm-.712.186s.059.082.142.19c.167.222.445.544.445.544l-.476.316-.132-.153a.027.027,0,0,0-.034,0l-.948.562a.019.019,0,0,0,0,.03l.146.177-.494.294s-.151-.181-.311-.391c-.2-.265-.408-.574-.408-.574l.526-.235.13.187a.028.028,0,0,0,.034.01l.984-.5a.018.018,0,0,0,.007-.028l-.118-.164Zm-2.745.095.361.622a.027.027,0,0,0-.032-.013l-.5.189a.018.018,0,0,0-.007.029l-.374-.656a.029.029,0,0,0,.032.016l.512-.158a.019.019,0,0,0,.008-.029Zm4.083.447.373.362a.023.023,0,0,0-.029,0l-.405.34a.019.019,0,0,0,0,.028l-.4-.392a.023.023,0,0,0,.03,0l.425-.317a.016.016,0,0,0,0-.025Zm-.681.268.671.667-.434.371L17,33.1a.027.027,0,0,0-.034,0l-.868.677a.019.019,0,0,0,0,.03l.164.157-.451.354-.824-.87.49-.3.151.171a.029.029,0,0,0,.036.005l.908-.621a.018.018,0,0,0,0-.028l-.136-.15Zm1.394.392.415.325a.023.023,0,0,0-.03,0l-.363.386a.017.017,0,0,0,0,.026l-.439-.349a.024.024,0,0,0,.031,0l.384-.364a.017.017,0,0,0,0-.026Zm-4.094.036s.159.227.286.4c.08.105.147.187.147.187a.03.03,0,0,0-.035-.008l-.471.25a.02.02,0,0,0,0,.031l-.091-.117c-.134-.179-.359-.5-.359-.5a.031.031,0,0,0,.034.014l.486-.22a.02.02,0,0,0,.005-.03Zm3.45.308.744.6-.389.419-.163-.122a.026.026,0,0,0-.034,0l-.78.774a.019.019,0,0,0,0,.03l.181.139-.406.406-.91-.772.446-.359.169.153a.027.027,0,0,0,.035,0l.825-.727a.018.018,0,0,0,0-.029l-.152-.134Zm1.43.244.448.285a.024.024,0,0,0-.029.008l-.317.422a.018.018,0,0,0,0,.027l-.474-.306a.022.022,0,0,0,.029,0l.341-.4a.017.017,0,0,0,0-.027Zm-.6.412.8.52-.339.459-.175-.105a.024.024,0,0,0-.032.006l-.687.857a.019.019,0,0,0,.006.03l.193.119-.355.449-.984-.667.4-.411.184.133a.026.026,0,0,0,.034,0l.735-.817a.019.019,0,0,0,0-.03l-.165-.118Zm-3.444.1.5.527a.028.028,0,0,0-.035-.005l-.433.309a.02.02,0,0,0,0,.031l-.519-.559a.031.031,0,0,0,.036.009l.452-.282c.01-.006.01-.019,0-.03Zm4.895.009.481.253a.023.023,0,0,0-.028.01l-.275.447a.02.02,0,0,0,.007.028l-.506-.267a.023.023,0,0,0,.029-.008l.3-.436a.018.018,0,0,0,0-.027Zm.908.453.508.213a.023.023,0,0,0-.028.012l-.234.469a.02.02,0,0,0,.009.027l-.53-.226a.021.021,0,0,0,.028-.01l.253-.459a.018.018,0,0,0-.006-.026Zm-1.463.013.857.454-.292.485-.183-.09a.027.027,0,0,0-.032.01l-.591.919a.018.018,0,0,0,.008.028l.2.1-.3.48s-.582-.3-.87-.461l-.161-.094.349-.454.1.057.1.056a.027.027,0,0,0,.035,0l.637-.892a.02.02,0,0,0-.005-.03l-.178-.1Zm2.417.366.532.176a.023.023,0,0,0-.027.015l-.2.486a.019.019,0,0,0,.012.026l-.552-.185a.023.023,0,0,0,.027-.013l.214-.48a.018.018,0,0,0-.01-.025Zm-5.809.114.549.466a.027.027,0,0,0-.035,0l-.391.36a.021.021,0,0,0,0,.031L15.549,35a.028.028,0,0,0,.035,0L16,34.67a.02.02,0,0,0,0-.03Zm4.346.019.9.38-.248.51-.191-.075a.024.024,0,0,0-.031.012l-.5.966a.02.02,0,0,0,.012.029l.206.083-.258.505-1.06-.466.3-.483.2.1a.026.026,0,0,0,.033-.009l.547-.943a.022.022,0,0,0-.009-.03l-.185-.085Zm2.46.181.551.144a.021.021,0,0,0-.025.015l-.161.5a.02.02,0,0,0,.013.025l-.571-.152a.023.023,0,0,0,.027-.014l.179-.495A.019.019,0,0,0,22.8,34.84Zm-1.461.238.932.315-.206.529-.2-.062a.025.025,0,0,0-.03.014l-.42,1a.022.022,0,0,0,.014.029l.212.067-.215.526-1.084-.385.253-.508.209.079a.024.024,0,0,0,.031-.011l.461-.986a.021.021,0,0,0-.011-.029l-.193-.072Zm2.5.018.566.115a.023.023,0,0,0-.024.018l-.13.511a.021.021,0,0,0,.016.025l-.586-.121a.024.024,0,0,0,.026-.017l.145-.507a.019.019,0,0,0-.013-.024ZM24.9,35.3l.58.092a.022.022,0,0,0-.024.018l-.1.52a.02.02,0,0,0,.016.023l-.6-.095a.022.022,0,0,0,.024-.018l.114-.516A.019.019,0,0,0,24.9,35.3Zm-2.519.124.962.256-.168.545-.2-.051a.026.026,0,0,0-.029.016L22.6,37.228a.022.022,0,0,0,.017.027l.215.055-.175.541-1.1-.311.21-.528.213.065A.024.024,0,0,0,22,37.063l.382-1.021a.022.022,0,0,0-.014-.029l-.2-.058Zm3.605.039.591.073a.022.022,0,0,0-.025.018l-.074.523a.021.021,0,0,0,.018.024l-.606-.075a.022.022,0,0,0,.025-.017L26,35.487A.02.02,0,0,0,25.982,35.464Zm-8.946.017.592.4a.028.028,0,0,0-.035,0l-.343.4a.02.02,0,0,0,.007.03l-.62-.427a.027.027,0,0,0,.036,0l.368-.382a.019.019,0,0,0-.006-.03Zm10.049.112.6.056a.022.022,0,0,0-.022.02l-.053.524a.022.022,0,0,0,.02.023l-.611-.058a.021.021,0,0,0,.023-.019l.064-.523a.021.021,0,0,0-.018-.023Zm1.115.1.6.038s-.013.006-.013.012-.009,0-.009.008l-.033.525c0,.008.007.014.014.017l0,0-.6-.039a.02.02,0,0,0,.022-.019l.043-.524A.021.021,0,0,0,28.2,35.692Zm-4.752.015.987.206-.136.555-.2-.039a.023.023,0,0,0-.027.017l-.277,1.061a.022.022,0,0,0,.019.026l.218.043-.139.554-1.113-.248.171-.542.216.051a.025.025,0,0,0,.03-.015l.308-1.049a.022.022,0,0,0-.016-.028l-.2-.047Zm12.18,0a.019.019,0,0,0-.018.022l.057.523a.022.022,0,0,0,.023.02l-.624.027a.021.021,0,0,0,.02-.022l-.052-.525a.024.024,0,0,0-.023-.02Zm-1.148.044a.021.021,0,0,0-.02.022l.046.525a.024.024,0,0,0,.024.02l-.624.019a.02.02,0,0,0,.02-.021l-.039-.525a.023.023,0,0,0-.023-.021Zm-5.142.007.543.021s0-.006.009-.009l.043,0a.023.023,0,0,0-.022.02l-.013.525a.021.021,0,0,0,.02.022l-.614-.023c.005,0,.013-.006.013-.013s.009,0,.009-.007l.023-.526c0-.007-.006-.008-.011-.012Zm4,.025a.022.022,0,0,0-.02.022l.034.525a.021.021,0,0,0,.022.02l-.62.011a.02.02,0,0,0,.02-.021l-.026-.525a.02.02,0,0,0-.022-.02Zm-2.88,0,.607.01a.021.021,0,0,0-.021.021l0,.524a.021.021,0,0,0,.021.022l-.617-.011a.019.019,0,0,0,.021-.02l.006-.525a.021.021,0,0,0-.021-.021ZM32.2,35.8a.021.021,0,0,0-.022.021l.019.526a.024.024,0,0,0,.022.021H31.6a.022.022,0,0,0,.021-.021l-.011-.526a.023.023,0,0,0-.021-.021Zm-7.652.135,1,.162-.1.562-.208-.031a.024.024,0,0,0-.027.02L25,37.723a.022.022,0,0,0,.019.025l.22.034-.107.561-1.12-.189.135-.554.219.04a.026.026,0,0,0,.029-.018l.243-1.069a.024.024,0,0,0-.017-.027l-.206-.036Zm1.118.178,1.019.126-.076.566-.21-.024a.024.024,0,0,0-.026.02l-.158,1.086a.021.021,0,0,0,.02.024l.22.025-.078.565-1.119-.14.1-.561.22.03a.024.024,0,0,0,.028-.019l.184-1.081a.022.022,0,0,0-.019-.026l-.209-.028Zm-7.508.091.62.333a.026.026,0,0,0-.033.007l-.3.437a.021.021,0,0,0,.01.03s-.5-.265-.62-.335l-.027-.016a.026.026,0,0,0,.034,0l.018-.022.3-.4a.02.02,0,0,0-.008-.03Zm8.64.047,1.028.1-.053.566-.211-.018a.023.023,0,0,0-.024.022L27.425,38a.022.022,0,0,0,.021.024l.219.017-.053.566-1.114-.1.076-.566.218.022a.025.025,0,0,0,.027-.02l.133-1.087a.023.023,0,0,0-.02-.025l-.21-.021Zm1.141.106.062,0c.224.016.978.061.978.061l-.031.558-.21-.011a.024.024,0,0,0-.025.022l-.067,1.088a.022.022,0,0,0,.022.023l.038,0s0,.009.008.009l.171.009-.03.558-.234-.013a.013.013,0,0,0-.011.008s-.545-.032-.774-.049l-.1-.006.051-.566.088.006.13.01a.022.022,0,0,0,.024-.021l.09-1.087a.022.022,0,0,0-.021-.024l-.14-.01-.07-.006Zm7.98.021.064.565-.213.009a.022.022,0,0,0-.02.024l.121,1.087a.024.024,0,0,0,.026.021l.217-.01.066.566-1.092.046-.055-.566.217-.008a.022.022,0,0,0,.021-.023L35.158,37a.024.024,0,0,0-.025-.022l-.212.007-.054-.565Zm-1.166.046.053.567L34.59,37a.02.02,0,0,0-.019.024l.1,1.088a.024.024,0,0,0,.025.021l.218-.008.054.567-1.095.034-.043-.568.218,0a.022.022,0,0,0,.022-.022l-.084-1.089a.024.024,0,0,0-.025-.022l-.211.005-.041-.568Zm-5.615.007.739.03s.007-.005.008-.009l.242.008-.011.566-.212-.006a.023.023,0,0,0-.023.023l-.029,1.089a.022.022,0,0,0,.023.022l.219.007-.011.567-1.058-.039.028-.558.218.01a.024.024,0,0,0,.025-.021l.046-1.089a.023.023,0,0,0-.021-.025h-.037s0-.008-.008-.009l-.166-.007Zm4.454.029.039.566-.212.006a.022.022,0,0,0-.022.023l.071,1.089a.023.023,0,0,0,.024.022l.218-.005.04.567-1.1.019-.027-.566.219,0a.02.02,0,0,0,.022-.022l-.056-1.089a.024.024,0,0,0-.024-.023l-.212,0-.025-.566Zm-3.351,0,1.037.017.008.567-.212,0a.023.023,0,0,0-.023.024l.008,1.09a.022.022,0,0,0,.023.022l.218,0,.008.568-1.1-.019.009-.568.218.006a.022.022,0,0,0,.023-.021l.012-1.09a.025.025,0,0,0-.024-.024l-.21,0Zm2.192.017.025.566-.213,0a.021.021,0,0,0-.021.023l.04,1.089a.023.023,0,0,0,.024.022H32.5l.024.566-1.1,0-.01-.567h.218a.021.021,0,0,0,.023-.021l-.024-1.09a.023.023,0,0,0-.023-.023H31.4l-.009-.568ZM19.319,36.8l.637.281a.026.026,0,0,0-.032.009l-.251.461a.022.022,0,0,0,.014.029l-.664-.3a.027.027,0,0,0,.034-.007l.273-.45a.02.02,0,0,0-.011-.028Zm1.194.5.651.232a.025.025,0,0,0-.031.011l-.21.483c0,.01,0,.022.016.026l-.676-.242a.027.027,0,0,0,.032-.01l.23-.473a.02.02,0,0,0-.012-.027Zm1.217.412.661.189a.023.023,0,0,0-.029.013l-.172.5a.021.021,0,0,0,.017.026l-.683-.2a.025.025,0,0,0,.031-.013l.19-.49a.021.021,0,0,0-.015-.027Zm1.236.333.667.148a.024.024,0,0,0-.028.016l-.136.51a.021.021,0,0,0,.018.025l-.688-.155a.025.025,0,0,0,.03-.014l.153-.5A.02.02,0,0,0,22.966,38.047Zm1.245.26.672.114a.024.024,0,0,0-.028.017l-.105.519c0,.011.007.022.02.024l-.69-.117a.025.025,0,0,0,.029-.017l.121-.514A.024.024,0,0,0,24.211,38.307Zm1.251.2.67.083a.023.023,0,0,0-.026.019l-.078.522a.022.022,0,0,0,.021.024l-.686-.085a.022.022,0,0,0,.026-.018l.091-.521A.021.021,0,0,0,25.462,38.506Zm1.247.144.667.058a.023.023,0,0,0-.025.018l-.053.525a.021.021,0,0,0,.021.022l-.681-.058a.024.024,0,0,0,.027-.018l.065-.525A.021.021,0,0,0,26.709,38.65Zm1.24.1.663.043c-.006,0-.014,0-.015.011s-.009,0-.01.009l-.033.523a.022.022,0,0,0,.022.023l-.675-.042a.023.023,0,0,0,.025-.02l.044-.523a.023.023,0,0,0-.021-.024Zm8.021.016a.02.02,0,0,0-.02.022l.059.524a.023.023,0,0,0,.025.019l-.66.029a.02.02,0,0,0,.021-.022l-.054-.524a.022.022,0,0,0-.024-.02Zm-1.217.049a.02.02,0,0,0-.021.021l.048.524a.023.023,0,0,0,.024.021l-.661.021a.021.021,0,0,0,.021-.022l-.041-.524a.023.023,0,0,0-.025-.021Zm-5.551.006.607.024a.01.01,0,0,0,.01-.008h.035a.022.022,0,0,0-.024.02l-.013.526a.022.022,0,0,0,.022.021l-.672-.026c.006,0,.013,0,.014-.011s.009,0,.01-.009l.023-.524c0-.007-.007-.01-.012-.014Zm4.331.028a.021.021,0,0,0-.021.022l.035.525a.024.024,0,0,0,.023.021l-.664.011a.021.021,0,0,0,.022-.021l-.027-.526a.024.024,0,0,0-.025-.02Zm-3.109.005.659.011a.021.021,0,0,0-.022.02l0,.525a.023.023,0,0,0,.024.021l-.67-.011a.021.021,0,0,0,.023-.02l.005-.525a.021.021,0,0,0-.022-.021Zm1.886.013a.022.022,0,0,0-.023.021l.02.526a.025.025,0,0,0,.025.021h-.668a.021.021,0,0,0,.022-.021l-.012-.526a.022.022,0,0,0-.023-.021Z" fill="#464646"/>
    <path id="path855" d="M29.676,23.644c0,5.785-4.367,10.475-9.754,10.475h0c-5.387,0-9.753-4.69-9.753-10.475s4.366-10.475,9.753-10.475h0c5.387,0,9.754,4.69,9.754,10.475Z" stroke="#464646" stroke-linecap="round" stroke-miterlimit="10" stroke-width="0.337" fill="url(#linear-gradient-3)"/>
    <path id="path929" d="M21.621,20.6a3.179,3.179,0,0,0-1.574-.539l-.12-.014V16.678l.209.014a6.072,6.072,0,0,1,2.482.675,6.634,6.634,0,0,1,2.426,2.189,2.125,2.125,0,0,1,.145.228c-.094.077-2.558,1.835-2.573,1.835A6.323,6.323,0,0,0,21.621,20.6Z" stroke="#464646" stroke-linecap="round" stroke-width="0.379" fill="url(#linear-gradient-4)"/>
    <path id="path931" d="M14.436,27.137a7.22,7.22,0,0,1-.714-5.6,3.82,3.82,0,0,1,.537-1.272l1.389.862,1.358.845-.087.216a3.714,3.714,0,0,0-.239,1.664,3.775,3.775,0,0,0,.456,1.492l.1.166-1.288.929c-.709.512-1.3.936-1.323.944S14.537,27.31,14.436,27.137Z" stroke="#464646" stroke-linecap="round" stroke-width="0.378" fill="url(#linear-gradient-5)"/>
    <path id="path933" d="M19.969,29.343c-.009-.535-.017-1.276-.017-1.645v-.673l.274-.03a3.194,3.194,0,0,0,2.2-1.3c.091-.122.168-.221.172-.221s2.605,1.624,2.628,1.646a4.89,4.89,0,0,1-.57.854,6.253,6.253,0,0,1-4.393,2.33l-.281.016Z" stroke="#464646" stroke-linecap="round" stroke-width="0.379" fill="url(#linear-gradient-6)"/>
    <path id="path967" d="M20.284,24.183l-.562-.263-.562-.264.51-.355.509-.354.052.618Z" stroke="#464646" stroke-linecap="round" stroke-width="0.251" fill="url(#linear-gradient-7)"/>
  </g>
</svg>
