<svg id="Image" xmlns="http://www.w3.org/2000/svg" xmlns:xlink="http://www.w3.org/1999/xlink" viewBox="0 0 48 48">
  <defs>
    <linearGradient id="linear-gradient" x1="7.529" y1="-696.829" x2="34.816" y2="-724.117" gradientTransform="matrix(1, 0, 0, -1, 0, -692)" gradientUnits="userSpaceOnUse">
      <stop offset="0" stop-color="#fff"/>
      <stop offset="1" stop-color="#bebdbd"/>
    </linearGradient>
    <linearGradient id="linear-gradient-2" x1="14.845" y1="-722.577" x2="35.161" y2="-742.895" gradientTransform="matrix(1, 0, 0, -1, 0, -692)" gradientUnits="userSpaceOnUse">
      <stop offset="0" stop-color="#73b4c8"/>
      <stop offset="1" stop-color="#177492"/>
    </linearGradient>
    <linearGradient id="linear-gradient-3" x1="6.101" y1="-698.247" x2="14.663" y2="-706.809" xlink:href="#linear-gradient-2"/>
    <linearGradient id="linear-gradient-4" x1="29.364" y1="-698.932" x2="36.557" y2="-706.127" xlink:href="#linear-gradient-2"/>
    <linearGradient id="linear-gradient-5" x1="36.778" y1="-701.256" x2="42.326" y2="-706.806" xlink:href="#linear-gradient"/>
    <linearGradient id="linear-gradient-6" x1="37.045" y1="-698.454" x2="42.061" y2="-703.469" xlink:href="#linear-gradient"/>
    <linearGradient id="linear-gradient-7" x1="214.682" y1="-209.382" x2="214.682" y2="-201.711" gradientTransform="matrix(0.596, 0, 0, -0.596, -90.421, -99.3)" gradientUnits="userSpaceOnUse">
      <stop offset="0" stop-color="#c9c6c5"/>
      <stop offset="0.045" stop-color="#cecccc"/>
      <stop offset="0.268" stop-color="#e7e6e6"/>
      <stop offset="0.497" stop-color="#f6f6f7"/>
      <stop offset="0.736" stop-color="#fefefe"/>
      <stop offset="1" stop-color="#fff"/>
    </linearGradient>
    <linearGradient id="linear-gradient-8" x1="196.715" y1="-208.184" x2="232.653" y2="-244.122" gradientTransform="matrix(0.596, 0, 0, -0.596, -90.421, -99.3)" gradientUnits="userSpaceOnUse">
      <stop offset="0" stop-color="#fff"/>
      <stop offset="0.221" stop-color="#fbfbfc"/>
      <stop offset="0.541" stop-color="#ececec"/>
      <stop offset="0.92" stop-color="#d0cecd"/>
      <stop offset="1" stop-color="#c9c6c5"/>
    </linearGradient>
    <linearGradient id="linear-gradient-9" x1="199.59" y1="-211.059" x2="229.778" y2="-241.247" gradientTransform="matrix(0.596, 0, 0, -0.596, -90.421, -99.3)" gradientUnits="userSpaceOnUse">
      <stop offset="0" stop-color="#fff"/>
      <stop offset="0.335" stop-color="#fbfbfc"/>
      <stop offset="0.82" stop-color="#ececec"/>
      <stop offset="1" stop-color="#e4e3e4"/>
    </linearGradient>
    <linearGradient id="linear-gradient-10" x1="546.353" y1="576.424" x2="556.664" y2="576.519" gradientTransform="translate(63.973 -455.809) rotate(45) scale(0.596 0.637)" gradientUnits="userSpaceOnUse">
      <stop offset="0" stop-color="#73b4c8"/>
      <stop offset="1" stop-color="#177491"/>
    </linearGradient>
    <linearGradient id="linear-gradient-11" x1="-723.797" y1="1016.982" x2="-732.141" y2="1024.472" gradientTransform="matrix(-0.596, 0, 0, 0.596, -396.63, -573.508)" gradientUnits="userSpaceOnUse">
      <stop offset="0" stop-color="#fff"/>
      <stop offset="1" stop-color="#dcdcdc"/>
    </linearGradient>
    <linearGradient id="linear-gradient-12" x1="-731.864" y1="1024.924" x2="-739.864" y2="1033.058" gradientTransform="matrix(-0.596, 0, 0, 0.596, -396.63, -573.508)" gradientUnits="userSpaceOnUse">
      <stop offset="0" stop-color="#f2f2f2"/>
      <stop offset="1" stop-color="#999"/>
    </linearGradient>
    <linearGradient id="linear-gradient-13" x1="210.68" y1="-223.619" x2="201.581" y2="-214.521" gradientTransform="matrix(0.596, 0, 0, -0.596, -90.421, -100.492)" xlink:href="#linear-gradient-12"/>
    <linearGradient id="linear-gradient-14" x1="219.977" y1="-233.231" x2="217.639" y2="-230.562" gradientTransform="matrix(0.596, 0, 0, -0.596, -90.421, -100.492)" xlink:href="#linear-gradient-12"/>
  </defs>
  <g id="g988">
    <g id="g49">
      <path id="path29" d="M19.281,36.788,7.082,15.605l-.1-.064a5.892,5.892,0,0,1-.526-.406l-.092-.082c-.168-.154-.283-.266-.394-.385l-.145-.157c-.107-.123-.208-.25-.306-.382l-.111-.148A5.594,5.594,0,0,1,4.769,12.8l-.046-.127c-.078-.216-.128-.367-.171-.523L4.5,11.925c-.038-.158-.066-.317-.092-.478l-.032-.21a5.978,5.978,0,0,1-.045-.707,6.063,6.063,0,0,1,6.055-6.055,6.416,6.416,0,0,1,.746.05l.147.023a5.85,5.85,0,0,1,.6.122l.183.046a6.057,6.057,0,0,1,1.341.572l.106.064a6.1,6.1,0,0,1,1.667,1.49,6.252,6.252,0,0,1,.444.661l.146.249H30.659v5.555H16.613L30.145,36.788Z" fill="url(#linear-gradient)"/>
      <path id="path31" d="M7.475,43.525V38.7A1.821,1.821,0,0,1,9.3,36.88H40.71a1.821,1.821,0,0,1,1.82,1.82v4.827Z" fill="url(#linear-gradient-2)"/>
      <path id="path33" d="M10.384,16.584a6.055,6.055,0,1,1,6.054-6.056h0A6.061,6.061,0,0,1,10.384,16.584Zm0-9.286a3.232,3.232,0,1,0,3.231,3.233h0A3.237,3.237,0,0,0,10.384,7.3Z" fill="url(#linear-gradient-3)"/>
      <path id="rect35" d="M30.729,5.567h4.463v9.925H30.729Z" fill="url(#linear-gradient-4)"/>
      <path id="polygon37" d="M40.2,13.562l2.47-1.353,2.043-.033L43.54,13.592l-3.34,1.83-5-2.727V10.834Z" fill="url(#linear-gradient-5)"/>
      <g id="g47">
        <path id="polygon39" d="M43.541,7.4l1.173,1.416-2.043-.033L40.2,7.43l-5,2.728V8.3l5-2.727Z" fill="url(#linear-gradient-6)"/>
        <g id="g45">
          <path id="path41" d="M14.115,10.53a3.731,3.731,0,1,0-3.731,3.731,3.73,3.73,0,0,0,3.731-3.731Zm-6.462,0a2.731,2.731,0,1,1,2.731,2.731A2.731,2.731,0,0,1,7.653,10.53Z" fill="#464646"/>
          <path id="path43" d="M40.2,12.992l-4.508-2.459v-.074L40.2,8l2.339,1.281,3.253.052L43.866,7.008,40.2,5,35.692,7.459V5.067H30.23V7.252H16.055A6.6,6.6,0,0,0,14.4,5.357l-.044-.032h0a6.654,6.654,0,0,0-.586-.4h0l-.115-.07h0a6.424,6.424,0,0,0-1.45-.619h0c-.065-.019-.132-.034-.2-.051h0a6.541,6.541,0,0,0-1.618-.21h0a6.555,6.555,0,0,0-6.558,6.552h0a6.59,6.59,0,0,0,.181,1.5h0c.013.054.028.107.042.16q.08.3.188.6c.023.065.045.13.071.194h0a6.542,6.542,0,0,0,.3.654h0a6.6,6.6,0,0,0,.838,1.2h0l.055.06A6.458,6.458,0,0,0,6.7,15.95L18.468,36.378H9.3A2.32,2.32,0,0,0,6.98,38.7v5.331H43.027V38.7a2.32,2.32,0,0,0-2.32-2.32H30.485L17.478,13.807H30.23v2.185h5.462V13.533L40.2,15.992l3.666-2.008,1.926-2.325-3.253.052Zm-4.5-4.4L40.2,6.14l3.019,1.653.418.506L42.8,8.285,40.68,7.123,40.2,6.86l-.48.262L35.7,9.315Zm6.327,30.1v4.327H7.975V38.7A1.32,1.32,0,0,1,9.3,37.38H40.71a1.321,1.321,0,0,1,1.32,1.32ZM6.8,14.769c-.059-.05-.115-.1-.172-.156-.094-.087-.185-.176-.273-.268-.057-.06-.113-.121-.167-.184-.084-.1-.163-.2-.24-.3-.046-.062-.1-.123-.139-.187-.076-.109-.134-.209-.194-.31s-.124-.213-.181-.323c-.065-.129-.129-.26-.193-.417-.027-.065-.049-.132-.073-.2-.049-.134-.094-.27-.132-.408-.02-.07-.038-.14-.054-.211-.034-.143-.061-.288-.083-.435l-.014-.089c-.006-.036-.013-.071-.017-.108a5.751,5.751,0,0,1-.041-.643h0a5.56,5.56,0,0,1,5.555-5.555c.142,0,.282.011.421.021.085.007.168.014.262.026a.879.879,0,0,1,.135.02l.057.009c.17.027.337.06.5.1l.033.008c.046.012.093.023.138.036a5.542,5.542,0,0,1,1.21.515c.045.025.088.053.131.08.157.1.309.2.454.308.031.024.064.047.1.072a5.594,5.594,0,0,1,.97.987l.027.035a5.478,5.478,0,0,1,.358.535c.014.025.03.048.044.073l.061.105A5.547,5.547,0,0,1,7.15,15.031,4.25,4.25,0,0,1,6.8,14.769ZM29.279,36.288H19.57L8.315,16.746a6.535,6.535,0,0,0,7.873-3.175l.424.735Zm.881-23.481H16.524a6.461,6.461,0,0,0,0-4.555H30.16Zm4.532,2.185H31.23V6.067h3.462Zm8.944-2.3-.418.506L40.2,14.853,35.7,12.4v-.722l4.021,2.193.48.262.479-.263,2.12-1.163Z" fill="#464646"/>
        </g>
      </g>
    </g>
    <g id="g1004">
      <path id="path37" d="M42.327,23.153a1.491,1.491,0,0,0-1.142-.572h-.856V22.3a2.025,2.025,0,0,0-2-2H36.618a2.025,2.025,0,0,0-2,2v.285h-.856a1.492,1.492,0,0,0-1.142.572H27.2V47.7H47.751V23.153Z" fill="#6e6e6e" stroke="#6e6e6e" stroke-width="0.596"/>
      <path id="path39" d="M32.907,25.436h9.135v-1.43a.877.877,0,0,0-.857-.856H39.756V22.3a1.414,1.414,0,0,0-1.4-1.43H36.618a1.414,1.414,0,0,0-1.427,1.4v.889h-1.43a.877.877,0,0,0-.856.856Z" stroke="#000" stroke-opacity="0" stroke-width="0.596" fill="url(#linear-gradient-7)"/>
      <path id="circle41" d="M38.045,22.581a.57.57,0,0,1-.57.571h0a.57.57,0,0,1-.571-.571h0a.57.57,0,0,1,.571-.57h0A.57.57,0,0,1,38.045,22.581Z" fill="#4e4a48" stroke="#000" stroke-opacity="0" stroke-width="0.596"/>
      <path id="path43-6" d="M42.556,23.724a.512.512,0,0,1,.059.285v2H32.336v-2a.513.513,0,0,1,.06-.285H27.769V47.131H47.18V23.724Z" fill="url(#linear-gradient-8)"/>
      <path id="polygon45" d="M32.336,26.007V24.866H28.911V45.989H46.038V24.866H42.613v1.141Z" fill="#c9c6c5"/>
      <path id="polygon47" d="M32.336,26.007v-.571H29.481V45.419H45.468V25.436H42.613v.571Z" fill="url(#linear-gradient-9)"/>
      <path id="path20" d="M31.8,42.482c-.052,0-.105-.005-.159-.009a1.591,1.591,0,0,1-1.43-1.4.758.758,0,0,1,.1-.587l7.288-7.08a.226.226,0,0,0,.119-.22.134.134,0,0,0,0-.035c-.041-.227-.372-2.244.684-3.3a3.436,3.436,0,0,1,2.347-1.033c.056,0,.11,0,.164,0a1.23,1.23,0,0,1,.256.022h0a1.822,1.822,0,0,1,.242.239L39.963,30.5a.163.163,0,0,0-.033.049c-.659,1.444-.639,1.465-.537,1.564l1.192,1.192a.169.169,0,0,0,.179.038l1.33-.5a.16.16,0,0,0,.06-.039c.011-.012,1.152-1.16,1.511-1.5a1.089,1.089,0,0,1,.229.25,3.548,3.548,0,0,1-1.047,2.785,3.106,3.106,0,0,1-2.1.753c-.066,0-.133.005-.2.005a7.135,7.135,0,0,1-1.032-.075.255.255,0,0,0-.221.088l-7.03,7.239a.657.657,0,0,1-.451.132Zm.119-2.125a.45.45,0,0,0-.316.75.391.391,0,0,0,.293.124.494.494,0,0,0,.321-.136.452.452,0,0,0,.136-.319.418.418,0,0,0-.124-.3.387.387,0,0,0-.291-.124Z" fill="url(#linear-gradient-10)"/>
      <path id="path22" d="M40.905,28.978a1.143,1.143,0,0,1,.185.013,1.046,1.046,0,0,1,.076.073l-1.32,1.319a.316.316,0,0,0-.067.1c-.708,1.549-.692,1.564-.506,1.751l1.192,1.192a.333.333,0,0,0,.353.077l1.331-.5a.326.326,0,0,0,.119-.077c.011-.012.954-.96,1.392-1.385.031.034.052.056.065.073a3.38,3.38,0,0,1-1,2.609,2.945,2.945,0,0,1-1.994.707c-.064,0-.131,0-.2,0a7.036,7.036,0,0,1-1-.073.273.273,0,0,0-.05,0h-.012A.4.4,0,0,0,39.16,35l-7.026,7.231a.5.5,0,0,1-.332.085c-.047,0-.094,0-.142-.007a1.431,1.431,0,0,1-1.281-1.257.67.67,0,0,1,.044-.445L37.7,33.537a.391.391,0,0,0,.184-.348.292.292,0,0,0-.006-.072c-.039-.217-.357-2.153.638-3.15a3.269,3.269,0,0,1,2.234-.984c.052,0,.1-.006.157-.006M31.9,41.4h.023a.648.648,0,0,0,.417-.185.621.621,0,0,0,.184-.417.574.574,0,0,0-.172-.434.564.564,0,0,0-.411-.174h-.023a.6.6,0,0,0-.417.185.627.627,0,0,0-.185.417.58.58,0,0,0,.173.436.551.551,0,0,0,.411.172m11.9-9.993h0m-2.894-2.762c-.057,0-.113,0-.168,0a3.62,3.62,0,0,0-2.459,1.082c-1.034,1.035-.827,2.914-.73,3.447,0,.039,0,.077-.041.079l-7.318,7.109a.9.9,0,0,0-.143.725,1.756,1.756,0,0,0,1.58,1.549c.06.006.119.009.175.009a.789.789,0,0,0,.569-.183l7.03-7.237c.04-.04.04-.04.078-.041a7.314,7.314,0,0,0,1.056.077c.072,0,.143,0,.211-.006a3.258,3.258,0,0,0,2.219-.8,3.724,3.724,0,0,0,1.09-2.929c-.005-.088-.2-.273-.314-.376a.112.112,0,0,0-.076-.028.131.131,0,0,0-.092.037c-.333.31-1.54,1.526-1.54,1.526l-1.333.5-1.191-1.191c-.037-.037.573-1.376.573-1.376l1.433-1.43a.177.177,0,0,0,.045-.193c-.037-.037-.284-.324-.362-.324h0a1.43,1.43,0,0,0-.292-.027ZM31.9,41.064a.231.231,0,0,1-.175-.075.284.284,0,0,1,.2-.465h.012a.227.227,0,0,1,.174.076.26.26,0,0,1,0,.368l0,0-.009.008a.317.317,0,0,1-.192.088Z" fill="#464646"/>
      <path id="polygon26" d="M38.752,36.882l.5-.515-4.314-4.46-.5.514Z" stroke="#474647" stroke-miterlimit="10" stroke-width="0.335" fill="url(#linear-gradient-11)"/>
      <path id="path858" d="M38.7,37.761l1.4-1.445,4.439,4.133a.8.8,0,0,1-.01,1.095l-.77.8a.738.738,0,0,1-1.042.027l-.027-.027Z" stroke="#474647" stroke-miterlimit="10" stroke-width="0.335" fill="url(#linear-gradient-12)"/>
      <path id="path28" d="M38.474,37.206a.462.462,0,0,1,.126-.2l.179-.185.672-.694a.306.306,0,0,1,.431-.012l.219.2-1.4,1.444-.2-.225a.368.368,0,0,1-.034-.33Z" stroke="#474647" stroke-miterlimit="10" stroke-width="0.335" fill="url(#linear-gradient-13)"/>
      <path id="path30" d="M35.516,30.541l-.371-.383-.373-.386a5.926,5.926,0,0,1,1.095-.569,11.627,11.627,0,0,1,1.608-.357A4.836,4.836,0,0,0,35.516,30.541ZM33.282,33.2l-.077-.081-.923-.953-.076-.079a.3.3,0,0,1,0-.417l2-2.068a.28.28,0,0,1,.4-.009l.01.009,1.074,1.109a.3.3,0,0,1,0,.417l-.569.587h0l-.14.143L33.687,33.2a.29.29,0,0,1-.405,0Zm-.258-.268-.775.8-.279-.288-.28-.289.775-.8Zm-2.275.249.212-.22a.357.357,0,0,1,.5-.011l.011.011.485.5.461.477h0l.023.023a.384.384,0,0,1,0,.531l-.211.219Z" stroke="#474647" stroke-linejoin="round" stroke-width="0.335" fill="url(#linear-gradient-14)"/>
    </g>
  </g>
</svg>
