<svg id="Livello_2" data-name="Livello 2" xmlns="http://www.w3.org/2000/svg" xmlns:xlink="http://www.w3.org/1999/xlink" viewBox="0 0 48 48">
  <defs>
    <linearGradient id="linear-gradient" x1="0.054" y1="46.709" x2="45.351" y2="5.151" gradientTransform="matrix(1, 0, 0, -1, 0, 52)" gradientUnits="userSpaceOnUse">
      <stop offset="0" stop-color="#fff"/>
      <stop offset="0.221" stop-color="#fbfbfc"/>
      <stop offset="0.541" stop-color="#ececec"/>
      <stop offset="0.92" stop-color="#d0cecd"/>
      <stop offset="1" stop-color="#c9c6c5"/>
    </linearGradient>
    <linearGradient id="linear-gradient-2" x1="82.315" y1="782.781" x2="133.868" y2="827.926" gradientTransform="translate(-67.243 -741.249) scale(0.838 0.952)" gradientUnits="userSpaceOnUse">
      <stop offset="0" stop-color="#fff"/>
      <stop offset="0.221" stop-color="#f8f8f8"/>
      <stop offset="0.541" stop-color="#e5e5e5"/>
      <stop offset="0.92" stop-color="#c6c6c6"/>
      <stop offset="1" stop-color="#bebebe"/>
    </linearGradient>
  </defs>
  <g id="g943">
    <path id="path35" d="M.522,44.478H47.478V10.043H19.3L15.75,4.712a2.087,2.087,0,0,0-1.736-.929H2.609A2.087,2.087,0,0,0,.522,5.87h0Z" fill="url(#linear-gradient)"/>
    <path id="path37" d="M48,45H0V5.87A2.609,2.609,0,0,1,2.609,3.261H14.014a2.6,2.6,0,0,1,2.17,1.162l3.4,5.1H48ZM1.043,43.957H46.957V10.565H19.025L15.316,5a1.566,1.566,0,0,0-1.3-.7H2.609A1.566,1.566,0,0,0,1.043,5.866V43.957Z" fill="#464646"/>
    <rect id="rect858" x="11.491" y="13.591" width="27.418" height="27.418" rx="0.198" stroke="#147391" stroke-width="0.982" fill="url(#linear-gradient-2)"/>
    <path id="path868" d="M16.546,40.517V13.683h0" fill="none" stroke="#464646" stroke-width="0.407" stroke-dasharray="0.407 0.813"/>
    <path id="path868-3" d="M22.67,40.517V13.683h0" fill="none" stroke="#464646" stroke-width="0.407" stroke-dasharray="0.407 0.813"/>
    <path id="path868-3-6" d="M28.8,40.517V13.683h0" fill="none" stroke="#464646" stroke-width="0.407" stroke-dasharray="0.407 0.813"/>
    <path id="path868-3-6-1" d="M34.861,40.517V13.683h0" fill="none" stroke="#464646" stroke-width="0.407" stroke-dasharray="0.407 0.813"/>
    <path id="path868-2" d="M12.083,36.114H38.917" fill="none" stroke="#464646" stroke-width="0.407" stroke-dasharray="0.407 0.813"/>
    <path id="path868-3-0" d="M12.083,29.932H38.917" fill="none" stroke="#464646" stroke-width="0.407" stroke-dasharray="0.407 0.813"/>
    <path id="path868-3-6-7" d="M12.083,23.923H38.917" fill="none" stroke="#464646" stroke-width="0.407" stroke-dasharray="0.407 0.813"/>
    <path id="path868-3-6-1-7" d="M12.083,17.74H38.917" fill="none" stroke="#464646" stroke-width="0.407" stroke-dasharray="0.407 0.813"/>
    <path id="polyline28" d="M15.667,33.175l7.208-7.533,3.5,2.333,7.573-6.782" fill="none" stroke="#147391" stroke-width="0.583"/>
    <circle id="circle30" cx="14.845" cy="34.175" r="1.167" fill="#fff" stroke="#147391" stroke-width="0.583"/>
    <circle id="circle32" cx="22.875" cy="26.027" r="1.167" fill="#fff" stroke="#147391" stroke-width="0.583"/>
    <circle id="circle34" cx="34.749" cy="20.54" r="1.167" fill="#fff" stroke="#147391" stroke-width="0.583"/>
    <circle id="circle36" cx="26.375" cy="27.975" r="1.167" fill="#fff" stroke="#147391" stroke-width="0.583"/>
    <path id="path4706" d="M15.356,24.46l7.771,6.615,6.822,1.275,4.924-4.983" fill="none" stroke="#147391" stroke-width="0.583"/>
    <circle id="circle32-3" cx="15.381" cy="24.46" r="1.167" fill="#fff" stroke="#147391" stroke-width="0.583"/>
    <circle id="circle32-3-1" cx="23.127" cy="31.075" r="1.167" fill="#fff" stroke="#147391" stroke-width="0.583"/>
    <circle id="circle32-3-1-7" cx="29.919" cy="32.38" r="1.167" fill="#fff" stroke="#147391" stroke-width="0.583"/>
    <circle id="circle32-3-1-2" cx="34.903" cy="27.337" r="1.167" fill="#fff" stroke="#147391" stroke-width="0.583"/>
  </g>
</svg>
