<svg id="Image" xmlns="http://www.w3.org/2000/svg" xmlns:xlink="http://www.w3.org/1999/xlink" viewBox="0 0 48 48">
  <defs>
    <linearGradient id="linear-gradient" x1="0.617" y1="45.724" x2="45.035" y2="7.306" gradientTransform="matrix(1, 0, 0, -1, 0, 52)" gradientUnits="userSpaceOnUse">
      <stop offset="0" stop-color="#fff"/>
      <stop offset="0.221" stop-color="#fbfbfc"/>
      <stop offset="0.541" stop-color="#ececec"/>
      <stop offset="0.92" stop-color="#d0cecd"/>
      <stop offset="1" stop-color="#c9c6c5"/>
    </linearGradient>
    <linearGradient id="linear-gradient-2" x1="12.884" y1="756.418" x2="38.208" y2="783.166" gradientTransform="translate(0 -744)" gradientUnits="userSpaceOnUse">
      <stop offset="0" stop-color="#73b4c8"/>
      <stop offset="0.175" stop-color="#6aaec3"/>
      <stop offset="0.457" stop-color="#529eb5"/>
      <stop offset="0.809" stop-color="#2c839f"/>
      <stop offset="1" stop-color="#147391"/>
    </linearGradient>
  </defs>
  <g id="g889">
    <g id="g39">
      <path id="path35" d="M1.5,43h45V10h-27L16.094,4.891A2,2,0,0,0,14.43,4H3.5a2,2,0,0,0-2,2Z" fill="url(#linear-gradient)"/>
      <path id="path37" d="M47,43.5H1V6A2.5,2.5,0,0,1,3.5,3.5H14.43a2.493,2.493,0,0,1,2.08,1.114L19.768,9.5H47Zm-45-1H46v-32H19.232L15.678,5.168A1.5,1.5,0,0,0,14.43,4.5H3.5A1.5,1.5,0,0,0,2,6Z" fill="#4e4a48"/>
    </g>
    <path id="path13" d="M33.091,33.818H25.136L19.455,39.5V33.818H14.909A3.419,3.419,0,0,1,11.5,30.409v-12.5A3.419,3.419,0,0,1,14.909,14.5H33.091A3.419,3.419,0,0,1,36.5,17.909v12.5A3.419,3.419,0,0,1,33.091,33.818Z" stroke="#464646" stroke-linecap="round" stroke-linejoin="round" fill="url(#linear-gradient-2)"/>
    <path id="path38" d="M23.73,28.206a1.19,1.19,0,0,1-1.19-1.19h0V25.643a3.5,3.5,0,0,1,2.021-3.175,1.984,1.984,0,0,0-.461-3.753,2.183,2.183,0,0,0-.37-.032,1.954,1.954,0,0,0-1.269.462,1.986,1.986,0,0,0-.715,1.522,1.191,1.191,0,0,1-2.381,0A4.365,4.365,0,0,1,23.73,16.3h.007a4.486,4.486,0,0,1,.776.068,4.365,4.365,0,0,1,1.049,8.259,1.114,1.114,0,0,0-.64,1.013v1.374a1.19,1.19,0,0,1-1.191,1.19Z" fill="#fff"/>
    <path id="path40" d="M23.735,16.7a3.967,3.967,0,0,1,1.659,7.57,1.514,1.514,0,0,0-.872,1.373v1.374a.794.794,0,0,1-1.588,0V25.643a3.108,3.108,0,0,1,1.791-2.814,2.38,2.38,0,0,0-.555-4.5,2.491,2.491,0,0,0-.44-.039,2.381,2.381,0,0,0-2.381,2.381h0a.794.794,0,0,1-1.587,0A3.968,3.968,0,0,1,23.73,16.7h.006m0-.794h0a4.762,4.762,0,0,0-4.767,4.757h0v.005a1.588,1.588,0,0,0,3.175,0,1.586,1.586,0,0,1,.567-1.216,1.568,1.568,0,0,1,1.02-.371,1.805,1.805,0,0,1,.3.026,1.588,1.588,0,0,1,.362,3,3.9,3.9,0,0,0-2.252,3.535v1.373a1.587,1.587,0,0,0,3.174,0V25.643a.715.715,0,0,1,.41-.652,4.759,4.759,0,0,0-1.991-9.085Z" fill="#197492"/>
    <path id="path42" d="M23.73,32.277a1.6,1.6,0,1,1,1.112-.461A1.588,1.588,0,0,1,23.73,32.277Z" fill="#fff"/>
    <path id="path44" d="M23.734,29.5a1.186,1.186,0,0,1,.841.332,1.24,1.24,0,1,1-.841-.332m0-.794a1.953,1.953,0,0,0-1.988,1.914v.063a2,2,0,1,0,2.02-1.977Z" fill="#197492"/>
  </g>
</svg>
