<svg id="Layer_1" data-name="Layer 1" xmlns="http://www.w3.org/2000/svg" xmlns:xlink="http://www.w3.org/1999/xlink" viewBox="0 0 48 48">
  <defs>
    <linearGradient id="linear-gradient" x1="7.1" y1="35.3" x2="32.9" y2="9.5" gradientTransform="matrix(1, 0, 0, -1, 0, 50)" gradientUnits="userSpaceOnUse">
      <stop offset="0" stop-color="#fff"/>
      <stop offset="0.221" stop-color="#f8f8f8"/>
      <stop offset="0.541" stop-color="#e5e5e5"/>
      <stop offset="0.92" stop-color="#c6c6c6"/>
      <stop offset="1" stop-color="#bebebe"/>
    </linearGradient>
    <linearGradient id="linear-gradient-2" x1="26.172" y1="23.867" x2="43.826" y2="6.214" gradientTransform="matrix(1, 0, 0, -1, 0, 50)" gradientUnits="userSpaceOnUse">
      <stop offset="0" stop-color="#73b4c8"/>
      <stop offset="0.175" stop-color="#6aaec3"/>
      <stop offset="0.457" stop-color="#529eb5"/>
      <stop offset="0.809" stop-color="#2c839f"/>
      <stop offset="1" stop-color="#147391"/>
    </linearGradient>
    <linearGradient id="linear-gradient-3" x1="32.525" y1="17.475" x2="37.475" y2="12.525" xlink:href="#linear-gradient"/>
  </defs>
  <g id="g870">
    <path id="rect2" d="M0,0H48V48H0Z" fill="none"/>
    <path id="polygon15" d="M1.1,34.5,12.6,14.7l2.9,5L9.9,29.5H30.1L17.1,6.8l2.9-5L38.9,34.5Z" fill="url(#linear-gradient)"/>
    <path id="path17" d="M20,2.8,38,34H2L12.6,15.7l2.3,4L9,30H31L17.7,6.8l2.3-4m0-2-.9,1.5-2.3,4-.3.5.3.5L29.3,29H10.7l5.1-8.8.3-.5-.3-.5-2.3-4-.9-1.5-.9,1.5L1.1,33.5.3,35H39.7l-.9-1.5L20.8,2.3,20,.8Z" fill="#464646"/>
    <path id="path122" d="M43.324,38,47.5,36.519V33.4l-4.176-1.482a.5.5,0,0,1-.293-.685l1.9-4-2.207-2.206-3.995,1.9a.5.5,0,0,1-.686-.275L36.56,22.5H33.44l-1.482,4.155a.506.506,0,0,1-.686.272l-3.995-1.9L25.07,27.235l1.9,4a.5.5,0,0,1-.291.686L22.5,33.4v3.12L26.676,38a.5.5,0,0,1,.293.686l-1.9,4,2.207,2.208L31.272,43a.5.5,0,0,1,.686.306l1.482,4.2h3.121l1.482-4.2a.488.488,0,0,1,.686-.314l3.995,1.9,2.207-2.207-1.9-3.995A.5.5,0,0,1,43.324,38Z" stroke="#464646" stroke-linejoin="round" fill="url(#linear-gradient-2)"/>
    <circle id="circle135" cx="35" cy="35" r="3.5" stroke="#464646" stroke-miterlimit="10" fill="url(#linear-gradient-3)"/>
  </g>
</svg>
