<svg id="Image" xmlns="http://www.w3.org/2000/svg" xmlns:xlink="http://www.w3.org/1999/xlink" viewBox="0 0 48 48">
  <defs>
    <linearGradient id="linear-gradient" x1="7.529" y1="-696.829" x2="34.816" y2="-724.117" gradientTransform="matrix(1, 0, 0, -1, 0, -692)" gradientUnits="userSpaceOnUse">
      <stop offset="0" stop-color="#fff"/>
      <stop offset="1" stop-color="#bebdbd"/>
    </linearGradient>
    <linearGradient id="linear-gradient-2" x1="14.845" y1="-722.577" x2="35.161" y2="-742.895" gradientTransform="matrix(1, 0, 0, -1, 0, -692)" gradientUnits="userSpaceOnUse">
      <stop offset="0" stop-color="#73b4c8"/>
      <stop offset="1" stop-color="#177492"/>
    </linearGradient>
    <linearGradient id="linear-gradient-3" x1="6.101" y1="-698.247" x2="14.663" y2="-706.809" xlink:href="#linear-gradient-2"/>
    <linearGradient id="linear-gradient-4" x1="29.364" y1="-698.932" x2="36.557" y2="-706.127" xlink:href="#linear-gradient-2"/>
    <linearGradient id="linear-gradient-5" x1="36.778" y1="-701.256" x2="42.326" y2="-706.806" xlink:href="#linear-gradient"/>
    <linearGradient id="linear-gradient-6" x1="37.045" y1="-698.454" x2="42.061" y2="-703.469" xlink:href="#linear-gradient"/>
    <linearGradient id="linear-gradient-7" x1="370.402" y1="-1184.248" x2="409.402" y2="-1223.248" gradientTransform="matrix(0.542, 0, 0, -0.539, -176.173, -611.164)" gradientUnits="userSpaceOnUse">
      <stop offset="0" stop-color="#fff"/>
      <stop offset="1" stop-color="#dcdcdc"/>
    </linearGradient>
  </defs>
  <g id="g1086">
    <g id="g49">
      <path id="path29" d="M19.281,36.788,7.082,15.605l-.1-.064a5.892,5.892,0,0,1-.526-.406l-.092-.082c-.168-.154-.283-.266-.394-.385l-.145-.157c-.107-.123-.208-.25-.306-.382l-.111-.148A5.594,5.594,0,0,1,4.769,12.8l-.046-.127c-.078-.216-.128-.367-.171-.523L4.5,11.925c-.038-.158-.066-.317-.092-.478l-.032-.21a5.978,5.978,0,0,1-.045-.707,6.063,6.063,0,0,1,6.055-6.055,6.416,6.416,0,0,1,.746.05l.147.023a5.85,5.85,0,0,1,.6.122l.183.046a6.057,6.057,0,0,1,1.341.572l.106.064a6.1,6.1,0,0,1,1.667,1.49,6.252,6.252,0,0,1,.444.661l.146.249H30.659v5.555H16.613L30.145,36.788Z" fill="url(#linear-gradient)"/>
      <path id="path31" d="M7.475,43.525V38.7A1.821,1.821,0,0,1,9.3,36.88H40.71a1.821,1.821,0,0,1,1.82,1.82v4.827Z" fill="url(#linear-gradient-2)"/>
      <path id="path33" d="M10.384,16.584a6.055,6.055,0,1,1,6.054-6.056h0A6.061,6.061,0,0,1,10.384,16.584Zm0-9.286a3.232,3.232,0,1,0,3.231,3.233h0A3.237,3.237,0,0,0,10.384,7.3Z" fill="url(#linear-gradient-3)"/>
      <path id="rect35" d="M30.729,5.567h4.463v9.925H30.729Z" fill="url(#linear-gradient-4)"/>
      <path id="polygon37" d="M40.2,13.562l2.47-1.353,2.043-.033L43.54,13.592l-3.34,1.83-5-2.727V10.834Z" fill="url(#linear-gradient-5)"/>
      <g id="g47">
        <path id="polygon39" d="M43.541,7.4l1.173,1.416-2.043-.033L40.2,7.43l-5,2.728V8.3l5-2.727Z" fill="url(#linear-gradient-6)"/>
        <g id="g45">
          <path id="path41" d="M14.115,10.53a3.731,3.731,0,1,0-3.731,3.731,3.73,3.73,0,0,0,3.731-3.731Zm-6.462,0a2.731,2.731,0,1,1,2.731,2.731A2.731,2.731,0,0,1,7.653,10.53Z" fill="#464646"/>
          <path id="path43" d="M40.2,12.992l-4.508-2.459v-.074L40.2,8l2.339,1.281,3.253.052L43.866,7.008,40.2,5,35.692,7.459V5.067H30.23V7.252H16.055A6.6,6.6,0,0,0,14.4,5.357l-.044-.032h0a6.654,6.654,0,0,0-.586-.4h0l-.115-.07h0a6.424,6.424,0,0,0-1.45-.619h0c-.065-.019-.132-.034-.2-.051h0a6.541,6.541,0,0,0-1.618-.21h0a6.555,6.555,0,0,0-6.558,6.552h0a6.59,6.59,0,0,0,.181,1.5h0c.013.054.028.107.042.16q.08.3.188.6c.023.065.045.13.071.194h0a6.542,6.542,0,0,0,.3.654h0a6.6,6.6,0,0,0,.838,1.2h0l.055.06A6.458,6.458,0,0,0,6.7,15.95L18.468,36.378H9.3A2.32,2.32,0,0,0,6.98,38.7v5.331H43.027V38.7a2.32,2.32,0,0,0-2.32-2.32H30.485L17.478,13.807H30.23v2.185h5.462V13.533L40.2,15.992l3.666-2.008,1.926-2.325-3.253.052Zm-4.5-4.4L40.2,6.14l3.019,1.653.418.506L42.8,8.285,40.68,7.123,40.2,6.86l-.48.262L35.7,9.315Zm6.327,30.1v4.327H7.975V38.7A1.32,1.32,0,0,1,9.3,37.38H40.71a1.321,1.321,0,0,1,1.32,1.32ZM6.8,14.769c-.059-.05-.115-.1-.172-.156-.094-.087-.185-.176-.273-.268-.057-.06-.113-.121-.167-.184-.084-.1-.163-.2-.24-.3-.046-.062-.1-.123-.139-.187-.076-.109-.134-.209-.194-.31s-.124-.213-.181-.323c-.065-.129-.129-.26-.193-.417-.027-.065-.049-.132-.073-.2-.049-.134-.094-.27-.132-.408-.02-.07-.038-.14-.054-.211-.034-.143-.061-.288-.083-.435l-.014-.089c-.006-.036-.013-.071-.017-.108a5.751,5.751,0,0,1-.041-.643h0a5.56,5.56,0,0,1,5.555-5.555c.142,0,.282.011.421.021.085.007.168.014.262.026a.879.879,0,0,1,.135.02l.057.009c.17.027.337.06.5.1l.033.008c.046.012.093.023.138.036a5.542,5.542,0,0,1,1.21.515c.045.025.088.053.131.08.157.1.309.2.454.308.031.024.064.047.1.072a5.594,5.594,0,0,1,.97.987l.027.035a5.478,5.478,0,0,1,.358.535c.014.025.03.048.044.073l.061.105A5.547,5.547,0,0,1,7.15,15.031,4.25,4.25,0,0,1,6.8,14.769ZM29.279,36.288H19.57L8.315,16.746a6.535,6.535,0,0,0,7.873-3.175l.424.735Zm.881-23.481H16.524a6.461,6.461,0,0,0,0-4.555H30.16Zm4.532,2.185H31.23V6.067h3.462Zm8.944-2.3-.418.506L40.2,14.853,35.7,12.4v-.722l4.021,2.193.48.262.479-.263,2.12-1.163Z" fill="#464646"/>
        </g>
      </g>
    </g>
    <path id="rect9" d="M22.036,27.535l25.315.136V47.6l-25.315-.135Z" fill="url(#linear-gradient-7)"/>
    <path id="path11" d="M47.153,28.064v19.2H22.236v-19.2m25.458-.841h-26V47.806h26Z" fill="#6f6e6e" stroke="#6f6e6e" stroke-width="0.388"/>
    <g id="g1045">
      <path id="line15-6-1" d="M24.324,32.285H35.431" fill="none" stroke="#177491" stroke-miterlimit="10" stroke-width="0.433"/>
      <path id="line17-5-9" d="M24.324,34.32H31.9" fill="none" stroke="#177491" stroke-miterlimit="10" stroke-width="0.433"/>
      <path id="path21-5" d="M40.037,33.768l-1.362-1.793L37.3,33.242l2.72,3.713,4.757-6.516L43.42,29.205" fill="#0e7191"/>
      <path id="polygon23-2" d="M38.031,33.205l.5-.411,1.533,2.082,3.409-4.632.494.417-3.9,5.315Z" fill="#3b90b2"/>
      <path id="rect956-3-2" d="M24.379,41.322v3.849h3.849V41.322Zm.55.55h2.749v2.749H24.929Z" fill="#0e7191"/>
      <path id="path974-2-3" d="M25.479,42.422l1.649,1.649" fill="none" stroke="#0e7191" stroke-width="0.55"/>
      <path id="path974-6-0-5" d="M27.128,42.367l-1.649,1.649" fill="none" stroke="#177491" stroke-width="0.55"/>
      <path id="rect956-7-7-4" d="M35.376,41.322v3.849h3.849V41.322Zm.55.55h2.749v2.749H35.926Z" fill="#177491"/>
      <path id="rect1006-2-2" d="M29.878,41.322h3.848v3.849H29.878Z" fill="#177491"/>
      <path id="rect1026-6-9" d="M35.684,41.675H37.3v1.571h-1.62Z" fill="#0e7191"/>
      <path id="rect1026-5-3-4" d="M37.3,43.243h1.508v1.445H37.3Z" fill="#0e7191"/>
      <path id="rect956-7-4-5-0" d="M40.874,41.322v3.849h3.849V41.322Zm.55.55h2.749v2.749H41.424Z" fill="#177491"/>
      <path id="rect1026-1-6-9" d="M41.424,41.872h.55v.55h-.55Z" fill="#177491"/>
      <path id="rect1026-1-3-1-8" d="M42.524,41.872h.55v.55h-.55Z" fill="#177491"/>
      <path id="rect1026-1-2-0-8" d="M43.624,41.872h.549v.55h-.549Z" fill="#177491"/>
      <path id="rect1026-1-1-1-0" d="M41.974,42.422h.55v.55h-.55Z" fill="#177491"/>
      <path id="rect1026-1-3-6-38-4" d="M43.074,42.422h.55v.55h-.55Z" fill="#177491"/>
      <path id="rect1026-1-8-8-4" d="M41.424,42.972h.55v.549h-.55Z" fill="#177491"/>
      <path id="rect1026-1-3-7-2-7" d="M42.524,42.972h.55v.549h-.55Z" fill="#177491"/>
      <path id="rect1026-1-2-5-0-3" d="M43.624,42.972h.549v.549h-.549Z" fill="#177491"/>
      <path id="rect1026-1-1-8-8-0" d="M41.974,43.521h.55v.55h-.55Z" fill="#177491"/>
      <path id="rect1026-1-3-6-3-3-1" d="M43.074,43.521h.55v.55h-.55Z" fill="#177491"/>
      <path id="rect1026-1-36-4-0" d="M41.424,44.071h.55v.55h-.55Z" fill="#177491"/>
      <path id="rect1026-1-3-61-9-4" d="M42.524,44.071h.55v.55h-.55Z" fill="#177491"/>
      <path id="rect1026-1-2-3-1-8" d="M43.624,44.071h.549v.55h-.549Z" fill="#177491"/>
    </g>
  </g>
</svg>
