<svg id="Layer_1" data-name="Layer 1" xmlns="http://www.w3.org/2000/svg" xmlns:xlink="http://www.w3.org/1999/xlink" viewBox="0 0 48 48">
  <defs>
    <linearGradient id="linear-gradient" x1="13.817" y1="41.577" x2="44.299" y2="15.939" gradientTransform="matrix(1, 0, 0, -1, 0.478, 50)" gradientUnits="userSpaceOnUse">
      <stop offset="0" stop-color="#73b4c8"/>
      <stop offset="0.175" stop-color="#6aaec3"/>
      <stop offset="0.457" stop-color="#529eb5"/>
      <stop offset="0.809" stop-color="#2c839f"/>
      <stop offset="1" stop-color="#147391"/>
    </linearGradient>
    <linearGradient id="linear-gradient-2" x1="26.057" y1="768.08" x2="38.18" y2="779.969" gradientTransform="translate(-0.069 -741.887)" gradientUnits="userSpaceOnUse">
      <stop offset="0" stop-color="#fff"/>
      <stop offset="0.221" stop-color="#f8f8f8"/>
      <stop offset="0.541" stop-color="#e5e5e5"/>
      <stop offset="0.92" stop-color="#c6c6c6"/>
      <stop offset="1" stop-color="#bebebe"/>
    </linearGradient>
    <linearGradient id="linear-gradient-3" x1="32.451" y1="774.601" x2="40.404" y2="782.289" gradientTransform="translate(0 -742.006)" xlink:href="#linear-gradient-2"/>
  </defs>
  <g id="g966">
    <g id="g957">
      <path id="rect45" d="M.521,6.432h43.15V23.538H.521Z" stroke="#464646" stroke-miterlimit="10" stroke-width="1.043" fill="url(#linear-gradient)"/>
      <path id="path970" d="M28.507,15.1V9.207l1.764.012,1.764.013,1.314,2.933c.722,1.613,1.331,2.927,1.353,2.92s.629-1.332,1.349-2.945L37.36,9.208h3.507v11.78H37.874l-.012-3.97-.013-3.97-1.091,2.558-1.091,2.558H33.561L32.47,15.606l-1.09-2.558-.013,3.97-.012,3.97H28.507Z" fill="#fff"/>
      <path id="path966" d="M3.062,20.952c0-.02.971-2.67,2.159-5.89l2.16-5.854H10.86l2.149,5.822c1.182,3.2,2.155,5.852,2.164,5.889.013.058-.224.068-1.526.068H12.105l-.409-1.2L11.287,18.6l-2.2-.013c-2.061-.012-2.2-.007-2.233.072-.019.047-.183.52-.364,1.051s-.355,1.036-.386,1.123l-.057.156H4.555C3.735,20.988,3.063,20.972,3.062,20.952Zm7.473-4.562c-.012-.033-.333-.973-.713-2.088s-.706-2.046-.726-2.068-.1.151-.18.386l-.728,2.128-.583,1.7H9.081C10.241,16.45,10.552,16.437,10.535,16.39Z" fill="#fff"/>
      <path id="path968" d="M19.334,21.109a13.642,13.642,0,0,1-2.909-.774c-.078-.03-.085-.144-.085-1.428V17.512h.146a1.3,1.3,0,0,1,.544.273,7.172,7.172,0,0,0,4.6,1.231,2.453,2.453,0,0,0,1.215-.36.922.922,0,0,0,.1-1.508c-.338-.285-.573-.355-2.646-.794a7.647,7.647,0,0,1-2.655-1.039,3.008,3.008,0,0,1-1.224-2.607,2.4,2.4,0,0,1,.136-.975A4.365,4.365,0,0,1,19.985,9.15a12.621,12.621,0,0,1,3.1-.066,14.44,14.44,0,0,1,2.4.543l.387.136.012,1.34.013,1.34h-.144a1.467,1.467,0,0,1-.558-.27,7.052,7.052,0,0,0-2.5-.968,5.6,5.6,0,0,0-2.241.1c-.825.276-1.149.822-.856,1.441.173.364.6.53,2.294.895a8.416,8.416,0,0,1,3.171,1.1,2.707,2.707,0,0,1,1.249,1.85,3.5,3.5,0,0,1-1.539,3.618,6.265,6.265,0,0,1-2.545.9A15.893,15.893,0,0,1,19.334,21.109Z" fill="#fff"/>
      <path id="path50" d="M42.866,37.227l4.5-1.595V32.274l-4.5-1.6A.538.538,0,0,1,42.527,30h0a.525.525,0,0,1,.022-.055L44.6,25.634l-2.377-2.377-4.3,2.046a.539.539,0,0,1-.719-.25h0a.458.458,0,0,1-.02-.046l-1.6-4.469h-3.36l-1.6,4.474a.546.546,0,0,1-.706.307l-.032-.014-4.308-2.046L23.2,25.635l2.046,4.307a.538.538,0,0,1-.258.716.531.531,0,0,1-.055.023L20.44,32.274v3.359l4.5,1.594a.538.538,0,0,1,.338.682h0a.542.542,0,0,1-.022.056l-2.047,4.307,2.377,2.377,4.308-2.039a.539.539,0,0,1,.714.265h0a.46.46,0,0,1,.025.065l1.6,4.522h3.355l1.6-4.522a.529.529,0,0,1,.647-.373.485.485,0,0,1,.092.035l4.308,2.045L44.6,42.271l-2.046-4.307a.538.538,0,0,1,.258-.716A.487.487,0,0,1,42.866,37.227Z" stroke="#464646" stroke-linejoin="round" stroke-width="1.077" fill="url(#linear-gradient-2)"/>
      <path id="circle52" d="M37.671,34a3.77,3.77,0,1,1-3.77-3.769A3.769,3.769,0,0,1,37.671,34Z" stroke="#464646" stroke-miterlimit="10" stroke-width="1.077" fill="url(#linear-gradient-3)"/>
    </g>
  </g>
</svg>
