<svg id="Layer_1" data-name="Layer 1" xmlns="http://www.w3.org/2000/svg" xmlns:xlink="http://www.w3.org/1999/xlink" viewBox="0 0 48 48">
  <defs>
    <linearGradient id="linear-gradient" x1="-64.009" y1="120.911" x2="-55.009" y2="120.911" gradientTransform="matrix(1.33, 0, 0, -1.363, 89.325, 178.845)" gradientUnits="userSpaceOnUse">
      <stop offset="0" stop-color="#73b4c8"/>
      <stop offset="0.175" stop-color="#6aaec3"/>
      <stop offset="0.457" stop-color="#529eb5"/>
      <stop offset="0.809" stop-color="#2c839f"/>
      <stop offset="1" stop-color="#147391"/>
    </linearGradient>
    <linearGradient id="linear-gradient-2" x1="19.904" y1="3.152" x2="55.841" y2="-13.831" gradientTransform="matrix(1, 0, 0, -1, -17.019, 29.547)" gradientUnits="userSpaceOnUse">
      <stop offset="0" stop-color="#f2f2f2"/>
      <stop offset="0.5" stop-color="#ccc"/>
      <stop offset="0.63" stop-color="#c7c7c7"/>
      <stop offset="0.779" stop-color="#b9b9b9"/>
      <stop offset="0.938" stop-color="#a2a2a2"/>
      <stop offset="0.99" stop-color="#999"/>
    </linearGradient>
  </defs>
  <g id="g956">
    <path id="path1610" d="M10.064,18.834c.151,3.258.3,6.518,1.522,8.108s3.5,1.511,5.462-1.154,3.6-7.914,5.03-11.5S24.733,8.76,26.12,7.973s2.942-.429,4.269,3.444,2.43,11.274,3.534,18.673" fill="none" stroke="#464646" stroke-width="1"/>
    <g id="g942">
      <path id="path1614" d="M6.654,4.009a.543.543,0,0,0-.5.581V8.93a.74.74,0,0,0,.013.08H2.622a.462.462,0,0,0-.463.463v.074a.463.463,0,0,0,.463.463h.571l0,0v4.818H3.2c.919,2.491,3.759,4.159,6.984,4.159s6.08-1.662,6.992-4.159V10.01h.5a.463.463,0,0,0,.463-.463V9.473a.462.462,0,0,0-.463-.463H14.132a.74.74,0,0,0,.013-.08V4.59a.505.505,0,1,0-1,0V8.93a.745.745,0,0,0,.014.08H7.14a.745.745,0,0,0,.014-.08V4.59A.544.544,0,0,0,6.654,4.009Z" fill="#464646" stroke="#6e6e6e" stroke-width="0.019" fill-rule="evenodd"/>
      <path id="path1614-9" d="M4.213,9.981l-.019,4.776c.8,2.255,3.254,3.233,5.993,3.234s5.189-.963,5.993-3.216V9.981Z" fill-rule="evenodd" fill="url(#linear-gradient)"/>
    </g>
    <path id="rect45-9" d="M10.55,30.55h35.9v15.9H10.55Z" stroke="#464646" stroke-miterlimit="10" stroke-width="1.101" fill="url(#linear-gradient-2)"/>
    <path id="path942" d="M13.02,38.727V33.464h2.257c2.757,0,3.181.05,3.979.467a2.318,2.318,0,0,1,1.212,1.438,3.768,3.768,0,0,1-.009,1.861,3.191,3.191,0,0,1-1.923,1.888,1.312,1.312,0,0,0-.3.139.9.9,0,0,0,.23.145,4.646,4.646,0,0,1,1.3,1.376c.343.51,1.642,2.535,1.944,3.03l.11.181H19.16L18.255,42.5a13.177,13.177,0,0,0-1.393-2.128,1.238,1.238,0,0,0-1.057-.442h-.4l-.032,1.122c-.017.617-.031,1.53-.032,2.028v.9H13.02Zm4.2-.73a1.568,1.568,0,0,0,.781-.75,1.254,1.254,0,0,0,.115-.67,1.168,1.168,0,0,0-.123-.676,1.4,1.4,0,0,0-.328-.4c-.319-.243-.576-.3-1.491-.307l-.81-.009-.012,1.442c-.007.794,0,1.473.012,1.509.022.055.161.061.786.033A2.21,2.21,0,0,0,17.217,38Z" fill="#fff"/>
    <path id="path944" d="M24.752,38.678V33.367h7.58V35.4H27.456v2.028h4.538v2.028H27.456v4.538h-2.7Z" fill="#fff"/>
    <path id="path946" d="M39.405,43.933a4.815,4.815,0,0,1-4.488-4.2,10.506,10.506,0,0,1-.024-2.326,4.939,4.939,0,0,1,2.592-3.841,6.615,6.615,0,0,1,3.586-.585,7.12,7.12,0,0,1,2.426.62l.519.218v2.545h-.163c-.126,0-.243-.064-.519-.284a4.1,4.1,0,0,0-2.893-1.1,2.759,2.759,0,0,0-2.386,1.54,3.657,3.657,0,0,0-.386,1.994,4.446,4.446,0,0,0,.091,1.159,2.84,2.84,0,0,0,2.705,2.278,4.083,4.083,0,0,0,2.882-1.076c.277-.225.421-.309.525-.309h.144v2.5l-.457.2A7.727,7.727,0,0,1,39.405,43.933Z" fill="#fff"/>
  </g>
</svg>
