<svg id="Layer_1" data-name="Layer 1" xmlns="http://www.w3.org/2000/svg" xmlns:xlink="http://www.w3.org/1999/xlink" viewBox="0 0 48 48">
  <defs>
    <linearGradient id="linear-gradient" x1="-542.99" y1="-626.804" x2="-584.49" y2="-585.304" gradientTransform="matrix(-0.916, 0, 0, 0.906, -494.417, 571.382)" gradientUnits="userSpaceOnUse">
      <stop offset="0" stop-color="#fff"/>
      <stop offset="0.232" stop-color="#fafafa"/>
      <stop offset="0.496" stop-color="#ededed"/>
      <stop offset="0.775" stop-color="#d6d6d6"/>
      <stop offset="1" stop-color="#bebebe"/>
    </linearGradient>
    <linearGradient id="linear-gradient-2" x1="-1554.694" y1="-455.983" x2="-1596.194" y2="-414.483" gradientTransform="matrix(-0.213, 0, 0, 0.639, -320.927, 294.898)" xlink:href="#linear-gradient"/>
    <linearGradient id="linear-gradient-3" x1="-550.506" y1="-709.829" x2="-576.506" y2="-683.829" gradientTransform="matrix(-0.917, 0, 0, 1.094, -494.614, 765.413)" gradientUnits="userSpaceOnUse">
      <stop offset="0" stop-color="#f2f2f2"/>
      <stop offset="0.5" stop-color="#ccc"/>
      <stop offset="0.63" stop-color="#c7c7c7"/>
      <stop offset="0.779" stop-color="#b9b9b9"/>
      <stop offset="0.938" stop-color="#a2a2a2"/>
      <stop offset="0.99" stop-color="#999"/>
    </linearGradient>
    <linearGradient id="linear-gradient-4" x1="34.024" y1="3.923" x2="53.091" y2="-15.144" gradientTransform="matrix(0.932, 0, 0, -0.935, -5.633, 29.708)" gradientUnits="userSpaceOnUse">
      <stop offset="0" stop-color="#73b4c8"/>
      <stop offset="0.175" stop-color="#6aaec3"/>
      <stop offset="0.457" stop-color="#529eb5"/>
      <stop offset="0.809" stop-color="#2c839f"/>
      <stop offset="1" stop-color="#147391"/>
    </linearGradient>
  </defs>
  <g id="g908">
    <path id="rect28" d="M43.544,38.544H.489V5.925H43.544Z" stroke="#464646" stroke-miterlimit="10" stroke-width="0.911" fill="url(#linear-gradient)"/>
    <path id="rect28-8" d="M19.856,28.136H9.839V5.119H19.856Z" stroke="#464646" stroke-miterlimit="10" stroke-width="1" fill="url(#linear-gradient-2)"/>
    <path id="rect26" d="M43.544,5.925H.456V.456H43.544Z" stroke="#464646" stroke-miterlimit="10" stroke-width="0.911" fill="url(#linear-gradient-3)"/>
    <path id="rect40" d="M40.322,2.284h1.832V4.1H40.322Z" fill="#6e6e6e"/>
    <path id="rect42" d="M36.657,2.284H38.49V4.1H36.657Z" fill="#6e6e6e"/>
    <path id="rect44" d="M32.993,2.284h1.832V4.1H32.993Z" fill="#6e6e6e"/>
    <path id="rect837" d="M2.861,2.834H7.244v.712H2.861Z" fill="#147391" stroke="#147391" stroke-linecap="square" stroke-width="0.196"/>
    <path id="rect837-6" d="M9.289,2.85h6.184v.68H9.289Z" fill="#147391" stroke="#147391" stroke-linecap="square" stroke-width="0.227"/>
    <path id="rect837-6-5" d="M17.518,2.834H21.9v.712H17.518Z" fill="#147391" stroke="#147391" stroke-linecap="square" stroke-width="0.196"/>
    <path id="rect837-6-7" d="M23.946,2.85h6.185v.68H23.946Z" fill="#147391" stroke="#147391" stroke-linecap="square" stroke-width="0.227"/>
    <path id="rect837-6-9" d="M11.464,8.76h6.75v.751h-6.75Z" fill="#147391" stroke="#147391" stroke-linecap="square" stroke-width="0.249"/>
    <path id="rect837-6-5-2" d="M11.446,11.743h4.786v.785H11.446Z" fill="#147391" stroke="#147391" stroke-linecap="square" stroke-width="0.215"/>
    <path id="rect837-6-5-22" d="M11.446,14.743h4.786v.785H11.446Z" fill="#147391" stroke="#147391" stroke-linecap="square" stroke-width="0.215"/>
    <path id="rect837-6-9-6" d="M11.464,17.76h6.75v.751h-6.75Z" fill="#147391" stroke="#147391" stroke-linecap="square" stroke-width="0.249"/>
    <path id="path39-7" d="M43.06,38.741l1.864,4.022-2.236,2.245-4.007-1.964a.482.482,0,0,0-.653.28l-1.49,4.209H33.369l-1.491-4.115c-.093-.281-.466-.468-.652-.281l-4.007,1.871-2.236-2.245,1.957-4.022a.483.483,0,0,0-.28-.654l-4.193-1.5V33.41l4.193-1.5a.514.514,0,0,0,.28-.654l-1.864-4.022,2.236-2.245,4.007,1.964a.482.482,0,0,0,.653-.28l1.49-4.209h3.169l1.491,4.209a.48.48,0,0,0,.652.28l4.007-1.964,2.236,2.245L43.06,31.259a.483.483,0,0,0,.28.654l4.193,1.5v3.18l-4.193,1.4C43.06,38.18,42.874,38.461,43.06,38.741ZM38.215,35a3.262,3.262,0,1,0-3.262,3.274A3.308,3.308,0,0,0,38.215,35Z" stroke="#147391" stroke-miterlimit="10" stroke-width="0.934" fill="url(#linear-gradient-4)"/>
  </g>
</svg>
