<svg id="Image" xmlns="http://www.w3.org/2000/svg" xmlns:xlink="http://www.w3.org/1999/xlink" viewBox="0 0 48 48">
  <defs>
    <linearGradient id="linear-gradient" x1="3.307" y1="770.428" x2="4.569" y2="767.879" gradientTransform="translate(0 -742)" gradientUnits="userSpaceOnUse">
      <stop offset="0" stop-color="#bfdee8"/>
      <stop offset="0.159" stop-color="#b3d6e2"/>
      <stop offset="0.706" stop-color="#8ec1d3"/>
      <stop offset="1" stop-color="#7fb8cd"/>
    </linearGradient>
    <linearGradient id="linear-gradient-2" x1="-3.953" y1="773.756" x2="0.039" y2="769.6" xlink:href="#linear-gradient"/>
    <linearGradient id="linear-gradient-3" x1="140.46" y1="218.048" x2="154.039" y2="214.961" gradientTransform="matrix(0.89, 0.455, 0.455, -0.89, -222.524, 133.441)" xlink:href="#linear-gradient"/>
    <linearGradient id="linear-gradient-4" x1="13.96" y1="44.893" x2="31.392" y2="28.103" gradientTransform="matrix(1, 0, 0, -1, 0, 51.666)" xlink:href="#linear-gradient"/>
    <linearGradient id="linear-gradient-5" x1="-1.279" y1="769.74" x2="0.282" y2="767.91" xlink:href="#linear-gradient"/>
  </defs>
  <g id="g918">
    <path id="path1069" d="M3.7,24.667l-.384,0-.023-.549-.023-.55,1.081-.154c.6-.016,1.315.082,1.571.06.438-.036.475-.044.632-.132a1.441,1.441,0,0,0,.508-.7c.2-.433.62-1.847,1.087-3.293a1.668,1.668,0,0,1,.411-.714.978.978,0,0,1,.189.1,4.327,4.327,0,0,0,.741.348c.048.015.089.04.089.056a15.3,15.3,0,0,1-.413,2.147A17.93,17.93,0,0,1,8.382,23.1a3.66,3.66,0,0,1-1.067,1.449c-.3.173-.555.263-2,.336A7.938,7.938,0,0,1,3.7,24.666Z" fill="url(#linear-gradient)"/>
    <path id="path1019" d="M3.458,23.1s1.658.051,2.72.025a.538.538,0,0,0,.3-.152.862.862,0,0,0,.229-.306c.668-1.48,1.5-3.839,1.5-3.839h0" fill="none" stroke="#464646" stroke-width="0.9"/>
    <path id="path1021" d="M3.458,24.98s1.44.043,3.152,0a1.929,1.929,0,0,0,.648-.153,2.1,2.1,0,0,0,.547-.368,3.314,3.314,0,0,0,.509-.6,2.562,2.562,0,0,0,.216-.394A40.359,40.359,0,0,0,10,19.438" fill="none" stroke="#4e4a48" stroke-width="0.9"/>
    <path id="path986" d="M12.966,16.9a2.683,2.683,0,0,1-2.644,2.721h0A2.683,2.683,0,0,1,7.678,16.9h0a2.645,2.645,0,1,1,5.288,0Z" stroke="#464646" stroke-width="0.941" fill="url(#linear-gradient-2)"/>
    <path id="path988" d="M10.983,16.946a.7.7,0,0,1-.661.737h0a.7.7,0,0,1-.661-.737h0a.665.665,0,1,1,1.322,0Z" fill="#4e4a48" stroke="#464646" stroke-width="0.941"/>
    <path id="rect984" d="M24.674,18.369l1.864,1.054L24.8,22.5,22.931,21.45Z" fill="#464646" stroke="#464646" stroke-width="0.895"/>
    <path id="rect979" d="M5.808,3.878l19.12,9.779a1.918,1.918,0,0,1,.836,2.587l-2.426,4.743a1.918,1.918,0,0,1-2.587.836L1.631,12.044A1.918,1.918,0,0,1,.8,9.457L3.221,4.714A1.918,1.918,0,0,1,5.808,3.878Z" stroke="#464646" stroke-width="1.08" fill="url(#linear-gradient-3)"/>
    <path id="rect981" d="M9.463,3.875,29.829,14.186c.973.492,3.928,1.83,2.883,2.143l-4.331,1.3c-1.045.313-2.8.68-3.771.189L6.889,8.876a1.959,1.959,0,0,1-.85-2.652l.772-1.5A1.969,1.969,0,0,1,9.463,3.875Z" stroke="#464646" stroke-width="1.177" fill="url(#linear-gradient-4)"/>
    <path id="rect990" d="M1.572,20.455h.659a1.111,1.111,0,0,1,1.113,1.113v4.883a1.111,1.111,0,0,1-1.113,1.113H1.572A1.111,1.111,0,0,1,.459,26.451V21.568A1.111,1.111,0,0,1,1.572,20.455Z" stroke="#464646" stroke-width="0.888" fill="url(#linear-gradient-5)"/>
    <path id="rect992" d="M.454,20.467H.937v7.084H.454Z" fill="#73b4c8" stroke="#464646" stroke-width="0.891"/>
    <path id="path857" d="M46.014,26.334l-16.236.013,0,4.871" fill="none" stroke="#147391" stroke-miterlimit="10" stroke-width="0.844"/>
    <path id="path859" d="M46.016,28.737,29.78,28.75" fill="none" stroke="#147391" stroke-miterlimit="10" stroke-width="0.844"/>
    <path id="path861" d="M35.428,26.342l0,4.871" fill="none" stroke="#147391" stroke-miterlimit="10" stroke-width="0.844"/>
    <path id="path863" d="M36.991,31.991l10-3.385a10.493,10.493,0,0,0-15.722-5.443Z" fill="#4393ac" fill-rule="evenodd"/>
    <path id="path865" d="M36.991,31.991l-5.722-8.828a10.554,10.554,0,1,0,15.722,5.443Z" fill="#dedede" fill-rule="evenodd"/>
    <path id="path867" d="M46.991,28.606l-10,3.385-5.722-8.828" fill="none" stroke="#147391" stroke-width="1.429"/>
    <path id="path869" d="M37,21.652l0,2.728" fill="none" stroke="#147391" stroke-width="0.844"/>
    <path id="path871" d="M37,39.59l0,2.728" fill="none" stroke="#6e6e6e" stroke-width="0.844"/>
    <path id="path873" d="M29.393,32l-2.728,0" fill="none" stroke="#6e6e6e" stroke-width="0.844"/>
    <path id="path875" d="M47.394,32l-2.728,0" fill="none" stroke="#6e6e6e" stroke-width="0.844"/>
    <path id="path877" d="M42.964,29.194l.586,1.688L36.6,33.291l-5.138-7.92,1.558-.975,4.357,6.686Z" fill="#fff"/>
    <path id="path879" d="M47.578,31.983A10.589,10.589,0,0,1,37,42.578h0a10.577,10.577,0,1,1,10.578-10.6Z" fill="none" stroke="#464646" stroke-linecap="round" stroke-linejoin="round" stroke-width="0.844"/>
    <path id="path881" d="M33.677,29.526c-1.5-2.337-2.731-4.284-2.731-4.284.065,0,1.947-1.236,2.077-1.3a.2.2,0,0,1,.13-.065s.975,1.493,2.211,3.376c1.17,1.817,2.146,3.31,2.146,3.31a25.846,25.846,0,0,0,2.792-.911c1.558-.521,2.857-.977,2.857-.977.065,0,.846,2.467.846,2.467,0,.065-7.532,2.6-7.532,2.6C36.408,33.746,35.173,31.863,33.677,29.526Zm7.535,1.748,1.754-.586-.326-.974s-1.234.39-2.727.911a21.914,21.914,0,0,1-2.727.847c-.065,0-.976-1.493-2.146-3.246-1.171-1.817-2.146-3.31-2.146-3.31a9.486,9.486,0,0,0-.844.585s1.041,1.688,2.341,3.7l2.341,3.635,1.429-.521Z" fill="#464646"/>
  </g>
</svg>
