<svg id="Layer_1" data-name="Layer 1" xmlns="http://www.w3.org/2000/svg" xmlns:xlink="http://www.w3.org/1999/xlink" viewBox="0 0 48 48">
  <defs>
    <linearGradient id="linear-gradient" x1="43.369" y1="806.283" x2="77.033" y2="839.947" gradientTransform="translate(-35.125 -697.368) scale(0.875 0.875)" gradientUnits="userSpaceOnUse">
      <stop offset="0" stop-color="#fff"/>
      <stop offset="0.221" stop-color="#f8f8f8"/>
      <stop offset="0.541" stop-color="#e5e5e5"/>
      <stop offset="0.92" stop-color="#c6c6c6"/>
      <stop offset="1" stop-color="#bebebe"/>
    </linearGradient>
    <linearGradient id="linear-gradient-2" x1="49.269" y1="791.45" x2="78.85" y2="818.954" gradientTransform="translate(-35.125 -697.368) scale(0.875 0.875)" gradientUnits="userSpaceOnUse">
      <stop offset="0" stop-color="#73b4c8"/>
      <stop offset="0.175" stop-color="#6aaec3"/>
      <stop offset="0.457" stop-color="#529eb5"/>
      <stop offset="0.809" stop-color="#2c839f"/>
      <stop offset="1" stop-color="#147391"/>
    </linearGradient>
    <linearGradient id="linear-gradient-3" x1="62.837" y1="-39.056" x2="78.804" y2="-19.342" gradientTransform="matrix(0.875, 0, 0, -0.875, -35.125, -2.632)" xlink:href="#linear-gradient-2"/>
    <linearGradient id="linear-gradient-4" x1="75.842" y1="-26.7" x2="81.57" y2="-19.357" gradientTransform="matrix(0.875, 0, 0, -0.875, -35.125, -2.632)" xlink:href="#linear-gradient-2"/>
    <linearGradient id="linear-gradient-5" x1="152.697" y1="-1310.006" x2="172.331" y2="-1329.641" gradientTransform="matrix(0.867, 0, 0, -0.867, -105.813, -1109.2)" gradientUnits="userSpaceOnUse">
      <stop offset="0" stop-color="#6ab1c3"/>
      <stop offset="0.175" stop-color="#64acbe"/>
      <stop offset="0.457" stop-color="#509cb0"/>
      <stop offset="0.809" stop-color="#31849d"/>
      <stop offset="1" stop-color="#1f7690"/>
    </linearGradient>
  </defs>
  <g id="g976">
    <path id="path13" d="M.512,12.293V39.438a2.05,2.05,0,0,0,2.048,2.05H39.439a2.049,2.049,0,0,0,2.049-2.047V12.293Z" fill="url(#linear-gradient)"/>
    <path id="path26" d="M41.488,12.805V2.562A2.048,2.048,0,0,0,39.442.512H2.562a2.05,2.05,0,0,0-2.05,2.05h0V12.805Z" stroke="#147391" stroke-miterlimit="10" stroke-width="1.025" fill="url(#linear-gradient-2)"/>
    <path id="circle42" d="M14.854,6.125a1.537,1.537,0,0,1-1.537,1.537h0a1.536,1.536,0,0,1-1.536-1.537h0a1.536,1.536,0,0,1,1.536-1.536h0A1.537,1.537,0,0,1,14.854,6.125Z" fill="#fff" stroke="#147391" stroke-miterlimit="10" stroke-width="1.036"/>
    <path id="circle44" d="M14.854,6.146a1.537,1.537,0,0,1-1.537,1.537h0a1.536,1.536,0,0,1-1.536-1.537h0A1.536,1.536,0,0,1,13.317,4.61h0A1.537,1.537,0,0,1,14.854,6.146Z" fill="#fff" stroke="#147391" stroke-miterlimit="10" stroke-width="1.036"/>
    <path id="circle46" d="M30.219,6.146a1.536,1.536,0,0,1-1.536,1.537h0a1.537,1.537,0,0,1-1.537-1.537h0A1.537,1.537,0,0,1,28.683,4.61h0A1.536,1.536,0,0,1,30.219,6.146Z" fill="#fff" stroke="#147391" stroke-miterlimit="10" stroke-width="1.036"/>
    <path id="path48" d="M41.488,39.438V2.562A2.048,2.048,0,0,0,39.442.512H2.562A2.05,2.05,0,0,0,.512,2.56V39.438a2.05,2.05,0,0,0,2.048,2.05H39.439a2.049,2.049,0,0,0,2.049-2.047Z" fill="none" stroke="#464646" stroke-miterlimit="10" stroke-width="1.025"/>
    <path id="path836" d="M21.762,15.443a2.045,2.045,0,0,0-1.855,2.193h0a2.044,2.044,0,0,0,1.855,2.192h0a2.046,2.046,0,0,0,1.856-2.192A2.047,2.047,0,0,0,21.762,15.443Zm0,.675a1.382,1.382,0,0,1,1.181,1.518,1.382,1.382,0,0,1-1.181,1.518,1.382,1.382,0,0,1-1.181-1.518A1.382,1.382,0,0,1,21.762,16.118Z" fill="#464646"/>
    <path id="path864" d="M21.742,17.62h-.021l-.63.022-.558.049-.422.037-.4.071-.447.1-.411.133-.3.133-.316.158-.386.241-.338.291-.291.29-.262.4L16.741,20l-.114.319-.082.273-.106.457-.065.4-.05.354-.056.447-.039.4-.029.547-.023.358-.024.4-.018.385-.029.607-.048.559-.034.33L16,26.142l-.072.62a1.249,1.249,0,0,0-.022.184c0,.053-.052.32-.052.32l-.047.3-.088.406c0,.017-.063.277-.063.277l-.112.429-.077.316-.088.294-.069.2-.116.325-.106.291-.116.283-.128.281-.137.268-.133.27s-.136.218-.136.235a1.98,1.98,0,0,1-.093.184l-.167.283a1.519,1.519,0,0,0-.111.175,2.1,2.1,0,0,1-.138.2l-.239.358-.141.2L13.428,33l-.115.136-.137.175-.146.193-.131.2-.082.157,8.9.047h.041l8.9-.047-.082-.158-.132-.2-.146-.193-.137-.175L30.049,33l-.124-.154-.14-.2-.24-.358a2.094,2.094,0,0,1-.137-.2,1.745,1.745,0,0,0-.11-.181l-.16-.279c-.035-.059-.066-.121-.1-.183,0-.018-.136-.236-.136-.236l-.133-.269-.137-.269-.128-.281-.116-.282-.106-.292-.115-.324-.065-.2-.087-.294-.078-.316-.11-.428s-.06-.263-.064-.277-.088-.406-.088-.406l-.047-.3a3.1,3.1,0,0,1-.051-.32,1.4,1.4,0,0,0-.021-.183l-.072-.62-.022-.311-.034-.33-.048-.559-.029-.607-.017-.385-.026-.4-.021-.359-.03-.547-.039-.4-.056-.447-.051-.355-.063-.394-.108-.457-.081-.273L26.749,20l-.216-.459-.262-.4-.291-.289-.339-.291-.385-.241-.315-.158-.3-.133-.412-.133-.447-.1-.4-.072-.422-.036-.556-.049-.632-.022Z" stroke="#464646" stroke-width="0.672" fill="url(#linear-gradient-3)"/>
    <path id="path1095-7" d="M33.839,29.086l-.6.35a5.047,5.047,0,0,1,.291,7.132c-.093.1-.19.2-.291.292l.607.35a5.709,5.709,0,0,0,.049-8.074l-.049-.049Z" fill="#464646"/>
    <path id="path990-2-9-0" d="M32.616,29.791l-.628.364a3.7,3.7,0,0,1,0,5.985l.627.363a4.374,4.374,0,0,0,0-6.712Z" fill="#464646"/>
    <path id="path1095-7-4" d="M10.111,28.692l.6.35a5.047,5.047,0,0,0-.293,7.131c.094.1.191.2.293.293l-.607.35a5.708,5.708,0,0,1-.051-8.073l.051-.05Z" fill="#464646"/>
    <path id="path990-2-9-0-6" d="M11.334,29.4l.629.363a3.7,3.7,0,0,0-.006,5.986l-.627.362a4.371,4.371,0,0,1,0-6.711Z" fill="#464646"/>
    <path id="path850" d="M16.363,30.609l.87-.237.405-1.776.184-.949.143-1.012.148-1.435.058-.975.1-2.356.059-.48.088-.59.094-.359.088-.253.153-.31-.153.087-.2.161-.158.175-.105.169-.127.262-.094.243-.088.316-.087.395-.063.5-.069.511-.069.912-.073.943-.069.944-.095.912-.121.954-.122.73-.111.538-.121.458-.127.443-.153.525Z" fill="#fff"/>
    <path id="path1030" d="M31.238,34.279c0,.981-4.245,1.777-9.482,1.777s-9.482-.794-9.482-1.777S16.52,32.5,21.756,32.5,31.238,33.3,31.238,34.279Z" fill="#464646"/>
    <path id="path834" d="M30.158,34.364c0,.577-3.8,1.045-8.487,1.045h0c-4.688,0-8.488-.468-8.488-1.045h0c0-.577,3.8-1.05,8.488-1.05h0C26.357,33.314,30.158,33.783,30.158,34.364Z" fill="#b7b4b3"/>
    <path id="path818" d="M18.132,39.383a1.522,1.522,0,0,1-.759-.46,1.354,1.354,0,0,1-.383-.719,1.558,1.558,0,0,1,1.193-1.781.316.316,0,0,0,.188-.087c.012-.032.109-.558.214-1.173l.282-1.97c.466-.035.452.022,1.1.022a7.258,7.258,0,0,0-.372,1.451c-.057.328-.154.881-.216,1.232l-.113.639.263.226a1.448,1.448,0,0,1,.454,1.662,2.159,2.159,0,0,1-.244.438,1.813,1.813,0,0,1-.882.525,1.131,1.131,0,0,1-.727,0Z" stroke="#464646" stroke-linejoin="round" stroke-width="0.479" fill="url(#linear-gradient-4)"/>
    <path id="rect932" d="M1.007,33.782H6.125v1.024H1.007Z" fill="#6e6e6e"/>
    <path id="rect932-2" d="M1.011,26.612H7v1.026H1.011Z" fill="#6e6e6e"/>
    <path id="rect932-2-4" d="M1.025,19.429h12.1v1.025H1.025Z" fill="#6e6e6e"/>
    <path id="rect932-2-3" d="M30.625,19.437H40.981v1.025H30.625Z" fill="#6e6e6e"/>
    <path id="rect932-2-45" d="M34.973,26.6H40.98v1.025H34.973Z" fill="#6e6e6e"/>
    <path id="rect932-2-2" d="M36.558,33.792h4.42v1.025h-4.42Z" fill="#6e6e6e"/>
    <path id="rect932-2-2-3" d="M33.817,38.5v2.45H32.793V38.5Z" fill="#6e6e6e"/>
    <path id="rect932-2-2-3-7" d="M33.817,13.29V26.25H32.793V13.29Z" fill="#6e6e6e"/>
    <path id="rect932-2-2-3-5" d="M25.614,13.293V15.75H24.588V13.293Z" fill="#6e6e6e"/>
    <path id="rect932-2-2-3-9" d="M17.419,13.283V15.75H16.394V13.283Z" fill="#6e6e6e"/>
    <path id="rect932-2-2-3-0" d="M9.227,13.312V26.25H8.2V13.312Z" fill="#6e6e6e"/>
    <path id="rect932-2-2-3-5-9" d="M25.6,38.5v2.47H24.579V38.5Z" fill="#6e6e6e"/>
    <path id="rect932-2-2-3-5-9-7" d="M17.413,39.83v1.148H16.387V39.83Z" fill="#6e6e6e"/>
    <path id="rect932-2-2-3-5-9-77" d="M9.214,38.5v2.45H8.19V38.5Z" fill="#6e6e6e"/>
    <path id="circle42-5" d="M47.037,35A12.037,12.037,0,0,1,35,47.037h0A12.037,12.037,0,0,1,22.963,35h0A12.037,12.037,0,0,1,35,22.963h0A12.037,12.037,0,0,1,47.037,35Z" fill="url(#linear-gradient-5)"/>
    <path id="path44-9" d="M35,48A13,13,0,1,1,48,35,13,13,0,0,1,35,48Zm0-25.037A12.037,12.037,0,1,0,47.038,35,12.037,12.037,0,0,0,35,22.963Z" fill="#3f4143"/>
    <path id="path931" d="M32.027,27.236a8.326,8.326,0,0,0-4.649,3.78l1.635.776a6.793,6.793,0,0,1,8.968-2.271,5.54,5.54,0,0,1,1.6,1.106,3.907,3.907,0,0,1-.808.051c-.432,0-.818.015-.855.026A7.618,7.618,0,0,0,38,32.52c.025.014,1.018.019,2.208.01s2.2-.022,2.246-.032.082-.076.082-.148c0-.223-.262-4.546-.283-4.694-.017-.121-.134-.141-.843-.135-.569,0-.83.036-.843.1a6.5,6.5,0,0,0,.03.812,4.381,4.381,0,0,1,.018.706c-.015-.009-.3-.221-.633-.472A8.641,8.641,0,0,0,32.027,27.236Z" fill="#fff" stroke="#187491" stroke-width="1.5"/>
    <path id="path934" d="M37.987,32.3a6.784,6.784,0,0,1-.045-.855c0-.509.022-.639.114-.675a5.157,5.157,0,0,1,.833-.043c.827,0,.851-.035.315-.442a9,9,0,0,0-2.879-1.4,9.223,9.223,0,0,0-3.23,0,7.317,7.317,0,0,0-3.868,2.6l-.214.3-.767-.359c-.421-.2-.778-.369-.792-.383a6.772,6.772,0,0,1,1.295-1.7,8.4,8.4,0,0,1,4.656-2.367,11.117,11.117,0,0,1,3.221.14,9.553,9.553,0,0,1,3.366,1.623c.277.2.546.395.6.427.077.046.085-.092.045-.735l-.051-.791.483-.051a3.446,3.446,0,0,1,1.159.056c.033.037.3,4.766.268,4.818-.016.029-1.026.054-2.245.054H38.032Z" fill="#fff"/>
    <path id="path931-8" d="M38.082,43.179a8.581,8.581,0,0,0,4.074-2.909,8.4,8.4,0,0,0,.574-.872l-1.63-.775a6.792,6.792,0,0,1-8.969,2.271,5.5,5.5,0,0,1-1.6-1.107,3.976,3.976,0,0,1,.808-.05c.432,0,.817-.015.854-.026a7.625,7.625,0,0,0-.086-1.817c-.024-.013-1.018-.018-2.207-.01s-2.2.023-2.246.032-.083.077-.082.149c0,.222.262,4.545.283,4.694.017.121.134.141.842.135.57,0,.83-.036.843-.1q.006-.406-.029-.812a4.5,4.5,0,0,1-.019-.706c.016.009.3.221.634.472a8.64,8.64,0,0,0,7.956,1.429Z" fill="#fff" stroke="#187491" stroke-width="1.5"/>
    <path id="path934-0" d="M32.121,38.113a6.429,6.429,0,0,1,.045.855c0,.509-.022.639-.114.674a5.158,5.158,0,0,1-.833.044c-.826,0-.851.035-.315.442a9.01,9.01,0,0,0,2.88,1.4,9.223,9.223,0,0,0,3.23,0,7.321,7.321,0,0,0,3.868-2.6l.214-.3.766.358c.422.2.779.37.793.384a6.815,6.815,0,0,1-1.3,1.7A8.4,8.4,0,0,1,36.7,43.429a11.117,11.117,0,0,1-3.221-.14,9.534,9.534,0,0,1-3.365-1.624c-.277-.2-.546-.394-.6-.426-.076-.046-.085.092-.044.734l.05.792-.483.051a3.446,3.446,0,0,1-1.159-.056c-.032-.037-.3-4.766-.268-4.818.016-.029,1.026-.054,2.245-.054h2.216Z" fill="#fff"/>
  </g>
</svg>
