<svg id="Image" xmlns="http://www.w3.org/2000/svg" xmlns:xlink="http://www.w3.org/1999/xlink" viewBox="0 0 48 48">
  <defs>
    <linearGradient id="linear-gradient" x1="230.108" y1="258.986" x2="245.799" y2="258.582" gradientTransform="matrix(0.707, 0.707, 0.756, -0.756, -343.096, 50.861)" gradientUnits="userSpaceOnUse">
      <stop offset="0" stop-color="#73b4c8"/>
      <stop offset="1" stop-color="#177491"/>
    </linearGradient>
    <linearGradient id="linear-gradient-2" x1="-529.799" y1="36.303" x2="-542.928" y2="23.175" gradientTransform="translate(-515.995 47.029) rotate(180)" gradientUnits="userSpaceOnUse">
      <stop offset="0" stop-color="#fff"/>
      <stop offset="1" stop-color="#dcdcdc"/>
    </linearGradient>
    <linearGradient id="linear-gradient-3" x1="-542.498" y1="22.919" x2="-558.211" y2="7.205" gradientTransform="translate(-515.995 47.029) rotate(180)" gradientUnits="userSpaceOnUse">
      <stop offset="0" stop-color="#f2f2f2"/>
      <stop offset="1" stop-color="#999"/>
    </linearGradient>
    <linearGradient id="linear-gradient-4" x1="6.519" y1="46.996" x2="17.814" y2="36.208" gradientTransform="matrix(1, 0, 0, -1, -1.995, 47.029)" xlink:href="#linear-gradient-3"/>
    <linearGradient id="linear-gradient-5" x1="26.095" y1="768.128" x2="38.218" y2="780.017" gradientTransform="translate(-0.069 -741.788)" gradientUnits="userSpaceOnUse">
      <stop offset="0" stop-color="#fff"/>
      <stop offset="0.221" stop-color="#f8f8f8"/>
      <stop offset="0.541" stop-color="#e5e5e5"/>
      <stop offset="0.92" stop-color="#c6c6c6"/>
      <stop offset="1" stop-color="#bebebe"/>
    </linearGradient>
    <linearGradient id="linear-gradient-6" x1="32.484" y1="774.655" x2="40.437" y2="782.343" gradientTransform="translate(0 -741.907)" xlink:href="#linear-gradient-5"/>
  </defs>
  <g id="g924">
    <path id="path31" d="M5.305,41.442c-.155,0-.312-.009-.472-.024A4.756,4.756,0,0,1,.567,37.229,2.263,2.263,0,0,1,.85,35.477L22.61,14.329a.677.677,0,0,0,.359-.658.541.541,0,0,0-.008-.106c-.123-.677-1.112-6.7,2.043-9.851A10.252,10.252,0,0,1,32.01.629c.166-.006.327-.011.488-.011a3.571,3.571,0,0,1,.765.068h0a5.294,5.294,0,0,1,.721.707l-4.3,4.271a.5.5,0,0,0-.1.146c-1.969,4.314-1.907,4.375-1.61,4.67l3.554,3.555a.5.5,0,0,0,.53.115l3.975-1.493a.5.5,0,0,0,.179-.116c.035-.035,3.44-3.464,4.512-4.474a3.25,3.25,0,0,1,.685.748,10.593,10.593,0,0,1-3.128,8.314,9.266,9.266,0,0,1-6.281,2.25c-.2.006-.4.01-.611.01a21.464,21.464,0,0,1-3.082-.223.765.765,0,0,0-.66.262l-21,21.619A1.969,1.969,0,0,1,5.305,41.442ZM5.669,35.1a1.346,1.346,0,0,0-.944,2.241,1.17,1.17,0,0,0,.876.37,1.465,1.465,0,0,0,.958-.408,1.349,1.349,0,0,0,.407-.952,1.245,1.245,0,0,0-.371-.882,1.166,1.166,0,0,0-.87-.37Z" fill="url(#linear-gradient)"/>
    <path id="path33" d="M32.5,1.116a3.528,3.528,0,0,1,.553.037c.051.043.123.111.226.217L29.335,5.311a.961.961,0,0,0-.2.292c-2.113,4.628-2.068,4.673-1.511,5.23l3.556,3.556a1,1,0,0,0,1.058.229l3.974-1.489a1.01,1.01,0,0,0,.358-.232c.032-.032,2.847-2.866,4.156-4.134.093.1.155.168.194.217a10.1,10.1,0,0,1-2.979,7.792,8.783,8.783,0,0,1-5.952,2.111c-.193.006-.393.01-.6.01a21.055,21.055,0,0,1-3-.218,1.053,1.053,0,0,0-.148-.011h-.036a1.212,1.212,0,0,0-.917.425L6.305,40.688a1.5,1.5,0,0,1-.993.254c-.138,0-.279-.008-.422-.022a4.259,4.259,0,0,1-3.825-3.754,1.991,1.991,0,0,1,.13-1.329L22.918,14.729a1.178,1.178,0,0,0,.551-1.04,1,1,0,0,0-.016-.212c-.118-.65-1.07-6.433,1.905-9.407a9.755,9.755,0,0,1,6.669-2.941c.157-.006.314-.011.47-.011M5.605,38.207h.068a1.929,1.929,0,0,0,1.245-.553,1.85,1.85,0,0,0,.553-1.245,1.735,1.735,0,0,0-.515-1.3A1.683,1.683,0,0,0,5.728,34.6H5.66a1.775,1.775,0,0,0-1.245.552,1.85,1.85,0,0,0-.553,1.245,1.735,1.735,0,0,0,.515,1.3,1.658,1.658,0,0,0,1.228.516M41.142,8.363h0M32.5.116c-.168,0-.336.006-.5.011a10.8,10.8,0,0,0-7.343,3.231c-3.089,3.089-2.472,8.7-2.181,10.294,0,.115-.008.23-.123.234L.5,35.12A2.691,2.691,0,0,0,.07,37.285a5.242,5.242,0,0,0,4.718,4.63,5.041,5.041,0,0,0,.522.027,2.368,2.368,0,0,0,1.7-.547L28.005,19.783c.119-.119.119-.119.234-.123a21.85,21.85,0,0,0,3.151.229c.216,0,.427,0,.631-.011a9.741,9.741,0,0,0,6.626-2.4,11.113,11.113,0,0,0,3.258-8.749c-.011-.262-.59-.814-.939-1.121a.342.342,0,0,0-.228-.086.4.4,0,0,0-.273.111c-1,.927-4.6,4.557-4.6,4.557l-3.98,1.492-3.556-3.553c-.111-.111,1.713-4.108,1.713-4.108L34.32,1.744a.53.53,0,0,0,.134-.579C34.343,1.054,33.606.2,33.372.2h0A4.051,4.051,0,0,0,32.5.119ZM5.605,37.207a.679.679,0,0,1-.521-.223A.845.845,0,0,1,5.693,35.6h.035a.677.677,0,0,1,.52.224.778.778,0,0,1-.016,1.1l-.027.025a.936.936,0,0,1-.572.261Z" fill="#464646"/>
    <path id="polygon37" d="M27.553,23.181,14.669,9.861,13.184,11.4,26.068,24.719Z" stroke="#474647" stroke-miterlimit="10" fill="url(#linear-gradient-2)"/>
    <path id="path39" d="M25.924,27.344l4.169-4.315L43.349,35.374a2.393,2.393,0,0,1-.029,3.269l-2.3,2.376a2.2,2.2,0,0,1-3.11.08c-.028-.026-.054-.053-.08-.08Zm-.688-1.657a1.415,1.415,0,0,1,.378-.6l.532-.552,2.006-2.074a.917.917,0,0,1,1.291-.034l.65.606-4.169,4.311-.587-.673A1.1,1.1,0,0,1,25.236,25.687Z" stroke="#474647" stroke-miterlimit="10" fill="url(#linear-gradient-3)"/>
    <path id="path41" d="M16.405,5.783,15.3,4.639,14.183,3.487a17.644,17.644,0,0,1,3.269-1.7A34.918,34.918,0,0,1,22.258.729C21.078,1.382,17.38,3.449,16.405,5.783ZM9.733,13.729l-.228-.24L6.747,10.637,6.52,10.4a.907.907,0,0,1,0-1.253l5.974-6.177a.838.838,0,0,1,1.185-.027l.027.027L16.921,6.3a.907.907,0,0,1,0,1.252L15.221,9.3h0l-.416.428-3.863,4A.858.858,0,0,1,9.733,13.729Zm-.772-.8L6.654,15.311l-.834-.862-.834-.862L7.293,11.2Zm-6.794.743.635-.657a1.061,1.061,0,0,1,1.5-.032l.032.032,1.447,1.5L7.16,15.941h0l.068.07a1.149,1.149,0,0,1,0,1.584l-.635.656Z" stroke="#474647" stroke-linejoin="round" fill="url(#linear-gradient-4)"/>
    <path id="path50" d="M43.324,38l4.176-1.48V33.4l-4.176-1.481a.5.5,0,0,1-.314-.634h0a.549.549,0,0,1,.021-.051l1.9-4-2.208-2.208-3.995,1.9a.5.5,0,0,1-.668-.232h0a.325.325,0,0,1-.018-.043L36.56,22.5H33.44l-1.482,4.154a.507.507,0,0,1-.656.285l-.03-.013-4-1.9-2.207,2.207,1.9,4a.5.5,0,0,1-.24.665.549.549,0,0,1-.051.021L22.5,33.4v3.12L26.676,38a.5.5,0,0,1,.314.634h0c-.006.017-.013.035-.021.052l-1.9,4,2.207,2.208,4-1.894a.5.5,0,0,1,.663.246h0a.392.392,0,0,1,.023.06l1.482,4.2H36.56l1.482-4.2a.491.491,0,0,1,.6-.346.512.512,0,0,1,.085.032l4,1.9,2.207-2.207-1.9-4a.5.5,0,0,1,.24-.665Z" stroke="#464646" stroke-linejoin="round" stroke-width="1" fill="url(#linear-gradient-5)"/>
    <path id="circle52" d="M38.5,35A3.5,3.5,0,1,1,35,31.5,3.5,3.5,0,0,1,38.5,35Z" stroke="#464646" stroke-miterlimit="10" stroke-width="1" fill="url(#linear-gradient-6)"/>
  </g>
</svg>
