<svg id="Image" xmlns="http://www.w3.org/2000/svg" xmlns:xlink="http://www.w3.org/1999/xlink" viewBox="0 0 48 48">
  <defs>
    <linearGradient id="linear-gradient" x1="4.437" y1="-694" x2="48.437" y2="-738" gradientTransform="matrix(1, 0, 0, -1, 0, -692)" gradientUnits="userSpaceOnUse">
      <stop offset="0" stop-color="#fff"/>
      <stop offset="1" stop-color="#dcdcdc"/>
    </linearGradient>
    <linearGradient id="linear-gradient-2" x1="-519.683" y1="1077.22" x2="-518.892" y2="1077.838" gradientTransform="translate(1405.743 -2849.803) scale(2.654)" gradientUnits="userSpaceOnUse">
      <stop offset="0" stop-color="#73b4c8"/>
      <stop offset="0.175" stop-color="#6aaec3"/>
      <stop offset="0.457" stop-color="#529eb5"/>
      <stop offset="0.809" stop-color="#2c839f"/>
      <stop offset="1" stop-color="#147391"/>
    </linearGradient>
    <linearGradient id="linear-gradient-3" x1="-524.15" y1="1085.257" x2="-514.196" y2="1088.573" gradientTransform="translate(1405.743 -2849.803) scale(2.654)" gradientUnits="userSpaceOnUse">
      <stop offset="0" stop-color="#fff"/>
      <stop offset="1" stop-color="#bebebe"/>
    </linearGradient>
    <linearGradient id="linear-gradient-4" x1="-482.85" y1="1125.336" x2="-480.527" y2="1127.659" gradientTransform="translate(1105.686 -2502.313) scale(2.238)" xlink:href="#linear-gradient-2"/>
    <linearGradient id="linear-gradient-5" x1="-483.696" y1="1128.829" x2="-479.818" y2="1132.707" gradientTransform="translate(1105.686 -2502.313) scale(2.238)" xlink:href="#linear-gradient-2"/>
    <linearGradient id="linear-gradient-6" x1="-484.029" y1="1131.05" x2="-479.57" y2="1135.509" gradientTransform="translate(1105.686 -2502.313) scale(2.238)" xlink:href="#linear-gradient-2"/>
    <linearGradient id="linear-gradient-7" x1="-1880.965" y1="-1062.285" x2="-1897.343" y2="-1077.163" gradientTransform="translate(-1405.769 -784.366) rotate(180) scale(0.763)" gradientUnits="userSpaceOnUse">
      <stop offset="0" stop-color="#fff"/>
      <stop offset="0.221" stop-color="#f8f8f8"/>
      <stop offset="0.541" stop-color="#e5e5e5"/>
      <stop offset="0.92" stop-color="#c6c6c6"/>
      <stop offset="1" stop-color="#bebebe"/>
    </linearGradient>
  </defs>
  <path id="rect16" d="M5.437,1h42V47h-42Z" fill="url(#linear-gradient)"/>
  <path id="path18" d="M5.438,1V11.062H1.5a.5.5,0,0,0,0,1H5.438v24H1.5a.5.5,0,0,0,0,1H5.438V47h42V1Zm41,45h-40V37.062h4.874a.5.5,0,0,0,0-1H6.438v-24h4.874a.5.5,0,0,0,0-1H6.438V2h40Z" fill="#464646"/>
  <path id="path987" d="M25.887,10.392,18.768,33.906l9.708,1.438,7.119-.683-2.013-9.672-4.011-14.6Z" fill="#fff"/>
  <path id="path1132" d="M26.094,10.959c0-.018.076-.467.2-1.1a2.259,2.259,0,0,1,.65-1.354,1.229,1.229,0,0,1,1.494-.016,1.371,1.371,0,0,1,.679.875,10.83,10.83,0,0,1,.264,1.6c-.017.027-3.337-.048-3.362-.048-.007,0,.028.055.028.053Z" fill="url(#linear-gradient-2)"/>
  <g id="g867">
    <path id="rect828" d="M39.707,31.172a.487.487,0,0,0-.265-.051h-4.2l1.243,3.431-18.2.234,1.295-3.67-3.4.027L13.2,38.024l27.762.116L39.79,31.359A.326.326,0,0,0,39.707,31.172Z" fill="#147391" stroke="#147391" stroke-linejoin="round" stroke-width="0.142"/>
  </g>
  <path id="rect828-6" d="M39.2,31.558l-3.7-.023.677,3.6-17.428-.253.789-3.323H16.689l-2.431,5.872,25.92.094Z" fill="url(#linear-gradient-3)"/>
  <path id="path1122" d="M25.855,9.511,18.437,33.7l.292.1a26.638,26.638,0,0,0,17.277-.027l.281-.1L29.722,9.553l-.383.01.01.641h-.118L35.5,33.218a26.028,26.028,0,0,1-16.249.021l7.073-23.061-.194-.012.029-.641Z" fill="#147391"/>
  <path id="path855" d="M27.8,7.72a1.822,1.822,0,0,0-1.451.737,2.607,2.607,0,0,0-.418.777c-.043.128-.09.258-.125.4-.026.1-.09.3-.135.457l.618.178c.034-.122.1-.33.14-.482.026-.1.067-.218.112-.351a1.943,1.943,0,0,1,.311-.588,1.171,1.171,0,0,1,.932-.491,1.193,1.193,0,0,1,.928.524,2.015,2.015,0,0,1,.306.6c.041.128.081.262.116.393.049.18.106.366.122.449l.628-.106c-.035-.191-.093-.378-.128-.509s-.082-.288-.126-.421a2.608,2.608,0,0,0-.4-.795A1.842,1.842,0,0,0,27.8,7.72Z" fill="#147391"/>
  <path id="path1130" d="M29.571,10.388a4.322,4.322,0,0,1-1.808.457A3.378,3.378,0,0,1,26,10.388l-.32.574a4.1,4.1,0,0,0,2.084.538,4.772,4.772,0,0,0,2.123-.538Z" fill="#147391"/>
  <path id="rect871" d="M35.9,32.927a1.293,1.293,0,0,1,1.152.024l.025.054-.145.19h-.878Z" fill="#147391"/>
  <path id="rect871-5" d="M19.012,32.918a1.3,1.3,0,0,0-1.152.024L17.835,33l.145.189h.877Z" fill="#147391"/>
  <path id="path860" d="M26.563,20.479a19.653,19.653,0,0,1-2.94-.631l-.239-.071.27-.912c.149-.5.332-1.124.408-1.385.1-.343.156-.473.2-.473s.238.04.448.083a16.526,16.526,0,0,0,2.258.313,14.937,14.937,0,0,0,3.755-.309,2.8,2.8,0,0,1,.455-.07c.006.007.176.622.377,1.369a5.369,5.369,0,0,1,.313,1.393A16.183,16.183,0,0,1,29.3,20.4a14.454,14.454,0,0,1-2.743.083Z" stroke="#4d9ab2" stroke-linejoin="round" stroke-width="0.006" fill="url(#linear-gradient-4)"/>
  <path id="path862" d="M26.612,31.219c-2.848-.118-5.182-.542-6.029-1.1-.113-.07-.2-.163-.2-.2s.281-1.028.617-2.209l.617-2.145.194.059c.437.141,1.5.4,2.069.5a20.027,20.027,0,0,0,8.817-.345c.436-.108.8-.187.806-.178.026.03,1.118,4.2,1.118,4.264,0,.093-.2.262-.477.4a14.337,14.337,0,0,1-4.472.883c-.657.051-2.5.085-3.055.063Z" stroke="#4d9ab2" stroke-linejoin="round" stroke-width="0.006" fill="url(#linear-gradient-5)"/>
  <path id="path866" d="M26.825,36.107a32.645,32.645,0,0,1-8.075-1.376c-1-.3-.951-.268-.951-.722,0-.569.011-.577.582-.369a27.136,27.136,0,0,0,7.208,1.506,40.65,40.65,0,0,0,4.551-.07,33.848,33.848,0,0,0,6.109-1.356c.491-.167.688-.22.726-.182a.92.92,0,0,1,.054.447c0,.478.047.437-.848.748a25.524,25.524,0,0,1-9.358,1.377Z" stroke="#4d9ab2" stroke-linejoin="round" stroke-width="0.006" fill="url(#linear-gradient-6)"/>
  <path id="rect1019" d="M18.3,32.937a.716.716,0,0,0-.728.211.931.931,0,0,0-.248.636v.562a.819.819,0,0,0,.272.6,1.251,1.251,0,0,0,.5.258,31.5,31.5,0,0,0,18.734,0,1.443,1.443,0,0,0,.486-.255.817.817,0,0,0,.277-.6v-.561a.929.929,0,0,0-.248-.637.711.711,0,0,0-.728-.21,28.835,28.835,0,0,1-18.318,0Zm-.218.642a29.486,29.486,0,0,0,18.754,0s-.027-.014.01.03a.36.36,0,0,1,.07.178v.562c0,.05,0,.048-.043.081a.881.881,0,0,1-.257.127,30.851,30.851,0,0,1-18.337-.005.659.659,0,0,1-.238-.112C18,34.4,18,34.4,18,34.349v-.562a.323.323,0,0,1,.07-.178c.037-.042.015-.029.01-.03Z" fill="#147391"/>
  <path id="path857" d="M21.182,24.874l-1.467,4.979v.063a.888.888,0,0,0,.306.582,2.124,2.124,0,0,0,.6.379,8.467,8.467,0,0,0,1.856.545,28.039,28.039,0,0,0,5.27.437,24.68,24.68,0,0,0,5.013-.5,7.129,7.129,0,0,0,1.671-.554,1.925,1.925,0,0,0,.529-.383.866.866,0,0,0,.247-.574V29.8l-1.325-4.9-.326.085a22.115,22.115,0,0,1-5.809.9,18.845,18.845,0,0,1-6.232-.9Zm.466.807a19.973,19.973,0,0,0,6.108.889A22.331,22.331,0,0,0,33.4,25.7l1.124,4.168c0,.018-.005.04-.059.1a1.447,1.447,0,0,1-.351.25,6.6,6.6,0,0,1-1.5.491,24.142,24.142,0,0,1-4.871.481,27.45,27.45,0,0,1-5.135-.427,8.05,8.05,0,0,1-1.7-.492,1.63,1.63,0,0,1-.427-.262c-.064-.057-.07-.085-.07-.107Z" fill="#147391"/>
  <path id="path874" d="M23.791,16.335l-1.194,3.9.311.091a15.127,15.127,0,0,0,4.855.8,16.22,16.22,0,0,0,4.564-.807l.3-.1L31.55,16.366l-.3.065a16.952,16.952,0,0,1-3.483.432,14.071,14.071,0,0,1-3.671-.451Zm.451.753a14.8,14.8,0,0,0,3.531.433,17.22,17.22,0,0,0,3.308-.409l.739,2.653a15.406,15.406,0,0,1-4.066.719,14.371,14.371,0,0,1-4.333-.719Z" fill="#147391"/>
  <path id="path933" d="M40.689,38.259c1.161-1.2,2.519-2.469,2.9-2.861l.835-.832-3.978-4.319L36.322,26.24l-2.541-.14-2.334.119-.686.448-.485.609.109,2.461-.021,2.591,3.922,4.083c2.121,2.207,3.943,3.945,4,4.011l.26.14Zm-8.078-8.525a1.022,1.022,0,0,1-.362-1.814.956.956,0,0,1,1.641.724.972.972,0,0,1-.453.9c-.351.312-.391.318-.826.187Z" stroke="#464646" stroke-linecap="round" stroke-miterlimit="2.809" stroke-width="0.015" fill="url(#linear-gradient-7)"/>
  <path id="path8" d="M38.557,41.34l6.566-6.756-8.649-8.9H31.208l-1.3,1.344v5.416ZM44.2,34.584l-5.639,5.8-8-8.223V27.305l.917-.942H36.2Z" fill="#464646"/>
  <path id="rect2" d="M41.671,34.852,37.08,30.128l-.466.478,4.591,4.723Z" fill="#464646"/>
  <path id="rect4" d="M40.365,36.2l-3.944-4.05-.466.478L39.9,36.681Z" fill="#464646"/>
  <path id="rect6" d="M39.047,37.549l-4.59-4.723-.466.477,4.591,4.723Z" fill="#464646"/>
  <path id="path1050" d="M32.072,22.535a1.209,1.209,0,1,0,1.209,1.209h0A1.209,1.209,0,0,0,32.072,22.535Zm0,.667a.533.533,0,0,1,.533.533h0a.532.532,0,0,1-.532.532h0a.532.532,0,0,1-.532-.532h0a.533.533,0,0,1,.532-.533Z" fill="#464646"/>
  <path id="path1050-2" d="M32.9,27.532a1.21,1.21,0,1,0,1.208,1.212h0a1.208,1.208,0,0,0-1.206-1.21h0Zm0,.667a.533.533,0,0,1,.532.533h0a.532.532,0,0,1-.531.533h0a.533.533,0,0,1-.533-.532h0A.532.532,0,0,1,32.9,28.2h0Z" fill="#464646"/>
  <path id="path914" d="M32.088,23.424a.37.37,0,0,0-.351.259,5.921,5.921,0,0,0-.052,3.753,4.86,4.86,0,0,0,.481,1.021,4.13,4.13,0,0,0,.275.384.37.37,0,0,0,.576-.464c-.009-.01-.017-.02-.026-.029a1.727,1.727,0,0,1-.2-.281,4.033,4.033,0,0,1-.4-.87,5.142,5.142,0,0,1,.057-3.286.369.369,0,0,0-.232-.467h0a.334.334,0,0,0-.117-.019Z" fill="#6e6e6e"/>
</svg>
