<?xml version="1.0" encoding="UTF-8" standalone="no"?>
<svg
   xmlns:dc="http://purl.org/dc/elements/1.1/"
   xmlns:cc="http://creativecommons.org/ns#"
   xmlns:rdf="http://www.w3.org/1999/02/22-rdf-syntax-ns#"
   xmlns:svg="http://www.w3.org/2000/svg"
   xmlns="http://www.w3.org/2000/svg"
   xmlns:xlink="http://www.w3.org/1999/xlink"
   xmlns:sodipodi="http://sodipodi.sourceforge.net/DTD/sodipodi-0.dtd"
   xmlns:inkscape="http://www.inkscape.org/namespaces/inkscape"
   id="Layer_1"
   data-name="Layer 1"
   viewBox="0 0 48 48"
   version="1.1"
   sodipodi:docname="typeUserAssignTemplate48.svg"
   inkscape:version="0.92.4 (5da689c313, 2019-01-14)">
  <metadata
     id="metadata70">
    <rdf:RDF>
      <cc:Work
         rdf:about="">
        <dc:format>image/svg+xml</dc:format>
        <dc:type
           rdf:resource="http://purl.org/dc/dcmitype/StillImage" />
        <dc:title></dc:title>
      </cc:Work>
    </rdf:RDF>
  </metadata>
  <sodipodi:namedview
     pagecolor="#ffffff"
     bordercolor="#666666"
     borderopacity="1"
     objecttolerance="10"
     gridtolerance="10"
     guidetolerance="10"
     inkscape:pageopacity="0"
     inkscape:pageshadow="2"
     inkscape:window-width="763"
     inkscape:window-height="480"
     id="namedview68"
     showgrid="false"
     inkscape:zoom="4.9166667"
     inkscape:cx="-3.8644068"
     inkscape:cy="24"
     inkscape:window-x="0"
     inkscape:window-y="0"
     inkscape:window-maximized="0"
     inkscape:current-layer="Layer_1" />
  <defs
     id="defs48">
    <linearGradient
       id="linear-gradient"
       x1="41.115"
       y1="50.009"
       x2="88.115"
       y2="3.009"
       gradientTransform="matrix(0.874, 0, 0, -1.001, -32.455, 50.546)"
       gradientUnits="userSpaceOnUse">
      <stop
         offset="0"
         stop-color="#fff"
         id="stop2" />
      <stop
         offset="0.232"
         stop-color="#fafafa"
         id="stop4" />
      <stop
         offset="0.496"
         stop-color="#ededed"
         id="stop6" />
      <stop
         offset="0.775"
         stop-color="#d6d6d6"
         id="stop8" />
      <stop
         offset="1"
         stop-color="#bebebe"
         id="stop10" />
    </linearGradient>
    <linearGradient
       id="linear-gradient-2"
       x1="75.115"
       y1="50.009"
       x2="88.115"
       y2="37.009"
       gradientTransform="matrix(0.874, 0, 0, -1.001, -32.455, 50.546)"
       gradientUnits="userSpaceOnUse">
      <stop
         offset="0"
         stop-color="#fff"
         id="stop13" />
      <stop
         offset="0.221"
         stop-color="#f8f8f8"
         id="stop15" />
      <stop
         offset="0.541"
         stop-color="#e5e5e5"
         id="stop17" />
      <stop
         offset="0.92"
         stop-color="#c6c6c6"
         id="stop19" />
      <stop
         offset="1"
         stop-color="#bebebe"
         id="stop21" />
    </linearGradient>
    <linearGradient
       id="linear-gradient-3"
       x1="78.615"
       y1="52.509"
       x2="90.615"
       y2="40.509"
       gradientTransform="matrix(0.874, 0, 0, -1.001, -32.455, 50.546)"
       gradientUnits="userSpaceOnUse">
      <stop
         offset="0"
         stop-color="#afd7e1"
         id="stop24" />
      <stop
         offset="1"
         stop-color="#73b4c8"
         id="stop26" />
    </linearGradient>
    <linearGradient
       id="linear-gradient-4"
       x1="33.938"
       y1="47.938"
       x2="45.938"
       y2="35.938"
       gradientTransform="matrix(1, 0, 0, -1, 0, 50)"
       xlink:href="#linear-gradient-2" />
    <linearGradient
       id="linear-gradient-5"
       x1="25.581"
       y1="33.581"
       x2="29.438"
       y2="29.725"
       gradientTransform="matrix(1, 0, 0, -1, -11.997, 44)"
       gradientUnits="userSpaceOnUse">
      <stop
         offset="0"
         stop-color="#fff"
         id="stop30" />
      <stop
         offset="1"
         stop-color="#bebebe"
         id="stop32" />
    </linearGradient>
    <linearGradient
       id="linear-gradient-6"
       x1="25.581"
       y1="20.581"
       x2="29.438"
       y2="16.725"
       gradientTransform="matrix(1, 0, 0, -1, -11.997, 45)"
       xlink:href="#linear-gradient-5" />
    <linearGradient
       id="linear-gradient-7"
       x1="405.552"
       y1="-487.252"
       x2="421.108"
       y2="-502.808"
       gradientTransform="matrix(0.412, 0, 0, -0.412, -132.095, -178.7)"
       gradientUnits="userSpaceOnUse">
      <stop
         offset="0"
         stop-color="#73b4c8"
         id="stop36" />
      <stop
         offset="0.175"
         stop-color="#6aaec3"
         id="stop38" />
      <stop
         offset="0.457"
         stop-color="#529eb5"
         id="stop40" />
      <stop
         offset="0.809"
         stop-color="#2c839f"
         id="stop42" />
      <stop
         offset="1"
         stop-color="#147391"
         id="stop44" />
    </linearGradient>
    <linearGradient
       id="linear-gradient-8"
       x1="59.378"
       y1="2.402"
       x2="67.713"
       y2="-6.083"
       gradientTransform="matrix(0.976, 0, 0, -0.919, -24.029, 37.296)"
       xlink:href="#linear-gradient-7" />
  </defs>
  <g
     id="g935">
    <path
       id="rect59"
       d="M3.468.468H44.532V47.532H3.468Z"
       stroke="#464646"
       stroke-miterlimit="10"
       stroke-width="0.935"
       fill="url(#linear-gradient)" />
    <path
       id="rect69"
       d="M33.174.468H44.532V13.486H33.174Z"
       fill="url(#linear-gradient-2)" />
    <path
       id="polygon71"
       d="M33.611.968,44.1,12.985V.968Z"
       fill="url(#linear-gradient-3)" />
    <path
       id="line73"
       d="M33.611.968,44.1,12.985"
       stroke="#464646"
       stroke-miterlimit="10"
       stroke-width="0.935"
       fill="url(#linear-gradient-4)" />
    <path
       id="rect75"
       d="M33.174.468H44.532V13.486H33.174Z"
       fill="none"
       stroke="#464646"
       stroke-miterlimit="10"
       stroke-width="0.935" />
    <path
       id="polyline77"
       d="M27.377,28l3-3-3-3"
       fill="none"
       stroke="#6e6e6e"
       stroke-miterlimit="10" />
    <path
       id="path79"
       d="M24.377,19.5V23a2,2,0,0,0,2,2h3.5"
       fill="none"
       stroke="#6e6e6e"
       stroke-miterlimit="10" />
    <path
       id="polyline81"
       d="M27.2,42.04l3-3-3-3"
       fill="none"
       stroke="#6e6e6e"
       stroke-miterlimit="10" />
    <path
       id="path83"
       d="M24.2,33.54v3.5a2,2,0,0,0,2,2h3.5"
       fill="none"
       stroke="#6e6e6e"
       stroke-miterlimit="10" />
    <path
       id="path85"
       d="M18,12.125c0,1.45-1.119,3.375-2.5,3.375S13,13.575,13,12.125a2.5,2.5,0,1,1,5-.245C18.007,11.962,18.007,12.043,18,12.125Z"
       stroke="#6e6e6e"
       stroke-miterlimit="10"
       fill="url(#linear-gradient-5)" />
    <path
       id="path87"
       d="M20.5,20.5a4.1,4.1,0,0,0-2-3.5,4.648,4.648,0,0,1-6,0,4.105,4.105,0,0,0-2,3.5Z"
       fill="#3c91af"
       stroke="#147391"
       stroke-miterlimit="10" />
    <path
       id="path89"
       d="M18,26.125c0,1.45-1.119,3.375-2.5,3.375S13,27.575,13,26.125a2.5,2.5,0,1,1,5-.245C18.007,25.962,18.007,26.043,18,26.125Z"
       stroke="#6e6e6e"
       stroke-miterlimit="10"
       fill="url(#linear-gradient-6)" />
    <path
       id="path91"
       d="M20.5,34.5a4.1,4.1,0,0,0-2-3.5,4.648,4.648,0,0,1-6,0,4.105,4.105,0,0,0-2,3.5Z"
       fill="#3c91af"
       stroke="#147391"
       stroke-miterlimit="10" />
    <path
       d="M42.527,25.016A4.527,4.527,0,1,1,38,20.489,4.527,4.527,0,0,1,42.527,25.016Z"
       stroke="#464646"
       stroke-miterlimit="10"
       stroke-width="0.947"
       fill="url(#linear-gradient-7)"
       id="path63" />
    <path
       id="rect897"
       d="M33.474,34.474h9.052v9.052H33.474Z"
       stroke="#464646"
       stroke-linecap="square"
       stroke-miterlimit="10"
       stroke-width="0.947"
       fill="url(#linear-gradient-8)" />
  </g>
</svg>
