<svg id="Image" xmlns="http://www.w3.org/2000/svg" xmlns:xlink="http://www.w3.org/1999/xlink" viewBox="0 0 48 48">
  <defs>
    <linearGradient id="linear-gradient" x1="6.142" y1="-705.6" x2="46.392" y2="-745.85" gradientTransform="matrix(0.978, 0, 0, -0.978, -7.084, -686.984)" gradientUnits="userSpaceOnUse">
      <stop offset="0" stop-color="#afd7e1"/>
      <stop offset="1" stop-color="#73b4c8"/>
    </linearGradient>
    <linearGradient id="linear-gradient-2" x1="19.711" y1="-712.284" x2="33.382" y2="-725.954" gradientTransform="matrix(0.978, 0, 0, -0.978, -7.084, -686.984)" gradientUnits="userSpaceOnUse">
      <stop offset="0" stop-color="#73b4c8"/>
      <stop offset="1" stop-color="#177491"/>
    </linearGradient>
    <linearGradient id="linear-gradient-3" x1="157.422" y1="1036.202" x2="165.968" y2="1044.889" gradientTransform="translate(-89.565 -688.317) scale(0.796 0.689)" gradientUnits="userSpaceOnUse">
      <stop offset="0" stop-color="#fff"/>
      <stop offset="1" stop-color="#bebebe"/>
    </linearGradient>
    <linearGradient id="linear-gradient-4" x1="370.538" y1="1257.374" x2="397.194" y2="1278.825" gradientTransform="translate(-178.996 -677.217) scale(0.568 0.567)" gradientUnits="userSpaceOnUse">
      <stop offset="0" stop-color="#73b4c8"/>
      <stop offset="0.175" stop-color="#6aaec3"/>
      <stop offset="0.457" stop-color="#529eb5"/>
      <stop offset="0.809" stop-color="#2c839f"/>
      <stop offset="1" stop-color="#147391"/>
    </linearGradient>
  </defs>
  <g id="g989">
    <g id="g18">
      <path id="path14" d="M36.688,44.263l.089-25.345v-.133h7.737a65.336,65.336,0,0,1-5.6-7.6C36.865,7.77,36.779,2.519,36.777,1.8V1.71H.492V44.265h36.2" fill="url(#linear-gradient)"/>
      <path id="path16" d="M36.688,44.752H.492A.489.489,0,0,1,0,44.263V1.732A.488.488,0,0,1,.54,1.221H36.775a.489.489,0,0,1,.489.489c0,.673.073,5.9,2.064,9.22a65.178,65.178,0,0,0,5.553,7.532.489.489,0,0,1-.37.809H37.266l-.089,24.994A.489.489,0,0,1,36.688,44.752ZM.981,43.774H36.2l.088-24.989a.489.489,0,0,1,.489-.489h6.688a62.223,62.223,0,0,1-4.973-6.863C36.611,8.3,36.333,3.778,36.3,2.2H.981Z" fill="#464646"/>
    </g>
    <path id="path20" d="M18.5,19.276a16.164,16.164,0,0,1-14.038-8.87C.688,3.125.152,2.105.077,1.965L.058,1.93a.49.49,0,0,1,.2-.663H.266c.28-.143.38-.2.646.231l.017-.008a.424.424,0,0,1,.035.1c.141.238.325.592.6,1.11.579,1.112,1.68,3.228,3.769,7.26A15.116,15.116,0,0,0,18.61,18.3H36.778a.489.489,0,0,1,0,.978H18.5Z" fill="#464646"/>
    <g id="g26">
      <path id="path22" d="M29.974,18.788c-3-.6-8.8-6.606-8.8-6.606L7.8,14.218s4.841,4.531,9.936,4.57S29.974,18.788,29.974,18.788Z" fill="url(#linear-gradient-2)"/>
      <path id="path24" d="M23.159,19.294c-1.816,0-3.739,0-5.429-.018-5.226-.039-10.063-4.51-10.267-4.7a.49.49,0,0,1,.262-.842L21.1,11.7a.489.489,0,0,1,.426.143c.058.059,5.731,5.9,8.548,6.466a.489.489,0,0,1-.092.968C29.93,19.277,26.76,19.294,23.159,19.294ZM8.937,14.538c1.555,1.237,5.143,3.733,8.8,3.76,3.27.025,7.425.018,9.953.01A41.787,41.787,0,0,1,21,12.7Z" fill="#464646"/>
    </g>
    <path id="rect30" d="M8.211,8.25h27.25a1,1,0,0,1,1,1v1a1,1,0,0,1-1,1H8.211a1,1,0,0,1-1-1v-1A1,1,0,0,1,8.211,8.25Z" fill="#fff"/>
    <path id="path32" d="M31.436,13.906H25.873a16.6,16.6,0,0,0,1.569,1.678,12.308,12.308,0,0,0,1.719,1.322h2.275a1,1,0,0,0,1-1v-1A1,1,0,0,0,31.436,13.906Z" fill="#fff"/>
    <g id="g42">
      <path id="rect36" d="M3.878,30.708h24a1,1,0,0,1,1,1v1a1,1,0,0,1-1,1h-24a1,1,0,0,1-1-1v-1A1,1,0,0,1,3.878,30.708Z" fill="#fff"/>
      <path id="rect38" d="M3.878,24.5H34a1,1,0,0,1,1,1v1a1,1,0,0,1-1,1H3.878a1,1,0,0,1-1-1v-1A1,1,0,0,1,3.878,24.5Z" fill="#fff"/>
      <path id="rect40" d="M3.878,36.917h16.5a1,1,0,0,1,1,1v1a1,1,0,0,1-1,1H3.878a1,1,0,0,1-1-1v-1A1,1,0,0,1,3.878,36.917Z" fill="#fff"/>
    </g>
    <path id="path866" d="M43.132,27.842c0,2.389-1.863,5.422-4.1,5.422s-3.995-3.033-3.995-5.422a4.051,4.051,0,0,1,8.093-.4Q43.141,27.644,43.132,27.842Z" stroke="#464646" stroke-miterlimit="10" stroke-width="0.954" fill="url(#linear-gradient-3)"/>
    <path id="path28" d="M47.523,47.523V38.886a5.648,5.648,0,0,0-3.413-4.971,8.523,8.523,0,0,1-10.216,0,5.647,5.647,0,0,0-3.417,4.971v8.637Z" stroke="#464646" stroke-miterlimit="10" stroke-width="0.954" fill="url(#linear-gradient-4)"/>
    <path id="line30" d="M34.454,47.083V40.416" fill="none" stroke="#147391" stroke-linejoin="round" stroke-width="0.954"/>
    <path id="line32" d="M43.546,47.083V40.416" fill="none" stroke="#147391" stroke-linejoin="round" stroke-width="0.954"/>
    <path id="rect1056" d="M38.3,35.587h1.3l.325,8.319-.977.881-.976-.881Z" fill="#464646"/>
  </g>
</svg>
