<?xml version="1.0" encoding="UTF-8" standalone="no"?>
<svg
   xmlns:dc="http://purl.org/dc/elements/1.1/"
   xmlns:cc="http://creativecommons.org/ns#"
   xmlns:rdf="http://www.w3.org/1999/02/22-rdf-syntax-ns#"
   xmlns:svg="http://www.w3.org/2000/svg"
   xmlns="http://www.w3.org/2000/svg"
   xmlns:sodipodi="http://sodipodi.sourceforge.net/DTD/sodipodi-0.dtd"
   xmlns:inkscape="http://www.inkscape.org/namespaces/inkscape"
   id="Layer_1"
   data-name="Layer 1"
   viewBox="0 0 48 48"
   version="1.1"
   sodipodi:docname="typeMailTagClient48.svg"
   inkscape:version="0.92.4 (5da689c313, 2019-01-14)">
  <metadata
     id="metadata80">
    <rdf:RDF>
      <cc:Work
         rdf:about="">
        <dc:format>image/svg+xml</dc:format>
        <dc:type
           rdf:resource="http://purl.org/dc/dcmitype/StillImage" />
        <dc:title></dc:title>
      </cc:Work>
    </rdf:RDF>
  </metadata>
  <sodipodi:namedview
     pagecolor="#ffffff"
     bordercolor="#666666"
     borderopacity="1"
     objecttolerance="10"
     gridtolerance="10"
     guidetolerance="10"
     inkscape:pageopacity="0"
     inkscape:pageshadow="2"
     inkscape:window-width="763"
     inkscape:window-height="480"
     id="namedview78"
     showgrid="false"
     inkscape:zoom="4.9166667"
     inkscape:cx="-3.8644068"
     inkscape:cy="24"
     inkscape:window-x="0"
     inkscape:window-y="0"
     inkscape:window-maximized="0"
     inkscape:current-layer="Layer_1" />
  <defs
     id="defs50">
    <linearGradient
       id="linear-gradient"
       x1="-1084"
       y1="728"
       x2="-1104"
       y2="708"
       gradientTransform="translate(-1076 721) rotate(180)"
       gradientUnits="userSpaceOnUse">
      <stop
         offset="0"
         stop-color="#f2f2f2"
         id="stop2" />
      <stop
         offset="0.5"
         stop-color="#ccc"
         id="stop4" />
      <stop
         offset="0.63"
         stop-color="#c7c7c7"
         id="stop6" />
      <stop
         offset="0.779"
         stop-color="#b9b9b9"
         id="stop8" />
      <stop
         offset="0.938"
         stop-color="#a2a2a2"
         id="stop10" />
      <stop
         offset="0.99"
         stop-color="#999"
         id="stop12" />
    </linearGradient>
    <linearGradient
       id="linear-gradient-2"
       x1="-1079"
       y1="718"
       x2="-1109"
       y2="688"
       gradientTransform="translate(-1076 721) rotate(180)"
       gradientUnits="userSpaceOnUse">
      <stop
         offset="0"
         stop-color="#fff"
         id="stop15" />
      <stop
         offset="0.232"
         stop-color="#fafafa"
         id="stop17" />
      <stop
         offset="0.496"
         stop-color="#ededed"
         id="stop19" />
      <stop
         offset="0.775"
         stop-color="#d6d6d6"
         id="stop21" />
      <stop
         offset="1"
         stop-color="#bebebe"
         id="stop23" />
    </linearGradient>
    <linearGradient
       id="linear-gradient-3"
       x1="61.276"
       y1="914.993"
       x2="85.808"
       y2="935.661"
       gradientTransform="translate(-58.278 -1037.296) scale(1.249 1.15)"
       gradientUnits="userSpaceOnUse">
      <stop
         offset="0"
         stop-color="#f3f3f3"
         id="stop26" />
      <stop
         offset="0.5"
         stop-color="#cdcccc"
         id="stop28" />
      <stop
         offset="0.63"
         stop-color="#c8c7c7"
         id="stop30" />
      <stop
         offset="0.779"
         stop-color="#bababa"
         id="stop32" />
      <stop
         offset="0.938"
         stop-color="#a2a2a1"
         id="stop34" />
      <stop
         offset="0.99"
         stop-color="#989898"
         id="stop36" />
    </linearGradient>
    <linearGradient
       id="linear-gradient-4"
       x1="177.829"
       y1="-174.514"
       x2="193.354"
       y2="-186.255"
       gradientTransform="matrix(0.661, 0, 0, -0.661, -79.05, -76.502)"
       gradientUnits="userSpaceOnUse">
      <stop
         offset="0"
         stop-color="#73b4c8"
         id="stop39" />
      <stop
         offset="0.175"
         stop-color="#6aaec3"
         id="stop41" />
      <stop
         offset="0.457"
         stop-color="#529eb5"
         id="stop43" />
      <stop
         offset="0.809"
         stop-color="#2c839f"
         id="stop45" />
      <stop
         offset="1"
         stop-color="#147391"
         id="stop47" />
    </linearGradient>
  </defs>
  <g
     id="g898">
    <path
       id="polyline26"
       d="M.5,5.5V.5h35v5"
       fill="url(#linear-gradient)" />
    <path
       id="polyline28"
       d="M35.5,5.5v25H.5V5.5"
       fill="url(#linear-gradient-2)" />
    <path
       id="line30"
       d="M5,10.5H26"
       fill="none"
       stroke="#a0a0a0"
       stroke-miterlimit="10" />
    <path
       id="line32"
       d="M5,15.5H21"
       fill="none"
       stroke="#a0a0a0"
       stroke-miterlimit="10" />
    <path
       id="line34"
       d="M5,25.5h7"
       fill="none"
       stroke="#a0a0a0"
       stroke-miterlimit="10" />
    <path
       id="rect36"
       d="M32,2h2V4H32Z"
       fill="#6e6e6e" />
    <path
       id="rect38"
       d="M28,2h2V4H28Z"
       fill="#6e6e6e" />
    <path
       id="rect40"
       d="M24,2h2V4H24Z"
       fill="#6e6e6e" />
    <path
       id="line42"
       d="M1,5.5H35"
       fill="none"
       stroke="#6e6e6e"
       stroke-miterlimit="10" />
    <path
       id="line44"
       d="M5,20.5h8"
       fill="none"
       stroke="#a0a0a0"
       stroke-miterlimit="10" />
    <path
       id="rect46"
       d="M.5.5h35v30H.5Z"
       fill="none"
       stroke="#464646"
       stroke-miterlimit="10" />
    <g
       id="g949">
      <rect
         id="rect13-9-3"
         x="16.912"
         y="16.94"
         width="29.738"
         height="17.182"
         stroke="#474747"
         stroke-miterlimit="6.609"
         stroke-width="0.661"
         fill="url(#linear-gradient-3)" />
      <path
         id="path15-5"
         d="M19.015,18.9l9.916,6.493a5.066,5.066,0,0,0,5.491-.057L43.771,18.9"
         fill="none"
         stroke="#6f6f6f"
         stroke-miterlimit="6.609"
         stroke-width="0.661" />
      <line
         id="line17-6"
         x1="28.978"
         y1="25.447"
         x2="19.015"
         y2="31.361"
         fill="none"
         stroke="#6f6f6f"
         stroke-miterlimit="6.609"
         stroke-width="0.661" />
      <line
         id="line19-5"
         x1="43.772"
         y1="31.361"
         x2="34.317"
         y2="25.462"
         fill="none"
         stroke="#6f6f6f"
         stroke-miterlimit="6.609"
         stroke-width="0.661" />
      <path
         id="path933"
         d="M43.723,45.06c1.108-1.143,2.4-2.356,2.766-2.73l.8-.793-3.8-4.122-3.933-3.824-2.426-.134L34.9,33.57,34.248,34l-.463.581.105,2.349L33.87,39.4l3.745,3.9c2.024,2.106,3.762,3.765,3.819,3.827l.249.134Zm-7.708-8.134a.976.976,0,0,1-.345-1.732.912.912,0,0,1,1.565.69.93.93,0,0,1-.432.863C36.466,37.047,36.43,37.047,36.015,36.926Z"
         stroke="#464646"
         stroke-linecap="round"
         stroke-miterlimit="2.643"
         stroke-width="0.052"
         fill="url(#linear-gradient-4)" />
      <path
         id="path8"
         d="M41.687,48l6.266-6.447L39.7,33.062H34.676l-1.243,1.281V39.51Zm5.383-6.447-5.383,5.536-7.625-7.847V34.607l.871-.9H39.44Z"
         fill="#464646" />
      <path
         id="rect2"
         d="M44.66,41.809,40.279,37.3l-.444.456,4.38,4.507Z"
         fill="#464646" />
      <path
         id="rect4"
         d="M43.413,43.1,39.65,39.231l-.444.456,3.767,3.868Z"
         fill="#464646" />
      <path
         id="rect6"
         d="M42.156,44.383l-4.38-4.507-.444.454,4.38,4.508Z"
         fill="#464646" />
      <path
         id="path1050"
         d="M35.5,30.056a1.153,1.153,0,1,0,1.153,1.153A1.153,1.153,0,0,0,35.5,30.056Zm0,.636a.509.509,0,0,1,.509.508h0a.508.508,0,0,1-.508.509h0a.507.507,0,0,1-.508-.508h0a.507.507,0,0,1,.507-.508h0Z"
         fill="#464646" />
      <path
         id="path1050-2"
         d="M36.289,34.824a1.154,1.154,0,1,0,1.153,1.154v0A1.154,1.154,0,0,0,36.289,34.824Zm0,.637a.507.507,0,0,1,.507.508h0a.507.507,0,0,1-.507.508h0a.507.507,0,0,1-.509-.507h0a.507.507,0,0,1,.508-.507Z"
         fill="#464646" />
      <path
         id="path914"
         d="M35.514,31.262a4.772,4.772,0,0,0,.6,4.575"
         fill="none"
         stroke="#6e6e6e"
         stroke-linecap="round"
         stroke-miterlimit="2.643"
         stroke-width="0.705" />
    </g>
  </g>
</svg>
