<svg id="Livello_3" data-name="Livello 3" xmlns="http://www.w3.org/2000/svg" xmlns:xlink="http://www.w3.org/1999/xlink" viewBox="0 0 48 48">
  <defs>
    <linearGradient id="linear-gradient" x1="-15.045" y1="805.589" x2="9.487" y2="826.256" gradientTransform="translate(31.431 -1403.87) scale(1.89 1.74)" gradientUnits="userSpaceOnUse">
      <stop offset="0" stop-color="#f3f3f3"/>
      <stop offset="0.5" stop-color="#cdcccc"/>
      <stop offset="0.63" stop-color="#c8c7c7"/>
      <stop offset="0.779" stop-color="#bababa"/>
      <stop offset="0.938" stop-color="#a2a2a1"/>
      <stop offset="0.99" stop-color="#989898"/>
    </linearGradient>
    <linearGradient id="linear-gradient-2" x1="-14.105" y1="745.001" x2="8.395" y2="767.501" gradientTransform="translate(35.048 -722.223) scale(1.068 0.998)" gradientUnits="userSpaceOnUse">
      <stop offset="0" stop-color="#73b4c8"/>
      <stop offset="0.175" stop-color="#6aaec3"/>
      <stop offset="0.457" stop-color="#529eb5"/>
      <stop offset="0.809" stop-color="#2c839f"/>
      <stop offset="1" stop-color="#147391"/>
    </linearGradient>
  </defs>
  <g id="g862">
    <path id="rect13-9-3" d="M1,1H46V27H1Z" stroke="#474747" stroke-miterlimit="10" fill="url(#linear-gradient)"/>
    <path id="path15-5" d="M4.183,3.959l15,9.824A7.667,7.667,0,0,0,27.5,13.7L41.644,3.959" fill="none" stroke="#6f6f6f" stroke-miterlimit="10"/>
    <path id="line17-6" d="M19.259,13.873,4.183,22.822" fill="none" stroke="#6f6f6f" stroke-miterlimit="10"/>
    <path id="line19-5" d="M41.645,22.822,27.338,13.9" fill="none" stroke="#6f6f6f" stroke-miterlimit="10"/>
    <path id="rect45" d="M16.516,24.516H47.484V40.484H16.516Z" stroke="#464646" stroke-miterlimit="10" stroke-width="1.032" fill="url(#linear-gradient-2)"/>
    <g id="text928">
      <path id="path840" d="M18.639,37.427V35.135a3.061,3.061,0,0,0,.937.788,2.231,2.231,0,0,0,1.022.258,1.57,1.57,0,0,0,.526-.079,1.053,1.053,0,0,0,.377-.215.888.888,0,0,0,.228-.329,1.137,1.137,0,0,0,.075-.415,1.186,1.186,0,0,0-.119-.538,1.622,1.622,0,0,0-.328-.436,3.1,3.1,0,0,0-.486-.387c-.188-.124-.392-.251-.61-.38a3.4,3.4,0,0,1-1.245-1.224,3.516,3.516,0,0,1-.407-1.748,3.788,3.788,0,0,1,.223-1.375,2.634,2.634,0,0,1,.605-.952,2.372,2.372,0,0,1,.893-.544A3.178,3.178,0,0,1,21.4,27.38a4.308,4.308,0,0,1,.982.1,2.908,2.908,0,0,1,.794.293v2.142a2.238,2.238,0,0,0-.392-.315,2.265,2.265,0,0,0-.432-.222,2.214,2.214,0,0,0-.446-.136,2.14,2.14,0,0,0-.417-.043,1.5,1.5,0,0,0-.5.078,1.042,1.042,0,0,0-.377.208.943.943,0,0,0-.238.329,1.021,1.021,0,0,0-.084.423,1.107,1.107,0,0,0,.094.465,1.507,1.507,0,0,0,.268.387,3.13,3.13,0,0,0,.421.358q.249.173.561.358a5.489,5.489,0,0,1,.764.552,3.061,3.061,0,0,1,.585.651,2.868,2.868,0,0,1,.372.838,4.107,4.107,0,0,1,.129,1.089,4.02,4.02,0,0,1-.228,1.447,2.529,2.529,0,0,1-.61.945,2.3,2.3,0,0,1-.9.515A3.647,3.647,0,0,1,20.668,38a4.277,4.277,0,0,1-1.116-.143,2.724,2.724,0,0,1-.913-.43Z" fill="#fff"/>
      <path id="path842" d="M32.767,37.821H31.184V31.676q0-.994.06-2.2H31.2q-.123.945-.223,1.361l-1.667,6.982H28.005l-1.7-6.911q-.069-.279-.223-1.432H26.04q.064,1.518.065,2.664v5.679H24.661V27.551h2.347l1.453,6.088a11.765,11.765,0,0,1,.253,1.468h.03q.133-.852.283-1.483l1.453-6.073h2.287Z" fill="#fff"/>
      <path id="path844" d="M39.38,29.435H37.351v8.386H35.743V29.435H33.724V27.551H39.38Z" fill="#fff"/>
      <path id="path846" d="M41.939,34.283v3.538h-1.6V27.551h2.51q2.69,0,2.689,3.273a3.872,3.872,0,0,1-.774,2.507,2.511,2.511,0,0,1-2.059.952Zm0-4.956v3.2h.63q1.281,0,1.28-1.619,0-1.582-1.28-1.583Z" fill="#fff"/>
    </g>
  </g>
</svg>
