<svg id="Layer_1" data-name="Layer 1" xmlns="http://www.w3.org/2000/svg" xmlns:xlink="http://www.w3.org/1999/xlink" viewBox="0 0 48 48">
  <defs>
    <linearGradient id="linear-gradient" x1="6.257" y1="744.257" x2="41.732" y2="779.732" gradientTransform="translate(0 -744)" gradientUnits="userSpaceOnUse">
      <stop offset="0" stop-color="#73b4c8"/>
      <stop offset="0.175" stop-color="#6aaec3"/>
      <stop offset="0.457" stop-color="#529eb5"/>
      <stop offset="0.809" stop-color="#2c839f"/>
      <stop offset="1" stop-color="#147391"/>
    </linearGradient>
  </defs>
  <g id="g861">
    <path id="path13" d="M40.5,35.5h-14l-10,10v-10h-8a6.018,6.018,0,0,1-6-6V7.5a6.018,6.018,0,0,1,6-6h32a6.018,6.018,0,0,1,6,6v22A6.018,6.018,0,0,1,40.5,35.5Z" stroke="#464646" stroke-linecap="round" stroke-linejoin="round" fill="url(#linear-gradient)"/>
    <path id="path38" d="M24.458,25.606a2.14,2.14,0,0,1-2.14-2.139h0V21a6.3,6.3,0,0,1,3.633-5.7,3.565,3.565,0,0,0-.829-6.743,3.893,3.893,0,0,0-.664-.059,3.522,3.522,0,0,0-2.282.832,3.565,3.565,0,0,0-1.284,2.733,2.139,2.139,0,0,1-4.278,0,7.844,7.844,0,0,1,7.844-7.843h.011a7.959,7.959,0,0,1,1.395.123,7.843,7.843,0,0,1,1.885,14.841A2,2,0,0,0,26.6,21v2.469a2.139,2.139,0,0,1-2.139,2.139h0Z" fill="#fff"/>
    <path id="path40" d="M24.466,4.928a7.227,7.227,0,0,1,1.271.112,7.13,7.13,0,0,1,1.711,13.491A2.723,2.723,0,0,0,25.879,21v2.469a1.426,1.426,0,0,1-2.852,0V21a5.579,5.579,0,0,1,3.219-5.056,4.278,4.278,0,0,0-1-8.094,4.763,4.763,0,0,0-.79-.07,4.279,4.279,0,0,0-4.279,4.278,1.426,1.426,0,0,1-2.852,0,7.131,7.131,0,0,1,7.131-7.13h.005m0-1.426h0A8.557,8.557,0,0,0,15.9,12.05v.01a2.852,2.852,0,0,0,5.7,0,2.852,2.852,0,0,1,1.02-2.186,2.818,2.818,0,0,1,1.832-.666A3.209,3.209,0,0,1,25,9.255a2.852,2.852,0,0,1,.65,5.393A7.013,7.013,0,0,0,21.605,21v2.468a2.852,2.852,0,0,0,5.7,0V21a1.285,1.285,0,0,1,.738-1.173A8.556,8.556,0,0,0,25.983,3.635,8.742,8.742,0,0,0,24.468,3.5Z" fill="#197492"/>
    <path id="path42" d="M24.457,33.023a2.876,2.876,0,1,1,2-.829A2.866,2.866,0,0,1,24.457,33.023Z" fill="#fff"/>
    <path id="path44" d="M24.464,28.032a2.132,2.132,0,0,1,1.511.6,2.226,2.226,0,1,1-1.511-.6m0-1.425a3.506,3.506,0,0,0-3.572,3.439v.113a3.591,3.591,0,1,0,3.63-3.552Z" fill="#197492"/>
  </g>
</svg>
