<svg id="Image" xmlns="http://www.w3.org/2000/svg" xmlns:xlink="http://www.w3.org/1999/xlink" width="48" height="48" viewBox="0 0 48 48">
  <defs>
    <linearGradient id="linear-gradient" x1="0.668" y1="746.209" x2="45.132" y2="784.877" gradientTransform="translate(0 -740)" gradientUnits="userSpaceOnUse">
      <stop offset="0" stop-color="#fff"/>
      <stop offset="0.221" stop-color="#fbfbfc"/>
      <stop offset="0.541" stop-color="#ececec"/>
      <stop offset="0.92" stop-color="#d0cecd"/>
      <stop offset="1" stop-color="#c9c6c5"/>
    </linearGradient>
    <linearGradient id="linear-gradient-2" x1="-483.657" y1="1124.343" x2="-482.809" y2="1125.005" gradientTransform="translate(1105.686 -2502.313) scale(2.238)" gradientUnits="userSpaceOnUse">
      <stop offset="0" stop-color="#73b4c8"/>
      <stop offset="0.175" stop-color="#6aaec3"/>
      <stop offset="0.457" stop-color="#529eb5"/>
      <stop offset="0.809" stop-color="#2c839f"/>
      <stop offset="1" stop-color="#147391"/>
    </linearGradient>
    <linearGradient id="linear-gradient-3" x1="-488.869" y1="1132.728" x2="-478.915" y2="1136.044" gradientTransform="translate(1105.686 -2502.313) scale(2.238)" gradientUnits="userSpaceOnUse">
      <stop offset="0" stop-color="#fff"/>
      <stop offset="1" stop-color="#bebebe"/>
    </linearGradient>
    <linearGradient id="linear-gradient-4" x1="512.68" y1="-1354.968" x2="520.576" y2="-1362.864" gradientTransform="matrix(0.592, 0, 0, -0.592, -281.758, -782.003)" xlink:href="#linear-gradient-2"/>
    <linearGradient id="linear-gradient-5" x1="510.074" y1="-1367.151" x2="522.669" y2="-1379.746" gradientTransform="matrix(0.592, 0, 0, -0.592, -281.758, -782.003)" xlink:href="#linear-gradient-2"/>
    <linearGradient id="linear-gradient-6" x1="510.268" y1="-1376.009" x2="522.833" y2="-1388.574" gradientTransform="matrix(0.592, 0, 0, -0.592, -281.758, -782.003)" xlink:href="#linear-gradient-2"/>
  </defs>
  <path id="path30" d="M1.5,43h45V10h-27L16.094,4.891A2,2,0,0,0,14.43,4H3.5a2,2,0,0,0-2,2Z" stroke="#4e4a48" stroke-miterlimit="10" fill="url(#linear-gradient)"/>
  <path id="path935" d="M22.652,36.509a26.635,26.635,0,0,1-5.07-.751,7.3,7.3,0,0,1-1.046-.3c0-.025.709-2.338.721-2.351s.053.018.1.054c.792.559,2.984.975,5.688,1.079.873.033,2.4,0,3.129-.068a11.219,11.219,0,0,0,4.17-.958c.092-.058.13-.068.141-.037.04.115.619,2.276.611,2.282-.024.019-1.187.358-1.479.43A26.009,26.009,0,0,1,22.652,36.509Z" fill="#fff" stroke="#fff" stroke-miterlimit="3.718" stroke-width="0.126"/>
  <path id="path937" d="M22.485,28.823c-.518-.042-1.308-.148-1.858-.249-.465-.086-1.715-.393-1.8-.44a12.486,12.486,0,0,1,.584-2.079c.346-1.129.636-2.058.643-2.066a4.187,4.187,0,0,1,.506.122,13.812,13.812,0,0,0,2.905.471A13.865,13.865,0,0,0,27.918,24c.064-.019.1.1.629,2.042.308,1.134.548,2.073.533,2.087a11.108,11.108,0,0,1-1.415.348,20.414,20.414,0,0,1-2.022.3A30.52,30.52,0,0,1,22.485,28.823Z" fill="#fff" stroke="#fff" stroke-miterlimit="3.718" stroke-width="0.219"/>
  <path id="path939" d="M23.082,20.7a13.541,13.541,0,0,1-1.92-.309c-.007-.007,1.381-4.568,1.438-4.725.01-.027.1-.008.3.06a3.437,3.437,0,0,0,1.239.2,4,4,0,0,0,1.345-.222,1.64,1.64,0,0,1,.228-.074s.3,1.071.649,2.373c.37,1.359.632,2.379.615,2.4a12.166,12.166,0,0,1-1.516.252A18.5,18.5,0,0,1,23.082,20.7Z" fill="#fff" stroke="#fff" stroke-miterlimit="3.718" stroke-width="0.219"/>
  <path id="path1132" d="M22.669,15.437c0-.016.068-.42.184-.994a2.034,2.034,0,0,1,.584-1.219,1.107,1.107,0,0,1,1.345-.014,1.235,1.235,0,0,1,.61.787,9.586,9.586,0,0,1,.238,1.438c-.015.022-3.006-.042-3.024-.042s.025.052.025.045Z" fill="url(#linear-gradient-2)"/>
  <g id="g865">
    <g id="g867">
      <path id="rect828" d="M34.918,33.626a.441.441,0,0,0-.237-.046H30.9l1.119,3.086-16.389.208,1.166-3.3-3.06.025-2.675,6.2,24.978.1-1.056-6.1A.3.3,0,0,0,34.918,33.626Z" fill="#147391" stroke="#147391" stroke-linejoin="round" stroke-width="0.119"/>
    </g>
  </g>
  <path id="rect828-6" d="M34.466,33.973l-3.33-.021.608,3.239L16.06,36.963l.711-2.99H14.205l-2.186,5.279,23.322.086Z" fill="url(#linear-gradient-3)"/>
  <path id="path1122" d="M22.452,14.133,15.78,35.894l.262.091a23.981,23.981,0,0,0,15.545-.022l.254-.092-5.909-21.7-.346.009.009.577h-.1l5.637,20.708a23.4,23.4,0,0,1-14.62.017L22.871,14.73l-.178-.008.027-.577Z" fill="#147391"/>
  <path id="path855" d="M24.206,12.52a1.647,1.647,0,0,0-1.3.664,2.369,2.369,0,0,0-.376.7c-.038.113-.081.23-.113.362-.023.089-.081.272-.118.412l.555.162c.032-.109.1-.3.129-.433a3.117,3.117,0,0,1,.1-.315,1.766,1.766,0,0,1,.279-.529A1.051,1.051,0,0,1,24.2,13.1a1.08,1.08,0,0,1,.835.474,1.782,1.782,0,0,1,.276.538c.036.113.073.237.105.355.043.162.1.329.108.406l.569-.1a4.511,4.511,0,0,0-.119-.457c-.034-.13-.074-.26-.113-.381a2.421,2.421,0,0,0-.367-.71A1.663,1.663,0,0,0,24.206,12.52Z" fill="#147391"/>
  <path id="path1130" d="M25.8,14.92a3.941,3.941,0,0,1-1.625.411,3.038,3.038,0,0,1-1.591-.406l-.288.516a3.679,3.679,0,0,0,1.875.487,4.243,4.243,0,0,0,1.91-.487Z" fill="#147391"/>
  <path id="rect871" d="M31.492,35.2a1.167,1.167,0,0,1,1.037.02l.022.051-.131.172h-.79Z" fill="#147391"/>
  <path id="rect871-5" d="M16.3,35.194a1.172,1.172,0,0,0-1.039.022l-.022.051.131.173h.788Z" fill="#147391"/>
  <path id="path860" d="M23.087,24a17.965,17.965,0,0,1-2.644-.569l-.215-.066.244-.82c.134-.452.3-1.012.367-1.244.09-.308.14-.425.184-.425a3.976,3.976,0,0,1,.406.076,15.453,15.453,0,0,0,2.031.282,13.268,13.268,0,0,0,3.379-.279,3.738,3.738,0,0,1,.406-.068c.006.007.163.561.34,1.234a4.834,4.834,0,0,1,.279,1.251,14.527,14.527,0,0,1-2.309.551A13.05,13.05,0,0,1,23.087,24Z" stroke="#4d9ab2" stroke-linejoin="round" stroke-width="0.006" fill="url(#linear-gradient-4)"/>
  <path id="path862" d="M23.135,33.666c-2.563-.1-4.664-.488-5.426-.987-.1-.067-.184-.146-.184-.178s.25-.924.556-1.987l.554-1.93.174.056c.393.127,1.346.359,1.862.454a18.007,18.007,0,0,0,7.935-.309,7.125,7.125,0,0,1,.725-.162c.023.025,1.006,3.773,1.006,3.836,0,.081-.183.237-.429.355a12.94,12.94,0,0,1-4.024.8c-.592.042-2.25.077-2.748.059Z" stroke="#4d9ab2" stroke-linejoin="round" stroke-width="0.006" fill="url(#linear-gradient-5)"/>
  <path id="path866" d="M23.326,38.065a29.367,29.367,0,0,1-7.264-1.239c-.893-.271-.855-.244-.855-.65,0-.512.009-.519.523-.331A24.338,24.338,0,0,0,22.22,37.2a36.31,36.31,0,0,0,4.094-.063,28.667,28.667,0,0,0,5.5-1.218c.44-.153.619-.2.65-.163a.826.826,0,0,1,.048.4c0,.43.043.393-.762.674a22.951,22.951,0,0,1-8.421,1.238Z" stroke="#4d9ab2" stroke-linejoin="round" stroke-width="0.006" fill="url(#linear-gradient-6)"/>
  <path id="rect1019" d="M15.653,35.212a.638.638,0,0,0-.656.193.837.837,0,0,0-.223.572v.5a.739.739,0,0,0,.244.538,1.136,1.136,0,0,0,.45.231,28.345,28.345,0,0,0,16.857-.005,1.278,1.278,0,0,0,.438-.226.73.73,0,0,0,.248-.538v-.5a.844.844,0,0,0-.222-.573.636.636,0,0,0-.656-.192A25.932,25.932,0,0,1,15.653,35.212Zm-.2.578a26.536,26.536,0,0,0,16.874,0s-.025-.012.009.026a.32.32,0,0,1,.065.162v.5c0,.045,0,.041-.039.074a.808.808,0,0,1-.232.114,27.765,27.765,0,0,1-16.5,0,.626.626,0,0,1-.214-.1c-.036-.032-.039-.037-.039-.081v-.512a.316.316,0,0,1,.066-.163c.032-.036.013-.025.009-.026Z" fill="#147391"/>
  <path id="path857" d="M18.249,27.957l-1.32,4.481V32.5a.8.8,0,0,0,.275.524,2,2,0,0,0,.542.341,7.6,7.6,0,0,0,1.67.487,25.044,25.044,0,0,0,4.742.393,22.174,22.174,0,0,0,4.51-.445,6.3,6.3,0,0,0,1.5-.5,1.728,1.728,0,0,0,.473-.345.78.78,0,0,0,.223-.516V32.4l-1.187-4.418-.292.082a19.917,19.917,0,0,1-5.228.812,17,17,0,0,1-5.611-.812Zm.419.726a17.976,17.976,0,0,0,5.494.8,20.042,20.042,0,0,0,5.079-.78l1.013,3.75c0,.015,0,.035-.052.088a1.238,1.238,0,0,1-.315.222,5.833,5.833,0,0,1-1.35.442,21.7,21.7,0,0,1-4.381.432,24.486,24.486,0,0,1-4.618-.384,7.146,7.146,0,0,1-1.53-.442,1.539,1.539,0,0,1-.385-.236.17.17,0,0,1-.065-.1Z" fill="#147391"/>
  <path id="path874" d="M20.6,20.274l-1.075,3.509.279.082a13.616,13.616,0,0,0,4.374.725,14.557,14.557,0,0,0,4.1-.725l.268-.088L27.579,20.3l-.271.059a15.464,15.464,0,0,1-3.134.391,12.665,12.665,0,0,1-3.3-.406Zm.406.677a13.249,13.249,0,0,0,3.178.389,15.369,15.369,0,0,0,2.976-.367l.664,2.386a13.766,13.766,0,0,1-3.655.65,12.893,12.893,0,0,1-3.9-.65Z" fill="#147391"/>
</svg>
