<svg id="Layer_1" data-name="Layer 1" xmlns="http://www.w3.org/2000/svg" xmlns:xlink="http://www.w3.org/1999/xlink" viewBox="0 0 48 48">
  <defs>
    <linearGradient id="linear-gradient" x1="-55.169" y1="61.623" x2="-34.269" y2="60.179" gradientTransform="matrix(1.098, 0, 0, -1.098, 75.487, 86.996)" gradientUnits="userSpaceOnUse">
      <stop offset="0" stop-color="#73b4c8"/>
      <stop offset="0.175" stop-color="#6aaec3"/>
      <stop offset="0.457" stop-color="#529eb5"/>
      <stop offset="0.809" stop-color="#2c839f"/>
      <stop offset="1" stop-color="#147391"/>
    </linearGradient>
    <linearGradient id="linear-gradient-2" x1="-51.924" y1="61.599" x2="-36.25" y2="53.691" xlink:href="#linear-gradient"/>
    <linearGradient id="linear-gradient-3" x1="65.546" y1="-26.141" x2="72.565" y2="-31.141" gradientTransform="matrix(0.854, 0, 0, -0.854, -34.831, -9.302)" gradientUnits="userSpaceOnUse">
      <stop offset="0" stop-color="#b1b1b1"/>
      <stop offset="1" stop-color="#7d7d7d"/>
    </linearGradient>
    <linearGradient id="linear-gradient-4" x1="56.189" y1="-35.155" x2="61.203" y2="-38.87" xlink:href="#linear-gradient-3"/>
    <linearGradient id="linear-gradient-5" x1="-48.405" y1="55.389" x2="-43.638" y2="52.749" gradientTransform="matrix(1.098, 0, 0, -1.098, 75.487, 86.996)" xlink:href="#linear-gradient-3"/>
    <linearGradient id="linear-gradient-6" x1="-291.012" y1="-24.638" x2="-288.944" y2="-24.638" gradientTransform="matrix(0.901, -0.627, -0.627, -0.901, 265.405, -184.132)" xlink:href="#linear-gradient-3"/>
  </defs>
  <g id="g964">
    <path id="polyline28" d="M38,1h9V47H38" fill="none" stroke="#969696" stroke-miterlimit="10" stroke-width="2"/>
    <path id="polyline30" d="M10,47H1V1h9" fill="none" stroke="#969696" stroke-miterlimit="10" stroke-width="2"/>
    <path id="path855-4" d="M36.568,19.913c0,7.836-5.915,14.189-13.212,14.189h0c-7.3,0-13.212-6.353-13.212-14.189h0c0-7.837,5.915-14.19,13.212-14.19s13.212,6.353,13.212,14.19Z" stroke="#464646" stroke-linecap="round" stroke-miterlimit="10" stroke-width="0.457" fill="url(#linear-gradient)"/>
    <path id="rect6657-4" d="M14.09,25.852l-.714.1a.023.023,0,0,0-.022.028.033.033,0,0,0-.036-.019l-.72.089a.022.022,0,0,0-.021.028l0-.012a.019.019,0,0,0-.019-.012l-.125.015a.011.011,0,0,0-.01.015l.082.266-.776.1-.081-.266a.04.04,0,0,0-.041-.025l-1.5.12a.024.024,0,0,0-.021.033l.085.293-.786.058-.089-.323a.021.021,0,0,0-.019-.016l-.128.006a.014.014,0,0,0-.012.018l0,.015a.043.043,0,0,0-.038-.032l-.728.027a.026.026,0,0,0-.021.035.045.045,0,0,0-.039-.033l-.727.015c-.018,0-.028.017-.023.038a17.165,17.165,0,0,0,3.307,7.063,18.2,18.2,0,0,0,5.364,4.688,32.168,32.168,0,0,0,13.8,3.665c1.7.121,2.741.141,2.741.141s.008-.008.013-.012,1.553.064,3.892.039c1.682-.017,3.438-.085,5.32-.175V40.536l-.027-.219a.033.033,0,0,0-.035-.027l.062,0v-.158l-.377.019-.092-.766.3-.013a.028.028,0,0,0,.027-.032l-.179-1.47a.034.034,0,0,0-.034-.03l-.289.013-.09-.766L42,37.048V36.9l-.47.023a.025.025,0,0,0,.025-.029l-.084-.71a.032.032,0,0,0-.033-.027L42,36.124v-.779c-2.282.111-4.358.194-6.34.2-2.491.005-4.132-.1-4.132-.1s-.007.009-.012.012-.369-.019-1.012-.067c-2.138-.186-7.4-.6-11.033-2.809a11.653,11.653,0,0,1-3.46-3.009,10.7,10.7,0,0,1-1.884-3.693.033.033,0,0,0-.037-.02Zm-1.541.637.461,1.224-.76.175-.105-.256a.04.04,0,0,0-.042-.021l-1.48.269a.025.025,0,0,0-.018.036l.11.285-.772.139-.515-1.51.784-.066.091.291a.04.04,0,0,0,.041.027l1.493-.193c.017,0,.028-.016.022-.032l-.087-.264Zm1.009.092.263.679a.033.033,0,0,0-.038-.017l-.7.162a.023.023,0,0,0-.018.032l-.273-.723a.033.033,0,0,0,.037.021l.712-.126C13.553,26.607,13.563,26.594,13.558,26.581Zm-4.195.571.309.91a.039.039,0,0,0-.04-.027l-.723.1a.027.027,0,0,0-.018.038l-.312-.952a.041.041,0,0,0,.039.03l.725-.062a.025.025,0,0,0,.02-.034Zm4.71.678.322.64a.033.033,0,0,0-.039-.012l-.679.238a.023.023,0,0,0-.015.033l-.338-.685a.033.033,0,0,0,.039.016l.692-.2A.022.022,0,0,0,14.073,27.83Zm-1.006.015.571,1.163-.735.257-.127-.242a.039.039,0,0,0-.044-.018l-1.437.428a.025.025,0,0,0-.014.038l.138.274-.751.221-.661-1.461.771-.147.119.282a.039.039,0,0,0,.043.024l1.46-.347a.027.027,0,0,0,.02-.036l-.112-.252Zm-3.091.989.4.881a.041.041,0,0,0-.043-.022l-.7.176c-.015,0-.021.02-.013.037L9.2,28.981a.043.043,0,0,0,.042.027l.715-.138a.025.025,0,0,0,.017-.036ZM14.7,29l.383.592a.034.034,0,0,0-.041-.008L14.4,29.9a.023.023,0,0,0-.012.034l-.4-.637a.031.031,0,0,0,.039.012l.664-.276A.023.023,0,0,0,14.7,29Zm-.99.131.683,1.083-.7.344-.153-.227a.037.037,0,0,0-.045-.012l-1.371.593a.025.025,0,0,0-.011.039l.167.258-.717.31-.812-1.4.746-.23.148.271a.038.038,0,0,0,.045.019l1.405-.509a.026.026,0,0,0,.015-.038l-.135-.238Zm1.729.946.44.541a.033.033,0,0,0-.041,0l-.6.393a.025.025,0,0,0-.008.036s-.345-.423-.441-.55l-.027-.034a.031.031,0,0,0,.04.006s.034-.018.084-.047c.171-.095.541-.309.541-.309s.019-.023.011-.033Zm-.965.251s.08.112.193.258c.227.3.6.736.6.736l-.646.428-.178-.207a.035.035,0,0,0-.045-.006l-1.285.761a.027.027,0,0,0-.006.041l.2.239-.67.4s-.2-.245-.421-.529c-.271-.359-.552-.778-.552-.778l.712-.318.175.253a.039.039,0,0,0,.047.014l1.332-.677a.026.026,0,0,0,.011-.038l-.161-.222Zm-3.717.129.488.843a.038.038,0,0,0-.044-.018l-.677.256a.025.025,0,0,0-.009.039l-.506-.889a.041.041,0,0,0,.043.023l.693-.215A.026.026,0,0,0,10.754,30.459Zm5.53.605.505.491a.031.031,0,0,0-.039,0l-.548.462a.024.024,0,0,0,0,.037l-.537-.53a.032.032,0,0,0,.041,0l.575-.429A.023.023,0,0,0,16.284,31.064Zm-.922.364.909.9-.589.5-.2-.187a.038.038,0,0,0-.047,0l-1.174.916a.026.026,0,0,0,0,.041l.222.213-.611.479-1.116-1.179.664-.407.2.231a.039.039,0,0,0,.048.008l1.23-.841a.025.025,0,0,0,.006-.039l-.184-.2Zm1.888.53.562.44a.034.034,0,0,0-.041.006l-.491.523a.023.023,0,0,0,0,.036l-.595-.473a.035.035,0,0,0,.042,0l.52-.493a.025.025,0,0,0,0-.036Zm-5.545.05s.214.306.387.536c.109.142.2.254.2.254a.037.037,0,0,0-.046-.012l-.639.339c-.014.007-.015.026,0,.042l-.123-.159c-.181-.242-.486-.681-.486-.681a.039.039,0,0,0,.046.018l.658-.3a.026.026,0,0,0,.008-.04Zm4.672.417,1.008.8-.527.568-.221-.165a.035.035,0,0,0-.045,0l-1.057,1.049a.025.025,0,0,0,0,.04l.245.188-.55.55L14,34.418l.605-.486.228.207a.038.038,0,0,0,.048,0L16,33.157a.027.027,0,0,0,0-.041l-.205-.18Zm1.938.331.607.386a.03.03,0,0,0-.039.01l-.43.571a.025.025,0,0,0,0,.037l-.642-.414a.03.03,0,0,0,.039-.008l.463-.546A.024.024,0,0,0,18.315,32.756Zm-.814.557,1.089.7-.46.622-.237-.143a.036.036,0,0,0-.044.009l-.929,1.161a.026.026,0,0,0,.007.041l.261.161-.48.608-1.333-.9.543-.556.249.18a.035.035,0,0,0,.047,0l1-1.107a.025.025,0,0,0,0-.04l-.224-.159Zm-4.665.133.673.714a.042.042,0,0,0-.049-.008l-.585.419a.027.027,0,0,0,0,.042l-.7-.756a.042.042,0,0,0,.048.012l.613-.382a.026.026,0,0,0,0-.041Zm6.629.012.652.343a.03.03,0,0,0-.037.013l-.373.606a.026.026,0,0,0,.009.037l-.685-.362a.03.03,0,0,0,.039-.01l.4-.591A.024.024,0,0,0,19.465,33.458Zm1.231.613.688.289a.031.031,0,0,0-.038.016l-.317.636a.026.026,0,0,0,.012.036l-.718-.3a.03.03,0,0,0,.038-.014l.344-.622a.027.027,0,0,0-.009-.036Zm-1.982.018,1.162.615-.4.657-.248-.121a.034.034,0,0,0-.043.013l-.8,1.244a.026.026,0,0,0,.012.039l.272.135-.413.651s-.789-.4-1.179-.625c-.132-.076-.218-.128-.218-.128l.473-.614.131.076.133.077a.036.036,0,0,0,.047-.008l.864-1.207a.028.028,0,0,0-.008-.041l-.24-.136Zm3.275.5.719.239a.031.031,0,0,0-.036.019l-.266.66a.026.026,0,0,0,.017.034l-.748-.251a.03.03,0,0,0,.037-.018l.29-.649A.024.024,0,0,0,21.989,34.585Zm-7.869.155.743.63a.039.039,0,0,0-.048,0l-.528.488a.027.027,0,0,0,.006.042l-.777-.67a.037.037,0,0,0,.048.006l.559-.455a.026.026,0,0,0,0-.04Zm5.886.025,1.217.515-.337.691-.258-.1a.035.035,0,0,0-.042.017l-.68,1.308a.028.028,0,0,0,.016.039l.279.113-.35.683L18.416,37.4l.405-.653.273.127a.036.036,0,0,0,.046-.012l.74-1.276a.03.03,0,0,0-.012-.041l-.251-.115Zm3.333.245.747.2a.031.031,0,0,0-.035.021l-.218.679a.027.027,0,0,0,.018.035l-.773-.206a.031.031,0,0,0,.036-.02l.242-.669a.027.027,0,0,0-.017-.035Zm-1.98.323,1.264.427-.28.716-.267-.084a.035.035,0,0,0-.041.019l-.569,1.361a.029.029,0,0,0,.02.039l.287.092-.292.712-1.467-.521.342-.688.283.106a.031.031,0,0,0,.042-.015l.624-1.335a.028.028,0,0,0-.015-.039l-.261-.1Zm3.38.024.768.156a.031.031,0,0,0-.034.024l-.175.693a.027.027,0,0,0,.021.033l-.793-.164a.03.03,0,0,0,.034-.023l.2-.686a.025.025,0,0,0-.018-.033Zm1.439.278.785.125a.029.029,0,0,0-.033.024l-.135.7a.027.027,0,0,0,.023.032l-.808-.13a.029.029,0,0,0,.033-.024l.154-.7A.025.025,0,0,0,26.178,35.635Zm-3.413.168,1.3.347-.228.738-.274-.07a.035.035,0,0,0-.039.023l-.467,1.4a.028.028,0,0,0,.023.036l.291.075-.237.733-1.493-.422.285-.715.289.089a.035.035,0,0,0,.042-.019l.516-1.384a.029.029,0,0,0-.018-.039l-.269-.078Zm4.883.053.8.1a.029.029,0,0,0-.033.024l-.1.709a.028.028,0,0,0,.024.031l-.82-.1a.029.029,0,0,0,.033-.024l.119-.708a.027.027,0,0,0-.023-.031Zm-12.118.022.8.545a.036.036,0,0,0-.046,0l-.466.547a.026.026,0,0,0,.011.04l-.84-.578a.039.039,0,0,0,.048,0l.5-.518A.027.027,0,0,0,15.53,35.878Zm13.613.152.809.076a.03.03,0,0,0-.03.028l-.072.708a.031.031,0,0,0,.027.032L29.05,36.8a.03.03,0,0,0,.031-.026l.086-.709A.027.027,0,0,0,29.143,36.03Zm1.511.135.814.051c-.007,0-.018.008-.018.017s-.012,0-.012.01l-.045.711c0,.012.009.019.019.024l-.006.006-.815-.053a.027.027,0,0,0,.03-.025l.058-.711a.027.027,0,0,0-.025-.03Zm-6.438.02,1.337.279-.183.751-.278-.053a.034.034,0,0,0-.038.024l-.374,1.436a.03.03,0,0,0,.026.036l.294.059-.187.749-1.508-.334.231-.735.293.069a.033.033,0,0,0,.04-.021l.418-1.421a.029.029,0,0,0-.021-.037l-.275-.063Zm16.5,0a.027.027,0,0,0-.026.03l.078.709a.032.032,0,0,0,.032.027l-.846.036a.028.028,0,0,0,.027-.03l-.07-.711a.032.032,0,0,0-.032-.027Zm-1.556.06a.027.027,0,0,0-.027.03l.063.71a.029.029,0,0,0,.031.027l-.844.026a.027.027,0,0,0,.027-.029l-.052-.71a.033.033,0,0,0-.032-.029Zm-6.965.009.736.028c.007,0,.007-.008.012-.012l.059,0a.031.031,0,0,0-.031.027l-.018.711a.03.03,0,0,0,.027.03l-.832-.032c.007-.005.018-.007.018-.016s.012,0,.012-.011l.032-.712c0-.009-.009-.011-.015-.016Zm5.415.034a.027.027,0,0,0-.027.029l.045.712a.03.03,0,0,0,.03.027l-.84.015a.027.027,0,0,0,.027-.029l-.034-.712a.03.03,0,0,0-.03-.027Zm-3.9.005.824.013a.029.029,0,0,0-.029.029l0,.71a.031.031,0,0,0,.029.03L33.7,37.06a.026.026,0,0,0,.028-.027l.008-.712a.029.029,0,0,0-.029-.028Zm2.36.016a.028.028,0,0,0-.028.029l.025.712a.03.03,0,0,0,.03.028l-.838,0a.029.029,0,0,0,.029-.029l-.015-.712a.03.03,0,0,0-.029-.028ZM25.7,36.492l1.362.22-.14.761-.282-.042a.034.034,0,0,0-.036.027l-.288,1.457a.029.029,0,0,0,.025.035l.3.045-.145.76L24.979,39.5l.184-.751.295.055a.034.034,0,0,0,.039-.024l.329-1.448A.028.028,0,0,0,25.8,37.3l-.279-.05Zm1.515.241L28.6,36.9l-.1.766-.284-.032a.034.034,0,0,0-.036.028l-.213,1.47a.028.028,0,0,0,.027.033l.3.033-.105.766-1.515-.189.139-.76.3.04a.032.032,0,0,0,.037-.025l.25-1.465a.033.033,0,0,0-.026-.036l-.282-.037Zm-10.17.123.84.452a.036.036,0,0,0-.045.009l-.4.592a.028.028,0,0,0,.014.04s-.673-.359-.84-.453l-.037-.021a.037.037,0,0,0,.046-.006s.01-.011.024-.03c.09-.118.409-.543.409-.543a.028.028,0,0,0-.011-.04Zm11.7.065,1.392.129-.072.767-.285-.024a.031.031,0,0,0-.033.029L29.6,39.3a.029.029,0,0,0,.028.032l.3.024-.072.766-1.508-.131.1-.767.3.03a.033.033,0,0,0,.036-.027l.181-1.472a.031.031,0,0,0-.027-.035l-.284-.028Zm1.545.142.085.006c.3.023,1.324.083,1.324.083l-.042.755-.285-.015a.033.033,0,0,0-.033.03L31.253,39.4a.03.03,0,0,0,.03.031l.051,0s0,.012.012.012l.232.012-.041.756-.317-.017a.017.017,0,0,0-.015.011s-.738-.044-1.048-.066l-.134-.009.069-.766.12.007.176.014a.031.031,0,0,0,.033-.029l.122-1.472a.032.032,0,0,0-.029-.033l-.189-.013-.1-.008Zm10.809.029.087.766-.288.012a.028.028,0,0,0-.027.033l.163,1.472a.033.033,0,0,0,.036.028l.293-.013.09.766-1.479.063-.075-.768.294-.01a.03.03,0,0,0,.029-.032l-.149-1.473a.034.034,0,0,0-.035-.03l-.286.01-.074-.766Zm-1.579.063.072.767-.288.011a.029.029,0,0,0-.027.033l.131,1.473a.032.032,0,0,0,.034.029l.294-.011.074.768-1.484.047-.057-.77.294-.007a.028.028,0,0,0,.03-.03l-.114-1.475a.031.031,0,0,0-.033-.03l-.287.007L38.11,37.2Zm-7.606.009,1,.04c.007,0,.01-.006.012-.012l.328.011-.015.767-.287-.009a.034.034,0,0,0-.032.032l-.039,1.475a.031.031,0,0,0,.032.03l.3.009-.015.769-1.433-.054.037-.756.3.014a.03.03,0,0,0,.033-.029l.063-1.475a.031.031,0,0,0-.028-.033h-.05c-.005,0-.005-.012-.012-.012l-.223-.011Zm6.034.039.052.767-.287.008a.03.03,0,0,0-.03.031l.1,1.475a.032.032,0,0,0,.033.03l.3-.007.054.769L36.68,40.3l-.036-.768.3,0a.028.028,0,0,0,.03-.03L36.9,38.024a.034.034,0,0,0-.033-.031l-.287,0-.035-.768Zm-4.539,0,1.4.023.01.769-.286,0a.032.032,0,0,0-.032.031l.011,1.477a.03.03,0,0,0,.031.03l.3,0,.01.769-1.494-.026.012-.769.3.008a.029.029,0,0,0,.031-.029l.015-1.476a.032.032,0,0,0-.031-.032l-.285-.007Zm2.969.023.033.767-.288,0a.03.03,0,0,0-.029.032l.054,1.475a.032.032,0,0,0,.033.03l.3,0,.033.768-1.49,0-.014-.768h.3a.027.027,0,0,0,.03-.028l-.031-1.477A.033.033,0,0,0,35.274,38l-.287,0-.012-.769Zm-17.761.437.863.38a.034.034,0,0,0-.043.012l-.34.625a.029.029,0,0,0,.018.039l-.9-.4a.036.036,0,0,0,.046-.009l.37-.609a.027.027,0,0,0-.015-.038Zm1.617.677.882.316a.033.033,0,0,0-.042.015l-.284.653a.028.028,0,0,0,.021.036l-.914-.329a.033.033,0,0,0,.043-.013l.311-.64a.028.028,0,0,0-.017-.038Zm1.65.559.895.255a.032.032,0,0,0-.039.019l-.233.674a.029.029,0,0,0,.023.036l-.926-.266a.033.033,0,0,0,.042-.018l.257-.664a.027.027,0,0,0-.019-.036Zm1.673.451.9.2a.031.031,0,0,0-.037.021l-.185.691a.029.029,0,0,0,.024.035l-.931-.211a.033.033,0,0,0,.04-.019l.207-.684A.027.027,0,0,0,23.563,39.354Zm1.687.353.91.154a.034.034,0,0,0-.038.023l-.142.7a.029.029,0,0,0,.027.033l-.935-.159a.033.033,0,0,0,.039-.023l.164-.7a.029.029,0,0,0-.025-.034Zm1.694.269.909.112a.032.032,0,0,0-.036.026l-.106.707a.031.031,0,0,0,.029.033l-.93-.115a.031.031,0,0,0,.036-.024l.123-.706a.028.028,0,0,0-.025-.033Zm1.69.2.9.078a.032.032,0,0,0-.035.025l-.072.711a.029.029,0,0,0,.029.03l-.922-.078a.032.032,0,0,0,.036-.026l.088-.71a.028.028,0,0,0-.028-.03Zm1.679.132.9.057c-.007.005-.019.006-.019.015s-.014.006-.014.012l-.045.709a.032.032,0,0,0,.03.032l-.915-.058a.031.031,0,0,0,.035-.027l.058-.708a.029.029,0,0,0-.028-.032Zm10.865.021a.028.028,0,0,0-.027.03l.08.709a.033.033,0,0,0,.035.027l-.894.039a.028.028,0,0,0,.028-.03l-.073-.71a.031.031,0,0,0-.033-.027Zm-1.647.066a.028.028,0,0,0-.029.029l.065.71a.033.033,0,0,0,.033.029l-.9.028a.029.029,0,0,0,.029-.03l-.056-.71a.033.033,0,0,0-.033-.029ZM32.01,40.4l.823.032c.007,0,.011,0,.014-.011l.046,0a.028.028,0,0,0-.031.027l-.018.712a.028.028,0,0,0,.03.028l-.91-.034c.007-.005.017-.006.018-.015s.013-.006.013-.012l.032-.711c0-.009-.01-.012-.017-.018Zm5.867.038a.029.029,0,0,0-.029.03l.049.71a.031.031,0,0,0,.031.029l-.9.015a.029.029,0,0,0,.03-.029l-.037-.712a.032.032,0,0,0-.033-.027Zm-4.212.006.894.015a.028.028,0,0,0-.03.027l0,.712a.03.03,0,0,0,.031.028l-.907-.015a.028.028,0,0,0,.031-.027l.006-.712A.028.028,0,0,0,33.665,40.443Zm2.555.018a.029.029,0,0,0-.03.028l.027.712a.033.033,0,0,0,.033.029h-.9a.028.028,0,0,0,.03-.028l-.016-.712a.032.032,0,0,0-.032-.029Z" fill="#464646"/>
    <path id="path855" d="M32.652,19.844c0,7.837-5.915,14.19-13.212,14.19h0c-7.3,0-13.212-6.353-13.212-14.19h0c0-7.837,5.916-14.189,13.212-14.189s13.212,6.352,13.212,14.189Z" stroke="#464646" stroke-linecap="round" stroke-miterlimit="10" stroke-width="0.457" fill="url(#linear-gradient-2)"/>
    <path id="path929" d="M21.742,15.719a4.3,4.3,0,0,0-2.132-.731l-.163-.018V10.408l.283.02a8.184,8.184,0,0,1,3.363.914,8.982,8.982,0,0,1,3.285,2.965,3.061,3.061,0,0,1,.2.308c-.128.105-3.466,2.486-3.485,2.486A8.6,8.6,0,0,0,21.742,15.719Z" stroke="#464646" stroke-linecap="round" stroke-width="0.513" fill="url(#linear-gradient-3)"/>
    <path id="path931" d="M12.009,24.575a9.777,9.777,0,0,1-.967-7.582,5.128,5.128,0,0,1,.728-1.723c.023.013.869.539,1.881,1.168l1.839,1.144-.117.293a5.012,5.012,0,0,0-.325,2.253,5.11,5.11,0,0,0,.619,2.021l.131.225-1.745,1.26c-.96.693-1.766,1.268-1.792,1.277S12.145,24.81,12.009,24.575Z" stroke="#464646" stroke-linecap="round" stroke-width="0.513" fill="url(#linear-gradient-4)"/>
    <path id="path933" d="M19.5,27.564c-.013-.725-.023-1.728-.023-2.229v-.911l.371-.041a4.327,4.327,0,0,0,2.985-1.765c.123-.165.229-.3.234-.3s3.528,2.2,3.559,2.229a6.588,6.588,0,0,1-.771,1.157,8.474,8.474,0,0,1-5.952,3.157l-.38.021Z" stroke="#464646" stroke-linecap="round" stroke-width="0.513" fill="url(#linear-gradient-5)"/>
    <path id="path967" d="M19.93,20.575l-.761-.357-.761-.358.69-.48.69-.48.071.837Z" stroke="#464646" stroke-linecap="round" stroke-width="0.34" fill="url(#linear-gradient-6)"/>
  </g>
</svg>
