<svg id="Layer_1" data-name="Layer 1" xmlns="http://www.w3.org/2000/svg" xmlns:xlink="http://www.w3.org/1999/xlink" viewBox="0 0 48 48">
  <defs>
    <linearGradient id="linear-gradient" x1="-216.854" y1="-418.571" x2="-207.712" y2="-427.163" gradientTransform="matrix(1.422, 0, 0, -1.413, 327.486, -573.707)" gradientUnits="userSpaceOnUse">
      <stop offset="0" stop-color="#74b3c7"/>
      <stop offset="0.177" stop-color="#6badc2"/>
      <stop offset="0.464" stop-color="#539db4"/>
      <stop offset="0.822" stop-color="#2d839d"/>
      <stop offset="1" stop-color="#177490"/>
    </linearGradient>
    <linearGradient id="linear-gradient-2" x1="-154.834" y1="1285.659" x2="-147.286" y2="1292.556" gradientTransform="translate(204.59 -1675.104) scale(1.313 1.305)" gradientUnits="userSpaceOnUse">
      <stop offset="0" stop-color="#fff"/>
      <stop offset="0.232" stop-color="#fafafa"/>
      <stop offset="0.496" stop-color="#ededed"/>
      <stop offset="0.775" stop-color="#d6d6d6"/>
      <stop offset="1" stop-color="#bebebe"/>
    </linearGradient>
    <linearGradient id="linear-gradient-3" x1="-154.876" y1="1298.748" x2="-147.318" y2="1304.937" xlink:href="#linear-gradient-2"/>
    <linearGradient id="linear-gradient-4" x1="-154.94" y1="1311.201" x2="-147.363" y2="1318.001" xlink:href="#linear-gradient-2"/>
    <linearGradient id="linear-gradient-5" x1="352.365" y1="-351.882" x2="362.91" y2="-362.107" gradientTransform="matrix(0.477, 0, 0, -0.477, -136.756, -162.619)" gradientUnits="userSpaceOnUse">
      <stop offset="0" stop-color="#73b4c8"/>
      <stop offset="0.175" stop-color="#6aaec3"/>
      <stop offset="0.457" stop-color="#529eb5"/>
      <stop offset="0.809" stop-color="#2c839f"/>
      <stop offset="1" stop-color="#147391"/>
    </linearGradient>
    <linearGradient id="linear-gradient-6" x1="362.19" y1="-362.314" x2="369.514" y2="-372.729" xlink:href="#linear-gradient-5"/>
    <linearGradient id="linear-gradient-7" x1="369.061" y1="-372.788" x2="378.844" y2="-383.317" xlink:href="#linear-gradient-5"/>
    <linearGradient id="linear-gradient-8" x1="357.474" y1="-340.539" x2="368.663" y2="-349.392" gradientTransform="matrix(0.477, 0, 0, -0.477, -136.756, -162.619)" gradientUnits="userSpaceOnUse">
      <stop offset="0" stop-color="#b1b1b1"/>
      <stop offset="1" stop-color="#7d7d7d"/>
    </linearGradient>
    <linearGradient id="linear-gradient-9" x1="345.399" y1="-343.259" x2="351.293" y2="-351.464" xlink:href="#linear-gradient-8"/>
    <linearGradient id="linear-gradient-10" x1="379.511" y1="-343.125" x2="385.405" y2="-351.437" xlink:href="#linear-gradient-8"/>
    <linearGradient id="linear-gradient-11" x1="248.462" y1="-271.154" x2="252.462" y2="-275.154" gradientTransform="matrix(0.553, 0, 0, -0.553, -103.553, -116.106)" gradientUnits="userSpaceOnUse">
      <stop offset="0" stop-color="#cde6eb"/>
      <stop offset="0.221" stop-color="#c6e2e8"/>
      <stop offset="0.542" stop-color="#b3d8e1"/>
      <stop offset="0.921" stop-color="#93c7d5"/>
      <stop offset="1" stop-color="#8cc3d2"/>
    </linearGradient>
    <linearGradient id="linear-gradient-12" x1="248.209" y1="-267.407" x2="252.209" y2="-271.407" gradientTransform="matrix(0.553, 0, 0, -0.553, -103.553, -116.106)" gradientUnits="userSpaceOnUse">
      <stop offset="0" stop-color="#afd7e1"/>
      <stop offset="0.159" stop-color="#a4d0dc"/>
      <stop offset="0.706" stop-color="#80bcce"/>
      <stop offset="1" stop-color="#73b4c8"/>
    </linearGradient>
    <linearGradient id="linear-gradient-13" x1="247.956" y1="-263.659" x2="251.956" y2="-267.659" xlink:href="#linear-gradient-12"/>
    <linearGradient id="linear-gradient-14" x1="247.704" y1="-259.912" x2="251.704" y2="-263.912" xlink:href="#linear-gradient-12"/>
    <linearGradient id="linear-gradient-15" x1="247.451" y1="-256.164" x2="251.451" y2="-260.164" gradientTransform="matrix(0.553, 0, 0, -0.553, -103.553, -116.106)" xlink:href="#linear-gradient-5"/>
    <linearGradient id="linear-gradient-16" x1="251.956" y1="-267.659" x2="255.956" y2="-271.659" xlink:href="#linear-gradient-11"/>
    <linearGradient id="linear-gradient-17" x1="251.704" y1="-263.912" x2="255.704" y2="-267.912" gradientTransform="matrix(0.553, 0, 0, -0.553, -103.553, -116.106)" gradientUnits="userSpaceOnUse">
      <stop offset="0" stop-color="#afd7e1"/>
      <stop offset="1" stop-color="#73b4c8"/>
    </linearGradient>
    <linearGradient id="linear-gradient-18" x1="251.451" y1="-260.164" x2="255.451" y2="-264.164" xlink:href="#linear-gradient-12"/>
    <linearGradient id="linear-gradient-19" x1="251.198" y1="-256.417" x2="255.198" y2="-260.417" xlink:href="#linear-gradient-12"/>
    <linearGradient id="linear-gradient-20" x1="255.451" y1="-264.164" x2="259.451" y2="-268.164" xlink:href="#linear-gradient-11"/>
    <linearGradient id="linear-gradient-21" x1="255.198" y1="-260.417" x2="259.198" y2="-264.417" gradientTransform="matrix(0.553, 0, 0, -0.553, -103.553, -116.106)" xlink:href="#linear-gradient-5"/>
    <linearGradient id="linear-gradient-22" x1="254.946" y1="-256.67" x2="258.946" y2="-260.67" xlink:href="#linear-gradient-12"/>
    <linearGradient id="linear-gradient-23" x1="259.198" y1="-264.417" x2="263.198" y2="-268.417" xlink:href="#linear-gradient-11"/>
    <linearGradient id="linear-gradient-24" x1="258.946" y1="-260.67" x2="262.946" y2="-264.67" xlink:href="#linear-gradient-12"/>
    <linearGradient id="linear-gradient-25" x1="258.693" y1="-256.922" x2="262.693" y2="-260.922" xlink:href="#linear-gradient-12"/>
    <linearGradient id="linear-gradient-26" x1="263.198" y1="-268.417" x2="267.198" y2="-272.417" xlink:href="#linear-gradient-12"/>
    <linearGradient id="linear-gradient-27" x1="262.946" y1="-264.67" x2="266.946" y2="-268.67" gradientTransform="matrix(0.553, 0, 0, -0.553, -103.553, -116.106)" xlink:href="#linear-gradient-5"/>
    <linearGradient id="linear-gradient-28" x1="262.693" y1="-260.922" x2="266.693" y2="-264.922" xlink:href="#linear-gradient-12"/>
    <linearGradient id="linear-gradient-29" x1="229.977" y1="-273.638" x2="233.977" y2="-277.638" gradientTransform="matrix(0.553, 0, 0, -0.553, -103.553, -116.106)" gradientUnits="userSpaceOnUse">
      <stop offset="0" stop-color="#fff"/>
      <stop offset="0.221" stop-color="#f8f8f8"/>
      <stop offset="0.541" stop-color="#e5e5e5"/>
      <stop offset="0.92" stop-color="#c6c6c6"/>
      <stop offset="1" stop-color="#bebebe"/>
    </linearGradient>
    <linearGradient id="linear-gradient-30" x1="233.472" y1="-270.143" x2="237.472" y2="-274.143" xlink:href="#linear-gradient-12"/>
    <linearGradient id="linear-gradient-31" x1="233.219" y1="-266.396" x2="237.219" y2="-270.396" xlink:href="#linear-gradient-12"/>
    <linearGradient id="linear-gradient-32" x1="232.967" y1="-262.649" x2="236.967" y2="-266.649" xlink:href="#linear-gradient-12"/>
    <linearGradient id="linear-gradient-33" x1="232.714" y1="-258.901" x2="236.714" y2="-262.901" xlink:href="#linear-gradient-12"/>
    <linearGradient id="linear-gradient-34" x1="237.219" y1="-270.396" x2="241.219" y2="-274.396" xlink:href="#linear-gradient-11"/>
    <linearGradient id="linear-gradient-35" x1="236.967" y1="-266.649" x2="240.967" y2="-270.649" xlink:href="#linear-gradient-11"/>
    <linearGradient id="linear-gradient-36" x1="236.714" y1="-262.901" x2="240.714" y2="-266.901" gradientTransform="matrix(0.553, 0, 0, -0.553, -103.553, -116.106)" xlink:href="#linear-gradient-5"/>
    <linearGradient id="linear-gradient-37" x1="236.462" y1="-259.154" x2="240.462" y2="-263.154" xlink:href="#linear-gradient-12"/>
    <linearGradient id="linear-gradient-38" x1="236.209" y1="-255.407" x2="240.209" y2="-259.407" xlink:href="#linear-gradient-12"/>
    <linearGradient id="linear-gradient-39" x1="240.714" y1="-266.901" x2="244.714" y2="-270.901" xlink:href="#linear-gradient-12"/>
    <linearGradient id="linear-gradient-40" x1="240.462" y1="-263.154" x2="244.462" y2="-267.154" xlink:href="#linear-gradient-12"/>
    <linearGradient id="linear-gradient-41" x1="240.209" y1="-259.407" x2="244.209" y2="-263.407" xlink:href="#linear-gradient-11"/>
    <linearGradient id="linear-gradient-42" x1="239.956" y1="-255.659" x2="243.956" y2="-259.659" xlink:href="#linear-gradient-12"/>
    <linearGradient id="linear-gradient-43" x1="244.209" y1="-263.407" x2="248.209" y2="-267.407" xlink:href="#linear-gradient-12"/>
    <linearGradient id="linear-gradient-44" x1="243.956" y1="-259.659" x2="247.956" y2="-263.659" xlink:href="#linear-gradient-12"/>
    <linearGradient id="linear-gradient-45" x1="243.704" y1="-255.912" x2="247.704" y2="-259.912" xlink:href="#linear-gradient-12"/>
    <linearGradient id="linear-gradient-46" x1="229.472" y1="-266.143" x2="233.472" y2="-270.143" xlink:href="#linear-gradient-29"/>
    <linearGradient id="linear-gradient-47" x1="229.219" y1="-262.396" x2="233.219" y2="-266.396" xlink:href="#linear-gradient-29"/>
    <linearGradient id="linear-gradient-48" x1="228.967" y1="-258.649" x2="232.967" y2="-262.649" xlink:href="#linear-gradient-29"/>
    <linearGradient id="linear-gradient-49" x1="232.462" y1="-255.154" x2="236.462" y2="-259.154" xlink:href="#linear-gradient-29"/>
    <linearGradient id="linear-gradient-50" x1="235.956" y1="-251.659" x2="239.956" y2="-255.659" xlink:href="#linear-gradient-29"/>
    <linearGradient id="linear-gradient-51" x1="239.704" y1="-251.912" x2="243.704" y2="-255.912" xlink:href="#linear-gradient-29"/>
    <linearGradient id="linear-gradient-52" x1="243.451" y1="-252.164" x2="247.451" y2="-256.164" xlink:href="#linear-gradient-29"/>
    <linearGradient id="linear-gradient-53" x1="247.198" y1="-252.417" x2="251.198" y2="-256.417" xlink:href="#linear-gradient-29"/>
    <linearGradient id="linear-gradient-54" x1="250.946" y1="-252.67" x2="254.946" y2="-256.67" xlink:href="#linear-gradient-29"/>
    <linearGradient id="linear-gradient-55" x1="254.693" y1="-252.922" x2="258.693" y2="-256.922" xlink:href="#linear-gradient-29"/>
    <linearGradient id="linear-gradient-56" x1="258.44" y1="-253.175" x2="262.44" y2="-257.175" xlink:href="#linear-gradient-29"/>
    <linearGradient id="linear-gradient-57" x1="262.44" y1="-257.175" x2="266.44" y2="-261.175" xlink:href="#linear-gradient-29"/>
    <linearGradient id="linear-gradient-58" x1="230.23" y1="-277.385" x2="234.23" y2="-281.385" xlink:href="#linear-gradient-29"/>
    <linearGradient id="linear-gradient-59" x1="230.483" y1="-281.133" x2="234.483" y2="-285.133" xlink:href="#linear-gradient-29"/>
    <linearGradient id="linear-gradient-60" x1="234.23" y1="-281.385" x2="238.23" y2="-285.385" xlink:href="#linear-gradient-29"/>
    <linearGradient id="linear-gradient-61" x1="234.483" y1="-285.133" x2="238.483" y2="-289.133" xlink:href="#linear-gradient-29"/>
    <linearGradient id="linear-gradient-62" x1="238.23" y1="-285.385" x2="242.23" y2="-289.385" xlink:href="#linear-gradient-29"/>
    <linearGradient id="linear-gradient-63" x1="260.714" y1="-286.901" x2="264.714" y2="-290.901" xlink:href="#linear-gradient-29"/>
    <linearGradient id="linear-gradient-64" x1="264.462" y1="-287.154" x2="268.462" y2="-291.154" xlink:href="#linear-gradient-29"/>
    <linearGradient id="linear-gradient-65" x1="264.209" y1="-283.407" x2="268.209" y2="-287.407" xlink:href="#linear-gradient-29"/>
    <linearGradient id="linear-gradient-66" x1="267.956" y1="-283.659" x2="271.956" y2="-287.659" xlink:href="#linear-gradient-29"/>
    <linearGradient id="linear-gradient-67" x1="267.704" y1="-279.912" x2="271.704" y2="-283.912" xlink:href="#linear-gradient-29"/>
    <linearGradient id="linear-gradient-68" x1="267.451" y1="-276.164" x2="271.451" y2="-280.164" xlink:href="#linear-gradient-29"/>
    <linearGradient id="linear-gradient-69" x1="267.198" y1="-272.417" x2="271.198" y2="-276.417" xlink:href="#linear-gradient-29"/>
    <linearGradient id="linear-gradient-70" x1="266.946" y1="-268.67" x2="270.946" y2="-272.67" xlink:href="#linear-gradient-29"/>
    <linearGradient id="linear-gradient-71" x1="266.693" y1="-264.922" x2="270.693" y2="-268.922" xlink:href="#linear-gradient-29"/>
    <linearGradient id="linear-gradient-72" x1="266.44" y1="-261.175" x2="270.44" y2="-265.175" xlink:href="#linear-gradient-29"/>
    <linearGradient id="linear-gradient-73" x1="238.483" y1="-289.133" x2="242.483" y2="-293.133" xlink:href="#linear-gradient-29"/>
    <linearGradient id="linear-gradient-74" x1="242.23" y1="-289.385" x2="246.23" y2="-293.385" xlink:href="#linear-gradient-29"/>
    <linearGradient id="linear-gradient-75" x1="245.977" y1="-289.638" x2="249.977" y2="-293.638" xlink:href="#linear-gradient-29"/>
    <linearGradient id="linear-gradient-76" x1="249.725" y1="-289.891" x2="253.725" y2="-293.891" xlink:href="#linear-gradient-29"/>
    <linearGradient id="linear-gradient-77" x1="253.472" y1="-290.143" x2="257.472" y2="-294.143" xlink:href="#linear-gradient-29"/>
    <linearGradient id="linear-gradient-78" x1="257.219" y1="-290.396" x2="261.219" y2="-294.396" xlink:href="#linear-gradient-29"/>
    <linearGradient id="linear-gradient-79" x1="260.967" y1="-290.649" x2="264.967" y2="-294.649" xlink:href="#linear-gradient-29"/>
    <linearGradient id="linear-gradient-80" x1="248.967" y1="-278.649" x2="252.967" y2="-282.649" xlink:href="#linear-gradient-29"/>
    <linearGradient id="linear-gradient-81" x1="244.714" y1="-270.901" x2="248.714" y2="-274.901" xlink:href="#linear-gradient-29"/>
    <linearGradient id="linear-gradient-82" x1="244.462" y1="-267.154" x2="248.462" y2="-271.154" xlink:href="#linear-gradient-29"/>
    <linearGradient id="linear-gradient-83" x1="249.219" y1="-282.396" x2="253.219" y2="-286.396" xlink:href="#linear-gradient-29"/>
  </defs>
  <g id="g1548">
    <path id="line53-4-3" d="M0,23.5H2.657" fill="none" stroke="#464646" stroke-miterlimit="10" stroke-width="1.135"/>
    <path id="rect49-8-5" d="M20.632,14.236h9.325V32.765H20.632Z" stroke="#147391" stroke-miterlimit="10" stroke-width="1.211" fill="url(#linear-gradient)"/>
    <path id="polyline57-7-9" d="M8.534,6.807h6.729V40.2H8.349" fill="none" stroke="#464646" stroke-miterlimit="13.533" stroke-width="1.091"/>
    <path id="line55-8-6" d="M6.94,23.5H21.088" fill="none" stroke="#147391" stroke-miterlimit="10" stroke-width="1.128"/>
    <path id="line53-4-9" d="M0,6.654H2.657" fill="none" stroke="#464646" stroke-miterlimit="10" stroke-width="1.135"/>
    <path id="rect43-7-7" d="M2.688.545h6.3V13.072h-6.3Z" stroke="#147391" stroke-miterlimit="10" stroke-width="1.091" fill="url(#linear-gradient-2)"/>
    <path id="line53-4-6" d="M0,40.146H2.657" fill="none" stroke="#464646" stroke-miterlimit="10" stroke-width="1.135"/>
    <path id="rect43-7-1" d="M2.688,17.243h6.3V29.77h-6.3Z" stroke="#147391" stroke-miterlimit="10" stroke-width="1.091" fill="url(#linear-gradient-3)"/>
    <path id="rect43-7-11" d="M2.688,33.928h6.3V46.455h-6.3Z" stroke="#147391" stroke-miterlimit="10" stroke-width="1.091" fill="url(#linear-gradient-4)"/>
    <path id="rect2-5-1" d="M26.521.121H47.879V21.479H26.521Z" fill="#dcdcdc"/>
    <path id="rect4-8-8" d="M28.112.121h5.453V21.479H28.112Z" fill="#bebebe"/>
    <path id="rect6-5-1" d="M40.836.121h5.453V21.479H40.836Z" fill="#bebebe"/>
    <path id="path19-7-4" d="M38.791,9.663H29.248a.455.455,0,0,1-.455-.454V6.482a.455.455,0,0,1,.455-.454h9.543a.454.454,0,0,1,.454.454V9.209A.454.454,0,0,1,38.791,9.663Z" stroke="#147391" stroke-miterlimit="10" stroke-width="0.454" fill="url(#linear-gradient-5)"/>
    <path id="path32-0-4" d="M40.608,14.662H35.155a.455.455,0,0,1-.455-.454V11.481a.455.455,0,0,1,.455-.454h5.453a.455.455,0,0,1,.455.454v2.727A.455.455,0,0,1,40.608,14.662Z" stroke="#147391" stroke-miterlimit="10" stroke-width="0.454" fill="url(#linear-gradient-6)"/>
    <path id="path45-2-0" d="M45.153,19.661H38.336a.454.454,0,0,1-.454-.454V16.48a.454.454,0,0,1,.454-.454h6.817a.455.455,0,0,1,.455.454v2.727A.455.455,0,0,1,45.153,19.661Z" stroke="#147391" stroke-miterlimit="10" stroke-width="0.454" fill="url(#linear-gradient-7)"/>
    <path id="rect52-8-9" d="M30.368,1.448H44.032v2.2H30.368Z" stroke="#464646" stroke-miterlimit="10" stroke-width="0.441" fill="url(#linear-gradient-8)"/>
    <path id="polygon59-7-2" d="M29.045,4.974,27.723,3.652v-2.2h2.645v2.2Z" stroke="#464646" stroke-miterlimit="4.408" stroke-width="0.441" fill="url(#linear-gradient-9)"/>
    <path id="polygon66-0-9" d="M45.354,4.974,44.032,3.652v-2.2h2.645v2.2Z" stroke="#464646" stroke-miterlimit="4.408" stroke-width="0.441" fill="url(#linear-gradient-10)"/>
    <path id="rect68-5-1" d="M26.512.512H47.488V21.488H26.512Z" fill="none" stroke="#464646" stroke-miterlimit="10" stroke-width="1.023"/>
    <g id="g1541">
      <path id="rect117" d="M35.533,35.533h1.934v1.934H35.533Z" stroke="#147391" stroke-miterlimit="9.465" stroke-width="0.483" fill="url(#linear-gradient-11)"/>
      <path id="rect119" d="M35.533,33.6h1.934v1.933H35.533Z" stroke="#147391" stroke-miterlimit="9.465" stroke-width="0.483" fill="url(#linear-gradient-12)"/>
      <path id="rect121" d="M35.533,31.667h1.934V33.6H35.533Z" stroke="#147391" stroke-miterlimit="9.465" stroke-width="0.483" fill="url(#linear-gradient-13)"/>
      <path id="rect123" d="M35.533,29.734h1.934v1.933H35.533Z" stroke="#147391" stroke-miterlimit="9.465" stroke-width="0.483" fill="url(#linear-gradient-14)"/>
      <path id="rect125" d="M35.533,27.8h1.934v1.934H35.533Z" stroke="#147391" stroke-miterlimit="9.465" stroke-width="0.483" fill="url(#linear-gradient-15)"/>
      <path id="rect127" d="M37.467,33.6H39.4v1.933H37.467Z" stroke="#147391" stroke-miterlimit="9.465" stroke-width="0.483" fill="url(#linear-gradient-16)"/>
      <path id="rect129" d="M37.467,31.667H39.4V33.6H37.467Z" stroke="#147391" stroke-miterlimit="9.465" stroke-width="0.483" fill="url(#linear-gradient-17)"/>
      <path id="rect131" d="M37.467,29.734H39.4v1.933H37.467Z" stroke="#147391" stroke-miterlimit="9.465" stroke-width="0.483" fill="url(#linear-gradient-18)"/>
      <path id="rect133" d="M37.467,27.8H39.4v1.934H37.467Z" stroke="#147391" stroke-miterlimit="9.465" stroke-width="0.483" fill="url(#linear-gradient-19)"/>
      <path id="rect135" d="M39.4,31.667h1.933V33.6H39.4Z" stroke="#147391" stroke-miterlimit="9.465" stroke-width="0.483" fill="url(#linear-gradient-20)"/>
      <path id="rect137" d="M39.4,29.734h1.933v1.933H39.4Z" stroke="#147391" stroke-miterlimit="9.465" stroke-width="0.483" fill="url(#linear-gradient-21)"/>
      <path id="rect139" d="M39.4,27.8h1.933v1.934H39.4Z" stroke="#147391" stroke-miterlimit="9.465" stroke-width="0.483" fill="url(#linear-gradient-22)"/>
      <path id="rect141" d="M41.333,31.667h1.933V33.6H41.333Z" stroke="#147391" stroke-miterlimit="9.465" stroke-width="0.483" fill="url(#linear-gradient-23)"/>
      <path id="rect143" d="M41.333,29.734h1.933v1.933H41.333Z" stroke="#147391" stroke-miterlimit="9.465" stroke-width="0.483" fill="url(#linear-gradient-24)"/>
      <path id="rect145" d="M41.333,27.8h1.933v1.934H41.333Z" stroke="#147391" stroke-miterlimit="9.465" stroke-width="0.483" fill="url(#linear-gradient-25)"/>
      <path id="rect147" d="M43.266,33.6H45.2v1.933H43.266Z" stroke="#147391" stroke-miterlimit="9.465" stroke-width="0.483" fill="url(#linear-gradient-26)"/>
      <path id="rect149" d="M43.266,31.667H45.2V33.6H43.266Z" stroke="#147391" stroke-miterlimit="9.465" stroke-width="0.483" fill="url(#linear-gradient-27)"/>
      <path id="rect151" d="M43.266,29.734H45.2v1.933H43.266Z" stroke="#147391" stroke-miterlimit="9.465" stroke-width="0.483" fill="url(#linear-gradient-28)"/>
      <path id="rect153" d="M25.867,37.467H27.8V39.4H25.867Z" stroke="#464646" stroke-miterlimit="9.465" stroke-width="0.483" fill="url(#linear-gradient-29)"/>
      <path id="rect155" d="M27.8,35.533h1.934v1.934H27.8Z" stroke="#147391" stroke-miterlimit="9.465" stroke-width="0.483" fill="url(#linear-gradient-30)"/>
      <path id="rect157" d="M27.8,33.6h1.934v1.933H27.8Z" stroke="#147391" stroke-miterlimit="9.465" stroke-width="0.483" fill="url(#linear-gradient-31)"/>
      <path id="rect159" d="M27.8,31.667h1.934V33.6H27.8Z" stroke="#147391" stroke-miterlimit="9.465" stroke-width="0.483" fill="url(#linear-gradient-32)"/>
      <path id="rect161" d="M27.8,29.734h1.934v1.933H27.8Z" stroke="#147391" stroke-miterlimit="9.465" stroke-width="0.483" fill="url(#linear-gradient-33)"/>
      <path id="rect163" d="M29.734,35.533h1.933v1.934H29.734Z" stroke="#147391" stroke-miterlimit="9.465" stroke-width="0.483" fill="url(#linear-gradient-34)"/>
      <path id="rect165" d="M29.734,33.6h1.933v1.933H29.734Z" stroke="#147391" stroke-miterlimit="9.465" stroke-width="0.483" fill="url(#linear-gradient-35)"/>
      <path id="rect167" d="M29.734,31.667h1.933V33.6H29.734Z" stroke="#147391" stroke-miterlimit="9.465" stroke-width="0.483" fill="url(#linear-gradient-36)"/>
      <path id="rect169" d="M29.734,29.734h1.933v1.933H29.734Z" stroke="#147391" stroke-miterlimit="9.465" stroke-width="0.483" fill="url(#linear-gradient-37)"/>
      <path id="rect171" d="M29.734,27.8h1.933v1.934H29.734Z" stroke="#147391" stroke-miterlimit="9.465" stroke-width="0.483" fill="url(#linear-gradient-38)"/>
      <path id="rect173" d="M31.667,33.6H33.6v1.933H31.667Z" stroke="#147391" stroke-miterlimit="9.465" stroke-width="0.483" fill="url(#linear-gradient-39)"/>
      <path id="rect175" d="M31.667,31.667H33.6V33.6H31.667Z" stroke="#147391" stroke-miterlimit="9.465" stroke-width="0.483" fill="url(#linear-gradient-40)"/>
      <path id="rect177" d="M31.667,29.734H33.6v1.933H31.667Z" stroke="#147391" stroke-miterlimit="9.465" stroke-width="0.483" fill="url(#linear-gradient-41)"/>
      <path id="rect179" d="M31.667,27.8H33.6v1.934H31.667Z" stroke="#147391" stroke-miterlimit="9.465" stroke-width="0.483" fill="url(#linear-gradient-42)"/>
      <path id="rect181" d="M33.6,31.667h1.933V33.6H33.6Z" stroke="#147391" stroke-miterlimit="9.465" stroke-width="0.483" fill="url(#linear-gradient-43)"/>
      <path id="rect183" d="M33.6,29.734h1.933v1.933H33.6Z" stroke="#147391" stroke-miterlimit="9.465" stroke-width="0.483" fill="url(#linear-gradient-44)"/>
      <path id="rect185" d="M33.6,27.8h1.933v1.934H33.6Z" stroke="#147391" stroke-miterlimit="9.465" stroke-width="0.483" fill="url(#linear-gradient-45)"/>
      <path id="circle187" d="M27.317,38.433a.484.484,0,1,1-.967,0h0a.484.484,0,0,1,.484-.483h0A.483.483,0,0,1,27.317,38.433Z" fill="#464646"/>
      <path id="rect189" d="M25.867,33.6H27.8v1.933H25.867Z" stroke="#464646" stroke-miterlimit="9.465" stroke-width="0.483" fill="url(#linear-gradient-46)"/>
      <path id="circle191" d="M27.317,34.567a.484.484,0,0,1-.967,0h0a.484.484,0,0,1,.484-.484h0A.484.484,0,0,1,27.317,34.567Z" fill="#464646"/>
      <path id="rect193" d="M25.867,31.667H27.8V33.6H25.867Z" stroke="#464646" stroke-miterlimit="9.465" stroke-width="0.483" fill="url(#linear-gradient-47)"/>
      <path id="circle195" d="M27.317,32.633a.484.484,0,1,1-.967,0h0a.484.484,0,0,1,.967,0Z" fill="#464646"/>
      <path id="rect197" d="M25.867,29.734H27.8v1.933H25.867Z" stroke="#464646" stroke-miterlimit="9.465" stroke-width="0.483" fill="url(#linear-gradient-48)"/>
      <path id="circle199" d="M27.317,30.7a.484.484,0,1,1-.967,0h0a.484.484,0,0,1,.967,0Z" fill="#464646"/>
      <path id="rect201" d="M27.8,27.8h1.934v1.934H27.8Z" stroke="#464646" stroke-miterlimit="9.465" stroke-width="0.483" fill="url(#linear-gradient-49)"/>
      <path id="circle203" d="M29.25,28.767a.483.483,0,0,1-.966,0h0a.483.483,0,0,1,.966,0Z" fill="#464646"/>
      <path id="rect205" d="M29.734,25.867h1.933V27.8H29.734Z" stroke="#464646" stroke-miterlimit="9.465" stroke-width="0.483" fill="url(#linear-gradient-50)"/>
      <path id="circle207" d="M31.184,26.834a.484.484,0,0,1-.967,0h0a.484.484,0,1,1,.967,0Z" fill="#464646"/>
      <path id="rect209" d="M31.667,25.867H33.6V27.8H31.667Z" stroke="#464646" stroke-miterlimit="9.465" stroke-width="0.483" fill="url(#linear-gradient-51)"/>
      <path id="circle211" d="M33.117,26.834a.484.484,0,0,1-.967,0h0a.484.484,0,1,1,.967,0Z" fill="#464646"/>
      <path id="rect213" d="M33.6,25.867h1.933V27.8H33.6Z" stroke="#464646" stroke-miterlimit="9.465" stroke-width="0.483" fill="url(#linear-gradient-52)"/>
      <path id="circle215" d="M35.05,26.834a.483.483,0,0,1-.483.483h0a.484.484,0,0,1-.484-.483h0a.484.484,0,1,1,.967,0Z" fill="#464646"/>
      <path id="rect217" d="M35.533,25.867h1.934V27.8H35.533Z" stroke="#464646" stroke-miterlimit="9.465" stroke-width="0.483" fill="url(#linear-gradient-53)"/>
      <path id="circle219" d="M36.983,26.834a.483.483,0,0,1-.483.483h0a.483.483,0,0,1-.483-.483h0a.483.483,0,1,1,.966,0Z" fill="#464646"/>
      <path id="rect221" d="M37.467,25.867H39.4V27.8H37.467Z" stroke="#464646" stroke-miterlimit="9.465" stroke-width="0.483" fill="url(#linear-gradient-54)"/>
      <path id="circle223" d="M38.917,26.834a.484.484,0,0,1-.484.483h0a.483.483,0,0,1-.483-.483h0a.484.484,0,1,1,.967,0Z" fill="#464646"/>
      <path id="rect225" d="M39.4,25.867h1.933V27.8H39.4Z" stroke="#464646" stroke-miterlimit="9.465" stroke-width="0.483" fill="url(#linear-gradient-55)"/>
      <path id="circle227" d="M40.85,26.834a.483.483,0,0,1-.483.483h0a.484.484,0,0,1-.484-.483h0a.484.484,0,1,1,.967,0Z" fill="#464646"/>
      <path id="rect229" d="M41.333,25.867h1.933V27.8H41.333Z" stroke="#464646" stroke-miterlimit="9.465" stroke-width="0.483" fill="url(#linear-gradient-56)"/>
      <path id="circle231" d="M42.783,26.834a.483.483,0,0,1-.483.483h0a.484.484,0,0,1-.484-.483h0a.484.484,0,1,1,.967,0Z" fill="#464646"/>
      <path id="rect233" d="M43.266,27.8H45.2v1.934H43.266Z" stroke="#464646" stroke-miterlimit="9.465" stroke-width="0.483" fill="url(#linear-gradient-57)"/>
      <path id="circle235" d="M44.716,28.767a.483.483,0,0,1-.483.483h0a.483.483,0,0,1-.483-.483h0a.483.483,0,1,1,.966,0Z" fill="#464646"/>
      <path id="rect237" d="M25.867,39.4H27.8v1.933H25.867Z" stroke="#464646" stroke-miterlimit="9.465" stroke-width="0.483" fill="url(#linear-gradient-58)"/>
      <path id="circle239" d="M27.317,40.367a.484.484,0,0,1-.967,0h0a.484.484,0,0,1,.484-.484h0A.484.484,0,0,1,27.317,40.367Z" fill="#464646"/>
      <path id="rect241" d="M25.867,41.333H27.8v1.933H25.867Z" stroke="#464646" stroke-miterlimit="9.465" stroke-width="0.483" fill="url(#linear-gradient-59)"/>
      <path id="circle243" d="M27.317,42.3a.484.484,0,0,1-.967,0h0a.484.484,0,0,1,.484-.484h0A.484.484,0,0,1,27.317,42.3Z" fill="#464646"/>
      <path id="rect245" d="M27.8,41.333h1.934v1.933H27.8Z" stroke="#464646" stroke-miterlimit="9.465" stroke-width="0.483" fill="url(#linear-gradient-60)"/>
      <path id="circle247" d="M29.25,42.3a.483.483,0,1,1-.966,0h0a.484.484,0,0,1,.483-.484h0A.484.484,0,0,1,29.25,42.3Z" fill="#464646"/>
      <path id="rect249" d="M27.8,43.266h1.934V45.2H27.8Z" stroke="#464646" stroke-miterlimit="9.465" stroke-width="0.483" fill="url(#linear-gradient-61)"/>
      <path id="circle251" d="M29.25,44.233a.483.483,0,1,1-.966,0h0a.483.483,0,0,1,.483-.483h0A.483.483,0,0,1,29.25,44.233Z" fill="#464646"/>
      <path id="rect253" d="M29.734,43.266h1.933V45.2H29.734Z" stroke="#464646" stroke-miterlimit="9.465" stroke-width="0.483" fill="url(#linear-gradient-62)"/>
      <path id="circle255" d="M31.184,44.233a.484.484,0,0,1-.967,0h0a.483.483,0,0,1,.483-.483h0A.484.484,0,0,1,31.184,44.233Z" fill="#464646"/>
      <path id="rect257" d="M41.333,43.266h1.933V45.2H41.333Z" stroke="#464646" stroke-miterlimit="9.465" stroke-width="0.483" fill="url(#linear-gradient-63)"/>
      <path id="circle259" d="M42.783,44.233a.483.483,0,0,1-.483.483h0a.484.484,0,0,1-.484-.483h0a.484.484,0,0,1,.484-.483h0a.483.483,0,0,1,.483.483Z" fill="#464646"/>
      <path id="rect261" d="M43.266,43.266H45.2V45.2H43.266Z" stroke="#464646" stroke-miterlimit="9.465" stroke-width="0.483" fill="url(#linear-gradient-64)"/>
      <path id="circle263" d="M44.716,44.233a.483.483,0,0,1-.483.483h0a.483.483,0,0,1-.483-.483h0a.483.483,0,0,1,.483-.483h0a.483.483,0,0,1,.483.483Z" fill="#464646"/>
      <path id="rect265" d="M43.266,41.333H45.2v1.933H43.266Z" stroke="#464646" stroke-miterlimit="9.465" stroke-width="0.483" fill="url(#linear-gradient-65)"/>
      <path id="circle267" d="M44.716,42.3a.483.483,0,0,1-.483.483h0a.483.483,0,0,1-.483-.483h0a.484.484,0,0,1,.483-.484h0a.484.484,0,0,1,.483.484Z" fill="#464646"/>
      <path id="rect269" d="M45.2,41.333h1.933v1.933H45.2Z" stroke="#464646" stroke-miterlimit="9.465" stroke-width="0.483" fill="url(#linear-gradient-66)"/>
      <path id="circle271" d="M46.65,42.3a.484.484,0,0,1-.484.483h0a.483.483,0,0,1-.483-.483h0a.484.484,0,0,1,.483-.484h0a.484.484,0,0,1,.484.484Z" fill="#464646"/>
      <path id="rect273" d="M45.2,39.4h1.933v1.933H45.2Z" stroke="#464646" stroke-miterlimit="9.465" stroke-width="0.483" fill="url(#linear-gradient-67)"/>
      <path id="circle275" d="M46.65,40.367a.484.484,0,0,1-.484.483h0a.483.483,0,0,1-.483-.483h0a.484.484,0,0,1,.483-.484h0a.484.484,0,0,1,.484.484Z" fill="#464646"/>
      <path id="rect277" d="M45.2,37.467h1.933V39.4H45.2Z" stroke="#464646" stroke-miterlimit="9.465" stroke-width="0.483" fill="url(#linear-gradient-68)"/>
      <path id="circle279" d="M46.65,38.433a.484.484,0,0,1-.484.484h0a.484.484,0,0,1-.483-.484h0a.483.483,0,0,1,.483-.483h0a.484.484,0,0,1,.484.483Z" fill="#464646"/>
      <path id="rect281" d="M45.2,35.533h1.933v1.934H45.2Z" stroke="#464646" stroke-miterlimit="9.465" stroke-width="0.483" fill="url(#linear-gradient-69)"/>
      <path id="circle283" d="M46.65,36.5a.484.484,0,0,1-.484.483h0a.483.483,0,0,1-.483-.483h0a.483.483,0,0,1,.483-.483h0a.484.484,0,0,1,.484.483Z" fill="#464646"/>
      <path id="rect285" d="M45.2,33.6h1.933v1.933H45.2Z" stroke="#464646" stroke-miterlimit="9.465" stroke-width="0.483" fill="url(#linear-gradient-70)"/>
      <path id="circle287" d="M46.65,34.567a.484.484,0,0,1-.484.483h0a.483.483,0,0,1-.483-.483h0a.484.484,0,0,1,.483-.484h0a.484.484,0,0,1,.484.484Z" fill="#464646"/>
      <path id="rect289" d="M45.2,31.667h1.933V33.6H45.2Z" stroke="#464646" stroke-miterlimit="9.465" stroke-width="0.483" fill="url(#linear-gradient-71)"/>
      <path id="circle291" d="M46.65,32.633a.484.484,0,1,1-.967,0h0a.484.484,0,0,1,.967,0Z" fill="#464646"/>
      <path id="rect293" d="M45.2,29.734h1.933v1.933H45.2Z" stroke="#464646" stroke-miterlimit="9.465" stroke-width="0.483" fill="url(#linear-gradient-72)"/>
      <path id="circle295" d="M46.65,30.7a.484.484,0,0,1-.484.484h0a.484.484,0,0,1-.483-.484h0a.484.484,0,0,1,.967,0Z" fill="#464646"/>
      <path id="rect297" d="M29.734,45.2h1.933v1.933H29.734Z" stroke="#464646" stroke-miterlimit="9.465" stroke-width="0.483" fill="url(#linear-gradient-73)"/>
      <path id="circle299" d="M31.184,46.166a.484.484,0,1,1-.967,0h0a.483.483,0,0,1,.483-.483h0A.484.484,0,0,1,31.184,46.166Z" fill="#464646"/>
      <path id="rect301" d="M31.667,45.2H33.6v1.933H31.667Z" stroke="#464646" stroke-miterlimit="9.465" stroke-width="0.483" fill="url(#linear-gradient-74)"/>
      <path id="circle303" d="M33.117,46.166a.484.484,0,1,1-.967,0h0a.483.483,0,0,1,.483-.483h0A.484.484,0,0,1,33.117,46.166Z" fill="#464646"/>
      <path id="rect305" d="M33.6,45.2h1.933v1.933H33.6Z" stroke="#464646" stroke-miterlimit="9.465" stroke-width="0.483" fill="url(#linear-gradient-75)"/>
      <path id="circle307" d="M35.05,46.166a.484.484,0,0,1-.483.484h0a.484.484,0,0,1-.484-.484h0a.484.484,0,0,1,.484-.483h0a.483.483,0,0,1,.483.483Z" fill="#464646"/>
      <path id="rect309" d="M35.533,45.2h1.934v1.933H35.533Z" stroke="#464646" stroke-miterlimit="9.465" stroke-width="0.483" fill="url(#linear-gradient-76)"/>
      <path id="circle311" d="M36.983,46.166a.484.484,0,0,1-.483.484h0a.484.484,0,0,1-.483-.484h0a.483.483,0,0,1,.483-.483h0a.483.483,0,0,1,.483.483Z" fill="#464646"/>
      <path id="rect313" d="M37.467,45.2H39.4v1.933H37.467Z" stroke="#464646" stroke-miterlimit="9.465" stroke-width="0.483" fill="url(#linear-gradient-77)"/>
      <path id="circle315" d="M38.917,46.166a.484.484,0,0,1-.484.484h0a.484.484,0,0,1-.483-.484h0a.483.483,0,0,1,.483-.483h0a.484.484,0,0,1,.484.483Z" fill="#464646"/>
      <path id="rect317" d="M39.4,45.2h1.933v1.933H39.4Z" stroke="#464646" stroke-miterlimit="9.465" stroke-width="0.483" fill="url(#linear-gradient-78)"/>
      <path id="circle319" d="M40.85,46.166a.484.484,0,0,1-.483.484h0a.484.484,0,0,1-.484-.484h0a.484.484,0,0,1,.484-.483h0a.483.483,0,0,1,.483.483Z" fill="#464646"/>
      <path id="rect321" d="M41.333,45.2h1.933v1.933H41.333Z" stroke="#464646" stroke-miterlimit="9.465" stroke-width="0.483" fill="url(#linear-gradient-79)"/>
      <path id="circle323" d="M42.783,46.166a.484.484,0,0,1-.483.484h0a.484.484,0,0,1-.484-.484h0a.484.484,0,0,1,.484-.483h0a.483.483,0,0,1,.483.483Z" fill="#464646"/>
      <path id="rect325" d="M35.533,39.4h1.934v1.933H35.533Z" stroke="#464646" stroke-miterlimit="9.465" stroke-width="0.483" fill="url(#linear-gradient-80)"/>
      <path id="circle327" d="M36.983,40.367a.483.483,0,0,1-.483.483h0a.483.483,0,0,1-.483-.483h0a.484.484,0,0,1,.483-.484h0a.484.484,0,0,1,.483.484Z" fill="#464646"/>
      <path id="rect329" d="M33.6,35.533h1.933v1.934H33.6Z" stroke="#464646" stroke-miterlimit="9.465" stroke-width="0.483" fill="url(#linear-gradient-81)"/>
      <path id="circle331" d="M35.05,36.5a.483.483,0,0,1-.483.483h0a.484.484,0,0,1-.484-.483h0a.484.484,0,0,1,.484-.483h0a.483.483,0,0,1,.483.483Z" fill="#464646"/>
      <path id="circle333" d="M36.983,36.5a.483.483,0,0,1-.483.483h0a.483.483,0,0,1-.483-.483h0a.483.483,0,0,1,.483-.483h0a.483.483,0,0,1,.483.483Z" fill="#147391"/>
      <path id="circle335" d="M38.917,34.567a.484.484,0,0,1-.484.483h0a.483.483,0,0,1-.483-.483h0a.484.484,0,0,1,.483-.484h0a.484.484,0,0,1,.484.484Z" fill="#147391"/>
      <path id="circle337" d="M33.117,30.7a.484.484,0,1,1-.967,0h0a.484.484,0,0,1,.967,0Z" fill="#147391"/>
      <path id="circle339" d="M31.184,34.567a.484.484,0,0,1-.967,0h0a.484.484,0,0,1,.483-.484h0A.484.484,0,0,1,31.184,34.567Z" fill="#147391"/>
      <path id="circle341" d="M31.184,36.5a.484.484,0,0,1-.967,0h0a.483.483,0,0,1,.483-.483h0A.484.484,0,0,1,31.184,36.5Z" fill="#147391"/>
      <path id="circle343" d="M42.783,32.633a.484.484,0,1,1-.967,0h0a.484.484,0,0,1,.967,0Z" fill="#147391"/>
      <path id="circle345" d="M40.85,32.633a.484.484,0,1,1-.967,0h0a.484.484,0,0,1,.967,0Z" fill="#147391"/>
      <path id="circle347" d="M38.917,32.633a.484.484,0,1,1-.967,0h0a.484.484,0,0,1,.967,0Z" fill="#147391"/>
      <path id="rect349" d="M33.6,33.6h1.933v1.933H33.6Z" stroke="#464646" stroke-miterlimit="9.465" stroke-width="0.483" fill="url(#linear-gradient-82)"/>
      <path id="circle351" d="M35.05,34.567a.483.483,0,0,1-.483.483h0a.484.484,0,0,1-.484-.483h0a.484.484,0,0,1,.484-.484h0a.484.484,0,0,1,.483.484Z" fill="#464646"/>
      <path id="rect353" d="M35.533,41.333h1.934v1.933H35.533Z" stroke="#464646" stroke-miterlimit="9.465" stroke-width="0.483" fill="url(#linear-gradient-83)"/>
      <path id="circle355" d="M36.983,42.3a.483.483,0,0,1-.483.483h0a.483.483,0,0,1-.483-.483h0a.484.484,0,0,1,.483-.484h0a.484.484,0,0,1,.483.484Z" fill="#464646"/>
      <path id="circle357" d="M47.616,36.5A11.116,11.116,0,0,1,36.5,47.616h0A11.116,11.116,0,1,1,47.616,36.5Z" fill="none" stroke="#464646" stroke-miterlimit="9.465" stroke-width="0.768"/>
    </g>
  </g>
</svg>
