<svg id="Layer_1" data-name="Layer 1" xmlns="http://www.w3.org/2000/svg" xmlns:xlink="http://www.w3.org/1999/xlink" viewBox="0 0 48 48">
  <defs>
    <linearGradient id="linear-gradient" x1="4.75" y1="42.75" x2="43.25" y2="4.25" gradientTransform="matrix(1, 0, 0, -1, 0, 50)" gradientUnits="userSpaceOnUse">
      <stop offset="0" stop-color="#fff"/>
      <stop offset="0.221" stop-color="#f8f8f8"/>
      <stop offset="0.541" stop-color="#e5e5e5"/>
      <stop offset="0.92" stop-color="#c6c6c6"/>
      <stop offset="1" stop-color="#bebebe"/>
    </linearGradient>
    <linearGradient id="linear-gradient-2" x1="7.75" y1="39.75" x2="40.25" y2="7.25" gradientTransform="matrix(1, 0, 0, -1, 0, 50)" gradientUnits="userSpaceOnUse">
      <stop offset="0" stop-color="#fff"/>
      <stop offset="0.335" stop-color="#f8f8f8"/>
      <stop offset="0.82" stop-color="#e5e5e5"/>
      <stop offset="1" stop-color="#dcdcdc"/>
    </linearGradient>
    <linearGradient id="linear-gradient-3" x1="24" y1="40.5" x2="24" y2="49.5" gradientTransform="matrix(1, 0, 0, -1, 0, 50)" gradientUnits="userSpaceOnUse">
      <stop offset="0" stop-color="#bebebe"/>
      <stop offset="0.045" stop-color="#c4c4c4"/>
      <stop offset="0.268" stop-color="#dedede"/>
      <stop offset="0.497" stop-color="#f0f0f0"/>
      <stop offset="0.736" stop-color="#fbfbfb"/>
      <stop offset="1" stop-color="#fff"/>
    </linearGradient>
    <linearGradient id="linear-gradient-4" x1="42.3" y1="809.914" x2="47.76" y2="816.734" gradientTransform="translate(-9.114 -582.22) scale(0.754 0.749)" gradientUnits="userSpaceOnUse">
      <stop offset="0" stop-color="#74b3c7"/>
      <stop offset="0.177" stop-color="#6badc2"/>
      <stop offset="0.464" stop-color="#539db4"/>
      <stop offset="0.822" stop-color="#2d839d"/>
      <stop offset="1" stop-color="#177490"/>
    </linearGradient>
    <linearGradient id="linear-gradient-5" x1="29.086" y1="809.692" x2="36.201" y2="817.895" xlink:href="#linear-gradient-4"/>
    <linearGradient id="linear-gradient-6" x1="54.822" y1="809.277" x2="61.624" y2="818.41" xlink:href="#linear-gradient-4"/>
    <linearGradient id="linear-gradient-7" x1="114.947" y1="-830.392" x2="121.319" y2="-840.615" gradientTransform="matrix(0.696, 0, 0, -0.691, -58.016, -559.493)" xlink:href="#linear-gradient-4"/>
    <linearGradient id="linear-gradient-8" x1="42.249" y1="820.76" x2="47.492" y2="827.08" xlink:href="#linear-gradient-4"/>
  </defs>
  <g id="g883">
    <path id="rect13" d="M6.5,5.5h35v42H6.5Z" stroke="#464646" stroke-miterlimit="10" fill="url(#linear-gradient)"/>
    <path id="rect24" d="M9.5,8.5h29v36H9.5Z" stroke="#bebebe" stroke-miterlimit="10" fill="url(#linear-gradient-2)"/>
    <path id="path39" d="M30.5,4.5h-2v-1a3,3,0,0,0-3-3h-3a3,3,0,0,0-3,3v1h-2a2,2,0,0,0-2,2v3h17v-3A2,2,0,0,0,30.5,4.5Z" stroke="#464646" stroke-miterlimit="10" fill="url(#linear-gradient-3)"/>
    <path id="circle41" d="M25,4a1,1,0,1,1-1-1A1,1,0,0,1,25,4Z" fill="#464646"/>
    <path id="line53-7" d="M16.073,26.348H22.69" fill="none" stroke="#464646" stroke-miterlimit="10"/>
    <path id="line55-1" d="M25.256,26.348H31.8" fill="none" stroke="#464646" stroke-miterlimit="10"/>
    <path id="polyline59-7" d="M22.671,18.239H19.644V34.461h3.08" fill="none" stroke="#464646" stroke-miterlimit="13.533"/>
    <path id="rect45-0" d="M22.705,23.308h3.061v6.086H22.705Z" stroke="#147391" stroke-miterlimit="10" fill="url(#linear-gradient-4)"/>
    <path id="rect47-9" d="M12.5,22.294h4.081v8.111H12.5Z" stroke="#147391" stroke-miterlimit="10" fill="url(#linear-gradient-5)"/>
    <path id="rect49-4" d="M31.889,22.294H35.97v8.111H31.889Z" stroke="#147391" stroke-miterlimit="10" fill="url(#linear-gradient-6)"/>
    <path id="polyline57-5" d="M25.745,18.239h3.081V34.461H25.8" fill="none" stroke="#464646" stroke-miterlimit="13.533"/>
    <path id="rect43-8" d="M22.705,15.2h3.061V21.28H22.705Z" stroke="#147391" stroke-miterlimit="10" fill="url(#linear-gradient-7)"/>
    <path id="rect51-3" d="M22.705,31.417h3.061V37.5H22.705Z" stroke="#147391" stroke-miterlimit="10" fill="url(#linear-gradient-8)"/>
  </g>
</svg>
