<svg id="Layer_1" data-name="Layer 1" xmlns="http://www.w3.org/2000/svg" xmlns:xlink="http://www.w3.org/1999/xlink" viewBox="0 0 48 48">
  <defs>
    <linearGradient id="linear-gradient" x1="0.5" y1="742.5" x2="47.5" y2="789.5" gradientTransform="translate(0 -742)" gradientUnits="userSpaceOnUse">
      <stop offset="0" stop-color="#fff"/>
      <stop offset="0.232" stop-color="#fafafa"/>
      <stop offset="0.496" stop-color="#ededed"/>
      <stop offset="0.775" stop-color="#d6d6d6"/>
      <stop offset="1" stop-color="#bebebe"/>
    </linearGradient>
    <linearGradient id="linear-gradient-2" x1="7.75" y1="752.25" x2="40.25" y2="784.75" gradientTransform="translate(0 -742)" gradientUnits="userSpaceOnUse">
      <stop offset="0" stop-color="#fff"/>
      <stop offset="0.221" stop-color="#f8f8f8"/>
      <stop offset="0.541" stop-color="#e5e5e5"/>
      <stop offset="0.92" stop-color="#c6c6c6"/>
      <stop offset="1" stop-color="#bebebe"/>
    </linearGradient>
    <linearGradient id="linear-gradient-3" x1="10.75" y1="755.25" x2="37.25" y2="781.75" gradientTransform="translate(0 -742)" gradientUnits="userSpaceOnUse">
      <stop offset="0" stop-color="#fff"/>
      <stop offset="0.335" stop-color="#f8f8f8"/>
      <stop offset="0.82" stop-color="#e5e5e5"/>
      <stop offset="1" stop-color="#dcdcdc"/>
    </linearGradient>
    <linearGradient id="linear-gradient-4" x1="24" y1="754.5" x2="24" y2="746.5" gradientTransform="translate(0 -742)" gradientUnits="userSpaceOnUse">
      <stop offset="0" stop-color="#bebebe"/>
      <stop offset="0.045" stop-color="#c4c4c4"/>
      <stop offset="0.268" stop-color="#dedede"/>
      <stop offset="0.497" stop-color="#f0f0f0"/>
      <stop offset="0.736" stop-color="#fbfbfb"/>
      <stop offset="1" stop-color="#fff"/>
    </linearGradient>
    <linearGradient id="linear-gradient-5" x1="34.5" y1="742.5" x2="47.5" y2="755.5" xlink:href="#linear-gradient-2"/>
    <linearGradient id="linear-gradient-6" x1="38" y1="740" x2="50" y2="752" gradientTransform="translate(0 -742)" gradientUnits="userSpaceOnUse">
      <stop offset="0" stop-color="#afd7e1"/>
      <stop offset="1" stop-color="#73b4c8"/>
    </linearGradient>
    <linearGradient id="linear-gradient-7" x1="35" y1="743" x2="47" y2="755" xlink:href="#linear-gradient-2"/>
    <linearGradient id="linear-gradient-8" x1="56.902" y1="837.896" x2="67.262" y2="846.71" gradientTransform="translate(-29.494 -698.748) scale(0.94 0.854)" gradientUnits="userSpaceOnUse">
      <stop offset="0" stop-color="#74b3c7"/>
      <stop offset="0.177" stop-color="#6badc2"/>
      <stop offset="0.464" stop-color="#539db4"/>
      <stop offset="0.822" stop-color="#2d839d"/>
      <stop offset="1" stop-color="#177490"/>
    </linearGradient>
  </defs>
  <g id="g1022">
    <path id="rect53" d="M.5.5h47v47H.5Z" stroke="#464646" stroke-miterlimit="10" fill="url(#linear-gradient)"/>
    <path id="rect55" d="M9.5,8.5h29v36H9.5Z" stroke="#6e6e6e" stroke-miterlimit="10" fill="url(#linear-gradient-2)"/>
    <path id="rect57" d="M12.5,11.5h23v30h-23Z" stroke="#bebebe" stroke-miterlimit="10" fill="url(#linear-gradient-3)"/>
    <path id="path59" d="M29.5,7.5h-2a3,3,0,0,0-3-3h-1a3,3,0,0,0-3,3h-2a2,2,0,0,0-2,2v3h15v-3A2,2,0,0,0,29.5,7.5Z" stroke="#6e6e6e" stroke-miterlimit="10" fill="url(#linear-gradient-4)"/>
    <path id="circle61" d="M25,7a1,1,0,1,1-1-1A1,1,0,0,1,25,7Z" fill="#6e6e6e"/>
    <path id="rect63" d="M34.5.5h13v13h-13Z" fill="url(#linear-gradient-5)"/>
    <path id="polygon65" d="M47,13V1H35Z" fill="url(#linear-gradient-6)"/>
    <path id="line67" d="M35,1,47,13" stroke="#464646" stroke-miterlimit="10" fill="url(#linear-gradient-7)"/>
    <path id="rect69" d="M34.5.5h13v13h-13Z" fill="none" stroke="#464646" stroke-miterlimit="10"/>
    <path id="polyline51" d="M34,19.959H17.084V15.693H34" stroke="#147391" stroke-width="0.951" fill="url(#linear-gradient-8)"/>
    <rect id="rect926" x="33.125" y="15.432" width="0.875" height="4.94" fill="#147391"/>
    <path id="path831" d="M20.981,22.493a1.051,1.051,0,0,0-.672.355,2.622,2.622,0,0,0-.366.558,4.109,4.109,0,0,0-.636,2.069l.443-.02a3.746,3.746,0,0,1,.585-1.841,2.122,2.122,0,0,1,.3-.466.6.6,0,0,1,.382-.213.573.573,0,0,1,.482.261,1.375,1.375,0,0,1,.221.631l-.067.052a1.2,1.2,0,0,0-.383.479,1.238,1.238,0,0,0-.066.414,2.2,2.2,0,0,1-.028.256c-.044.308-.105.73.24.922a.3.3,0,0,0,.144.038.309.309,0,0,0,.1-.017c.162-.059.234-.247.295-.413a3.626,3.626,0,0,0,.234-1.5c.022-.01.045-.018.068-.026a.2.2,0,0,1,.112-.013c.032.014.071.082.106.142a.821.821,0,0,0,.245.291l.236.156.149-.419a.593.593,0,0,1,.162-.287.383.383,0,0,1,.321.018.318.318,0,0,0,.421-.158.313.313,0,0,0,.029-.131V23.6a.565.565,0,0,1,.114-.038l.068-.019a1.561,1.561,0,0,0,.691-.531l-.335-.292a1.183,1.183,0,0,1-.484.4l-.054.015a.531.531,0,0,0-.4.273.577.577,0,0,0-.022.058.668.668,0,0,0-.841.351.556.556,0,0,0-.243-.2.588.588,0,0,0-.405,0,1.635,1.635,0,0,0-.273-.67,1.013,1.013,0,0,0-.879-.443Zm.765,1.916a3.255,3.255,0,0,1-.15.829c0-.05.014-.1.02-.145a2.961,2.961,0,0,0,.032-.31.828.828,0,0,1,.038-.266.439.439,0,0,1,.06-.108Z" fill="#464646"/>
    <path id="path938" d="M25.908,23.243v.5c0,.052,0,.105,0,.157a.713.713,0,0,0,.031.125c.02.073.042.146.063.219s.036.147.062.219c.016.043.042.083.062.125a1.172,1.172,0,0,0,.157.281c.031.052.062.1.094.156a.461.461,0,0,1,.062.063s0,.024,0,.031c.033.033.092.03.125.062s.023.078.062.094c.17.068.072.013.219.032.043,0,.083.026.126.031s.083,0,.125,0h.312c.032,0,.065.013.094,0a.649.649,0,0,0,.25-.187,1.124,1.124,0,0,0,.063-.125,1.764,1.764,0,0,0,.125-.219,1.235,1.235,0,0,0,.031-.375v-.344c0-.034.022-.108-.031-.125a.266.266,0,0,0-.063,0c-.02,0-.045-.013-.062,0s-.022.04-.031.062a.348.348,0,0,0-.032.094c0,.041,0,.083,0,.125V24.9c0,.012,0,.023,0,.031s.021,0,.032,0h.187a.916.916,0,0,0,.344-.031,1.646,1.646,0,0,0,.188-.157c.018-.014.044-.017.062-.031a.2.2,0,0,0,.094-.157c.005-.029-.015-.072,0-.062a.523.523,0,0,1,.094.094,2.925,2.925,0,0,0,.406.438.365.365,0,0,0,.094.062c.078.034.334.1.407.125.259.074.143.062.344.062a.184.184,0,0,0,.062,0c.006,0,0-.02,0-.031V25.15a.107.107,0,0,1,0-.031.06.06,0,0,1,.031-.032c.014,0,.144,0,.157,0h.218a.114.114,0,0,1,.032,0c.014,0,.018.025.031.032s.144,0,.157,0h.25" fill="none" stroke="#464646" stroke-width="0.522"/>
    <path id="path960" d="M19.842,29c-.093.046-.13.166-.218.219-.018.012-.045-.013-.063,0-.038.022-.06.065-.094.094s-.065.038-.093.062a2.505,2.505,0,0,0-.251.281.952.952,0,0,0-.093.126c-.028.049-.032.109-.063.156s-.091.076-.125.125a1.5,1.5,0,0,0-.094.188c-.02.041-.044.082-.062.125a.944.944,0,0,0-.032.094.86.86,0,0,0-.062.281c0,.031,0,.063,0,.094s-.025.061-.032.094,0,.041,0,.062v.594a.59.59,0,0,0,0,.094c0,.014.025.018.032.032.015.029.016.064.031.093s.021.021.032.032c.048.048.018.024.094.062.042.021.082.046.125.063a.158.158,0,0,0,.031,0h.751c.062,0,.125,0,.187,0a.4.4,0,0,0,.094-.032c.032-.012.064-.018.094-.031a1.124,1.124,0,0,0,.125-.063c.026-.015.036-.049.063-.062.006,0,.025.006.031,0a.283.283,0,0,0,.032-.094c0-.02,0-.042,0-.062s0-.024,0-.032-.028-.012-.032,0a.492.492,0,0,0,0,.094v.062c0,.052-.022.1.032.125.006,0,.02,0,.031,0h.062c.207,0,.207.044.344-.093a.734.734,0,0,0,.063-.094,1.237,1.237,0,0,0,.094-.125c.029-.059.038-.127.062-.188.038-.1.09-.185.125-.281.018-.05.018-.106.032-.157s.043-.124.062-.187a.817.817,0,0,1,.032-.125c.006-.019,0,.042,0,.062v.188a.215.215,0,0,0,0,.062.727.727,0,0,0,.062.094.766.766,0,0,0,.062.125c.024.029.065.039.094.062l.062.063c.013,0,.023,0,.032,0s.036.049.062.062a.972.972,0,0,0,.375.032H22.1c.02,0,.042,0,.062,0,.133-.027.185-.11.25-.219.014-.02.02-.043.032-.063A.716.716,0,0,0,22.5,31c0-.014,0-.1,0-.125v-.438c0-.013-.006-.027,0-.032.092-.046.17.128.219.219a1.037,1.037,0,0,1,.031.125,1.328,1.328,0,0,0,.063.125c.031.063.058.128.094.188a1.352,1.352,0,0,0,.25.281.183.183,0,0,0,.062.032.17.17,0,0,0,.032,0,.215.215,0,0,0,.062,0c.006,0,0-.022,0-.032.018-.043.044-.082.062-.125a.587.587,0,0,1,.063-.156,1.166,1.166,0,0,1,.125-.094c.013-.006.018-.025.031-.032s.023,0,.032,0c.024-.016.034-.053.062-.062a.375.375,0,0,1,.125,0h.125a1.933,1.933,0,0,1,.532.032c.343.1.124.093.25.093" fill="none" stroke="#464646" stroke-width="0.435"/>
    <path id="path962" d="M24.72,29.13c.168-.042.094,0,.219-.125.012-.012.017-.036.031-.031.094.031.053.09.063.156a1.14,1.14,0,0,0,.031.125c.014.062.02.126.032.188s.026.1.031.156,0,.1,0,.157c0,.073.026.145.032.218a1.455,1.455,0,0,0,0,.219c.006.056.052.1.062.157a.974.974,0,0,1,0,.187v.219c0,.012-.006.026,0,.032s.056.019.062,0a.658.658,0,0,0,0-.188,2.133,2.133,0,0,1,.032-.375,3.518,3.518,0,0,1,.281-.813c.046-.124.086-.25.125-.375a4.827,4.827,0,0,1,.188-.563c0-.014.026-.018.031-.032a.2.2,0,0,0,0-.062v1.532c0,.125,0,.25,0,.375,0,.084.026.166.032.25.034.518-.038,0,.031.344,0,.012,0,.024,0,.032a.039.039,0,0,0,.032,0,.752.752,0,0,0,.188-.157c.05-.073.048-.173.093-.25.03-.05.092-.076.126-.125a1.416,1.416,0,0,0,.093-.187c.053-.063.108-.123.157-.188.014-.018.017-.044.031-.062s.05-.036.063-.063c.049-.1-.065-.029.031-.125,0,0,.022,0,.032,0s.046-.048.062-.031,0,.063,0,.094c.108.542.028-.126.094.469.013.1.026.208.031.312a3.542,3.542,0,0,0,.032.657c.018.087.068.164.094.25s.037.189.062.281c0,.023.024.041.032.063,0,.006-.006.026,0,.031.086.044.229-.141.281-.187a1.22,1.22,0,0,1,.25-.219.96.96,0,0,1,.156-.063.741.741,0,0,1,.344-.062.716.716,0,0,1,.157.094c.013.006.017.026.031.031a.266.266,0,0,0,.063,0h.125a.59.59,0,0,0,.094,0c.064-.014.123-.048.187-.062.181-.04.005.066.188-.062.042-.031.084-.062.125-.094.012-.006.016-.032.031-.032s0,.021,0,.032-.017.051,0,.062.172-.006.188,0a2.114,2.114,0,0,0,.188.125.675.675,0,0,0,.156.032c.114.021.23.038.344.062.316.066.551.14.875.188.124.018.25.02.375.031.1.006.208.025.313.032.073,0,.146,0,.219,0,.012,0,.024.005.031,0a.033.033,0,0,0,0-.032c-.018-.006-.042,0-.062,0a.326.326,0,0,1-.062-.031c-.031-.014-.064-.019-.094-.032s-.04-.026-.063-.031a.578.578,0,0,0-.093,0h-.032c-.039,0-.031-.013-.031.023" fill="none" stroke="#464646" stroke-width="0.435"/>
    <path id="line37-7-2" d="M17.478,39.13H33.13" fill="none" stroke="#147391" stroke-width="0.87"/>
    <circle id="path928-8-1" cx="14.87" cy="39.13" r="0.87" fill="#147391"/>
    <path id="path984" d="M21.037,35.28h.4s.156-.02.156.032c0,.081-.163.143-.187.156-.082.044-.164.089-.25.125-.04.017-.085.018-.126.032s-.1.047-.156.062c-.092.026-.19.032-.281.062-.173.058-.33.155-.5.219-.093.035-.191.054-.282.094s-.145.086-.219.125-.166.084-.25.125l-.125.063s-.135.051-.156.094a.106.106,0,0,0,0,.031v.063c0,.02-.014.045,0,.062s.063.041.094.062c.314.22.1.126.437.188.042.005.083.024.125.031.148.025.506.058.626.063s.25-.013.375,0,.249.051.375.062c.1.006.208,0,.313,0h.406c.012,0,.024.005.032,0s.006-.036,0-.031c-.047.023-.081.066-.126.093a1.328,1.328,0,0,1-.125.063c-.042.02-.082.044-.125.062-.249.107.016-.046-.125.094,0,.005-.042,0-.032,0s.042,0,.063,0c.073,0,.145-.022.219-.032.1-.013.209-.017.312-.031.126-.018.25-.046.376-.062a3.184,3.184,0,0,1,.656-.032c.064,0,.125-.022.188-.031s.1,0,.156,0a2.091,2.091,0,0,1,.406.031c.105.013.21.014.313.032.147.024.29.071.438.093.167.026.445.024.625.063a.509.509,0,0,1,.188.062c.026.02.018.064.031.094s.046.082.063.125c0,.006,0,.023,0,.032a.454.454,0,0,0,.062.062c.068.068.016.032.187.032h.219c.073,0,.147,0,.219,0a.4.4,0,0,0,.094-.032.545.545,0,0,0,.094-.031.37.37,0,0,0,.062-.063l.063-.062a3,3,0,0,1,.218-.219.51.51,0,0,1,.126-.062c.093-.044.19-.077.281-.126a1.946,1.946,0,0,0,.469-.343c.082-.066.168-.124.25-.188a.071.071,0,0,0,.032-.032c0-.006,0-.04,0-.031a.518.518,0,0,1,.031.094c.014.051,0,.11.032.156s.086.08.125.125a.45.45,0,0,1,.062.094c.038.077-.09-.028.032.094h1.125c.052,0,.105,0,.157,0a1.212,1.212,0,0,0,.218-.062" fill="none" stroke="#464646" stroke-width="0.435"/>
    <path id="line37-7-2-1" d="M17.478,33.045H33.13" fill="none" stroke="#147391" stroke-width="0.87"/>
    <path id="line37-7-2-1-9" d="M17.519,26.964H33.171" fill="none" stroke="#147391" stroke-width="0.87"/>
    <circle id="path928-8-1-7" cx="14.87" cy="33.044" r="0.87" fill="#147391"/>
    <circle id="path928-8-1-3" cx="14.87" cy="26.957" r="0.87" fill="#147391"/>
  </g>
</svg>
