<svg id="Layer_1" data-name="Layer 1" xmlns="http://www.w3.org/2000/svg" xmlns:xlink="http://www.w3.org/1999/xlink" viewBox="0 0 48 48">
  <defs>
    <linearGradient id="linear-gradient" x1="39.517" y1="-746.261" x2="81.017" y2="-787.761" gradientTransform="matrix(0.946, 0, 0, -0.937, -32.818, -693.674)" gradientUnits="userSpaceOnUse">
      <stop offset="0" stop-color="#fff"/>
      <stop offset="0.232" stop-color="#fafafa"/>
      <stop offset="0.496" stop-color="#ededed"/>
      <stop offset="0.775" stop-color="#d6d6d6"/>
      <stop offset="1" stop-color="#bebebe"/>
    </linearGradient>
    <linearGradient id="linear-gradient-2" x1="17.897" y1="781.217" x2="28.256" y2="790.031" gradientTransform="translate(4.131 -756.409) scale(1.081 0.982)" gradientUnits="userSpaceOnUse">
      <stop offset="0" stop-color="#74b3c7"/>
      <stop offset="0.177" stop-color="#6badc2"/>
      <stop offset="0.464" stop-color="#539db4"/>
      <stop offset="0.822" stop-color="#2d839d"/>
      <stop offset="1" stop-color="#177490"/>
    </linearGradient>
  </defs>
  <g id="g900">
    <path id="polyline35" d="M39.306,3.971H6.5V43.5H40.558V5.52" stroke="#464646" stroke-linecap="round" stroke-miterlimit="10" fill="url(#linear-gradient)"/>
    <path id="path872" d="M27.823,28.55a.431.431,0,0,1-.127-.087.358.358,0,0,1-.106-.172,1.959,1.959,0,0,1-.069-.251,1.376,1.376,0,0,0-.066-.229,1.71,1.71,0,0,1-.125-.8c0-.2-.01-.364-.014-.368s-.025.021-.048.055a.57.57,0,0,1-.083.094.156.156,0,0,0-.06.1,1.17,1.17,0,0,1-.06.153.943.943,0,0,1-.4.371.261.261,0,0,1-.16.031.241.241,0,0,1-.179-.047.331.331,0,0,1-.169-.223c-.007-.033-.019-.086-.028-.117a.883.883,0,0,1-.016-.2,2.115,2.115,0,0,0-.017-.253c-.009-.06-.02-.158-.023-.218a.554.554,0,0,0-.012-.1,1.585,1.585,0,0,0-.048.481c0,.242-.008.282-.081.386a.288.288,0,0,1-.132.121.265.265,0,0,1-.155.04.355.355,0,0,1-.272-.1.335.335,0,0,1-.1-.124c-.026-.059-.027-.073-.028-.316-.044-.275-.056-.533-.085-.8-.006-.032-.015-.127-.02-.213a4.62,4.62,0,0,0-.173-.618,1.942,1.942,0,0,1-.026-.41.018.018,0,0,1,.019-.016.3.3,0,0,0,.086-.064.309.309,0,0,1,.278-.107.4.4,0,0,1,.262.116.413.413,0,0,1,.129.291c.01.107.019.151.031.151a1.788,1.788,0,0,0,.077-.224c.138-.446.159-.512.2-.61a.822.822,0,0,1,.052-.116.4.4,0,0,0,.038-.091.235.235,0,0,1,.079-.123.306.306,0,0,1,.253-.082.3.3,0,0,1,.229.111c.092.1.086.026.086,1.182,0,.564,0,1.025.007,1.025s.015-.019.025-.042a.923.923,0,0,1,.106-.146A.734.734,0,0,0,27,25.835a.585.585,0,0,1,.238-.339.523.523,0,0,1,.3-.092.265.265,0,0,1,.144.049.287.287,0,0,1,.129.107.383.383,0,0,1,.065.229.376.376,0,0,0,.032.147,1.537,1.537,0,0,1,.068.395,6.3,6.3,0,0,1,.044.68c0,.2.013.384.019.408a1.881,1.881,0,0,0,.088.216.206.206,0,0,0,.05-.041,1.1,1.1,0,0,1,.433-.238,1.2,1.2,0,0,1,.437-.089.516.516,0,0,1,.327.1.212.212,0,0,0,.155.049,1.138,1.138,0,0,0,.192-.026.514.514,0,0,0,.287-.156.341.341,0,0,1,.185-.095c.229-.046.358.152.491.208.081.059.137.055.285.08.218.036.449.083.713.145a4.746,4.746,0,0,0,.854.153.988.988,0,0,0,.35-.019.866.866,0,0,0,.2-.029.748.748,0,0,1,.221.032l.132.044a.354.354,0,0,1,.255.31.326.326,0,0,1-.059.239c-.036.056-.049.067-.147.115l-.107.052-.12-.007a4.126,4.126,0,0,1-1.711-.184c-.31-.074-.469-.107-.74-.177a.8.8,0,0,1-.365-.122c-.073-.048-.09-.055-.142-.055a.264.264,0,0,0-.155.043.7.7,0,0,1-.389.138,1.117,1.117,0,0,1-.275.018,1.087,1.087,0,0,1-.23-.028.735.735,0,0,1-.2-.111.064.064,0,0,0-.067-.02,2.043,2.043,0,0,0-.294.1c-.015.009-.117.1-.227.212a1.061,1.061,0,0,1-.294.242.363.363,0,0,1-.193.051.321.321,0,0,1-.161-.02Z" fill="#464646"/>
    <path id="path863-9" d="M28,21c-.109-.039-.147-.079-.316-.253a1.367,1.367,0,0,1-.234-.3,2.617,2.617,0,0,1-.385-.8c-.021-.075-.055-.2-.077-.273a2.136,2.136,0,0,1-.07-.714l0-.362h.692v.285a2,2,0,0,0,.076.7c.029.1.065.226.08.272a2.2,2.2,0,0,0,.238.475c.045.067.083.136.095.152a.425.425,0,0,0,.05.062.239.239,0,0,0,.068.06.256.256,0,0,0,.116.052.808.808,0,0,0,.135.024,2.8,2.8,0,0,0,.31.012.5.5,0,0,0,.216-.036.155.155,0,0,0,.04-.044c0-.026.008-.272.009-.546,0-.346.005-.512.012-.545a1.5,1.5,0,0,1,.089-.243.482.482,0,0,1,.177-.169.379.379,0,0,1,.254-.046.453.453,0,0,1,.4.285c.017.045.018.061.022.393l0,.346.04-.031a.1.1,0,0,0,.049-.079.346.346,0,0,1,.172-.234l.076-.05.1,0,.1,0,.067.027a.418.418,0,0,1,.194.173c.022.033.056.078.074.1s.07.081.113.134a1.918,1.918,0,0,0,.183.193l.1.1.106.056a2.865,2.865,0,0,0,.4.09c.006,0,.011,0,.011-.007a.5.5,0,0,1,.123-.115.636.636,0,0,1,.11-.041l.077-.021.262-.009a.9.9,0,0,1,.3.036.725.725,0,0,0,.218.013h.184v.7h-.239a.877.877,0,0,1-.307-.02.546.546,0,0,0-.1-.019c-.03,0-.036,0-.051.027a.385.385,0,0,1-.168.13.563.563,0,0,1-.251.064.806.806,0,0,1-.348-.058c-.075-.023-.213-.065-.3-.091a1.175,1.175,0,0,1-.7-.414,1.409,1.409,0,0,0-.123-.115.53.53,0,0,0-.074.058.836.836,0,0,1-.192.142.906.906,0,0,1-.406.08h-.063l-.014.03a1.092,1.092,0,0,1-.458.386,1.258,1.258,0,0,1-.187.055A2.085,2.085,0,0,1,28,21Z" fill="#464646"/>
    <path id="polyline51" d="M35,14.453H15.547V9.547H35" stroke="#147391" stroke-width="1.094" fill="url(#linear-gradient-2)"/>
    <path id="rect926" d="M33.993,9.247H35v5.681H33.993Z" fill="#147391"/>
    <path id="path831-5" d="M20.092,17.409a1.207,1.207,0,0,0-.774.408,2.972,2.972,0,0,0-.423.642,4.718,4.718,0,0,0-.733,2.379l.511-.023a4.3,4.3,0,0,1,.673-2.117,2.489,2.489,0,0,1,.348-.536.7.7,0,0,1,.44-.244.662.662,0,0,1,.556.3,1.575,1.575,0,0,1,.254.726L20.867,19a1.354,1.354,0,0,0-.441.55,1.442,1.442,0,0,0-.111.476c-.016.212-.01.163-.02.278-.051.353-.1.856.3,1.077a.357.357,0,0,0,.166.043.347.347,0,0,0,.115-.019c.187-.069.27-.285.341-.476a4.18,4.18,0,0,0,.269-1.725.582.582,0,0,1,.079-.03.227.227,0,0,1,.129-.014c.036.015.081.093.122.163a.954.954,0,0,0,.283.335s.168.213.271.179c.162-.054.173-.482.173-.482a.677.677,0,0,1,.186-.33.447.447,0,0,1,.37.02.367.367,0,0,0,.519-.331c0-.018,0-.037,0-.037a.612.612,0,0,1,.131-.044l.078-.022a1.793,1.793,0,0,0,.8-.611l-.385-.335a1.36,1.36,0,0,1-.559.459l-.061.017a.611.611,0,0,0-.456.314.535.535,0,0,0-.024.067.772.772,0,0,0-.97.4.652.652,0,0,0-.281-.236.685.685,0,0,0-.466-.005,1.88,1.88,0,0,0-.315-.77,1.165,1.165,0,0,0-1.013-.509Zm.882,2.2a3.74,3.74,0,0,1-.174.954c.007-.057.016-.117.023-.168a3.047,3.047,0,0,0,.037-.356.961.961,0,0,1,.044-.306.542.542,0,0,1,.07-.124Z" fill="#464646" stroke="#464646" stroke-width="0.2"/>
    <path id="path874" d="M17.5,28.587a1.29,1.29,0,0,1-.356-.192.6.6,0,0,1-.183-.252,3.292,3.292,0,0,1,.7-2.811,3.153,3.153,0,0,1,.9-.788s.072.143.155.315l.152.311a5.411,5.411,0,0,0-.674.6,2.225,2.225,0,0,0-.429.621,1.455,1.455,0,0,0-.181,1.408c.117.169.377.185.582.208.245.079.587.009.66-.149l.014-.069a.372.372,0,0,1,.3-.3.332.332,0,0,1,.263.053.225.225,0,0,1,.1.106l.033.065.032-.037a.724.724,0,0,0,.119-.17,4.036,4.036,0,0,1,.365-1.076.261.261,0,0,1,.239-.062.342.342,0,0,1,.3.2.6.6,0,0,1,.029.234c0,.162.009.187.032.232a.354.354,0,0,0,.133.126l.064.042.046.03a.624.624,0,0,0,.2.032c.112-.019.225-.016.3-.157l.042-.077V26.4l.032-.07a.405.405,0,0,1,.2-.19.333.333,0,0,1,.152-.023.308.308,0,0,1,.174.035.567.567,0,0,1,.131.088,1.122,1.122,0,0,1,.258.439,2.2,2.2,0,0,0,.172.371.141.141,0,0,0,.035-.039.678.678,0,0,1,.552-.365l.2-.013a1.963,1.963,0,0,1,.663.119,1.286,1.286,0,0,0,.262.054h.064v.683L24.3,27.5c-.085.022-.2,0-.556-.1a.952.952,0,0,0-.3-.047c-.136,0-.163,0-.2.014a.229.229,0,0,0-.134.126,1.279,1.279,0,0,1-.052.125.446.446,0,0,0-.038.1.424.424,0,0,1-.086.1.587.587,0,0,1-.311.106.392.392,0,0,1-.207-.047.711.711,0,0,1-.215-.17c-.07-.071-.149-.153-.174-.184s-.049-.05-.053-.04-.036.059-.071.112a.744.744,0,0,1-.271.256,1.286,1.286,0,0,1-.531.126.834.834,0,0,1-.724-.224c-.039-.039-.068-.059-.074-.053a.589.589,0,0,0-.034.094.786.786,0,0,1-.141.282c-.029.036-.069.092-.089.123a.72.72,0,0,1-.432.3,2.635,2.635,0,0,1-.449-.011.089.089,0,0,0-.066.008c-.018.009-.089.037-.16.062l-.127.045-.6.061a1.632,1.632,0,0,1-.7-.075Z" fill="#464646"/>
    <path id="line37-7-2" d="M16,36.5H35" fill="none" stroke="#147391"/>
    <path id="path928-8-1" d="M14,36.5a1,1,0,1,1-1-1A1,1,0,0,1,14,36.5Z" fill="#147391"/>
    <path id="path876" d="M25.87,35.116a.269.269,0,0,1-.091-.143.157.157,0,0,0-.023-.062.12.12,0,0,1-.027-.044.381.381,0,0,0-.022-.044l-.062-.011a8.464,8.464,0,0,0-1.576-.248,7.534,7.534,0,0,0-1.738.125c-.106.018-.255.039-.331.045s-.21.023-.3.035c-.267.038-.389.021-.489-.067a.4.4,0,0,1-.108-.2v-.035l-.158-.032a2.231,2.231,0,0,0-.5-.039,5.134,5.134,0,0,1-.978-.093c-.064-.015-.163-.032-.221-.039a.715.715,0,0,1-.7-.461.346.346,0,0,1-.037-.2.638.638,0,0,1,.016-.2c.045-.168.1-.217.474-.4a8.105,8.105,0,0,1,.823-.392,10.45,10.45,0,0,1,1.105-.4c.067-.034.156-.015.21-.064a.44.44,0,0,0,.074-.184.38.38,0,0,1,.059-.121.316.316,0,0,1,.174-.078.971.971,0,0,1,.45.045.391.391,0,0,1,.182.5.852.852,0,0,1-.325.343,1.458,1.458,0,0,1-.52.185,7.63,7.63,0,0,0-1.743.606.151.151,0,0,0-.074.173,7.6,7.6,0,0,0,2.3.159l.395.006a.528.528,0,0,1,.162.046c.242.278.767.1,1.106.078a7.752,7.752,0,0,1,2.5.25.628.628,0,0,1,.321.144.4.4,0,0,1,.13.2.329.329,0,0,0,.277.154.625.625,0,0,0,.266-.069,1.54,1.54,0,0,0,.205-.188,2.451,2.451,0,0,1,.227-.211,2.542,2.542,0,0,1,.249-.122,1.644,1.644,0,0,0,.584-.348,2.961,2.961,0,0,1,.238-.186,1.457,1.457,0,0,0,.174-.137.356.356,0,0,1,.378-.1.383.383,0,0,1,.215.214.477.477,0,0,1,.017.085c.035.138.033.2.194.289h.62a2.777,2.777,0,0,0,.7-.022.176.176,0,0,1,.082-.014c.01.011.223.635.219.639a2.018,2.018,0,0,1-.287.082c-.043.007-.344.012-.779.012h-.709a.394.394,0,0,1-.294-.1l-.081-.085a1.47,1.47,0,0,1-.12-.142.222.222,0,0,0-.049-.058,1.142,1.142,0,0,0-.117.095,2.261,2.261,0,0,1-.668.4l-.173.073-.192.2a1.216,1.216,0,0,1-1.142.4A.993.993,0,0,1,25.87,35.116Z" fill="#464646"/>
    <path id="line37-7-2-1" d="M16,29.5H35" fill="none" stroke="#147391" stroke-width="1.002"/>
    <path id="line37-7-2-1-9" d="M16,22.5H35" fill="none" stroke="#147391"/>
    <path id="path928-8-1-7" d="M14,29.5a1,1,0,1,1-1-1A1,1,0,0,1,14,29.5Z" fill="#147391"/>
    <path id="path928-8-1-3" d="M14,22.5a1,1,0,1,1-1-1A1,1,0,0,1,14,22.5Z" fill="#147391"/>
    <path id="rect1037" d="M37.192,3.786H40.7v.361H37.192Z" fill="#464646" stroke="#464646" stroke-linecap="square" stroke-width="0.632"/>
    <path id="rect1037-8" d="M40.735,3.785V7.3h-.362V3.785Z" fill="#464646" stroke="#464646" stroke-linecap="square" stroke-width="0.633"/>
  </g>
</svg>
