<svg id="Image" xmlns="http://www.w3.org/2000/svg" xmlns:xlink="http://www.w3.org/1999/xlink" viewBox="0 0 48 48">
  <defs>
    <linearGradient id="linear-gradient" x1="-57.474" y1="142.032" x2="-44.707" y2="129.263" gradientTransform="matrix(1.377, 0, 0, -1.377, 104.856, 196.034)" gradientUnits="userSpaceOnUse">
      <stop offset="0" stop-color="#cee6eb"/>
      <stop offset="0.221" stop-color="#c6e2e8"/>
      <stop offset="0.542" stop-color="#b3d8e1"/>
      <stop offset="0.921" stop-color="#93c7d4"/>
      <stop offset="1" stop-color="#8dc3d2"/>
    </linearGradient>
    <linearGradient id="linear-gradient-2" x1="-62.918" y1="136.587" x2="-45.495" y2="119.164" gradientTransform="matrix(1.377, 0, 0, -1.377, 104.856, 196.034)" gradientUnits="userSpaceOnUse">
      <stop offset="0" stop-color="#afd7e1"/>
      <stop offset="0.159" stop-color="#a5d1dc"/>
      <stop offset="0.706" stop-color="#82bdcf"/>
      <stop offset="1" stop-color="#73b4c8"/>
    </linearGradient>
    <linearGradient id="linear-gradient-3" x1="-63.899" y1="135.606" x2="-46.476" y2="118.183" gradientTransform="matrix(1.377, 0, 0, -1.377, 86.263, 206.064)" xlink:href="#linear-gradient-2"/>
    <linearGradient id="linear-gradient-4" x1="-59.15" y1="140.356" x2="-46.383" y2="127.587" gradientTransform="matrix(1.377, 0, 0, -1.377, 107.253, 217.829)" xlink:href="#linear-gradient"/>
    <linearGradient id="linear-gradient-5" x1="-63.756" y1="135.749" x2="-46.333" y2="118.326" gradientTransform="matrix(1.377, 0, 0, -1.377, 107.253, 217.829)" xlink:href="#linear-gradient-2"/>
  </defs>
  <g id="g922">
    <path id="polygon41" d="M43,19.422,32.017,25.773V13.132L43,6.78Z" fill="#3f91af"/>
    <path id="polygon43" d="M43,6.78,32.017,13.132,21.029,6.78,31.993.429Z" fill="url(#linear-gradient)"/>
    <path id="polygon45-3" d="M21.029,19.421V6.78l10.983,6.352V25.773Z" fill="url(#linear-gradient-2)"/>
    <path id="rect49" d="M31.586,13.131h.86V25.773h-.86Z" fill="#177491"/>
    <path id="path47" d="M32.017,13.562A.446.446,0,0,1,31.8,13.5L20.819,7.152l.429-.745,10.769,6.227L42.781,6.409l.43.744L32.226,13.5a.43.43,0,0,1-.209.058Z" fill="#177491"/>
    <path id="path51" d="M32.017,26.2a.436.436,0,0,1-.217-.059L20.819,19.793a.427.427,0,0,1-.215-.373V6.78a.428.428,0,0,1,.213-.373L31.781.058a.431.431,0,0,1,.431,0l11,6.35a.428.428,0,0,1,.215.374V19.428a.43.43,0,0,1-.215.372L32.23,26.145a.409.409,0,0,1-.213.059ZM21.463,19.173l10.554,6.105,10.553-6.1V7.029L32,.932l-10.534,6.1Z" fill="#4e4a48"/>
    <path id="polygon41-5" d="M24.406,29.453,13.424,35.8V28.564L24.406,16.81Z" fill="#3f91af"/>
    <path id="polygon43-4" d="M24.406,16.81,13.424,28.564,2.211,22.326,13.4,10.46Z" fill="#cee6eb"/>
    <path id="polygon45-3-6" d="M2.436,29.451l-.225-7.125L13.42,28.564V35.8Z" fill="url(#linear-gradient-3)"/>
    <path id="rect49-4" d="M12.993,28.226h.86V35.8h-.86Z" fill="#177491"/>
    <path id="path47-2" d="M13.424,28.994a.429.429,0,0,1-.216-.058L2,22.7l.43-.745,10.994,6.113L24.188,16.439l.43.745L13.633,28.936a.43.43,0,0,1-.209.058Z" fill="#177491"/>
    <path id="path51-5" d="M13.424,36.234a.42.42,0,0,1-.216-.059L2.226,29.823a.427.427,0,0,1-.215-.373V22.325a.428.428,0,0,1,.213-.373L13.188,10.088a.431.431,0,0,1,.431,0l11,6.351a.427.427,0,0,1,.215.373V29.458a.429.429,0,0,1-.215.372L13.637,36.175a.409.409,0,0,1-.213.059ZM2.87,29.2l10.554,6.105,10.554-6.1V17.06L13.4,10.962,2.87,22.579Z" fill="#4e4a48"/>
    <path id="polygon41-9" d="M45.4,41.218,34.413,47.569V39.543L45.4,33.191Z" fill="#3f91af"/>
    <path id="polygon43-47" d="M45.4,33.191,34.413,39.543,23.425,33.191,34.389,26.84Z" fill="url(#linear-gradient-4)"/>
    <path id="polygon45-3-60" d="M23.425,41.217V33.191l10.984,6.352v8.026Z" fill="url(#linear-gradient-5)"/>
    <path id="rect49-41" d="M33.982,38.979h.86v8.59h-.86Z" fill="#177491"/>
    <path id="path47-8" d="M34.413,39.634a.432.432,0,0,1-.216-.058L23.215,33.224l.429-.745,10.769,6.227,10.764-6.225.43.745-10.985,6.35A.43.43,0,0,1,34.413,39.634Z" fill="#177491"/>
    <path id="path51-57" d="M34.413,48a.43.43,0,0,1-.216-.059L23.215,41.589A.432.432,0,0,1,23,41.216V32.852a.43.43,0,0,1,.213-.373L34.178,26.13a.429.429,0,0,1,.43,0l11,6.351a.428.428,0,0,1,.214.373v8.37a.427.427,0,0,1-.214.371L34.626,47.941a.419.419,0,0,1-.213.059ZM23.859,40.969l10.554,6.1,10.554-6.1V33.1L34.394,27l-10.535,6.1Z" fill="#4e4a48"/>
  </g>
</svg>
