<svg id="Layer_1" data-name="Layer 1" xmlns="http://www.w3.org/2000/svg" xmlns:xlink="http://www.w3.org/1999/xlink" viewBox="0 0 48 48">
  <defs>
    <linearGradient id="linear-gradient" x1="2.086" y1="747.086" x2="43.5" y2="788.5" gradientTransform="translate(0 -742)" gradientUnits="userSpaceOnUse">
      <stop offset="0" stop-color="#fff"/>
      <stop offset="0.221" stop-color="#f8f8f8"/>
      <stop offset="0.541" stop-color="#e5e5e5"/>
      <stop offset="0.92" stop-color="#c6c6c6"/>
      <stop offset="1" stop-color="#bebebe"/>
    </linearGradient>
    <linearGradient id="linear-gradient-2" x1="211.163" y1="1009.977" x2="234.681" y2="1033.212" gradientTransform="translate(-136.279 -713.063) scale(0.715 0.722)" gradientUnits="userSpaceOnUse">
      <stop offset="0" stop-color="#fff"/>
      <stop offset="1" stop-color="#bebdbd"/>
    </linearGradient>
    <linearGradient id="linear-gradient-3" x1="218.414" y1="1036.63" x2="236.59" y2="1050.206" gradientTransform="translate(-136.279 -713.063) scale(0.715 0.722)" gradientUnits="userSpaceOnUse">
      <stop offset="0" stop-color="#73b4c8"/>
      <stop offset="1" stop-color="#177492"/>
    </linearGradient>
    <linearGradient id="linear-gradient-4" x1="119.438" y1="98.373" x2="125.973" y2="105.003" gradientTransform="matrix(0.938, 0, 0, -0.946, -20.468, 30.229)" xlink:href="#linear-gradient-3"/>
    <linearGradient id="linear-gradient-5" x1="138.544" y1="102.529" x2="143.135" y2="107.308" gradientTransform="matrix(0.938, 0, 0, -0.946, -20.468, 30.229)" xlink:href="#linear-gradient-3"/>
    <linearGradient id="linear-gradient-6" x1="207.734" y1="1008.208" x2="211.633" y2="1012.107" gradientTransform="translate(-136.278 -713.063) scale(0.715 0.722)" xlink:href="#linear-gradient-2"/>
    <linearGradient id="linear-gradient-7" x1="207.886" y1="1006.399" x2="241.154" y2="1039.667" gradientTransform="translate(-136.278 -713.063) scale(0.715 0.722)" xlink:href="#linear-gradient-2"/>
  </defs>
  <g id="g957">
    <path id="path35" d="M1.5,43.5h45v-33h-27L16.094,5.391A2,2,0,0,0,14.43,4.5H3.5a2,2,0,0,0-2,2Z" stroke="#464646" stroke-miterlimit="10" fill="url(#linear-gradient)"/>
    <path id="path18-1" d="M27.826,14.461H17.746a4.692,4.692,0,0,0-.327-.494l-.016-.021a4.72,4.72,0,0,0-.824-.841l-.047-.035a4.6,4.6,0,0,0-.419-.284c-.027-.017-.055-.035-.083-.051a4.6,4.6,0,0,0-1.043-.446c-.047-.014-.094-.025-.144-.037-.138-.035-.281-.065-.422-.087l-.161-.026a4.618,4.618,0,0,0-.576-.039A4.71,4.71,0,0,0,9,16.832a4.619,4.619,0,0,0,.035.551c0,.056.016.112.024.168.02.125.042.249.072.371.013.06.029.119.045.178.033.122.071.239.114.355.018.051.035.1.055.153a4.67,4.67,0,0,0,.215.473h0a4.762,4.762,0,0,0,.281.45c.027.039.057.076.086.116.075.1.153.2.236.3.037.042.073.082.112.123a3.735,3.735,0,0,0,.268.266c.037.032.071.066.107.095a4.861,4.861,0,0,0,.409.318l8.781,15.391h8.592L18.759,19.192h9.067Z" fill="url(#linear-gradient-2)"/>
    <path id="path20" d="M12.909,35.481H35.366a1.667,1.667,0,0,1,1.659,1.675V41H11.25V37.158a1.667,1.667,0,0,1,1.657-1.677h0Z" fill="url(#linear-gradient-3)"/>
    <path id="path22" d="M18.375,16.827a4.688,4.688,0,1,1-4.687-4.733h0a4.711,4.711,0,0,1,4.687,4.733Zm-4.687-1.971a1.973,1.973,0,1,0,1.951,1.974v0h0a1.96,1.96,0,0,0-1.948-1.972Z" fill="url(#linear-gradient-4)"/>
    <path id="rect24" d="M28.594,13.605H31.07v6.441H28.594Z" fill="url(#linear-gradient-5)"/>
    <g id="g38">
      <g id="g30">
        <path id="path26" d="M16,16.826a2.31,2.31,0,0,0-4.62,0,2.31,2.31,0,0,1,4.62,0Z" fill="url(#linear-gradient-6)"/>
        <path id="path28" d="M13.688,14.134a2.694,2.694,0,1,0,2.667,2.694h0A2.683,2.683,0,0,0,13.688,14.134Zm0,4.665a1.973,1.973,0,1,1,1.951-1.974v0h0a1.961,1.961,0,0,1-1.95,1.972Z" fill="#464646"/>
      </g>
      <g id="g36">
        <path id="path32" d="M11.608,37.158a1.308,1.308,0,0,1,1.3-1.314h7.177l-5.393-9.455,5.355,9.389h7.768L18.141,18.83l9.714,17.012h7.511a1.309,1.309,0,0,1,1.3,1.314,1.309,1.309,0,0,0-1.3-1.314H12.913a1.31,1.31,0,0,0-1.3,1.314h0ZM14.327,21.15a4.324,4.324,0,0,0,2.812-1.687,4.308,4.308,0,0,1-2.813,1.684Zm-2.9-.476-.1-.181-.072-.046a4.379,4.379,0,0,1-.791-.7l-.01-.011c.03.034.061.068.094.1.067.074.137.144.211.211.054.051.093.089.137.124.087.076.17.138.253.2a4.409,4.409,0,0,0,1.1.586Zm16.8-1.84h-.05V14.821H17.564l.124.334a3.911,3.911,0,0,0-.188-.392l-.05-.087a5.07,5.07,0,0,0-.311-.473,4.914,4.914,0,0,0-.429-.494,4.256,4.256,0,0,1,.72.931l.1.181h10.7V13.244h0v5.584Zm3.188-.445v-1.4l.187.157L35,19.015l1.766-.977,1.461-.023-.844,1.021L35,20.357Zm-21.079,1.2a4.126,4.126,0,0,1-.463-.686,4.054,4.054,0,0,1-.2-.433s-.058-.161-.072-.19l.072.2c.051.124.1.227.151.328s.094.173.142.256c.06.1.1.166.15.242C10.125,19.3,10.3,19.538,10.34,19.588Zm7.336-1.067-.038.1-.067.129c.039-.076.075-.154.107-.231Zm-8.213-.763a4.46,4.46,0,0,1-.1-.929h0a4.507,4.507,0,0,0,.032.506l.025.159C9.429,17.581,9.444,17.671,9.463,17.758Zm21.961-2.541L35,13.246l2.388,1.325.844,1.021-1.465-.029L35,14.586l-3.581,1.972ZM16.29,13.341c-.113-.085-.231-.165-.352-.239l-.1-.061a4.245,4.245,0,0,0-.945-.406l-.041-.012.037.01a4.223,4.223,0,0,1,.956.408l.077.047a4.3,4.3,0,0,1,.387.268l.027.02ZM14.753,12.6a3.883,3.883,0,0,0-.384-.079l-.143-.024c-.076-.01-.143-.015-.2-.02-.1-.008-.207-.016-.312-.017A4.323,4.323,0,0,1,14.753,12.6Z" fill="url(#linear-gradient-7)"/>
        <path id="path34" d="M14.733,12.962h0m20.271.7,2.157,1.193.3.365-.6-.01-1.518-.838L35,14.178l-.343.19-2.877,1.587v-.522l.343-.189,2.881-1.587m-3.224,3.994,2.88,1.587.343.189.343-.189,1.516-.836.6-.01-.3.365L35,19.951l-2.88-1.587-.343-.19v-.529M13.688,12.092A4.71,4.71,0,0,0,9,16.824v0H9a4.815,4.815,0,0,0,.129,1.083h0l.03.116c.039.143.084.284.134.432.017.047.033.095.052.14h0a4.683,4.683,0,0,0,.214.473h0a4.7,4.7,0,0,0,.6.866h0l.039.044a4.751,4.751,0,0,0,.858.757l8.41,14.741H12.913a1.666,1.666,0,0,0-1.658,1.675h0V41h25.77V37.157a1.668,1.668,0,0,0-1.658-1.676H28.059l-9.3-16.289h9.118v1.576h3.9V18.994L35,20.768l2.621-1.449L39,17.645l-2.326.037L35,18.607l-3.222-1.779v-.053L35,15l1.672.925L39,15.962l-1.377-1.678L35,12.836,31.781,14.61V12.884h-3.9v1.577H17.742a4.721,4.721,0,0,0-1.183-1.368l-.031-.023h0a4.6,4.6,0,0,0-.419-.284h0c-.027-.017-.054-.035-.082-.051h0a4.593,4.593,0,0,0-1.037-.446h0c-.046-.014-.094-.025-.143-.037h0A4.656,4.656,0,0,0,13.69,12.1Zm0,8.74a3.918,3.918,0,0,1-2.314-.757c-.08-.058-.159-.117-.247-.19-.042-.037-.082-.072-.123-.113-.067-.063-.133-.127-.2-.189-.041-.044-.081-.088-.121-.133-.059-.072-.115-.145-.169-.217-.034-.044-.071-.089-.1-.134-.054-.08-.093-.151-.138-.223s-.088-.155-.129-.234c-.047-.095-.093-.189-.138-.3-.02-.046-.035-.095-.053-.144-.035-.1-.067-.2-.094-.3-.015-.05-.027-.1-.038-.152-.025-.1-.044-.208-.06-.314l-.01-.064a.7.7,0,0,0-.012-.078,4.5,4.5,0,0,1-.03-.465h0a4,4,0,0,1,3.972-4.015c.1,0,.2.008.3.015.06.005.12.01.188.019a.61.61,0,0,1,.094.014l.041.007q.182.028.357.072l.024.006c.033.009.066.016.094.026a3.876,3.876,0,0,1,.866.372l.093.057c.112.069.22.143.325.223l.072.051a4.069,4.069,0,0,1,.693.713l.019.025a3.909,3.909,0,0,1,.256.386c.01.018.022.034.031.052l.044.076a4.027,4.027,0,0,1-1.62,5.426,3.946,3.946,0,0,1-1.879.476Zm14.906-.786V13.605h2.475v6.441ZM18.078,18.47a4.707,4.707,0,0,0,0-3.287h9.75V18.47Zm-4.39,3.087a4.682,4.682,0,0,0,4.146-2.536l.3.53L27.2,35.416H20.259l-8.046-14.1A4.594,4.594,0,0,0,13.688,21.557ZM11.966,40.279V37.156a.949.949,0,0,1,.943-.952H35.366a.949.949,0,0,1,.944.954h0v3.123Z" fill="#464646"/>
      </g>
    </g>
  </g>
</svg>
