<svg id="Layer_1" data-name="Layer 1" xmlns="http://www.w3.org/2000/svg" xmlns:xlink="http://www.w3.org/1999/xlink" viewBox="0 0 48 48">
  <defs>
    <linearGradient id="linear-gradient" x1="150.042" y1="-145.542" x2="164.956" y2="-160.456" gradientTransform="matrix(0.667, 0, 0, -0.667, -93.666, -90.333)" gradientUnits="userSpaceOnUse">
      <stop offset="0" stop-color="#73b4c8"/>
      <stop offset="0.175" stop-color="#6aaec3"/>
      <stop offset="0.457" stop-color="#529eb5"/>
      <stop offset="0.809" stop-color="#2c839f"/>
      <stop offset="1" stop-color="#147391"/>
    </linearGradient>
    <linearGradient id="linear-gradient-2" x1="160.791" y1="-158.792" x2="171.206" y2="-169.206" xlink:href="#linear-gradient"/>
    <linearGradient id="linear-gradient-3" x1="168.542" y1="-169.043" x2="180.456" y2="-180.957" xlink:href="#linear-gradient"/>
    <linearGradient id="linear-gradient-4" x1="164.499" y1="-143" x2="164.499" y2="-138" gradientTransform="matrix(0.667, 0, 0, -0.667, -93.666, -90.333)" gradientUnits="userSpaceOnUse">
      <stop offset="0" stop-color="#b1b1b1"/>
      <stop offset="1" stop-color="#7d7d7d"/>
    </linearGradient>
    <linearGradient id="linear-gradient-5" x1="142.999" y1="-142" x2="149" y2="-142" xlink:href="#linear-gradient-4"/>
    <linearGradient id="linear-gradient-6" x1="179.999" y1="-142" x2="185.999" y2="-142" xlink:href="#linear-gradient-4"/>
    <linearGradient id="linear-gradient-7" x1="150.042" y1="-145.542" x2="164.956" y2="-160.456" gradientTransform="matrix(0.667, 0, 0, -0.667, -77.666, -74.333)" xlink:href="#linear-gradient"/>
    <linearGradient id="linear-gradient-8" x1="160.791" y1="-158.792" x2="171.206" y2="-169.206" gradientTransform="matrix(0.667, 0, 0, -0.667, -77.666, -74.333)" xlink:href="#linear-gradient"/>
    <linearGradient id="linear-gradient-9" x1="168.542" y1="-169.043" x2="180.456" y2="-180.957" gradientTransform="matrix(0.667, 0, 0, -0.667, -77.666, -74.333)" xlink:href="#linear-gradient"/>
    <linearGradient id="linear-gradient-10" x1="292.827" y1="-130.544" x2="292.827" y2="-125.544" gradientTransform="matrix(0.511, 0, 0, -0.682, -120.104, -67.984)" xlink:href="#linear-gradient-4"/>
    <linearGradient id="linear-gradient-11" x1="142.999" y1="-142" x2="149" y2="-142" gradientTransform="matrix(0.667, 0, 0, -0.667, -77.666, -74.333)" xlink:href="#linear-gradient-4"/>
    <linearGradient id="linear-gradient-12" x1="119.174" y1="-104.216" x2="134.365" y2="-116.136" gradientTransform="matrix(0.756, 0, 0, -0.709, -56.834, -56.185)" gradientUnits="userSpaceOnUse">
      <stop offset="0" stop-color="#fff"/>
      <stop offset="0.221" stop-color="#f8f8f8"/>
      <stop offset="0.541" stop-color="#e5e5e5"/>
      <stop offset="0.92" stop-color="#c6c6c6"/>
      <stop offset="1" stop-color="#bebebe"/>
    </linearGradient>
  </defs>
  <g id="g977">
    <g id="g892">
      <path id="rect2-9" d="M.333.333H31.667V31.667H.333Z" fill="#dcdcdc"/>
      <path id="rect4-4" d="M2.667.333h8V31.667h-8Z" fill="#bebebe"/>
      <path id="rect6-4" d="M21.333.333h8V31.667h-8Z" fill="#bebebe"/>
      <path id="path19-9" d="M18.333,14.333h-14a.667.667,0,0,1-.666-.667v-4A.667.667,0,0,1,4.333,9h14A.667.667,0,0,1,19,9.666v4A.667.667,0,0,1,18.333,14.333Z" stroke="#147391" stroke-miterlimit="6.667" stroke-width="0.667" fill="url(#linear-gradient)"/>
      <path id="path32-00" d="M21,21.666H13A.667.667,0,0,1,12.333,21V17A.666.666,0,0,1,13,16.333h8a.667.667,0,0,1,.667.666v4A.667.667,0,0,1,21,21.666Z" stroke="#147391" stroke-miterlimit="6.667" stroke-width="0.667" fill="url(#linear-gradient-2)"/>
      <path id="path45-5" d="M27.667,29h-10A.667.667,0,0,1,17,28.333v-4a.667.667,0,0,1,.667-.666h10a.667.667,0,0,1,.667.666v4A.668.668,0,0,1,27.667,29Z" stroke="#147391" stroke-miterlimit="6.667" stroke-width="0.667" fill="url(#linear-gradient-3)"/>
      <path id="rect52-5" d="M5.667,1.667H26.333V5H5.667Z" stroke="#464646" stroke-miterlimit="6.667" stroke-width="0.667" fill="url(#linear-gradient-4)"/>
      <path id="polygon59-5" d="M5.667,5l-2,2-2-2V1.667h4Z" stroke="#464646" stroke-miterlimit="6.667" stroke-width="0.667" fill="url(#linear-gradient-5)"/>
      <path id="polygon66-6" d="M30.333,5l-2,2-2-2V1.667h4Z" stroke="#464646" stroke-miterlimit="6.667" stroke-width="0.667" fill="url(#linear-gradient-6)"/>
      <path id="rect68-0" d="M.333.333H31.667V31.667H.333Z" fill="none" stroke="#464646" stroke-miterlimit="6.667" stroke-width="0.667"/>
    </g>
    <path id="rect2-9-2" d="M16.333,16.333h21l10.334,9.934v21.4H16.333Z" fill="#dcdcdc"/>
    <path id="rect4-4-9" d="M18.667,16.333h8V47.667h-8Z" fill="#bebebe"/>
    <path id="rect6-4-5" d="M37.333,24.675h8V47.667h-8Z" fill="#bebebe"/>
    <path id="path19-9-3" d="M34.333,30.333h-14a.667.667,0,0,1-.666-.667v-4A.667.667,0,0,1,20.333,25h14a.667.667,0,0,1,.667.667v4A.667.667,0,0,1,34.333,30.333Z" stroke="#147391" stroke-miterlimit="10" stroke-width="0.667" fill="url(#linear-gradient-7)"/>
    <path id="path32-00-0" d="M37,37.666H29A.667.667,0,0,1,28.333,37V33A.666.666,0,0,1,29,32.333h8a.667.667,0,0,1,.667.666v4A.667.667,0,0,1,37,37.666Z" stroke="#147391" stroke-miterlimit="10" stroke-width="0.667" fill="url(#linear-gradient-8)"/>
    <path id="path45-5-2" d="M43.667,45h-10A.667.667,0,0,1,33,44.333v-4a.667.667,0,0,1,.667-.666h10a.667.667,0,0,1,.667.666v4A.668.668,0,0,1,43.667,45Z" stroke="#147391" stroke-miterlimit="10" stroke-width="0.667" fill="url(#linear-gradient-9)"/>
    <path id="rect52-5-1" d="M21.629,17.629H37.472v3.409H21.629Z" stroke="#464646" stroke-miterlimit="10" stroke-width="0.59" fill="url(#linear-gradient-10)"/>
    <path id="polygon59-5-7" d="M21.667,17.667V21l-2,2-2-2V17.667Z" stroke="#464646" stroke-miterlimit="6.667" stroke-width="0.667" fill="url(#linear-gradient-11)"/>
    <path id="rect68-0-3" d="M16.333,16.333h21l10.334,9.834v21.5H16.333Z" fill="none" stroke="#464646" stroke-miterlimit="10" stroke-width="0.667"/>
    <path id="rect63" d="M39.4,18.193l3.021,2.914c.715.689,2.6,2.382,2.829,2.587l2.025,1.85c.735.671-.511.36-1.536.36H39.6a1.791,1.791,0,0,1-1.85-1.735V18.422C37.755,17.461,38.681,17.5,39.4,18.193Z" fill="url(#linear-gradient-12)"/>
    <path id="rect69" d="M37.671,16.863l9.453,9.052H37.768Z" fill="none" stroke="#464646" stroke-miterlimit="10" stroke-width="0.761"/>
  </g>
</svg>
