<svg id="svg68" xmlns="http://www.w3.org/2000/svg" xmlns:xlink="http://www.w3.org/1999/xlink" viewBox="0 0 48 48">
  <defs>
    <linearGradient id="linear-gradient" x1="30.543" y1="782.73" x2="69.543" y2="821.73" gradientTransform="translate(-23.417 -715.403) scale(0.917)" gradientUnits="userSpaceOnUse">
      <stop offset="0" stop-color="#fff"/>
      <stop offset="1" stop-color="#dcdcdc"/>
    </linearGradient>
    <linearGradient id="linear-gradient-2" x1="-305.29" y1="-63.197" x2="-303.807" y2="-87.968" gradientTransform="matrix(0.715, -0.699, -0.699, -0.715, 199.769, -232.068)" gradientUnits="userSpaceOnUse">
      <stop offset="0" stop-color="#73b4c8"/>
      <stop offset="0.175" stop-color="#6aaec3"/>
      <stop offset="0.457" stop-color="#529eb5"/>
      <stop offset="0.809" stop-color="#2c839f"/>
      <stop offset="1" stop-color="#147391"/>
    </linearGradient>
  </defs>
  <g id="g909">
    <path id="rect9" d="M.579,2.454l42.842.231v33.9L.579,36.352Z" fill="url(#linear-gradient)"/>
    <path id="path11" d="M43,3.1V36H1V3H43m1-1H0V37H44Z" fill="#6f6e6e"/>
    <g id="g19">
      <path id="line15" d="M4.492,9.948H23.008" fill="none" stroke="#177491" stroke-miterlimit="3.667" stroke-width="1"/>
      <path id="line17" d="M4.492,13.341H17.114" fill="none" stroke="#177491" stroke-miterlimit="3.667" stroke-width="1"/>
    </g>
    <g id="g25">
      <path id="path21" d="M30.686,12.42,28.417,9.43l-2.292,2.109,4.536,6.19L38.592,6.87,36.328,4.813" fill="#0e7191"/>
      <path id="polygon23" d="M27.338,11.482l.832-.685,2.567,3.464L36.42,6.54l.825.7L30.737,16.1Z" fill="#3b90b2"/>
    </g>
    <path id="rect956" d="M4.583,25.014V31.43H11V25.014Zm.917.916h4.583v4.584H5.5Z" fill="#0e7191"/>
    <path id="path974" d="M6.417,26.847l2.75,2.75" fill="none" stroke="#0e7191"/>
    <path id="path974-6" d="M9.167,26.755l-2.75,2.75" fill="none" stroke="#177491"/>
    <path id="rect956-7" d="M22.917,25.014V31.43h6.416V25.014Zm.916.916h4.584v4.584H23.833Z" fill="#177491"/>
    <path id="rect1006" d="M13.75,25.014h6.417V31.43H13.75Z" fill="#177491"/>
    <path id="rect1026" d="M23.43,25.6h2.7v2.619h-2.7Z" fill="#0e7191"/>
    <path id="rect1026-5" d="M26.125,28.216h2.516v2.413H26.125Z" fill="#0e7191"/>
    <path id="rect956-7-4" d="M32.083,25.014V31.43H38.5V25.014ZM33,25.93h4.583v4.584H33Z" fill="#177491"/>
    <path id="rect1026-1" d="M33,25.93h.917v.917H33Z" fill="#177491"/>
    <path id="rect1026-1-3" d="M34.833,25.93h.917v.917h-.917Z" fill="#177491"/>
    <path id="rect1026-1-2" d="M36.667,25.93h.916v.917h-.916Z" fill="#177491"/>
    <path id="rect1026-1-1" d="M33.917,26.847h.916v.917h-.916Z" fill="#177491"/>
    <path id="rect1026-1-3-6" d="M35.75,26.847h.917v.917H35.75Z" fill="#177491"/>
    <path id="rect1026-1-8" d="M33,27.764h.917v.916H33Z" fill="#177491"/>
    <path id="rect1026-1-3-7" d="M34.833,27.764h.917v.916h-.917Z" fill="#177491"/>
    <path id="rect1026-1-2-5" d="M36.667,27.764h.916v.916h-.916Z" fill="#177491"/>
    <path id="rect1026-1-1-8" d="M33.917,28.68h.916V29.6h-.916Z" fill="#177491"/>
    <path id="rect1026-1-3-6-3" d="M35.75,28.68h.917V29.6H35.75Z" fill="#177491"/>
    <path id="rect1026-1-36" d="M33,29.6h.917v.917H33Z" fill="#177491"/>
    <path id="rect1026-1-3-61" d="M34.833,29.6h.917v.917h-.917Z" fill="#177491"/>
    <path id="rect1026-1-2-3" d="M36.667,29.6h.916v.917h-.916Z" fill="#177491"/>
    <path id="circle85" d="M43.933,26.263a12.5,12.5,0,1,1-17.677-.2A12.5,12.5,0,0,1,43.933,26.263Z" stroke="#464646" stroke-linecap="round" stroke-linejoin="round" stroke-width="1" fill="url(#linear-gradient-2)"/>
    <g id="g1075">
      <path id="polygon87" d="M41.859,37.085l-1.421,1.408.047-9.9-2.828-.014-.047,9.9L36.2,37.059,34.071,39.17,39,44.143l4.973-4.926Z" fill="#fff" stroke="#147391" stroke-width="1"/>
      <path id="polygon89" d="M27.734,32.776l1.42-1.407-.046,9.9,2.828.013.048-9.9L33.391,32.8l2.131-2.111L30.6,25.719l-4.973,4.927Z" fill="#fff" stroke="#147391" stroke-width="1"/>
    </g>
  </g>
</svg>
