<svg id="Image" xmlns="http://www.w3.org/2000/svg" xmlns:xlink="http://www.w3.org/1999/xlink" viewBox="0 0 48 48">
  <defs>
    <linearGradient id="linear-gradient" x1="0.668" y1="45.791" x2="45.132" y2="7.123" gradientTransform="matrix(1, 0, 0, -1, 0, 52)" gradientUnits="userSpaceOnUse">
      <stop offset="0" stop-color="#fff"/>
      <stop offset="0.221" stop-color="#fbfbfc"/>
      <stop offset="0.541" stop-color="#ececec"/>
      <stop offset="0.92" stop-color="#d0cecd"/>
      <stop offset="1" stop-color="#c9c6c5"/>
    </linearGradient>
    <linearGradient id="linear-gradient-2" x1="-93.217" y1="568.256" x2="-78.089" y2="583.383" gradientTransform="translate(106.288 -591.939) scale(1.031 1.071)" gradientUnits="userSpaceOnUse">
      <stop offset="0" stop-color="#73b4c8"/>
      <stop offset="0.175" stop-color="#6aaec3"/>
      <stop offset="0.457" stop-color="#529eb5"/>
      <stop offset="0.809" stop-color="#2c839f"/>
      <stop offset="1" stop-color="#147391"/>
    </linearGradient>
    <linearGradient id="linear-gradient-3" x1="-90.611" y1="564.208" x2="-80.715" y2="574.105" gradientTransform="translate(106.288 -591.939) scale(1.031 1.071)" gradientUnits="userSpaceOnUse">
      <stop offset="0" stop-color="#afd7e1"/>
      <stop offset="1" stop-color="#73b4c8"/>
    </linearGradient>
    <linearGradient id="linear-gradient-4" x1="666.434" y1="-1581.886" x2="699.142" y2="-1620.048" gradientTransform="matrix(0.369, 0, 0, -0.369, -218.643, -553.777)" gradientUnits="userSpaceOnUse">
      <stop offset="0" stop-color="#fff"/>
      <stop offset="0.232" stop-color="#fafafa"/>
      <stop offset="0.496" stop-color="#ededed"/>
      <stop offset="0.775" stop-color="#d6d6d6"/>
      <stop offset="1" stop-color="#bebebe"/>
    </linearGradient>
    <linearGradient id="linear-gradient-5" x1="678.205" y1="-1567.925" x2="691.208" y2="-1580.927" gradientTransform="matrix(0.369, 0, 0, -0.369, -218.643, -553.777)" gradientUnits="userSpaceOnUse">
      <stop offset="0" stop-color="#fff"/>
      <stop offset="0.221" stop-color="#f8f8f8"/>
      <stop offset="0.541" stop-color="#e5e5e5"/>
      <stop offset="0.92" stop-color="#c6c6c6"/>
      <stop offset="1" stop-color="#bebebe"/>
    </linearGradient>
  </defs>
  <g id="g884">
    <path id="path30" d="M1.5,43h45V10h-27L16.094,4.891A2,2,0,0,0,14.43,4H3.5a2,2,0,0,0-2,2Z" stroke="#4e4a48" stroke-miterlimit="10" fill="url(#linear-gradient)"/>
    <path id="path73" d="M26.763,17.753l-.032,12.791a4.625,4.625,0,0,1-2.545,3.792,12.9,12.9,0,0,1-12.368.006A4.675,4.675,0,0,1,9.236,30.5l.032-12.748" fill="url(#linear-gradient-2)"/>
    <path id="path75" d="M24.187,13.935c3.423,2.1,3.444,5.524.029,7.635a12.931,12.931,0,0,1-12.386.006c-3.434-2.11-3.452-5.532-.04-7.641A12.925,12.925,0,0,1,24.187,13.935Z" fill="url(#linear-gradient-3)"/>
    <path id="path77" d="M26.763,17.75a4.586,4.586,0,0,1-2.548,3.786,13.027,13.027,0,0,1-12.385.006,4.655,4.655,0,0,1-2.588-3.787" fill="none" stroke="#147391" stroke-miterlimit="10" stroke-width="0.704"/>
    <path id="path79" d="M26.763,17.753a4.661,4.661,0,0,0-2.577-3.818,12.925,12.925,0,0,0-12.4,0c-1.861,1.151-2.693,2.692-2.515,4.2L9.242,30.5a4.671,4.671,0,0,0,2.583,3.842,12.9,12.9,0,0,0,12.368-.006,4.629,4.629,0,0,0,2.544-3.792Z" fill="none" stroke="#464646" stroke-miterlimit="10" stroke-width="0.704"/>
    <path id="polygon35" d="M24.833,23.861V40.845H37.755V28.661l-4.8-4.8Z" stroke="#464646" stroke-miterlimit="6.111" stroke-width="0.669" fill="url(#linear-gradient-4)"/>
    <path id="polygon37" d="M37.755,28.661l-4.8-4.8v4.8Z" stroke="#464646" stroke-linejoin="round" stroke-width="0.669" fill="url(#linear-gradient-5)"/>
    <path id="rect39" d="M26.679,37.522H35.91V39H26.679Z" fill="none" stroke="#464646" stroke-miterlimit="10" stroke-width="0.569"/>
    <path id="rect41" d="M26.679,34.938H35.91v1.477H26.679Z" fill="none" stroke="#464646" stroke-miterlimit="10" stroke-width="0.569"/>
    <path id="rect43" d="M26.679,32.353H35.91V33.83H26.679Z" fill="none" stroke="#464646" stroke-miterlimit="10" stroke-width="0.569"/>
    <path id="rect45" d="M26.679,29.769H35.91v1.477H26.679Z" fill="none" stroke="#464646" stroke-miterlimit="10" stroke-width="0.569"/>
  </g>
</svg>
