<svg id="Layer_1" data-name="Layer 1" xmlns="http://www.w3.org/2000/svg" xmlns:xlink="http://www.w3.org/1999/xlink" viewBox="0 0 48 48">
  <defs>
    <linearGradient id="linear-gradient" x1="43.369" y1="806.283" x2="77.033" y2="839.947" gradientTransform="translate(-35.125 -697.368) scale(0.875 0.875)" gradientUnits="userSpaceOnUse">
      <stop offset="0" stop-color="#fff"/>
      <stop offset="0.221" stop-color="#f8f8f8"/>
      <stop offset="0.541" stop-color="#e5e5e5"/>
      <stop offset="0.92" stop-color="#c6c6c6"/>
      <stop offset="1" stop-color="#bebebe"/>
    </linearGradient>
    <linearGradient id="linear-gradient-2" x1="49.269" y1="791.45" x2="78.85" y2="818.954" gradientTransform="translate(-35.125 -697.368) scale(0.875 0.875)" gradientUnits="userSpaceOnUse">
      <stop offset="0" stop-color="#73b4c8"/>
      <stop offset="0.175" stop-color="#6aaec3"/>
      <stop offset="0.457" stop-color="#529eb5"/>
      <stop offset="0.809" stop-color="#2c839f"/>
      <stop offset="1" stop-color="#147391"/>
    </linearGradient>
    <linearGradient id="linear-gradient-3" x1="62.837" y1="-39.056" x2="78.804" y2="-19.342" gradientTransform="matrix(0.875, 0, 0, -0.875, -35.125, -2.632)" xlink:href="#linear-gradient-2"/>
    <linearGradient id="linear-gradient-4" x1="75.842" y1="-26.7" x2="81.57" y2="-19.357" gradientTransform="matrix(0.875, 0, 0, -0.875, -35.125, -2.632)" xlink:href="#linear-gradient-2"/>
    <linearGradient id="linear-gradient-5" x1="54.562" y1="803.004" x2="72.667" y2="791.004" gradientTransform="translate(-17.687 -710.869) scale(0.925)" xlink:href="#linear-gradient-2"/>
    <linearGradient id="linear-gradient-6" x1="23.198" y1="-758.879" x2="69.198" y2="-758.879" gradientTransform="matrix(0.926, 0, 0, -0.926, -17.427, -666.213)" xlink:href="#linear-gradient"/>
  </defs>
  <g id="g1017">
    <path id="path13" d="M.512,12.293V39.438a2.05,2.05,0,0,0,2.048,2.05H39.439a2.049,2.049,0,0,0,2.049-2.047V12.293Z" fill="url(#linear-gradient)"/>
    <path id="path26" d="M41.488,12.805V2.562A2.048,2.048,0,0,0,39.442.512H2.562a2.05,2.05,0,0,0-2.05,2.05h0V12.805Z" stroke="#147391" stroke-miterlimit="10" stroke-width="1.025" fill="url(#linear-gradient-2)"/>
    <path id="circle42" d="M14.854,6.125a1.537,1.537,0,0,1-1.537,1.537h0a1.536,1.536,0,0,1-1.536-1.537h0a1.536,1.536,0,0,1,1.536-1.536h0A1.537,1.537,0,0,1,14.854,6.125Z" fill="#fff" stroke="#147391" stroke-miterlimit="10" stroke-width="1.036"/>
    <path id="circle44" d="M14.854,6.146a1.537,1.537,0,0,1-1.537,1.537h0a1.536,1.536,0,0,1-1.536-1.537h0A1.536,1.536,0,0,1,13.317,4.61h0A1.537,1.537,0,0,1,14.854,6.146Z" fill="#fff" stroke="#147391" stroke-miterlimit="10" stroke-width="1.036"/>
    <path id="circle46" d="M30.219,6.146a1.536,1.536,0,0,1-1.536,1.537h0a1.537,1.537,0,0,1-1.537-1.537h0A1.537,1.537,0,0,1,28.683,4.61h0A1.536,1.536,0,0,1,30.219,6.146Z" fill="#fff" stroke="#147391" stroke-miterlimit="10" stroke-width="1.036"/>
    <path id="path48" d="M41.488,39.438V2.562A2.048,2.048,0,0,0,39.442.512H2.562A2.05,2.05,0,0,0,.512,2.56V39.438a2.05,2.05,0,0,0,2.048,2.05H39.439a2.049,2.049,0,0,0,2.049-2.047Z" fill="none" stroke="#464646" stroke-miterlimit="10" stroke-width="1.025"/>
    <path id="path836" d="M21.762,15.443a2.045,2.045,0,0,0-1.855,2.193h0a2.044,2.044,0,0,0,1.855,2.192h0a2.046,2.046,0,0,0,1.856-2.192A2.047,2.047,0,0,0,21.762,15.443Zm0,.675a1.382,1.382,0,0,1,1.181,1.518,1.382,1.382,0,0,1-1.181,1.518,1.382,1.382,0,0,1-1.181-1.518A1.382,1.382,0,0,1,21.762,16.118Z" fill="#464646"/>
    <path id="path864" d="M21.742,17.62h-.021l-.63.022-.558.049-.422.037-.4.071-.447.1-.411.133-.3.133-.316.158-.386.241-.338.291-.291.29-.262.4L16.741,20l-.114.319-.082.273-.106.457-.065.4-.05.354-.056.447-.039.4-.029.547-.023.358-.024.4-.018.385-.029.607-.048.559-.034.33L16,26.142l-.072.62a1.249,1.249,0,0,0-.022.184c0,.053-.052.32-.052.32l-.047.3-.088.406c0,.017-.063.277-.063.277l-.112.429-.077.316-.088.294-.069.2-.116.325-.106.291-.116.283-.128.281-.137.268-.133.27s-.136.218-.136.235a1.98,1.98,0,0,1-.093.184l-.167.283a1.519,1.519,0,0,0-.111.175,2.1,2.1,0,0,1-.138.2l-.239.358-.141.2L13.428,33l-.115.136-.137.175-.146.193-.131.2-.082.157,8.9.047h.041l8.9-.047-.082-.158-.132-.2-.146-.193-.137-.175L30.049,33l-.124-.154-.14-.2-.24-.358a2.094,2.094,0,0,1-.137-.2,1.745,1.745,0,0,0-.11-.181l-.16-.279c-.035-.059-.066-.121-.1-.183,0-.018-.136-.236-.136-.236l-.133-.269-.137-.269-.128-.281-.116-.282-.106-.292-.115-.324-.065-.2-.087-.294-.078-.316-.11-.428s-.06-.263-.064-.277-.088-.406-.088-.406l-.047-.3a3.1,3.1,0,0,1-.051-.32,1.4,1.4,0,0,0-.021-.183l-.072-.62-.022-.311-.034-.33-.048-.559-.029-.607-.017-.385-.026-.4-.021-.359-.03-.547-.039-.4-.056-.447-.051-.355-.063-.394-.108-.457-.081-.273L26.749,20l-.216-.459-.262-.4-.291-.289-.339-.291-.385-.241-.315-.158-.3-.133-.412-.133-.447-.1-.4-.072-.422-.036-.556-.049-.632-.022Z" stroke="#464646" stroke-width="0.672" fill="url(#linear-gradient-3)"/>
    <path id="path1095-7" d="M33.839,29.086l-.6.35a5.047,5.047,0,0,1,.291,7.132c-.093.1-.19.2-.291.292l.607.35a5.709,5.709,0,0,0,.049-8.074l-.049-.049Z" fill="#464646"/>
    <path id="path990-2-9-0" d="M32.616,29.791l-.628.364a3.7,3.7,0,0,1,0,5.985l.627.363a4.374,4.374,0,0,0,0-6.712Z" fill="#464646"/>
    <path id="path1095-7-4" d="M10.111,28.692l.6.35a5.047,5.047,0,0,0-.293,7.131c.094.1.191.2.293.293l-.607.35a5.708,5.708,0,0,1-.051-8.073l.051-.05Z" fill="#464646"/>
    <path id="path990-2-9-0-6" d="M11.334,29.4l.629.363a3.7,3.7,0,0,0-.006,5.986l-.627.362a4.371,4.371,0,0,1,0-6.711Z" fill="#464646"/>
    <path id="path850" d="M16.363,30.609l.87-.237.405-1.776.184-.949.143-1.012.148-1.435.058-.975.1-2.356.059-.48.088-.59.094-.359.088-.253.153-.31-.153.087-.2.161-.158.175-.105.169-.127.262-.094.243-.088.316-.087.395-.063.5-.069.511-.069.912-.073.943-.069.944-.095.912-.121.954-.122.73-.111.538-.121.458-.127.443-.153.525Z" fill="#fff"/>
    <path id="path1030" d="M31.238,34.279c0,.981-4.245,1.777-9.482,1.777s-9.482-.794-9.482-1.777S16.52,32.5,21.756,32.5,31.238,33.3,31.238,34.279Z" fill="#464646"/>
    <path id="path834" d="M30.158,34.364c0,.577-3.8,1.045-8.487,1.045h0c-4.688,0-8.488-.468-8.488-1.045h0c0-.577,3.8-1.05,8.488-1.05h0C26.357,33.314,30.158,33.783,30.158,34.364Z" fill="#b7b4b3"/>
    <path id="path818" d="M18.132,39.383a1.522,1.522,0,0,1-.759-.46,1.354,1.354,0,0,1-.383-.719,1.558,1.558,0,0,1,1.193-1.781.316.316,0,0,0,.188-.087c.012-.032.109-.558.214-1.173l.282-1.97c.466-.035.452.022,1.1.022a7.258,7.258,0,0,0-.372,1.451c-.057.328-.154.881-.216,1.232l-.113.639.263.226a1.448,1.448,0,0,1,.454,1.662,2.159,2.159,0,0,1-.244.438,1.813,1.813,0,0,1-.882.525,1.131,1.131,0,0,1-.727,0Z" stroke="#464646" stroke-linejoin="round" stroke-width="0.479" fill="url(#linear-gradient-4)"/>
    <path id="rect932" d="M1.007,33.782H6.125v1.024H1.007Z" fill="#6e6e6e"/>
    <path id="rect932-2" d="M1.011,26.612H7v1.026H1.011Z" fill="#6e6e6e"/>
    <path id="rect932-2-4" d="M1.025,19.429h12.1v1.025H1.025Z" fill="#6e6e6e"/>
    <path id="rect932-2-3" d="M30.625,19.437H40.981v1.025H30.625Z" fill="#6e6e6e"/>
    <path id="rect932-2-45" d="M34.973,26.6H40.98v1.025H34.973Z" fill="#6e6e6e"/>
    <path id="rect932-2-2" d="M36.558,33.792h4.42v1.025h-4.42Z" fill="#6e6e6e"/>
    <path id="rect932-2-2-3" d="M33.817,38.5v2.45H32.793V38.5Z" fill="#6e6e6e"/>
    <path id="rect932-2-2-3-7" d="M33.817,13.29V26.25H32.793V13.29Z" fill="#6e6e6e"/>
    <path id="rect932-2-2-3-5" d="M25.614,13.293V15.75H24.588V13.293Z" fill="#6e6e6e"/>
    <path id="rect932-2-2-3-9" d="M17.419,13.283V15.75H16.394V13.283Z" fill="#6e6e6e"/>
    <path id="rect932-2-2-3-0" d="M9.227,13.312V26.25H8.2V13.312Z" fill="#6e6e6e"/>
    <path id="rect932-2-2-3-5-9" d="M25.6,38.5v2.47H24.579V38.5Z" fill="#6e6e6e"/>
    <path id="rect932-2-2-3-5-9-7" d="M17.413,39.83v1.148H16.387V39.83Z" fill="#6e6e6e"/>
    <path id="rect932-2-2-3-5-9-77" d="M9.214,38.5v2.45H8.19V38.5Z" fill="#6e6e6e"/>
    <path id="path24" d="M35.51,35.51,46.9,31.631a12.022,12.022,0,0,0-17.925-6.215Z" fill="url(#linear-gradient-5)"/>
    <path id="path26-1" d="M35.51,35.51,28.974,25.417A12.027,12.027,0,1,0,46.9,31.632Z" fill="url(#linear-gradient-6)"/>
    <path id="polyline28" d="M46.9,31.629,35.51,35.51,28.972,25.416" fill="none" stroke="#147391" stroke-width="1.637"/>
    <path id="line32" d="M35.51,23.74v3.139" fill="none" stroke="#147391" stroke-width="0.925"/>
    <path id="line34" d="M35.51,44.137v3.139" fill="none" stroke="#6e6e6e" stroke-width="0.925"/>
    <path id="line36" d="M26.882,35.51H23.74" fill="none" stroke="#6e6e6e" stroke-width="0.925"/>
    <path id="line38" d="M47.277,35.51H44.139" fill="none" stroke="#6e6e6e" stroke-width="0.925"/>
    <path id="circle30" d="M47.537,35.51A12.026,12.026,0,0,1,35.51,47.537h0A12.027,12.027,0,1,1,47.537,35.51Z" fill="none" stroke="#464646" stroke-linecap="round" stroke-linejoin="round" stroke-width="0.925"/>
    <path id="polygon40" d="M42.3,32.3l.676,1.98-7.919,2.7L29.24,27.968,31,26.834l4.928,7.639Z" fill="#fff"/>
    <path id="path887" d="M31.745,32.667c-1.711-2.655-3.105-4.833-3.1-4.84.035-.031,2.193-1.427,2.331-1.507.083-.049.16-.079.17-.068s1.123,1.737,2.477,3.832,2.466,3.819,2.474,3.83,1.454-.471,3.209-1.071,3.211-1.089,3.241-1.089c.048,0,.991,2.763.955,2.8s-8.561,2.941-8.607,2.941C34.872,37.494,33.457,35.325,31.745,32.667Zm8.605,2.041c1.073-.365,1.972-.682,2-.7a3.254,3.254,0,0,0-.37-1.118c-.029,0-1.438.476-3.133,1.055a23.743,23.743,0,0,1-3.135,1c-.029-.029-1.127-1.721-2.44-3.758s-2.407-3.7-2.42-3.7a6.439,6.439,0,0,0-.967.642c0,.023,1.2,1.909,2.675,4.189l2.673,4.148,1.584-.54Z" fill="#464646"/>
  </g>
</svg>
