<svg id="Layer_1" data-name="Layer 1" xmlns="http://www.w3.org/2000/svg" xmlns:xlink="http://www.w3.org/1999/xlink" viewBox="0 0 48 48">
  <defs>
    <linearGradient id="linear-gradient" x1="21.202" y1="23.162" x2="65.116" y2="-20.753" gradientTransform="matrix(0.936, 0, 0, -0.936, -19.809, 23.128)" gradientUnits="userSpaceOnUse">
      <stop offset="0" stop-color="#f2f2f2"/>
      <stop offset="0.99" stop-color="#999"/>
    </linearGradient>
    <linearGradient id="linear-gradient-2" x1="28.409" y1="15.955" x2="57.909" y2="-13.545" gradientTransform="matrix(0.936, 0, 0, -0.936, -19.809, 23.128)" gradientUnits="userSpaceOnUse">
      <stop offset="0" stop-color="#fff"/>
      <stop offset="0.302" stop-color="#f8f8f8"/>
      <stop offset="0.737" stop-color="#e5e5e5"/>
      <stop offset="1" stop-color="#d6d6d6"/>
    </linearGradient>
    <linearGradient id="linear-gradient-3" x1="370.402" y1="-1184.248" x2="409.402" y2="-1223.248" gradientTransform="matrix(0.542, 0, 0, -0.539, -176.173, -611.164)" gradientUnits="userSpaceOnUse">
      <stop offset="0" stop-color="#fff"/>
      <stop offset="1" stop-color="#dcdcdc"/>
    </linearGradient>
  </defs>
  <g id="g993">
    <rect id="rect16" x="0.468" y="0.468" width="40.255" height="43.064" rx="0.936" fill="url(#linear-gradient)"/>
    <rect id="rect18" x="7.957" y="7.021" width="25.277" height="29.957" stroke="#147391" stroke-miterlimit="10" stroke-width="0.936" fill="url(#linear-gradient-2)"/>
    <polyline id="polyline20" points="0.468 6.085 4.213 6.085 4.213 10.766 0.468 10.766" fill="none" stroke="#6e6e6e" stroke-miterlimit="9.362" stroke-width="0.898"/>
    <polyline id="polyline22" points="0.468 36.043 4.213 36.043 4.213 40.723 0.468 40.723" fill="none" stroke="#6e6e6e" stroke-miterlimit="9.362" stroke-width="0.898"/>
    <rect id="rect24" x="2.34" y="19.191" width="1.872" height="12.17" fill="none" stroke="#6e6e6e" stroke-miterlimit="10" stroke-width="0.916"/>
    <polyline id="polyline26" points="40.723 10.766 36.979 10.766 36.979 6.085 40.723 6.085" fill="none" stroke="#6e6e6e" stroke-miterlimit="9.362" stroke-width="0.898"/>
    <rect id="rect30" x="36.979" y="19.191" width="1.872" height="12.17" fill="none" stroke="#6e6e6e" stroke-miterlimit="10" stroke-width="0.916"/>
    <polyline id="polyline32" points="9.362 2.34 6.085 2.34 6.085 41.66 9.362 41.66" fill="none" stroke="#8b8b8b" stroke-miterlimit="9.362" stroke-width="0.936"/>
    <polyline id="polyline34" points="31.874 2.34 35.15 2.34 35.15 41.66 31.874 41.66" fill="none" stroke="#8b8b8b" stroke-miterlimit="9.362" stroke-width="0.936"/>
    <polyline id="polyline36" points="27.617 7.021 27.617 8.894 29.489 8.894 29.489 9.83 31.362 9.83 31.362 11.702 33.234 11.702" fill="none" stroke="#147391" stroke-miterlimit="9.362" stroke-width="0.936"/>
    <polyline id="polyline38" points="7.957 34.17 10.766 34.17 10.766 36.979" fill="none" stroke="#147391" stroke-miterlimit="9.362" stroke-width="0.936"/>
    <polyline id="polyline40" points="7.957 26.681 10.766 26.681 10.766 31.362 12.638 31.362 12.638 32.298 14.511 32.298 14.511 34.17 19.191 34.17 19.191 36.979" fill="none" stroke="#147391" stroke-miterlimit="9.362" stroke-width="0.936"/>
    <polyline id="polyline42" points="10.766 7.021 10.766 8.894 12.638 8.894 12.638 9.83 14.511 9.83 14.511 11.702 19.191 11.702 19.191 16.383 21.064 16.383 21.064 17.319 22.936 17.319 22.936 19.191 27.617 19.191 27.617 23.872 29.489 23.872 29.489 24.809 31.362 24.809 31.362 26.681 33.234 26.681" fill="none" stroke="#147391" stroke-miterlimit="9.362" stroke-width="0.936"/>
    <polyline id="polyline44" points="19.191 7.021 19.191 8.894 21.064 8.894 21.064 9.83 22.936 9.83 22.936 11.702 27.617 11.702 27.617 16.383 29.489 16.383 29.489 17.319 31.362 17.319 31.362 19.191 33.234 19.191" fill="none" stroke="#147391" stroke-miterlimit="9.362" stroke-width="0.936"/>
    <polyline id="polyline46" points="7.957 19.191 10.766 19.191 10.766 23.872 12.638 23.872 12.638 24.809 14.511 24.809 14.511 26.681 19.191 26.681 19.191 31.362 21.064 31.362 21.064 32.298 22.936 32.298 22.936 34.17 27.617 34.17 27.617 36.979" fill="none" stroke="#147391" stroke-miterlimit="9.362" stroke-width="0.936"/>
    <polyline id="polyline48" points="7.957 11.702 10.766 11.702 10.766 16.383 12.638 16.383 12.638 17.319 14.511 17.319 14.511 19.191 19.191 19.191 19.191 23.872 21.064 23.872 21.064 24.809 22.936 24.809 22.936 26.681 27.617 26.681 27.617 31.362 29.489 31.362 29.489 32.298 31.362 32.298 31.362 34.17 33.234 34.17" fill="none" stroke="#147391" stroke-miterlimit="9.362" stroke-width="0.936"/>
    <rect id="rect50" x="0.468" y="0.468" width="40.255" height="43.064" rx="0.936" fill="none" stroke="#464646" stroke-miterlimit="10" stroke-width="0.936"/>
    <line id="line52" x1="16.383" y1="36.979" x2="16.383" y2="7.021" fill="none" stroke="#147391" stroke-miterlimit="10" stroke-width="0.936"/>
    <line id="line54" x1="24.809" y1="7.021" x2="24.809" y2="36.979" fill="none" stroke="#147391" stroke-miterlimit="10" stroke-width="0.936"/>
    <line id="line56" x1="7.957" y1="14.511" x2="33.234" y2="14.511" fill="none" stroke="#147391" stroke-miterlimit="10" stroke-width="0.936"/>
    <line id="line58" x1="33.234" y1="29.489" x2="7.957" y2="29.489" fill="none" stroke="#147391" stroke-miterlimit="10" stroke-width="0.936"/>
    <line id="line60" x1="7.957" y1="22" x2="33.234" y2="22" fill="none" stroke="#147391" stroke-miterlimit="10" stroke-width="0.936"/>
    <path id="rect9-5" d="M22.036,27.535l25.315.136V47.6l-25.315-.135Z" fill="url(#linear-gradient-3)"/>
    <path id="path11-0" d="M47.153,28.064v19.2H22.236v-19.2m25.458-.841h-26V47.806h26Z" fill="#6f6e6e" stroke="#6f6e6e" stroke-width="0.388"/>
    <g id="g1045">
      <path id="line15-6-1" d="M24.324,32.285H35.431" fill="none" stroke="#177491" stroke-miterlimit="10" stroke-width="0.433"/>
      <path id="line17-5-9" d="M24.324,34.32H31.9" fill="none" stroke="#177491" stroke-miterlimit="10" stroke-width="0.433"/>
      <path id="path21-5" d="M40.037,33.768l-1.362-1.793L37.3,33.242l2.72,3.713,4.757-6.516L43.42,29.205" fill="#0e7191"/>
      <path id="polygon23-2" d="M38.031,33.205l.5-.411,1.533,2.082,3.409-4.632.494.417-3.9,5.315Z" fill="#3b90b2"/>
      <path id="rect956-3-2" d="M24.379,41.322v3.849h3.849V41.322Zm.55.55h2.749v2.749H24.929Z" fill="#0e7191"/>
      <path id="path974-2-3" d="M25.479,42.422l1.649,1.649" fill="none" stroke="#0e7191" stroke-width="0.55"/>
      <path id="path974-6-0-5" d="M27.128,42.367l-1.649,1.649" fill="none" stroke="#177491" stroke-width="0.55"/>
      <path id="rect956-7-7-4" d="M35.376,41.322v3.849h3.849V41.322Zm.55.55h2.749v2.749H35.926Z" fill="#177491"/>
      <path id="rect1006-2-2" d="M29.878,41.322h3.848v3.849H29.878Z" fill="#177491"/>
      <path id="rect1026-6-9" d="M35.684,41.675H37.3v1.571h-1.62Z" fill="#0e7191"/>
      <path id="rect1026-5-3-4" d="M37.3,43.243h1.508v1.445H37.3Z" fill="#0e7191"/>
      <path id="rect956-7-4-5-0" d="M40.874,41.322v3.849h3.849V41.322Zm.55.55h2.749v2.749H41.424Z" fill="#177491"/>
      <path id="rect1026-1-6-9" d="M41.424,41.872h.55v.55h-.55Z" fill="#177491"/>
      <path id="rect1026-1-3-1-8" d="M42.524,41.872h.55v.55h-.55Z" fill="#177491"/>
      <path id="rect1026-1-2-0-8" d="M43.624,41.872h.549v.55h-.549Z" fill="#177491"/>
      <path id="rect1026-1-1-1-0" d="M41.974,42.422h.55v.55h-.55Z" fill="#177491"/>
      <path id="rect1026-1-3-6-38-4" d="M43.074,42.422h.55v.55h-.55Z" fill="#177491"/>
      <path id="rect1026-1-8-8-4" d="M41.424,42.972h.55v.549h-.55Z" fill="#177491"/>
      <path id="rect1026-1-3-7-2-7" d="M42.524,42.972h.55v.549h-.55Z" fill="#177491"/>
      <path id="rect1026-1-2-5-0-3" d="M43.624,42.972h.549v.549h-.549Z" fill="#177491"/>
      <path id="rect1026-1-1-8-8-0" d="M41.974,43.521h.55v.55h-.55Z" fill="#177491"/>
      <path id="rect1026-1-3-6-3-3-1" d="M43.074,43.521h.55v.55h-.55Z" fill="#177491"/>
      <path id="rect1026-1-36-4-0" d="M41.424,44.071h.55v.55h-.55Z" fill="#177491"/>
      <path id="rect1026-1-3-61-9-4" d="M42.524,44.071h.55v.55h-.55Z" fill="#177491"/>
      <path id="rect1026-1-2-3-1-8" d="M43.624,44.071h.549v.55h-.549Z" fill="#177491"/>
    </g>
  </g>
</svg>
