<svg id="Layer_1" data-name="Layer 1" xmlns="http://www.w3.org/2000/svg" xmlns:xlink="http://www.w3.org/1999/xlink" viewBox="0 0 48 48">
  <defs>
    <linearGradient id="linear-gradient" x1="14.796" y1="45.781" x2="26.986" y2="33.389" gradientTransform="matrix(1, 0, 0, -1, 0, 50)" gradientUnits="userSpaceOnUse">
      <stop offset="0" stop-color="#fff"/>
      <stop offset="1" stop-color="#bebebe"/>
    </linearGradient>
    <linearGradient id="linear-gradient-2" x1="8.058" y1="25.591" x2="30.75" y2="1.488" gradientTransform="matrix(1, 0, 0, -1, 0, 50)" gradientUnits="userSpaceOnUse">
      <stop offset="0" stop-color="#73b4c8"/>
      <stop offset="0.175" stop-color="#6aaec3"/>
      <stop offset="0.457" stop-color="#529eb5"/>
      <stop offset="0.809" stop-color="#2c839f"/>
      <stop offset="1" stop-color="#147391"/>
    </linearGradient>
    <linearGradient id="linear-gradient-3" x1="31.174" y1="775.817" x2="45.461" y2="793.478" gradientTransform="translate(0 -744)" gradientUnits="userSpaceOnUse">
      <stop offset="0" stop-color="#fff"/>
      <stop offset="0.221" stop-color="#f8f8f8"/>
      <stop offset="0.541" stop-color="#e5e5e5"/>
      <stop offset="0.92" stop-color="#c6c6c6"/>
      <stop offset="1" stop-color="#bebebe"/>
    </linearGradient>
    <linearGradient id="linear-gradient-4" x1="30.095" y1="21.129" x2="36.603" y2="15.739" xlink:href="#linear-gradient-2"/>
  </defs>
  <g id="g874">
    <path id="path7" d="M28.5,9.4c0,4.3-3.6,10.1-8,10.1s-8-5.8-8-10.1a8,8,0,0,1,16,0Z" stroke="#464646" stroke-miterlimit="10" fill="url(#linear-gradient)"/>
    <path id="path20" d="M35.5,47.5V31.3c0-3.8-2.4-7-6-8.8a15.416,15.416,0,0,1-18,0,9.872,9.872,0,0,0-6,8.8V47.5Z" stroke="#464646" stroke-miterlimit="10" fill="url(#linear-gradient-2)"/>
    <line id="line22" x1="11.5" y1="47" x2="11.5" y2="35" fill="none" stroke="#147391" stroke-linejoin="round"/>
    <line id="line24" x1="29.5" y1="47" x2="29.5" y2="35" fill="none" stroke="#147391" stroke-linejoin="round"/>
    <path id="path850" d="M19.5,25.863,17.962,41l2.588,1.5L23,41,21.5,25.837A10.138,10.138,0,0,1,19.5,25.863Z"/>
    <rect id="rect25" x="29.022" y="28.667" width="14.667" height="19.111" stroke="#464646" stroke-miterlimit="10" stroke-width="0.444" fill="url(#linear-gradient-3)"/>
    <polygon id="polygon27" points="30.356 28.222 35.244 28.222 35.244 34 32.8 31.556 30.356 34 30.356 28.222" stroke="#464646" stroke-miterlimit="4.444" stroke-width="0.444" fill="url(#linear-gradient-4)"/>
    <line id="line30" x1="36.356" y1="37.556" x2="42.133" y2="37.556" fill="none" stroke="#5a5a5a" stroke-miterlimit="10" stroke-width="0.444"/>
    <line id="line32" x1="36.356" y1="44.667" x2="42.133" y2="44.667" fill="none" stroke="#5a5a5a" stroke-miterlimit="10" stroke-width="0.444"/>
    <line id="line34" x1="36.356" y1="41.111" x2="39.466" y2="41.111" fill="none" stroke="#5a5a5a" stroke-miterlimit="10" stroke-width="0.444"/>
    <polyline id="polyline36" points="31.911 44.444 33.022 45.556 35.467 42.667" fill="none" stroke="#5a5a5a" stroke-linejoin="round" stroke-width="0.444"/>
    <polyline id="polyline38" points="31.911 40.889 33.022 42 35.467 39.111" fill="none" stroke="#5a5a5a" stroke-linejoin="round" stroke-width="0.444"/>
    <polyline id="polyline40" points="31.911 37.333 33.022 38.444 35.467 35.556" fill="none" stroke="#5a5a5a" stroke-linejoin="round" stroke-width="0.444"/>
  </g>
</svg>
