<svg id="Image" xmlns="http://www.w3.org/2000/svg" xmlns:xlink="http://www.w3.org/1999/xlink" viewBox="0 0 48 48">
  <defs>
    <linearGradient id="linear-gradient" x1="0.617" y1="45.724" x2="45.035" y2="7.306" gradientTransform="matrix(1, 0, 0, -1, 0, 52)" gradientUnits="userSpaceOnUse">
      <stop offset="0" stop-color="#fff"/>
      <stop offset="0.221" stop-color="#fbfbfc"/>
      <stop offset="0.541" stop-color="#ececec"/>
      <stop offset="0.92" stop-color="#d0cecd"/>
      <stop offset="1" stop-color="#c9c6c5"/>
    </linearGradient>
    <linearGradient id="linear-gradient-2" x1="132.725" y1="917.639" x2="171.725" y2="956.639" gradientTransform="translate(-78.813 -617.025) scale(0.688)" gradientUnits="userSpaceOnUse">
      <stop offset="0" stop-color="#fff"/>
      <stop offset="1" stop-color="#dcdcdc"/>
    </linearGradient>
  </defs>
  <path id="path35" d="M1.5,43h45V10h-27L16.094,4.891A2,2,0,0,0,14.43,4H3.5a2,2,0,0,0-2,2Z" fill="url(#linear-gradient)"/>
  <path id="path37" d="M47,43.5H1V6A2.5,2.5,0,0,1,3.5,3.5H14.43a2.493,2.493,0,0,1,2.08,1.114L19.768,9.5H47Zm-45-1H46v-32H19.232L15.678,5.168A1.5,1.5,0,0,0,14.43,4.5H3.5A1.5,1.5,0,0,0,2,6Z" fill="#4e4a48"/>
  <path id="rect9" d="M9.434,14.117l32.131.174V39.714L9.434,39.541Z" fill="url(#linear-gradient-2)"/>
  <path id="path11" d="M41.313,14.537v24.75H9.688V14.537M42,13.85H9V39.975H42Z" fill="#6f6e6e"/>
  <path id="line15" d="M12.438,19.694h13.75" fill="none" stroke="#177491" stroke-miterlimit="10" stroke-width="0.688"/>
  <path id="line17" d="M12.438,22.441h9.625" fill="none" stroke="#177491" stroke-miterlimit="10" stroke-width="0.693"/>
  <path id="rect956" d="M12.438,31.037V35.85H17.25V31.037Zm.687.688h3.438v3.437H13.125Z" fill="#0e7191"/>
  <path id="path974" d="M13.813,32.412l2.062,2.063" fill="none" stroke="#0e7191" stroke-width="0.688"/>
  <path id="path974-6" d="M15.875,32.344l-2.062,2.062" fill="none" stroke="#177491" stroke-width="0.688"/>
  <path id="rect956-7" d="M26.188,31.037V35.85H31V31.037Zm.687.688h3.438v3.437H26.875Z" fill="#177491"/>
  <path id="rect1006" d="M19.313,31.037h4.812V35.85H19.313Z" fill="#177491"/>
  <path id="rect1026" d="M26.573,31.48H28.6v1.964H26.573Z" fill="#0e7191"/>
  <path id="rect1026-5" d="M28.594,33.44h1.887v1.809H28.594Z" fill="#0e7191"/>
  <path id="rect956-7-4" d="M33.063,31.037V35.85h4.812V31.037Zm.687.688h3.438v3.437H33.75Z" fill="#177491"/>
  <path id="rect1026-1" d="M33.75,31.725h.688v.687H33.75Z" fill="#177491"/>
  <path id="rect1026-1-3" d="M35.125,31.725h.688v.687h-.688Z" fill="#177491"/>
  <path id="rect1026-1-2" d="M36.5,31.725h.688v.687H36.5Z" fill="#177491"/>
  <path id="rect1026-1-1" d="M34.438,32.412h.687V33.1h-.687Z" fill="#177491"/>
  <path id="rect1026-1-3-6" d="M35.813,32.412H36.5V33.1h-.687Z" fill="#177491"/>
  <path id="rect1026-1-8" d="M33.75,33.1h.688v.687H33.75Z" fill="#177491"/>
  <path id="rect1026-1-3-7" d="M35.125,33.1h.688v.687h-.688Z" fill="#177491"/>
  <path id="rect1026-1-2-5" d="M36.5,33.1h.688v.687H36.5Z" fill="#177491"/>
  <path id="rect1026-1-1-8" d="M34.438,33.787h.687v.688h-.687Z" fill="#177491"/>
  <path id="rect1026-1-3-6-3" d="M35.813,33.787H36.5v.688h-.687Z" fill="#177491"/>
  <path id="rect1026-1-36" d="M33.75,34.475h.688v.687H33.75Z" fill="#177491"/>
  <path id="rect1026-1-3-61" d="M35.125,34.475h.688v.687h-.688Z" fill="#177491"/>
  <path id="rect1026-1-2-3" d="M36.5,34.475h.688v.687H36.5Z" fill="#177491"/>
  <path id="path45" d="M33.06,24.8a.858.858,0,0,1-.858-.858v-.991a2.526,2.526,0,0,1,1.458-2.29,1.432,1.432,0,0,0-.333-2.708,1.587,1.587,0,0,0-.267-.023,1.412,1.412,0,0,0-.919.333,1.434,1.434,0,0,0-.512,1.1.859.859,0,0,1-1.718,0,3.149,3.149,0,0,1,3.149-3.149h0a3.148,3.148,0,0,1,1.317,6.008.806.806,0,0,0-.462.73v.992a.858.858,0,0,1-.859.858Z" fill="#3b90b2"/>
  <path id="path47" d="M33.064,16.5a2.9,2.9,0,0,1,.51.045,2.863,2.863,0,0,1,.687,5.417,1.091,1.091,0,0,0-.628.99v.992a.573.573,0,0,1-1.145,0v-.991a2.242,2.242,0,0,1,1.292-2.03,1.718,1.718,0,0,0-.4-3.25,1.964,1.964,0,0,0-.316-.028,1.718,1.718,0,0,0-1.717,1.718.573.573,0,0,1-1.145,0A2.862,2.862,0,0,1,33.06,16.5h0m0-.572h0a3.435,3.435,0,0,0-3.439,3.432v0a1.145,1.145,0,0,0,2.29,0,1.145,1.145,0,0,1,.41-.878,1.129,1.129,0,0,1,.735-.267,1.23,1.23,0,0,1,.219.019A1.145,1.145,0,0,1,33.54,20.4a2.817,2.817,0,0,0-1.625,2.55v.992a1.146,1.146,0,0,0,2.291,0v-.991a.514.514,0,0,1,.3-.471,3.433,3.433,0,0,0-1.438-6.554Z" fill="#147391"/>
  <path id="path49" d="M33.06,27.843a1.151,1.151,0,0,1-.813-.343,1.149,1.149,0,0,1,1.626-1.623,1.155,1.155,0,0,1-.813,1.966Z" fill="#3b90b2"/>
  <path id="path51" d="M33.063,25.839a.858.858,0,0,1,.607.24.872.872,0,1,1-1.246.026.859.859,0,0,1,.639-.266m0-.572a1.408,1.408,0,0,0-1.434,1.381v.045a1.442,1.442,0,1,0,1.457-1.426Z" fill="#147391"/>
</svg>
