<svg id="Image" xmlns="http://www.w3.org/2000/svg" xmlns:xlink="http://www.w3.org/1999/xlink" viewBox="0 0 48 48">
  <defs>
    <linearGradient id="linear-gradient" x1="9.698" y1="25.962" x2="38.302" y2="25.962" gradientTransform="matrix(1, 0, 0, -1, 0, 50)" gradientUnits="userSpaceOnUse">
      <stop offset="0" stop-color="#fff"/>
      <stop offset="1" stop-color="#dcdcdc"/>
    </linearGradient>
    <linearGradient id="linear-gradient-2" x1="6.5" y1="5.861" x2="41.5" y2="5.861" gradientTransform="matrix(1, 0, 0, -1, 0, 50)" gradientUnits="userSpaceOnUse">
      <stop offset="0" stop-color="#73b4c8"/>
      <stop offset="1" stop-color="#177492"/>
    </linearGradient>
    <linearGradient id="linear-gradient-3" y1="46.104" y2="46.104" xlink:href="#linear-gradient-2"/>
    <linearGradient id="linear-gradient-4" x1="23.992" y1="768.372" x2="36.626" y2="781.008" gradientTransform="translate(-0.135 -741.965)" gradientUnits="userSpaceOnUse">
      <stop offset="0" stop-color="#73b4c8"/>
      <stop offset="0.175" stop-color="#6aaec3"/>
      <stop offset="0.457" stop-color="#529eb5"/>
      <stop offset="0.809" stop-color="#2c839f"/>
      <stop offset="1" stop-color="#147391"/>
    </linearGradient>
  </defs>
  <g id="g871">
    <path id="path37" d="M30,21.762A18.318,18.318,0,0,0,38.3,7.675a1.284,1.284,0,0,0-1.217-1.347c-.025,0-.049,0-.074,0H10.98A1.276,1.276,0,0,0,9.7,7.6c0,.024,0,.048,0,.072a18.321,18.321,0,0,0,8.31,14.1,2.719,2.719,0,0,1,0,4.545A18.32,18.32,0,0,0,9.7,40.4a1.283,1.283,0,0,0,1.214,1.348c.025,0,.051,0,.076,0H37.013A1.284,1.284,0,0,0,38.3,40.471c0-.024,0-.047,0-.071A18.318,18.318,0,0,0,30,26.309a2.721,2.721,0,0,1,0-4.547Z" fill="url(#linear-gradient)"/>
    <path id="path39" d="M37.013,42.246H10.987a1.817,1.817,0,0,1-1.324-.578A1.721,1.721,0,0,1,9.2,40.36a18.917,18.917,0,0,1,8.536-14.471,2.22,2.22,0,0,0,0-3.706A18.925,18.925,0,0,1,9.2,7.7a1.721,1.721,0,0,1,.466-1.3,1.8,1.8,0,0,1,1.316-.574H37.013a1.813,1.813,0,0,1,1.323.577A1.722,1.722,0,0,1,38.8,7.711a18.926,18.926,0,0,1-8.536,14.472h0a2.219,2.219,0,0,0,0,3.706A18.917,18.917,0,0,1,38.8,40.36a1.72,1.72,0,0,1-.467,1.309A1.816,1.816,0,0,1,37.013,42.246ZM10.979,6.826a.8.8,0,0,0-.584.256.727.727,0,0,0-.2.55,17.912,17.912,0,0,0,8.082,13.711,3.221,3.221,0,0,1,0,5.386,17.909,17.909,0,0,0-8.081,13.7.727.727,0,0,0,.2.554.814.814,0,0,0,.591.259H37.013a.814.814,0,0,0,.591-.259.733.733,0,0,0,.2-.554,17.909,17.909,0,0,0-8.081-13.7,3.22,3.22,0,0,1,0-5.386A17.914,17.914,0,0,0,37.8,7.643a.737.737,0,0,0-.2-.556.813.813,0,0,0-.591-.258Z" fill="#bebdbd"/>
    <path id="rect43" d="M7.5,41.779h33a1,1,0,0,1,1,1V45.5a1,1,0,0,1-1,1H7.5a1,1,0,0,1-1-1V42.779A1,1,0,0,1,7.5,41.779Z" fill="url(#linear-gradient-2)"/>
    <path id="path45" d="M40.5,47H7.5A1.5,1.5,0,0,1,6,45.5V42.779a1.5,1.5,0,0,1,1.5-1.5h33a1.5,1.5,0,0,1,1.5,1.5V45.5A1.5,1.5,0,0,1,40.5,47Zm-33-4.721a.5.5,0,0,0-.5.5V45.5a.5.5,0,0,0,.5.5h33a.5.5,0,0,0,.5-.5V42.779a.5.5,0,0,0-.5-.5Z" fill="#177491"/>
    <path id="rect49" d="M7.5,1.5h33a1,1,0,0,1,1,1V5.292a1,1,0,0,1-1,1H7.5a1,1,0,0,1-1-1V2.5A1,1,0,0,1,7.5,1.5Z" stroke="#177491" stroke-miterlimit="10" fill="url(#linear-gradient-3)"/>
    <path id="path51" d="M20.265,47.535a4.9,4.9,0,0,1-3.5-8.326L30.491,27.247a.2.2,0,0,0,.064-.191c-.292-1.433-1.042-6.306,1.56-8.906a8.934,8.934,0,0,1,7.552-2.529.5.5,0,0,1,.427.564.5.5,0,0,1-.142.285L36.39,20.035a.2.2,0,0,0-.056.1l-.783,3.78a.2.2,0,0,0,.056.182L38.8,27.291a.2.2,0,0,0,.141.059l3.824-.788a.19.19,0,0,0,.1-.052l3.567-3.565a.5.5,0,0,1,.849.285,8.986,8.986,0,0,1-2.531,7.555,7.808,7.808,0,0,1-5.652,1.9,16.314,16.314,0,0,1-3.253-.346h-.02a.206.206,0,0,0-.172.063L23.765,46.055A4.913,4.913,0,0,1,20.265,47.535Zm.771-7.168a1.5,1.5,0,1,0,1.062.439A1.5,1.5,0,0,0,21.036,40.367Z" fill="url(#linear-gradient-4)"/>
    <path id="path53" d="M38.431,16.035a8.449,8.449,0,0,1,1.168.081l-3.562,3.563a.708.708,0,0,0-.191.353l-.781,3.781a.7.7,0,0,0,.191.638l3.194,3.193a.7.7,0,0,0,.494.206.662.662,0,0,0,.141-.015l3.78-.783a.7.7,0,0,0,.353-.191L46.782,23.3a8.426,8.426,0,0,1-2.388,7.137,7.331,7.331,0,0,1-5.3,1.758,15.828,15.828,0,0,1-3.152-.336.73.73,0,0,0-.14-.014.7.7,0,0,0-.53.24L23.389,45.726a4.4,4.4,0,0,1-6.274-6.167l13.7-11.938a.7.7,0,0,0,.226-.669c-.279-1.37-1-6.026,1.423-8.452a8.378,8.378,0,0,1,5.968-2.465m-17.4,27.833a2,2,0,0,0,1.414-.585h0a2,2,0,0,0-2.831-2.828h0a2,2,0,0,0,1.415,3.413m17.4-28.833a9.37,9.37,0,0,0-6.67,2.763c-2.68,2.679-2.05,7.509-1.729,9.187L16.459,38.808q-.025.023-.051.048A5.4,5.4,0,0,0,24.1,46.435c.016-.016.032-.033.047-.05L35.914,32.867a16.673,16.673,0,0,0,3.182.322,8.277,8.277,0,0,0,6-2.054,9.485,9.485,0,0,0,2.673-7.978,1,1,0,0,0-1.7-.569l-3.5,3.5-3.536.732-2.96-2.965.733-3.536,3.5-3.5a1,1,0,0,0-.569-1.7A9.5,9.5,0,0,0,38.431,15.035Zm-17.4,27.833a1,1,0,1,1,.708-.293A1,1,0,0,1,21.031,42.868Z" fill="#464646"/>
  </g>
</svg>
