<svg id="svg68" xmlns="http://www.w3.org/2000/svg" xmlns:xlink="http://www.w3.org/1999/xlink" viewBox="0 0 48 48">
  <defs>
    <linearGradient id="linear-gradient" x1="4.997" y1="-699.003" x2="43.997" y2="-738.003" gradientTransform="matrix(1, 0, 0, -1, 0, -694)" gradientUnits="userSpaceOnUse">
      <stop offset="0" stop-color="#fff"/>
      <stop offset="1" stop-color="#dcdcdc"/>
    </linearGradient>
  </defs>
  <g id="g882">
    <path id="rect9" d="M.632,5.389l46.736.253V42.621L.632,42.369Z" fill="url(#linear-gradient)"/>
    <path id="path11" d="M47,6V42H1V6M48,5H0V43H48Z" fill="#6f6e6e"/>
    <path id="line15" d="M5,13.5H25" fill="none" stroke="#177491" stroke-miterlimit="10"/>
    <path id="line17" d="M5,17.5H19" fill="none" stroke="#177491" stroke-miterlimit="10" stroke-width="1.008"/>
    <path id="rect956" d="M5,30v7h7V30Zm1,1h5v5H6Z" fill="#0e7191"/>
    <path id="path974" d="M7,32l3,3" fill="none" stroke="#0e7191"/>
    <path id="path974-6" d="M10,31.9l-3,3" fill="none" stroke="#177491"/>
    <path id="rect956-7" d="M25,30v7h7V30Zm1,1h5v5H26Z" fill="#177491"/>
    <path id="rect1006" d="M15,30h7v7H15Z" fill="#177491"/>
    <path id="rect1026" d="M25.56,30.643h2.947V33.5H25.56Z" fill="#0e7191"/>
    <path id="rect1026-5" d="M28.5,33.494h2.745v2.632H28.5Z" fill="#0e7191"/>
    <path id="rect956-7-4" d="M35,30v7h7V30Zm1,1h5v5H36Z" fill="#177491"/>
    <path id="rect1026-1" d="M36,31h1v1H36Z" fill="#177491"/>
    <path id="rect1026-1-3" d="M38,31h1v1H38Z" fill="#177491"/>
    <path id="rect1026-1-2" d="M40,31h1v1H40Z" fill="#177491"/>
    <path id="rect1026-1-1" d="M37,32h1v1H37Z" fill="#177491"/>
    <path id="rect1026-1-3-6" d="M39,32h1v1H39Z" fill="#177491"/>
    <path id="rect1026-1-8" d="M36,33h1v1H36Z" fill="#177491"/>
    <path id="rect1026-1-3-7" d="M38,33h1v1H38Z" fill="#177491"/>
    <path id="rect1026-1-2-5" d="M40,33h1v1H40Z" fill="#177491"/>
    <path id="rect1026-1-1-8" d="M37,34h1v1H37Z" fill="#177491"/>
    <path id="rect1026-1-3-6-3" d="M39,34h1v1H39Z" fill="#177491"/>
    <path id="rect1026-1-36" d="M36,35h1v1H36Z" fill="#177491"/>
    <path id="rect1026-1-3-61" d="M38,35h1v1H38Z" fill="#177491"/>
    <path id="rect1026-1-2-3" d="M40,35h1v1H40Z" fill="#177491"/>
    <path id="polygon87" d="M39.476,16.6l-10.9-.08-.023,2.942,10.9.081L37,22.5l2.3,1.8L44.382,18,39.3,11.7l-2.241,1.815Z" fill="#3b90b2" stroke="#147391" stroke-miterlimit="4.103" stroke-width="1.026"/>
  </g>
</svg>
