<svg id="svg2" xmlns="http://www.w3.org/2000/svg" xmlns:xlink="http://www.w3.org/1999/xlink" viewBox="0 0 48 48">
  <defs>
    <linearGradient id="linear-gradient" x1="66.001" y1="800.449" x2="36.247" y2="786.055" gradientTransform="matrix(0.867, -0.059, 0, 0.923, -23.051, -708.208)" gradientUnits="userSpaceOnUse">
      <stop offset="0" stop-color="#b1b1b1"/>
      <stop offset="0.26" stop-color="#acacac"/>
      <stop offset="0.567" stop-color="#9e9e9e"/>
      <stop offset="0.897" stop-color="#868686"/>
      <stop offset="1" stop-color="#7d7d7d"/>
    </linearGradient>
    <linearGradient id="linear-gradient-2" x1="32.508" y1="788.038" x2="45.656" y2="801.241" gradientTransform="matrix(0.867, -0.059, 0, 0.923, -23.051, -708.208)" gradientUnits="userSpaceOnUse">
      <stop offset="0" stop-color="#fff"/>
      <stop offset="1" stop-color="#bebdbd"/>
    </linearGradient>
    <linearGradient id="linear-gradient-3" x1="61.003" y1="811.085" x2="62.365" y2="811.399" gradientTransform="matrix(0.867, -0.059, 0, 0.923, -23.051, -708.208)" gradientUnits="userSpaceOnUse">
      <stop offset="0" stop-color="#bebdbd"/>
      <stop offset="1" stop-color="#979797"/>
    </linearGradient>
    <linearGradient id="linear-gradient-4" x1="53.406" y1="-59.888" x2="80.092" y2="-45.888" gradientTransform="matrix(0.833, 0, 0, -0.833, -40.885, -13.479)" xlink:href="#linear-gradient-2"/>
    <linearGradient id="linear-gradient-5" x1="-61.567" y1="895.548" x2="-58.637" y2="901.04" gradientTransform="matrix(0.823, 0.389, 0.129, 0.568, -48.7, -455.499)" gradientUnits="userSpaceOnUse">
      <stop offset="0" stop-color="#cde6eb"/>
      <stop offset="0.221" stop-color="#c6e2e8"/>
      <stop offset="0.542" stop-color="#b3d8e1"/>
      <stop offset="0.921" stop-color="#93c7d5"/>
      <stop offset="1" stop-color="#8cc3d2"/>
    </linearGradient>
  </defs>
  <g id="g1251">
    <path id="path1405" d="M29.657,33.241c-.316-.131-5.287-2.35-11.045-4.931C7.618,23.382,7.645,23.393,7.645,22.876a.741.741,0,0,1,.294-.621c.314-.2,13.012-5.39,13.591-5.554a4.723,4.723,0,0,1,1.25-.183c.59,0,1.144.167,10.584,3.174,5.48,1.75,10.07,3.227,10.2,3.289.794.374.676.75-.476,1.5-.282.184-2.912,2.136-5.843,4.333s-5.529,4.123-5.772,4.274A1.7,1.7,0,0,1,29.657,33.241Z" stroke="#464646" stroke-linecap="square" stroke-width="0.016" fill="url(#linear-gradient)"/>
    <path id="path1594" d="M26.011,37.712c-3.842-1.828-10.173-4.859-14.834-7.1-2.076-1-2.1-1.015-2.5-1.513l-.406-.5-.546-2.167c-.3-1.193-.566-2.236-.591-2.32-.035-.112.936.3,3.511,1.52,1.955.921,7.242,3.407,11.751,5.522L30.584,35l-.051,2.209c-.044,1.873-.07,2.226-.173,2.319a.443.443,0,0,1-.2.115C30.113,39.643,28.247,38.775,26.011,37.712Z" stroke="#46fd46" stroke-linecap="square" stroke-width="0.001" fill="url(#linear-gradient-2)"/>
    <path id="path1564" d="M43.142,29.358,44.336,25,31.077,34.715l-.562.211-.083,4.6Z" fill="#979797"/>
    <path id="rect1687" d="M30.277,34.588l-.066.314L29.2,39.681l1.159.176,1.075-5.092Z" fill="url(#linear-gradient-3)"/>
    <path id="rect1314-4-0" d="M22.126,21.5a5.311,5.311,0,0,0-1.641.463l-8.864,4.25.44.311,8.515-4.061a4.277,4.277,0,0,1,2.923-.417l16.579,6.038.466-.371L23.767,21.629A3.663,3.663,0,0,0,22.126,21.5ZM8.433,27.8c-.642.6-.2,1.778.556,2.141l20.585,9.951c.9.437,1.879-.574,2.719-1.25l9.137-7.32c.767-.615,2.5-1.893,1.417-2.7l-.226.742-.03-.014c-.038.479-.994,1.053-1.644,1.707l-8.824,7c-.786.634-1.651,1.6-2.5,1.189L9.383,29.467a1.19,1.19,0,0,1-.69-.722.6.6,0,0,1-.024-.083Z" fill="#464646"/>
    <path id="path1675" d="M8.381,28.616,7.048,23.932" fill="none" stroke="#464646" stroke-width="0.537"/>
    <path id="path1677" d="M43.768,24.9v.01l-1.176,4.478.577.037,1.206-4.462v-.1Z" fill="#464646"/>
    <path id="path1371" d="M29.5,34.326c-.105-.036-4.583-2.2-10.909-5.139L7.062,23.823l-.282-.241a.857.857,0,0,1-.138-1.205.839.839,0,0,1,.207-.187c.167-.116,13.533-5.723,14.144-5.936a5.517,5.517,0,0,1,2.273-.327c.327.051,21.542,6.6,21.8,6.732.313.155.609.44.609.632,0,.278-.278.584-1.065,1.11-.4.27-11.217,8.474-12.656,9.6-.678.529-.917.623-1.236.642a2.129,2.129,0,0,1-.577-.083Zm1.45-.942a5.042,5.042,0,0,0,1.12-.642c.18-.132,2.647-1.839,5.483-3.969s5.215-4,5.472-4.172c.852-.566,1.124-.85,1.125-1.166,0-.2-.2-.408-.584-.578C43.275,22.724,23.8,16.58,23.424,16.5a4.011,4.011,0,0,0-2.064.207c-.642.211-12.851,5.25-13.078,5.4a.761.761,0,0,0-.389.688c0,.437.3.784.941,1.083,1.12.519,21.1,9.544,21.21,9.573A2.524,2.524,0,0,0,30.952,33.384Z" stroke="#464646" stroke-linecap="square" stroke-width="0.008" fill="url(#linear-gradient-4)"/>
    <path id="rect1314-4" d="M23.825,16.433a4.436,4.436,0,0,0-3.1.34L8.246,21.979c-1.038.433-.8,1.429.179,1.869l21.418,9.6c.984.44,1.793-.2,2.715-.881l10.111-7.54c.946-.705,2.744-1.716.715-2.362Zm-.287.325,19.555,6.284c1.521.489-.106,1.222-.839,1.773L32.226,32.349c-1.178.885-1.382,1.088-2.653.514L9.01,23.582c-.917-.416-1.487-.872-.516-1.28L20.925,17.09A3.451,3.451,0,0,1,23.538,16.758Z" fill="#464646"/>
    <path id="rect1314" d="M23.894,15.647a5.95,5.95,0,0,0-3.672.507L6.79,21.781A1.39,1.39,0,0,0,6.8,24.3l23.033,10.58c1.031.473,1.625.065,2.583-.673l11.724-9.009c.992-.762,3.084-2.233.893-2.917Zm-.22.5,20.848,6.417c1.964.6-.323,2.022-.6,2.232L32.131,33.705c-.906.684-1.217,1.094-2.116.676L7.389,23.888c-.964-.447-1.167-1.344-.144-1.774l13.105-5.5a4.988,4.988,0,0,1,3.324-.467Z" fill="#464646"/>
    <path id="rect967" d="M13.563,28.072l9.269,4.384.7,3.095-9.269-4.385Z" fill="url(#linear-gradient-5)"/>
    <path id="rect13" d="M22.838,32.1l.083.26,1.3,3.983L14.294,31.46l-1.3-3.992Zm-.321.277L13.65,28.227l.965,2.955,8.95,4.4Z" fill="#464646"/>
    <path id="rect1108" d="M14.6,28.965l-.126.008a.015.015,0,0,0-.009.02l.654,2.179c0,.011.013.032.009.02l.127-.008c.031,0,.008-.02.008-.02l-.654-2.179a.038.038,0,0,1-.009-.02Z" fill="#464646"/>
    <path id="rect1108-6" d="M15.367,29.337l-.282.007c-.011,0-.023.01-.02.021l.616,2.091a.021.021,0,0,0,.02.02l.283-.007.02-.021-.616-2.091C15.385,29.346,15.378,29.337,15.367,29.337Z" fill="#464646"/>
    <path id="rect1108-4" d="M15.646,29.465l-.126.008a.015.015,0,0,0-.009.02l.654,2.179c0,.011.013.032.01.02l.126-.008c.03,0,.009-.02.009-.02l-.655-2.179c0-.011,0-.021-.009-.02Z" fill="#464646"/>
    <path id="rect1108-4-4" d="M15.933,29.631l-.126.007c-.005,0-.012.01-.009.021l.654,2.179c0,.01.014.032.01.019l.126-.007c.031,0,.009-.021.009-.021l-.655-2.179c0-.01,0-.02-.009-.019Z" fill="#464646"/>
    <path id="rect1108-4-9" d="M16.329,29.824l-.126.007a.017.017,0,0,0-.009.021l.654,2.178c0,.011.014.034.009.02l.127-.007c.031,0,.008-.021.008-.021l-.654-2.178c0-.011,0-.02-.009-.02Z" fill="#464646"/>
    <path id="rect1108-4-4-7" d="M17.9,30.554l-.127.007a.018.018,0,0,0-.008.021l.654,2.178c0,.011.014.034.009.02l.127-.007c.031,0,.008-.021.008-.021L17.9,30.574c0-.011,0-.02-.009-.02Z" fill="#464646"/>
    <path id="rect1108-4-9-7" d="M18.314,30.779l-.127.008c-.005,0-.011.01-.009.021l.655,2.178c0,.011.014.034.01.02L18.968,33c.032,0,.01-.021.01-.021L18.323,30.8c0-.01,0-.02-.009-.02Z" fill="#464646"/>
    <path id="rect1108-4-8" d="M18.738,30.971l-.126.008s-.012.01-.009.02l.655,2.179c0,.01.013.032.009.019l.126-.007c.031,0,.009-.02.009-.02l-.654-2.18c0-.01-.005-.02-.01-.019Z" fill="#464646"/>
    <path id="rect1108-4-8-9" d="M19.308,31.249l-.127.008c-.005,0-.012.01-.008.021l.654,2.178c0,.01.013.033.009.019l.127-.007c.03,0,.008-.021.008-.021l-.654-2.178C19.313,31.258,19.313,31.249,19.308,31.249Z" fill="#464646"/>
    <path id="rect1108-4-4-6-6" d="M19.663,31.44l-.126.008s-.013.01-.009.021l.654,2.178c0,.01.013.033.009.02l.127-.007c.03,0,.008-.021.008-.021l-.654-2.18c0-.01,0-.02-.009-.019Z" fill="#464646"/>
    <path id="rect1108-4-9-6" d="M20.657,31.926l-.127.008c-.005,0-.012.01-.008.02l.654,2.179c0,.011.013.033.009.02l.126-.008c.032,0,.009-.02.009-.02l-.654-2.179c0-.011,0-.02-.009-.02Z" fill="#464646"/>
    <path id="rect1108-6-9" d="M16.933,30.078l-.282.007c-.012,0-.024.01-.02.021l.616,2.091a.019.019,0,0,0,.02.019l.283-.007.019-.021-.615-2.09c-.006-.011-.012-.02-.021-.02Z" fill="#464646"/>
    <path id="rect1108-6-7" d="M17.464,30.344l-.282.008c-.011,0-.023.01-.02.021l.615,2.091a.021.021,0,0,0,.021.02l.283-.008.02-.021-.616-2.091c0-.01-.009-.02-.021-.02Z" fill="#464646"/>
    <path id="rect1108-6-7-7" d="M20.267,31.725l-.283.007c-.011,0-.023.01-.02.021l.616,2.091a.02.02,0,0,0,.021.02l.282-.008.02-.021-.615-2.09c-.006-.011-.013-.02-.021-.02Z" fill="#464646"/>
    <path id="rect1108-6-7-4" d="M21.274,32.233l-.283.007c-.012,0-.023.01-.02.021l.616,2.09a.02.02,0,0,0,.021.02l.282-.007.019-.021-.615-2.093A.024.024,0,0,0,21.274,32.233Z" fill="#464646"/>
    <path id="rect1108-6-7-2" d="M21.865,32.493l-.281.007c-.012,0-.024.01-.02.02l.615,2.091a.022.022,0,0,0,.021.02l.283-.007L22.5,34.6l-.616-2.091a.022.022,0,0,0-.021-.019Z" fill="#464646"/>
    <path id="path967" d="M27.146,44.045,3,32.036,2.948,13" fill="none" stroke="#147391"/>
    <path id="path975" d="M3,9.911l-.892,1.545L1.217,13H4.783l-.891-1.544Z" fill="#147391"/>
    <path id="path975-7" d="M29.9,45.446l-1.007-1.472L27.886,42.5l-.772,1.608-.771,1.608,1.778-.136Z" fill="#147391"/>
    <g id="text994">
      <path id="path1211" d="M5.924,2.184,3.78,5.75V8H2.28V5.82L.1,2.184H1.8l1.258,2.25,1.215-2.25Z" fill="#147391"/>
    </g>
    <g id="text994-0">
      <path id="path1208" d="M36.722,47.9H34.987l-1.253-1.914L32.456,47.9H30.8l2.062-2.93-2.019-2.886h1.73L33.784,43.9l1.246-1.812h1.661l-2.032,2.828Z" fill="#147391"/>
    </g>
  </g>
</svg>
