<svg id="Layer_1" data-name="Layer 1" xmlns="http://www.w3.org/2000/svg" xmlns:xlink="http://www.w3.org/1999/xlink" viewBox="0 0 48 48">
  <defs>
    <linearGradient id="linear-gradient" x1="3.5" y1="-1276.5" x2="45" y2="-1318" gradientTransform="matrix(1, 0, 0, -1, 0, -1270)" gradientUnits="userSpaceOnUse">
      <stop offset="0" stop-color="#fff"/>
      <stop offset="0.232" stop-color="#fafafa"/>
      <stop offset="0.496" stop-color="#ededed"/>
      <stop offset="0.775" stop-color="#d6d6d6"/>
      <stop offset="1" stop-color="#bebebe"/>
    </linearGradient>
    <linearGradient id="linear-gradient-2" x1="29.25" y1="-1273.75" x2="42.25" y2="-1286.75" gradientTransform="matrix(1, 0, 0, -1, 0, -1270)" gradientUnits="userSpaceOnUse">
      <stop offset="0" stop-color="#fff"/>
      <stop offset="0.221" stop-color="#f8f8f8"/>
      <stop offset="0.541" stop-color="#e5e5e5"/>
      <stop offset="0.92" stop-color="#c6c6c6"/>
      <stop offset="1" stop-color="#bebebe"/>
    </linearGradient>
    <linearGradient id="linear-gradient-3" x1="3.75" y1="744.25" x2="26.25" y2="766.75" gradientTransform="translate(0 -744)" gradientUnits="userSpaceOnUse">
      <stop offset="0" stop-color="#73b4c8"/>
      <stop offset="0.175" stop-color="#6aaec3"/>
      <stop offset="0.457" stop-color="#529eb5"/>
      <stop offset="0.809" stop-color="#2c839f"/>
      <stop offset="1" stop-color="#147391"/>
    </linearGradient>
  </defs>
  <g id="g962">
    <path id="polygon13" d="M32.5.5H9.5v47h36v-34Z" stroke="#464646" stroke-miterlimit="10" fill="url(#linear-gradient)"/>
    <path id="polygon26" d="M32.5.5v13h13Z" stroke="#464646" stroke-linejoin="round" fill="url(#linear-gradient-2)"/>
    <path id="line28" d="M15,34.5H40" fill="none" stroke="#5a5a5a"/>
    <path id="line30" d="M15,28.5H40" fill="none" stroke="#5a5a5a"/>
    <path id="line32" d="M15,40.5H40" fill="none" stroke="#5a5a5a"/>
    <path id="rect45" d="M.5,3.5h29v16H.5Z" stroke="#464646" stroke-miterlimit="10" fill="url(#linear-gradient-3)"/>
    <path id="path872" d="M6.531,13.943a.554.554,0,0,1-.328-.325,2.727,2.727,0,0,1-.035-.865,2.276,2.276,0,0,1,.259-1.369,2.172,2.172,0,0,1,1-.97A1.727,1.727,0,0,0,8.451,8.826,1.7,1.7,0,0,0,6.8,7.094a1.58,1.58,0,0,0-.875.188,1.75,1.75,0,0,0-.937,1.474.645.645,0,0,1-.327.57.736.736,0,0,1-.471,0,.646.646,0,0,1-.313-.371,2.509,2.509,0,0,1,.161-1.128,2.809,2.809,0,0,1,.735-1.093,2.849,2.849,0,0,1,4.543.888A2.546,2.546,0,0,1,9.573,8.7a2.749,2.749,0,0,1-.779,2.084,2.924,2.924,0,0,1-.82.615,1.146,1.146,0,0,0-.67.85,6.339,6.339,0,0,0-.032.736,3.967,3.967,0,0,1-.031.645.631.631,0,0,1-.51.358A.737.737,0,0,1,6.531,13.943Z" fill="#fff" stroke="#fff" stroke-width="0.669"/>
    <path id="path874" d="M6.5,17.106a.94.94,0,0,1-.576-.484,1,1,0,0,1,0-.738.887.887,0,0,1,1.586-.035.714.714,0,0,1,.072.4.753.753,0,0,1-.259.649A.908.908,0,0,1,6.5,17.106Z" fill="#fff" stroke="#fff" stroke-width="0.669"/>
    <path id="path872-7" d="M14.508,13.943a.554.554,0,0,1-.328-.325,2.727,2.727,0,0,1-.035-.865,2.276,2.276,0,0,1,.259-1.369,2.172,2.172,0,0,1,1-.97,1.727,1.727,0,0,0,1.025-1.588,1.7,1.7,0,0,0-1.647-1.732,1.58,1.58,0,0,0-.875.188,1.75,1.75,0,0,0-.937,1.474.645.645,0,0,1-.327.57.736.736,0,0,1-.471,0,.646.646,0,0,1-.313-.371,2.509,2.509,0,0,1,.161-1.128,2.809,2.809,0,0,1,.735-1.093,2.849,2.849,0,0,1,4.543.888A2.546,2.546,0,0,1,17.55,8.7a2.749,2.749,0,0,1-.779,2.084,2.924,2.924,0,0,1-.82.615,1.146,1.146,0,0,0-.67.85,6.339,6.339,0,0,0-.032.736,3.967,3.967,0,0,1-.031.645.631.631,0,0,1-.51.358A.737.737,0,0,1,14.508,13.943Z" fill="#fff" stroke="#fff" stroke-width="0.669"/>
    <path id="path874-2" d="M14.474,17.106a.94.94,0,0,1-.576-.484,1,1,0,0,1,0-.738.887.887,0,0,1,1.586-.035.714.714,0,0,1,.072.4.753.753,0,0,1-.259.649A.908.908,0,0,1,14.474,17.106Z" fill="#fff" stroke="#fff" stroke-width="0.669"/>
    <path id="path872-6" d="M22.412,13.943a.554.554,0,0,1-.328-.325,2.727,2.727,0,0,1-.035-.865,2.276,2.276,0,0,1,.259-1.369,2.172,2.172,0,0,1,1-.97,1.727,1.727,0,0,0,1.025-1.588,1.7,1.7,0,0,0-1.647-1.732,1.58,1.58,0,0,0-.875.188,1.75,1.75,0,0,0-.937,1.474.645.645,0,0,1-.327.57.736.736,0,0,1-.471,0,.646.646,0,0,1-.313-.371,2.509,2.509,0,0,1,.161-1.128,2.809,2.809,0,0,1,.735-1.093,2.849,2.849,0,0,1,4.543.888A2.561,2.561,0,0,1,25.454,8.7a2.753,2.753,0,0,1-.779,2.084,2.915,2.915,0,0,1-.821.615,1.145,1.145,0,0,0-.669.85,6.339,6.339,0,0,0-.032.736,3.967,3.967,0,0,1-.031.645.631.631,0,0,1-.51.358A.737.737,0,0,1,22.412,13.943Z" fill="#fff" stroke="#fff" stroke-width="0.669"/>
    <path id="path874-0" d="M22.378,17.106a.94.94,0,0,1-.576-.484,1,1,0,0,1,0-.738.887.887,0,0,1,1.586-.035.714.714,0,0,1,.072.4.753.753,0,0,1-.259.649A.908.908,0,0,1,22.378,17.106Z" fill="#fff" stroke="#fff" stroke-width="0.669"/>
  </g>
</svg>
