<svg id="Livello_2" data-name="Livello 2" xmlns="http://www.w3.org/2000/svg" xmlns:xlink="http://www.w3.org/1999/xlink" viewBox="0 0 48 48">
  <defs>
    <linearGradient id="linear-gradient" x1="0.054" y1="46.709" x2="45.351" y2="5.151" gradientTransform="matrix(1, 0, 0, -1, 0, 52)" gradientUnits="userSpaceOnUse">
      <stop offset="0" stop-color="#fff"/>
      <stop offset="0.221" stop-color="#fbfbfc"/>
      <stop offset="0.541" stop-color="#ececec"/>
      <stop offset="0.92" stop-color="#d0cecd"/>
      <stop offset="1" stop-color="#c9c6c5"/>
    </linearGradient>
    <linearGradient id="linear-gradient-2" x1="176.457" y1="-181.819" x2="220.371" y2="-225.733" gradientTransform="matrix(0.617, 0, 0, -0.617, -97.851, -98.234)" gradientUnits="userSpaceOnUse">
      <stop offset="0" stop-color="#f2f2f2"/>
      <stop offset="0.99" stop-color="#999"/>
    </linearGradient>
    <linearGradient id="linear-gradient-3" x1="183.664" y1="-189.026" x2="213.164" y2="-218.526" gradientTransform="matrix(0.617, 0, 0, -0.617, -97.851, -98.234)" gradientUnits="userSpaceOnUse">
      <stop offset="0" stop-color="#fff"/>
      <stop offset="0.302" stop-color="#f8f8f8"/>
      <stop offset="0.737" stop-color="#e5e5e5"/>
      <stop offset="1" stop-color="#d6d6d6"/>
    </linearGradient>
  </defs>
  <g id="g880">
    <g id="g39">
      <path id="path35" d="M.522,44.478H47.478V10.043H19.3L15.75,4.712a2.087,2.087,0,0,0-1.736-.929H2.609A2.087,2.087,0,0,0,.522,5.87h0Z" fill="url(#linear-gradient)"/>
      <path id="path37" d="M48,45H0V5.87A2.609,2.609,0,0,1,2.609,3.261H14.014a2.6,2.6,0,0,1,2.17,1.162l3.4,5.1H48ZM1.043,43.957H46.957V10.565H19.025L15.316,5a1.566,1.566,0,0,0-1.3-.7H2.609A1.566,1.566,0,0,0,1.043,5.866V43.957Z" fill="#4e4a48"/>
    </g>
    <rect id="rect16" x="11.309" y="13.309" width="26.532" height="28.383" rx="0.617" fill="url(#linear-gradient-2)"/>
    <rect id="rect18" x="16.245" y="17.628" width="16.66" height="19.745" stroke="#147391" stroke-miterlimit="10" stroke-width="0.617" fill="url(#linear-gradient-3)"/>
    <polyline id="polyline20" points="11.309 17.011 13.777 17.011 13.777 20.096 11.309 20.096" fill="none" stroke="#6e6e6e" stroke-miterlimit="6.17" stroke-width="0.592"/>
    <polyline id="polyline22" points="11.309 36.755 13.777 36.755 13.777 39.84 11.309 39.84" fill="none" stroke="#6e6e6e" stroke-miterlimit="6.17" stroke-width="0.592"/>
    <rect id="rect24" x="12.543" y="25.649" width="1.234" height="8.021" fill="none" stroke="#6e6e6e" stroke-miterlimit="10" stroke-width="0.603"/>
    <polyline id="polyline26" points="37.84 20.096 35.372 20.096 35.372 17.011 37.84 17.011" fill="none" stroke="#6e6e6e" stroke-miterlimit="6.17" stroke-width="0.592"/>
    <polyline id="polyline28" points="37.84 39.84 35.372 39.84 35.372 36.755 37.84 36.755" fill="none" stroke="#6e6e6e" stroke-miterlimit="6.17" stroke-width="0.592"/>
    <rect id="rect30" x="35.372" y="25.649" width="1.234" height="8.021" fill="none" stroke="#6e6e6e" stroke-miterlimit="10" stroke-width="0.603"/>
    <polyline id="polyline32" points="17.17 14.543 15.011 14.543 15.011 40.457 17.17 40.457" fill="none" stroke="#8b8b8b" stroke-miterlimit="6.17" stroke-width="0.617"/>
    <polyline id="polyline34" points="32.008 14.543 34.167 14.543 34.167 40.457 32.008 40.457" fill="none" stroke="#8b8b8b" stroke-miterlimit="6.17" stroke-width="0.617"/>
    <polyline id="polyline36" points="29.202 17.628 29.202 18.862 30.436 18.862 30.436 19.479 31.67 19.479 31.67 20.713 32.904 20.713" fill="none" stroke="#147391" stroke-miterlimit="6.17" stroke-width="0.617"/>
    <polyline id="polyline38" points="16.245 35.521 18.096 35.521 18.096 37.372" fill="none" stroke="#147391" stroke-miterlimit="6.17" stroke-width="0.617"/>
    <polyline id="polyline40" points="16.245 30.585 18.096 30.585 18.096 33.67 19.33 33.67 19.33 34.287 20.564 34.287 20.564 35.521 23.649 35.521 23.649 37.372" fill="none" stroke="#147391" stroke-miterlimit="6.17" stroke-width="0.617"/>
    <polyline id="polyline42" points="18.096 17.628 18.096 18.862 19.33 18.862 19.33 19.479 20.564 19.479 20.564 20.713 23.649 20.713 23.649 23.798 24.883 23.798 24.883 24.415 26.117 24.415 26.117 25.649 29.202 25.649 29.202 28.734 30.436 28.734 30.436 29.351 31.67 29.351 31.67 30.585 32.904 30.585" fill="none" stroke="#147391" stroke-miterlimit="6.17" stroke-width="0.617"/>
    <polyline id="polyline44" points="23.649 17.628 23.649 18.862 24.883 18.862 24.883 19.479 26.117 19.479 26.117 20.713 29.202 20.713 29.202 23.798 30.436 23.798 30.436 24.415 31.67 24.415 31.67 25.649 32.904 25.649" fill="none" stroke="#147391" stroke-miterlimit="6.17" stroke-width="0.617"/>
    <polyline id="polyline46" points="16.245 25.649 18.096 25.649 18.096 28.734 19.33 28.734 19.33 29.351 20.564 29.351 20.564 30.585 23.649 30.585 23.649 33.67 24.883 33.67 24.883 34.287 26.117 34.287 26.117 35.521 29.202 35.521 29.202 37.372" fill="none" stroke="#147391" stroke-miterlimit="6.17" stroke-width="0.617"/>
    <polyline id="polyline48" points="16.245 20.713 18.096 20.713 18.096 23.798 19.33 23.798 19.33 24.415 20.564 24.415 20.564 25.649 23.649 25.649 23.649 28.734 24.883 28.734 24.883 29.351 26.117 29.351 26.117 30.585 29.202 30.585 29.202 33.67 30.436 33.67 30.436 34.287 31.67 34.287 31.67 35.521 32.904 35.521" fill="none" stroke="#147391" stroke-miterlimit="6.17" stroke-width="0.617"/>
    <rect id="rect50" x="11.309" y="13.309" width="26.532" height="28.383" rx="0.617" fill="none" stroke="#464646" stroke-miterlimit="10" stroke-width="0.617"/>
    <line id="line52" x1="21.798" y1="37.372" x2="21.798" y2="17.628" fill="none" stroke="#147391" stroke-miterlimit="10" stroke-width="0.617"/>
    <line id="line54" x1="27.351" y1="17.628" x2="27.351" y2="37.372" fill="none" stroke="#147391" stroke-miterlimit="10" stroke-width="0.617"/>
    <line id="line56" x1="16.245" y1="22.564" x2="32.904" y2="22.564" fill="none" stroke="#147391" stroke-miterlimit="10" stroke-width="0.617"/>
    <line id="line58" x1="32.904" y1="32.436" x2="16.245" y2="32.436" fill="none" stroke="#147391" stroke-miterlimit="10" stroke-width="0.617"/>
    <line id="line60" x1="16.245" y1="27.5" x2="32.904" y2="27.5" fill="none" stroke="#147391" stroke-miterlimit="10" stroke-width="0.617"/>
  </g>
</svg>
