<svg id="Image" xmlns="http://www.w3.org/2000/svg" xmlns:xlink="http://www.w3.org/1999/xlink" viewBox="0 0 48 48">
  <defs>
    <linearGradient id="linear-gradient" x1="0.668" y1="45.791" x2="45.132" y2="7.123" gradientTransform="matrix(1, 0, 0, -1, 0, 52)" gradientUnits="userSpaceOnUse">
      <stop offset="0" stop-color="#fff"/>
      <stop offset="0.221" stop-color="#fbfbfc"/>
      <stop offset="0.541" stop-color="#ececec"/>
      <stop offset="0.92" stop-color="#d0cecd"/>
      <stop offset="1" stop-color="#c9c6c5"/>
    </linearGradient>
    <linearGradient id="linear-gradient-2" x1="117.89" y1="-106.468" x2="141.015" y2="-123.756" gradientTransform="matrix(0.714, 0, 0, -0.714, -71.202, -61.508)" gradientUnits="userSpaceOnUse">
      <stop offset="0" stop-color="#fff"/>
      <stop offset="0.221" stop-color="#f8f8f8"/>
      <stop offset="0.541" stop-color="#e5e5e5"/>
      <stop offset="0.92" stop-color="#c6c6c6"/>
      <stop offset="1" stop-color="#bebebe"/>
    </linearGradient>
    <linearGradient id="linear-gradient-3" x1="128.146" y1="-126.205" x2="142.995" y2="-141.054" gradientTransform="matrix(0.714, 0, 0, -0.714, -61.908, -62.234)" gradientUnits="userSpaceOnUse">
      <stop offset="0" stop-color="#a5cfdc"/>
      <stop offset="0.128" stop-color="#9cc9d7"/>
      <stop offset="0.335" stop-color="#84bacb"/>
      <stop offset="0.596" stop-color="#5ea2b7"/>
      <stop offset="0.896" stop-color="#28809b"/>
      <stop offset="1" stop-color="#147391"/>
    </linearGradient>
    <linearGradient id="linear-gradient-4" x1="128.767" y1="-125.598" x2="142.508" y2="-139.339" gradientTransform="matrix(0.714, 0, 0, -0.714, -61.908, -62.234)" xlink:href="#linear-gradient-2"/>
  </defs>
  <g id="g893">
    <path id="path30" d="M1.5,43h45V10h-27L16.094,4.891A2,2,0,0,0,14.43,4H3.5a2,2,0,0,0-2,2Z" stroke="#4e4a48" stroke-miterlimit="10" fill="url(#linear-gradient)"/>
    <g id="g968">
      <path id="path43-2-1" d="M19.541,38.13l1.869-1.869-1.61-.092a4.454,4.454,0,0,1-4.355-4.355l-.12-8h2.008l.122,8A2.412,2.412,0,0,0,19.8,34.158l1.613.1-1.872-1.869,1.42-1.419,4.292,4.291L20.961,39.55Z" fill="#3c91af"/>
      <path id="path45-8-2" d="M17.024,23.989l.072,7.875a2.707,2.707,0,0,0,2.677,2.676l2.445.048-2.2-2.2.946-.947,3.819,3.819-3.819,3.82-.946-.947,2.2-2.2-2.446-.049a4.046,4.046,0,0,1-4.015-4.014l-.072-7.875h1.339m.669-.669H15.017v.669l.071,7.875a4.808,4.808,0,0,0,4.685,4.684l.83.049-1.062,1.062-.472.473.472.473.947.946.473.473.473-.473,3.819-3.819.473-.475-.473-.472-3.819-3.819-.473-.474-.473.474-.947.946-.472.473.472.473L20.6,33.919l-.83-.048a2.053,2.053,0,0,1-2.007-2.007l-.072-7.875Z" fill="#147391"/>
      <path id="polygon38-3" d="M10.409,28.713H31.737V12.42H28.89v7.324l-9.374-3.026V18.1l9.374,3v1.928L10.4,17.06v1.368l9.118,2.938v1.923l-9.107-2.94Z" fill="url(#linear-gradient-2)"/>
      <path id="path40-3" d="M32.094,29.07H10.052V19.86L19.159,22.8V21.624l-9.118-2.939V16.568l18.492,5.976V21.365l-9.374-3V16.228l9.374,3.026V12.063H32.1Zm-21.328-.714H31.38V12.777H29.247v7.458l-9.374-3.026v.631l9.374,3v2.682L10.755,17.549v.615L19.873,21.1v2.673l-9.107-2.937Z" fill="#474647"/>
      <path id="path86-7" d="M34.887,25.676a7.5,7.5,0,1,0,7.5,7.5A7.5,7.5,0,0,0,34.887,25.676Z" fill="url(#linear-gradient-3)"/>
      <path id="path88-4" d="M32,34.728l1.037.979s.374.115,1.007.374a.583.583,0,0,1,.306.765.605.605,0,0,1-.075.128l-.374.95-1.152.286-.4.691h-.577l-.142-1.3-.835-.374-.633-1.357.574-1Zm6.783-7.949-.65.838.4,1.152-.748.115-.143.748-.691.173v.95h1.094l.547-.691h.748l.173.979h.72l.66.487-.662.749H39.024l-.691-.691H36.95a2.248,2.248,0,0,0-.806,1.238c0,.575.346,1.381,2.419,1.266V36.51l.172.49a.7.7,0,0,0,.806.2,10.447,10.447,0,0,0,.922-.576l.719-2.07,1.158-.587a7.464,7.464,0,0,0-3.559-7.19ZM27.489,32.02h.019l.864.633.232.8.605.429.317.057V32.281h1.065l.835-1.612,1.986-.605-.428-1.037L31.1,28.365l.6-.46,1.007-.317,1.357.316s.434.171.4-.405a1.138,1.138,0,0,0-.151-.689l.777-1.094-.01-.03c-.063,0-.135-.01-.206-.01a7.5,7.5,0,0,0-7.4,6.344Z" stroke="#147391" stroke-linejoin="round" stroke-width="0.714" fill="url(#linear-gradient-4)"/>
      <path id="path90-7" d="M34.887,25.676a7.5,7.5,0,1,0,7.5,7.5A7.5,7.5,0,0,0,34.887,25.676Z" fill="none" stroke="#464646" stroke-miterlimit="7.14" stroke-width="0.714"/>
    </g>
  </g>
</svg>
