<svg id="Layer_1" data-name="Layer 1" xmlns="http://www.w3.org/2000/svg" xmlns:xlink="http://www.w3.org/1999/xlink" viewBox="0 0 48 48">
  <defs>
    <linearGradient id="linear-gradient" x1="90.676" y1="1006.435" x2="142.291" y2="1032.853" gradientTransform="translate(-70.94 -732.66) scale(0.774 0.745)" gradientUnits="userSpaceOnUse">
      <stop offset="0" stop-color="#f2f2f2"/>
      <stop offset="0.5" stop-color="#ccc"/>
      <stop offset="0.63" stop-color="#c7c7c7"/>
      <stop offset="0.779" stop-color="#b9b9b9"/>
      <stop offset="0.938" stop-color="#a2a2a2"/>
      <stop offset="0.99" stop-color="#999"/>
    </linearGradient>
    <linearGradient id="linear-gradient-2" x1="108.574" y1="1024.282" x2="147.05" y2="1024.282" gradientTransform="translate(-70.94 -732.66) scale(0.774 0.745)" gradientUnits="userSpaceOnUse">
      <stop offset="0" stop-color="#74b5c8"/>
      <stop offset="0.175" stop-color="#6baec3"/>
      <stop offset="0.457" stop-color="#539eb5"/>
      <stop offset="0.809" stop-color="#2f849f"/>
      <stop offset="1" stop-color="#187491"/>
    </linearGradient>
    <linearGradient id="linear-gradient-3" x1="-543.927" y1="689.313" x2="-540.954" y2="689.313" gradientTransform="translate(-1076 721) rotate(180)" xlink:href="#linear-gradient"/>
    <linearGradient id="linear-gradient-4" x1="-435.042" y1="122.435" x2="-416.881" y2="107.39" gradientTransform="translate(-1076 721) rotate(180)" xlink:href="#linear-gradient"/>
  </defs>
  <g id="g1048">
    <path id="rect870-9-3" d="M6.622,23.212c9.874-.147,19.689-.053,29.059,0,4.679.026,4.679,9.192,0,9.169-8.434-.042-19.762-.085-29.059,0C.265,32.439,1.944,23.281,6.622,23.212Z" stroke="#464646" stroke-linecap="round" stroke-linejoin="round" stroke-width="0.809" fill="url(#linear-gradient)"/>
    <path id="path910-4" d="M32.9,35.046l3.068-2.663" fill="none" stroke="#464646" stroke-width="0.809"/>
    <path id="rect870-9" d="M3.9,25.876c9.86-.146,19.662-.052,29.018,0,4.673.027,4.673,9.193,0,9.17C24.5,35,13.184,35.1,3.9,35.046-.773,35.019-.772,25.946,3.9,25.876Z" stroke="#464646" stroke-linecap="round" stroke-linejoin="round" stroke-width="0.809" fill="url(#linear-gradient-2)"/>
    <path id="path910-0-8" d="M33.561,25.822l3.068-2.665" fill="none" stroke="#464646" stroke-width="0.809"/>
    <path id="path910-0-8-2" d="M1.939,26.534l2.247-2.3" fill="none" stroke="#464646" stroke-width="0.809"/>
    <path id="path910-0-8-8" d="M34.955,34.312l2.888-2.853" fill="none" stroke="#464646" stroke-width="0.809"/>
    <path id="path1010" d="M6.028,31.687a1.355,1.355,0,1,1-1.355-1.358A1.358,1.358,0,0,1,6.028,31.687Z" fill="#464646" stroke="#464646" stroke-linecap="round" stroke-linejoin="round" stroke-width="0.791"/>
    <path id="path1010-3" d="M10.93,31.687a1.355,1.355,0,1,1-1.355-1.358A1.358,1.358,0,0,1,10.93,31.687Z" fill="#6e6e6e" stroke="#464646" stroke-linecap="round" stroke-linejoin="round" stroke-width="0.791"/>
    <path id="path1010-3-7" d="M16.035,31.687a1.357,1.357,0,0,1-1.354,1.359h0a1.359,1.359,0,1,1,1.354-1.359Z" stroke="#464646" stroke-linecap="round" stroke-linejoin="round" stroke-width="0.791" fill="url(#linear-gradient-3)"/>
    <path id="rect1050" d="M21.8,31.436h10v1h-10Z" fill="#6e6e6e"/>
    <path id="rect1148" d="M28.966,18.679s.062,3.945,0,5.362c-.041.948,2.837.948,2.837,0V18.679C31.839,16.675,29.044,16.225,28.966,18.679Z" fill="#6eb1c5" stroke="#464646" stroke-width="1.001"/>
    <path id="path863" d="M20.94,3.877l1.324,1.354a11.131,11.131,0,0,1,15.825-.05l1.329-1.337A12.985,12.985,0,0,0,20.94,3.877Zm2.647,2.709L24.9,7.94a7.42,7.42,0,0,1,10.53-.074l1.329-1.337a9.276,9.276,0,0,0-13.174.05Zm2.646,2.7,1.323,1.354a3.711,3.711,0,0,1,5.2-.082L34.09,9.224A5.564,5.564,0,0,0,26.233,9.288Z" fill="#464646"/>
    <path id="path918" d="M32.141,12.936a1.878,1.878,0,1,1-1.877-1.91,1.893,1.893,0,0,1,1.877,1.91Z" fill="#464646"/>
    <path id="rect948" d="M26,25.942H48V48H26Z" fill="url(#linear-gradient-4)"/>
    <path id="rect830" d="M27,26.944v6.381h6.364V26.944Zm.909.912h4.546v4.557H27.909Z" fill="#464646"/>
    <path id="rect848" d="M28.818,28.767h2.727V31.5H28.818Z" fill="#464646"/>
    <path id="rect830-5" d="M27,40.617V47h6.364v-6.38Zm.909.911h4.546v4.558H27.909Z" fill="#464646"/>
    <path id="rect848-2" d="M28.818,42.44h2.727v2.734H28.818Z" fill="#464646"/>
    <path id="rect830-5-3" d="M40.636,26.944v6.381H47V26.944Zm.909.912h4.546v4.557H41.545Z" fill="#464646"/>
    <path id="rect848-2-4" d="M42.455,28.767h2.727V31.5H42.455Z" fill="#464646"/>
    <path id="rect830-5-3-5" d="M40.636,40.617V47H47v-6.38Zm.909.911h4.546v4.558H41.545Z" fill="#464646"/>
    <path id="rect848-2-4-7" d="M42.455,42.44h2.727v2.734H42.455Z" fill="#464646"/>
    <path id="rect904" d="M35.182,27.856h.909v6.38h-.909Z" fill="#464646"/>
    <path id="rect906" d="M29.727,37.882h4.546v.912H29.727Z" fill="#464646"/>
    <path id="rect908" d="M37.909,39.705h.909V47h-.909Z" fill="#464646"/>
    <path id="rect910" d="M39.727,36.059h6.364v.912H39.727Z" fill="#464646"/>
    <path id="rect912" d="M43.364,35.148h.909v.911h-.909Z" fill="#464646"/>
    <path id="rect912-7" d="M37.909,28.767h.909v.912h-.909Z" fill="#464646"/>
    <path id="rect912-9" d="M37,30.59h.909V31.5H37Z" fill="#464646"/>
    <path id="rect912-2" d="M36.091,33.325H37v.911h-.909Z" fill="#464646"/>
    <path id="rect912-93" d="M33.364,36.971h.909v.911h-.909Z" fill="#464646"/>
    <path id="rect912-3" d="M28.818,36.971h.909v.911h-.909Z" fill="#464646"/>
    <path id="rect912-0" d="M27.909,36.059h.909v.912h-.909Z" fill="#464646"/>
    <path id="rect912-8" d="M37,34.236h.909v.912H37Z" fill="#464646"/>
    <path id="rect912-03" d="M37,40.617h.909v.911H37Z" fill="#464646"/>
    <path id="rect912-6" d="M38.818,44.263h.909v.911h-.909Z" fill="#464646"/>
    <path id="rect912-5" d="M36.091,41.528H37v.912h-.909Z" fill="#464646"/>
    <path id="rect912-37" d="M35.182,42.44h.909v.911h-.909Z" fill="#464646"/>
    <path id="rect912-08" d="M37.942,31.561h.909v.912h-.909Z" fill="#464646"/>
    <path id="rect912-1" d="M40.636,36.971h.909v.911h-.909Z" fill="#464646"/>
    <path id="rect912-04" d="M41.545,37.882h.91v.912h-.91Z" fill="#464646"/>
    <path id="rect1007" d="M30.636,35.148h1.819v.911H30.636Z" fill="#464646"/>
    <path id="rect1007-4" d="M27.909,34.236h1.818v.912H27.909Z" fill="#464646"/>
    <path id="rect1007-1" d="M36.091,36.971h1.818v.911H36.091Z" fill="#464646"/>
    <path id="rect1007-0" d="M36.091,45.174h1.818v.912H36.091Z" fill="#464646"/>
    <path id="rect1007-3" d="M39.727,34.236h1.818v.912H39.727Z" fill="#464646"/>
    <path id="rect1007-39" d="M36.091,27.856h1.818v.911H36.091Z" fill="#464646"/>
    <path id="rect1007-5" d="M33.364,38.794h1.818v.911H33.364Z" fill="#464646"/>
    <path id="rect1007-32" d="M44.273,37.882h1.818v.912H44.273Z" fill="#464646"/>
    <path id="rect1007-32-1" d="M38.818,34.236V32.413h.909v1.823Z" fill="#464646"/>
    <path id="rect1007-32-1-6" d="M38.818,29.679V27.856h.909v1.823Z" fill="#464646"/>
    <path id="rect1007-32-1-2" d="M33.364,36.059V34.236h.909v1.823Z" fill="#464646"/>
    <path id="rect1007-32-1-67" d="M35.246,36.892V35.069h.909v1.823Z" fill="#464646"/>
    <path id="rect1007-32-1-8" d="M38.818,40.617V38.794h.909v1.823Z" fill="#464646"/>
    <path id="rect1007-32-1-69" d="M34.273,46.086V44.263h.909v1.823Z" fill="#464646"/>
    <path id="rect1007-32-1-1" d="M27.909,39.705V37.882h.909v1.823Z" fill="#464646"/>
    <path id="rect1007-32-1-7" d="M45.182,36.059V34.236h.909v1.823Z" fill="#464646"/>
    <path id="rect1007-32-1-9" d="M43.364,39.705V37.882h.909v1.823Z" fill="#464646"/>
    <path id="rect1007-32-1-82" d="M29.727,36.059V34.236h.909v1.823Z" fill="#464646"/>
    <path id="rect1007-32-1-92" d="M34.273,42.44V40.617h.909V42.44Z" fill="#464646"/>
  </g>
</svg>
