<svg id="Layer_1" data-name="Layer 1" xmlns="http://www.w3.org/2000/svg" xmlns:xlink="http://www.w3.org/1999/xlink" viewBox="0 0 48 48">
  <defs>
    <linearGradient id="linear-gradient" x1="0.5" y1="-692.5" x2="47.5" y2="-739.5" gradientTransform="matrix(1, 0, 0, -1, 0, -692)" gradientUnits="userSpaceOnUse">
      <stop offset="0" stop-color="#fff"/>
      <stop offset="0.232" stop-color="#fafafa"/>
      <stop offset="0.496" stop-color="#ededed"/>
      <stop offset="0.775" stop-color="#d6d6d6"/>
      <stop offset="1" stop-color="#bebebe"/>
    </linearGradient>
    <linearGradient id="linear-gradient-2" x1="58.117" y1="1565.565" x2="105.852" y2="1619.872" gradientTransform="translate(-47.992 -1459.151) scale(0.946 0.937)" xlink:href="#linear-gradient"/>
    <linearGradient id="linear-gradient-3" x1="-5.045" y1="-740.234" x2="5.314" y2="-749.048" gradientTransform="matrix(1.081, 0, 0, -0.982, 26.892, -713.987)" gradientUnits="userSpaceOnUse">
      <stop offset="0" stop-color="#74b3c7"/>
      <stop offset="0.177" stop-color="#6badc2"/>
      <stop offset="0.464" stop-color="#539db4"/>
      <stop offset="0.822" stop-color="#2d839d"/>
      <stop offset="1" stop-color="#177490"/>
    </linearGradient>
    <linearGradient id="linear-gradient-4" x1="34.5" y1="-692.5" x2="47.5" y2="-705.5" gradientTransform="matrix(1, 0, 0, -1, 0, -692)" gradientUnits="userSpaceOnUse">
      <stop offset="0" stop-color="#fff"/>
      <stop offset="0.221" stop-color="#f8f8f8"/>
      <stop offset="0.541" stop-color="#e5e5e5"/>
      <stop offset="0.92" stop-color="#c6c6c6"/>
      <stop offset="1" stop-color="#bebebe"/>
    </linearGradient>
    <linearGradient id="linear-gradient-5" x1="38" y1="-690" x2="50" y2="-702" gradientTransform="matrix(1, 0, 0, -1, 0, -692)" gradientUnits="userSpaceOnUse">
      <stop offset="0" stop-color="#afd7e1"/>
      <stop offset="1" stop-color="#73b4c8"/>
    </linearGradient>
    <linearGradient id="linear-gradient-6" x1="35" y1="-693" x2="47" y2="-705" xlink:href="#linear-gradient-4"/>
  </defs>
  <g id="g905">
    <path id="rect53" d="M.5.5h47v47H.5Z" stroke="#464646" stroke-miterlimit="10" fill="url(#linear-gradient)"/>
    <g id="g900">
      <path id="polyline35" d="M38.609,9.415H9.444V44.556H39.722V10.792" stroke="#464646" stroke-linecap="round" stroke-miterlimit="8.89" stroke-width="0.889" fill="url(#linear-gradient-2)"/>
      <path id="path872" d="M28.4,31.265a.4.4,0,0,1-.113-.077.321.321,0,0,1-.094-.153,1.753,1.753,0,0,1-.061-.223,1.192,1.192,0,0,0-.059-.2,1.53,1.53,0,0,1-.111-.711,3.185,3.185,0,0,0-.012-.327s-.023.019-.043.049a.484.484,0,0,1-.074.083.14.14,0,0,0-.053.089,1.237,1.237,0,0,1-.053.136.84.84,0,0,1-.356.33.234.234,0,0,1-.142.028.219.219,0,0,1-.159-.042.3.3,0,0,1-.151-.2c-.006-.03-.017-.077-.025-.1a.822.822,0,0,1-.014-.178,1.689,1.689,0,0,0-.015-.225c-.008-.054-.018-.141-.02-.194a.528.528,0,0,0-.011-.089,1.436,1.436,0,0,0-.043.428c0,.215-.007.25-.072.343a.248.248,0,0,1-.117.107.231.231,0,0,1-.138.036.317.317,0,0,1-.242-.089.307.307,0,0,1-.089-.11c-.023-.053-.024-.065-.024-.281-.04-.245-.05-.474-.076-.711-.005-.029-.013-.113-.018-.19a4.03,4.03,0,0,0-.154-.549,1.773,1.773,0,0,1-.023-.364.017.017,0,0,1,.017-.015.253.253,0,0,0,.077-.057.276.276,0,0,1,.247-.1.359.359,0,0,1,.233.1.369.369,0,0,1,.114.259c.009.095.017.134.028.134a1.5,1.5,0,0,0,.068-.2c.123-.4.142-.455.178-.542a.734.734,0,0,1,.046-.1.357.357,0,0,0,.034-.081.209.209,0,0,1,.07-.109.311.311,0,0,1,.429.025c.082.089.076.023.076,1.051,0,.5,0,.911.007.911s.013-.017.022-.037a.8.8,0,0,1,.094-.13.659.659,0,0,0,.091-.138.517.517,0,0,1,.211-.3.472.472,0,0,1,.267-.082.235.235,0,0,1,.128.044.261.261,0,0,1,.115.095.341.341,0,0,1,.057.2.342.342,0,0,0,.029.13,1.352,1.352,0,0,1,.06.351,5.834,5.834,0,0,1,.04.6,3.329,3.329,0,0,0,.016.363,1.762,1.762,0,0,0,.079.192.192.192,0,0,0,.044-.037A.97.97,0,0,1,29.1,30.2a1.035,1.035,0,0,1,.388-.079.458.458,0,0,1,.291.088.188.188,0,0,0,.138.044,1.1,1.1,0,0,0,.171-.023.454.454,0,0,0,.255-.139.3.3,0,0,1,.164-.084c.2-.041.319.135.437.185a.512.512,0,0,0,.253.071c.194.032.4.074.634.129a4.238,4.238,0,0,0,.759.136.88.88,0,0,0,.311-.017.765.765,0,0,0,.178-.026.657.657,0,0,1,.2.029l.117.039a.316.316,0,0,1,.227.275.29.29,0,0,1-.053.213c-.032.049-.043.059-.131.1l-.095.046-.106-.006a3.665,3.665,0,0,1-1.521-.164c-.276-.065-.417-.095-.658-.157a.709.709,0,0,1-.325-.108c-.065-.043-.08-.049-.126-.049a.233.233,0,0,0-.138.038.626.626,0,0,1-.346.123,1.048,1.048,0,0,1-.244.016,1,1,0,0,1-.2-.025.645.645,0,0,1-.178-.1.059.059,0,0,0-.06-.018,1.867,1.867,0,0,0-.261.089,2.313,2.313,0,0,0-.2.189.968.968,0,0,1-.261.215.326.326,0,0,1-.172.045.291.291,0,0,1-.143-.018Z" fill="#464646"/>
      <path id="path863-9" d="M28.558,24.553c-.1-.034-.131-.07-.281-.225a1.165,1.165,0,0,1-.208-.266,2.307,2.307,0,0,1-.342-.712c-.019-.066-.049-.177-.069-.242a1.915,1.915,0,0,1-.062-.635v-.322h.615v.254a1.77,1.77,0,0,0,.068.622c.025.089.057.2.071.242a1.982,1.982,0,0,0,.211.422c.04.06.074.121.085.135a.393.393,0,0,0,.044.055.21.21,0,0,0,.061.054.241.241,0,0,0,.1.046.792.792,0,0,0,.12.021,2.519,2.519,0,0,0,.275.011.447.447,0,0,0,.192-.032.133.133,0,0,0,.036-.039c0-.023.007-.242.008-.486a4.785,4.785,0,0,1,.011-.484,1.269,1.269,0,0,1,.079-.216.419.419,0,0,1,.157-.15.331.331,0,0,1,.226-.041.4.4,0,0,1,.355.253c.016.04.016.054.02.349v.308l.036-.028a.087.087,0,0,0,.043-.07.31.31,0,0,1,.153-.208l.068-.044h.177l.06.024a.366.366,0,0,1,.172.153c.02.03.05.07.066.089s.062.072.1.12a1.743,1.743,0,0,0,.162.171l.089.089.095.05a2.531,2.531,0,0,0,.355.08s.01,0,.01-.006a.445.445,0,0,1,.109-.1.576.576,0,0,1,.1-.036l.068-.019.233-.008a.829.829,0,0,1,.267.032.633.633,0,0,0,.194.012h.163V24.4H32.84a.784.784,0,0,1-.273-.018.538.538,0,0,0-.089-.017c-.027,0-.032,0-.045.024a.343.343,0,0,1-.15.116.505.505,0,0,1-.223.057.712.712,0,0,1-.309-.052l-.267-.081a1.041,1.041,0,0,1-.622-.368,1.315,1.315,0,0,0-.109-.1.42.42,0,0,0-.066.052.756.756,0,0,1-.171.126.815.815,0,0,1-.361.071H30.1l-.012.027a.969.969,0,0,1-.407.343,1.187,1.187,0,0,1-.167.049A1.857,1.857,0,0,1,28.558,24.553Z" fill="#464646"/>
      <path id="polyline51" d="M34.781,18.733H17.487V14.372H34.781" stroke="#147391" stroke-miterlimit="3.556" stroke-width="0.973" fill="url(#linear-gradient-3)"/>
      <path id="rect926" d="M33.885,14.105h.9v5.05h-.9Z" fill="#147391"/>
      <path id="path831-5" d="M21.528,21.361a1.071,1.071,0,0,0-.688.363,2.671,2.671,0,0,0-.377.57,4.2,4.2,0,0,0-.651,2.115l.454-.02a3.829,3.829,0,0,1,.6-1.882,2.245,2.245,0,0,1,.31-.477.626.626,0,0,1,.391-.217.59.59,0,0,1,.494.267,1.4,1.4,0,0,1,.226.646l-.068.049a1.206,1.206,0,0,0-.392.489,1.268,1.268,0,0,0-.1.423c-.014.189-.009.145-.018.248-.045.313-.089.761.267.957a.31.31,0,0,0,.25.021c.166-.061.24-.253.3-.423a3.727,3.727,0,0,0,.239-1.533.459.459,0,0,1,.07-.027.2.2,0,0,1,.115-.012c.032.013.072.082.108.144a.844.844,0,0,0,.252.3s.149.19.241.159c.144-.048.154-.428.154-.428a.6.6,0,0,1,.165-.293.4.4,0,0,1,.329.017.326.326,0,0,0,.432-.162.314.314,0,0,0,.029-.132v-.033a.574.574,0,0,1,.117-.039l.069-.02a1.583,1.583,0,0,0,.711-.543l-.342-.3a1.219,1.219,0,0,1-.5.408l-.054.015a.543.543,0,0,0-.406.279.589.589,0,0,0-.021.059.686.686,0,0,0-.862.356.587.587,0,0,0-.25-.21.607.607,0,0,0-.414,0,1.681,1.681,0,0,0-.28-.685,1.036,1.036,0,0,0-.9-.452Zm.784,1.956a3.355,3.355,0,0,1-.155.848c.006-.051.014-.1.02-.15a2.384,2.384,0,0,0,.033-.316.9.9,0,0,1,.039-.272A.482.482,0,0,1,22.312,23.317Z" fill="#464646" stroke="#464646" stroke-miterlimit="3.556" stroke-width="0.178"/>
      <path id="path874" d="M19.223,31.3a1.14,1.14,0,0,1-.316-.171.536.536,0,0,1-.163-.224,2.928,2.928,0,0,1,.622-2.5,2.812,2.812,0,0,1,.8-.7s.064.127.137.28l.135.276a4.894,4.894,0,0,0-.6.534,1.987,1.987,0,0,0-.381.552A1.3,1.3,0,0,0,19.3,30.6c.1.15.335.164.517.184.218.071.522.008.587-.132l.013-.061a.329.329,0,0,1,.266-.267.3.3,0,0,1,.234.047.2.2,0,0,1,.089.094l.029.058.029-.033a.663.663,0,0,0,.106-.151,3.558,3.558,0,0,1,.324-.957.236.236,0,0,1,.213-.055.3.3,0,0,1,.266.178.544.544,0,0,1,.026.208c0,.144.008.166.028.206a.305.305,0,0,0,.119.112l.057.038.04.026a.544.544,0,0,0,.178.029c.1-.017.2-.014.267-.14l.037-.068v-.56l.029-.062a.349.349,0,0,1,.178-.169.283.283,0,0,1,.135-.021.275.275,0,0,1,.154.031.491.491,0,0,1,.117.079.988.988,0,0,1,.229.39,2.015,2.015,0,0,0,.153.33.128.128,0,0,0,.031-.035.6.6,0,0,1,.491-.324l.178-.012a1.742,1.742,0,0,1,.589.106,1.162,1.162,0,0,0,.233.048H25.3v.607l-.029.01c-.075.019-.177,0-.494-.089a.86.86,0,0,0-.266-.042.518.518,0,0,0-.178.012.205.205,0,0,0-.119.112,1.207,1.207,0,0,1-.047.112.4.4,0,0,0-.033.089.381.381,0,0,1-.077.088.526.526,0,0,1-.276.095.356.356,0,0,1-.184-.042.655.655,0,0,1-.192-.151c-.062-.063-.132-.136-.154-.164s-.044-.044-.047-.035-.032.052-.063.1a.667.667,0,0,1-.241.228,1.155,1.155,0,0,1-.472.112.745.745,0,0,1-.644-.2c-.035-.035-.06-.053-.066-.047a.544.544,0,0,0-.03.083.7.7,0,0,1-.125.251c-.026.032-.062.082-.08.109a.635.635,0,0,1-.384.267,2.314,2.314,0,0,1-.4-.01.079.079,0,0,0-.058.007c-.016.008-.079.033-.143.055l-.113.04-.533.054a1.442,1.442,0,0,1-.622-.066Z" fill="#464646"/>
      <path id="line37-7-2" d="M17.89,38.333H34.781" fill="none" stroke="#147391" stroke-miterlimit="3.556" stroke-width="0.889"/>
      <path id="path928-8-1" d="M16.112,38.333a.889.889,0,1,1-.889-.889A.889.889,0,0,1,16.112,38.333Z" fill="#147391"/>
      <path id="path876" d="M26.664,37.1a.239.239,0,0,1-.081-.127.152.152,0,0,0-.02-.055.1.1,0,0,1-.024-.039.238.238,0,0,0-.02-.039l-.055-.01a7.54,7.54,0,0,0-1.4-.22,6.673,6.673,0,0,0-1.545.111c-.094.016-.227.034-.294.04s-.187.02-.267.031c-.237.034-.346.018-.435-.06a.365.365,0,0,1-.1-.178v-.031l-.14-.028a2.011,2.011,0,0,0-.445-.035,4.529,4.529,0,0,1-.869-.083c-.057-.013-.145-.028-.2-.034a.635.635,0,0,1-.623-.41.314.314,0,0,1-.033-.178.565.565,0,0,1,.015-.178c.04-.149.088-.193.421-.355a7.217,7.217,0,0,1,.732-.349,9.2,9.2,0,0,1,.982-.355c.059-.031.139-.014.187-.057a.39.39,0,0,0,.065-.164.335.335,0,0,1,.053-.107.279.279,0,0,1,.155-.07.878.878,0,0,1,.4.04.347.347,0,0,1,.161.445.751.751,0,0,1-.289.3,1.291,1.291,0,0,1-.462.164,6.743,6.743,0,0,0-1.549.539.134.134,0,0,0-.066.154,6.756,6.756,0,0,0,2.045.141l.351.005a.484.484,0,0,1,.144.041c.215.247.682.089.983.07a6.85,6.85,0,0,1,2.222.222.561.561,0,0,1,.286.128.354.354,0,0,1,.115.178.3.3,0,0,0,.247.137.556.556,0,0,0,.236-.062,1.311,1.311,0,0,0,.182-.167,2.226,2.226,0,0,1,.2-.187,2.155,2.155,0,0,1,.221-.109,1.47,1.47,0,0,0,.52-.309,2.61,2.61,0,0,1,.211-.166,1.291,1.291,0,0,0,.155-.121.316.316,0,0,1,.336-.089.34.34,0,0,1,.191.19.487.487,0,0,1,.015.076c.031.122.03.177.173.256h.551a2.445,2.445,0,0,0,.622-.019.166.166,0,0,1,.073-.013c.009.01.2.565.2.568a1.763,1.763,0,0,1-.255.073c-.039.007-.306.011-.693.011h-.63a.355.355,0,0,1-.262-.089l-.072-.075a1.3,1.3,0,0,1-.106-.127.216.216,0,0,0-.044-.051,1.193,1.193,0,0,0-.1.084,2.007,2.007,0,0,1-.594.356l-.154.065-.17.178a1.082,1.082,0,0,1-1.015.355A.886.886,0,0,1,26.664,37.1Z" fill="#464646"/>
      <path id="line37-7-2-1" d="M17.89,32.11H34.781" fill="none" stroke="#147391" stroke-miterlimit="3.556" stroke-width="0.891"/>
      <path id="line37-7-2-1-9" d="M17.89,25.887H34.781" fill="none" stroke="#147391" stroke-miterlimit="3.556" stroke-width="0.889"/>
      <path id="path928-8-1-7" d="M16.112,32.11a.889.889,0,1,1-.889-.889A.889.889,0,0,1,16.112,32.11Z" fill="#147391"/>
      <path id="path928-8-1-3" d="M16.112,25.887A.889.889,0,1,1,15.223,25,.889.889,0,0,1,16.112,25.887Z" fill="#147391"/>
      <path id="rect1037" d="M36.729,9.25h3.119v.321H36.729Z" fill="#464646" stroke="#464646" stroke-linecap="square" stroke-miterlimit="3.556" stroke-width="0.562"/>
      <path id="rect1037-8" d="M39.879,9.249v3.125h-.322V9.249Z" fill="#464646" stroke="#464646" stroke-linecap="square" stroke-miterlimit="3.556" stroke-width="0.563"/>
    </g>
    <path id="rect63" d="M34.5.5h13v13h-13Z" fill="url(#linear-gradient-4)"/>
    <path id="polygon65" d="M47,13V1H35Z" fill="url(#linear-gradient-5)"/>
    <path id="line67" d="M35,1,47,13" stroke="#464646" stroke-miterlimit="10" fill="url(#linear-gradient-6)"/>
    <path id="rect69" d="M34.5.5h13v13h-13Z" fill="none" stroke="#464646" stroke-miterlimit="10"/>
  </g>
</svg>
