<svg id="Layer_1" data-name="Layer 1" xmlns="http://www.w3.org/2000/svg" xmlns:xlink="http://www.w3.org/1999/xlink" viewBox="0 0 48 48">
  <defs>
    <linearGradient id="linear-gradient" x1="230.069" y1="261.991" x2="241.294" y2="262.465" gradientTransform="matrix(0.707, 0.707, 0.756, -0.756, -341.452, 57.334)" gradientUnits="userSpaceOnUse">
      <stop offset="0" stop-color="#73b4c8"/>
      <stop offset="1" stop-color="#177491"/>
    </linearGradient>
    <linearGradient id="linear-gradient-2" x1="-531.849" y1="37.227" x2="-541.697" y2="27.381" gradientTransform="translate(-514.351 53.502) rotate(180)" gradientUnits="userSpaceOnUse">
      <stop offset="0" stop-color="#fff"/>
      <stop offset="1" stop-color="#dcdcdc"/>
    </linearGradient>
    <linearGradient id="linear-gradient-3" x1="-541.373" y1="27.193" x2="-553.16" y2="15.406" gradientTransform="translate(-514.351 53.502) rotate(180)" gradientUnits="userSpaceOnUse">
      <stop offset="0" stop-color="#f2f2f2"/>
      <stop offset="1" stop-color="#999"/>
    </linearGradient>
    <linearGradient id="linear-gradient-4" x1="11.936" y1="44.267" x2="18.862" y2="37.634" gradientTransform="matrix(1, 0, 0, -1, -0.351, 53.502)" xlink:href="#linear-gradient-3"/>
  </defs>
  <g id="g894">
    <path id="polyline39" d="M38,1h9V47H38" fill="none" stroke="#969696" stroke-miterlimit="10" stroke-width="2"/>
    <path id="polyline41" d="M10,47H1V1h9" fill="none" stroke="#969696" stroke-miterlimit="10" stroke-width="2"/>
    <path id="path32" d="M11.112,39.385c-.115,0-.234-.006-.354-.018a3.575,3.575,0,0,1-3.209-3.149,1.709,1.709,0,0,1,.189-1.264L24.581,18.586a.719.719,0,0,0,.315-.707c-.1-.517-.852-5.126,1.552-7.529A7.827,7.827,0,0,1,31.8,7.993c.125,0,.25-.008.374-.008a2.633,2.633,0,0,1,.546.046,3.731,3.731,0,0,1,.441.43L29.917,11.7a.487.487,0,0,0-.1.146C28.26,15.259,28.3,15.3,28.591,15.591l2.758,2.758a.5.5,0,0,0,.354.147.531.531,0,0,0,.176-.032l3.07-1.157a.5.5,0,0,0,.178-.116c.031-.026,2.522-2.532,3.422-3.389a2.3,2.3,0,0,1,.426.471,8.1,8.1,0,0,1-2.4,6.317A7.074,7.074,0,0,1,31.789,22.3c-.153,0-.31.007-.471.007a16.624,16.624,0,0,1-2.37-.171.707.707,0,0,0-.608.236L12.071,39.113A1.391,1.391,0,0,1,11.112,39.385Zm.278-4.914a1.152,1.152,0,0,0-.806,1.927,1.019,1.019,0,0,0,.753.32,1.252,1.252,0,0,0,.826-.349,1.155,1.155,0,0,0,.347-.779,1.069,1.069,0,0,0-.318-.8,1.022,1.022,0,0,0-.755-.319Z" fill="url(#linear-gradient)"/>
    <path id="path34" d="M32.172,8.488a2.349,2.349,0,0,1,.247.008l-2.856,2.856a.961.961,0,0,0-.2.292c-1.574,3.446-1.7,3.727-1.125,4.3L30.99,18.7a1,1,0,0,0,1.059.229l3.079-1.157a1.016,1.016,0,0,0,.358-.231c.023-.024,1.925-1.938,3-2.989a7.655,7.655,0,0,1-2.257,5.672A6.6,6.6,0,0,1,31.77,21.8c-.147,0-.3.007-.455.007a16.13,16.13,0,0,1-2.293-.166,1.053,1.053,0,0,0-.148-.011h-.033a1.157,1.157,0,0,0-.865.4L11.723,38.755a1,1,0,0,1-.61.13,2.983,2.983,0,0,1-.3-.016,3.075,3.075,0,0,1-2.764-2.71,1.9,1.9,0,0,1,.034-.841l16.8-16.328a1.128,1.128,0,0,0,.52-.985,1.076,1.076,0,0,0-.016-.212c-.325-1.782-.393-5.281,1.413-7.087A7.332,7.332,0,0,1,31.814,8.5c.119,0,.238-.008.357-.008M11.34,37.218h.06a1.738,1.738,0,0,0,1.116-.494,1.658,1.658,0,0,0,.494-1.116,1.569,1.569,0,0,0-.464-1.171,1.522,1.522,0,0,0-1.111-.466h-.06a1.6,1.6,0,0,0-1.116.494,1.65,1.65,0,0,0-.494,1.116,1.558,1.558,0,0,0,.465,1.171,1.521,1.521,0,0,0,1.11.466M39.021,14.04h0M32.172,7.488c-.13,0-.26,0-.391.009A8.347,8.347,0,0,0,26.094,10C23.7,12.39,24.179,16.733,24.4,17.97c0,.089-.006.178-.095.181L7.385,34.6a2.074,2.074,0,0,0-.33,1.677,4.056,4.056,0,0,0,3.654,3.586c.132.013.266.02.4.021a1.838,1.838,0,0,0,1.317-.423L28.693,22.721c.092-.092.092-.092.181-.1a16.894,16.894,0,0,0,2.441.177c.167,0,.331,0,.489-.008a7.546,7.546,0,0,0,5.132-1.861,8.611,8.611,0,0,0,2.519-6.776c-.008-.2-.457-.631-.727-.869a.268.268,0,0,0-.177-.066.306.306,0,0,0-.212.086c-.77.718-3.562,3.53-3.562,3.53L31.7,17.991l-2.754-2.755c-.086-.086,1.327-3.182,1.327-3.182l3.313-3.313a.408.408,0,0,0,.1-.448c-.085-.086-.657-.748-.838-.748h0a3.13,3.13,0,0,0-.675-.062ZM11.34,36.218a.522.522,0,0,1-.4-.173.654.654,0,0,1,.471-1.074h.027a.525.525,0,0,1,.4.173.6.6,0,0,1,0,.848l-.026.025a.722.722,0,0,1-.442.2Z" fill="#464646"/>
    <path id="polygon38" d="M17.033,16.778,26.7,26.77l1.113-1.154-9.663-9.99Z" stroke="#474647" stroke-miterlimit="10" fill="url(#linear-gradient-2)"/>
    <path id="path40" d="M26.588,28.738,29.715,25.5l9.942,9.256a1.8,1.8,0,0,1-.021,2.451l-1.724,1.783a1.654,1.654,0,0,1-2.337.055c-.019-.018-.038-.036-.055-.055ZM26.072,27.5a1.052,1.052,0,0,1,.283-.449l.4-.414,1.5-1.556a.685.685,0,0,1,.968-.026l.488.455-3.127,3.233-.44-.5A.825.825,0,0,1,26.072,27.5Z" stroke="#474647" stroke-miterlimit="10" fill="url(#linear-gradient-3)"/>
    <path id="path42" d="M19.449,12.568l-.83-.858-.836-.865a13.265,13.265,0,0,1,2.453-1.278,26.179,26.179,0,0,1,3.6-.792C22.954,9.267,20.18,10.817,19.449,12.568Zm-5,5.955-.171-.176L12.21,16.208l-.171-.176a.681.681,0,0,1,0-.94l4.481-4.633a.629.629,0,0,1,.889-.02l.02.02,2.407,2.493a.684.684,0,0,1,0,.939L18.563,15.2h0l-.308.319-2.9,3A.646.646,0,0,1,14.449,18.523Zm-.579-.6-1.73,1.789-.626-.647-.625-.647,1.73-1.788Zm-5.1.557.476-.492a.793.793,0,0,1,1.122-.027l.027.027,1.085,1.121,1.034,1.07h0l.051.053a.86.86,0,0,1,0,1.187l-.476.492Z" stroke="#474647" stroke-linejoin="round" fill="url(#linear-gradient-4)"/>
  </g>
</svg>
