<svg id="Image" xmlns="http://www.w3.org/2000/svg" xmlns:xlink="http://www.w3.org/1999/xlink" viewBox="0 0 48 48">
  <defs>
    <linearGradient id="linear-gradient" x1="231.009" y1="258.663" x2="245.796" y2="259.044" gradientTransform="matrix(0.707, 0.707, 0.756, -0.756, -343.096, 50.861)" gradientUnits="userSpaceOnUse">
      <stop offset="0" stop-color="#73b4c8"/>
      <stop offset="1" stop-color="#177491"/>
    </linearGradient>
    <linearGradient id="linear-gradient-2" x1="-529.799" y1="36.303" x2="-542.928" y2="23.175" gradientTransform="translate(-515.995 47.029) rotate(180)" gradientUnits="userSpaceOnUse">
      <stop offset="0" stop-color="#fff"/>
      <stop offset="1" stop-color="#dcdcdc"/>
    </linearGradient>
    <linearGradient id="linear-gradient-3" x1="-542.498" y1="22.919" x2="-558.211" y2="7.205" gradientTransform="translate(-515.995 47.029) rotate(180)" gradientUnits="userSpaceOnUse">
      <stop offset="0" stop-color="#f2f2f2"/>
      <stop offset="1" stop-color="#999"/>
    </linearGradient>
    <linearGradient id="linear-gradient-4" x1="7.972" y1="46.006" x2="18.532" y2="35.423" gradientTransform="matrix(1, 0, 0, -1, -1.995, 47.029)" xlink:href="#linear-gradient-3"/>
    <linearGradient id="linear-gradient-5" x1="27.868" y1="769.868" x2="44.132" y2="786.132" gradientTransform="translate(0 -742)" gradientUnits="userSpaceOnUse">
      <stop offset="0" stop-color="#7fb8cd"/>
      <stop offset="0.175" stop-color="#72b0c8"/>
      <stop offset="0.457" stop-color="#559eb8"/>
      <stop offset="0.809" stop-color="#2982a1"/>
      <stop offset="1" stop-color="#0e7191"/>
    </linearGradient>
  </defs>
  <g id="g881">
    <path id="path31" d="M5.305,41.442c-.155,0-.312-.009-.472-.024A4.756,4.756,0,0,1,.567,37.229,2.263,2.263,0,0,1,.85,35.477L22.61,14.329a.677.677,0,0,0,.359-.658.541.541,0,0,0-.008-.106c-.123-.677-1.112-6.7,2.043-9.851A10.252,10.252,0,0,1,32.01.629c.166-.006.327-.011.488-.011a3.571,3.571,0,0,1,.765.068h0a5.294,5.294,0,0,1,.721.707l-4.3,4.271a.5.5,0,0,0-.1.146c-1.969,4.314-1.907,4.375-1.61,4.67l3.554,3.555a.5.5,0,0,0,.53.115l3.975-1.493a.5.5,0,0,0,.179-.116c.035-.035,3.44-3.464,4.512-4.474a3.25,3.25,0,0,1,.685.748,10.593,10.593,0,0,1-3.128,8.314,9.266,9.266,0,0,1-6.281,2.25c-.2.006-.4.01-.611.01a21.464,21.464,0,0,1-3.082-.223.765.765,0,0,0-.66.262l-21,21.619A1.969,1.969,0,0,1,5.305,41.442ZM5.669,35.1a1.346,1.346,0,0,0-.944,2.241,1.17,1.17,0,0,0,.876.37,1.465,1.465,0,0,0,.958-.408,1.349,1.349,0,0,0,.407-.952,1.245,1.245,0,0,0-.371-.882,1.166,1.166,0,0,0-.87-.37Z" fill="url(#linear-gradient)"/>
    <path id="path33" d="M32.5,1.116a3.528,3.528,0,0,1,.553.037c.051.043.123.111.226.217L29.335,5.311a.961.961,0,0,0-.2.292c-2.113,4.628-2.068,4.673-1.511,5.23l3.556,3.556a1,1,0,0,0,1.058.229l3.974-1.489a1.01,1.01,0,0,0,.358-.232c.032-.032,2.847-2.866,4.156-4.134.093.1.155.168.194.217a10.1,10.1,0,0,1-2.979,7.792,8.783,8.783,0,0,1-5.952,2.111c-.193.006-.393.01-.6.01a21.055,21.055,0,0,1-3-.218,1.053,1.053,0,0,0-.148-.011h-.036a1.212,1.212,0,0,0-.917.425L6.305,40.688a1.5,1.5,0,0,1-.993.254c-.138,0-.279-.008-.422-.022a4.259,4.259,0,0,1-3.825-3.754,1.991,1.991,0,0,1,.13-1.329L22.918,14.729a1.178,1.178,0,0,0,.551-1.04,1,1,0,0,0-.016-.212c-.118-.65-1.07-6.433,1.905-9.407a9.755,9.755,0,0,1,6.669-2.941c.157-.006.314-.011.47-.011M5.605,38.207h.068a1.929,1.929,0,0,0,1.245-.553,1.85,1.85,0,0,0,.553-1.245,1.735,1.735,0,0,0-.515-1.3A1.683,1.683,0,0,0,5.728,34.6H5.66a1.775,1.775,0,0,0-1.245.552,1.85,1.85,0,0,0-.553,1.245,1.735,1.735,0,0,0,.515,1.3,1.658,1.658,0,0,0,1.228.516M41.142,8.363h0M32.5.116c-.168,0-.336.006-.5.011a10.8,10.8,0,0,0-7.343,3.231c-3.089,3.089-2.472,8.7-2.181,10.294,0,.115-.008.23-.123.234L.5,35.12A2.691,2.691,0,0,0,.07,37.285a5.242,5.242,0,0,0,4.718,4.63,5.041,5.041,0,0,0,.522.027,2.368,2.368,0,0,0,1.7-.547L28.005,19.783c.119-.119.119-.119.234-.123a21.85,21.85,0,0,0,3.151.229c.216,0,.427,0,.631-.011a9.741,9.741,0,0,0,6.626-2.4,11.113,11.113,0,0,0,3.258-8.749c-.011-.262-.59-.814-.939-1.121a.342.342,0,0,0-.228-.086.4.4,0,0,0-.273.111c-1,.927-4.6,4.557-4.6,4.557l-3.98,1.492-3.556-3.553c-.111-.111,1.713-4.108,1.713-4.108L34.32,1.744a.53.53,0,0,0,.134-.579C34.343,1.054,33.606.2,33.372.2h0A4.051,4.051,0,0,0,32.5.119ZM5.605,37.207a.679.679,0,0,1-.521-.223A.845.845,0,0,1,5.693,35.6h.035a.677.677,0,0,1,.52.224.778.778,0,0,1-.016,1.1l-.027.025a.936.936,0,0,1-.572.261Z" fill="#464646"/>
    <path id="polygon37" d="M26.068,24.719l1.485-1.538L14.669,9.861,13.184,11.4Z" stroke="#474647" stroke-miterlimit="10" fill="url(#linear-gradient-2)"/>
    <path id="path39" d="M25.924,27.344l4.169-4.315L43.349,35.374a2.393,2.393,0,0,1-.029,3.269l-2.3,2.376a2.2,2.2,0,0,1-3.11.08c-.028-.026-.054-.053-.08-.08Zm-.688-1.657a1.415,1.415,0,0,1,.378-.6l.532-.552,2.006-2.074a.917.917,0,0,1,1.291-.034l.65.606-4.169,4.311-.587-.673A1.1,1.1,0,0,1,25.236,25.687Z" stroke="#474647" stroke-miterlimit="10" fill="url(#linear-gradient-3)"/>
    <path id="path41" d="M16.405,5.783,15.3,4.639,14.183,3.487a17.644,17.644,0,0,1,3.269-1.7A34.918,34.918,0,0,1,22.258.729C21.078,1.382,17.38,3.449,16.405,5.783ZM9.733,13.729l-.228-.24L6.747,10.637,6.52,10.4a.907.907,0,0,1,0-1.253l5.974-6.177a.838.838,0,0,1,1.185-.027l.027.027L16.921,6.3a.907.907,0,0,1,0,1.252L15.221,9.3h0l-.416.428-3.863,4A.858.858,0,0,1,9.733,13.729Zm-.772-.8L6.654,15.311l-.834-.862-.834-.862L7.293,11.2Zm-6.794.743.635-.657a1.061,1.061,0,0,1,1.5-.032l.032.032,1.447,1.5L7.16,15.941h0l.068.07a1.149,1.149,0,0,1,0,1.584l-.635.656Z" stroke="#474647" stroke-linejoin="round" fill="url(#linear-gradient-4)"/>
    <path id="circle43" d="M47.5,36A11.5,11.5,0,0,1,36,47.5h0A11.5,11.5,0,0,1,24.5,36h0a11.5,11.5,0,0,1,23,0Z" fill="url(#linear-gradient-5)"/>
    <path id="path45" d="M36,25A11,11,0,1,1,25,36,11,11,0,0,1,36,25m0-1A12,12,0,1,0,48,36,12,12,0,0,0,36,24Z" fill="#4e4a48"/>
    <path id="path49" d="M29.324,42.7a4.624,4.624,0,0,0,3.264,1.32h0a4.628,4.628,0,0,0,3.266-1.32l1.954-1.954a1.477,1.477,0,0,0,.413-1.2c1.154-.326,1.873-1.052,3.289-2.5.33-.338.692-.709,1.117-1.134a4.621,4.621,0,0,0-6.443-6.625l-.087.086-1.933,1.933a1.474,1.474,0,0,0-.412,1.207,4.514,4.514,0,0,0-1.959,1.174L29.324,36.16A4.632,4.632,0,0,0,29.324,42.7Zm6.02-7.123a1.514,1.514,0,0,0-.107-.227,1.619,1.619,0,0,1,1.388,1.216,1.267,1.267,0,0,0,.055.132A1.588,1.588,0,0,1,35.344,35.577Zm4.017-4.528A1.6,1.6,0,0,1,40.5,33.79c-.436.436-.809.817-1.144,1.161l-.093.094a4.575,4.575,0,0,0-2.314-2.278L38.22,31.5A1.611,1.611,0,0,1,39.361,31.049Zm-7.913,7.236,1.248-1.25A4.607,4.607,0,0,0,35,39.314l-1.262,1.262a1.617,1.617,0,0,1-2.282-2.291Z" fill="#177491"/>
    <path id="path51" d="M35.058,33.3A3.654,3.654,0,0,1,38.6,36.09a.5.5,0,0,1-.975.226v0a2.642,2.642,0,0,0-2.57-2.01,2.527,2.527,0,0,0-1.822.771l-2.469,2.474a2.627,2.627,0,0,0,0,3.706,2.672,2.672,0,0,0,3.7,0L36.422,39.3a.5.5,0,1,1,.705.711h0l-1.955,1.955a3.693,3.693,0,0,1-5.112,0,3.632,3.632,0,0,1,0-5.124l2.468-2.474A3.511,3.511,0,0,1,35.058,33.3Z" fill="#fff"/>
    <path id="path53" d="M39.388,28.993a3.627,3.627,0,0,1,2.557,6.186c-.431.431-.8.807-1.122,1.139-1.632,1.668-2.121,2.17-3.381,2.353a3.593,3.593,0,0,1-4-2.571.5.5,0,0,1,.956-.293v.017a2.606,2.606,0,0,0,2.9,1.855c.9-.13,1.222-.439,2.8-2.055.333-.341.7-.72,1.136-1.153a2.629,2.629,0,0,0,0-3.706,2.674,2.674,0,0,0-3.7,0L35.6,32.7a.5.5,0,0,1-.7-.706l1.93-1.938A3.591,3.591,0,0,1,39.388,28.993Z" fill="#fff"/>
  </g>
</svg>
