<svg id="svg68" xmlns="http://www.w3.org/2000/svg" xmlns:xlink="http://www.w3.org/1999/xlink" viewBox="0 0 48 48">
  <defs>
    <linearGradient id="linear-gradient" x1="45.14" y1="802.003" x2="84.14" y2="841.003" gradientTransform="translate(-35.125 -697.067) scale(0.875)" gradientUnits="userSpaceOnUse">
      <stop offset="0" stop-color="#fff"/>
      <stop offset="1" stop-color="#dcdcdc"/>
    </linearGradient>
    <linearGradient id="linear-gradient-2" x1="-50.096" y1="-613.312" x2="-46.096" y2="-617.312" gradientTransform="matrix(1.148, 0, 0, -1.148, 87.663, -673.804)" gradientUnits="userSpaceOnUse">
      <stop offset="0" stop-color="#73b4c8"/>
      <stop offset="0.175" stop-color="#6aaec3"/>
      <stop offset="0.457" stop-color="#529eb5"/>
      <stop offset="0.809" stop-color="#2c839f"/>
      <stop offset="1" stop-color="#147391"/>
    </linearGradient>
    <linearGradient id="linear-gradient-3" x1="-40.593" y1="-603.809" x2="-36.593" y2="-607.81" gradientTransform="matrix(1.148, 0, 0, -1.148, 87.663, -673.804)" gradientUnits="userSpaceOnUse">
      <stop offset="0" stop-color="#cde6eb"/>
      <stop offset="1" stop-color="#8cc3d2"/>
    </linearGradient>
    <linearGradient id="linear-gradient-4" x1="36.057" y1="-695.271" x2="40.057" y2="-699.271" gradientTransform="matrix(1, 0, 0, -1, -0.924, -678.382)" gradientUnits="userSpaceOnUse">
      <stop offset="0" stop-color="#afd7e1"/>
      <stop offset="1" stop-color="#73b4c8"/>
    </linearGradient>
    <linearGradient id="linear-gradient-5" x1="-61.098" y1="-624.813" x2="-54.097" y2="-624.813" gradientTransform="matrix(1.148, 0, 0, -1.148, 87.663, -673.804)" gradientUnits="userSpaceOnUse">
      <stop offset="0" stop-color="#fff"/>
      <stop offset="0.221" stop-color="#f8f8f8"/>
      <stop offset="0.541" stop-color="#e5e5e5"/>
      <stop offset="0.92" stop-color="#c6c6c6"/>
      <stop offset="1" stop-color="#bebebe"/>
    </linearGradient>
  </defs>
  <g id="g987">
    <path id="rect9" d="M.553,5.024l40.894.221V37.6L.553,37.381Z" fill="url(#linear-gradient)"/>
    <path id="path11" d="M40.9,5.636V37.205l-39.79-.216V5.422l39.79.214M42,4.853,0,4.627V37.772L42,38Z" fill="#6f6e6e"/>
    <path id="line15" d="M4.287,12.178H21.962" fill="none" stroke="#177491" stroke-miterlimit="10" stroke-width="0.689"/>
    <path id="line17" d="M4.287,15.416H16.336" fill="none" stroke="#177491" stroke-miterlimit="10" stroke-width="0.689"/>
    <path id="path21" d="M29.292,14.538l-2.167-2.854L24.938,13.7l4.329,5.909L36.838,9.24,34.676,7.276" fill="#0e7191"/>
    <path id="polygon23" d="M26.1,13.642l.8-.654L29.34,16.3l5.425-7.37.787.663L29.34,18.051Z" fill="#3b90b2"/>
    <path id="rect956" d="M4.375,26.559v6.125H10.5V26.559Zm.875.875H9.625v4.375H5.25Z" fill="#0e7191"/>
    <path id="path974" d="M6.125,28.309,8.75,30.934" fill="none" stroke="#0e7191" stroke-width="0.875"/>
    <path id="path974-6" d="M8.75,28.221,6.125,30.846" fill="none" stroke="#177491" stroke-width="0.875"/>
    <path id="rect956-7" d="M21.875,26.559v6.125H28V26.559Zm.875.875h4.375v4.375H22.75Z" fill="#177491"/>
    <path id="rect1006" d="M13.125,26.559H19.25v6.125H13.125Z" fill="#177491"/>
    <path id="rect1026" d="M22.365,27.121h2.579v2.5H22.365Z" fill="#0e7191"/>
    <path id="rect1026-5" d="M24.938,29.616h2.4v2.3h-2.4Z" fill="#0e7191"/>
    <path id="rect956-7-4" d="M30.625,26.559v6.125H36.75V26.559Zm.875.875h4.375v4.375H31.5Z" fill="#177491"/>
    <path id="rect1026-1" d="M31.5,27.434h.875v.875H31.5Z" fill="#177491"/>
    <path id="rect1026-1-3" d="M33.25,27.434h.875v.875H33.25Z" fill="#177491"/>
    <path id="rect1026-1-2" d="M35,27.434h.875v.875H35Z" fill="#177491"/>
    <path id="rect1026-1-1" d="M32.375,28.309h.875v.875h-.875Z" fill="#177491"/>
    <path id="rect1026-1-3-6" d="M34.125,28.309H35v.875h-.875Z" fill="#177491"/>
    <path id="rect1026-1-8" d="M31.5,29.184h.875v.875H31.5Z" fill="#177491"/>
    <path id="rect1026-1-3-7" d="M33.25,29.184h.875v.875H33.25Z" fill="#177491"/>
    <path id="rect1026-1-2-5" d="M35,29.184h.875v.875H35Z" fill="#177491"/>
    <path id="rect1026-1-1-8" d="M32.375,30.059h.875v.875h-.875Z" fill="#177491"/>
    <path id="rect1026-1-3-6-3" d="M34.125,30.059H35v.875h-.875Z" fill="#177491"/>
    <path id="rect1026-1-36" d="M31.5,30.934h.875v.875H31.5Z" fill="#177491"/>
    <path id="rect1026-1-3-61" d="M33.25,30.934h.875v.875H33.25Z" fill="#177491"/>
    <path id="rect1026-1-2-3" d="M35,30.934h.875v.875H35Z" fill="#177491"/>
    <path id="polygon78" d="M39.338,21.093l4.592,4.593L25.56,44.056l-4.593-4.593Z" fill="url(#linear-gradient-2)"/>
    <path id="polygon85" d="M47.375,22.241,43.93,25.686l-4.592-4.593,3.452-3.444Z" fill="url(#linear-gradient-3)"/>
    <path id="line92" d="M43.93,25.686l-4.592-4.593" stroke="#147391" stroke-linejoin="round" stroke-width="1.148" fill="url(#linear-gradient-4)"/>
    <path id="polygon105" d="M25.56,44.056,17.523,47.5l3.444-8.037Z" fill="url(#linear-gradient-5)"/>
    <path id="polygon107" d="M47.375,22.241,42.79,17.649,20.967,39.463,17.523,47.5l8.037-3.444Z" fill="none" stroke="#464646" stroke-linejoin="round"/>
    <path id="polygon109" d="M17.523,47.5l4.018-1.722-2.3-2.3Z" fill="#464646"/>
  </g>
</svg>
