<svg id="Image" xmlns="http://www.w3.org/2000/svg" xmlns:xlink="http://www.w3.org/1999/xlink" viewBox="0 0 48 48">
  <defs>
    <linearGradient id="linear-gradient" x1="3.307" y1="770.428" x2="4.569" y2="767.879" gradientTransform="translate(0 -742)" gradientUnits="userSpaceOnUse">
      <stop offset="0" stop-color="#bfdee8"/>
      <stop offset="0.159" stop-color="#b3d6e2"/>
      <stop offset="0.706" stop-color="#8ec1d3"/>
      <stop offset="1" stop-color="#7fb8cd"/>
    </linearGradient>
    <linearGradient id="linear-gradient-2" x1="-3.953" y1="773.756" x2="0.039" y2="769.6" xlink:href="#linear-gradient"/>
    <linearGradient id="linear-gradient-3" x1="186.831" y1="989.458" x2="201.963" y2="1004.59" gradientTransform="translate(-80.543 -584.035) scale(0.613)" gradientUnits="userSpaceOnUse">
      <stop offset="0" stop-color="#d9ecf1"/>
      <stop offset="0.221" stop-color="#d3e8ee"/>
      <stop offset="0.542" stop-color="#c3dfe8"/>
      <stop offset="0.921" stop-color="#a2ccdb"/>
      <stop offset="1" stop-color="#9bc8d7"/>
    </linearGradient>
    <linearGradient id="linear-gradient-4" x1="176.507" y1="999.783" x2="197.157" y2="1020.432" gradientTransform="translate(-80.543 -584.035) scale(0.613)" xlink:href="#linear-gradient"/>
    <linearGradient id="linear-gradient-5" x1="140.46" y1="218.048" x2="154.039" y2="214.961" gradientTransform="matrix(0.89, 0.455, 0.455, -0.89, -222.524, 133.441)" xlink:href="#linear-gradient"/>
    <linearGradient id="linear-gradient-6" x1="13.96" y1="44.893" x2="31.392" y2="28.103" gradientTransform="matrix(1, 0, 0, -1, 0, 51.666)" xlink:href="#linear-gradient"/>
    <linearGradient id="linear-gradient-7" x1="-1.279" y1="769.74" x2="0.282" y2="767.91" xlink:href="#linear-gradient"/>
  </defs>
  <g id="g906">
    <path id="path1069" d="M3.7,24.667l-.384,0-.023-.549-.023-.55,1.081-.154c.6-.016,1.315.082,1.571.06.438-.036.475-.044.632-.132a1.441,1.441,0,0,0,.508-.7c.2-.433.62-1.847,1.087-3.293a1.668,1.668,0,0,1,.411-.714.978.978,0,0,1,.189.1,4.327,4.327,0,0,0,.741.348c.048.015.089.04.089.056a15.3,15.3,0,0,1-.413,2.147A17.93,17.93,0,0,1,8.382,23.1a3.66,3.66,0,0,1-1.067,1.449c-.3.173-.555.263-2,.336A7.938,7.938,0,0,1,3.7,24.666Z" fill="url(#linear-gradient)"/>
    <path id="path1019" d="M3.458,23.1s1.658.051,2.72.025a.538.538,0,0,0,.3-.152.862.862,0,0,0,.229-.306c.668-1.48,1.5-3.839,1.5-3.839h0" fill="none" stroke="#464646" stroke-width="0.9"/>
    <path id="path1021" d="M3.458,24.98s1.44.043,3.152,0a1.929,1.929,0,0,0,.648-.153,2.1,2.1,0,0,0,.547-.368,3.314,3.314,0,0,0,.509-.6,2.562,2.562,0,0,0,.216-.394A40.359,40.359,0,0,0,10,19.438" fill="none" stroke="#4e4a48" stroke-width="0.9"/>
    <path id="path986" d="M12.966,16.9a2.683,2.683,0,0,1-2.644,2.721h0A2.683,2.683,0,0,1,7.678,16.9h0a2.645,2.645,0,1,1,5.288,0Z" stroke="#464646" stroke-width="0.941" fill="url(#linear-gradient-2)"/>
    <path id="path988" d="M10.983,16.946a.7.7,0,0,1-.661.737h0a.7.7,0,0,1-.661-.737h0a.665.665,0,1,1,1.322,0Z" fill="#4e4a48" stroke="#464646" stroke-width="0.941"/>
    <path id="rect984" d="M24.674,18.369l1.864,1.054L24.8,22.5,22.931,21.45Z" fill="#464646" stroke="#464646" stroke-width="0.895"/>
    <g id="g101">
      <path id="polygon89" d="M47.8,26.666V37.334l-9.268,5.36V32.026Z" fill="#3b90b2"/>
      <path id="polygon91" d="M38.514,21.306l9.284,5.36-9.268,5.36-9.269-5.36Z" fill="url(#linear-gradient-3)"/>
      <path id="polygon93" d="M38.53,42.694l-9.269-5.36V26.666l9.269,5.36Z" fill="url(#linear-gradient-4)"/>
      <path id="polyline95" d="M47.8,26.666l-9.268,5.36-9.269-5.36" fill="none" stroke="#0e7191" stroke-linejoin="round" stroke-width="0.613"/>
      <path id="line97" d="M38.53,32.026V42.694" fill="none" stroke="#0e7191" stroke-linejoin="round" stroke-width="0.613"/>
      <path id="polygon99" d="M38.53,42.694l9.268-5.36V26.666l-9.284-5.36-9.253,5.36V37.334Z" fill="none" stroke="#4e4a48" stroke-linejoin="round" stroke-width="0.613"/>
    </g>
    <path id="rect979" d="M5.808,3.878l19.12,9.779a1.918,1.918,0,0,1,.836,2.587l-2.426,4.743a1.918,1.918,0,0,1-2.587.836L1.631,12.044A1.918,1.918,0,0,1,.8,9.457L3.221,4.714A1.918,1.918,0,0,1,5.808,3.878Z" stroke="#464646" stroke-width="1.08" fill="url(#linear-gradient-5)"/>
    <path id="rect981" d="M9.463,3.875,29.829,14.186c.973.492,3.928,1.83,2.883,2.143l-4.331,1.3c-1.045.313-2.8.68-3.771.189L6.889,8.876a1.959,1.959,0,0,1-.85-2.652l.772-1.5A1.969,1.969,0,0,1,9.463,3.875Z" stroke="#464646" stroke-width="1.177" fill="url(#linear-gradient-6)"/>
    <path id="rect990" d="M1.572,20.455h.659a1.111,1.111,0,0,1,1.113,1.113v4.883a1.111,1.111,0,0,1-1.113,1.113H1.572A1.111,1.111,0,0,1,.459,26.451V21.568A1.111,1.111,0,0,1,1.572,20.455Z" stroke="#464646" stroke-width="0.888" fill="url(#linear-gradient-7)"/>
    <path id="rect992" d="M.454,20.467H.937v7.084H.454Z" fill="#73b4c8" stroke="#464646" stroke-width="0.891"/>
  </g>
</svg>
