<svg id="Livello_2" data-name="Livello 2" xmlns="http://www.w3.org/2000/svg" xmlns:xlink="http://www.w3.org/1999/xlink" viewBox="0 0 48 48">
  <defs>
    <linearGradient id="linear-gradient" x1="-0.787" y1="45.716" x2="45.517" y2="6.531" gradientTransform="matrix(1, 0, 0, -1, 0, 52)" gradientUnits="userSpaceOnUse">
      <stop offset="0" stop-color="#fff"/>
      <stop offset="0.221" stop-color="#fbfbfc"/>
      <stop offset="0.541" stop-color="#ececec"/>
      <stop offset="0.92" stop-color="#d0cecd"/>
      <stop offset="1" stop-color="#c9c6c5"/>
    </linearGradient>
    <linearGradient id="linear-gradient-2" x1="-213.124" y1="-422.588" x2="-207.575" y2="-427.995" gradientTransform="matrix(1.422, 0, 0, -1.413, 327.486, -573.707)" gradientUnits="userSpaceOnUse">
      <stop offset="0" stop-color="#74b3c7"/>
      <stop offset="0.177" stop-color="#6badc2"/>
      <stop offset="0.464" stop-color="#539db4"/>
      <stop offset="0.822" stop-color="#2d839d"/>
      <stop offset="1" stop-color="#177490"/>
    </linearGradient>
    <linearGradient id="linear-gradient-3" x1="-146.027" y1="1294.034" x2="-141.674" y2="1298.183" gradientTransform="translate(204.59 -1675.104) scale(1.313 1.305)" gradientUnits="userSpaceOnUse">
      <stop offset="0" stop-color="#fff"/>
      <stop offset="0.232" stop-color="#fafafa"/>
      <stop offset="0.496" stop-color="#ededed"/>
      <stop offset="0.775" stop-color="#d6d6d6"/>
      <stop offset="1" stop-color="#bebebe"/>
    </linearGradient>
    <linearGradient id="linear-gradient-4" x1="-145.94" y1="1302.067" x2="-141.635" y2="1306.269" xlink:href="#linear-gradient-3"/>
    <linearGradient id="linear-gradient-5" x1="-146.141" y1="1309.837" x2="-141.681" y2="1314.24" xlink:href="#linear-gradient-3"/>
    <linearGradient id="linear-gradient-6" x1="254.512" y1="175.143" x2="269.588" y2="173.016" gradientTransform="matrix(0.717, 0.41, 0.41, -0.717, -229.298, 52.584)" gradientUnits="userSpaceOnUse">
      <stop offset="0" stop-color="#f8f8f9"/>
      <stop offset="0.5" stop-color="#d5d4d4"/>
      <stop offset="0.63" stop-color="#d1cfce"/>
      <stop offset="0.779" stop-color="#c4c1c1"/>
      <stop offset="0.938" stop-color="#aba8a7"/>
      <stop offset="0.99" stop-color="#a29f9d"/>
    </linearGradient>
    <linearGradient id="linear-gradient-7" x1="88.477" y1="-58.524" x2="102.976" y2="-70.119" gradientTransform="matrix(0.826, 0, 0, -0.826, -39.557, -14.051)" xlink:href="#linear-gradient-6"/>
    <linearGradient id="linear-gradient-8" x1="257.093" y1="175.025" x2="262.57" y2="173.754" gradientTransform="matrix(0.717, 0.41, 0.41, -0.717, -229.297, 52.584)" gradientUnits="userSpaceOnUse">
      <stop offset="0" stop-color="#fff"/>
      <stop offset="0.221" stop-color="#f8f8f8"/>
      <stop offset="0.541" stop-color="#e5e5e5"/>
      <stop offset="0.92" stop-color="#c6c6c6"/>
      <stop offset="1" stop-color="#bebebe"/>
    </linearGradient>
    <linearGradient id="linear-gradient-9" x1="91.042" y1="-60.287" x2="95.1" y2="-64.182" gradientTransform="matrix(0.826, 0, 0, -0.826, -39.557, -14.051)" xlink:href="#linear-gradient-8"/>
    <linearGradient id="linear-gradient-10" x1="85.972" y1="-47.756" x2="101.66" y2="-58.732" gradientTransform="matrix(0.826, 0, 0, -0.826, -39.557, -14.051)" xlink:href="#linear-gradient-6"/>
    <linearGradient id="linear-gradient-11" x1="88.756" y1="-48.984" x2="93.242" y2="-53.993" gradientTransform="matrix(0.826, 0, 0, -0.826, -39.557, -14.051)" xlink:href="#linear-gradient-8"/>
  </defs>
  <g id="g953">
    <path id="path35" d="M.522,44.478H47.478V10.043H19.3L15.75,4.712a2.087,2.087,0,0,0-1.736-.929H2.609A2.087,2.087,0,0,0,.522,5.87h0Z" fill="url(#linear-gradient)"/>
    <path id="path37" d="M48,45H0V5.87A2.609,2.609,0,0,1,2.609,3.261H14.014a2.6,2.6,0,0,1,2.17,1.162l3.4,5.1H48ZM1.043,43.957H46.957V10.565H19.025L15.316,5a1.566,1.566,0,0,0-1.3-.7H2.609A1.566,1.566,0,0,0,1.043,5.866V43.957Z" fill="#464646"/>
    <path id="line53-4-3" d="M12,26.688h1.661" fill="none" stroke="#464646" stroke-miterlimit="10" stroke-width="0.709"/>
    <path id="rect49-8-5" d="M24.9,20.9h5.828V32.478H24.9Z" stroke="#147391" stroke-miterlimit="10" stroke-width="0.757" fill="url(#linear-gradient-2)"/>
    <path id="polyline57-7-9" d="M17.334,16.255h4.205V37.124H17.218" fill="none" stroke="#464646" stroke-miterlimit="13.533" stroke-width="0.682"/>
    <path id="line55-8-6" d="M16.337,26.688H25.18" fill="none" stroke="#147391" stroke-miterlimit="10" stroke-width="0.705"/>
    <path id="line53-4-9" d="M12,16.159h1.661" fill="none" stroke="#464646" stroke-miterlimit="10" stroke-width="0.709"/>
    <path id="rect43-7-7" d="M13.68,12.341h3.938V20.17H13.68Z" stroke="#147391" stroke-miterlimit="10" stroke-width="0.682" fill="url(#linear-gradient-3)"/>
    <path id="line53-4-6" d="M12,37.091h1.661" fill="none" stroke="#464646" stroke-miterlimit="10" stroke-width="0.709"/>
    <path id="rect43-7-1" d="M13.68,22.777h3.938v7.829H13.68Z" stroke="#147391" stroke-miterlimit="10" stroke-width="0.682" fill="url(#linear-gradient-4)"/>
    <path id="rect43-7-11" d="M13.68,33.205h3.938v7.829H13.68Z" stroke="#147391" stroke-miterlimit="10" stroke-width="0.682" fill="url(#linear-gradient-5)"/>
    <g id="g872">
      <path id="path28-3" d="M30.425,36.446l1.538.278.547-.955-1.019-1.186a.175.175,0,0,1,.031-.261l1.282-.89-.289-1.061-1.557-.119a.175.175,0,0,1-.16-.2l.275-1.532-.957-.548L28.935,30.98a.178.178,0,0,1-.258-.036l-.89-1.283-1.062.289-.117,1.557a.177.177,0,0,1-.209.161l-1.538-.278-.153.267-.395.686,1.018,1.186a.174.174,0,0,1-.03.261l-1.282.891.288,1.062,1.555.12a.178.178,0,0,1,.156.214l-.281,1.545.955.546,1.188-1.026a.172.172,0,0,1,.265.024l.89,1.282L30.1,38.16l.12-1.556A.176.176,0,0,1,30.425,36.446Z" stroke="#464646" stroke-linecap="round" stroke-linejoin="round" stroke-width="0.658" fill="url(#linear-gradient-6)"/>
      <path id="path30-9" d="M40.16,38.321l1.473-.521V36.7l-1.473-.521a.176.176,0,0,1-.1-.241l.67-1.408-.777-.781-1.41.67a.176.176,0,0,1-.24-.1l-.521-1.466h-1.1l-.52,1.466a.18.18,0,0,1-.241.095L34.5,33.746l-.778.778c1.092,2.26.519,1.013.669,1.409a.177.177,0,0,1-.1.241l-1.472.521v1.1l1.472.521a.175.175,0,0,1,.1.241l-.669,1.409.778.785,1.408-.668a.177.177,0,0,1,.241.107l.521,1.481h1.1l.521-1.481a.172.172,0,0,1,.24-.11l1.418.669.778-.779-.669-1.409A.176.176,0,0,1,40.16,38.321Z" stroke="#464646" stroke-linecap="round" stroke-linejoin="round" stroke-width="0.658" fill="url(#linear-gradient-7)"/>
      <circle id="circle36-6" cx="28.411" cy="34.056" r="1.202" stroke="#464646" stroke-linecap="round" stroke-miterlimit="6.627" stroke-width="0.658" fill="url(#linear-gradient-8)"/>
      <circle id="circle38-6" cx="37.226" cy="37.262" r="1.202" stroke="#464646" stroke-linecap="round" stroke-miterlimit="6.627" stroke-width="0.658" fill="url(#linear-gradient-9)"/>
      <path id="path32-1" d="M38.157,29.1l1.472-.521v-1.1l-1.472-.521a.174.174,0,0,1-.111-.22l.008-.02.67-1.409-.777-.781-1.41.671a.176.176,0,0,1-.235-.083L36.3,25.1l-.524-1.466h-1.1L34.151,25.1a.179.179,0,0,1-.232.1l-.008,0L32.5,24.528l-.777.778.669,1.409a.176.176,0,0,1-.087.234l-.016.007-1.472.523v1.1l1.472.521a.175.175,0,0,1,.111.222l-.008.018-.669,1.41.777.78,1.408-.668a.177.177,0,0,1,.234.09l.006.017.521,1.481h1.1l.521-1.481a.172.172,0,0,1,.241-.11l1.418.671.778-.778-.669-1.409a.177.177,0,0,1,.085-.235Z" stroke="#464646" stroke-linecap="round" stroke-linejoin="round" stroke-width="0.658" fill="url(#linear-gradient-10)"/>
      <circle id="circle34-7" cx="35.222" cy="28.044" r="1.202" stroke="#464646" stroke-linecap="round" stroke-miterlimit="6.627" stroke-width="0.658" fill="url(#linear-gradient-11)"/>
    </g>
  </g>
</svg>
