<svg id="Layer_1" data-name="Layer 1" xmlns="http://www.w3.org/2000/svg" xmlns:xlink="http://www.w3.org/1999/xlink" viewBox="0 0 48 48">
  <defs>
    <linearGradient id="linear-gradient" x1="-481.705" y1="1124.909" x2="-478.577" y2="1128.037" gradientTransform="translate(1105.686 -2502.313) scale(2.238)" gradientUnits="userSpaceOnUse">
      <stop offset="0" stop-color="#73b4c8"/>
      <stop offset="0.175" stop-color="#6aaec3"/>
      <stop offset="0.457" stop-color="#529eb5"/>
      <stop offset="0.809" stop-color="#2c839f"/>
      <stop offset="1" stop-color="#147391"/>
    </linearGradient>
    <linearGradient id="linear-gradient-2" x1="157.885" y1="-895.556" x2="184.031" y2="-921.702" gradientTransform="matrix(0.849, 0, 0, -0.849, -130.618, -747.463)" gradientUnits="userSpaceOnUse">
      <stop offset="0" stop-color="#fff"/>
      <stop offset="0.221" stop-color="#f8f8f8"/>
      <stop offset="0.541" stop-color="#e5e5e5"/>
      <stop offset="0.92" stop-color="#c6c6c6"/>
      <stop offset="1" stop-color="#bebebe"/>
    </linearGradient>
    <linearGradient id="linear-gradient-3" x1="303.144" y1="-1086.866" x2="326.27" y2="-1114.934" gradientTransform="matrix(0.741, 0, 0, -0.741, -221.293, -795.337)" xlink:href="#linear-gradient-2"/>
    <linearGradient id="linear-gradient-4" x1="-564.905" y1="1017.069" x2="-564.147" y2="1017.661" gradientTransform="translate(1780.96 -3146.018) scale(3.1)" xlink:href="#linear-gradient"/>
    <linearGradient id="linear-gradient-5" x1="-570.031" y1="1025.5" x2="-560.077" y2="1028.816" gradientTransform="translate(1780.96 -3146.018) scale(3.1)" gradientUnits="userSpaceOnUse">
      <stop offset="0" stop-color="#fff"/>
      <stop offset="1" stop-color="#bebebe"/>
    </linearGradient>
    <linearGradient id="linear-gradient-6" x1="-483.085" y1="1132.162" x2="-477.519" y2="1137.728" xlink:href="#linear-gradient"/>
    <linearGradient id="linear-gradient-7" x1="-482.835" y1="1129.266" x2="-477.638" y2="1134.463" xlink:href="#linear-gradient"/>
  </defs>
  <path id="path887" d="M28.99,8.33,19.881,37.881l11.492,1.78,10.119-2.542L33.254,7.373Z" fill="#fff"/>
  <path id="path867" d="M26.593,16.271l-1.169,3.865,2.692.9,3.182.27,3.83-.468,1.42-.521L36.3,18.337l-.557-2.1-1.654.342-3.865.233-1.618-.2Z" fill="url(#linear-gradient)"/>
  <path id="path1112" d="M11.479,6.143A11.1,11.1,0,0,0,.367,17.231h0v.025C.367,23.405,11.479,40.3,11.479,40.3S22.592,23.41,22.592,17.261A11.1,11.1,0,0,0,11.51,6.143h-.031Z" stroke="#464646" stroke-linecap="round" stroke-linejoin="round" stroke-width="0.849" fill="url(#linear-gradient-2)"/>
  <path id="path13" d="M22.649,17.255c0,6.149-11.112,23.04-11.112,23.04S.424,23.4.424,17.255a11.113,11.113,0,0,1,22.225-.211C22.65,17.114,22.65,17.185,22.649,17.255Z" stroke="#464646" stroke-linecap="round" stroke-linejoin="round" stroke-width="0.741" fill="url(#linear-gradient-3)"/>
  <path id="circle15" d="M15.241,15.773a3.7,3.7,0,0,1-3.7,3.7h0a3.7,3.7,0,1,1,3.7-3.7Z" fill="#fff" stroke="#464646" stroke-linecap="round" stroke-linejoin="round" stroke-width="0.741"/>
  <path id="path1132" d="M29.1,9.065c0-.022.1-.583.255-1.377A2.817,2.817,0,0,1,30.17,6a1.53,1.53,0,0,1,1.861-.019,1.716,1.716,0,0,1,.847,1.091,13.408,13.408,0,0,1,.328,1.99c-.021.031-4.158-.058-4.189-.058-.01,0,.035.072.035.062Z" fill="url(#linear-gradient-4)"/>
  <g id="g865">
    <g id="g867">
      <path id="rect828" d="M46.072,34.233a.62.62,0,0,0-.328-.064H40.5l1.548,4.276-22.692.287,1.614-4.573-4.238.033-3.71,8.58,34.6.145-1.46-8.449A.419.419,0,0,0,46.072,34.233Z" fill="#147391" stroke="#147391" stroke-linejoin="round" stroke-width="0.166"/>
    </g>
  </g>
  <g id="g859">
    <path id="rect828-6" d="M45.446,34.714l-4.609-.028.843,4.485-21.725-.316.984-4.141H17.383l-3.028,7.318,32.3.119Z" fill="url(#linear-gradient-5)"/>
  </g>
  <path id="path1122" d="M28.807,7.234,19.563,37.376l.363.127a33.217,33.217,0,0,0,21.533-.031l.351-.127L33.626,7.288l-.478.012.012.8h-.146l7.81,28.683a32.422,32.422,0,0,1-20.25.025L29.386,8.061l-.246-.012.037-.8Z" fill="#147391"/>
  <path id="path855" d="M31.234,5a2.277,2.277,0,0,0-1.8.92,3.279,3.279,0,0,0-.521.969c-.053.158-.111.32-.156.5-.031.124-.112.378-.164.57l.769.224c.044-.15.131-.41.179-.6.032-.132.082-.272.139-.437a2.486,2.486,0,0,1,.387-.732A1.46,1.46,0,0,1,31.225,5.8a1.493,1.493,0,0,1,1.157.656,2.486,2.486,0,0,1,.381.744c.051.158.1.328.146.492.061.227.132.456.151.56l.783-.132a5.783,5.783,0,0,0-.164-.634c-.047-.179-.1-.359-.157-.527a3.3,3.3,0,0,0-.509-.984A2.3,2.3,0,0,0,31.234,5Z" fill="#147391"/>
  <path id="path1130" d="M33.438,8.324a5.441,5.441,0,0,1-2.248.569,4.211,4.211,0,0,1-2.2-.563l-.4.714a5.128,5.128,0,0,0,2.6.672,5.9,5.9,0,0,0,2.646-.672Z" fill="#147391"/>
  <path id="rect871" d="M41.327,36.416a1.619,1.619,0,0,1,1.436.028l.03.071-.181.238H41.523Z" fill="#147391"/>
  <path id="rect871-5" d="M20.283,36.407a1.621,1.621,0,0,0-1.44.029l-.03.071.181.239h1.092Z" fill="#147391"/>
  <path id="path866" d="M30.027,40.382a40.465,40.465,0,0,1-10.071-1.73c-1.241-.379-1.186-.336-1.186-.907,0-.717.013-.726.726-.464a33.608,33.608,0,0,0,9,1.9,50.014,50.014,0,0,0,5.677-.089,42.31,42.31,0,0,0,7.619-1.7c.61-.213.858-.276.9-.231a1.166,1.166,0,0,1,.067.561c0,.6.058.548-1.058.94a31.578,31.578,0,0,1-11.673,1.73Z" stroke="#4d9ab2" stroke-linejoin="round" stroke-width="0.007" fill="url(#linear-gradient-6)"/>
  <path id="rect1019" d="M19.388,36.431a.886.886,0,0,0-.909.267,1.164,1.164,0,0,0-.308.793v.7a1.015,1.015,0,0,0,.338.745,1.573,1.573,0,0,0,.624.32c7.684,2.193,15.8,2.535,23.349-.006a1.761,1.761,0,0,0,.606-.314,1.014,1.014,0,0,0,.344-.745v-.7a1.155,1.155,0,0,0-.308-.793.88.88,0,0,0-.908-.267A35.91,35.91,0,0,1,19.388,36.431Zm-.274.8a36.744,36.744,0,0,0,23.373,0c-.006,0-.034-.016.012.036a.425.425,0,0,1,.09.224v.7c0,.062,0,.057-.054.1a1.045,1.045,0,0,1-.321.158c-7.351,2.476-15.3,2.15-22.853-.006a.856.856,0,0,1-.3-.139c-.05-.045-.054-.051-.054-.115v-.7a.427.427,0,0,1,.091-.224c.045-.051.018-.035.012-.036Z" fill="#147391"/>
  <path id="path877" d="M23.209,26.877l-1.78,6,3.506,1.492,5.105.36,4.836-.27,4.962-1.258.467-.162-1.852-6.274-4.314,1.1-3.937.2L26.7,27.668Z" fill="url(#linear-gradient-7)"/>
  <path id="path857" d="M22.984,26.382l-1.829,6.205v.082a1.112,1.112,0,0,0,.381.726,2.8,2.8,0,0,0,.751.473,10.6,10.6,0,0,0,2.313.678,34.759,34.759,0,0,0,6.568.544,30.837,30.837,0,0,0,6.247-.617,8.74,8.74,0,0,0,2.083-.69,2.373,2.373,0,0,0,.656-.478,1.081,1.081,0,0,0,.309-.714v-.058l-1.646-6.115-.405.109a27.54,27.54,0,0,1-7.241,1.12,23.5,23.5,0,0,1-7.772-1.12Zm.58,1a24.842,24.842,0,0,0,7.61,1.107,27.7,27.7,0,0,0,7.034-1.079l1.405,5.2c0,.021-.006.047-.073.121a1.7,1.7,0,0,1-.435.308,8.167,8.167,0,0,1-1.871.612,30.228,30.228,0,0,1-6.068.6,34.159,34.159,0,0,1-6.4-.532,10.077,10.077,0,0,1-2.119-.612,2.144,2.144,0,0,1-.532-.328.241.241,0,0,1-.091-.134Z" fill="#147391"/>
  <path id="path874" d="M26.234,15.74,24.745,20.6l.387.116a18.829,18.829,0,0,0,6.058,1,20.1,20.1,0,0,0,5.685-1l.369-.121-1.338-4.813-.375.082a21.441,21.441,0,0,1-4.341.542,17.533,17.533,0,0,1-4.577-.564Zm.563.938a18.435,18.435,0,0,0,4.4.539,21.434,21.434,0,0,0,4.123-.509l.92,3.305a19.108,19.108,0,0,1-5.067.9,17.858,17.858,0,0,1-5.4-.9Z" fill="#147391"/>
</svg>
