<svg id="Layer_1" data-name="Layer 1" xmlns="http://www.w3.org/2000/svg" xmlns:xlink="http://www.w3.org/1999/xlink" viewBox="0 0 48 48">
  <defs>
    <linearGradient id="linear-gradient" x1="10.765" y1="21.452" x2="22.793" y2="-10.717" gradientTransform="matrix(0.958, 0, 0, -0.958, -11.708, 26.458)" gradientUnits="userSpaceOnUse">
      <stop offset="0" stop-color="#f2f2f2"/>
      <stop offset="0.5" stop-color="#ccc"/>
      <stop offset="0.63" stop-color="#c7c7c7"/>
      <stop offset="0.779" stop-color="#b9b9b9"/>
      <stop offset="0.938" stop-color="#a2a2a2"/>
      <stop offset="0.99" stop-color="#999"/>
    </linearGradient>
    <linearGradient id="linear-gradient-2" x1="46.467" y1="7.12" x2="63.467" y2="-9.88" gradientTransform="matrix(0.958, 0, 0, -0.958, -11.708, 26.458)" gradientUnits="userSpaceOnUse">
      <stop offset="0" stop-color="#73b4c8"/>
      <stop offset="0.175" stop-color="#6aaec3"/>
      <stop offset="0.457" stop-color="#529eb5"/>
      <stop offset="0.809" stop-color="#2c839f"/>
      <stop offset="1" stop-color="#147391"/>
    </linearGradient>
    <linearGradient id="linear-gradient-3" x1="32.3" y1="6.981" x2="47.551" y2="-7.543" xlink:href="#linear-gradient-2"/>
    <linearGradient id="linear-gradient-4" x1="18.757" y1="7.329" x2="32.12" y2="-7.153" xlink:href="#linear-gradient-2"/>
    <linearGradient id="linear-gradient-5" x1="26.159" y1="23.84" x2="43.837" y2="6.162" gradientTransform="matrix(1, 0, 0, -1, 0.002, 50.001)" xlink:href="#linear-gradient-2"/>
  </defs>
  <g id="g1234">
    <path id="rect28-6" d="M.479.229H7.188V39.521H.479Z" stroke="#464646" stroke-linecap="round" stroke-miterlimit="10" stroke-width="0.958" fill="url(#linear-gradient)"/>
    <path id="line30-6" d="M.958,5.021h5.75" fill="none" stroke="#6e6e6e" stroke-miterlimit="10" stroke-width="0.958"/>
    <path id="line32-7" d="M.958,6.938h5.75" fill="none" stroke="#6e6e6e" stroke-miterlimit="10" stroke-width="0.958"/>
    <path id="polygon34-4" d="M45.521,39.521H32.1V20.354l13.417-8.625Z" stroke="#464646" stroke-linecap="round" stroke-linejoin="round" stroke-width="0.958" fill="url(#linear-gradient-2)"/>
    <path id="polygon36-5" d="M32.1,39.521H18.687V20.354L32.1,11.729Z" stroke="#464646" stroke-linecap="round" stroke-linejoin="round" stroke-width="0.958" fill="url(#linear-gradient-3)"/>
    <path id="polygon38-8" d="M18.687,39.521H5.271V20.354l13.416-8.625Z" stroke="#464646" stroke-linecap="round" stroke-linejoin="round" stroke-width="0.958" fill="url(#linear-gradient-4)"/>
    <path id="line40-7" d="M34.5,24.188h8.625" fill="none" stroke="#147391" stroke-linejoin="round" stroke-width="2.875"/>
    <path id="line42-3" d="M34.5,31.854h8.625" fill="none" stroke="#147391" stroke-linejoin="round" stroke-width="2.875"/>
    <path id="line44-8" d="M34.5,28.021h8.625" fill="none" stroke="#147391" stroke-linejoin="round" stroke-width="2.875"/>
    <path id="line46-8" d="M35.458,24.188h6.709" fill="none" stroke="#fff" stroke-linejoin="round" stroke-width="0.958"/>
    <path id="line48-9" d="M35.458,31.854h6.709" fill="none" stroke="#fff" stroke-linejoin="round" stroke-width="0.958"/>
    <path id="line50-6" d="M35.458,28.021h6.709" fill="none" stroke="#fff" stroke-linejoin="round" stroke-width="0.958"/>
    <path id="line52-4" d="M21.083,24.188h8.625" fill="none" stroke="#147391" stroke-linejoin="round" stroke-width="2.875"/>
    <path id="line54-2" d="M21.083,31.854h8.625" fill="none" stroke="#147391" stroke-linejoin="round" stroke-width="2.875"/>
    <path id="line56-3" d="M21.083,28.021h8.625" fill="none" stroke="#147391" stroke-linejoin="round" stroke-width="2.875"/>
    <path id="line58-4" d="M22.042,24.188H28.75" fill="none" stroke="#fff" stroke-linejoin="round" stroke-width="0.958"/>
    <path id="line60-2" d="M22.042,31.854H28.75" fill="none" stroke="#fff" stroke-linejoin="round" stroke-width="0.958"/>
    <path id="line62-2" d="M22.042,28.021H28.75" fill="none" stroke="#fff" stroke-linejoin="round" stroke-width="0.958"/>
    <path id="line64-4" d="M7.667,24.188h8.625" fill="none" stroke="#147391" stroke-linejoin="round" stroke-width="2.875"/>
    <path id="line66-3" d="M7.667,31.854h8.625" fill="none" stroke="#147391" stroke-linejoin="round" stroke-width="2.875"/>
    <path id="line68-9" d="M7.667,28.021h8.625" fill="none" stroke="#147391" stroke-linejoin="round" stroke-width="2.875"/>
    <path id="line70-2" d="M8.625,24.188h6.708" fill="none" stroke="#fff" stroke-linejoin="round" stroke-width="0.958"/>
    <path id="line72-4" d="M8.625,31.854h6.708" fill="none" stroke="#fff" stroke-linejoin="round" stroke-width="0.958"/>
    <path id="line74-7" d="M8.625,28.021h6.708" fill="none" stroke="#fff" stroke-linejoin="round" stroke-width="0.958"/>
    <path id="circle85" d="M47.5,35A12.5,12.5,0,1,1,35,22.5,12.5,12.5,0,0,1,47.5,35Z" stroke="#464646" stroke-linecap="round" stroke-linejoin="round" fill="url(#linear-gradient-5)"/>
    <path id="polygon87" d="M36.5,41.5l7-7-2-2-7,7v-2h-3v7h7v-3Z" fill="#fff" stroke="#147391"/>
    <path id="polygon89" d="M33.5,28.5l-7,7,2,2,7-7v2h3v-7h-7v3Z" fill="#fff" stroke="#147391"/>
  </g>
</svg>
