<svg id="Layer_1" data-name="Layer 1" xmlns="http://www.w3.org/2000/svg" xmlns:xlink="http://www.w3.org/1999/xlink" viewBox="0 0 48 48">
  <defs>
    <linearGradient id="linear-gradient" x1="-98.359" y1="118.646" x2="-77.459" y2="117.202" gradientTransform="matrix(1.321, 0, 0, -1.321, 140.653, 173.463)" gradientUnits="userSpaceOnUse">
      <stop offset="0" stop-color="#73b4c8"/>
      <stop offset="0.175" stop-color="#6aaec3"/>
      <stop offset="0.457" stop-color="#529eb5"/>
      <stop offset="0.809" stop-color="#2c839f"/>
      <stop offset="1" stop-color="#147391"/>
    </linearGradient>
    <linearGradient id="linear-gradient-2" x1="-95.114" y1="118.623" x2="-79.44" y2="110.714" xlink:href="#linear-gradient"/>
    <linearGradient id="linear-gradient-3" x1="10.035" y1="47.149" x2="17.054" y2="42.149" gradientTransform="matrix(1.028, 0, 0, -1.028, 7.934, 57.611)" gradientUnits="userSpaceOnUse">
      <stop offset="0" stop-color="#b1b1b1"/>
      <stop offset="1" stop-color="#7d7d7d"/>
    </linearGradient>
    <linearGradient id="linear-gradient-4" x1="0.679" y1="38.135" x2="5.692" y2="34.42" xlink:href="#linear-gradient-3"/>
    <linearGradient id="linear-gradient-5" x1="-91.595" y1="112.413" x2="-86.828" y2="109.772" gradientTransform="matrix(1.321, 0, 0, -1.321, 140.653, 173.463)" xlink:href="#linear-gradient-3"/>
    <linearGradient id="linear-gradient-6" x1="-275.019" y1="-442.712" x2="-272.951" y2="-442.712" gradientTransform="matrix(0.465, -0.323, -0.323, -0.465, 32.76, -299.364)" xlink:href="#linear-gradient-3"/>
    <linearGradient id="linear-gradient-7" x1="53.629" y1="-8.087" x2="74.42" y2="-27.835" gradientTransform="matrix(0.861, 0, 0, -0.861, -26.604, 13.365)" gradientUnits="userSpaceOnUse">
      <stop offset="0" stop-color="#fff"/>
      <stop offset="0.221" stop-color="#f8f8f8"/>
      <stop offset="0.541" stop-color="#e5e5e5"/>
      <stop offset="0.92" stop-color="#c6c6c6"/>
      <stop offset="1" stop-color="#bebebe"/>
    </linearGradient>
  </defs>
  <g id="g925">
    <ellipse id="path855-4" cx="20.88" cy="17.428" rx="15.895" ry="17.071" stroke="#464646" stroke-linecap="round" stroke-miterlimit="10" stroke-width="0.55" fill="url(#linear-gradient)"/>
    <path id="rect6657-4" d="M9.732,24.574l-.858.121a.027.027,0,0,0-.027.034.04.04,0,0,0-.043-.024l-.866.107a.026.026,0,0,0-.025.034l0-.014a.021.021,0,0,0-.023-.014l-.15.018a.014.014,0,0,0-.013.018l.1.319-.934.116-.1-.32a.048.048,0,0,0-.049-.03l-1.809.144c-.021,0-.031.018-.025.04l.1.352-.945.071-.107-.389a.026.026,0,0,0-.023-.02l-.154.008a.016.016,0,0,0-.014.021l0,.018a.051.051,0,0,0-.045-.038l-.876.033c-.02,0-.031.019-.026.041a.051.051,0,0,0-.047-.039L1.9,25.2c-.021,0-.033.02-.027.045a20.646,20.646,0,0,0,3.979,8.5,21.9,21.9,0,0,0,6.452,5.64c6.164,3.463,12.757,4.177,16.606,4.409,2.046.145,3.3.17,3.3.17s.01-.011.016-.015,1.868.077,4.682.047c2.025-.021,4.137-.1,6.4-.211V42.239l-.033-.264a.039.039,0,0,0-.041-.033l.074,0v-.19l-.454.023-.11-.921.354-.016a.034.034,0,0,0,.033-.038l-.215-1.769a.042.042,0,0,0-.042-.037l-.347.017-.108-.922.889-.043v-.185l-.566.028a.032.032,0,0,0,.031-.035l-.1-.854a.04.04,0,0,0-.04-.033l.676-.033v-.937c-2.745.134-5.243.233-7.628.238-3,.006-4.971-.126-4.971-.126s-.008.01-.014.014-.444-.023-1.218-.081c-2.572-.224-8.9-.724-13.272-3.379a14.016,14.016,0,0,1-4.163-3.62A12.861,12.861,0,0,1,9.778,24.6.041.041,0,0,0,9.732,24.574Zm-1.854.766.555,1.472-.914.21-.127-.307a.044.044,0,0,0-.05-.025l-1.78.323a.03.03,0,0,0-.022.043l.132.344-.929.166L4.124,25.75l.943-.08.11.351a.048.048,0,0,0,.049.033l1.8-.234c.02,0,.034-.018.027-.038l-.105-.318Zm1.215.11.316.817a.038.038,0,0,0-.045-.02l-.848.2a.028.028,0,0,0-.021.038l-.329-.869a.043.043,0,0,0,.045.025l.856-.152A.028.028,0,0,0,9.093,25.45Zm-5.047.687.372,1.095a.049.049,0,0,0-.049-.033l-.869.118c-.019,0-.029.023-.022.045L3.1,26.216a.047.047,0,0,0,.047.036l.872-.074A.03.03,0,0,0,4.046,26.137Zm5.667.816.386.77a.039.039,0,0,0-.047-.014l-.817.285a.029.029,0,0,0-.018.04l-.406-.824a.041.041,0,0,0,.047.02l.833-.24A.029.029,0,0,0,9.713,26.953ZM8.5,26.971l.686,1.4-.883.309-.154-.291a.046.046,0,0,0-.052-.022l-1.729.515a.03.03,0,0,0-.017.046l.167.33-.9.266-.795-1.758.927-.177.143.339a.047.047,0,0,0,.052.029L7.7,27.539a.033.033,0,0,0,.023-.044l-.134-.3ZM4.783,28.16l.477,1.061a.048.048,0,0,0-.052-.027l-.848.211a.031.031,0,0,0-.016.046l-.492-1.113a.05.05,0,0,0,.051.032l.86-.166A.03.03,0,0,0,4.783,28.16Zm5.679.2.461.712a.04.04,0,0,0-.049-.009l-.775.379a.029.029,0,0,0-.014.042L9.6,28.721a.04.04,0,0,0,.047.014l.8-.332a.028.028,0,0,0,.016-.04Zm-1.19.157.822,1.3-.839.414-.184-.273a.045.045,0,0,0-.054-.015l-1.65.714a.03.03,0,0,0-.013.047l.2.311-.862.372-.978-1.68.9-.277.177.325a.046.046,0,0,0,.054.024l1.691-.613a.031.031,0,0,0,.018-.045l-.162-.287Zm2.079,1.138.53.651a.04.04,0,0,0-.049,0l-.721.474a.029.029,0,0,0-.009.043s-.416-.509-.531-.661l-.033-.042a.038.038,0,0,0,.049.007s.04-.021.1-.056c.205-.115.651-.372.651-.372a.027.027,0,0,0,.012-.04Zm-1.16.3s.1.135.232.311c.273.361.726.885.726.885l-.777.515-.215-.249a.043.043,0,0,0-.054-.007l-1.545.916a.03.03,0,0,0-.007.049l.238.287-.806.479s-.245-.3-.506-.636c-.326-.432-.665-.936-.665-.936l.857-.383.211.3a.046.046,0,0,0,.056.016l1.6-.815a.03.03,0,0,0,.013-.045l-.194-.267Zm-4.472.156.587,1.013a.044.044,0,0,0-.052-.021l-.815.309c-.018.006-.023.027-.011.047l-.609-1.07a.049.049,0,0,0,.053.027l.833-.258A.031.031,0,0,0,5.719,30.116Zm6.653.728.608.591a.037.037,0,0,0-.047,0l-.66.555a.03.03,0,0,0,0,.045l-.645-.638a.038.038,0,0,0,.049,0l.692-.517a.027.027,0,0,0,.007-.041Zm-1.109.437,1.093,1.086-.708.605-.242-.224a.047.047,0,0,0-.056,0l-1.413,1.1a.029.029,0,0,0,0,.048l.267.257-.735.577L8.124,33.312l.8-.49.246.279a.046.046,0,0,0,.057.009l1.48-1.012a.031.031,0,0,0,.008-.047l-.223-.244Zm2.271.638.676.529a.04.04,0,0,0-.049.008l-.591.628a.029.029,0,0,0,0,.044l-.715-.569a.04.04,0,0,0,.05,0l.626-.593a.029.029,0,0,0,0-.043Zm-6.671.06s.258.368.466.645c.131.171.239.3.239.3a.045.045,0,0,0-.056-.014l-.768.408c-.017.009-.019.032,0,.051,0,0-.062-.079-.148-.192-.219-.291-.586-.819-.586-.819a.049.049,0,0,0,.056.022l.792-.358A.031.031,0,0,0,6.863,31.979Zm5.621.5,1.213.968-.634.683-.266-.2a.042.042,0,0,0-.054.005L11.471,35.2a.03.03,0,0,0,0,.048l.295.226-.662.662L9.624,34.879l.728-.586.275.25a.045.045,0,0,0,.058,0l1.344-1.184a.032.032,0,0,0,0-.049l-.248-.217Zm2.331.4.73.465a.037.037,0,0,0-.047.012l-.516.687a.03.03,0,0,0,.005.045l-.771-.5a.038.038,0,0,0,.047-.009l.556-.658a.03.03,0,0,0,0-.044Zm-.979.671,1.31.847-.553.748-.285-.171a.041.041,0,0,0-.053.011l-1.118,1.4a.032.032,0,0,0,.009.049l.314.194-.578.731-1.6-1.087.653-.669.3.217a.043.043,0,0,0,.056,0l1.2-1.332a.031.031,0,0,0-.006-.048l-.269-.192Zm-5.612.161.809.858a.048.048,0,0,0-.058-.009l-.7.5a.033.033,0,0,0,0,.051L7.427,34.2a.048.048,0,0,0,.058.014l.737-.459a.031.031,0,0,0,0-.048Zm7.976.014.784.412a.037.037,0,0,0-.045.016l-.449.729a.032.032,0,0,0,.011.045l-.824-.436a.036.036,0,0,0,.047-.012l.483-.711a.03.03,0,0,0-.007-.043Zm1.479.737.828.347a.038.038,0,0,0-.045.02l-.381.765a.031.031,0,0,0,.014.043l-.864-.367a.037.037,0,0,0,.046-.016l.413-.748a.031.031,0,0,0-.011-.044Zm-2.383.022,1.4.739-.477.792-.3-.147a.043.043,0,0,0-.053.016l-.963,1.5a.032.032,0,0,0,.015.047l.327.162-.5.783s-.95-.484-1.419-.752l-.262-.154.569-.739s.078.047.158.092l.16.093a.045.045,0,0,0,.057-.009l1.039-1.453a.034.034,0,0,0-.01-.049l-.289-.165Zm3.939.6.866.288a.038.038,0,0,0-.044.023l-.319.793a.031.031,0,0,0,.02.042l-.9-.3A.038.038,0,0,0,18.9,35.9l.349-.781A.031.031,0,0,0,19.235,35.079Zm-9.466.186.894.759a.048.048,0,0,0-.058,0l-.636.587a.033.033,0,0,0,.007.05l-.934-.8a.048.048,0,0,0,.058.007l.672-.548a.032.032,0,0,0,0-.049Zm7.081.031,1.464.62-.405.831-.311-.123a.041.041,0,0,0-.05.02l-.819,1.574a.034.034,0,0,0,.02.047l.336.136-.421.822-1.728-.759.488-.786.329.153a.042.042,0,0,0,.054-.014l.891-1.536a.035.035,0,0,0-.014-.049l-.3-.139Zm4.01.3.9.235a.036.036,0,0,0-.042.025l-.262.817a.031.031,0,0,0,.022.041l-.931-.247a.038.038,0,0,0,.044-.024l.291-.806A.031.031,0,0,0,20.86,35.591Zm-2.382.388,1.52.513-.336.862-.322-.1a.041.041,0,0,0-.049.024l-.685,1.637a.037.037,0,0,0,.024.047l.345.11-.35.856L16.859,39.3l.412-.827.34.128a.038.038,0,0,0,.05-.018l.752-1.606a.033.033,0,0,0-.018-.047l-.314-.118Zm4.066.029.923.188a.038.038,0,0,0-.04.029l-.211.833a.033.033,0,0,0,.025.04l-.954-.2a.037.037,0,0,0,.042-.027l.237-.826a.032.032,0,0,0-.022-.04Zm1.731.334.945.15a.038.038,0,0,0-.04.029l-.162.848a.032.032,0,0,0,.027.038l-.972-.156a.035.035,0,0,0,.039-.029l.186-.84A.031.031,0,0,0,24.275,36.342Zm-4.106.2,1.569.417-.275.887-.329-.083a.042.042,0,0,0-.047.027l-.562,1.69a.034.034,0,0,0,.028.043l.35.091-.285.881-1.8-.507.344-.86.347.106a.04.04,0,0,0,.05-.023l.622-1.664a.035.035,0,0,0-.022-.047l-.323-.094Zm5.875.063.963.119a.036.036,0,0,0-.04.029l-.121.853a.033.033,0,0,0,.029.038l-.986-.121a.035.035,0,0,0,.039-.029l.143-.851A.032.032,0,0,0,26.044,36.608Zm-14.579.027.965.656a.044.044,0,0,0-.056.006l-.56.657a.033.033,0,0,0,.013.049l-1.01-.7a.044.044,0,0,0,.057,0l.6-.623a.033.033,0,0,0-.009-.049Zm16.377.183.974.092a.034.034,0,0,0-.036.032l-.087.853a.036.036,0,0,0,.033.038l-1-.094a.035.035,0,0,0,.038-.03l.1-.853a.034.034,0,0,0-.029-.038Zm1.818.162.979.062c-.008,0-.021.009-.022.02s-.014,0-.014.012l-.054.855c0,.014.011.023.023.029l-.007.007-.981-.063a.034.034,0,0,0,.036-.031l.07-.855a.033.033,0,0,0-.03-.036ZM21.915,37l1.608.336-.22.9-.334-.063a.04.04,0,0,0-.046.029l-.45,1.728a.037.037,0,0,0,.031.043l.354.07-.226.9-1.814-.4.278-.884.353.084a.041.041,0,0,0,.049-.026l.5-1.709a.035.035,0,0,0-.025-.045l-.331-.076Zm19.85,0a.032.032,0,0,0-.031.036l.094.853a.036.036,0,0,0,.038.032l-1.017.044a.034.034,0,0,0,.032-.036l-.085-.855a.038.038,0,0,0-.038-.033Zm-1.872.072a.034.034,0,0,0-.033.036l.076.855a.036.036,0,0,0,.038.032l-1.016.031A.032.032,0,0,0,38.991,38l-.063-.855a.038.038,0,0,0-.038-.034Zm-8.379.011.885.034c.008,0,.008-.01.015-.014l.07,0a.035.035,0,0,0-.036.033L32.426,38a.036.036,0,0,0,.033.036l-1-.038c.008-.006.021-.009.021-.02s.014-.005.015-.013l.038-.856C31.532,37.1,31.521,37.093,31.514,37.087Zm6.514.041a.034.034,0,0,0-.033.035l.055.856a.035.035,0,0,0,.036.033l-1.01.018a.032.032,0,0,0,.032-.034l-.041-.857a.035.035,0,0,0-.037-.032Zm-4.695.006.991.016a.035.035,0,0,0-.035.035l.006.854a.035.035,0,0,0,.034.036l-1.005-.018a.032.032,0,0,0,.035-.032l.009-.857a.035.035,0,0,0-.035-.034Zm2.839.02a.033.033,0,0,0-.034.034l.03.857a.036.036,0,0,0,.037.034l-1.009,0a.035.035,0,0,0,.035-.034l-.018-.857a.035.035,0,0,0-.035-.034Zm-12.47.22,1.639.264-.168.916-.34-.05a.039.039,0,0,0-.043.032l-.347,1.753a.036.036,0,0,0,.031.042l.358.054-.174.914-1.825-.307.22-.9.356.065a.04.04,0,0,0,.047-.028l.4-1.742a.035.035,0,0,0-.027-.044l-.336-.059Zm1.823.289,1.661.206-.125.922-.341-.038a.04.04,0,0,0-.044.033l-.256,1.769a.034.034,0,0,0,.032.039l.358.04-.126.922-1.824-.228.168-.914.358.048a.038.038,0,0,0,.045-.03l.3-1.762a.038.038,0,0,0-.03-.044l-.34-.045Zm-12.235.149,1.01.543a.045.045,0,0,0-.054.011l-.48.712a.034.034,0,0,0,.016.049s-.81-.432-1.01-.546l-.045-.025a.043.043,0,0,0,.056-.007s.011-.013.028-.036c.108-.142.492-.653.492-.653a.033.033,0,0,0-.013-.048Zm14.08.077,1.675.156-.086.923-.344-.029a.037.037,0,0,0-.039.034L28.4,40.746a.035.035,0,0,0,.034.038l.356.029-.087.922-1.814-.158.123-.923.356.036a.038.038,0,0,0,.043-.032l.217-1.771a.037.037,0,0,0-.032-.042l-.342-.034Zm1.86.172.1.007c.364.027,1.594.1,1.594.1l-.051.908-.343-.018a.039.039,0,0,0-.04.036l-.11,1.773a.036.036,0,0,0,.036.038l.061,0c.006,0,.006.014.015.014l.278.015-.049.909-.381-.02a.017.017,0,0,0-.018.012s-.888-.052-1.261-.079l-.161-.011.083-.922.145.009.211.017a.038.038,0,0,0,.04-.035l.146-1.77a.036.036,0,0,0-.034-.04l-.228-.016-.116-.01Zm13,.034.105.922-.347.014a.036.036,0,0,0-.033.04l.2,1.771a.041.041,0,0,0,.043.034l.353-.016.108.922-1.78.075-.09-.923.354-.013a.034.034,0,0,0,.034-.038L41,39.111a.041.041,0,0,0-.042-.036l-.345.012-.089-.921Zm-1.9.076.086.924-.347.012a.035.035,0,0,0-.032.04L40.2,40.92a.039.039,0,0,0,.042.034l.354-.013.088.924-1.785.056L38.828,41l.355-.009a.035.035,0,0,0,.036-.036l-.138-1.774a.038.038,0,0,0-.039-.036l-.346.009-.066-.925Zm-9.151.011,1.2.049c.008,0,.012-.008.015-.015l.394.013-.018.923-.345-.011a.039.039,0,0,0-.038.038l-.047,1.775a.036.036,0,0,0,.038.036l.356.011-.018.925L31,41.861l.045-.909.356.016a.037.037,0,0,0,.04-.034l.076-1.774a.038.038,0,0,0-.035-.04l-.059,0c-.006,0-.007-.014-.015-.014l-.269-.013Zm7.259.047.063.923-.345.009a.036.036,0,0,0-.036.038l.115,1.775a.04.04,0,0,0,.04.036L38.633,41l.065.925-1.789.031-.043-.924.356-.005a.035.035,0,0,0,.036-.036l-.09-1.775a.041.041,0,0,0-.04-.038l-.345,0-.042-.923Zm-5.461.005,1.69.028.012.925-.345,0a.039.039,0,0,0-.038.038L34.313,41a.037.037,0,0,0,.038.037l.356,0,.012.925-1.8-.03.015-.926.356.01a.036.036,0,0,0,.038-.035l.018-1.776a.039.039,0,0,0-.038-.038l-.343-.009Zm3.572.028.04.923-.347,0a.034.034,0,0,0-.034.038L36.277,41a.039.039,0,0,0,.04.036l.354,0,.04.924-1.793,0-.016-.923h.356a.034.034,0,0,0,.036-.034l-.038-1.777a.039.039,0,0,0-.038-.038h-.345l-.015-.926Zm-21.367.525,1.039.458a.041.041,0,0,0-.053.014l-.408.752a.035.035,0,0,0,.022.047L14.7,39.577a.044.044,0,0,0,.056-.011l.445-.733a.033.033,0,0,0-.018-.046Zm1.946.815,1.061.38a.041.041,0,0,0-.051.018l-.341.786c-.008.017,0,.036.025.043l-1.1-.4a.043.043,0,0,0,.053-.017l.374-.769A.034.034,0,0,0,17.132,39.6Zm1.984.673,1.077.307a.038.038,0,0,0-.047.021l-.28.812a.035.035,0,0,0,.027.043l-1.113-.32a.042.042,0,0,0,.051-.021l.309-.8a.034.034,0,0,0-.024-.043Zm2.013.542,1.088.242a.037.037,0,0,0-.045.025l-.223.831a.035.035,0,0,0,.029.042l-1.12-.253a.041.041,0,0,0,.049-.024l.249-.822a.033.033,0,0,0-.027-.041Zm2.029.424,1.095.186a.04.04,0,0,0-.045.028l-.172.845a.037.037,0,0,0,.033.04l-1.124-.192a.04.04,0,0,0,.047-.027l.2-.838A.037.037,0,0,0,23.158,41.241Zm2.039.324,1.093.135a.04.04,0,0,0-.044.031l-.126.851a.037.037,0,0,0,.034.04l-1.118-.139a.037.037,0,0,0,.043-.029l.148-.849a.035.035,0,0,0-.03-.04Zm2.032.235,1.088.094a.037.037,0,0,0-.041.03l-.087.855a.034.034,0,0,0,.034.036l-1.109-.094a.039.039,0,0,0,.043-.031l.107-.854a.035.035,0,0,0-.035-.036Zm2.021.159,1.08.068c-.009.006-.023.008-.023.018s-.016.007-.017.015l-.054.853a.038.038,0,0,0,.036.038l-1.1-.069a.038.038,0,0,0,.041-.033L29.284,42a.036.036,0,0,0-.034-.038Zm13.071.025a.033.033,0,0,0-.032.036l.095.853a.042.042,0,0,0,.042.033l-1.075.047a.035.035,0,0,0,.034-.037l-.088-.854a.038.038,0,0,0-.04-.033Zm-1.982.079a.033.033,0,0,0-.034.035l.077.855a.04.04,0,0,0,.04.034l-1.079.034a.034.034,0,0,0,.035-.036l-.067-.855a.039.039,0,0,0-.04-.034Zm-9.048.011.991.038c.008,0,.013-.005.016-.012h.056a.037.037,0,0,0-.038.033l-.022.856a.036.036,0,0,0,.036.035l-1.095-.042c.01-.006.022-.007.022-.018s.016-.006.016-.014l.038-.855c0-.011-.011-.015-.02-.022Zm7.059.045a.036.036,0,0,0-.035.037l.058.854a.037.037,0,0,0,.038.035l-1.082.018a.036.036,0,0,0,.036-.035l-.045-.856a.038.038,0,0,0-.04-.033Zm-5.067.008,1.075.018a.033.033,0,0,0-.036.032l0,.857a.036.036,0,0,0,.038.034l-1.091-.018a.035.035,0,0,0,.038-.032l.007-.857a.035.035,0,0,0-.036-.034Zm3.073.021a.036.036,0,0,0-.036.035l.033.856a.039.039,0,0,0,.04.035H35.305a.034.034,0,0,0,.036-.034l-.02-.856a.037.037,0,0,0-.038-.035Z" fill="#464646"/>
    <ellipse id="path855" cx="16.169" cy="17.345" rx="15.895" ry="17.071" stroke="#464646" stroke-linecap="round" stroke-miterlimit="10" stroke-width="0.55" fill="url(#linear-gradient-2)"/>
    <path id="path929" d="M18.938,12.383a5.164,5.164,0,0,0-2.565-.879l-.2-.023V5.994l.341.023a9.853,9.853,0,0,1,4.045,1.1,10.8,10.8,0,0,1,3.952,3.567,3.458,3.458,0,0,1,.238.371c-.154.126-4.17,2.991-4.193,2.991A10.291,10.291,0,0,0,18.938,12.383Z" stroke="#464646" stroke-linecap="round" stroke-width="0.617" fill="url(#linear-gradient-3)"/>
    <path id="path931" d="M7.229,23.037a11.763,11.763,0,0,1-1.163-9.122,6.172,6.172,0,0,1,.875-2.073c.028.016,1.046.649,2.263,1.406l2.213,1.376-.141.353a6.052,6.052,0,0,0-.391,2.71,6.157,6.157,0,0,0,.744,2.432l.158.27-2.1,1.516c-1.155.833-2.125,1.525-2.155,1.537S7.393,23.32,7.229,23.037Z" stroke="#464646" stroke-linecap="round" stroke-width="0.617" fill="url(#linear-gradient-4)"/>
    <path id="path933" d="M16.246,26.633c-.015-.872-.027-2.079-.027-2.681v-1.1l.445-.049a5.207,5.207,0,0,0,3.592-2.124c.148-.2.275-.361.281-.361S24.781,22.969,24.819,23a7.965,7.965,0,0,1-.928,1.391,10.19,10.19,0,0,1-7.16,3.8l-.457.025Z" stroke="#464646" stroke-linecap="round" stroke-width="0.617" fill="url(#linear-gradient-5)"/>
    <path id="path967" d="M16.758,18.225l-.915-.43-.915-.43.83-.578.83-.577.085,1.007Z" stroke="#464646" stroke-linecap="round" stroke-miterlimit="5.284" stroke-width="0.41" fill="url(#linear-gradient-6)"/>
    <g id="g1172">
      <path id="path50" d="M22.43,24.152v8.607L37.063,47.391,47.391,37.063,32.759,22.43H24.168Zm4.787,1.238a1.292,1.292,0,1,1-1.827,0,1.291,1.291,0,0,1,1.827,0Z" stroke="#464646" stroke-miterlimit="8.607" stroke-width="0.861" fill="url(#linear-gradient-7)"/>
      <polygon id="polygon52" points="43.518 36.722 36.632 43.518 25.443 32.329 32.329 25.443 43.518 36.722" fill="#fff" stroke="#6e6e6e" stroke-miterlimit="8.607" stroke-width="0.861"/>
      <line id="line54" x1="33.189" y1="28.886" x2="28.455" y2="33.62" fill="none" stroke="#464646" stroke-miterlimit="8.607" stroke-width="0.861"/>
      <line id="line56" x1="34.481" y1="30.177" x2="29.747" y2="34.911" fill="none" stroke="#464646" stroke-miterlimit="8.607" stroke-width="0.861"/>
      <line id="line58" x1="36.202" y1="31.898" x2="31.468" y2="36.632" fill="none" stroke="#464646" stroke-miterlimit="8.607" stroke-width="0.861"/>
      <line id="line60" x1="37.493" y1="33.189" x2="32.759" y2="37.923" fill="none" stroke="#464646" stroke-miterlimit="8.607" stroke-width="0.861"/>
      <line id="line62" x1="38.784" y1="34.481" x2="34.05" y2="39.214" fill="none" stroke="#464646" stroke-miterlimit="8.607" stroke-width="0.861"/>
      <line id="line64" x1="40.506" y1="36.202" x2="35.772" y2="40.936" fill="none" stroke="#464646" stroke-miterlimit="8.607" stroke-width="0.861"/>
    </g>
    <path id="path1050" d="M26.285,16A1.817,1.817,0,1,0,28.1,17.821v0h0A1.817,1.817,0,0,0,26.285,16Zm0,1a.8.8,0,0,1,.8.8h0a.8.8,0,0,1-.8.8h0a.8.8,0,0,1-.8-.8h0A.8.8,0,0,1,26.285,17Z" fill="#464646"/>
    <path id="path1050-2" d="M26.312,24.5a1.817,1.817,0,1,0,1.816,1.819A1.816,1.816,0,0,0,26.312,24.5Zm0,1a.8.8,0,0,1,.8.8h0a.8.8,0,0,1-.8.8h0a.8.8,0,0,1-.8-.8h0A.8.8,0,0,1,26.312,25.5Z" fill="#464646"/>
    <path id="path914" d="M26.187,17.877c-1.909,4.854.011,8.209.021,8.228" fill="none" stroke="#6e6e6e" stroke-linecap="round" stroke-width="1.15"/>
  </g>
</svg>
