<svg id="Layer_1" data-name="Layer 1" xmlns="http://www.w3.org/2000/svg" xmlns:xlink="http://www.w3.org/1999/xlink" viewBox="0 0 48 48">
  <defs>
    <linearGradient id="linear-gradient" x1="9" y1="21.5" x2="26" y2="4.5" gradientTransform="matrix(1, 0, 0, -1, 0, 50)" gradientUnits="userSpaceOnUse">
      <stop offset="0" stop-color="#f2f2f2"/>
      <stop offset="0.5" stop-color="#ccc"/>
      <stop offset="0.63" stop-color="#c7c7c7"/>
      <stop offset="0.779" stop-color="#b9b9b9"/>
      <stop offset="0.938" stop-color="#a2a2a2"/>
      <stop offset="0.99" stop-color="#999"/>
    </linearGradient>
    <linearGradient id="linear-gradient-2" x1="5.479" y1="44.522" x2="29.521" y2="20.479" gradientTransform="matrix(1, 0, 0, -1, 0, 50)" gradientUnits="userSpaceOnUse">
      <stop offset="0" stop-color="#73b4c8"/>
      <stop offset="0.175" stop-color="#6aaec3"/>
      <stop offset="0.457" stop-color="#529eb5"/>
      <stop offset="0.809" stop-color="#2c839f"/>
      <stop offset="1" stop-color="#147391"/>
    </linearGradient>
    <linearGradient id="linear-gradient-3" x1="10.573" y1="39.422" x2="24.42" y2="25.576" gradientTransform="matrix(1, 0, 0, -1, 0, 50)" gradientUnits="userSpaceOnUse">
      <stop offset="0" stop-color="#cde6eb"/>
      <stop offset="0.221" stop-color="#c6e2e8"/>
      <stop offset="0.542" stop-color="#b3d8e1"/>
      <stop offset="0.921" stop-color="#93c7d5"/>
      <stop offset="1" stop-color="#8cc3d2"/>
    </linearGradient>
    <linearGradient id="linear-gradient-4" x1="-70.437" y1="-540.992" x2="-49.251" y2="-565.029" gradientTransform="matrix(1.006, 0, 0, -1.091, 95.29, -572.482)" xlink:href="#linear-gradient-2"/>
  </defs>
  <polyline id="polyline38" points="25.5 28 25.5 46 17.5 40.75 9.5 46 9.5 28" stroke="#464646" stroke-linecap="round" stroke-linejoin="round" fill="url(#linear-gradient)"/>
  <path id="path40" d="M31.646,18.47a.636.636,0,0,0-.083.837l2.282,3.151L30.2,23.811a.634.634,0,0,0-.4.741l.9,3.784-3.89-.147a.626.626,0,0,0-.65.533l-.615,3.841-3.535-1.622a.633.633,0,0,0-.8.244L19.174,34.5l-2.647-2.852a.633.633,0,0,0-.836-.083l-3.149,2.28L11.188,30.2a.628.628,0,0,0-.741-.4l-3.784.9.146-3.888a.636.636,0,0,0-.534-.65l-3.841-.615,1.624-3.536a.633.633,0,0,0-.244-.8L.5,19.173,3.352,16.53a.633.633,0,0,0,.083-.837L1.153,12.542,4.8,11.189a.632.632,0,0,0,.4-.741l-.9-3.786,3.89.148a.631.631,0,0,0,.649-.533l.614-3.842,3.536,1.624a.633.633,0,0,0,.8-.244L15.825.5l2.647,2.852a.634.634,0,0,0,.835.083l3.151-2.28L23.811,4.8a.629.629,0,0,0,.741.4l3.785-.9L28.19,8.183a.635.635,0,0,0,.533.65l3.842.615-1.624,3.535a.634.634,0,0,0,.244.8L34.5,15.826Z" stroke="#464646" stroke-linecap="round" stroke-linejoin="round" fill="url(#linear-gradient-2)"/>
  <path id="path42" d="M21.243,26.545a9.789,9.789,0,1,1,5.3-12.79l0,.006A9.79,9.79,0,0,1,21.243,26.545Z" stroke="#147391" stroke-linecap="round" stroke-linejoin="round" fill="url(#linear-gradient-3)"/>
  <polygon id="polygon44" points="11.329 19.704 12.652 17.941 16.036 19.704 21.467 12.2 23.23 13.533 17.059 24.112 11.329 19.704" fill="#fff" stroke="#147391" stroke-linecap="round" stroke-linejoin="round" stroke-width="0.994"/>
  <path id="rect25" d="M27.437,20.386H47.571V47.663H27.437Z" stroke="#464646" stroke-miterlimit="10" stroke-width="0.673" fill="url(#linear-gradient-4)"/>
  <path id="line33" d="M32.686,38.911h1.346" fill="none" stroke="#fff" stroke-miterlimit="9.5" stroke-width="0.873"/>
  <path id="line35" d="M32.686,36.892h1.346" fill="none" stroke="#fff" stroke-miterlimit="9.5" stroke-width="0.873"/>
  <path id="line37" d="M32.686,34.872h2.693" fill="none" stroke="#fff" stroke-miterlimit="9.5" stroke-width="0.873"/>
  <path id="polyline41" d="M38.747,41.459l1.768-.884V45.88" fill="none" stroke="#fff" stroke-linejoin="round" stroke-width="1.147"/>
  <path id="line45" d="M39.189,45.88h2.652" fill="none" stroke="#fff" stroke-linejoin="round" stroke-width="1.147"/>
  <path id="path862" d="M30.282,29.208l-1.255.879-1.254.875.008-1.767.007-1.765,1.25.888Z" fill="#fff"/>
  <path id="line29-0" d="M32.686,32.852h1.346" fill="none" stroke="#fff" stroke-miterlimit="9.5" stroke-width="0.873"/>
  <path id="line33-9" d="M32.686,30.833h1.346" fill="none" stroke="#fff" stroke-miterlimit="9.5" stroke-width="0.873"/>
  <path id="line29-3" d="M32.686,42.951h1.346" fill="none" stroke="#fff" stroke-miterlimit="9.5" stroke-width="0.873"/>
  <path id="line33-4" d="M32.686,40.931h1.346" fill="none" stroke="#fff" stroke-miterlimit="9.5" stroke-width="0.873"/>
  <path id="line27-3" d="M32.686,44.97h2.693" fill="none" stroke="#fff" stroke-miterlimit="9.5" stroke-width="0.873"/>
  <path id="line33-9-5" d="M32.686,28.813h1.346" fill="none" stroke="#fff" stroke-miterlimit="9.5" stroke-width="0.873"/>
  <path id="line35-1-1" d="M32.686,26.793h1.346" fill="none" stroke="#fff" stroke-miterlimit="9.5" stroke-width="0.873"/>
  <path id="line37-6-5" d="M32.686,24.774h2.693" fill="none" stroke="#fff" stroke-miterlimit="9.5" stroke-width="0.873"/>
  <path id="polyline41-4" d="M37.547,22.713l1.524-.762v4.571" fill="none" stroke="#fff" stroke-linejoin="round" stroke-width="0.988"/>
  <path id="line45-2" d="M37.928,26.522h2.285" fill="none" stroke="#fff" stroke-linejoin="round" stroke-width="0.988"/>
  <g id="text1093">
    <path id="path887" d="M44,24.224a4.623,4.623,0,0,1-.125,1.142,2.511,2.511,0,0,1-.357.838,1.579,1.579,0,0,1-.573.519,1.648,1.648,0,0,1-.771.175,1.556,1.556,0,0,1-.733-.168,1.523,1.523,0,0,1-.539-.5,2.4,2.4,0,0,1-.333-.8,4.681,4.681,0,0,1-.115-1.087,5.4,5.4,0,0,1,.118-1.189,2.625,2.625,0,0,1,.353-.861,1.512,1.512,0,0,1,.574-.526,1.684,1.684,0,0,1,.789-.179Q44,21.595,44,24.224Zm-.637.057q0-2.19-1.105-2.189-1.167,0-1.167,2.228,0,2.079,1.143,2.079T43.365,24.281Z" fill="#fff" stroke="#fff" stroke-miterlimit="3.047" stroke-width="0.413"/>
  </g>
</svg>
