<?xml version="1.0" encoding="UTF-8" standalone="no"?>
<svg
   xmlns:dc="http://purl.org/dc/elements/1.1/"
   xmlns:cc="http://creativecommons.org/ns#"
   xmlns:rdf="http://www.w3.org/1999/02/22-rdf-syntax-ns#"
   xmlns:svg="http://www.w3.org/2000/svg"
   xmlns="http://www.w3.org/2000/svg"
   xmlns:xlink="http://www.w3.org/1999/xlink"
   xmlns:sodipodi="http://sodipodi.sourceforge.net/DTD/sodipodi-0.dtd"
   xmlns:inkscape="http://www.inkscape.org/namespaces/inkscape"
   id="Layer_1"
   data-name="Layer 1"
   viewBox="0 0 48 48"
   version="1.1"
   sodipodi:docname="typeProcessTask48.svg"
   inkscape:version="0.92.4 (5da689c313, 2019-01-14)">
  <metadata
     id="metadata60">
    <rdf:RDF>
      <cc:Work
         rdf:about="">
        <dc:format>image/svg+xml</dc:format>
        <dc:type
           rdf:resource="http://purl.org/dc/dcmitype/StillImage" />
        <dc:title></dc:title>
      </cc:Work>
    </rdf:RDF>
  </metadata>
  <sodipodi:namedview
     pagecolor="#ffffff"
     bordercolor="#666666"
     borderopacity="1"
     objecttolerance="10"
     gridtolerance="10"
     guidetolerance="10"
     inkscape:pageopacity="0"
     inkscape:pageshadow="2"
     inkscape:window-width="763"
     inkscape:window-height="480"
     id="namedview58"
     showgrid="false"
     inkscape:zoom="4.9166667"
     inkscape:cx="-3.8644068"
     inkscape:cy="24"
     inkscape:window-x="0"
     inkscape:window-y="0"
     inkscape:window-maximized="0"
     inkscape:current-layer="Layer_1" />
  <defs
     id="defs46">
    <linearGradient
       id="linear-gradient"
       x1="4.75"
       y1="42.75"
       x2="43.25"
       y2="4.25"
       gradientTransform="matrix(1, 0, 0, -1, 0, 50)"
       gradientUnits="userSpaceOnUse">
      <stop
         offset="0"
         stop-color="#fff"
         id="stop2" />
      <stop
         offset="0.221"
         stop-color="#f8f8f8"
         id="stop4" />
      <stop
         offset="0.541"
         stop-color="#e5e5e5"
         id="stop6" />
      <stop
         offset="0.92"
         stop-color="#c6c6c6"
         id="stop8" />
      <stop
         offset="1"
         stop-color="#bebebe"
         id="stop10" />
    </linearGradient>
    <linearGradient
       id="linear-gradient-2"
       x1="7.75"
       y1="39.75"
       x2="40.25"
       y2="7.25"
       gradientTransform="matrix(1, 0, 0, -1, 0, 50)"
       gradientUnits="userSpaceOnUse">
      <stop
         offset="0"
         stop-color="#fff"
         id="stop13" />
      <stop
         offset="0.335"
         stop-color="#f8f8f8"
         id="stop15" />
      <stop
         offset="0.82"
         stop-color="#e5e5e5"
         id="stop17" />
      <stop
         offset="1"
         stop-color="#dcdcdc"
         id="stop19" />
    </linearGradient>
    <linearGradient
       id="linear-gradient-3"
       x1="24"
       y1="40.5"
       x2="24"
       y2="49.5"
       gradientTransform="matrix(1, 0, 0, -1, 0, 50)"
       gradientUnits="userSpaceOnUse">
      <stop
         offset="0"
         stop-color="#bebebe"
         id="stop22" />
      <stop
         offset="0.045"
         stop-color="#c4c4c4"
         id="stop24" />
      <stop
         offset="0.268"
         stop-color="#dedede"
         id="stop26" />
      <stop
         offset="0.497"
         stop-color="#f0f0f0"
         id="stop28" />
      <stop
         offset="0.736"
         stop-color="#fbfbfb"
         id="stop30" />
      <stop
         offset="1"
         stop-color="#fff"
         id="stop32" />
    </linearGradient>
    <linearGradient
       id="linear-gradient-4"
       x1="150.343"
       y1="-144.735"
       x2="162.24"
       y2="-144.735"
       gradientTransform="matrix(0.67, 0, 0, -0.67, -87.78, -77.174)"
       gradientUnits="userSpaceOnUse">
      <stop
         offset="0"
         stop-color="#7eb8cd"
         id="stop35" />
      <stop
         offset="1"
         stop-color="#097091"
         id="stop37" />
    </linearGradient>
    <linearGradient
       id="linear-gradient-5"
       x1="171.259"
       y1="-169.161"
       x2="183.156"
       y2="-169.161"
       xlink:href="#linear-gradient-4" />
    <linearGradient
       id="linear-gradient-6"
       x1="164.193"
       y1="-155.475"
       x2="180.228"
       y2="-155.475"
       gradientTransform="matrix(0.67, 0, 0, -0.67, -87.78, -77.174)"
       gradientUnits="userSpaceOnUse">
      <stop
         offset="0"
         stop-color="#fff"
         id="stop41" />
      <stop
         offset="1"
         stop-color="#dcdcdc"
         id="stop43" />
    </linearGradient>
  </defs>
  <g
     id="g861">
    <path
       id="rect13"
       d="M6.5,5.5h35v42H6.5Z"
       stroke="#464646"
       stroke-miterlimit="10"
       fill="url(#linear-gradient)" />
    <path
       id="rect24"
       d="M9.5,8.5h29v36H9.5Z"
       stroke="#bebebe"
       stroke-miterlimit="10"
       fill="url(#linear-gradient-2)" />
    <path
       id="path39"
       d="M30.5,4.5h-2v-1a3,3,0,0,0-3-3h-3a3,3,0,0,0-3,3v1h-2a2,2,0,0,0-2,2v3h17v-3A2,2,0,0,0,30.5,4.5Z"
       stroke="#464646"
       stroke-miterlimit="10"
       fill="url(#linear-gradient-3)" />
    <path
       id="circle41"
       d="M25,4a1,1,0,1,1-1-1A1,1,0,0,1,25,4Z"
       fill="#464646" />
    <path
       id="rect20"
       d="M13,17.069h7.975v5.557H13Z"
       fill="url(#linear-gradient-4)" />
    <path
       id="rect22"
       d="M27.023,33.443H35V39H27.023Z"
       fill="url(#linear-gradient-5)" />
    <path
       id="rect24-0"
       d="M22.286,23.04H33.035v8.015H22.286Z"
       fill="url(#linear-gradient-6)" />
    <path
       id="path26"
       d="M31.54,33.443a22.147,22.147,0,0,0-.19-2.387h1.686V23.04H28.193a10.7,10.7,0,0,0-7.216-3.7V17.069H13v5.557h7.977V20.012a10.216,10.216,0,0,1,6.306,3.026h-5v8.018h8.376a22.162,22.162,0,0,1,.2,2.387h-3.84V39H35V33.443ZM20.307,21.956H13.67V17.739h6.637Zm2.65,8.429V23.71h9.409v6.675ZM34.328,38.33H27.691V34.113h6.637Z"
       fill="#464646" />
  </g>
</svg>
