<svg id="Layer_1" data-name="Layer 1" xmlns="http://www.w3.org/2000/svg" xmlns:xlink="http://www.w3.org/1999/xlink" viewBox="0 0 48 48">
  <defs>
    <linearGradient id="linear-gradient" x1="-65.161" y1="667.152" x2="-59.701" y2="673.972" gradientTransform="translate(83.95 -678.935) scale(1.059 1.053)" gradientUnits="userSpaceOnUse">
      <stop offset="0" stop-color="#74b3c7"/>
      <stop offset="0.177" stop-color="#6badc2"/>
      <stop offset="0.464" stop-color="#539db4"/>
      <stop offset="0.822" stop-color="#2d839d"/>
      <stop offset="1" stop-color="#177490"/>
    </linearGradient>
    <linearGradient id="linear-gradient-2" x1="-78.375" y1="666.93" x2="-71.26" y2="675.133" xlink:href="#linear-gradient"/>
    <linearGradient id="linear-gradient-3" x1="-52.639" y1="666.515" x2="-45.837" y2="675.648" xlink:href="#linear-gradient"/>
    <linearGradient id="linear-gradient-4" x1="-1.423" y1="-675.713" x2="4.949" y2="-685.936" gradientTransform="matrix(0.978, 0, 0, -0.972, 15.24, -647.002)" xlink:href="#linear-gradient"/>
    <linearGradient id="linear-gradient-5" x1="-65.211" y1="677.998" x2="-59.969" y2="684.318" xlink:href="#linear-gradient"/>
    <linearGradient id="linear-gradient-6" x1="359.474" y1="-1168.448" x2="383.634" y2="-1186.675" gradientTransform="matrix(0.601, 0, 0, -0.601, -182.02, -693.653)" xlink:href="#linear-gradient"/>
  </defs>
  <g id="g860">
    <path id="line53" d="M5.52,25.859h9.3" fill="none" stroke="#464646" stroke-miterlimit="10"/>
    <path id="line55" d="M18.423,25.859h9.19" fill="none" stroke="#464646" stroke-miterlimit="10"/>
    <path id="polyline59" d="M14.791,14.465H10.537V37.257h4.328" fill="none" stroke="#464646" stroke-miterlimit="13.533"/>
    <path id="rect45" d="M14.838,21.587h4.3v8.551h-4.3Z" stroke="#147391" stroke-miterlimit="10" fill="url(#linear-gradient)"/>
    <path id="rect47" d="M.5,20.163H6.234v11.4H.5Z" stroke="#147391" stroke-miterlimit="10" fill="url(#linear-gradient-2)"/>
    <path id="rect49" d="M27.742,20.163h5.734v11.4H27.742Z" stroke="#147391" stroke-miterlimit="10" fill="url(#linear-gradient-3)"/>
    <path id="polyline57" d="M19.11,14.465h4.329V37.257H19.185" fill="none" stroke="#464646" stroke-miterlimit="13.533"/>
    <path id="rect43" d="M14.838,10.19h4.3v8.548h-4.3Z" stroke="#147391" stroke-miterlimit="10" fill="url(#linear-gradient-4)"/>
    <path id="rect51" d="M14.838,32.981h4.3v8.547h-4.3Z" stroke="#147391" stroke-miterlimit="10" fill="url(#linear-gradient-5)"/>
    <path id="polygon11" d="M39.048.514h8.375L43.889,9.123h3.458L40.469,20.57l2.422,1.3-7.223,5.686.065-9.427,2.522,1.292.946-7.617H36.154Z" fill="url(#linear-gradient-6)"/>
    <path id="path13" d="M35.759,27.861a.3.3,0,0,1-.3-.3l.064-9.427a.3.3,0,0,1,.3-.3.316.316,0,0,1,.135.033l2.141,1.1.851-6.853H36.248a.3.3,0,0,1-.3-.3.262.262,0,0,1,.01-.073l2.89-11.3A.3.3,0,0,1,39.14.213h8.375a.3.3,0,0,1,.3.3.3.3,0,0,1-.023.114L44.427,8.819h3.005a.3.3,0,0,1,.3.3.3.3,0,0,1-.043.154L40.973,20.448l2.146,1.162a.3.3,0,0,1,.12.408.292.292,0,0,1-.077.094L35.938,27.8a.287.287,0,0,1-.189.064Zm.361-9.238-.056,8.315,6.371-5.014-2.017-1.093a.3.3,0,0,1-.124-.405h0l.008-.014L46.908,9.423H43.982a.3.3,0,0,1-.3-.3.306.306,0,0,1,.023-.115L47.067.813H39.373L36.63,11.5H39.3a.3.3,0,0,1,.3.3h0v.04l-.947,7.618a.3.3,0,0,1-.157.228.3.3,0,0,1-.277,0Z" fill="#464646" stroke="#464646" stroke-width="0.317"/>
  </g>
</svg>
