<svg id="svg68" xmlns="http://www.w3.org/2000/svg" xmlns:xlink="http://www.w3.org/1999/xlink" viewBox="0 0 48 48">
  <defs>
    <linearGradient id="linear-gradient" x1="4.997" y1="749.003" x2="43.997" y2="788.003" gradientTransform="translate(0 -744)" gradientUnits="userSpaceOnUse">
      <stop offset="0" stop-color="#fff"/>
      <stop offset="1" stop-color="#dcdcdc"/>
    </linearGradient>
  </defs>
  <g id="g873">
    <path id="rect9" d="M.632,5.389l46.736.253V42.621L.632,42.369Z" fill="url(#linear-gradient)"/>
    <path id="path11" d="M47,6V42H1V6M48,5H0V43H48Z" fill="#6f6e6e"/>
    <path id="line15" d="M5,13.5H25" fill="none" stroke="#177491" stroke-miterlimit="10"/>
    <path id="line17" d="M5,17.5H19" fill="none" stroke="#177491" stroke-miterlimit="10" stroke-width="1.008"/>
    <path id="rect956" d="M5,30v7h7V30Zm1,1h5v5H6Z" fill="#0e7191"/>
    <path id="path974" d="M7,32l3,3" fill="none" stroke="#0e7191"/>
    <path id="path974-6" d="M10,31.9l-3,3" fill="none" stroke="#177491"/>
    <path id="rect956-7" d="M25,30v7h7V30Zm1,1h5v5H26Z" fill="#177491"/>
    <path id="rect1006" d="M15,30h7v7H15Z" fill="#177491"/>
    <path id="rect1026" d="M25.56,30.643h2.947V33.5H25.56Z" fill="#0e7191"/>
    <path id="rect1026-5" d="M28.5,33.494h2.745v2.632H28.5Z" fill="#0e7191"/>
    <path id="rect956-7-4" d="M35,30v7h7V30Zm1,1h5v5H36Z" fill="#177491"/>
    <path id="rect1026-1" d="M36,31h1v1H36Z" fill="#177491"/>
    <path id="rect1026-1-3" d="M38,31h1v1H38Z" fill="#177491"/>
    <path id="rect1026-1-2" d="M40,31h1v1H40Z" fill="#177491"/>
    <path id="rect1026-1-1" d="M37,32h1v1H37Z" fill="#177491"/>
    <path id="rect1026-1-3-6" d="M39,32h1v1H39Z" fill="#177491"/>
    <path id="rect1026-1-8" d="M36,33h1v1H36Z" fill="#177491"/>
    <path id="rect1026-1-3-7" d="M38,33h1v1H38Z" fill="#177491"/>
    <path id="rect1026-1-2-5" d="M40,33h1v1H40Z" fill="#177491"/>
    <path id="rect1026-1-1-8" d="M37,34h1v1H37Z" fill="#177491"/>
    <path id="rect1026-1-3-6-3" d="M39,34h1v1H39Z" fill="#177491"/>
    <path id="rect1026-1-36" d="M36,35h1v1H36Z" fill="#177491"/>
    <path id="rect1026-1-3-61" d="M38,35h1v1H38Z" fill="#177491"/>
    <path id="rect1026-1-2-3" d="M40,35h1v1H40Z" fill="#177491"/>
    <path id="path45" d="M35,20.934a1.25,1.25,0,0,1-1.249-1.25v-1.44a3.679,3.679,0,0,1,2.121-3.332,2.082,2.082,0,0,0-.484-3.938A2.293,2.293,0,0,0,35,10.94a2.057,2.057,0,0,0-1.337.485,2.085,2.085,0,0,0-.745,1.6,1.25,1.25,0,0,1-2.5,0A4.581,4.581,0,0,1,35,8.441H35a4.63,4.63,0,0,1,.814.072,4.58,4.58,0,0,1,1.1,8.667,1.172,1.172,0,0,0-.672,1.063v1.441A1.25,1.25,0,0,1,35,20.934Z" fill="#3b90b2"/>
    <path id="path47" d="M35,8.858A4.163,4.163,0,0,1,36.743,16.8a1.589,1.589,0,0,0-.913,1.441v1.441a.833.833,0,0,1-1.666,0v-1.44a3.259,3.259,0,0,1,1.88-2.953,2.5,2.5,0,0,0-.587-4.727,2.731,2.731,0,0,0-.46-.041,2.5,2.5,0,0,0-2.5,2.5.833.833,0,0,1-1.665,0A4.164,4.164,0,0,1,35,8.858H35m0-.833h0a5,5,0,0,0-5,4.992v.005a1.666,1.666,0,0,0,3.331,0h0a1.666,1.666,0,0,1,.6-1.277A1.643,1.643,0,0,1,35,11.356a1.782,1.782,0,0,1,.318.028,1.665,1.665,0,0,1,.38,3.149,4.1,4.1,0,0,0-2.364,3.71v1.441a1.666,1.666,0,0,0,3.332,0v-1.44a.749.749,0,0,1,.43-.685A5,5,0,0,0,35.888,8.1,5.143,5.143,0,0,0,35,8.025Z" fill="#147391"/>
    <path id="path49" d="M35,25.354a1.676,1.676,0,0,1-1.183-.5,1.671,1.671,0,0,1,2.365-2.36A1.68,1.68,0,0,1,35,25.354Z" fill="#3b90b2"/>
    <path id="path51" d="M35,22.439a1.238,1.238,0,0,1,.882.349A1.3,1.3,0,1,1,35,22.439m0-.833a2.048,2.048,0,0,0-2.086,2.009v.065a2.1,2.1,0,1,0,2.119-2.074Z" fill="#147391"/>
  </g>
</svg>
