<svg id="Layer_1" data-name="Layer 1" xmlns="http://www.w3.org/2000/svg" xmlns:xlink="http://www.w3.org/1999/xlink" viewBox="0 0 48 48">
  <defs>
    <linearGradient id="linear-gradient" x1="9.27" y1="45.622" x2="23.744" y2="34.706" gradientTransform="matrix(1, 0, 0, -1, 0, 50)" gradientUnits="userSpaceOnUse">
      <stop offset="0" stop-color="#afd7e1"/>
      <stop offset="0.159" stop-color="#a4d0dc"/>
      <stop offset="0.706" stop-color="#80bcce"/>
      <stop offset="1" stop-color="#73b4c8"/>
    </linearGradient>
    <linearGradient id="linear-gradient-2" x1="0.838" y1="39.256" x2="16.018" y2="13.659" xlink:href="#linear-gradient"/>
    <linearGradient id="linear-gradient-3" x1="9.5" y1="26.412" x2="21.5" y2="26.412" gradientTransform="matrix(1, 0, 0, -1, 0, 50)" gradientUnits="userSpaceOnUse">
      <stop offset="0" stop-color="#fff"/>
      <stop offset="0.221" stop-color="#f8f8f8"/>
      <stop offset="0.541" stop-color="#e5e5e5"/>
      <stop offset="0.92" stop-color="#c6c6c6"/>
      <stop offset="1" stop-color="#bebebe"/>
    </linearGradient>
    <linearGradient id="linear-gradient-4" x1="20.968" y1="22.44" x2="31.11" y2="32.583" gradientTransform="matrix(1, 0, 0, -1, 0, 50)" gradientUnits="userSpaceOnUse">
      <stop offset="0" stop-color="#bebebe"/>
      <stop offset="0.08" stop-color="#c6c6c6"/>
      <stop offset="0.459" stop-color="#e5e5e5"/>
      <stop offset="0.779" stop-color="#f8f8f8"/>
      <stop offset="1" stop-color="#fff"/>
    </linearGradient>
    <linearGradient id="linear-gradient-5" x1="16.969" y1="-717.639" x2="47.223" y2="-741.385" gradientTransform="matrix(1, 0, 0, -1, -0.001, -693.999)" gradientUnits="userSpaceOnUse">
      <stop offset="0" stop-color="#fff"/>
      <stop offset="1" stop-color="#dcdcdc"/>
    </linearGradient>
  </defs>
  <g id="g937">
    <g id="g51">
      <polygon id="polygon43" points="32.5 9.831 32.5 28.247 16.5 37.5 16.5 19.083 32.5 9.831" fill="#3c91af"/>
      <polygon id="polygon45" points="16.473 0.578 32.5 9.831 16.5 19.083 0.5 9.83 16.473 0.578" fill="url(#linear-gradient)"/>
      <polygon id="polygon47" points="16.5 37.5 0.5 28.246 0.5 9.83 16.5 19.083 16.5 37.5" fill="url(#linear-gradient-2)"/>
      <line id="line49" x1="16.5" y1="19.402" x2="16.5" y2="37.284" fill="none" stroke="#147391" stroke-linejoin="round"/>
    </g>
    <polyline id="polyline53" points="32.5 9.831 16.5 19.083 0.5 9.83" fill="none" stroke="#147391" stroke-linejoin="round"/>
    <polygon id="polygon55" points="2.5 24.755 14.5 31.67 14.5 22.419 2.5 15.505 2.5 24.755" stroke="#147391" stroke-linejoin="round" fill="url(#linear-gradient-3)"/>
    <line id="line57" x1="4.5" y1="18.332" x2="4.5" y2="24.361" fill="none" stroke="#6e6e6e" stroke-miterlimit="10"/>
    <line id="line59" x1="6.5" y1="19.484" x2="6.5" y2="24.013" fill="none" stroke="#6e6e6e" stroke-miterlimit="10"/>
    <line id="line61" x1="8.5" y1="20.713" x2="8.5" y2="26.742" fill="none" stroke="#6e6e6e" stroke-miterlimit="10"/>
    <line id="line63" x1="10.5" y1="21.865" x2="10.5" y2="26.644" fill="none" stroke="#6e6e6e" stroke-miterlimit="10"/>
    <line id="line65" x1="12.5" y1="23.078" x2="12.5" y2="29.078" fill="none" stroke="#6e6e6e" stroke-miterlimit="10"/>
    <polygon id="polygon67" points="21.5 20.919 21.5 30.17 28.5 26.136 28.5 16.885 21.5 20.919" stroke="#147391" stroke-linejoin="round" fill="url(#linear-gradient-4)"/>
    <polyline id="polyline69" points="23.153 24.361 25.003 26.211 27.033 19.767" fill="none" stroke="#6e6e6e" stroke-linecap="round" stroke-linejoin="round"/>
    <line id="line71" x1="24.474" y1="5.381" x2="8.753" y2="14.471" fill="none" stroke="#147391" stroke-linejoin="round"/>
    <polygon id="polygon73" points="32.5 9.831 16.473 0.578 0.5 9.83 0.5 28.246 16.5 37.5 32.5 28.247 32.5 9.831" fill="none" stroke="#464646" stroke-linejoin="round"/>
    <path id="rect9" d="M20.466,26.225l27.058.147V47.781l-27.058-.146Z" fill="url(#linear-gradient-5)"/>
    <path id="path11" d="M47,27V47H21V27m27-1.167H20V48H48Z" fill="#6f6e6e"/>
    <path id="line15" d="M23,30.921H34.574" fill="none" stroke="#177491" stroke-miterlimit="10"/>
    <path id="line17" d="M23,33.237H31.1" fill="none" stroke="#177491" stroke-miterlimit="10"/>
    <path id="rect956" d="M23,40.474v4.052h4.052V40.474Zm.579.579h2.894v2.894H23.574Z" fill="#0e7191"/>
    <path id="path974" d="M24.153,41.632l1.736,1.736" fill="none" stroke="#0e7191" stroke-width="0.579"/>
    <path id="path974-6" d="M25.889,41.574l-1.736,1.737" fill="none" stroke="#177491" stroke-width="0.579"/>
    <path id="rect956-7" d="M34.574,40.474v4.052h4.052V40.474Zm.579.579h2.894v2.894H35.153Z" fill="#177491"/>
    <path id="rect1006" d="M28.784,40.474h4.053v4.052H28.784Z" fill="#177491"/>
    <path id="rect1026" d="M34.9,40.846H36.6V42.5H34.9Z" fill="#0e7191"/>
    <path id="rect1026-5" d="M36.6,42.5h1.589V44.02H36.6Z" fill="#0e7191"/>
    <path id="rect956-7-4" d="M40.363,40.474v4.052h4.053V40.474Zm.579.579h2.9v2.894h-2.9Z" fill="#177491"/>
    <path id="rect1026-1" d="M40.942,41.053h.579v.579h-.579Z" fill="#177491"/>
    <path id="rect1026-1-3" d="M42.1,41.053h.579v.579H42.1Z" fill="#177491"/>
    <path id="rect1026-1-2" d="M43.258,41.053h.579v.579h-.579Z" fill="#177491"/>
    <path id="rect1026-1-1" d="M41.521,41.632H42.1v.579h-.579Z" fill="#177491"/>
    <path id="rect1026-1-3-6" d="M42.679,41.632h.579v.579h-.579Z" fill="#177491"/>
    <path id="rect1026-1-8" d="M40.942,42.211h.579v.578h-.579Z" fill="#177491"/>
    <path id="rect1026-1-3-7" d="M42.1,42.211h.579v.578H42.1Z" fill="#177491"/>
    <path id="rect1026-1-2-5" d="M43.258,42.211h.579v.578h-.579Z" fill="#177491"/>
    <path id="rect1026-1-1-8" d="M41.521,42.789H42.1v.579h-.579Z" fill="#177491"/>
    <path id="rect1026-1-3-6-3" d="M42.679,42.789h.579v.579h-.579Z" fill="#177491"/>
    <path id="rect1026-1-36" d="M40.942,43.368h.579v.579h-.579Z" fill="#177491"/>
    <path id="rect1026-1-3-61" d="M42.1,43.368h.579v.579H42.1Z" fill="#177491"/>
    <path id="rect1026-1-2-3" d="M43.258,43.368h.579v.579h-.579Z" fill="#177491"/>
    <path id="polygon87" d="M42.955,32.714l-6.312-.047-.013,1.7,6.312.047-1.421,1.714,1.332,1.042L45.8,33.526l-2.942-3.647-1.3,1.051Z" fill="#3b90b2" stroke="#147391" stroke-width="0.594"/>
  </g>
</svg>
