<svg id="Layer_1" data-name="Layer 1" xmlns="http://www.w3.org/2000/svg" xmlns:xlink="http://www.w3.org/1999/xlink" viewBox="0 0 48 48">
  <defs>
    <linearGradient id="linear-gradient" x1="51.728" y1="-6.586" x2="78.557" y2="-33.414" gradientTransform="matrix(0.875, 0, 0, -0.875, -35.125, -2.625)" gradientUnits="userSpaceOnUse">
      <stop offset="0" stop-color="#73b4c8"/>
      <stop offset="0.175" stop-color="#6aaec3"/>
      <stop offset="0.457" stop-color="#529eb5"/>
      <stop offset="0.809" stop-color="#2c839f"/>
      <stop offset="1" stop-color="#147391"/>
    </linearGradient>
    <linearGradient id="linear-gradient-2" x1="73.271" y1="-31.043" x2="87.186" y2="-44.957" xlink:href="#linear-gradient"/>
    <linearGradient id="linear-gradient-3" x1="370.402" y1="-1184.248" x2="409.402" y2="-1223.248" gradientTransform="matrix(0.542, 0, 0, -0.539, -176.173, -611.164)" gradientUnits="userSpaceOnUse">
      <stop offset="0" stop-color="#fff"/>
      <stop offset="1" stop-color="#dcdcdc"/>
    </linearGradient>
  </defs>
  <g id="g959">
    <rect id="rect2" x="0.438" y="0.438" width="41.125" height="41.125" fill="#dcdcdc"/>
    <rect id="rect4" x="5.25" y="0.438" width="16.625" height="41.125" fill="#bebebe"/>
    <path id="path17" d="M38.938,20.563H4.813a1.75,1.75,0,0,1-1.75-1.75V10.938a1.749,1.749,0,0,1,1.75-1.75H38.938a1.75,1.75,0,0,1,1.75,1.75v7.875A1.751,1.751,0,0,1,38.938,20.563Z" stroke="#147391" stroke-miterlimit="10" stroke-width="0.875" fill="url(#linear-gradient)"/>
    <path id="path30" d="M41.563,36.313H29.313a1.75,1.75,0,0,1-1.75-1.75V26.688a1.749,1.749,0,0,1,1.75-1.75h12.25" stroke="#147391" stroke-miterlimit="10" stroke-width="0.875" fill="url(#linear-gradient-2)"/>
    <rect id="rect32" x="0.438" y="0.438" width="41.125" height="41.125" fill="none" stroke="#464646" stroke-miterlimit="10" stroke-width="0.875"/>
    <path id="rect9" d="M22.036,27.535l25.315.136V47.6l-25.315-.135Z" fill="url(#linear-gradient-3)"/>
    <path id="path11" d="M47.153,28.064v19.2H22.236v-19.2m25.458-.841h-26V47.806h26Z" fill="#6f6e6e" stroke="#6f6e6e" stroke-width="0.388"/>
    <g id="g1045">
      <path id="line15-6-1" d="M24.324,32.285H35.431" fill="none" stroke="#177491" stroke-miterlimit="10" stroke-width="0.433"/>
      <path id="line17-5-9" d="M24.324,34.32H31.9" fill="none" stroke="#177491" stroke-miterlimit="10" stroke-width="0.433"/>
      <path id="path21-5" d="M40.037,33.768l-1.362-1.793L37.3,33.242l2.72,3.713,4.757-6.516L43.42,29.205" fill="#0e7191"/>
      <path id="polygon23-2" d="M38.031,33.205l.5-.411,1.533,2.082,3.409-4.632.494.417-3.9,5.315Z" fill="#3b90b2"/>
      <path id="rect956-3-2" d="M24.379,41.322v3.849h3.849V41.322Zm.55.55h2.749v2.749H24.929Z" fill="#0e7191"/>
      <path id="path974-2-3" d="M25.479,42.422l1.649,1.649" fill="none" stroke="#0e7191" stroke-width="0.55"/>
      <path id="path974-6-0-5" d="M27.128,42.367l-1.649,1.649" fill="none" stroke="#177491" stroke-width="0.55"/>
      <path id="rect956-7-7-4" d="M35.376,41.322v3.849h3.849V41.322Zm.55.55h2.749v2.749H35.926Z" fill="#177491"/>
      <path id="rect1006-2-2" d="M29.878,41.322h3.848v3.849H29.878Z" fill="#177491"/>
      <path id="rect1026-6-9" d="M35.684,41.675H37.3v1.571h-1.62Z" fill="#0e7191"/>
      <path id="rect1026-5-3-4" d="M37.3,43.243h1.508v1.445H37.3Z" fill="#0e7191"/>
      <path id="rect956-7-4-5-0" d="M40.874,41.322v3.849h3.849V41.322Zm.55.55h2.749v2.749H41.424Z" fill="#177491"/>
      <path id="rect1026-1-6-9" d="M41.424,41.872h.55v.55h-.55Z" fill="#177491"/>
      <path id="rect1026-1-3-1-8" d="M42.524,41.872h.55v.55h-.55Z" fill="#177491"/>
      <path id="rect1026-1-2-0-8" d="M43.624,41.872h.549v.55h-.549Z" fill="#177491"/>
      <path id="rect1026-1-1-1-0" d="M41.974,42.422h.55v.55h-.55Z" fill="#177491"/>
      <path id="rect1026-1-3-6-38-4" d="M43.074,42.422h.55v.55h-.55Z" fill="#177491"/>
      <path id="rect1026-1-8-8-4" d="M41.424,42.972h.55v.549h-.55Z" fill="#177491"/>
      <path id="rect1026-1-3-7-2-7" d="M42.524,42.972h.55v.549h-.55Z" fill="#177491"/>
      <path id="rect1026-1-2-5-0-3" d="M43.624,42.972h.549v.549h-.549Z" fill="#177491"/>
      <path id="rect1026-1-1-8-8-0" d="M41.974,43.521h.55v.55h-.55Z" fill="#177491"/>
      <path id="rect1026-1-3-6-3-3-1" d="M43.074,43.521h.55v.55h-.55Z" fill="#177491"/>
      <path id="rect1026-1-36-4-0" d="M41.424,44.071h.55v.55h-.55Z" fill="#177491"/>
      <path id="rect1026-1-3-61-9-4" d="M42.524,44.071h.55v.55h-.55Z" fill="#177491"/>
      <path id="rect1026-1-2-3-1-8" d="M43.624,44.071h.549v.55h-.549Z" fill="#177491"/>
    </g>
  </g>
</svg>
