<svg id="Layer_1" data-name="Layer 1" xmlns="http://www.w3.org/2000/svg" xmlns:xlink="http://www.w3.org/1999/xlink" viewBox="0 0 48 48">
  <defs>
    <linearGradient id="linear-gradient" x1="2.808" y1="877.441" x2="27.308" y2="901.941" gradientTransform="translate(19.248 -930.302) scale(1.083)" gradientUnits="userSpaceOnUse">
      <stop offset="0" stop-color="#fff"/>
      <stop offset="0.232" stop-color="#fafafa"/>
      <stop offset="0.496" stop-color="#ededed"/>
      <stop offset="0.775" stop-color="#d6d6d6"/>
      <stop offset="1" stop-color="#bebebe"/>
    </linearGradient>
    <linearGradient id="linear-gradient-2" x1="8.058" y1="52.809" x2="12.058" y2="48.809" gradientTransform="matrix(1.083, 0, 0, -1.083, 19.248, 80.854)" gradientUnits="userSpaceOnUse">
      <stop offset="0" stop-color="#73b4c8"/>
      <stop offset="0.175" stop-color="#6aaec3"/>
      <stop offset="0.457" stop-color="#529eb5"/>
      <stop offset="0.809" stop-color="#2c839f"/>
      <stop offset="1" stop-color="#147391"/>
    </linearGradient>
    <linearGradient id="linear-gradient-3" x1="8.058" y1="45.809" x2="12.058" y2="41.809" xlink:href="#linear-gradient-2"/>
    <linearGradient id="linear-gradient-4" x1="8.058" y1="38.809" x2="12.058" y2="34.809" xlink:href="#linear-gradient-2"/>
  </defs>
  <g id="g913">
    <g id="g900">
      <path id="path863-9" d="M25.265,12.313c-.209-.076-.284-.155-.608-.493a2.654,2.654,0,0,1-.452-.58,5.131,5.131,0,0,1-.741-1.57c-.04-.146-.106-.387-.148-.535a4.229,4.229,0,0,1-.135-1.391l-.006-.708h1.332v.556a3.9,3.9,0,0,0,.148,1.367c.055.2.124.441.152.531a4.33,4.33,0,0,0,.46.926c.087.131.16.265.182.3a1.036,1.036,0,0,0,.1.122.489.489,0,0,0,.131.116.512.512,0,0,0,.224.1,1.54,1.54,0,0,0,.261.047,5.66,5.66,0,0,0,.6.024.971.971,0,0,0,.417-.071.344.344,0,0,0,.076-.086c.007-.052.015-.531.018-1.066,0-.674.01-1,.023-1.063a3.066,3.066,0,0,1,.171-.475.93.93,0,0,1,.341-.328.717.717,0,0,1,.489-.091.876.876,0,0,1,.766.556,2.553,2.553,0,0,1,.042.767l.008.675.076-.061a.2.2,0,0,0,.1-.153.67.67,0,0,1,.33-.457l.147-.1.185-.01.186-.01.129.054a.8.8,0,0,1,.374.337,2.2,2.2,0,0,0,.144.193c.035.041.133.159.215.263a4.2,4.2,0,0,0,.353.376l.2.188.2.111a5.624,5.624,0,0,0,.777.175c.012,0,.022-.007.022-.014a.979.979,0,0,1,.237-.225A1.135,1.135,0,0,1,33,10.532l.147-.042.506-.018a1.731,1.731,0,0,1,.582.071,1.426,1.426,0,0,0,.421.025h.354v1.36h-.46a1.744,1.744,0,0,1-.591-.039.891.891,0,0,0-.2-.039c-.058,0-.07.006-.1.053a.733.733,0,0,1-.323.254,1.079,1.079,0,0,1-.485.125,1.565,1.565,0,0,1-.67-.112c-.145-.047-.409-.127-.588-.179a2.258,2.258,0,0,1-1.35-.808,2.637,2.637,0,0,0-.236-.224.934.934,0,0,0-.142.114,1.633,1.633,0,0,1-.37.276,1.735,1.735,0,0,1-.782.157H28.6l-.027.059a2.1,2.1,0,0,1-.883.752,2.4,2.4,0,0,1-.359.108A3.967,3.967,0,0,1,25.265,12.313Z" fill="#464646"/>
      <path id="rect39" d="M23.641,18.27H47.458V47.5H23.641Z" stroke="#464646" stroke-miterlimit="10" fill="url(#linear-gradient)"/>
      <path id="line41" d="M35.008,25.842l8.661.006" fill="none" stroke="#6e6e6e"/>
      <path id="rect43" d="M27.971,23.683H32.3v4.33H27.971Z" stroke="#147391" stroke-miterlimit="10" fill="url(#linear-gradient-2)"/>
      <path id="line45" d="M35.008,33.426l8.661.006" fill="none" stroke="#6e6e6e"/>
      <path id="rect47" d="M27.971,31.261H32.3v4.33H27.971Z" stroke="#147391" stroke-miterlimit="10" fill="url(#linear-gradient-3)"/>
      <path id="line49" d="M35.008,41l8.661.006" fill="none" stroke="#6e6e6e"/>
      <path id="rect51" d="M27.971,38.839H32.3V43.17H27.971Z" stroke="#147391" stroke-miterlimit="10" fill="url(#linear-gradient-4)"/>
      <path id="path831" d="M10.032,5.305a2.32,2.32,0,0,0-1.491.8,5.754,5.754,0,0,0-.813,1.253A9.271,9.271,0,0,0,6.315,12l.984-.045A8.479,8.479,0,0,1,8.6,7.821a4.851,4.851,0,0,1,.669-1.045,1.347,1.347,0,0,1,.848-.478,1.269,1.269,0,0,1,1.071.585,3.1,3.1,0,0,1,.49,1.416l-.148.118a2.65,2.65,0,0,0-.85,1.075,2.867,2.867,0,0,0-.213.928c-.032.414-.02.319-.04.542-.1.691-.19,1.671.576,2.1a.664.664,0,0,0,.542.047c.359-.133.519-.556.656-.929a8.232,8.232,0,0,0,.519-3.366,1.388,1.388,0,0,1,.151-.059.431.431,0,0,1,.248-.027c.07.03.158.183.237.319A1.818,1.818,0,0,0,13.9,9.7s.324.417.523.35c.312-.105.332-.94.332-.94a1.321,1.321,0,0,1,.36-.643.84.84,0,0,1,.711.039.707.707,0,0,0,1-.647c0-.036.01-.072,0-.072a1.133,1.133,0,0,1,.254-.085l.15-.043a3.468,3.468,0,0,0,1.534-1.193l-.742-.655a2.612,2.612,0,0,1-1.077.9l-.119.033a1.18,1.18,0,0,0-.876.614,1.014,1.014,0,0,0-.048.13,1.48,1.48,0,0,0-1.869.787,1.252,1.252,0,0,0-.54-.461,1.3,1.3,0,0,0-.9-.009,3.71,3.71,0,0,0-.608-1.5,2.236,2.236,0,0,0-1.951-.993Zm1.7,4.3a7.411,7.411,0,0,1-.334,1.862c.012-.112.029-.227.044-.327a5.994,5.994,0,0,0,.071-.695,1.832,1.832,0,0,1,.085-.6,1.013,1.013,0,0,1,.134-.243Z" fill="#464646" stroke="#464646" stroke-width="0.388"/>
      <path id="rect876" d="M.5,1.905H38.172V15.5H.5Z" fill="none" stroke="#464646" stroke-linecap="square" stroke-dasharray="4 4"/>
    </g>
  </g>
</svg>
