<svg id="Image" xmlns="http://www.w3.org/2000/svg" xmlns:xlink="http://www.w3.org/1999/xlink" viewBox="0 0 48 48">
  <defs>
    <linearGradient id="linear-gradient" x1="23.998" y1="749.625" x2="23.998" y2="741.954" gradientTransform="translate(0 -740)" gradientUnits="userSpaceOnUse">
      <stop offset="0" stop-color="#c9c6c5"/>
      <stop offset="0.045" stop-color="#cecccc"/>
      <stop offset="0.268" stop-color="#e7e6e6"/>
      <stop offset="0.497" stop-color="#f6f6f7"/>
      <stop offset="0.736" stop-color="#fefefe"/>
      <stop offset="1" stop-color="#fff"/>
    </linearGradient>
    <linearGradient id="linear-gradient-2" x1="6.031" y1="748.427" x2="41.969" y2="784.365" gradientTransform="translate(0 -740)" gradientUnits="userSpaceOnUse">
      <stop offset="0" stop-color="#fff"/>
      <stop offset="0.221" stop-color="#fbfbfc"/>
      <stop offset="0.541" stop-color="#ececec"/>
      <stop offset="0.92" stop-color="#d0cecd"/>
      <stop offset="1" stop-color="#c9c6c5"/>
    </linearGradient>
    <linearGradient id="linear-gradient-3" x1="8.906" y1="751.302" x2="39.094" y2="781.49" gradientTransform="translate(0 -740)" gradientUnits="userSpaceOnUse">
      <stop offset="0" stop-color="#fff"/>
      <stop offset="0.335" stop-color="#fbfbfc"/>
      <stop offset="0.82" stop-color="#ececec"/>
      <stop offset="1" stop-color="#e4e3e4"/>
    </linearGradient>
    <linearGradient id="linear-gradient-4" x1="25.109" y1="770.429" x2="34.129" y2="779.448" gradientTransform="translate(-11.567 -751.992)" gradientUnits="userSpaceOnUse">
      <stop offset="0" stop-color="#cde6eb"/>
      <stop offset="1" stop-color="#8cc3d2"/>
    </linearGradient>
    <linearGradient id="linear-gradient-5" x1="18.584" y1="770.147" x2="37.469" y2="789.031" gradientTransform="translate(-11.567 -751.992)" gradientUnits="userSpaceOnUse">
      <stop offset="0" stop-color="#73b4c8"/>
      <stop offset="1" stop-color="#177492"/>
    </linearGradient>
    <linearGradient id="linear-gradient-6" x1="16.714" y1="764.786" x2="25.83" y2="773.901" xlink:href="#linear-gradient-4"/>
    <linearGradient id="linear-gradient-7" x1="12.806" y1="768.694" x2="25.306" y2="781.194" gradientTransform="translate(-11.567 -751.992)" gradientUnits="userSpaceOnUse">
      <stop offset="0" stop-color="#afd7e1"/>
      <stop offset="1" stop-color="#73b4c8"/>
    </linearGradient>
    <linearGradient id="linear-gradient-8" x1="8.379" y1="742.499" x2="31.501" y2="765.621" gradientTransform="translate(-11.567 -751.992)" gradientUnits="userSpaceOnUse">
      <stop offset="0" stop-color="#fff"/>
      <stop offset="1" stop-color="#dcdcdc"/>
    </linearGradient>
    <linearGradient id="linear-gradient-9" x1="21.283" y1="752.281" x2="30.087" y2="761.086" xlink:href="#linear-gradient-8"/>
    <linearGradient id="linear-gradient-10" x1="25.067" y1="761.428" x2="28.122" y2="764.483" gradientTransform="translate(-11.567 -751.992)" gradientUnits="userSpaceOnUse">
      <stop offset="0" stop-color="#fff"/>
      <stop offset="1" stop-color="#bebdbd"/>
    </linearGradient>
    <linearGradient id="linear-gradient-11" x1="18.727" y1="752.273" x2="24.118" y2="757.664" xlink:href="#linear-gradient-10"/>
    <linearGradient id="linear-gradient-12" x1="27.056" y1="766.227" x2="30.111" y2="769.282" xlink:href="#linear-gradient-10"/>
    <linearGradient id="linear-gradient-13" x1="26.772" y1="764.122" x2="28.744" y2="766.094" xlink:href="#linear-gradient-8"/>
    <linearGradient id="linear-gradient-14" x1="29.01" y1="771.123" x2="31.564" y2="773.676" xlink:href="#linear-gradient-10"/>
    <linearGradient id="linear-gradient-15" x1="28.338" y1="769.418" x2="30.31" y2="771.39" xlink:href="#linear-gradient-8"/>
  </defs>
  <g id="g1289">
    <path id="path37" d="M32.146,5.792a2.5,2.5,0,0,0-1.917-.959H28.792V4.354A3.4,3.4,0,0,0,25.437,1H22.562a3.4,3.4,0,0,0-3.354,3.354v.479H17.771a2.5,2.5,0,0,0-1.917.959H6.75V47h34.5V5.792Z" fill="#4e4a48"/>
    <path id="path39" d="M16.333,9.625H31.667v-2.4a1.473,1.473,0,0,0-1.438-1.437h-2.4V4.354a2.372,2.372,0,0,0-2.344-2.4H22.562A2.372,2.372,0,0,0,20.167,4.3V5.792h-2.4a1.473,1.473,0,0,0-1.438,1.437Z" fill="url(#linear-gradient)"/>
    <path id="circle41" d="M24.958,4.833A.958.958,0,0,1,24,5.791h0a.958.958,0,0,1-.958-.958h0A.958.958,0,0,1,24,3.875h0a.958.958,0,0,1,.958.958Z" fill="#4e4a48"/>
    <path id="path43" d="M32.529,6.75a.859.859,0,0,1,.1.479v3.354H15.375V7.229a.859.859,0,0,1,.1-.479H7.708V46.042H40.292V6.75Z" fill="url(#linear-gradient-2)"/>
    <path id="polygon45" d="M15.375,10.583V8.667H9.625V44.125h28.75V8.667h-5.75v1.916Z" fill="#c9c6c5"/>
    <path id="polygon47" d="M15.375,10.583V9.625H10.583V43.167H37.417V9.625H32.625v.958Z" fill="url(#linear-gradient-3)"/>
    <g id="g208">
      <g id="g80">
        <path id="path36" d="M30.522,32.713H25.633l-2.718-2.2h4.892S30.471,32.754,30.522,32.713Z" fill="url(#linear-gradient-4)"/>
        <path id="polygon38" d="M25.633,32.713V30.079H19.652v9.657h10.87V32.713Z" fill="url(#linear-gradient-5)"/>
        <path id="polygon40" d="M23.457,28.323H17.479l2.173,1.756h5.981Z" fill="url(#linear-gradient-6)"/>
        <g id="g78">
          <path id="polyline42" d="M17.479,28.323V37.98l2.173,1.756V30.079L17.6,28.419" fill="url(#linear-gradient-7)"/>
          <g id="g76">
            <path id="path44" d="M25.533,32.965a.192.192,0,0,1-.031-.018.238.238,0,0,1-.041-.023l-2.717-2.2a.238.238,0,0,1-.074-.328.252.252,0,0,1,.046-.052H19.924V39.46H30.25V32.98H25.633A.282.282,0,0,1,25.533,32.965Z" fill="none"/>
            <path id="path46" d="M29.694,32.441c-.418-.335-1.04-.857-1.988-1.651h-1.8v1.651Z" fill="none"/>
            <path id="polygon48" d="M17.75,37.85l1.631,1.317V30.208L17.75,28.891Z" fill="none"/>
            <path id="polygon50" d="M23.682,30.79l1.677,1.354V30.79Z" fill="none"/>
            <path id="polygon52" d="M23.361,28.6H18.248l1.5,1.212h5.113Z" fill="none"/>
            <path id="path54" d="M25.533,32.965a.287.287,0,0,0,.1.02A.287.287,0,0,1,25.533,32.965Z" fill="#177491"/>
            <path id="path56" d="M30.779,32.623v-.007a.089.089,0,0,1,0,.023C30.777,32.634,30.78,32.628,30.779,32.623Z" fill="#177491"/>
            <path id="path58" d="M27.706,30.79c.948.794,1.57,1.316,1.988,1.651h.828a.287.287,0,0,1,.1.02h0c-.217-.143-1.506-1.2-2.638-2.148a.271.271,0,0,0-.174-.064h-1.9v.544Z" fill="#177491"/>
            <path id="path60" d="M30.714,32.521l.008.011Z" fill="#177491"/>
            <path id="path62" d="M30.722,32.532a.257.257,0,0,1,.054.084A.257.257,0,0,0,30.722,32.532Z" fill="#177491"/>
            <path id="path64" d="M30.622,32.461a.282.282,0,0,1,.092.06A.282.282,0,0,0,30.622,32.461Z" fill="#177491"/>
            <path id="path66" d="M30.779,32.639a.272.272,0,0,1-.087.286.223.223,0,0,1-.145.069.21.21,0,0,1-.061-.009H30.25v6.48H19.924V30.35h2.791a.264.264,0,0,1,.2-.1H25.9v-.167a.254.254,0,0,0-.01-.055L25.888,30a.286.286,0,0,0-.079-.118l-.006-.008-2.176-1.763a.269.269,0,0,0-.17-.06H17.479a.274.274,0,0,0-.141.045.22.22,0,0,0-.025.017.265.265,0,0,0-.087.114h0v.017a.314.314,0,0,0-.015.074v9.658a.277.277,0,0,0,.1.211l2.174,1.756a.311.311,0,0,0,.04.022.174.174,0,0,0,.033.018.266.266,0,0,0,.1.02h10.87a.272.272,0,0,0,.272-.272V32.713A.327.327,0,0,0,30.779,32.639Zm-11.4,6.528L17.748,37.85V28.892l1.633,1.316ZM18.248,28.6h5.113l1.5,1.212H19.749Z" fill="#177491"/>
            <path id="path68" d="M25.5,32.947a.192.192,0,0,0,.031.018A.192.192,0,0,1,25.5,32.947Z" fill="#177491"/>
            <path id="polygon70" d="M25.9,32.441V30.79h-.543v1.354l.368.3Z" fill="#177491"/>
            <path id="path72" d="M29.694,32.441H25.727l-.368-.3v.569a.267.267,0,0,0,.142.234.192.192,0,0,0,.031.018.287.287,0,0,0,.1.02h4.855a.21.21,0,0,0,.061.009.223.223,0,0,0,.145-.069.272.272,0,0,0,.087-.286.045.045,0,0,0,0-.023.275.275,0,0,0-.054-.084l-.008-.011a.282.282,0,0,0-.092-.06.312.312,0,0,0-.1-.02Z" fill="#177491"/>
            <path id="path74" d="M22.715,30.35h2.644v.44H25.9v-.544H22.913A.263.263,0,0,0,22.715,30.35Z" fill="#177491"/>
          </g>
        </g>
      </g>
      <path id="rect82" d="M12.587,16.908H35.413a.816.816,0,0,1,.057,1.631H12.587a.816.816,0,0,1,0-1.631Z" fill="url(#linear-gradient-8)"/>
      <g id="g88">
        <path id="polyline84" d="M25.3,16.19h5.1l-.638-.639H24.544l.756.639" fill="#dbdbdb"/>
        <path id="path86" d="M25.3,16.461a.27.27,0,0,1-.176-.064l-.755-.638a.271.271,0,0,1,.175-.479h5.221a.273.273,0,0,1,.193.079L30.6,16a.272.272,0,0,1-.192.464Zm.1-.543h4.347l-.094-.095H25.287Z" fill="#464646"/>
      </g>
      <path id="polygon90" d="M28.439,22.234,26.9,22.25l-1.6-1.6V16.19h5.1v4.465Z" fill="url(#linear-gradient-9)"/>
      <g id="g98">
        <path id="path92" d="M27.033,22.708a1.759,1.759,0,0,0-.311.543v1.218c.483-.741,1.155-1.76,1.315-1.942a.647.647,0,0,0,.075-.289l-.754.008C27.219,22.446,27.1,22.608,27.033,22.708Z" fill="url(#linear-gradient-10)"/>
        <path id="path94" d="M28.385,22.236a.879.879,0,0,1-.144.472c-.236.268-1.79,2.679-1.79,2.679V23.22s0-.179.361-.67c.05-.069.125-.175.213-.3H26.9l-.119-.119c-.076.108-.139.2-.183.258a1.679,1.679,0,0,0-.413.83v2.17a.272.272,0,0,0,.5.148c.62-.963,1.6-2.462,1.765-2.648a1.4,1.4,0,0,0,.224-.836l-.23.185Z" fill="#464646"/>
        <path id="path96" d="M26.451,23.22v2.168s1.554-2.411,1.79-2.679a.879.879,0,0,0,.144-.472h-.272a.622.622,0,0,1-.075.289c-.159.183-.831,1.2-1.314,1.942V23.25a1.729,1.729,0,0,1,.309-.542c.071-.1.187-.264.326-.464h-.334c-.088.127-.163.232-.213.3C26.455,23.041,26.451,23.22,26.451,23.22Z" fill="#464646"/>
      </g>
      <g id="g162">
        <path id="path100" d="M24.544,15.551v1.357c.45,0,.543.365.543.815s-.093.816-.543.816v1.339l.756.775V16.19Z" fill="url(#linear-gradient-11)"/>
        <g id="g160">
          <path id="path102" d="M35.413,18.269a.544.544,0,0,0,.047-1.087H30.675v1.087Z" fill="none"/>
          <path id="polygon104" d="M24.815,18.808v.957l.213.218V18.808Z" fill="none"/>
          <path id="polygon106" d="M27.006,21.978l1.336-.015,1.79-1.438V18.808h-4.56v1.731Z" fill="none"/>
          <path id="path108" d="M24.815,17.725c0-.543-.144-.543-.271-.543H12.587a.544.544,0,0,0,0,1.087H24.544C24.671,18.269,24.815,18.269,24.815,17.725Z" fill="none"/>
          <path id="rect110" d="M25.572,17.182h4.561v1.087h-4.56Z" fill="none"/>
          <path id="polygon112" d="M25.033,16.316l-.213-.18v.5h.213Z" fill="none"/>
          <path id="rect114" d="M25.572,16.461h4.561v.177h-4.56Z" fill="none"/>
          <path id="path116" d="M24.815,16.675a.7.7,0,0,1,.213.109v-.146h-.213Z" fill="#464646"/>
          <path id="path118" d="M35.413,16.638H30.675v.544h4.738a.544.544,0,1,1,.047,1.087.369.369,0,0,1-.047,0H30.675v.539h4.738a1.087,1.087,0,0,0,0-2.174h0Z" fill="#464646"/>
          <path id="path120" d="M24.815,18.775v.033h.218v-.14A.662.662,0,0,1,24.815,18.775Z" fill="#464646"/>
          <path id="path122" d="M24.544,18.269H12.587a.544.544,0,0,1,0-1.087H24.544a.272.272,0,0,1-.272-.272v-.272H12.587a1.087,1.087,0,0,0,0,2.174H24.272v-.271A.272.272,0,0,1,24.544,18.269Z" fill="#464646"/>
          <path id="rect126" d="M30.133,17.182h.543v1.087h-.543Z" fill="#464646"/>
          <path id="path128" d="M30.133,20.525l-1.79,1.44-1.336.014-1.434-1.435V18.808h0v1.843a.272.272,0,0,1-.464.192h0l1.6,1.6a.268.268,0,0,0,.191.08h0l1.543-.015a.275.275,0,0,0,.167-.06l1.965-1.576a.272.272,0,0,0,.1-.212V18.808h-.542Z" fill="#464646"/>
          <path id="path130" d="M25.571,16.19v.448h0v-.177h4.562v.177h.544V16.19a.272.272,0,0,0-.272-.272h-5l.076.064A.271.271,0,0,1,25.571,16.19Z" fill="#464646"/>
          <path id="rect134" d="M30.133,16.638h.543v.544h-.543Z" fill="#464646"/>
          <path id="rect138" d="M30.133,18.269h.543v.539h-.543Z" fill="#464646"/>
          <path id="path140" d="M24.544,17.182c.127,0,.271,0,.271.543s-.144.544-.271.544h.489V17.182Z" fill="#464646"/>
          <path id="path142" d="M25.033,18.808h0v1.175l-.213-.217v-.958h-.547v1.068a.27.27,0,0,0,.077.19l.755.775h0a.275.275,0,0,1-.079-.192Z" fill="#464646"/>
          <path id="path144" d="M24.815,16.136l.213.18v.322h0V16.19a.272.272,0,0,1,.272-.272h.1l-.679-.574a.272.272,0,0,0-.447.207v1.087h.543Z" fill="#464646"/>
          <path id="path146" d="M24.544,17.182h.489v-.544h0v.145a.7.7,0,0,0-.213-.109v-.036h-.547v.27a.271.271,0,0,0,.268.274Z" fill="#464646"/>
          <path id="path148" d="M24.815,18.775a.68.68,0,0,0,.213-.108v.141h0v-.543h-.484a.272.272,0,0,0-.272.272v.271h.543Z" fill="#464646"/>
          <path id="path150" d="M25.4,20.908a.272.272,0,0,0,.169-.252V18.808h-.538v1.843a.275.275,0,0,0,.079.192.272.272,0,0,0,.192.08A.275.275,0,0,0,25.4,20.908Z" fill="#464646"/>
          <path id="path152" d="M25.033,16.19v.448h.543V16.19a.268.268,0,0,0-.1-.208l-.076-.064h-.1a.271.271,0,0,0-.272.27h.005Z" fill="#464646"/>
          <path id="rect154" d="M25.033,17.182h.542v1.087h-.542Z" fill="#464646"/>
          <path id="rect156" d="M25.033,16.638h.542v.544h-.542Z" fill="#464646"/>
          <path id="rect158" d="M25.033,18.269h.542v.539h-.542Z" fill="#464646"/>
        </g>
      </g>
      <g id="g206">
        <g id="g168">
          <path id="path164" d="M28.669,23.537v2.278a4.765,4.765,0,0,1-.428.58c-.236.268-1.79,2.679-1.79,2.679V26.908s0-.179.361-.67S28.669,23.537,28.669,23.537Z" fill="url(#linear-gradient-12)"/>
          <path id="path166" d="M26.452,29.346a.272.272,0,0,1-.272-.272V26.908a1.672,1.672,0,0,1,.413-.829c.35-.483,1.836-2.673,1.851-2.695a.271.271,0,0,1,.5.152v2.278a.274.274,0,0,1-.039.142,5.1,5.1,0,0,1-.456.618c-.163.186-1.145,1.685-1.765,2.647A.272.272,0,0,1,26.452,29.346ZM28.4,24.419c-.471.692-1.141,1.668-1.365,1.979a1.784,1.784,0,0,0-.311.544v1.217c.483-.741,1.155-1.759,1.315-1.941a4.429,4.429,0,0,0,.36-.481Z" fill="#464646"/>
        </g>
        <g id="g174">
          <path id="path170" d="M28.239,22.666a1.234,1.234,0,0,1,.157,1.7l-1.585,1.872a1.476,1.476,0,0,1-.186-1.681.853.853,0,0,1,.115-.175Z" fill="url(#linear-gradient-13)"/>
          <path id="path172" d="M26.812,26.508a.272.272,0,0,1-.192-.08,1.738,1.738,0,0,1-.238-1.991,1.044,1.044,0,0,1,.157-.238l1.5-1.715a.272.272,0,0,1,.381-.029,1.5,1.5,0,0,1,.2,2.061l-1.6,1.894a.269.269,0,0,1-.2.1Zm1.427-3.432-1.294,1.482a.51.51,0,0,0-.077.118,1.248,1.248,0,0,0-.034,1.111l1.354-1.6a.922.922,0,0,0,.051-1.108Z" fill="#464646"/>
        </g>
        <g id="g180">
          <path id="path176" d="M28.2,30.073a1.987,1.987,0,0,1,.473,1.155h-1.19Z" fill="#969696"/>
          <path id="path178" d="M28.669,31.5h-1.19a.272.272,0,0,1-.272-.272.276.276,0,0,1,.041-.143l.72-1.155a.269.269,0,0,1,.2-.126.277.277,0,0,1,.225.087,2.261,2.261,0,0,1,.544,1.329.272.272,0,0,1-.264.28h-.009Zm-.7-.543h.393a1.732,1.732,0,0,0-.152-.386Z" fill="#464646"/>
        </g>
        <g id="g186">
          <path id="path182" d="M26.812,29.961c-.357.489-.361.67-.361.67v.6h1.028c.344-.52.666-1,.765-1.11a4.592,4.592,0,0,0,.427-.581V27.261S27.169,29.47,26.812,29.961Z" fill="url(#linear-gradient-14)"/>
          <path id="path184" d="M27.479,31.5H26.452a.271.271,0,0,1-.272-.27h0v-.6a1.675,1.675,0,0,1,.413-.83h0c.337-.463,1.763-2.561,1.845-2.685a.271.271,0,0,1,.5.143v2.278a.274.274,0,0,1-.039.142,5.292,5.292,0,0,1-.456.618c-.106.12-.585.843-.743,1.08A.269.269,0,0,1,27.479,31.5Zm-.753-.543h.607c.414-.622.622-.92.707-1.018a4.541,4.541,0,0,0,.359-.48v-1.3c-.56.835-1.353,1.947-1.365,1.965a1.756,1.756,0,0,0-.31.543Z" fill="#464646"/>
        </g>
        <g id="g192">
          <path id="path188" d="M28.239,26.4a1.234,1.234,0,0,1,.157,1.7l-1.585,1.873a1.477,1.477,0,0,1-.186-1.682.853.853,0,0,1,.115-.175Z" fill="url(#linear-gradient-15)"/>
          <path id="path190" d="M26.812,30.239a.271.271,0,0,1-.192-.079,1.741,1.741,0,0,1-.238-1.991,1.044,1.044,0,0,1,.157-.238l1.5-1.715a.272.272,0,0,1,.381-.029,1.492,1.492,0,0,1,.2,2.061l-1.6,1.895a.269.269,0,0,1-.2.1Zm1.43-3.432-1.3,1.483a.49.49,0,0,0-.077.118,1.249,1.249,0,0,0-.034,1.11l1.354-1.6a.925.925,0,0,0,.049-1.109Z" fill="#464646"/>
        </g>
        <g id="g198">
          <path id="polygon194" d="M27.558,31.908l-1.107-.679h1.025Z" fill="#bebdbd"/>
          <path id="path196" d="M27.558,32.182a.274.274,0,0,1-.142-.04l-1.106-.683a.271.271,0,0,1,.142-.5h1.027a.271.271,0,0,1,.271.238l.083.68a.272.272,0,0,1-.275.305Z" fill="#464646"/>
        </g>
        <g id="g204">
          <path id="polygon200" d="M28.669,31.228H27.476l.082.679Z" fill="#969696"/>
          <path id="path202" d="M27.558,32.182a.271.271,0,0,1-.269-.239l-.082-.685a.271.271,0,0,1,.237-.3h1.235a.271.271,0,0,1,.142.5l-1.11.68A.278.278,0,0,1,27.558,32.182Z" fill="#464646"/>
        </g>
      </g>
    </g>
  </g>
</svg>
