<svg id="Image" xmlns="http://www.w3.org/2000/svg" xmlns:xlink="http://www.w3.org/1999/xlink" viewBox="0 0 48 48">
  <defs>
    <linearGradient id="linear-gradient" x1="0.668" y1="45.791" x2="45.132" y2="7.123" gradientTransform="matrix(1, 0, 0, -1, 0, 52)" gradientUnits="userSpaceOnUse">
      <stop offset="0" stop-color="#fff"/>
      <stop offset="0.221" stop-color="#fbfbfc"/>
      <stop offset="0.541" stop-color="#ececec"/>
      <stop offset="0.92" stop-color="#d0cecd"/>
      <stop offset="1" stop-color="#c9c6c5"/>
    </linearGradient>
    <linearGradient id="linear-gradient-2" x1="47.319" y1="-19.984" x2="66.485" y2="-39.149" gradientTransform="matrix(0.873, 0, 0, -0.873, -32.558, 2.246)" gradientUnits="userSpaceOnUse">
      <stop offset="0" stop-color="#afd7e1"/>
      <stop offset="1" stop-color="#54a4bc"/>
    </linearGradient>
    <linearGradient id="linear-gradient-3" x1="58.523" y1="-35.824" x2="85.4" y2="-35.824" gradientTransform="matrix(0.873, 0, 0, -0.873, -32.558, 2.246)" gradientUnits="userSpaceOnUse">
      <stop offset="0" stop-color="#147391"/>
      <stop offset="0.191" stop-color="#2c839f"/>
      <stop offset="0.543" stop-color="#529eb5"/>
      <stop offset="0.825" stop-color="#6aaec3"/>
      <stop offset="1" stop-color="#73b4c8"/>
    </linearGradient>
  </defs>
  <g id="g856">
    <path id="path30" d="M1.5,43h45V10h-27L16.094,4.891A2,2,0,0,0,14.43,4H3.5a2,2,0,0,0-2,2Z" stroke="#4e4a48" stroke-miterlimit="10" fill="url(#linear-gradient)"/>
    <path id="path18" d="M32.433,29.48S28.578,13.329,14.572,16.639C2.765,19.433,4.532,33.591,4.532,33.591s4.719,3.459,14.7,2.146C26.977,34.719,27.705,31.372,32.433,29.48Z" fill="none" stroke="#464646" stroke-miterlimit="10" stroke-width="0.873"/>
    <path id="path20" d="M32.432,29.48S28.575,13.329,14.571,16.639C2.763,19.433,4.53,33.591,4.53,33.591s4.719,3.459,14.7,2.146C26.975,34.719,27.7,31.372,32.432,29.48Z" stroke="#464646" stroke-miterlimit="10" stroke-width="0.873" fill="url(#linear-gradient-2)"/>
    <path id="path22" d="M14.571,16.639a16.424,16.424,0,0,1,2.728-.41l-.106-.739a.872.872,0,0,0-.978-.741l-1.732.228a.873.873,0,0,0-.751.98v.009l.125.873C14.093,16.768,14.324,16.7,14.571,16.639Z" fill="#147391" stroke="#464646" stroke-miterlimit="10" stroke-width="0.873"/>
    <path id="path24" d="M32.433,29.48h0c-4.728,1.892-5.456,5.239-13.2,6.257-.239.031-.461.048-.693.073a17.226,17.226,0,0,0,8.805,1.709C33.67,37.155,38,30.1,42,30.607Z" stroke="#464646" stroke-miterlimit="10" stroke-width="0.873" fill="url(#linear-gradient-3)"/>
    <path id="path26" d="M42,30.608c-2.213-.282-4.529,1.752-7.226,3.687,5.638.625,8.27-.463,8.717-1.977C43.966,30.717,42,30.608,42,30.608Z" fill="#147391" stroke="#464646" stroke-miterlimit="10" stroke-width="0.873"/>
    <path id="path28" d="M14.771,17.476a9.58,9.58,0,0,0-.144,1.3" fill="none" stroke="#147391" stroke-miterlimit="10" stroke-width="0.873"/>
    <path id="path30-0" d="M14.7,21.019c.278,2.62,1.268,6.451,3.98,11.658" fill="none" stroke="#147391" stroke-miterlimit="10" stroke-width="0.873" stroke-dasharray="2.251 2.251"/>
    <path id="path32" d="M19.215,33.674q.308.563.639,1.144" fill="none" stroke="#147391" stroke-miterlimit="10" stroke-width="0.873"/>
    <path id="path34" d="M18.141,17.23c.371.106.791.234,1.245.392" fill="none" stroke="#147391" stroke-miterlimit="10" stroke-width="0.873"/>
    <path id="path36" d="M21.434,18.468a16.052,16.052,0,0,1,8.128,8.714" fill="none" stroke="#147391" stroke-miterlimit="10" stroke-width="0.873" stroke-dasharray="2.218 2.218"/>
    <path id="path38" d="M29.943,28.227q.2.6.373,1.255" fill="none" stroke="#147391" stroke-miterlimit="10" stroke-width="0.873"/>
  </g>
</svg>
