<svg id="svg8" xmlns="http://www.w3.org/2000/svg" xmlns:xlink="http://www.w3.org/1999/xlink" viewBox="0 0 48 48">
  <defs>
    <linearGradient id="linear-gradient" x1="-351.734" y1="1298.533" x2="-351.053" y2="1299.065" gradientTransform="translate(627.023 -2252.85) scale(1.736 1.737)" gradientUnits="userSpaceOnUse">
      <stop offset="0" stop-color="#73b4c8"/>
      <stop offset="0.175" stop-color="#6aaec3"/>
      <stop offset="0.457" stop-color="#529eb5"/>
      <stop offset="0.809" stop-color="#2c839f"/>
      <stop offset="1" stop-color="#147391"/>
    </linearGradient>
    <linearGradient id="linear-gradient-2" x1="-356.179" y1="1306.561" x2="-346.225" y2="1309.877" gradientTransform="translate(627.023 -2252.85) scale(1.736 1.737)" gradientUnits="userSpaceOnUse">
      <stop offset="0" stop-color="#fff"/>
      <stop offset="1" stop-color="#bebebe"/>
    </linearGradient>
    <linearGradient id="linear-gradient-3" x1="-487.169" y1="1121.348" x2="-485.647" y2="1122.87" gradientTransform="translate(1105.686 -2502.313) scale(2.238)" xlink:href="#linear-gradient"/>
    <linearGradient id="linear-gradient-4" x1="-487.762" y1="1123.631" x2="-485.224" y2="1126.169" gradientTransform="translate(1105.686 -2502.313) scale(2.238)" xlink:href="#linear-gradient"/>
    <linearGradient id="linear-gradient-5" x1="-487.939" y1="1125.088" x2="-485.021" y2="1128.006" gradientTransform="translate(1105.686 -2502.313) scale(2.238)" xlink:href="#linear-gradient"/>
    <linearGradient id="linear-gradient-6" x1="-2465.246" y1="-1833.503" x2="-2481.625" y2="-1848.381" gradientTransform="translate(-1212.079 -901.278) rotate(180) scale(0.499)" gradientUnits="userSpaceOnUse">
      <stop offset="0" stop-color="#fff"/>
      <stop offset="0.221" stop-color="#f8f8f8"/>
      <stop offset="0.541" stop-color="#e5e5e5"/>
      <stop offset="0.92" stop-color="#c6c6c6"/>
      <stop offset="1" stop-color="#bebebe"/>
    </linearGradient>
    <linearGradient id="linear-gradient-7" x1="924.65" y1="2714.107" x2="954.183" y2="2743.211" gradientTransform="translate(-437.15 -1270.308) scale(0.478 0.479)" xlink:href="#linear-gradient"/>
    <linearGradient id="linear-gradient-8" x1="-241.015" y1="3066.71" x2="-235.76" y2="3085.247" gradientTransform="matrix(0.447, -0.238, 0.23, 0.466, -581.307, -1453.821)" xlink:href="#linear-gradient"/>
    <linearGradient id="linear-gradient-9" x1="754.886" y1="-1683.321" x2="787.026" y2="-1714.247" gradientTransform="matrix(0.532, 0, 0, -0.532, -369.446, -866.064)" gradientUnits="userSpaceOnUse">
      <stop offset="0" stop-color="#73b4c8"/>
      <stop offset="0.177" stop-color="#6db0c5"/>
      <stop offset="0.403" stop-color="#5ea5bc"/>
      <stop offset="0.655" stop-color="#4494ad"/>
      <stop offset="0.923" stop-color="#207b98"/>
      <stop offset="1" stop-color="#147391"/>
    </linearGradient>
    <linearGradient id="linear-gradient-10" x1="-2927.561" y1="-1173.278" x2="-2927.561" y2="-1178.277" gradientTransform="matrix(0, -0.532, -0.532, 0, -596.104, -1531.537)" xlink:href="#linear-gradient-6"/>
    <linearGradient id="linear-gradient-11" x1="-2933.56" y1="-1173.278" x2="-2933.56" y2="-1178.277" gradientTransform="matrix(0, -0.532, -0.532, 0, -596.104, -1531.537)" xlink:href="#linear-gradient-6"/>
    <linearGradient id="linear-gradient-12" x1="-2939.559" y1="-1173.278" x2="-2939.559" y2="-1178.277" gradientTransform="matrix(0, -0.532, -0.532, 0, -596.104, -1531.537)" xlink:href="#linear-gradient-6"/>
    <linearGradient id="linear-gradient-13" x1="-2945.558" y1="-1173.278" x2="-2945.558" y2="-1178.277" gradientTransform="matrix(0, -0.532, -0.532, 0, -596.104, -1531.537)" xlink:href="#linear-gradient-6"/>
    <linearGradient id="linear-gradient-14" x1="-2951.557" y1="-1173.278" x2="-2951.557" y2="-1178.277" gradientTransform="matrix(0, -0.532, -0.532, 0, -596.104, -1531.537)" xlink:href="#linear-gradient-6"/>
    <linearGradient id="linear-gradient-15" x1="-2957.556" y1="-1173.278" x2="-2957.556" y2="-1178.277" gradientTransform="matrix(0, -0.532, -0.532, 0, -596.104, -1531.537)" xlink:href="#linear-gradient-6"/>
    <linearGradient id="linear-gradient-16" x1="-2963.555" y1="-1173.278" x2="-2963.555" y2="-1178.277" gradientTransform="matrix(0, -0.532, -0.532, 0, -596.104, -1531.537)" xlink:href="#linear-gradient-6"/>
  </defs>
  <path id="path1026" d="M15.966,3.153,11.39,18.814l5.593,1.271,5.136-1.119-1.17-6.2-2.72-9.712Z" fill="#fff"/>
  <path id="path1132" d="M16.075,3.843c0-.012.049-.305.133-.723a1.477,1.477,0,0,1,.426-.885.8.8,0,0,1,.977-.011.9.9,0,0,1,.445.573,7.081,7.081,0,0,1,.172,1.044c-.011.018-2.183-.031-2.2-.031s.018.036.018.035Z" fill="url(#linear-gradient)"/>
  <g id="g865">
    <g id="g867">
      <path id="rect828" d="M24.981,17.07a.318.318,0,0,0-.174-.033H22.058l.813,2.245-11.91.153.847-2.4-2.226.018-1.947,4.5L25.8,21.63l-.767-4.438A.213.213,0,0,0,24.981,17.07Z" fill="#147391" stroke="#147391" stroke-linejoin="round" stroke-width="0.093"/>
    </g>
  </g>
  <path id="rect828-6" d="M24.65,17.323l-2.42-.016.443,2.355-11.4-.166.516-2.174H9.921l-1.59,3.842,16.958.062Z" fill="url(#linear-gradient-2)"/>
  <path id="path1122" d="M15.918,2.9,11.065,18.721l.191.067a17.428,17.428,0,0,0,11.3-.018l.183-.067L18.448,2.923,18.2,2.93l.007.419H18.13l4.1,15.06a17.018,17.018,0,0,1-10.63.013l4.627-15.09L16.1,3.324l.019-.419Z" fill="#147391"/>
  <path id="path855" d="M17.192,1.724a1.2,1.2,0,0,0-.949.482,1.733,1.733,0,0,0-.273.508c-.028.084-.059.169-.082.264-.017.065-.059.2-.088.3l.4.116c.022-.079.069-.215.092-.315.017-.068.043-.142.073-.23a1.28,1.28,0,0,1,.2-.384.767.767,0,0,1,.61-.322.782.782,0,0,1,.607.343,1.3,1.3,0,0,1,.2.391c.027.084.054.172.077.258.031.117.069.239.079.294l.411-.07c-.023-.125-.061-.247-.083-.333s-.055-.188-.083-.275a1.763,1.763,0,0,0-.263-.521A1.2,1.2,0,0,0,17.192,1.724Z" fill="#147391"/>
  <path id="path1130" d="M18.349,3.47a2.825,2.825,0,0,1-1.182.3,2.2,2.2,0,0,1-1.157-.3l-.209.375a2.678,2.678,0,0,0,1.363.352,3.129,3.129,0,0,0,1.389-.352Z" fill="#147391"/>
  <path id="rect871" d="M22.491,18.218a.847.847,0,0,1,.754.016l.016.035-.095.125h-.575Z" fill="#147391"/>
  <path id="rect871-5" d="M11.441,18.212a.852.852,0,0,0-.753.016l-.017.037.1.124h.574Z" fill="#147391"/>
  <path id="path860" d="M16.381,10.073a13.011,13.011,0,0,1-1.923-.413L14.3,9.614l.176-.6c.1-.328.217-.735.267-.906.065-.224.1-.309.134-.309s.156.026.293.054a10.811,10.811,0,0,0,1.478.205,9.692,9.692,0,0,0,2.456-.2,1.906,1.906,0,0,1,.3-.045s.115.407.246.9a3.469,3.469,0,0,1,.205.911,10.515,10.515,0,0,1-1.679.4,9.528,9.528,0,0,1-1.795.053Z" stroke="#4d9ab2" stroke-linejoin="round" stroke-width="0.004" fill="url(#linear-gradient-3)"/>
  <path id="path862" d="M16.332,17.087a9.941,9.941,0,0,1-3.945-.718c-.074-.046-.134-.107-.134-.128s.184-.672.4-1.445l.4-1.4.127.039c.286.092.979.261,1.354.33a12.414,12.414,0,0,0,2.448.219,12.329,12.329,0,0,0,3.32-.445c.285-.07.523-.122.528-.116s.731,2.745.731,2.79c0,.061-.133.172-.312.259a9.41,9.41,0,0,1-2.926.578c-.43.033-1.636.055-2,.041Z" stroke="#4d9ab2" stroke-linejoin="round" stroke-width="0.004" fill="url(#linear-gradient-4)"/>
  <path id="path866" d="M16.552,20.3a21.337,21.337,0,0,1-5.282-.9c-.651-.2-.622-.175-.622-.473,0-.372.007-.377.381-.241a17.775,17.775,0,0,0,4.715.986,26.412,26.412,0,0,0,2.951-.046,18.31,18.31,0,0,0,4.027-.887c.322-.11.45-.145.476-.12a.621.621,0,0,1,.035.293c0,.312.031.286-.555.489a16.674,16.674,0,0,1-6.122.9Z" stroke="#4d9ab2" stroke-linejoin="round" stroke-width="0.004" fill="url(#linear-gradient-5)"/>
  <path id="rect1019" d="M10.973,18.225a.467.467,0,0,0-.476.138.611.611,0,0,0-.163.416v.368a.537.537,0,0,0,.178.391.829.829,0,0,0,.328.169,20.61,20.61,0,0,0,12.257,0,.951.951,0,0,0,.318-.167.537.537,0,0,0,.181-.391v-.367a.6.6,0,0,0-.163-.416.463.463,0,0,0-.476-.138,18.859,18.859,0,0,1-11.984,0Zm-.143.42a19.283,19.283,0,0,0,12.27,0s-.018-.009.006.02a.226.226,0,0,1,.046.116v.368c0,.032,0,.031-.028.053a.561.561,0,0,1-.168.083,20.177,20.177,0,0,1-12,0,.455.455,0,0,1-.156-.073c-.026-.025-.028-.029-.028-.06v-.368a.207.207,0,0,1,.046-.116c.024-.028.01-.019.006-.02Z" fill="#147391"/>
  <path id="path857" d="M12.861,12.949l-.96,3.258v.041a.584.584,0,0,0,.2.381,1.409,1.409,0,0,0,.394.248,5.527,5.527,0,0,0,1.214.356,18.367,18.367,0,0,0,3.448.287,16.2,16.2,0,0,0,3.28-.325,4.676,4.676,0,0,0,1.093-.362,1.3,1.3,0,0,0,.347-.251.57.57,0,0,0,.161-.376v-.029l-.867-3.21-.213.056a14.476,14.476,0,0,1-3.8.588,12.336,12.336,0,0,1-4.077-.588Zm.3.528a13.066,13.066,0,0,0,4,.581,14.562,14.562,0,0,0,3.692-.569l.735,2.728c0,.011,0,.026-.038.062a.949.949,0,0,1-.229.164,4.345,4.345,0,0,1-.982.322,15.868,15.868,0,0,1-3.188.314,17.912,17.912,0,0,1-3.358-.279,5.374,5.374,0,0,1-1.113-.322,1.015,1.015,0,0,1-.279-.172c-.042-.037-.046-.055-.046-.07Z" fill="#147391"/>
  <path id="path874" d="M14.568,7.361l-.781,2.553.2.059a9.864,9.864,0,0,0,3.177.526,10.569,10.569,0,0,0,2.986-.528l.193-.063-.7-2.527-.2.043a11.059,11.059,0,0,1-2.278.283,9.207,9.207,0,0,1-2.4-.3Zm.295.493a9.668,9.668,0,0,0,2.31.283,11.186,11.186,0,0,0,2.164-.268l.483,1.736a10.062,10.062,0,0,1-2.659.471,9.385,9.385,0,0,1-2.835-.471Z" fill="#147391"/>
  <path id="path933" d="M25.623,21.708c.76-.784,1.648-1.616,1.9-1.872l.546-.545-2.6-2.826-2.7-2.623L21.1,13.751l-1.526.077-.449.293-.318.4.072,1.611-.014,1.7L21.434,20.5c1.388,1.445,2.58,2.582,2.619,2.625l.17.092Zm-5.285-5.579a.669.669,0,0,1-.488-.81.662.662,0,0,1,.252-.377.626.626,0,0,1,1.073.474.635.635,0,0,1-.3.591c-.23.2-.256.208-.541.123Z" stroke="#464646" stroke-linecap="round" stroke-miterlimit="1.837" stroke-width="0.01" fill="url(#linear-gradient-6)"/>
  <path id="path8" d="M24.228,23.724l4.3-4.421L22.87,13.479H19.42l-.852.88V17.9Zm3.69-4.421-3.69,3.8L19,17.718V14.539l.6-.616h3.09Z" fill="#464646"/>
  <path id="rect2" d="M26.265,19.478l-3-3.091-.3.312,3,3.091Z" fill="#464646"/>
  <path id="rect4" d="M25.411,20.362l-2.58-2.652-.3.313,2.58,2.652Z" fill="#464646"/>
  <path id="rect6" d="M24.549,21.243l-3-3.091-.3.312,3,3.091Z" fill="#464646"/>
  <path id="path1050" d="M19.985,11.418a.791.791,0,1,0,.791.791.791.791,0,0,0-.791-.791Zm0,.436a.349.349,0,0,1,.349.349h0a.348.348,0,0,1-.347.349h0a.348.348,0,0,1-.348-.348h0a.347.347,0,0,1,.345-.349h0Z" fill="#464646"/>
  <path id="path1050-2" d="M20.526,14.688a.792.792,0,1,0,.791.793h0a.791.791,0,0,0-.791-.791h0Zm0,.437a.348.348,0,0,1,.348.348h0a.348.348,0,0,1-.347.349h0a.35.35,0,0,1-.349-.348h0a.349.349,0,0,1,.349-.349h0Z" fill="#464646"/>
  <path id="path914" d="M20,12a.24.24,0,0,0-.23.17,3.876,3.876,0,0,0-.034,2.455,3.185,3.185,0,0,0,.315.668,2.608,2.608,0,0,0,.18.251.242.242,0,0,0,.406-.264h0a.254.254,0,0,0-.029-.036l-.017-.019a1.148,1.148,0,0,1-.133-.184,2.723,2.723,0,0,1-.264-.569,3.357,3.357,0,0,1,.037-2.151.242.242,0,0,0-.153-.306A.257.257,0,0,0,20,12Z" fill="#6e6e6e"/>
  <g id="g857">
    <path id="rect969-0" d="M13.78,35.538v-.957h9.568v.957Z" fill="#969696"/>
    <path id="rect969" d="M18.086,29.317h.957V40.8h-.957Z" fill="#969696"/>
    <path id="path4" d="M11.244,24.135a3.857,3.857,0,0,0-4.011,3.477l-.209,1.944H5.694v2.871h.892l-.719,4.561c-.205,1.354-.607,2.039-1.2,2.039a1.293,1.293,0,0,1-.651-.149L3.3,38.464v3.055l.367.1.068.016.428.1a2.553,2.553,0,0,0,.622.077A3.64,3.64,0,0,0,7.6,40.579a6.093,6.093,0,0,0,1.373-3.261l.764-4.891h1.7V29.556H10.173l.2-1.684a1.16,1.16,0,0,1,.344-.715.941.941,0,0,1,.644-.233,1.87,1.87,0,0,1,.54.086,2.7,2.7,0,0,1,.3.111l.673.3v-3l-.34-.1A4.473,4.473,0,0,0,11.244,24.135Z" fill="#464646"/>
    <path id="path17" d="M12.392,24.771a3.945,3.945,0,0,0-1.148-.155A3.381,3.381,0,0,0,7.708,27.68l-.254,2.355H6.173v1.914h.973l-.807,5.113q-.369,2.444-1.667,2.444a1.753,1.753,0,0,1-.891-.214v1.862l.5.121a2.183,2.183,0,0,0,.509.063,3.165,3.165,0,0,0,2.457-1.081A5.6,5.6,0,0,0,8.5,37.246l.827-5.3h1.626V30.035H9.635L9.9,27.816a1.641,1.641,0,0,1,.5-1.018,1.4,1.4,0,0,1,.959-.352,2.3,2.3,0,0,1,.679.106,3.176,3.176,0,0,1,.353.13Z" fill="url(#linear-gradient-7)"/>
    <g id="text836">
      <path id="path841" d="M16.072,42.476H14.408a11.873,11.873,0,0,1-2-3.312,11.827,11.827,0,0,1,0-8.09,11.873,11.873,0,0,1,2-3.312h1.664v.074A9.517,9.517,0,0,0,14.946,29.1a10.116,10.116,0,0,0-.989,1.66,10.855,10.855,0,0,0-.713,2.026,10.428,10.428,0,0,0-.007,4.673,11.1,11.1,0,0,0,.718,2.019,9.5,9.5,0,0,0,1,1.658A9.312,9.312,0,0,0,16.072,42.4Z" fill="#464646"/>
    </g>
    <path id="path863" d="M14.258,41.809a10.611,10.611,0,0,1-2.057-4.53,11.7,11.7,0,0,1,.466-5.991,12.372,12.372,0,0,1,1.579-2.882l.253-.33h.627c.424,0,.182.011.182.027a3.456,3.456,0,0,1-.4.51,9.443,9.443,0,0,0-2.125,4.848,12.719,12.719,0,0,0-.088,2.723,9.479,9.479,0,0,0,.848,3.154,8.6,8.6,0,0,0,1.478,2.39l.436.444h-.923Z" fill="#5ba4ba"/>
    <g id="text836-1">
      <path id="path838" d="M20.92,42.476h1.665a11.873,11.873,0,0,0,2-3.312,11.85,11.85,0,0,0,0-8.09,11.873,11.873,0,0,0-2-3.312H20.92v.074A9.454,9.454,0,0,1,22.047,29.1a10.075,10.075,0,0,1,.989,1.66,10.852,10.852,0,0,1,.712,2.026,10.414,10.414,0,0,1,.007,4.673,11.02,11.02,0,0,1-.717,2.019,9.5,9.5,0,0,1-1,1.658A9.134,9.134,0,0,1,20.92,42.4Z" fill="#464646"/>
    </g>
    <path id="path863-1" d="M22.735,41.809a10.611,10.611,0,0,0,2.057-4.53,11.69,11.69,0,0,0-.467-5.991,12.3,12.3,0,0,0-1.579-2.882l-.253-.33h-.626c-.424,0-.182.011-.182.027a3.456,3.456,0,0,0,.4.51,9.417,9.417,0,0,1,2.124,4.848,12.645,12.645,0,0,1,.094,2.722,9.485,9.485,0,0,1-.848,3.155,8.629,8.629,0,0,1-1.479,2.39l-.436.444h.92Z" fill="#5ba4ba"/>
    <path id="path967-7-8" d="M22.125,37.308,18.557,39.44l-3.563-2.153L15,33l3.567-2.136,3.564,2.153Z" stroke="#464646" stroke-linecap="round" stroke-miterlimit="1.914" stroke-width="0.52" fill="url(#linear-gradient-8)"/>
  </g>
  <path id="polygon15" d="M29.121,23.266H47.734V47.734H29.121Z" stroke="#464646" stroke-miterlimit="5.318" stroke-width="0.532" fill="url(#linear-gradient-9)"/>
  <path id="path17-4" d="M44.011,36.032H34.439a1.067,1.067,0,0,1-1.064-1.064V29.649a1.067,1.067,0,0,1,1.064-1.064h9.572a1.067,1.067,0,0,1,1.064,1.064v5.319A1.067,1.067,0,0,1,44.011,36.032Z" fill="#fff" stroke="#147391" stroke-width="0.532"/>
  <path id="line19" d="M40.555,32.84h-5.85" fill="none" stroke="#5a5a5a" stroke-width="0.532"/>
  <path id="line21" d="M41.618,31.245H34.705" fill="none" stroke="#5a5a5a" stroke-width="0.532"/>
  <path id="rect34" d="M28.057,25.394h2.659v1.063H28.057Z" stroke="#464646" stroke-miterlimit="10" stroke-width="0.532" fill="url(#linear-gradient-10)"/>
  <path id="rect47" d="M28.057,28.585h2.659v1.064H28.057Z" stroke="#464646" stroke-miterlimit="10" stroke-width="0.532" fill="url(#linear-gradient-11)"/>
  <path id="rect60" d="M28.057,31.777h2.659V32.84H28.057Z" stroke="#464646" stroke-miterlimit="10" stroke-width="0.532" fill="url(#linear-gradient-12)"/>
  <path id="rect73" d="M28.057,34.968h2.659v1.064H28.057Z" stroke="#464646" stroke-miterlimit="10" stroke-width="0.532" fill="url(#linear-gradient-13)"/>
  <path id="rect86" d="M28.057,38.16h2.659v1.063H28.057Z" stroke="#464646" stroke-miterlimit="10" stroke-width="0.532" fill="url(#linear-gradient-14)"/>
  <path id="rect99" d="M28.057,41.351h2.659v1.064H28.057Z" stroke="#464646" stroke-miterlimit="10" stroke-width="0.532" fill="url(#linear-gradient-15)"/>
  <path id="rect112" d="M28.057,44.543h2.659v1.063H28.057Z" stroke="#464646" stroke-miterlimit="10" stroke-width="0.532" fill="url(#linear-gradient-16)"/>
  <path id="rect1048" d="M0,0H45.991V1H0Z" fill="#147391"/>
  <path id="rect1048-6" d="M0,45H26v1H0Z" fill="#147391"/>
  <path id="rect1048-6-3" d="M45.991,0V22h-1V0Z" fill="#147391"/>
  <path id="rect1048-6-3-8" d="M1,0V46H0V0Z" fill="#147391"/>
</svg>
