<svg id="Layer_1" data-name="Layer 1" xmlns="http://www.w3.org/2000/svg" xmlns:xlink="http://www.w3.org/1999/xlink" viewBox="0 0 48 48">
  <defs>
    <linearGradient id="linear-gradient" x1="-2.179" y1="52.271" x2="44.738" y2="5.189" gradientTransform="matrix(1, 0, 0, -1, 0, 50)" gradientUnits="userSpaceOnUse">
      <stop offset="0" stop-color="#fff"/>
      <stop offset="0.232" stop-color="#fafafa"/>
      <stop offset="0.496" stop-color="#ededed"/>
      <stop offset="0.775" stop-color="#d6d6d6"/>
      <stop offset="1" stop-color="#bebebe"/>
    </linearGradient>
    <linearGradient id="linear-gradient-2" x1="159.338" y1="199.792" x2="164.797" y2="198.308" gradientTransform="matrix(0.868, 0.497, 0.497, -0.868, -229.691, 130.665)" gradientUnits="userSpaceOnUse">
      <stop offset="0" stop-color="#73b4c8"/>
      <stop offset="0.175" stop-color="#6aaec3"/>
      <stop offset="0.457" stop-color="#529eb5"/>
      <stop offset="0.809" stop-color="#2c839f"/>
      <stop offset="1" stop-color="#147391"/>
    </linearGradient>
    <linearGradient id="linear-gradient-3" x1="164.234" y1="204.323" x2="171.057" y2="202.468" xlink:href="#linear-gradient-2"/>
    <linearGradient id="linear-gradient-4" x1="169.13" y1="208.854" x2="177.318" y2="206.627" xlink:href="#linear-gradient-2"/>
    <linearGradient id="linear-gradient-5" x1="174.206" y1="222.129" x2="190.582" y2="217.676" xlink:href="#linear-gradient-2"/>
    <linearGradient id="linear-gradient-6" x1="171.668" y1="215.492" x2="183.95" y2="212.151" xlink:href="#linear-gradient-2"/>
  </defs>
  <rect id="rect13" x="0.5" y="0.5" width="47" height="47" stroke="#464646" stroke-miterlimit="10" fill="url(#linear-gradient)"/>
  <line id="line15" x1="42" y1="13.5" x2="6.5" y2="13.5" fill="none" stroke="silver" stroke-miterlimit="10"/>
  <line id="line17" x1="42" y1="20.5" x2="6.5" y2="20.5" fill="none" stroke="silver" stroke-miterlimit="10"/>
  <line id="line19" x1="41.5" y1="27.5" x2="6.5" y2="27.5" fill="none" stroke="silver" stroke-miterlimit="10"/>
  <line id="line21" x1="41.5" y1="34.5" x2="6.5" y2="34.5" fill="none" stroke="silver" stroke-miterlimit="10"/>
  <line id="line23" x1="13.5" y1="6.5" x2="13.5" y2="41.5" fill="none" stroke="silver" stroke-miterlimit="10"/>
  <line id="line25" x1="20.5" y1="6.5" x2="20.5" y2="41.5" fill="none" stroke="silver" stroke-miterlimit="10"/>
  <line id="line27" x1="27.5" y1="6.5" x2="27.5" y2="41.5" fill="none" stroke="silver" stroke-miterlimit="10"/>
  <line id="line29" x1="34.5" y1="6.5" x2="34.5" y2="41.5" fill="none" stroke="silver" stroke-miterlimit="10"/>
  <rect id="rect31" x="6.5" y="6.5" width="35" height="35" fill="none" stroke="#6e6e6e" stroke-miterlimit="10"/>
  <rect id="rect60" x="7.846" y="36.422" width="4" height="4" stroke="#147391" fill="url(#linear-gradient-2)"/>
  <rect id="rect62" x="14.846" y="34.421" width="4" height="6" stroke="#147391" fill="url(#linear-gradient-3)"/>
  <rect id="rect64" x="21.846" y="32.421" width="4" height="8" stroke="#147391" fill="url(#linear-gradient-4)"/>
  <rect id="rect66" x="35.846" y="20.421" width="4" height="20" stroke="#147391" fill="url(#linear-gradient-5)"/>
  <rect id="rect68" x="28.846" y="26.421" width="4" height="14" stroke="#147391" fill="url(#linear-gradient-6)"/>
  <polygon id="polygon35" points="36.903 12.233 38.473 14.171 39 8.288 34.419 12.016 36.903 12.233" fill="#147391"/>
  <path id="path871" d="M9.173,32.827s8.074-1.835,11.649-3.811C29.989,23.949,37.074,11.9,37.074,11.9" fill="none" stroke="#147391" stroke-width="1.4"/>
</svg>
