<svg id="Image" xmlns="http://www.w3.org/2000/svg" xmlns:xlink="http://www.w3.org/1999/xlink" viewBox="0 0 48 48">
  <defs>
    <linearGradient id="linear-gradient" x1="-531.8" y1="-911.195" x2="-517.057" y2="-945.854" gradientTransform="matrix(0.809, -0.588, -0.57, -0.821, -79.97, -1033.025)" gradientUnits="userSpaceOnUse">
      <stop offset="0" stop-color="#fff"/>
      <stop offset="1" stop-color="#dcdcdc"/>
    </linearGradient>
    <linearGradient id="linear-gradient-2" x1="115.863" y1="870.913" x2="115.863" y2="863.242" gradientTransform="translate(-63.319 -648.507) scale(0.754)" gradientUnits="userSpaceOnUse">
      <stop offset="0" stop-color="#c9c6c5"/>
      <stop offset="0.045" stop-color="#cecccc"/>
      <stop offset="0.268" stop-color="#e7e6e6"/>
      <stop offset="0.497" stop-color="#f6f6f7"/>
      <stop offset="0.736" stop-color="#fefefe"/>
      <stop offset="1" stop-color="#fff"/>
    </linearGradient>
    <linearGradient id="linear-gradient-3" x1="97.896" y1="869.715" x2="133.834" y2="905.653" gradientTransform="translate(-63.319 -648.507) scale(0.754)" gradientUnits="userSpaceOnUse">
      <stop offset="0" stop-color="#fff"/>
      <stop offset="0.221" stop-color="#fbfbfc"/>
      <stop offset="0.541" stop-color="#ececec"/>
      <stop offset="0.92" stop-color="#d0cecd"/>
      <stop offset="1" stop-color="#c9c6c5"/>
    </linearGradient>
    <linearGradient id="linear-gradient-4" x1="100.771" y1="872.59" x2="130.959" y2="902.778" gradientTransform="translate(-63.319 -648.507) scale(0.754)" gradientUnits="userSpaceOnUse">
      <stop offset="0" stop-color="#fff"/>
      <stop offset="0.335" stop-color="#fbfbfc"/>
      <stop offset="0.82" stop-color="#ececec"/>
      <stop offset="1" stop-color="#e4e3e4"/>
    </linearGradient>
    <linearGradient id="linear-gradient-5" x1="116.974" y1="891.718" x2="125.994" y2="900.737" gradientTransform="translate(-72.036 -657.545) scale(0.754)" gradientUnits="userSpaceOnUse">
      <stop offset="0" stop-color="#cde6eb"/>
      <stop offset="1" stop-color="#8cc3d2"/>
    </linearGradient>
    <linearGradient id="linear-gradient-6" x1="110.449" y1="891.436" x2="129.334" y2="910.32" gradientTransform="translate(-72.036 -657.545) scale(0.754)" gradientUnits="userSpaceOnUse">
      <stop offset="0" stop-color="#73b4c8"/>
      <stop offset="1" stop-color="#177492"/>
    </linearGradient>
    <linearGradient id="linear-gradient-7" x1="108.579" y1="886.074" x2="117.695" y2="895.189" xlink:href="#linear-gradient-5"/>
    <linearGradient id="linear-gradient-8" x1="104.671" y1="889.983" x2="117.171" y2="902.483" gradientTransform="translate(-72.036 -657.545) scale(0.754)" gradientUnits="userSpaceOnUse">
      <stop offset="0" stop-color="#afd7e1"/>
      <stop offset="1" stop-color="#73b4c8"/>
    </linearGradient>
    <linearGradient id="linear-gradient-9" x1="100.244" y1="863.787" x2="123.366" y2="886.909" gradientTransform="translate(-72.036 -657.545) scale(0.754)" xlink:href="#linear-gradient"/>
    <linearGradient id="linear-gradient-10" x1="113.148" y1="873.569" x2="121.952" y2="882.374" gradientTransform="translate(-72.036 -657.545) scale(0.754)" xlink:href="#linear-gradient"/>
    <linearGradient id="linear-gradient-11" x1="116.932" y1="882.717" x2="119.987" y2="885.772" gradientTransform="translate(-72.036 -657.545) scale(0.754)" gradientUnits="userSpaceOnUse">
      <stop offset="0" stop-color="#fff"/>
      <stop offset="1" stop-color="#bebdbd"/>
    </linearGradient>
    <linearGradient id="linear-gradient-12" x1="110.592" y1="873.562" x2="115.983" y2="878.953" xlink:href="#linear-gradient-11"/>
    <linearGradient id="linear-gradient-13" x1="118.922" y1="887.515" x2="121.977" y2="890.57" xlink:href="#linear-gradient-11"/>
    <linearGradient id="linear-gradient-14" x1="118.637" y1="885.41" x2="120.609" y2="887.382" gradientTransform="translate(-72.036 -657.545) scale(0.754)" xlink:href="#linear-gradient"/>
    <linearGradient id="linear-gradient-15" x1="120.875" y1="892.412" x2="123.429" y2="894.965" xlink:href="#linear-gradient-11"/>
    <linearGradient id="linear-gradient-16" x1="120.204" y1="890.706" x2="122.176" y2="892.678" gradientTransform="translate(-72.036 -657.545) scale(0.754)" xlink:href="#linear-gradient"/>
  </defs>
  <g id="g1295">
    <path id="rect864" d="M1.421,37l22.635-9.579,22.523,9.613L24.147,46.579Z" stroke="#464646" stroke-linejoin="round" stroke-width="0.841" fill="url(#linear-gradient)"/>
    <g id="g1289">
      <path id="path37-8" d="M30.139,4.945a1.884,1.884,0,0,0-1.445-.723H27.611V3.861a2.563,2.563,0,0,0-2.528-2.528H22.916a2.562,2.562,0,0,0-2.527,2.528v.361H19.306a1.884,1.884,0,0,0-1.445.723H11V36H37V4.945Z" fill="#4e4a48"/>
      <path id="path39-8" d="M18.222,7.833H29.778V6.025a1.109,1.109,0,0,0-1.084-1.083H26.886V3.861a1.789,1.789,0,0,0-1.767-1.809h-2.2a1.789,1.789,0,0,0-1.8,1.768V4.945H19.3a1.109,1.109,0,0,0-1.084,1.083Z" fill="url(#linear-gradient-2)"/>
      <path id="circle41-2" d="M24.722,4.222A.722.722,0,0,1,24,4.944h0a.722.722,0,0,1-.722-.722h0A.722.722,0,0,1,24,3.5h0a.722.722,0,0,1,.722.722Z" fill="#4e4a48"/>
      <path id="path43-7" d="M30.428,5.667a.655.655,0,0,1,.075.361V8.555h-13V6.028a.655.655,0,0,1,.075-.361H11.722V35.278H36.278V5.667Z" fill="url(#linear-gradient-3)"/>
      <path id="polygon45-0" d="M17.5,8.555V7.111H13.167V33.833H34.833V7.111H30.5V8.555Z" fill="#c9c6c5"/>
      <path id="polygon47-8" d="M17.5,8.555V7.833H13.889V33.111H34.111V7.833H30.5v.722Z" fill="url(#linear-gradient-4)"/>
      <g id="g208">
        <g id="g80">
          <path id="path36" d="M28.915,25.233H25.231l-2.049-1.658h3.687S28.877,25.264,28.915,25.233Z" fill="url(#linear-gradient-5)"/>
          <path id="polygon38" d="M25.231,25.233V23.248H20.723v7.278h8.192V25.233Z" fill="url(#linear-gradient-6)"/>
          <path id="polygon40" d="M23.591,21.925H19.086l1.637,1.323h4.508Z" fill="url(#linear-gradient-7)"/>
          <g id="g78">
            <path id="polyline42" d="M19.086,21.925V29.2l1.637,1.324V23.248L19.175,22" fill="url(#linear-gradient-8)"/>
            <g id="g76">
              <path id="path44" d="M25.155,25.423a.109.109,0,0,1-.023-.014.134.134,0,0,1-.031-.017l-2.048-1.658A.179.179,0,0,1,23,23.487a.159.159,0,0,1,.034-.039h-2.1v6.87H28.71V25.434H25.231A.219.219,0,0,1,25.155,25.423Z" fill="none"/>
              <path id="path46" d="M28.291,25.028c-.315-.252-.784-.646-1.5-1.244H25.436v1.244Z" fill="none"/>
              <path id="polygon48" d="M19.29,29.1l1.229.993V23.345l-1.229-.992Z" fill="none"/>
              <path id="polygon50" d="M23.76,23.784l1.264,1.02v-1.02Z" fill="none"/>
              <path id="polygon52" d="M23.518,22.13H19.665l1.131.913h3.853Z" fill="none"/>
              <path id="path54" d="M25.155,25.423a.219.219,0,0,0,.076.015A.219.219,0,0,1,25.155,25.423Z" fill="#177491"/>
              <path id="path56" d="M29.109,25.165v0Z" fill="#177491"/>
              <path id="path58" d="M26.793,23.784c.714.6,1.183.992,1.5,1.244h.624a.213.213,0,0,1,.075.015h0c-.164-.108-1.135-.9-1.988-1.619a.2.2,0,0,0-.131-.048H25.436v.41Z" fill="#177491"/>
              <path id="path60" d="M29.06,25.088l.006.009Z" fill="#177491"/>
              <path id="path62" d="M29.066,25.1a.208.208,0,0,1,.041.063A.208.208,0,0,0,29.066,25.1Z" fill="#177491"/>
              <path id="path64" d="M28.99,25.043a.215.215,0,0,1,.07.045A.215.215,0,0,0,28.99,25.043Z" fill="#177491"/>
              <path id="path66" d="M29.109,25.177a.206.206,0,0,1-.066.216.166.166,0,0,1-.109.052.143.143,0,0,1-.046-.007H28.71v4.883H20.928V23.452h2.1a.2.2,0,0,1,.15-.075h2.253v-.126a.186.186,0,0,0-.008-.041l0-.024a.216.216,0,0,0-.06-.089l0-.006-1.64-1.328a.2.2,0,0,0-.128-.046H19.086a.215.215,0,0,0-.107.034l-.018.013a.2.2,0,0,0-.066.086h0v.013a.214.214,0,0,0-.011.056V29.2a.207.207,0,0,0,.075.159L20.6,30.679a.187.187,0,0,0,.031.017l.024.014a.244.244,0,0,0,.076.015H28.92a.205.205,0,0,0,.2-.205V25.233A.275.275,0,0,0,29.109,25.177ZM20.518,30.1l-1.23-.993V22.353l1.231.992Zm-.853-7.967h3.853l1.131.913H20.8Z" fill="#177491"/>
              <path id="path68" d="M25.131,25.409a.116.116,0,0,0,.024.014A.116.116,0,0,1,25.131,25.409Z" fill="#177491"/>
              <path id="polygon70" d="M25.433,25.028V23.784h-.409V24.8l.278.226Z" fill="#177491"/>
              <path id="path72" d="M28.291,25.028H25.3l-.278-.226v.429a.2.2,0,0,0,.107.176.188.188,0,0,0,.024.014.238.238,0,0,0,.075.015h3.659a.142.142,0,0,0,.046.006.165.165,0,0,0,.109-.052.2.2,0,0,0,.066-.215.048.048,0,0,0,0-.017.226.226,0,0,0-.041-.064l-.006-.008a.21.21,0,0,0-.145-.06Z" fill="#177491"/>
              <path id="path74" d="M23.032,23.452h1.992v.332h.409v-.41H23.181A.194.194,0,0,0,23.032,23.452Z" fill="#177491"/>
            </g>
          </g>
        </g>
        <path id="rect82" d="M15.4,13.322H32.6a.615.615,0,1,1,.043,1.229H15.4a.615.615,0,0,1,0-1.229Z" fill="url(#linear-gradient-9)"/>
        <g id="g88">
          <path id="polyline84" d="M24.98,12.781h3.843l-.481-.482H24.41l.57.482" fill="#dbdbdb"/>
          <path id="path86" d="M24.98,12.985a.207.207,0,0,1-.133-.048l-.569-.481a.205.205,0,0,1-.026-.288.208.208,0,0,1,.158-.073h3.935a.2.2,0,0,1,.145.06l.481.48a.205.205,0,0,1,0,.29.2.2,0,0,1-.145.06Zm.075-.409h3.276L28.26,12.5H24.97Z" fill="#464646"/>
        </g>
        <path id="polygon90" d="M27.345,17.336l-1.163.012-1.206-1.206V12.781h3.843v3.365Z" fill="url(#linear-gradient-10)"/>
        <g id="g98">
          <path id="path92" d="M26.286,17.693a1.325,1.325,0,0,0-.235.409v.918c.364-.558.871-1.326.991-1.463a.491.491,0,0,0,.057-.218l-.568.006C26.426,17.5,26.339,17.618,26.286,17.693Z" fill="url(#linear-gradient-11)"/>
          <path id="path94" d="M27.305,17.337a.663.663,0,0,1-.109.356c-.178.2-1.349,2.019-1.349,2.019V18.079s0-.135.272-.5c.038-.052.094-.132.161-.226h-.1l-.09-.09c-.057.082-.105.151-.138.2a1.268,1.268,0,0,0-.311.625v1.635a.205.205,0,0,0,.377.112c.467-.726,1.206-1.855,1.33-2a1.062,1.062,0,0,0,.169-.63l-.174.14Z" fill="#464646"/>
          <path id="path96" d="M25.847,18.079v1.634S27.018,17.9,27.2,17.694a.663.663,0,0,0,.109-.356h-.2a.475.475,0,0,1-.057.218c-.12.138-.626.9-.99,1.463V18.1a1.3,1.3,0,0,1,.233-.408c.053-.075.141-.2.245-.35H26.28c-.067.1-.123.175-.161.226C25.85,17.944,25.847,18.079,25.847,18.079Z" fill="#464646"/>
        </g>
        <g id="g162">
          <path id="path100" d="M24.41,12.3v1.023c.339,0,.409.275.409.614s-.07.615-.409.615V15.56l.57.584V12.781Z" fill="url(#linear-gradient-12)"/>
          <g id="g160">
            <path id="path102" d="M32.6,14.348a.41.41,0,0,0,.035-.82H29.03v.82Z" fill="none"/>
            <path id="polygon104" d="M24.614,14.754v.721l.161.164v-.885Z" fill="none"/>
            <path id="polygon106" d="M26.265,17.143l1.007-.011,1.349-1.084V14.754H25.185v1.3Z" fill="none"/>
            <path id="path108" d="M24.614,13.938c0-.41-.108-.41-.2-.41H15.4a.41.41,0,0,0,0,.82H24.41C24.506,14.348,24.614,14.348,24.614,13.938Z" fill="none"/>
            <path id="rect110" d="M25.185,13.528h3.437v.82H25.185Z" fill="none"/>
            <path id="polygon112" d="M24.778,12.876l-.16-.136v.377h.16Z" fill="none"/>
            <path id="rect114" d="M25.185,12.985h3.437v.133H25.185Z" fill="none"/>
            <path id="path116" d="M24.614,13.146a.524.524,0,0,1,.161.083v-.111h-.161Z" fill="#464646"/>
            <path id="path118" d="M32.6,13.118H29.03v.41H32.6a.41.41,0,0,1,.035.82H29.03v.406H32.6a.82.82,0,1,0,0-1.639h0Z" fill="#464646"/>
            <path id="path120" d="M24.614,14.729v.025h.164v-.106A.5.5,0,0,1,24.614,14.729Z" fill="#464646"/>
            <path id="path122" d="M24.41,14.348H15.4a.41.41,0,0,1,0-.82H24.41a.2.2,0,0,1-.205-.205v-.205H15.4a.82.82,0,0,0,0,1.639h8.806v-.2A.2.2,0,0,1,24.41,14.348Z" fill="#464646"/>
            <path id="rect126" d="M28.622,13.528h.409v.82h-.409Z" fill="#464646"/>
            <path id="path128" d="M28.622,16.048l-1.349,1.085-1.007.011-1.081-1.082V14.754h0v1.389a.2.2,0,0,1-.2.2.2.2,0,0,1-.144-.06h0l1.206,1.206a.2.2,0,0,0,.144.061h0l1.162-.012a.206.206,0,0,0,.126-.045l1.481-1.188a.2.2,0,0,0,.075-.159v-1.4h-.408Z" fill="#464646"/>
            <path id="path130" d="M25.184,12.781v.337h0v-.133h3.438v.133h.41v-.337a.205.205,0,0,0-.2-.205H25.059l.057.048A.2.2,0,0,1,25.184,12.781Z" fill="#464646"/>
            <path id="rect134" d="M28.622,13.118h.409v.41h-.409Z" fill="#464646"/>
            <path id="rect138" d="M28.622,14.348h.409v.406h-.409Z" fill="#464646"/>
            <path id="path140" d="M24.41,13.528c.1,0,.2,0,.2.41s-.108.41-.2.41h.368v-.82Z" fill="#464646"/>
            <path id="path142" d="M24.778,14.754h0v.885l-.16-.163v-.722h-.412v.8a.2.2,0,0,0,.058.143l.569.584h0a.209.209,0,0,1-.06-.145Z" fill="#464646"/>
            <path id="path144" d="M24.614,12.74l.161.136v.242h0v-.337a.2.2,0,0,1,.205-.205h.075l-.512-.433a.2.2,0,0,0-.288.025.21.21,0,0,0-.049.131v.819h.41Z" fill="#464646"/>
            <path id="path146" d="M24.41,13.528h.368v-.41h0v.11a.506.506,0,0,0-.16-.082v-.028h-.412v.2a.2.2,0,0,0,.2.206Z" fill="#464646"/>
            <path id="path148" d="M24.614,14.729a.519.519,0,0,0,.161-.081v.106h0v-.409H24.41a.2.2,0,0,0-.205.205v.2h.409Z" fill="#464646"/>
            <path id="path150" d="M25.057,16.336a.2.2,0,0,0,.127-.189V14.754h-.406v1.389a.209.209,0,0,0,.06.144.2.2,0,0,0,.145.061A.209.209,0,0,0,25.057,16.336Z" fill="#464646"/>
            <path id="path152" d="M24.778,12.781v.337h.41v-.337a.2.2,0,0,0-.076-.157l-.057-.048H24.98a.2.2,0,0,0-.205.2h0Z" fill="#464646"/>
            <path id="rect154" d="M24.778,13.528h.409v.82h-.409Z" fill="#464646"/>
            <path id="rect156" d="M24.778,13.118h.409v.41h-.409Z" fill="#464646"/>
            <path id="rect158" d="M24.778,14.348h.409v.406h-.409Z" fill="#464646"/>
          </g>
        </g>
        <g id="g206">
          <g id="g168">
            <path id="path164" d="M27.519,18.318v1.716a3.634,3.634,0,0,1-.323.438c-.178.2-1.349,2.019-1.349,2.019V20.858s0-.135.272-.5S27.519,18.318,27.519,18.318Z" fill="url(#linear-gradient-13)"/>
            <path id="path166" d="M25.848,22.7a.205.205,0,0,1-.2-.205V20.858a1.268,1.268,0,0,1,.311-.625c.264-.364,1.384-2.014,1.395-2.031a.2.2,0,0,1,.377.115v1.717a.215.215,0,0,1-.029.107,3.9,3.9,0,0,1-.344.465c-.123.141-.863,1.27-1.33,1.995A.207.207,0,0,1,25.848,22.7Zm1.466-3.714c-.355.522-.86,1.257-1.029,1.492a1.327,1.327,0,0,0-.234.41V21.8c.364-.558.87-1.326.991-1.463a3.313,3.313,0,0,0,.271-.362Z" fill="#464646"/>
          </g>
          <g id="g174">
            <path id="path170" d="M27.2,17.661a.931.931,0,0,1,.118,1.281l-1.2,1.411a1.112,1.112,0,0,1-.14-1.267.678.678,0,0,1,.087-.131Z" fill="url(#linear-gradient-14)"/>
            <path id="path172" d="M26.119,20.557a.205.205,0,0,1-.145-.061A1.309,1.309,0,0,1,25.8,19a.793.793,0,0,1,.118-.179l1.131-1.293a.206.206,0,0,1,.287-.022,1.127,1.127,0,0,1,.151,1.554l-1.206,1.427a.2.2,0,0,1-.151.075ZM27.2,17.97l-.976,1.117a.439.439,0,0,0-.058.089.941.941,0,0,0-.025.837l1.02-1.205a.7.7,0,0,0,.039-.835Z" fill="#464646"/>
          </g>
          <g id="g180">
            <path id="path176" d="M27.162,23.243a1.508,1.508,0,0,1,.357.871h-.9Z" fill="#969696"/>
            <path id="path178" d="M27.519,24.318h-.9a.205.205,0,0,1-.2-.205.208.208,0,0,1,.031-.108l.542-.87a.205.205,0,0,1,.155-.1.207.207,0,0,1,.169.066,1.685,1.685,0,0,1,.41,1,.2.2,0,0,1-.2.211h-.007Zm-.528-.409h.3a1.323,1.323,0,0,0-.114-.291Z" fill="#464646"/>
          </g>
          <g id="g186">
            <path id="path182" d="M26.119,23.159c-.269.369-.272.505-.272.505v.452h.775c.259-.392.5-.754.576-.836a3.424,3.424,0,0,0,.322-.438V21.124S26.388,22.789,26.119,23.159Z" fill="url(#linear-gradient-15)"/>
            <path id="path184" d="M26.622,24.318h-.774a.2.2,0,0,1-.2-.2h0v-.452a1.268,1.268,0,0,1,.311-.626h0c.254-.349,1.329-1.93,1.391-2.023a.2.2,0,0,1,.376.107v1.717a.2.2,0,0,1-.029.107,3.915,3.915,0,0,1-.344.466c-.08.09-.441.635-.56.814A.2.2,0,0,1,26.622,24.318Zm-.568-.409h.458c.312-.469.469-.693.533-.767a3.507,3.507,0,0,0,.27-.362V21.8c-.422.63-1.019,1.468-1.029,1.481a1.34,1.34,0,0,0-.233.409Z" fill="#464646"/>
          </g>
          <g id="g192">
            <path id="path188" d="M27.2,20.472a.931.931,0,0,1,.118,1.281l-1.2,1.411a1.112,1.112,0,0,1-.14-1.267.656.656,0,0,1,.087-.132Z" fill="url(#linear-gradient-16)"/>
            <path id="path190" d="M26.119,23.369a.209.209,0,0,1-.145-.06,1.313,1.313,0,0,1-.179-1.5.8.8,0,0,1,.118-.18l1.131-1.292a.2.2,0,0,1,.287-.022,1.125,1.125,0,0,1,.151,1.553L26.276,23.3a.206.206,0,0,1-.151.076ZM27.2,20.782,26.221,21.9a.333.333,0,0,0-.058.089.942.942,0,0,0-.026.836l1.021-1.206a.7.7,0,0,0,.037-.835Z" fill="#464646"/>
          </g>
          <g id="g198">
            <path id="polygon194" d="M26.681,24.626l-.834-.511h.773Z" fill="#bebdbd"/>
            <path id="path196" d="M26.681,24.833a.216.216,0,0,1-.107-.03l-.833-.515a.205.205,0,0,1-.064-.282.207.207,0,0,1,.171-.095h.774a.2.2,0,0,1,.2.179l.063.513a.206.206,0,0,1-.093.2A.211.211,0,0,1,26.681,24.833Z" fill="#464646"/>
          </g>
          <g id="g204">
            <path id="polygon200" d="M27.519,24.114h-.9l.061.512Z" fill="#969696"/>
            <path id="path202" d="M26.681,24.833a.2.2,0,0,1-.089-.021.2.2,0,0,1-.113-.159l-.062-.517a.2.2,0,0,1,.178-.226h.931a.205.205,0,0,1,.2.207.2.2,0,0,1-.1.17L26.8,24.8A.217.217,0,0,1,26.681,24.833Z" fill="#464646"/>
          </g>
        </g>
      </g>
    </g>
  </g>
</svg>
